<?xml version="1.0" standalone="no"?>
<!DOCTYPE svg PUBLIC "-//W3C//DTD SVG 1.1//EN" "http://www.w3.org/Graphics/SVG/1.1/DTD/svg11.dtd" >
<svg xmlns="http://www.w3.org/2000/svg" xmlns:xlink="http://www.w3.org/1999/xlink" version="1.1">
<metadata>
Created by FontForge 20201107 at Tue May 30 04:30:21 2023
 By 
Copyright (c) 2023 by Designova. All rights reserved.
</metadata>
<defs>
<font id="Helixa-LightItalic" horiz-adv-x="0" >
  <font-face 
    font-family="Helixa Light Italic"
    font-weight="300"
    font-style="italic"
    font-stretch="normal"
    units-per-em="2048"
    panose-1="0 0 4 0 0 0 0 0 0 0"
    ascent="1638"
    descent="-410"
    x-height="960"
    cap-height="1420"
    bbox="-885 -426 2807 1930"
    underline-thickness="50"
    underline-position="-100"
    slope="-9"
    unicode-range="U+0020-F8FF"
  />
<missing-glyph horiz-adv-x="1242" 
d="M1384 1450l-230 -1450h-1066l230 1450h1066zM1260 1350h-850l-198 -1250h850z" />
    <glyph glyph-name=".notdef" horiz-adv-x="1242" 
d="M1384 1450l-230 -1450h-1066l230 1450h1066zM1260 1350h-850l-198 -1250h850z" />
    <glyph glyph-name=".null" 
 />
    <glyph glyph-name="nonmarkingreturn" horiz-adv-x="682" 
 />
    <glyph glyph-name="space" unicode=" " horiz-adv-x="580" 
 />
    <glyph glyph-name="exclam" unicode="!" horiz-adv-x="500" 
d="M347 426h-60q20 225 88 654l54 340h92l-54 -340q-70 -444 -120 -654zM248 -28q-46 0 -74.5 32.5t-20.5 77.5q7 45 45 77.5t84 32.5q44 0 71 -32.5t20 -77.5t-44 -77.5t-81 -32.5z" />
    <glyph glyph-name="quotedbl" unicode="&#x22;" horiz-adv-x="534" 
d="M427 1342l-91 -382h-72l29 382q3 38 27 58t53 20q28 0 45 -20t9 -58zM667 1342l-91 -382h-72l29 382q3 38 27 58t53 20q28 0 45 -20t9 -58z" />
    <glyph glyph-name="numbersign" unicode="#" horiz-adv-x="1312" 
d="M200 528h218l127 364h-254l30 88h256l156 440h92l-156 -440h394l156 440h92l-156 -440h212l-30 -88h-214l-129 -364h220l-30 -88h-222l-156 -440h-92l156 440h-392l-156 -440h-92l156 440h-216zM510 528h392l129 364h-394z" />
    <glyph glyph-name="dollar" unicode="$" horiz-adv-x="1102" 
d="M472 -200l29 178q-182 9 -282 105t-90 253h102q-12 -114 65.5 -186.5t218.5 -81.5l97 612l-81 22q-154 41 -223.5 132t-47.5 228q26 163 153.5 265.5t318.5 114.5l29 178h84l-28 -176q167 -11 258 -106.5t84 -257.5h-100q6 124 -60.5 195t-196.5 79l-95 -600l93 -24
q154 -40 223 -133.5t47 -230.5q-27 -169 -158 -273t-327 -115l-29 -178h-84zM558 794l69 -18l91 578q-146 -12 -244.5 -91t-117.5 -201q-32 -205 202 -268zM767 640l-74 20l-94 -592q152 11 253.5 90t121.5 206q34 214 -207 276z" />
    <glyph glyph-name="percent" unicode="%" horiz-adv-x="1776" 
d="M959 1104q-24 -149 -134.5 -245.5t-257.5 -96.5t-227.5 97t-56.5 245q23 149 134 245.5t258 96.5t227 -96.5t57 -245.5zM1703 1420l-1303 -1420h-104l1301 1420h106zM871 1104q18 114 -40 186t-169 72t-192 -72t-99 -186t40.5 -186t168.5 -72t191.5 72t99.5 186z
M1718 316q-23 -149 -134 -245.5t-258 -96.5t-227 96.5t-57 245.5t134 245.5t258 96.5t227 -96.5t57 -245.5zM1630 316q18 114 -40 186t-169 72t-192 -72t-99 -186t40.5 -186t168.5 -72t191.5 72t99.5 186z" />
    <glyph glyph-name="ampersand" unicode="&#x26;" horiz-adv-x="1316" 
d="M1178 0l-118 166q-200 -192 -488 -192q-222 0 -337 103t-87 277q22 137 125 244t325 224q-87 123 -118 198t-19 148q20 123 114.5 198.5t230.5 75.5q131 0 199.5 -72t49.5 -190q-17 -106 -92.5 -193t-233.5 -183l351 -500q93 132 125 332h90q-37 -231 -170 -400l167 -236
h-114zM679 876l6 -10q130 73 197 149t81 165q13 83 -33 131.5t-139 48.5q-96 0 -160 -51.5t-78 -140.5q-8 -54 17 -113.5t109 -178.5zM240 354q-22 -140 69 -219t274 -79q269 0 435 172l-376 532q-204 -105 -293.5 -195.5t-108.5 -210.5z" />
    <glyph glyph-name="quotesingle" unicode="'" horiz-adv-x="294" 
d="M427 1342l-91 -382h-72l29 382q3 38 27 58t53 20q28 0 45 -20t9 -58z" />
    <glyph glyph-name="parenleft" unicode="(" horiz-adv-x="462" 
d="M417 -286h-96q-90 177 -121.5 411t6.5 481q38 236 144.5 472.5t251.5 413.5h96q-141 -164 -248.5 -398.5t-147.5 -487.5q-39 -270 -7 -499t122 -393z" />
    <glyph glyph-name="parenright" unicode=")" horiz-adv-x="462" 
d="M51 -286h-96q141 163 248.5 399.5t148.5 492.5q38 267 5.5 495t-121.5 391h96q90 -177 121.5 -410t-5.5 -476q-38 -241 -145 -478t-252 -414z" />
    <glyph glyph-name="asterisk" unicode="*" horiz-adv-x="792" 
d="M367 1140l-115 44l39 72l112 -40q94 -35 152 -76q-6 77 10 178l20 128h78l-20 -128q-14 -91 -44 -178q81 45 172 76l124 42l21 -74l-131 -44q-90 -29 -177 -44q44 -50 90 -136l56 -104l-72 -46l-57 104q-44 80 -62 156q-37 -74 -108 -156l-91 -104l-58 46l88 104
q61 72 136 136q-85 14 -163 44z" />
    <glyph glyph-name="plus" unicode="+" horiz-adv-x="1320" 
d="M274 718h456l72 456h88l-72 -456h456l-14 -88h-456l-73 -458h-88l73 458h-456z" />
    <glyph glyph-name="comma" unicode="," horiz-adv-x="500" 
d="M369 58q-13 -79 -79 -142.5t-148 -77.5l10 64q48 9 85 41.5t43 70.5q-19 -14 -54 -14t-56.5 25t-14.5 69t40.5 73t79.5 29q47 0 75.5 -37t18.5 -101z" />
    <glyph glyph-name="hyphen" unicode="-" horiz-adv-x="812" 
d="M206 480l13 84h552l-13 -84h-552z" />
    <glyph glyph-name="period" unicode="." horiz-adv-x="500" 
d="M247 -22q-45 0 -73 32t-20 76q7 45 44.5 77.5t82.5 32.5t72.5 -32.5t20.5 -77.5q-8 -44 -45 -76t-82 -32z" />
    <glyph glyph-name="slash" unicode="/" horiz-adv-x="648" 
d="M92 0h-92l779 1420h94z" />
    <glyph glyph-name="zero" unicode="0" horiz-adv-x="1348" 
d="M232 710q53 335 233.5 535.5t437.5 200.5q171 0 282 -92t150.5 -258t4.5 -386q-53 -335 -233 -535.5t-437 -200.5q-171 0 -282.5 92t-151 258t-4.5 386zM326 710q-46 -294 48 -470t310 -176t366 176t196 470q47 294 -47 470t-310 176t-366 -176t-197 -470z" />
    <glyph glyph-name="one" unicode="1" horiz-adv-x="716" 
d="M677 1418h94l-225 -1418h-94l208 1312l-373 -232l-33 80z" />
    <glyph glyph-name="two" unicode="2" horiz-adv-x="1102" 
d="M1002 0h-912l13 80l513 398q162 126 248.5 213.5t125.5 160.5t54 168q24 155 -52 244.5t-230 89.5q-159 0 -275 -107.5t-151 -286.5h-96q42 219 190 351.5t351 132.5q189 0 289 -116.5t71 -301.5q-18 -109 -64 -196t-144 -187t-272 -235l-413 -320h768z" />
    <glyph glyph-name="three" unicode="3" horiz-adv-x="1134" 
d="M627 788h-88l11 70l511 474h-714l14 88h844l-13 -80l-508 -470q219 0 334.5 -119t84.5 -313q-32 -207 -186.5 -334.5t-370.5 -127.5q-210 0 -313.5 121t-71.5 327h96q-26 -166 55 -262t248 -96q177 0 299 102.5t149 273.5q26 164 -74 255t-307 91z" />
    <glyph glyph-name="four" unicode="4" horiz-adv-x="1238" 
d="M1172 402l-14 -88h-166l-50 -314h-96l50 314h-756l14 88l879 1018h134l-161 -1018h166zM1056 1324l-794 -922h648z" />
    <glyph glyph-name="five" unicode="5" horiz-adv-x="1150" 
d="M572 -24q-210 0 -313.5 121t-71.5 327h96q-26 -166 55 -262t248 -96q176 0 299 107t151 279q26 165 -61.5 276.5t-267.5 111.5q-102 0 -201.5 -41t-180.5 -111l-52 26l182 706h752l-14 -88h-664l-130 -508q153 106 328 106q145 0 245.5 -66t140 -174.5t18.5 -239.5
q-32 -208 -188 -341t-371 -133z" />
    <glyph glyph-name="six" unicode="6" horiz-adv-x="1192" 
d="M409 914l428 506h114l-451 -524q73 40 131 56t122 16q145 0 247.5 -66.5t145 -178.5t21.5 -249q-34 -212 -199.5 -355t-373.5 -143q-136 0 -240 65.5t-152.5 180t-26.5 252.5q19 118 71 214t163 226zM271 474q-28 -178 66.5 -293t270.5 -115q174 0 304.5 115.5
t158.5 292.5q28 176 -66 290t-268 114q-176 0 -307 -114t-159 -290z" />
    <glyph glyph-name="seven" unicode="7" horiz-adv-x="980" 
d="M245 1420h940l-14 -88l-741 -1332h-100l745 1332h-844z" />
    <glyph glyph-name="eight" unicode="8" horiz-adv-x="1198" 
d="M170 380q21 131 113 230.5t230 143.5q-105 45 -152 131t-29 199q26 161 163.5 260.5t333.5 99.5q195 0 300 -99.5t79 -260.5q-19 -116 -93 -202t-192 -128q124 -38 185.5 -139t39.5 -237q-29 -177 -182.5 -289.5t-369.5 -112.5q-217 0 -336 112.5t-90 291.5zM426 1088
q-20 -131 62 -210.5t238 -79.5t261.5 78t126.5 208q19 124 -62 198t-237 74t-263 -73.5t-126 -194.5zM266 390q-23 -145 73 -235.5t273 -90.5q174 0 297.5 90t145.5 234q23 144 -71 231t-274 87q-178 0 -299.5 -86.5t-144.5 -229.5z" />
    <glyph glyph-name="nine" unicode="9" horiz-adv-x="1192" 
d="M1008 506l-428 -506h-114l451 524q-73 -40 -131 -56t-122 -16q-145 0 -247.5 66.5t-145.5 178.5t-21 249q34 212 199.5 355t373.5 143q136 0 240 -65.5t152.5 -180t26.5 -252.5q-19 -118 -71 -214t-163 -226zM1146 946q28 178 -67 293t-271 115q-174 0 -304 -115.5
t-158 -292.5q-28 -176 66 -290t268 -114q176 0 307 114t159 290z" />
    <glyph glyph-name="colon" unicode=":" horiz-adv-x="540" 
d="M391 762q-45 0 -72.5 32t-20.5 76q7 45 44.5 77.5t82.5 32.5t72.5 -32.5t20.5 -77.5q-7 -44 -44.5 -76t-82.5 -32zM267 -22q-45 0 -73 32t-20 76q7 45 44.5 77.5t82.5 32.5t72.5 -32.5t20.5 -77.5q-8 -44 -45 -76t-82 -32z" />
    <glyph glyph-name="semicolon" unicode=";" horiz-adv-x="540" 
d="M391 762q-45 0 -72.5 32t-20.5 76q7 45 44.5 77.5t82.5 32.5t72.5 -32.5t20.5 -77.5q-7 -44 -44.5 -76t-82.5 -32zM389 58q-13 -79 -79 -142.5t-148 -77.5l10 64q48 9 85 41.5t43 70.5q-19 -14 -54 -14t-56.5 25t-14.5 69t40.5 73t79.5 29q47 0 75.5 -37t18.5 -101z" />
    <glyph glyph-name="less" unicode="&#x3c;" horiz-adv-x="1320" 
d="M1188 174l-15 -94l-943 360l14 92l1057 360l-15 -94l-933 -312z" />
    <glyph glyph-name="equal" unicode="=" horiz-adv-x="1320" 
d="M292 834h1000l-14 -88h-1000zM228 430h1000l-14 -88h-1000z" />
    <glyph glyph-name="greater" unicode="&#x3e;" horiz-adv-x="1320" 
d="M1230 440l-1057 -360l15 94l933 312l-835 312l15 94l943 -360z" />
    <glyph glyph-name="question" unicode="?" horiz-adv-x="998" 
d="M543 308h-90l9 56q9 55 32.5 102t64.5 88t76.5 69t93.5 67t92.5 66t76.5 68.5t66.5 90t33.5 105.5q22 141 -56 237.5t-228 96.5q-139 0 -253.5 -98t-136.5 -236h-92q28 176 173.5 300t323.5 124q192 0 290.5 -122t70.5 -302q-10 -59 -34 -111.5t-50.5 -89t-71 -76.5
t-75 -62t-82.5 -57q-108 -72 -160.5 -128t-64.5 -132zM454 -28q-46 0 -74.5 32.5t-20.5 77.5q7 45 45 77.5t84 32.5q44 0 71 -32.5t20 -77.5t-44 -77.5t-81 -32.5z" />
    <glyph glyph-name="at" unicode="@" horiz-adv-x="1782" 
d="M967 714l163 20q112 13 148 46q36 244 -218 244q-120 0 -196.5 -53.5t-91.5 -148.5h-86q20 127 126.5 202.5t261.5 75.5q151 0 231.5 -76.5t55.5 -235.5l-65 -412q-10 -60 19.5 -92t94.5 -32q111 0 197.5 111t114.5 291q24 154 -9.5 287t-114 226.5t-207.5 147t-284 53.5
q-200 0 -382.5 -97.5t-305.5 -266t-155 -370.5q-24 -154 10.5 -291t115.5 -235.5t206.5 -156t276.5 -57.5q271 0 497 168l39 -58q-250 -186 -548 -186q-169 0 -309.5 63t-231 171.5t-129 260t-11.5 321.5q27 168 114 318.5t211.5 258t285 170.5t328.5 63q234 0 403.5 -100.5
t244.5 -281t39 -408.5q-32 -203 -148.5 -338.5t-258.5 -135.5q-102 0 -152 46.5t-42 135.5q-61 -84 -152.5 -129t-202.5 -45q-139 0 -206 68.5t-49 181.5q19 117 115.5 186.5t256.5 89.5zM1253 624l11 72q-14 -5 -31.5 -10t-41.5 -9.5t-42 -7.5t-49.5 -6.5t-45.5 -5t-49 -5
t-42 -4.5q-130 -14 -201 -69t-84 -139q-14 -87 39.5 -132.5t155.5 -45.5q151 0 252.5 99.5t127.5 262.5z" />
    <glyph glyph-name="A" unicode="A" horiz-adv-x="1236" 
d="M30 0l761 1420h104l311 -1420h-96l-98 454h-644l-242 -454h-96zM995 536l-169 780l-415 -780h584z" />
    <glyph glyph-name="B" unicode="B" horiz-adv-x="1264" 
d="M1066 718q97 -43 141.5 -129.5t26.5 -210.5q-29 -174 -163 -276t-329 -102h-562l225 1420h526q204 0 304 -98.5t72 -277.5q-18 -114 -80.5 -197t-160.5 -129zM923 1332h-436l-91 -576h436q158 0 256.5 75t120.5 213t-53 213t-233 75zM854 668h-472l-92 -580h472
q151 0 249 75.5t125 214.5q17 139 -57 214.5t-225 75.5z" />
    <glyph glyph-name="C" unicode="C" horiz-adv-x="1432" 
d="M745 -22q-192 0 -327.5 92.5t-192.5 259.5t-23 380q52 326 270 530t513 204q218 0 360 -124t156 -326h-106q-22 165 -138 261.5t-293 96.5q-251 0 -434.5 -178t-229.5 -464q-45 -286 82.5 -463t378.5 -177q177 0 326 91.5t223 244.5h106q-81 -192 -266.5 -310
t-404.5 -118z" />
    <glyph glyph-name="D" unicode="D" horiz-adv-x="1366" 
d="M560 0h-380l225 1420h380q322 0 488 -195t115 -515q-33 -211 -147.5 -372.5t-291 -249.5t-389.5 -88zM771 1332h-284l-197 -1244h284q281 0 476.5 169.5t239.5 452.5q46 285 -94.5 453.5t-424.5 168.5z" />
    <glyph glyph-name="E" unicode="E" horiz-adv-x="1174" 
d="M1054 0h-874l225 1420h872l-14 -88h-776l-91 -576h710l-14 -88h-710l-92 -580h778z" />
    <glyph glyph-name="F" unicode="F" horiz-adv-x="1122" 
d="M276 0h-96l225 1420h872l-14 -88h-776l-91 -576h710l-14 -88h-710z" />
    <glyph glyph-name="G" unicode="G" horiz-adv-x="1480" 
d="M1369 586h-514l13 82h608l-13 -82q-30 -190 -130 -324q-99 -137 -249.5 -210.5t-328.5 -73.5q-202 0 -336 92q-137 91 -193 256t-22 384q54 332 267 534q216 200 506 200q120 0 220.5 -37.5t167.5 -101.5t106 -148t42 -177h-96q-15 163 -136.5 271.5t-317.5 108.5
q-161 0 -302 -78q-142 -79 -236.5 -226.5t-126.5 -345.5q-30 -193 16 -342q49 -147 166 -226.5t288 -79.5q152 0 280 66q128 64 211 181t110 277z" />
    <glyph glyph-name="H" unicode="H" horiz-adv-x="1378" 
d="M276 0h-96l225 1420h96l-104 -654h826l104 654h96l-225 -1420h-96l107 678h-826z" />
    <glyph glyph-name="I" unicode="I" horiz-adv-x="456" 
d="M501 1420l-225 -1420h-96l225 1420h96z" />
    <glyph glyph-name="J" unicode="J" horiz-adv-x="1090" 
d="M895 420l158 1002h92l-158 -1002q-25 -155 -92 -252q-70 -96 -171 -142.5t-245 -47.5q-145 0 -233.5 46.5t-126.5 143.5q-37 99 -12 252l15 98h92l-15 -98q-39 -242 99 -320q82 -45 195 -42q113 0 201 42q162 79 201 320z" />
    <glyph glyph-name="K" unicode="K" horiz-adv-x="1238" 
d="M343 462l-73 -462h-90l225 1420h90l-131 -826l925 826h124l-752 -670l521 -750h-116l-475 688z" />
    <glyph glyph-name="L" unicode="L" horiz-adv-x="1094" 
d="M1054 0h-874l225 1420h96l-211 -1332h778z" />
    <glyph glyph-name="M" unicode="M" horiz-adv-x="1640" 
d="M501 1420l337 -1304l749 1304h98l-225 -1420h-96l190 1200l-686 -1200h-96l-307 1194l-189 -1194h-96l225 1420h96z" />
    <glyph glyph-name="N" unicode="N" horiz-adv-x="1386" 
d="M276 0h-96l225 1420h98l633 -1258l199 1258h96l-225 -1420h-96l-634 1262z" />
    <glyph glyph-name="O" unicode="O" horiz-adv-x="1492" 
d="M742 -26q-122 0 -221.5 37t-166 103.5t-109.5 158.5t-51.5 202t8.5 235q26 160 94 296t168 233.5t231.5 152t279.5 54.5q120 0 219 -36t166.5 -101.5t110.5 -157t52 -203t-9 -238.5q-51 -327 -263 -531.5t-509 -204.5zM755 58q170 0 313.5 86t235 233.5t120.5 332.5
q30 187 -15.5 335t-161.5 232.5t-285 84.5q-172 0 -315 -86t-233 -233t-120 -333q-24 -138 -1.5 -257t79 -207t155.5 -138t228 -50z" />
    <glyph glyph-name="P" unicode="P" horiz-adv-x="1216" 
d="M805 534h-444l-85 -534h-96l225 1420h540q201 0 299.5 -120t66.5 -320q-30 -192 -169.5 -319t-336.5 -127zM927 1332h-440l-112 -710h428q164 0 274.5 100t136.5 262q25 160 -53 254t-234 94z" />
    <glyph glyph-name="Q" unicode="Q" horiz-adv-x="1492" 
d="M1514 710q-54 -343 -278 -544l125 -170l-78 -66l-127 172q-183 -128 -414 -128q-122 0 -221.5 37t-166 103.5t-109.5 158.5t-51.5 202t8.5 235q26 160 94 296t168 233.5t231.5 152t279.5 54.5q120 0 219 -36t166.5 -101.5t110.5 -157t52 -203t-9 -238.5zM755 58
q196 0 352 110l-150 206l79 66l151 -206q191 184 237 476q30 187 -15.5 335t-161.5 232.5t-285 84.5q-172 0 -315 -86t-233 -233t-120 -333q-24 -138 -1.5 -257t79 -207t155.5 -138t228 -50z" />
    <glyph glyph-name="R" unicode="R" horiz-adv-x="1254" 
d="M1311 978q-23 -149 -116.5 -263t-232.5 -159l194 -556h-108l-184 532h-504l-84 -534h-96l225 1420h540q201 0 299.5 -120t66.5 -320zM927 1330h-440l-113 -710h428q164 0 275 100t137 262q25 160 -53 254t-234 94z" />
    <glyph glyph-name="S" unicode="S" horiz-adv-x="1102" 
d="M260 1062q28 174 170.5 278t352.5 104q183 0 282.5 -96.5t93.5 -267.5h-100q6 132 -69.5 204t-220.5 72q-165 0 -278.5 -80.5t-134.5 -213.5q-32 -205 202 -268l242 -64q154 -40 223 -133.5t47 -230.5q-28 -178 -172.5 -284t-357.5 -106q-200 0 -310.5 97t-100.5 263h102
q-13 -122 75.5 -196t247.5 -74q170 0 284 81t136 217q34 214 -207 276l-236 62q-154 41 -223.5 132t-47.5 228z" />
    <glyph glyph-name="T" unicode="T" horiz-adv-x="1058" 
d="M231 1332l14 88h1018l-14 -88h-460l-211 -1332h-96l211 1332h-462z" />
    <glyph glyph-name="U" unicode="U" horiz-adv-x="1354" 
d="M1165 484l148 936h96l-149 -938q-38 -237 -192.5 -371.5t-391.5 -134.5q-240 0 -353.5 134t-76.5 372l149 938h96l-148 -936q-32 -201 57.5 -307.5t290.5 -106.5q197 0 320 107.5t154 306.5z" />
    <glyph glyph-name="V" unicode="V" horiz-adv-x="1232" 
d="M668 0h-102l-321 1420h102l291 -1304l701 1304h98z" />
    <glyph glyph-name="W" unicode="W" horiz-adv-x="1910" 
d="M450 0l-195 1420h100l164 -1290l612 1290h96l204 -1288l576 1288h98l-649 -1420h-88l-211 1280l-615 -1280h-92z" />
    <glyph glyph-name="X" unicode="X" horiz-adv-x="1166" 
d="M640 708l-395 712h114l237 -424q74 -132 107 -220l550 644h108l-610 -708l395 -712h-114l-249 446q-57 97 -99 188l-544 -634h-112z" />
    <glyph glyph-name="Y" unicode="Y" horiz-adv-x="1200" 
d="M552 -2l97 612l-404 808h106l356 -718h8l584 718h106l-660 -808l-97 -612h-96z" />
    <glyph glyph-name="Z" unicode="Z" horiz-adv-x="1152" 
d="M1062 0h-972l14 86l1065 1246h-864l14 88h978l-14 -86l-1065 -1246h858z" />
    <glyph glyph-name="bracketleft" unicode="[" horiz-adv-x="466" 
d="M174 -10h280l-12 -80h-366l253 1600h366l-13 -80h-280z" />
    <glyph glyph-name="backslash" unicode="\" horiz-adv-x="648" 
d="M319 1420l329 -1420h-92l-331 1420h94z" />
    <glyph glyph-name="bracketright" unicode="]" horiz-adv-x="466" 
d="M-4 -90l12 80h280l228 1440h-280l13 80h366l-253 -1600h-366z" />
    <glyph glyph-name="asciicircum" unicode="^" horiz-adv-x="944" 
d="M379 800h-92l364 620h92l168 -620h-92l-139 516z" />
    <glyph glyph-name="underscore" unicode="_" horiz-adv-x="1012" 
d="M99 -132l15 92h772l-15 -92h-772z" />
    <glyph glyph-name="grave" unicode="`" horiz-adv-x="386" 
d="M536 1530h-84l-96 214h110z" />
    <glyph glyph-name="a" unicode="a" horiz-adv-x="1022" 
d="M668 984q79 0 141.5 -20t107.5 -60.5t62.5 -109t3.5 -158.5l-101 -636h-92l29 180q-65 -97 -169.5 -150.5t-229.5 -53.5q-152 0 -226 76.5t-54 201.5q21 130 127.5 207t280.5 97l180 20q121 13 162 52q40 270 -237 270q-133 0 -218 -59.5t-102 -164.5h-92
q22 140 139.5 224t287.5 84zM445 58q166 0 277.5 109.5t140.5 290.5l12 80q-83 -33 -330 -52q-143 -17 -220.5 -77.5t-91.5 -152.5q-15 -96 43 -147t169 -51z" />
    <glyph glyph-name="b" unicode="b" horiz-adv-x="1138" 
d="M240 0h-88l225 1420h92l-106 -668q70 115 175 173.5t234 58.5q137 0 228 -67t124 -180.5t10 -256.5q-35 -220 -175.5 -362t-346.5 -142q-128 0 -216 60t-122 180zM322 480q-30 -187 47.5 -303.5t246.5 -116.5q167 0 280.5 116.5t143.5 303.5q29 186 -47.5 303t-243.5 117
q-169 0 -283.5 -117t-143.5 -303z" />
    <glyph glyph-name="c" unicode="c" horiz-adv-x="1014" 
d="M155 476q37 229 184 368.5t353 139.5q153 0 249 -83t107 -221h-94q-13 104 -89.5 163t-185.5 59q-162 0 -282.5 -115.5t-150.5 -308.5q-30 -187 49 -302.5t239 -115.5q115 0 213 60t147 158h94q-61 -137 -188.5 -219.5t-279.5 -82.5q-198 0 -299 137.5t-66 362.5z" />
    <glyph glyph-name="d" unicode="d" horiz-adv-x="1138" 
d="M518 -24q-137 0 -228 67t-124 180.5t-10 256.5q35 220 175.5 362t346.5 142q129 0 215.5 -58.5t119.5 -173.5l106 668h92l-225 -1420h-88l34 216q-72 -120 -179 -180t-235 -60zM542 60q169 0 282.5 116t143.5 304q29 186 -48 303t-245 117q-167 0 -281.5 -117
t-143.5 -303q-30 -187 47 -303.5t245 -116.5z" />
    <glyph glyph-name="e" unicode="e" horiz-adv-x="1056" 
d="M1053 484l-2 -8l-807 2q-30 -190 52 -305t241 -115q114 1 210 61.5t145 158.5h92q-59 -137 -184.5 -219.5t-275.5 -82.5q-202 0 -301.5 137.5t-65.5 370.5q38 226 181.5 363t345.5 137t303 -137.5t66 -362.5zM260 554l711 -2q7 161 -75 255.5t-225 94.5q-142 0 -254 -94
t-157 -254z" />
    <glyph glyph-name="f" unicode="f" horiz-adv-x="558" 
d="M746 1418l-12 -75q-133 7 -190.5 -23t-74.5 -137l-31 -199h226l-13 -80h-226l-143 -904h-92l143 904h-150l13 80h150l31 199q23 145 105 197.5t264 37.5z" />
    <glyph glyph-name="g" unicode="g" horiz-adv-x="1142" 
d="M1015 754l33 206h94l-153 -964q-21 -135 -88 -232q-70 -96 -171 -142.5t-245 -47.5q-145 0 -233.5 46.5t-126.5 143.5q-24 62 -22 154h94q0 -160 107 -222q82 -45 195 -42q113 0 201 42q164 80 203 320l41 264q-67 -115 -178 -179.5t-242 -64.5q-134 0 -224.5 66
t-124.5 172.5t-14 235.5q15 96 59 181.5t110.5 150.5t158 103.5t195.5 38.5q129 0 214 -59.5t117 -170.5zM543 120q167 0 280.5 109t141.5 283q27 172 -49.5 280t-244.5 108q-165 0 -277.5 -112.5t-138.5 -277.5q-27 -165 50 -277.5t238 -112.5z" />
    <glyph glyph-name="h" unicode="h" horiz-adv-x="1100" 
d="M244 2h-92l225 1418h92l-102 -646q63 97 162.5 153.5t222.5 56.5q187 0 259 -106t41 -294l-92 -584h-92l90 566q28 180 -32 257t-193 77q-84 0 -155.5 -30.5t-122 -83t-83.5 -120t-45 -144.5z" />
    <glyph glyph-name="i" unicode="i" horiz-adv-x="396" 
d="M397 1254q-34 0 -55 24.5t-16 57.5q5 35 34 60.5t63 25.5q33 0 54.5 -26t16.5 -60q-5 -33 -34.5 -57.5t-62.5 -24.5zM152 0l152 960h92l-152 -960h-92z" />
    <glyph glyph-name="j" unicode="j" horiz-adv-x="394" 
d="M395 1254q-34 0 -55 24.5t-16 57.5q5 35 34 60.5t63 25.5q33 0 54.5 -26t16.5 -60q-5 -33 -34.5 -57.5t-62.5 -24.5zM-150 -418l-33 2l12 76l33 -2q61 -4 105.5 -0.5t75 20t49 50t27.5 90.5l181 1142h92l-181 -1142q-22 -143 -102.5 -195t-258.5 -41z" />
    <glyph glyph-name="k" unicode="k" horiz-adv-x="916" 
d="M252 0h-92l225 1420h92l-158 -998l607 538h118l-433 -384l285 -576h-106l-251 514l-239 -214z" />
    <glyph glyph-name="l" unicode="l" horiz-adv-x="412" 
d="M252 0h-92l225 1420h92z" />
    <glyph glyph-name="m" unicode="m" horiz-adv-x="1646" 
d="M244 0h-92l152 960h88l-23 -148q50 82 135 127t186 45q115 0 189.5 -58t90.5 -158q48 100 140.5 158t211.5 58q151 0 230.5 -95.5t52.5 -260.5l-99 -628h-88l98 616q20 132 -37.5 208t-177.5 76q-130 0 -220 -85.5t-108 -200.5l-97 -614h-90l98 618q21 132 -37 207
t-178 75q-130 0 -219.5 -84.5t-107.5 -199.5z" />
    <glyph glyph-name="n" unicode="n" horiz-adv-x="1100" 
d="M244 0h-92l152 960h94l-29 -186q63 99 163 154.5t210 55.5q375 0 310 -400l-92 -584h-92l90 566q29 182 -31.5 258t-199.5 76q-161 0 -268 -109.5t-136 -294.5z" />
    <glyph glyph-name="o" unicode="o" horiz-adv-x="1072" 
d="M1069 484q-40 -235 -187 -371.5t-350 -136.5q-205 0 -307 137.5t-68 370.5q38 226 184 363t351 137t307 -137t70 -363zM545 58q162 0 282.5 115t150.5 307t-53.5 307t-245.5 115t-282.5 -115t-150.5 -307t53.5 -307t245.5 -115z" />
    <glyph glyph-name="p" unicode="p" horiz-adv-x="1138" 
d="M88 -406l216 1366h88l-34 -216q72 120 179 180t235 60q137 0 228 -67t124 -180.5t10 -256.5q-35 -220 -175.5 -362t-346.5 -142q-129 0 -215.5 58.5t-119.5 173.5l-97 -614h-92zM322 480q-29 -186 48 -303t246 -117q167 0 281 117t143 303q30 187 -47 303.5t-244 116.5
q-169 0 -283 -116.5t-144 -303.5z" />
    <glyph glyph-name="q" unicode="q" horiz-adv-x="1138" 
d="M1050 960h88l-216 -1366h-92l97 614q-70 -115 -175 -173.5t-234 -58.5q-137 0 -228 67t-124 180.5t-10 256.5q35 220 175.5 362t346.5 142q128 0 216 -60t122 -180zM968 480q30 187 -47 303.5t-246 116.5q-167 0 -281 -116.5t-144 -303.5q-29 -186 48 -303t244 -117
q169 0 283 117t143 303z" />
    <glyph glyph-name="r" unicode="r" horiz-adv-x="620" 
d="M736 984l-13 -84q-160 -1 -265.5 -111t-134.5 -293l-79 -496h-92l152 960h94l-29 -186q62 98 160.5 153t206.5 57z" />
    <glyph glyph-name="s" unicode="s" horiz-adv-x="844" 
d="M107 260h90q-14 -93 42 -146.5t167 -53.5q122 0 200 51t92 139q11 71 -21.5 110.5t-121.5 63.5l-155 42q-116 31 -166.5 96t-35.5 156q19 120 121 193t251 73q148 0 224 -74.5t60 -205.5h-90q10 93 -44.5 144.5t-162.5 51.5q-116 0 -185 -47t-82 -135q-20 -125 145 -170
l153 -42q121 -33 169.5 -94.5t32.5 -161.5q-20 -123 -128.5 -198.5t-265.5 -75.5q-153 0 -231 77t-58 207z" />
    <glyph glyph-name="t" unicode="t" horiz-adv-x="598" 
d="M571 80l-12 -76q-182 -13 -246 39.5t-41 196.5l101 640h-194l13 80h194l48 304h92l-48 -304h194l-13 -80h-194l-101 -640q-7 -46 -3.5 -76t18 -48.5t41 -26.5t64 -10t87.5 1z" />
    <glyph glyph-name="u" unicode="u" horiz-adv-x="1100" 
d="M1008 960h92l-152 -960h-94l29 186q-63 -99 -163 -154.5t-210 -55.5q-373 0 -310 400l92 584h92l-90 -566q-29 -182 32 -258t200 -76q161 0 267.5 109.5t135.5 294.5z" />
    <glyph glyph-name="v" unicode="v" horiz-adv-x="930" 
d="M418 0l-246 960h98l212 -861l484 861h96l-550 -960h-94z" />
    <glyph glyph-name="w" unicode="w" horiz-adv-x="1436" 
d="M350 0l-168 960h94l141 -842l405 842h94l141 -840l407 840h94l-474 -960h-94l-139 840l-407 -840h-94z" />
    <glyph glyph-name="x" unicode="x" horiz-adv-x="860" 
d="M132 0h-112l425 484l-271 476h112l233 -412l363 412h110l-424 -480l272 -480h-112l-234 414z" />
    <glyph glyph-name="y" unicode="y" horiz-adv-x="892" 
d="M112 -418q-71 0 -128 12l11 74q85 -10 131 -10q77 1 120 33.5t85 112.5l69 130l-228 1026h96l196 -900l466 900h94l-613 -1182q-102 -196 -299 -196z" />
    <glyph glyph-name="z" unicode="z" horiz-adv-x="860" 
d="M780 0h-700l11 72l718 808h-590l13 80h700l-12 -74l-715 -806h588z" />
    <glyph glyph-name="braceleft" unicode="{" horiz-adv-x="534" 
d="M196 668l13 86q91 0 131 32.5t49 89.5l74 468q11 75 65 120.5t135 45.5h100l-13 -80h-102q-40 0 -67 -24.5t-32 -61.5l-74 -468q-10 -65 -41.5 -105t-94.5 -59q57 -20 75 -60.5t8 -105.5l-74 -470q-6 -37 13.5 -61.5t58.5 -24.5h102l-12 -80h-100q-81 0 -120 45.5
t-28 120.5l74 470q9 57 -20 89.5t-120 32.5z" />
    <glyph glyph-name="bar" unicode="|" horiz-adv-x="600" 
d="M233 -168l279 1756h80l-279 -1756h-80z" />
    <glyph glyph-name="braceright" unicode="}" horiz-adv-x="534" 
d="M96 -90h-100l12 80h102q39 0 66.5 24.5t33.5 61.5l74 470q10 65 41.5 105.5t95.5 60.5q-57 19 -75.5 59t-8.5 105l74 468q5 37 -14.5 61.5t-58.5 24.5h-102l13 80h100q81 0 120 -45.5t28 -120.5l-74 -468q-9 -57 20 -89.5t120 -32.5l-13 -86q-91 0 -131 -32.5t-49 -89.5
l-74 -470q-11 -75 -65 -120.5t-135 -45.5z" />
    <glyph glyph-name="asciitilde" unicode="~" horiz-adv-x="1320" 
d="M1187 714h86q-20 -130 -96.5 -207t-184.5 -77q-55 0 -112.5 21.5t-105 52.5t-93.5 62t-94.5 52.5t-91.5 21.5q-73 0 -115 -43.5t-63 -146.5h-86q20 127 95.5 202.5t182.5 75.5q60 0 130 -33t123.5 -72t121 -72t124.5 -33q72 0 115 46.5t64 149.5z" />
    <glyph glyph-name="exclamdown" unicode="&#xa1;" horiz-adv-x="500" 
d="M481 1448q44 0 71 -32.5t20 -77.5t-44.5 -77.5t-81.5 -32.5q-46 0 -74 32.5t-20 77.5q7 45 45 77.5t84 32.5zM377 994h60q-18 -217 -87 -654l-54 -340h-92l54 340q69 436 119 654z" />
    <glyph glyph-name="cent" unicode="&#xa2;" horiz-adv-x="1078" 
d="M524 -2l34 214q-182 15 -280.5 151t-65.5 341q33 214 171 352t332 150l34 214h88l-34 -214q144 -13 228.5 -94.5t95.5 -209.5h-96q-13 105 -91.5 162.5t-201.5 57.5q-162 0 -282 -113.5t-150 -302.5q-29 -180 59 -294t250 -114q127 0 217.5 56.5t140.5 157.5h96
q-58 -131 -167 -210.5t-256 -89.5l-34 -214h-88z" />
    <glyph glyph-name="sterling" unicode="&#xa3;" horiz-adv-x="1182" 
d="M696 0h-628l14 88q118 25 207 125.5t108 220.5q15 102 -10 240h-200l14 88h168q-10 51 -14 73t-10 65.5t-5 79.5t7 74q28 175 161.5 282.5t324.5 107.5q183 0 282.5 -96.5t93.5 -267.5h-100q6 132 -69.5 204t-220.5 72q-154 0 -253.5 -80.5t-122.5 -223.5
q-3 -19 -4.5 -38.5t-1.5 -35t2 -38t3.5 -34.5t6 -37t6.5 -34t8 -37t8 -36h516l-14 -88h-484q22 -130 3 -242q-18 -115 -91 -211.5t-171 -132.5h480q162 0 247 80t113 260h92q-35 -218 -149.5 -323t-316.5 -105z" />
    <glyph glyph-name="currency" unicode="&#xa4;" horiz-adv-x="1184" 
d="M1052 212l-132 156q-133 -96 -287 -96q-148 0 -253 94l-180 -154l-56 66l182 154q-75 117 -51 266q23 149 136 270l-133 154l76 66l132 -154q135 94 283 94q154 0 256 -96l181 156l56 -66l-183 -154q76 -115 52 -270q-25 -154 -137 -266l134 -154zM1041 698
q22 140 -62 240t-225 100q-138 0 -252.5 -100t-136.5 -240q-22 -138 61.5 -237t220.5 -99q139 0 255 99t139 237z" />
    <glyph glyph-name="yen" unicode="&#xa5;" horiz-adv-x="1130" 
d="M595 664l-330 756h106l308 -734l532 734h104l-562 -756h336l-13 -84h-368l-25 -160h368l-14 -84h-368l-53 -336h-92l53 336h-370l14 84h370l25 160h-370l13 84h336z" />
    <glyph glyph-name="brokenbar" unicode="&#xa6;" horiz-adv-x="600" 
d="M592 1588l-116 -728h-80l116 728h80zM233 -168l116 728h80l-116 -728h-80z" />
    <glyph glyph-name="section" unicode="&#xa7;" horiz-adv-x="916" 
d="M945 712q-13 -81 -80.5 -145t-174.5 -89q81 -33 116 -93.5t23 -140.5q-20 -120 -122 -193t-250 -73q-149 0 -224.5 75t-59.5 205h90q-10 -93 44.5 -144.5t162.5 -51.5q116 0 184.5 47t82.5 135q10 63 -26.5 107.5t-118.5 62.5l-194 42q-121 27 -169 90.5t-32 165.5
q13 82 80.5 145.5t174.5 88.5q-81 33 -116.5 93.5t-22.5 140.5q19 120 121 193t251 73q148 0 224 -74.5t60 -205.5h-90q10 93 -44.5 144.5t-162.5 51.5q-116 0 -184.5 -47t-82.5 -135q-10 -63 26.5 -107.5t118.5 -62.5l193 -42q120 -25 169.5 -88.5t32.5 -167.5zM853 712
q14 89 -51.5 138.5t-200.5 49.5q-136 0 -217 -49.5t-95 -138.5t51 -138.5t201 -49.5t217 49.5t95 138.5z" />
    <glyph glyph-name="dieresis" unicode="&#xa8;" horiz-adv-x="688" 
d="M462 1576q-34 0 -55 24.5t-16 57.5q5 35 34 60.5t63 25.5q33 0 54.5 -26t16.5 -60q-5 -33 -34.5 -57.5t-62.5 -24.5zM726 1576q-34 0 -55 24.5t-16 57.5q5 35 34 60.5t63 25.5q33 0 54.5 -26t16.5 -60q-5 -33 -34.5 -57.5t-62.5 -24.5z" />
    <glyph glyph-name="copyright" unicode="&#xa9;" horiz-adv-x="1630" 
d="M810 -28q-154 0 -281 57t-209 155t-117 235t-11 291q33 204 156 372.5t307 265t388 96.5q154 0 281 -56.5t209.5 -154t117.5 -234t11 -289.5q-24 -154 -102.5 -291t-191.5 -235t-258.5 -155t-299.5 -57zM822 48q184 0 347 86t271.5 238t137.5 338q30 185 -31 336
t-197 236.5t-319 85.5q-182 0 -345 -86t-271.5 -237t-138.5 -335q-29 -186 31.5 -338t196 -238t318.5 -86zM564 704q28 183 152 296.5t294 113.5q121 0 198.5 -66.5t88.5 -179.5h-94q-10 79 -63 121.5t-143 42.5q-130 0 -226 -91t-119 -235q-23 -143 42 -232.5t191 -89.5
q91 0 161.5 42t109.5 120h92q-49 -111 -151.5 -177.5t-224.5 -66.5q-164 0 -250 112.5t-58 289.5z" />
    <glyph glyph-name="ordfeminine" unicode="&#xaa;" horiz-adv-x="838" 
d="M659 1408q143 0 210.5 -75t46.5 -211l-81 -511h-96l17 106q-57 -57 -137 -91t-158 -34q-121 0 -184 63t-47 167q16 105 102.5 169.5t231.5 81.5l140 16q85 8 116 34h-7l1 7l6 -5v-2l1 1l-1 1q13 97 -31 144.5t-147 47.5q-104 0 -167 -46.5t-71 -128.5h-95
q14 119 110.5 192.5t239.5 73.5zM814 1130l-3 2l4 7zM798 982l7 47q-80 -24 -246 -36q-211 -26 -232 -169q-11 -68 30 -106t127 -38q124 0 208 80.5t106 221.5z" />
    <glyph glyph-name="guillemotleft" unicode="&#xab;" horiz-adv-x="1078" 
d="M500 0l-344 480l496 480h98l-496 -480l344 -480h-98zM900 0l-344 480l496 480h98l-496 -480l344 -480h-98z" />
    <glyph glyph-name="logicalnot" unicode="&#xac;" horiz-adv-x="1320" 
d="M1177 640l-77 -488h-92l63 400h-824l14 88h916z" />
    <glyph glyph-name="registered" unicode="&#xae;" horiz-adv-x="938" 
d="M576 672q-166 0 -260 111.5t-68 276.5q25 163 155.5 274.5t295.5 111.5t259 -110.5t68 -275.5q-26 -166 -154.5 -277t-295.5 -111zM585 728q141 0 251 95t132 237q22 141 -57.5 235.5t-220.5 94.5t-250 -94.5t-132 -235.5q-23 -143 56 -237.5t221 -94.5zM522 848h-62
l69 432h156q71 0 107 -35.5t26 -96.5q-15 -92 -109 -122l69 -178h-70l-62 164h-98zM752 1146q5 37 -15.5 56.5t-62.5 19.5h-92l-25 -152h92q43 0 70 19.5t33 56.5z" />
    <glyph glyph-name="macron" unicode="&#xaf;" horiz-adv-x="672" 
d="M382 1654l13 84h432l-13 -84h-432z" />
    <glyph glyph-name="degree" unicode="&#xb0;" horiz-adv-x="484" 
d="M658 1222q-16 -96 -89.5 -159t-168.5 -63t-148.5 63t-37.5 159q15 96 88.5 159t168.5 63t148.5 -63t38.5 -159zM578 1222q10 63 -23 104.5t-96 41.5t-109 -41.5t-56 -104.5q-11 -63 22 -104.5t96 -41.5t109 41.5t57 104.5z" />
    <glyph glyph-name="plusminus" unicode="&#xb1;" horiz-adv-x="1320" 
d="M283 778h456l63 396h88l-63 -396h456l-14 -88h-456l-62 -396h-88l62 396h-456zM160 0l14 88h1000l-14 -88h-1000z" />
    <glyph glyph-name="uni00B2" unicode="&#xb2;" horiz-adv-x="740" 
d="M746 672l-12 -79h-538l11 67l291 226q127 99 173 156.5t58 133.5q13 80 -25.5 125.5t-118.5 45.5q-86 0 -147 -60.5t-76 -159.5h-84q22 134 110.5 217t211.5 83q111 0 170.5 -69.5t42.5 -178.5q-15 -94 -74 -170t-200 -185l-195 -152h402z" />
    <glyph glyph-name="uni00B3" unicode="&#xb3;" horiz-adv-x="753" 
d="M461 585q-127 0 -188 76.5t-36 203.5h84q-20 -93 20.5 -146.5t131.5 -53.5q92 0 155 52.5t77 141.5q13 85 -39 131.5t-160 46.5h-65l10 60l262 243h-378l13 79h500l-11 -65l-261 -243q114 -10 172 -79t41 -175q-20 -121 -110.5 -196.5t-217.5 -75.5z" />
    <glyph glyph-name="acute" unicode="&#xb4;" horiz-adv-x="390" 
d="M586 1742l-168 -212h-84l142 212h110z" />
    <glyph glyph-name="uni00B5" unicode="&#xb5;" horiz-adv-x="1080" 
d="M168 -406h-92l216 1368h94l-90 -570q-53 -332 224 -332q153 0 255.5 101.5t131.5 286.5l81 512h92l-152 -960h-74l10 178q-54 -91 -157.5 -146.5t-222.5 -55.5q-80 0 -143 30t-95 80z" />
    <glyph glyph-name="paragraph" unicode="&#xb6;" horiz-adv-x="1118" 
d="M222 1020q29 184 153.5 292t283.5 108h212l-243 -1536h-92l115 730h-120q-159 0 -249 109.5t-60 296.5zM879 -120h-92l244 1540h92z" />
    <glyph glyph-name="periodcentered" unicode="&#xb7;" horiz-adv-x="500" 
d="M304 340q-63 0 -102.5 45.5t-29.5 108.5q11 65 64 110.5t117 45.5q65 0 103 -46t28 -110q-10 -63 -63.5 -108.5t-116.5 -45.5z" />
    <glyph glyph-name="cedilla" unicode="&#xb8;" horiz-adv-x="432" 
d="M31 -312l11 72q46 -30 99 -30q37 0 65 16.5t33 47.5q5 32 -13 48t-54 16q-41 0 -103 -26l-9 44l110 176h46l-8 -52l-54 -88q35 10 58 10q56 0 86.5 -34t21.5 -90q-11 -66 -63 -102t-117 -36q-73 0 -109 28z" />
    <glyph glyph-name="uni00B9" unicode="&#xb9;" horiz-adv-x="503" 
d="M628 1418l-131 -825h-83l114 721l-198 -123l-30 72l255 155h73z" />
    <glyph glyph-name="ordmasculine" unicode="&#xba;" horiz-adv-x="952" 
d="M569 587q-169 0 -254 114t-56 304q31 185 152 297.5t289 112.5t253.5 -112.5t57.5 -297.5q-32 -190 -152.5 -304t-289.5 -114zM583 676q127 0 218 89t115 236q23 147 -40 236t-190 89t-218 -89t-114 -236q-24 -147 39 -236t190 -89z" />
    <glyph glyph-name="guillemotright" unicode="&#xbb;" horiz-adv-x="1078" 
d="M178 0h-98l496 480l-344 480h98l344 -480zM578 0h-98l496 480l-344 480h98l344 -480z" />
    <glyph glyph-name="questiondown" unicode="&#xbf;" horiz-adv-x="998" 
d="M769 1446q46 0 74 -32.5t21 -77.5q-8 -45 -46 -77.5t-84 -32.5q-44 0 -70.5 32.5t-19.5 77.5t44 77.5t81 32.5zM680 1110h90l-9 -56q-9 -55 -32.5 -102t-64.5 -88t-77 -69t-94 -67q-46 -32 -73.5 -52t-65.5 -53.5t-60.5 -64t-42 -72.5t-26.5 -88q-22 -141 55.5 -237.5
t227.5 -96.5q140 0 254.5 98t136.5 236h92q-28 -176 -173.5 -300t-323.5 -124q-192 0 -290.5 122t-70.5 302q9 59 33 111.5t51 89t71.5 76.5t75 62t82.5 57q108 72 160.5 128.5t64.5 131.5z" />
    <glyph glyph-name="Agrave" unicode="&#xc0;" horiz-adv-x="1236" 
d="M930 1576h-84l-96 214h110zM30 0l761 1420h104l311 -1420h-96l-98 454h-644l-242 -454h-96zM995 536l-169 780l-415 -780h584z" />
    <glyph glyph-name="Aacute" unicode="&#xc1;" horiz-adv-x="1236" 
d="M1034 1788l-168 -212h-84l142 212h110zM30 0l761 1420h104l311 -1420h-96l-98 454h-644l-242 -454h-96zM995 536l-169 780l-415 -780h584z" />
    <glyph glyph-name="Acircumflex" unicode="&#xc2;" horiz-adv-x="1236" 
d="M775 1576l-87 -3l173 169h57l126 -169l-84 -1l-81 104zM30 0l761 1420h104l311 -1420h-96l-98 454h-644l-242 -454h-96zM995 536l-169 780l-415 -780h584z" />
    <glyph glyph-name="Atilde" unicode="&#xc3;" horiz-adv-x="1236" 
d="M721 1587h-64q10 79 45.5 124t85.5 45q27 0 50.5 -15t38.5 -33t35.5 -33t41.5 -15q28 0 44 23t24 73h64q-13 -81 -49 -125t-93 -44q-29 0 -53 15t-38 32.5t-32 32.5t-35 15q-23 0 -40.5 -24.5t-24.5 -70.5zM30 0l761 1420h104l311 -1420h-96l-98 454h-644l-242 -454h-96z
M995 536l-169 780l-415 -780h584z" />
    <glyph glyph-name="Adieresis" unicode="&#xc4;" horiz-adv-x="1236" 
d="M726 1578q-34 0 -55 24.5t-16 57.5q5 35 34 60.5t63 25.5q33 0 54.5 -26t16.5 -60q-5 -33 -34.5 -57.5t-62.5 -24.5zM990 1578q-34 0 -55 24.5t-16 57.5q5 35 34 60.5t63 25.5q33 0 54.5 -26t16.5 -60q-5 -33 -34.5 -57.5t-62.5 -24.5zM30 0l761 1420h104l311 -1420h-96
l-98 454h-644l-242 -454h-96zM995 536l-169 780l-415 -780h584z" />
    <glyph glyph-name="Aring" unicode="&#xc5;" horiz-adv-x="1236" 
d="M856 1552q-69 0 -106.5 45.5t-26.5 114.5q10 69 62.5 114t121.5 45q67 0 106 -45.5t28 -113.5q-11 -67 -64.5 -113.5t-120.5 -46.5zM867 1622q41 0 70.5 25t36.5 65q6 40 -16 65.5t-62 25.5t-70 -25.5t-36 -65.5q-7 -40 14.5 -65t62.5 -25zM30 0l761 1420h104l311 -1420
h-96l-98 454h-644l-242 -454h-96zM995 536l-169 780l-415 -780h584z" />
    <glyph glyph-name="AE" unicode="&#xc6;" horiz-adv-x="1512" 
d="M1482 2h-874l72 452h-312l-242 -454h-96l761 1420l914 2l-14 -88h-776l-91 -576h710l-14 -88h-710l-92 -580h778zM812 1289l-401 -753h282z" />
    <glyph glyph-name="Ccedilla" unicode="&#xc7;" horiz-adv-x="1432" 
d="M761 70q177 0 326 91.5t223 244.5h106q-81 -192 -265.5 -309.5t-403.5 -118.5l-41 -66q35 10 58 10q56 0 86.5 -34t21.5 -90q-11 -66 -63 -102t-117 -36q-73 0 -109 28l11 72q46 -30 99 -30q37 0 65 16.5t33 47.5q5 32 -13 48t-54 16q-41 0 -103 -26l-9 44l66 105
q-260 25 -392 225.5t-84 503.5q52 326 270 530t513 204q218 0 360 -124t156 -326h-106q-22 165 -138 261.5t-293 96.5q-251 0 -434.5 -178t-229.5 -464q-45 -286 82.5 -463t378.5 -177z" />
    <glyph glyph-name="Egrave" unicode="&#xc8;" horiz-adv-x="1174" 
d="M964 1565h-84l-96 214h110zM1054 0h-874l225 1420h872l-14 -88h-776l-91 -576h710l-14 -88h-710l-92 -580h778z" />
    <glyph glyph-name="Eacute" unicode="&#xc9;" horiz-adv-x="1174" 
d="M1044 1791l-168 -212h-84l142 212h110zM1054 0h-874l225 1420h872l-14 -88h-776l-91 -576h710l-14 -88h-710l-92 -580h778z" />
    <glyph glyph-name="Ecircumflex" unicode="&#xca;" horiz-adv-x="1174" 
d="M773 1559l-87 -3l173 169h57l126 -169l-84 -1l-81 104zM1054 0h-874l225 1420h872l-14 -88h-776l-91 -576h710l-14 -88h-710l-92 -580h778z" />
    <glyph glyph-name="Edieresis" unicode="&#xcb;" horiz-adv-x="1174" 
d="M742 1576q-34 0 -55 24.5t-16 57.5q5 35 34 60.5t63 25.5q33 0 54.5 -26t16.5 -60q-5 -33 -34.5 -57.5t-62.5 -24.5zM1006 1576q-34 0 -55 24.5t-16 57.5q5 35 34 60.5t63 25.5q33 0 54.5 -26t16.5 -60q-5 -33 -34.5 -57.5t-62.5 -24.5zM1054 0h-874l225 1420h872
l-14 -88h-776l-91 -576h710l-14 -88h-710l-92 -580h778z" />
    <glyph glyph-name="Igrave" unicode="&#xcc;" horiz-adv-x="456" 
d="M542 1567h-84l-96 214h110zM501 1420l-225 -1420h-96l225 1420h96z" />
    <glyph glyph-name="Iacute" unicode="&#xcd;" horiz-adv-x="456" 
d="M621 1768l-168 -212h-84l142 212h110zM501 1420l-225 -1420h-96l225 1420h96z" />
    <glyph glyph-name="Icircumflex" unicode="&#xce;" horiz-adv-x="456" 
d="M376 1566l-87 -3l173 169h57l126 -169l-84 -1l-81 104zM501 1420l-225 -1420h-96l225 1420h96z" />
    <glyph glyph-name="Idieresis" unicode="&#xcf;" horiz-adv-x="456" 
d="M348 1576q-34 0 -55 24.5t-16 57.5q5 35 34 60.5t63 25.5q33 0 54.5 -26t16.5 -60q-5 -33 -34.5 -57.5t-62.5 -24.5zM612 1576q-34 0 -55 24.5t-16 57.5q5 35 34 60.5t63 25.5q33 0 54.5 -26t16.5 -60q-5 -33 -34.5 -57.5t-62.5 -24.5zM501 1420l-225 -1420h-96l225 1420
h96z" />
    <glyph glyph-name="Ntilde" unicode="&#xd1;" horiz-adv-x="1386" 
d="M815 1611h-64q10 79 45.5 124t85.5 45q27 0 50.5 -15t38.5 -33t35.5 -33t41.5 -15q28 0 44 23t24 73h64q-13 -81 -49 -125t-93 -44q-29 0 -53 15t-38 32.5t-32 32.5t-35 15q-23 0 -40.5 -24.5t-24.5 -70.5zM276 0h-96l225 1420h98l633 -1258l199 1258h96l-225 -1420h-96
l-634 1262z" />
    <glyph glyph-name="Ograve" unicode="&#xd2;" horiz-adv-x="1492" 
d="M1073 1582h-84l-96 214h110zM742 -26q-122 0 -221.5 37t-166 103.5t-109.5 158.5t-51.5 202t8.5 235q26 160 94 296t168 233.5t231.5 152t279.5 54.5q120 0 219 -36t166.5 -101.5t110.5 -157t52 -203t-9 -238.5q-51 -327 -263 -531.5t-509 -204.5zM755 58q170 0 313.5 86
t235 233.5t120.5 332.5q30 187 -15.5 335t-161.5 232.5t-285 84.5q-172 0 -315 -86t-233 -233t-120 -333q-24 -138 -1.5 -257t79 -207t155.5 -138t228 -50z" />
    <glyph glyph-name="Oacute" unicode="&#xd3;" horiz-adv-x="1492" 
d="M1131 1797l-168 -212h-84l142 212h110zM742 -26q-122 0 -221.5 37t-166 103.5t-109.5 158.5t-51.5 202t8.5 235q26 160 94 296t168 233.5t231.5 152t279.5 54.5q120 0 219 -36t166.5 -101.5t110.5 -157t52 -203t-9 -238.5q-51 -327 -263 -531.5t-509 -204.5zM755 58
q170 0 313.5 86t235 233.5t120.5 332.5q30 187 -15.5 335t-161.5 232.5t-285 84.5q-172 0 -315 -86t-233 -233t-120 -333q-24 -138 -1.5 -257t79 -207t155.5 -138t228 -50z" />
    <glyph glyph-name="Ocircumflex" unicode="&#xd4;" horiz-adv-x="1492" 
d="M899 1606l-87 -3l173 169h57l126 -169l-84 -1l-81 104zM742 -26q-122 0 -221.5 37t-166 103.5t-109.5 158.5t-51.5 202t8.5 235q26 160 94 296t168 233.5t231.5 152t279.5 54.5q120 0 219 -36t166.5 -101.5t110.5 -157t52 -203t-9 -238.5q-51 -327 -263 -531.5
t-509 -204.5zM755 58q170 0 313.5 86t235 233.5t120.5 332.5q30 187 -15.5 335t-161.5 232.5t-285 84.5q-172 0 -315 -86t-233 -233t-120 -333q-24 -138 -1.5 -257t79 -207t155.5 -138t228 -50z" />
    <glyph glyph-name="Otilde" unicode="&#xd5;" horiz-adv-x="1492" 
d="M870 1585h-64q10 79 45.5 124t85.5 45q27 0 50.5 -15t38.5 -33t35.5 -33t41.5 -15q28 0 44 23t24 73h64q-13 -81 -49 -125t-93 -44q-29 0 -53 15t-38 32.5t-32 32.5t-35 15q-23 0 -40.5 -24.5t-24.5 -70.5zM742 -26q-122 0 -221.5 37t-166 103.5t-109.5 158.5t-51.5 202
t8.5 235q26 160 94 296t168 233.5t231.5 152t279.5 54.5q120 0 219 -36t166.5 -101.5t110.5 -157t52 -203t-9 -238.5q-51 -327 -263 -531.5t-509 -204.5zM755 58q170 0 313.5 86t235 233.5t120.5 332.5q30 187 -15.5 335t-161.5 232.5t-285 84.5q-172 0 -315 -86t-233 -233
t-120 -333q-24 -138 -1.5 -257t79 -207t155.5 -138t228 -50z" />
    <glyph glyph-name="Odieresis" unicode="&#xd6;" horiz-adv-x="1492" 
d="M871 1576q-34 0 -55 24.5t-16 57.5q5 35 34 60.5t63 25.5q33 0 54.5 -26t16.5 -60q-5 -33 -34.5 -57.5t-62.5 -24.5zM1135 1576q-34 0 -55 24.5t-16 57.5q5 35 34 60.5t63 25.5q33 0 54.5 -26t16.5 -60q-5 -33 -34.5 -57.5t-62.5 -24.5zM742 -26q-122 0 -221.5 37
t-166 103.5t-109.5 158.5t-51.5 202t8.5 235q26 160 94 296t168 233.5t231.5 152t279.5 54.5q120 0 219 -36t166.5 -101.5t110.5 -157t52 -203t-9 -238.5q-51 -327 -263 -531.5t-509 -204.5zM755 58q170 0 313.5 86t235 233.5t120.5 332.5q30 187 -15.5 335t-161.5 232.5
t-285 84.5q-172 0 -315 -86t-233 -233t-120 -333q-24 -138 -1.5 -257t79 -207t155.5 -138t228 -50z" />
    <glyph glyph-name="multiply" unicode="&#xd7;" horiz-adv-x="1320" 
d="M458 1114l319 -378l439 378l53 -62l-440 -378l320 -380l-72 -62l-320 380l-440 -380l-52 62l440 380l-318 378z" />
    <glyph glyph-name="Oslash" unicode="&#xd8;" horiz-adv-x="1492" 
d="M1507 1420l-120 -139q89 -99 122 -246.5t5 -324.5q-51 -327 -263 -531.5t-509 -204.5q-232 0 -375 129l-92 -107h-109l144 167q-79 100 -106.5 241.5t-1.5 305.5q26 160 94 296t168 233.5t231.5 152t279.5 54.5q211 0 350 -108l71 82h111zM294 710q-46 -287 82 -471
l886 1026q-120 97 -300 97q-172 0 -315 -86t-233 -233t-120 -333zM1424 710q25 153 -2 280.5t-100 215.5l-891 -1030q123 -118 324 -118q170 0 313.5 86t235 233.5t120.5 332.5z" />
    <glyph glyph-name="Ugrave" unicode="&#xd9;" horiz-adv-x="1354" 
d="M1008 1584h-84l-96 214h110zM1165 484l148 936h96l-149 -938q-38 -237 -192.5 -371.5t-391.5 -134.5q-240 0 -353.5 134t-76.5 372l149 938h96l-148 -936q-32 -201 57.5 -307.5t290.5 -106.5q197 0 320 107.5t154 306.5z" />
    <glyph glyph-name="Uacute" unicode="&#xda;" horiz-adv-x="1354" 
d="M1111 1794l-168 -212h-84l142 212h110zM1165 484l148 936h96l-149 -938q-38 -237 -192.5 -371.5t-391.5 -134.5q-240 0 -353.5 134t-76.5 372l149 938h96l-148 -936q-32 -201 57.5 -307.5t290.5 -106.5q197 0 320 107.5t154 306.5z" />
    <glyph glyph-name="Ucircumflex" unicode="&#xdb;" horiz-adv-x="1354" 
d="M851 1597l-87 -3l173 169h57l126 -169l-84 -1l-81 104zM1165 484l148 936h96l-149 -938q-38 -237 -192.5 -371.5t-391.5 -134.5q-240 0 -353.5 134t-76.5 372l149 938h96l-148 -936q-32 -201 57.5 -307.5t290.5 -106.5q197 0 320 107.5t154 306.5z" />
    <glyph glyph-name="Udieresis" unicode="&#xdc;" horiz-adv-x="1354" 
d="M824 1612q-34 0 -55 24.5t-16 57.5q5 35 34 60.5t63 25.5q33 0 54.5 -26t16.5 -60q-5 -33 -34.5 -57.5t-62.5 -24.5zM1088 1612q-34 0 -55 24.5t-16 57.5q5 35 34 60.5t63 25.5q33 0 54.5 -26t16.5 -60q-5 -33 -34.5 -57.5t-62.5 -24.5zM1165 484l148 936h96l-149 -938
q-38 -237 -192.5 -371.5t-391.5 -134.5q-240 0 -353.5 134t-76.5 372l149 938h96l-148 -936q-32 -201 57.5 -307.5t290.5 -106.5q197 0 320 107.5t154 306.5z" />
    <glyph glyph-name="Yacute" unicode="&#xdd;" horiz-adv-x="1200" 
d="M1004 1804l-168 -212h-84l142 212h110zM552 -2l97 612l-404 808h106l356 -718h8l584 718h106l-660 -808l-97 -612h-96z" />
    <glyph glyph-name="germandbls" unicode="&#xdf;" horiz-adv-x="1181" 
d="M487 1332l-278 -1758h-96l292 1846h857l-13 -80l-508 -470q219 0 334.5 -119t84.5 -313q-32 -207 -186.5 -334.5t-370.5 -127.5l14 90q177 0 299 102.5t149 273.5q26 164 -74 255t-307 91h-88l11 70l511 474h-631z" />
    <glyph glyph-name="agrave" unicode="&#xe0;" horiz-adv-x="1022" 
d="M773 1128h-84l-96 214h110zM668 984q79 0 141.5 -20t107.5 -60.5t62.5 -109t3.5 -158.5l-101 -636h-92l29 180q-65 -97 -169.5 -150.5t-229.5 -53.5q-152 0 -226 76.5t-54 201.5q21 130 127.5 207t280.5 97l180 20q121 13 162 52q40 270 -237 270q-133 0 -218 -59.5
t-102 -164.5h-92q22 140 139.5 224t287.5 84zM445 58q166 0 277.5 109.5t140.5 290.5l12 80q-83 -33 -330 -52q-143 -17 -220.5 -77.5t-91.5 -152.5q-15 -96 43 -147t169 -51z" />
    <glyph glyph-name="aacute" unicode="&#xe1;" horiz-adv-x="1022" 
d="M831 1365l-168 -212h-84l142 212h110zM668 984q79 0 141.5 -20t107.5 -60.5t62.5 -109t3.5 -158.5l-101 -636h-92l29 180q-65 -97 -169.5 -150.5t-229.5 -53.5q-152 0 -226 76.5t-54 201.5q21 130 127.5 207t280.5 97l180 20q121 13 162 52q40 270 -237 270
q-133 0 -218 -59.5t-102 -164.5h-92q22 140 139.5 224t287.5 84zM445 58q166 0 277.5 109.5t140.5 290.5l12 80q-83 -33 -330 -52q-143 -17 -220.5 -77.5t-91.5 -152.5q-15 -96 43 -147t169 -51z" />
    <glyph glyph-name="acircumflex" unicode="&#xe2;" horiz-adv-x="1022" 
d="M597 1143l-87 -3l173 169h57l126 -169l-84 -1l-81 104zM668 984q79 0 141.5 -20t107.5 -60.5t62.5 -109t3.5 -158.5l-101 -636h-92l29 180q-65 -97 -169.5 -150.5t-229.5 -53.5q-152 0 -226 76.5t-54 201.5q21 130 127.5 207t280.5 97l180 20q121 13 162 52
q40 270 -237 270q-133 0 -218 -59.5t-102 -164.5h-92q22 140 139.5 224t287.5 84zM445 58q166 0 277.5 109.5t140.5 290.5l12 80q-83 -33 -330 -52q-143 -17 -220.5 -77.5t-91.5 -152.5q-15 -96 43 -147t169 -51z" />
    <glyph glyph-name="atilde" unicode="&#xe3;" horiz-adv-x="1022" 
d="M528 1157h-64q10 79 45.5 124t85.5 45q27 0 50.5 -15t38.5 -33t35.5 -33t41.5 -15q28 0 44 23t24 73h64q-13 -81 -49 -125t-93 -44q-29 0 -53 15t-38 32.5t-32 32.5t-35 15q-23 0 -40.5 -24.5t-24.5 -70.5zM668 984q79 0 141.5 -20t107.5 -60.5t62.5 -109t3.5 -158.5
l-101 -636h-92l29 180q-65 -97 -169.5 -150.5t-229.5 -53.5q-152 0 -226 76.5t-54 201.5q21 130 127.5 207t280.5 97l180 20q121 13 162 52q40 270 -237 270q-133 0 -218 -59.5t-102 -164.5h-92q22 140 139.5 224t287.5 84zM445 58q166 0 277.5 109.5t140.5 290.5l12 80
q-83 -33 -330 -52q-143 -17 -220.5 -77.5t-91.5 -152.5q-15 -96 43 -147t169 -51z" />
    <glyph glyph-name="adieresis" unicode="&#xe4;" horiz-adv-x="1022" 
d="M547 1129q-34 0 -55 24.5t-16 57.5q5 35 34 60.5t63 25.5q33 0 54.5 -26t16.5 -60q-5 -33 -34.5 -57.5t-62.5 -24.5zM811 1129q-34 0 -55 24.5t-16 57.5q5 35 34 60.5t63 25.5q33 0 54.5 -26t16.5 -60q-5 -33 -34.5 -57.5t-62.5 -24.5zM668 984q79 0 141.5 -20
t107.5 -60.5t62.5 -109t3.5 -158.5l-101 -636h-92l29 180q-65 -97 -169.5 -150.5t-229.5 -53.5q-152 0 -226 76.5t-54 201.5q21 130 127.5 207t280.5 97l180 20q121 13 162 52q40 270 -237 270q-133 0 -218 -59.5t-102 -164.5h-92q22 140 139.5 224t287.5 84zM445 58
q166 0 277.5 109.5t140.5 290.5l12 80q-83 -33 -330 -52q-143 -17 -220.5 -77.5t-91.5 -152.5q-15 -96 43 -147t169 -51z" />
    <glyph glyph-name="aring" unicode="&#xe5;" horiz-adv-x="1022" 
d="M686 1107q-69 0 -106.5 45.5t-26.5 114.5q10 69 62.5 114t121.5 45q67 0 106 -45.5t28 -113.5q-11 -67 -64.5 -113.5t-120.5 -46.5zM697 1177q41 0 70.5 25t36.5 65q6 40 -16 65.5t-62 25.5t-70 -25.5t-36 -65.5q-7 -40 14.5 -65t62.5 -25zM668 984q79 0 141.5 -20
t107.5 -60.5t62.5 -109t3.5 -158.5l-101 -636h-92l29 180q-65 -97 -169.5 -150.5t-229.5 -53.5q-152 0 -226 76.5t-54 201.5q21 130 127.5 207t280.5 97l180 20q121 13 162 52q40 270 -237 270q-133 0 -218 -59.5t-102 -164.5h-92q22 140 139.5 224t287.5 84zM445 58
q166 0 277.5 109.5t140.5 290.5l12 80q-83 -33 -330 -52q-143 -17 -220.5 -77.5t-91.5 -152.5q-15 -96 43 -147t169 -51z" />
    <glyph glyph-name="ae" unicode="&#xe6;" horiz-adv-x="1774" 
d="M668 984q125 0 208 -49t105 -150q74 95 177 147t224 52q202 0 303 -137.5t66 -362.5l-2 -8l-791 2l-22 -137q12 -132 92 -207.5t207 -75.5q114 1 210 61.5t145 158.5h92q-59 -137 -184.5 -219.5t-275.5 -82.5q-221 0 -318 163l-22 -139h-92l29 180q-65 -97 -169.5 -150.5
t-229.5 -53.5q-152 0 -226 76.5t-54 201.5q21 130 127.5 207.5t280.5 96.5l180 20q123 14 162 52q40 270 -237 270q-133 0 -218 -59.5t-102 -164.5h-92q22 140 139.5 224t287.5 84zM980 619l-10 -65l699 -2q7 161 -75 255.5t-225 94.5q-126 0 -230.5 -75.5t-158.5 -207.5z
M233 256q-15 -96 43 -147t169 -51q148 0 253.5 88t148.5 238l24 150q-85 -29 -326 -48q-143 -17 -220.5 -77.5t-91.5 -152.5z" />
    <glyph glyph-name="ccedilla" unicode="&#xe7;" horiz-adv-x="1014" 
d="M534 60q115 0 213 60t147 158h94q-61 -137 -188.5 -219.5t-279.5 -82.5h-2v-1l-54 -88q35 10 58 10q56 0 86.5 -34t21.5 -90q-11 -66 -63 -102t-117 -36q-73 0 -109 28l11 72q47 -30 99 -30q37 0 65 16.5t33 47.5q5 32 -13 48t-54 16q-41 0 -103 -26l-9 44l81 130
q-166 24 -247 158t-49 337q37 229 184 368.5t353 139.5q153 0 249 -83t107 -221h-94q-13 104 -89.5 163t-185.5 59q-162 0 -282.5 -115.5t-150.5 -308.5q-30 -187 49 -302.5t239 -115.5z" />
    <glyph glyph-name="egrave" unicode="&#xe8;" horiz-adv-x="1056" 
d="M821 1137h-84l-96 214h110zM1053 484l-2 -8l-807 2q-30 -190 52 -305t241 -115q114 1 210 61.5t145 158.5h92q-59 -137 -184.5 -219.5t-275.5 -82.5q-202 0 -301.5 137.5t-65.5 370.5q38 226 181.5 363t345.5 137t303 -137.5t66 -362.5zM260 554l711 -2q7 161 -75 255.5
t-225 94.5q-142 0 -254 -94t-157 -254z" />
    <glyph glyph-name="eacute" unicode="&#xe9;" horiz-adv-x="1056" 
d="M878 1358l-168 -212h-84l142 212h110zM1053 484l-2 -8l-807 2q-30 -190 52 -305t241 -115q114 1 210 61.5t145 158.5h92q-59 -137 -184.5 -219.5t-275.5 -82.5q-202 0 -301.5 137.5t-65.5 370.5q38 226 181.5 363t345.5 137t303 -137.5t66 -362.5zM260 554l711 -2
q7 161 -75 255.5t-225 94.5q-142 0 -254 -94t-157 -254z" />
    <glyph glyph-name="ecircumflex" unicode="&#xea;" horiz-adv-x="1056" 
d="M617 1175l-87 -3l173 169h57l126 -169l-84 -1l-81 104zM1053 484l-2 -8l-807 2q-30 -190 52 -305t241 -115q114 1 210 61.5t145 158.5h92q-59 -137 -184.5 -219.5t-275.5 -82.5q-202 0 -301.5 137.5t-65.5 370.5q38 226 181.5 363t345.5 137t303 -137.5t66 -362.5z
M260 554l711 -2q7 161 -75 255.5t-225 94.5q-142 0 -254 -94t-157 -254z" />
    <glyph glyph-name="edieresis" unicode="&#xeb;" horiz-adv-x="1056" 
d="M593 1162q-34 0 -55 24.5t-16 57.5q5 35 34 60.5t63 25.5q33 0 54.5 -26t16.5 -60q-5 -33 -34.5 -57.5t-62.5 -24.5zM857 1162q-34 0 -55 24.5t-16 57.5q5 35 34 60.5t63 25.5q33 0 54.5 -26t16.5 -60q-5 -33 -34.5 -57.5t-62.5 -24.5zM1053 484l-2 -8l-807 2
q-30 -190 52 -305t241 -115q114 1 210 61.5t145 158.5h92q-59 -137 -184.5 -219.5t-275.5 -82.5q-202 0 -301.5 137.5t-65.5 370.5q38 226 181.5 363t345.5 137t303 -137.5t66 -362.5zM260 554l711 -2q7 161 -75 255.5t-225 94.5q-142 0 -254 -94t-157 -254z" />
    <glyph glyph-name="igrave" unicode="&#xec;" horiz-adv-x="396" 
d="M501 1175h-84l-96 214h110zM152 0l152 960h92l-152 -960h-92z" />
    <glyph glyph-name="iacute" unicode="&#xed;" horiz-adv-x="396" 
d="M536 1377l-168 -212h-84l142 212h110zM152 0l152 960h92l-152 -960h-92z" />
    <glyph glyph-name="icircumflex" unicode="&#xee;" horiz-adv-x="396" 
d="M291 1172l-87 -3l173 169h57l126 -169l-84 -1l-81 104zM152 0l152 960h92l-152 -960h-92z" />
    <glyph glyph-name="idieresis" unicode="&#xef;" horiz-adv-x="396" 
d="M249 1167q-34 0 -55 24.5t-16 57.5q5 35 34 60.5t63 25.5q33 0 54.5 -26t16.5 -60q-5 -33 -34.5 -57.5t-62.5 -24.5zM513 1167q-34 0 -55 24.5t-16 57.5q5 35 34 60.5t63 25.5q33 0 54.5 -26t16.5 -60q-5 -33 -34.5 -57.5t-62.5 -24.5zM152 0l152 960h92l-152 -960h-92z
" />
    <glyph glyph-name="ntilde" unicode="&#xf1;" horiz-adv-x="1100" 
d="M591 1172h-64q10 79 45.5 124t85.5 45q27 0 50.5 -15t38.5 -33t35.5 -33t41.5 -15q28 0 44 23t24 73h64q-13 -81 -49 -125t-93 -44q-29 0 -53 15t-38 32.5t-32 32.5t-35 15q-23 0 -40.5 -24.5t-24.5 -70.5zM244 0h-92l152 960h94l-29 -186q63 99 163 154.5t210 55.5
q375 0 310 -400l-92 -584h-92l90 566q29 182 -31.5 258t-199.5 76q-161 0 -268 -109.5t-136 -294.5z" />
    <glyph glyph-name="ograve" unicode="&#xf2;" horiz-adv-x="1072" 
d="M801 1146h-84l-96 214h110zM1069 484q-40 -235 -187 -371.5t-350 -136.5q-205 0 -307 137.5t-68 370.5q38 226 184 363t351 137t307 -137t70 -363zM545 58q162 0 282.5 115t150.5 307t-53.5 307t-245.5 115t-282.5 -115t-150.5 -307t53.5 -307t245.5 -115z" />
    <glyph glyph-name="oacute" unicode="&#xf3;" horiz-adv-x="1072" 
d="M881 1376l-168 -212h-84l142 212h110zM1069 484q-40 -235 -187 -371.5t-350 -136.5q-205 0 -307 137.5t-68 370.5q38 226 184 363t351 137t307 -137t70 -363zM545 58q162 0 282.5 115t150.5 307t-53.5 307t-245.5 115t-282.5 -115t-150.5 -307t53.5 -307t245.5 -115z" />
    <glyph glyph-name="ocircumflex" unicode="&#xf4;" horiz-adv-x="1072" 
d="M613 1178l-87 -3l173 169h57l126 -169l-84 -1l-81 104zM1069 484q-40 -235 -187 -371.5t-350 -136.5q-205 0 -307 137.5t-68 370.5q38 226 184 363t351 137t307 -137t70 -363zM545 58q162 0 282.5 115t150.5 307t-53.5 307t-245.5 115t-282.5 -115t-150.5 -307t53.5 -307
t245.5 -115z" />
    <glyph glyph-name="otilde" unicode="&#xf5;" horiz-adv-x="1072" 
d="M558 1163h-64q10 79 45.5 124t85.5 45q27 0 50.5 -15t38.5 -33t35.5 -33t41.5 -15q28 0 44 23t24 73h64q-13 -81 -49 -125t-93 -44q-29 0 -53 15t-38 32.5t-32 32.5t-35 15q-23 0 -40.5 -24.5t-24.5 -70.5zM1069 484q-40 -235 -187 -371.5t-350 -136.5q-205 0 -307 137.5
t-68 370.5q38 226 184 363t351 137t307 -137t70 -363zM545 58q162 0 282.5 115t150.5 307t-53.5 307t-245.5 115t-282.5 -115t-150.5 -307t53.5 -307t245.5 -115z" />
    <glyph glyph-name="odieresis" unicode="&#xf6;" horiz-adv-x="1072" 
d="M579 1164q-34 0 -55 24.5t-16 57.5q5 35 34 60.5t63 25.5q33 0 54.5 -26t16.5 -60q-5 -33 -34.5 -57.5t-62.5 -24.5zM843 1164q-34 0 -55 24.5t-16 57.5q5 35 34 60.5t63 25.5q33 0 54.5 -26t16.5 -60q-5 -33 -34.5 -57.5t-62.5 -24.5zM1069 484q-40 -235 -187 -371.5
t-350 -136.5q-205 0 -307 137.5t-68 370.5q38 226 184 363t351 137t307 -137t70 -363zM545 58q162 0 282.5 115t150.5 307t-53.5 307t-245.5 115t-282.5 -115t-150.5 -307t53.5 -307t245.5 -115z" />
    <glyph glyph-name="divide" unicode="&#xf7;" horiz-adv-x="1320" 
d="M800 886q-45 0 -72.5 32t-20.5 76q8 45 45.5 77.5t82.5 32.5t72 -32.5t20 -77.5q-7 -44 -44.5 -76t-82.5 -32zM262 646h1000l-14 -88h-1000zM676 98q-45 0 -73 32t-20 76q7 45 44.5 77.5t82.5 32.5t72.5 -32.5t20.5 -77.5q-8 -44 -45 -76t-82 -32z" />
    <glyph glyph-name="oslash" unicode="&#xf8;" horiz-adv-x="1072" 
d="M1095 1058l-132 -170q69 -66 97 -170t9 -234q-40 -235 -187 -371.5t-350 -136.5q-137 0 -229 63l-93 -119h-88l127 164q-130 139 -92 400q38 226 184 363t351 137q124 0 214 -53l99 127h90zM246 480q-33 -202 63 -319l540 696q-73 45 -170 45q-162 0 -282.5 -115
t-150.5 -307zM978 480q34 216 -74 332l-544 -699q75 -55 185 -55q162 0 282.5 115t150.5 307z" />
    <glyph glyph-name="ugrave" unicode="&#xf9;" horiz-adv-x="1100" 
d="M819 1123h-84l-96 214h110zM1008 960h92l-152 -960h-94l29 186q-63 -99 -163 -154.5t-210 -55.5q-373 0 -310 400l92 584h92l-90 -566q-29 -182 32 -258t200 -76q161 0 267.5 109.5t135.5 294.5z" />
    <glyph glyph-name="uacute" unicode="&#xfa;" horiz-adv-x="1100" 
d="M867 1344l-168 -212h-84l142 212h110zM1008 960h92l-152 -960h-94l29 186q-63 -99 -163 -154.5t-210 -55.5q-373 0 -310 400l92 584h92l-90 -566q-29 -182 32 -258t200 -76q161 0 267.5 109.5t135.5 294.5z" />
    <glyph glyph-name="ucircumflex" unicode="&#xfb;" horiz-adv-x="1100" 
d="M621 1156l-87 -3l173 169h57l126 -169l-84 -1l-81 104zM1008 960h92l-152 -960h-94l29 186q-63 -99 -163 -154.5t-210 -55.5q-373 0 -310 400l92 584h92l-90 -566q-29 -182 32 -258t200 -76q161 0 267.5 109.5t135.5 294.5z" />
    <glyph glyph-name="udieresis" unicode="&#xfc;" horiz-adv-x="1100" 
d="M571 1171q-34 0 -55 24.5t-16 57.5q5 35 34 60.5t63 25.5q33 0 54.5 -26t16.5 -60q-5 -33 -34.5 -57.5t-62.5 -24.5zM835 1171q-34 0 -55 24.5t-16 57.5q5 35 34 60.5t63 25.5q33 0 54.5 -26t16.5 -60q-5 -33 -34.5 -57.5t-62.5 -24.5zM1008 960h92l-152 -960h-94l29 186
q-63 -99 -163 -154.5t-210 -55.5q-373 0 -310 400l92 584h92l-90 -566q-29 -182 32 -258t200 -76q161 0 267.5 109.5t135.5 294.5z" />
    <glyph glyph-name="yacute" unicode="&#xfd;" horiz-adv-x="892" 
d="M773 1370l-168 -212h-84l142 212h110zM112 -418q-71 0 -128 12l11 74q85 -10 131 -10q77 1 120 33.5t85 112.5l69 130l-228 1026h96l196 -900l466 900h94l-613 -1182q-102 -196 -299 -196z" />
    <glyph glyph-name="ydieresis" unicode="&#xff;" horiz-adv-x="892" 
d="M511 1178q-34 0 -55 24.5t-16 57.5q5 35 34 60.5t63 25.5q33 0 54.5 -26t16.5 -60q-5 -33 -34.5 -57.5t-62.5 -24.5zM775 1178q-34 0 -55 24.5t-16 57.5q5 35 34 60.5t63 25.5q33 0 54.5 -26t16.5 -60q-5 -33 -34.5 -57.5t-62.5 -24.5zM112 -418q-71 0 -128 12l11 74
q85 -10 131 -10q77 1 120 33.5t85 112.5l69 130l-228 1026h96l196 -900l466 900h94l-613 -1182q-102 -196 -299 -196z" />
    <glyph glyph-name="Cacute" unicode="&#x106;" horiz-adv-x="1432" 
d="M1149 1765l-168 -212h-84l142 212h110zM745 -22q-192 0 -327.5 92.5t-192.5 259.5t-23 380q52 326 270 530t513 204q218 0 360 -124t156 -326h-106q-22 165 -138 261.5t-293 96.5q-251 0 -434.5 -178t-229.5 -464q-45 -286 82.5 -463t378.5 -177q177 0 326 91.5
t223 244.5h106q-81 -192 -266.5 -310t-404.5 -118z" />
    <glyph glyph-name="cacute" unicode="&#x107;" horiz-adv-x="1014" 
d="M879 1365l-168 -212h-84l142 212h110zM155 476q37 229 184 368.5t353 139.5q153 0 249 -83t107 -221h-94q-13 104 -89.5 163t-185.5 59q-162 0 -282.5 -115.5t-150.5 -308.5q-30 -187 49 -302.5t239 -115.5q115 0 213 60t147 158h94q-61 -137 -188.5 -219.5t-279.5 -82.5
q-198 0 -299 137.5t-66 362.5z" />
    <glyph glyph-name="Ccaron" unicode="&#x10c;" horiz-adv-x="1432" 
d="M934 1591l-120 169l87 -3l72 -100l113 104l84 -1l-179 -169h-57zM745 -22q-192 0 -327.5 92.5t-192.5 259.5t-23 380q52 326 270 530t513 204q218 0 360 -124t156 -326h-106q-22 165 -138 261.5t-293 96.5q-251 0 -434.5 -178t-229.5 -464q-45 -286 82.5 -463t378.5 -177
q177 0 326 91.5t223 244.5h106q-81 -192 -266.5 -310t-404.5 -118z" />
    <glyph glyph-name="ccaron" unicode="&#x10d;" horiz-adv-x="1014" 
d="M692 1185l-120 169l87 -3l72 -100l113 104l84 -1l-179 -169h-57zM155 476q37 229 184 368.5t353 139.5q153 0 249 -83t107 -221h-94q-13 104 -89.5 163t-185.5 59q-162 0 -282.5 -115.5t-150.5 -308.5q-30 -187 49 -302.5t239 -115.5q115 0 213 60t147 158h94
q-61 -137 -188.5 -219.5t-279.5 -82.5q-198 0 -299 137.5t-66 362.5z" />
    <glyph glyph-name="Ecaron" unicode="&#x11a;" horiz-adv-x="1174" 
d="M856 1582l-120 169l87 -3l72 -100l113 104l84 -1l-179 -169h-57zM1054 0h-874l225 1420h872l-14 -88h-776l-91 -576h710l-14 -88h-710l-92 -580h778z" />
    <glyph glyph-name="ecaron" unicode="&#x11b;" horiz-adv-x="1056" 
d="M700 1189l-120 169l87 -3l72 -100l113 104l84 -1l-179 -169h-57zM1053 484l-2 -8l-807 2q-30 -190 52 -305t241 -115q114 1 210 61.5t145 158.5h92q-59 -137 -184.5 -219.5t-275.5 -82.5q-202 0 -301.5 137.5t-65.5 370.5q38 226 181.5 363t345.5 137t303 -137.5
t66 -362.5zM260 554l711 -2q7 161 -75 255.5t-225 94.5q-142 0 -254 -94t-157 -254z" />
    <glyph glyph-name="dotlessi" unicode="&#x131;" horiz-adv-x="396" 
d="M152 0l152 960h92l-152 -960h-92z" />
    <glyph glyph-name="Nacute" unicode="&#x143;" horiz-adv-x="1386" 
d="M1133 1778l-168 -212h-84l142 212h110zM276 0h-96l225 1420h98l633 -1258l199 1258h96l-225 -1420h-96l-634 1262z" />
    <glyph glyph-name="nacute" unicode="&#x144;" horiz-adv-x="1100" 
d="M906 1373l-168 -212h-84l142 212h110zM244 0h-92l152 960h94l-29 -186q63 99 163 154.5t210 55.5q375 0 310 -400l-92 -584h-92l90 566q29 182 -31.5 258t-199.5 76q-161 0 -268 -109.5t-136 -294.5z" />
    <glyph glyph-name="Ncaron" unicode="&#x147;" horiz-adv-x="1386" 
d="M901 1599l-120 169l87 -3l72 -100l113 104l84 -1l-179 -169h-57zM276 0h-96l225 1420h98l633 -1258l199 1258h96l-225 -1420h-96l-634 1262z" />
    <glyph glyph-name="ncaron" unicode="&#x148;" horiz-adv-x="1100" 
d="M719 1181l-120 169l87 -3l72 -100l113 104l84 -1l-179 -169h-57zM244 0h-92l152 960h94l-29 -186q63 99 163 154.5t210 55.5q375 0 310 -400l-92 -584h-92l90 566q29 182 -31.5 258t-199.5 76q-161 0 -268 -109.5t-136 -294.5z" />
    <glyph glyph-name="OE" unicode="&#x152;" horiz-adv-x="2283" 
d="M742 -26q-122 0 -221.5 37t-166 103.5t-109.5 158.5t-51.5 202t8.5 235q26 160 94 296t168 233.5t231.5 152t279.5 54.5q197 0 330 -93t188 -257l51 324h872l-14 -88h-776l-91 -576h710l-14 -88h-710l-92 -580h778l-14 -88h-874l51 323q-107 -164 -270 -256.5t-358 -92.5
zM294 710q-24 -138 -1.5 -257t79 -207t155.5 -138t228 -50q170 0 313.5 86t235 233.5t120.5 332.5q30 187 -15.5 335t-161.5 232.5t-285 84.5q-172 0 -315 -86t-233 -233t-120 -333z" />
    <glyph glyph-name="oe" unicode="&#x153;" horiz-adv-x="2168" 
d="M2021 484l-2 -8l-807 2q-30 -190 52 -305t241 -115q114 1 210 61.5t145 158.5h92q-59 -137 -184.5 -219.5t-275.5 -82.5q-143 0 -236 70.5t-124 197.5q-74 -131 -193 -202.5t-264 -71.5q-205 0 -307 137.5t-68 370.5q38 226 184 363t351 137q144 0 239.5 -70.5
t128.5 -195.5q72 128 188.5 200t260.5 72q202 0 303 -137.5t66 -362.5zM1228 554l711 -2q7 161 -75 255.5t-225 94.5q-142 0 -254 -94t-157 -254zM389 474q-30 -192 53.5 -307t245.5 -115t282.5 115t150.5 307t-53.5 307t-245.5 115t-282.5 -115t-150.5 -307z" />
    <glyph glyph-name="Sacute" unicode="&#x15a;" horiz-adv-x="1102" 
d="M942 1797l-168 -212h-84l142 212h110zM260 1062q28 174 170.5 278t352.5 104q183 0 282.5 -96.5t93.5 -267.5h-100q6 132 -69.5 204t-220.5 72q-165 0 -278.5 -80.5t-134.5 -213.5q-32 -205 202 -268l242 -64q154 -40 223 -133.5t47 -230.5q-28 -178 -172.5 -284
t-357.5 -106q-200 0 -310.5 97t-100.5 263h102q-13 -122 75.5 -196t247.5 -74q170 0 284 81t136 217q34 214 -207 276l-236 62q-154 41 -223.5 132t-47.5 228z" />
    <glyph glyph-name="sacute" unicode="&#x15b;" horiz-adv-x="844" 
d="M745 1364l-168 -212h-84l142 212h110zM107 260h90q-14 -93 42 -146.5t167 -53.5q122 0 200 51t92 139q11 71 -21.5 110.5t-121.5 63.5l-155 42q-116 31 -166.5 96t-35.5 156q19 120 121 193t251 73q148 0 224 -74.5t60 -205.5h-90q10 93 -44.5 144.5t-162.5 51.5
q-116 0 -185 -47t-82 -135q-20 -125 145 -170l153 -42q121 -33 169.5 -94.5t32.5 -161.5q-20 -123 -128.5 -198.5t-265.5 -75.5q-153 0 -231 77t-58 207z" />
    <glyph glyph-name="Scedilla" unicode="&#x15e;" horiz-adv-x="1102" 
d="M1159 1080h-100q6 132 -69.5 204t-220.5 72q-165 0 -278.5 -80.5t-134.5 -213.5q-32 -205 202 -268l242 -64q154 -40 223 -133.5t47 -230.5q-28 -178 -172.5 -284t-357.5 -106h-20l-1 -9l-54 -88q35 10 58 10q56 0 86.5 -34t21.5 -90q-11 -66 -63 -102t-117 -36
q-73 0 -109 28l11 72q47 -30 99 -30q37 0 65 16.5t33 47.5q5 32 -13 48t-54 16q-41 0 -103 -26l-9 44l86 138q-162 20 -249.5 113.5t-78.5 241.5h102q-13 -122 75.5 -196t247.5 -74q170 0 284 81t136 217q34 214 -207 276l-236 62q-154 41 -223.5 132t-47.5 228
q28 174 170.5 278t352.5 104q183 0 282.5 -96.5t93.5 -267.5z" />
    <glyph glyph-name="scedilla" unicode="&#x15f;" horiz-adv-x="844" 
d="M854 704h-90q10 93 -44.5 144.5t-162.5 51.5q-116 0 -185 -47t-82 -135q-20 -125 145 -170l153 -42q121 -33 169.5 -94.5t32.5 -161.5q-20 -123 -128 -198.5t-265 -75.5l-39 -64q35 10 58 10q56 0 86.5 -34t21.5 -90q-11 -66 -63 -102t-117 -36q-73 0 -109 28l11 72
q46 -30 99 -30q37 0 65 16.5t33 47.5q5 32 -13 48t-54 16q-41 0 -103 -26l-9 44l65 104q-121 17 -180.5 91t-41.5 189h90q-14 -93 42 -146.5t167 -53.5q122 0 200 51t92 139q11 71 -21.5 110.5t-121.5 63.5l-155 42q-116 31 -166.5 96t-35.5 156q19 120 121 193t251 73
q148 0 224 -74.5t60 -205.5z" />
    <glyph glyph-name="Scaron" unicode="&#x160;" horiz-adv-x="1102" 
d="M781 1609l-120 169l87 -3l72 -100l113 104l84 -1l-179 -169h-57zM260 1062q28 174 170.5 278t352.5 104q183 0 282.5 -96.5t93.5 -267.5h-100q6 132 -69.5 204t-220.5 72q-165 0 -278.5 -80.5t-134.5 -213.5q-32 -205 202 -268l242 -64q154 -40 223 -133.5t47 -230.5
q-28 -178 -172.5 -284t-357.5 -106q-200 0 -310.5 97t-100.5 263h102q-13 -122 75.5 -196t247.5 -74q170 0 284 81t136 217q34 214 -207 276l-236 62q-154 41 -223.5 132t-47.5 228z" />
    <glyph glyph-name="scaron" unicode="&#x161;" horiz-adv-x="844" 
d="M544 1188l-120 169l87 -3l72 -100l113 104l84 -1l-179 -169h-57zM107 260h90q-14 -93 42 -146.5t167 -53.5q122 0 200 51t92 139q11 71 -21.5 110.5t-121.5 63.5l-155 42q-116 31 -166.5 96t-35.5 156q19 120 121 193t251 73q148 0 224 -74.5t60 -205.5h-90
q10 93 -44.5 144.5t-162.5 51.5q-116 0 -185 -47t-82 -135q-20 -125 145 -170l153 -42q121 -33 169.5 -94.5t32.5 -161.5q-20 -123 -128.5 -198.5t-265.5 -75.5q-153 0 -231 77t-58 207z" />
    <glyph glyph-name="Uring" unicode="&#x16e;" horiz-adv-x="1354" 
d="M929 1540q-69 0 -106.5 45.5t-26.5 114.5q10 69 62.5 114t121.5 45q67 0 106 -45.5t28 -113.5q-11 -67 -64.5 -113.5t-120.5 -46.5zM940 1610q41 0 70.5 25t36.5 65q6 40 -16 65.5t-62 25.5t-70 -25.5t-36 -65.5q-7 -40 14.5 -65t62.5 -25zM1165 484l148 936h96
l-149 -938q-38 -237 -192.5 -371.5t-391.5 -134.5q-240 0 -353.5 134t-76.5 372l149 938h96l-148 -936q-32 -201 57.5 -307.5t290.5 -106.5q197 0 320 107.5t154 306.5z" />
    <glyph glyph-name="uring" unicode="&#x16f;" horiz-adv-x="1100" 
d="M712 1085q-69 0 -106.5 45.5t-26.5 114.5q10 69 62.5 114t121.5 45q67 0 106 -45.5t28 -113.5q-11 -67 -64.5 -113.5t-120.5 -46.5zM723 1155q41 0 70.5 25t36.5 65q6 40 -16 65.5t-62 25.5t-70 -25.5t-36 -65.5q-7 -40 14.5 -65t62.5 -25zM1008 960h92l-152 -960h-94
l29 186q-63 -99 -163 -154.5t-210 -55.5q-373 0 -310 400l92 584h92l-90 -566q-29 -182 32 -258t200 -76q161 0 267.5 109.5t135.5 294.5z" />
    <glyph glyph-name="Wcircumflex" unicode="&#x174;" horiz-adv-x="1910" 
d="M1114 1575l-87 -3l173 169h57l126 -169l-84 -1l-81 104zM450 0l-195 1420h100l164 -1290l612 1290h96l204 -1288l576 1288h98l-649 -1420h-88l-211 1280l-615 -1280h-92z" />
    <glyph glyph-name="wcircumflex" unicode="&#x175;" horiz-adv-x="1436" 
d="M801 1165l-87 -3l173 169h57l126 -169l-84 -1l-81 104zM350 0l-168 960h94l141 -842l405 842h94l141 -840l407 840h94l-474 -960h-94l-139 840l-407 -840h-94z" />
    <glyph glyph-name="Ycircumflex" unicode="&#x176;" horiz-adv-x="1200" 
d="M779 1598l-87 -3l173 169h57l126 -169l-84 -1l-81 104zM552 -2l97 612l-404 808h106l356 -718h8l584 718h106l-660 -808l-97 -612h-96z" />
    <glyph glyph-name="ycircumflex" unicode="&#x177;" horiz-adv-x="892" 
d="M554 1167l-87 -3l173 169h57l126 -169l-84 -1l-81 104zM112 -418q-71 0 -128 12l11 74q85 -10 131 -10q77 1 120 33.5t85 112.5l69 130l-228 1026h96l196 -900l466 900h94l-613 -1182q-102 -196 -299 -196z" />
    <glyph glyph-name="Ydieresis" unicode="&#x178;" horiz-adv-x="1200" 
d="M742 1576q-34 0 -55 24.5t-16 57.5q5 35 34 60.5t63 25.5q33 0 54.5 -26t16.5 -60q-5 -33 -34.5 -57.5t-62.5 -24.5zM1006 1576q-34 0 -55 24.5t-16 57.5q5 35 34 60.5t63 25.5q33 0 54.5 -26t16.5 -60q-5 -33 -34.5 -57.5t-62.5 -24.5zM552 -2l97 612l-404 808h106
l356 -718h8l584 718h106l-660 -808l-97 -612h-96z" />
    <glyph glyph-name="Zacute" unicode="&#x179;" horiz-adv-x="1152" 
d="M1003 1798l-168 -212h-84l142 212h110zM1062 0h-972l14 86l1065 1246h-864l14 88h978l-14 -86l-1065 -1246h858z" />
    <glyph glyph-name="zacute" unicode="&#x17a;" horiz-adv-x="860" 
d="M774 1365l-168 -212h-84l142 212h110zM780 0h-700l11 72l718 808h-590l13 80h700l-12 -74l-715 -806h588z" />
    <glyph glyph-name="Zcaron" unicode="&#x17d;" horiz-adv-x="1152" 
d="M825 1611l-120 169l87 -3l72 -100l113 104l84 -1l-179 -169h-57zM1062 0h-972l14 86l1065 1246h-864l14 88h978l-14 -86l-1065 -1246h858z" />
    <glyph glyph-name="zcaron" unicode="&#x17e;" horiz-adv-x="860" 
d="M604 1187l-120 169l87 -3l72 -100l113 104l84 -1l-179 -169h-57zM780 0h-700l11 72l718 808h-590l13 80h700l-12 -74l-715 -806h588z" />
    <glyph glyph-name="florin" unicode="&#x192;" horiz-adv-x="1056" 
d="M273 800h356l133 440q56 180 235 180h162l-14 -88h-176q-41 0 -71.5 -24t-43.5 -68l-133 -440h342l-14 -88h-356l-225 -736q-27 -88 -87 -134t-133 -46h-200l14 88h200q38 0 69.5 25t44.5 67l225 736h-342z" />
    <glyph glyph-name="circumflex" unicode="&#x2c6;" horiz-adv-x="582" 
d="M418 1530h-96l174 214h142l106 -214h-96l-87 168z" />
    <glyph glyph-name="caron" unicode="&#x2c7;" horiz-adv-x="582" 
d="M462 1530l-106 214h96l90 -168l140 168h96l-174 -214h-142z" />
    <glyph glyph-name="breve" unicode="&#x2d8;" horiz-adv-x="620" 
d="M718 1744h84q-16 -102 -84 -161t-167 -59t-148 59t-33 161h84q-10 -65 18 -100.5t93 -35.5q132 0 153 136z" />
    <glyph glyph-name="dotaccent" unicode="&#x2d9;" horiz-adv-x="372" 
d="M436 1576q-34 0 -55 24.5t-16 57.5q5 35 34 60.5t63 25.5q33 0 54.5 -26t16.5 -60q-5 -33 -34.5 -57.5t-62.5 -24.5z" />
    <glyph glyph-name="ring" unicode="&#x2da;" horiz-adv-x="556" 
d="M521 1532q-87 0 -134 56.5t-33 143.5q13 85 79.5 141.5t150.5 56.5t132 -57t34 -141q-13 -84 -79 -142t-150 -58zM533 1610q51 0 88 34t45 88q8 53 -18.5 87.5t-75.5 34.5q-50 0 -87.5 -34t-46.5 -88q-8 -54 18 -88t77 -34z" />
    <glyph glyph-name="ogonek" unicode="&#x2db;" horiz-adv-x="344" 
d="M190 0h74q-54 -23 -85 -56.5t-37 -67.5q-9 -58 57 -58q15 0 37 6l-13 -82q-25 -8 -61 -8q-56 0 -85 33t-20 85q7 44 41.5 82.5t91.5 65.5z" />
    <glyph glyph-name="tilde" unicode="&#x2dc;" horiz-adv-x="690" 
d="M423 1570h-80q10 86 53 135t106 49q28 0 52 -10.5t42 -26t35 -31t37.5 -26t42.5 -10.5q34 0 54 25t29 79h80q-14 -88 -58 -136t-115 -48q-36 0 -66.5 16t-48.5 36t-40.5 36t-44.5 16q-29 0 -50 -27t-28 -77z" />
    <glyph glyph-name="hungarumlaut" unicode="&#x2dd;" horiz-adv-x="584" 
d="M570 1742l-164 -212h-80l138 212h106zM776 1742l-198 -212h-84l168 212h114z" />
    <glyph glyph-name="gravecomb" unicode="&#x300;" 
d="M150 1530h-84l-96 214h110z" />
    <glyph glyph-name="acutecomb" unicode="&#x301;" 
d="M604 1742l-168 -212h-84l142 212h110z" />
    <glyph glyph-name="uni0302" unicode="&#x302;" 
d="M186 1529l-87 -3l173 169h57l126 -169l-84 -1l-81 104z" />
    <glyph glyph-name="tildecomb" unicode="&#x303;" 
d="M31 1585h-64q10 79 45.5 124t85.5 45q27 0 50.5 -15t38.5 -33t35.5 -33t41.5 -15q28 0 44 23t24 73h64q-13 -81 -49 -125t-93 -44q-29 0 -53 15t-38 32.5t-32 32.5t-35 15q-23 0 -40.5 -24.5t-24.5 -70.5z" />
    <glyph glyph-name="uni0304" unicode="&#x304;" 
d="M-290 1654l13 84h432l-13 -84h-432z" />
    <glyph glyph-name="uni0306" unicode="&#x306;" 
d="M98 1744h84q-16 -102 -84 -161t-167 -59t-148 59t-33 161h84q-10 -65 18 -100.5t93 -35.5q132 0 153 136z" />
    <glyph glyph-name="uni0307" unicode="&#x307;" 
d="M64 1576q-34 0 -55 24.5t-16 57.5q5 35 34 60.5t63 25.5q33 0 54.5 -26t16.5 -60q-5 -33 -34.5 -57.5t-62.5 -24.5z" />
    <glyph glyph-name="uni0308" unicode="&#x308;" 
d="M54 1576q-34 0 -55 24.5t-16 57.5q5 35 34 60.5t63 25.5q33 0 54.5 -26t16.5 -60q-5 -33 -34.5 -57.5t-62.5 -24.5zM318 1576q-34 0 -55 24.5t-16 57.5q5 35 34 60.5t63 25.5q33 0 54.5 -26t16.5 -60q-5 -33 -34.5 -57.5t-62.5 -24.5z" />
    <glyph glyph-name="uni030A" unicode="&#x30a;" 
d="M281 1486q-69 0 -106.5 45.5t-26.5 114.5q10 69 62.5 114t121.5 45q67 0 106 -45.5t28 -113.5q-11 -67 -64.5 -113.5t-120.5 -46.5zM292 1556q41 0 70.5 25t36.5 65q6 40 -16 65.5t-62 25.5t-70 -25.5t-36 -65.5q-7 -40 14.5 -65t62.5 -25z" />
    <glyph glyph-name="uni030B" unicode="&#x30b;" 
d="M-14 1742l-164 -212h-80l138 212h106zM192 1742l-198 -212h-84l168 212h114z" />
    <glyph glyph-name="uni030C" unicode="&#x30c;" 
d="M-67 1555l-120 169l87 -3l72 -100l113 104l84 -1l-179 -169h-57z" />
    <glyph glyph-name="uni0312" unicode="&#x312;" 
d="M166 1588q-6 -36 -33.5 -61t-60.5 -25q-42 0 -61.5 29t-10.5 83q12 81 66.5 128.5t107.5 49.5l-8 -50q-35 -1 -61.5 -25.5t-31.5 -56.5q9 4 25 4q32 0 52 -22t16 -54z" />
    <glyph glyph-name="uni0326" unicode="&#x326;" 
d="M-117 -146q-13 -81 -67 -128.5t-107 -49.5l8 50q35 1 61.5 25.5t31.5 56.5q-9 -4 -25 -4q-32 0 -52.5 22t-15.5 54q6 36 33.5 61t60.5 25q42 0 61.5 -29t10.5 -83z" />
    <glyph glyph-name="uni0327" unicode="&#x327;" 
d="M-401 -312l11 72q46 -30 99 -30q37 0 65 16.5t33 47.5q5 32 -13 48t-54 16q-41 0 -103 -26l-9 44l110 176h46l-8 -52l-54 -88q35 10 58 10q56 0 86.5 -34t21.5 -90q-11 -66 -63 -102t-117 -36q-73 0 -109 28z" />
    <glyph glyph-name="uni0335" unicode="&#x335;" 
d="M-526 1184h534l-13 -76h-534z" />
    <glyph glyph-name="uni0337" unicode="&#x337;" 
d="M-292 646l14 84l381 170l-14 -84z" />
    <glyph glyph-name="uni0338" unicode="&#x338;" 
d="M88 1058l-885 -1138h-88l883 1138h90z" />
    <glyph glyph-name="Wgrave" unicode="&#x1e80;" horiz-adv-x="1910" 
d="M1289 1558h-84l-96 214h110zM450 0l-195 1420h100l164 -1290l612 1290h96l204 -1288l576 1288h98l-649 -1420h-88l-211 1280l-615 -1280h-92z" />
    <glyph glyph-name="wgrave" unicode="&#x1e81;" horiz-adv-x="1436" 
d="M973 1150h-84l-96 214h110zM350 0l-168 960h94l141 -842l405 842h94l141 -840l407 840h94l-474 -960h-94l-139 840l-407 -840h-94z" />
    <glyph glyph-name="Wacute" unicode="&#x1e82;" horiz-adv-x="1910" 
d="M1383 1774l-168 -212h-84l142 212h110zM450 0l-195 1420h100l164 -1290l612 1290h96l204 -1288l576 1288h98l-649 -1420h-88l-211 1280l-615 -1280h-92z" />
    <glyph glyph-name="wacute" unicode="&#x1e83;" horiz-adv-x="1436" 
d="M1042 1366l-168 -212h-84l142 212h110zM350 0l-168 960h94l141 -842l405 842h94l141 -840l407 840h94l-474 -960h-94l-139 840l-407 -840h-94z" />
    <glyph glyph-name="Wdieresis" unicode="&#x1e84;" horiz-adv-x="1910" 
d="M1061 1597q-34 0 -55 24.5t-16 57.5q5 35 34 60.5t63 25.5q33 0 54.5 -26t16.5 -60q-5 -33 -34.5 -57.5t-62.5 -24.5zM1325 1597q-34 0 -55 24.5t-16 57.5q5 35 34 60.5t63 25.5q33 0 54.5 -26t16.5 -60q-5 -33 -34.5 -57.5t-62.5 -24.5zM450 0l-195 1420h100l164 -1290
l612 1290h96l204 -1288l576 1288h98l-649 -1420h-88l-211 1280l-615 -1280h-92z" />
    <glyph glyph-name="wdieresis" unicode="&#x1e85;" horiz-adv-x="1436" 
d="M756 1193q-34 0 -55 24.5t-16 57.5q5 35 34 60.5t63 25.5q33 0 54.5 -26t16.5 -60q-5 -33 -34.5 -57.5t-62.5 -24.5zM1020 1193q-34 0 -55 24.5t-16 57.5q5 35 34 60.5t63 25.5q33 0 54.5 -26t16.5 -60q-5 -33 -34.5 -57.5t-62.5 -24.5zM350 0l-168 960h94l141 -842
l405 842h94l141 -840l407 840h94l-474 -960h-94l-139 840l-407 -840h-94z" />
    <glyph glyph-name="Ygrave" unicode="&#x1ef2;" horiz-adv-x="1200" 
d="M900 1587h-84l-96 214h110zM552 -2l97 612l-404 808h106l356 -718h8l584 718h106l-660 -808l-97 -612h-96z" />
    <glyph glyph-name="ygrave" unicode="&#x1ef3;" horiz-adv-x="892" 
d="M725 1132h-84l-96 214h110zM112 -418q-71 0 -128 12l11 74q85 -10 131 -10q77 1 120 33.5t85 112.5l69 130l-228 1026h96l196 -900l466 900h94l-613 -1182q-102 -196 -299 -196z" />
    <glyph glyph-name="endash" unicode="&#x2013;" horiz-adv-x="1812" 
d="M206 480l13 84h1552l-13 -84h-1552z" />
    <glyph glyph-name="emdash" unicode="&#x2014;" horiz-adv-x="2214" 
d="M206 480l13 84h1954l-13 -84h-1954z" />
    <glyph glyph-name="quoteleft" unicode="&#x2018;" horiz-adv-x="460" 
d="M528 1190q-7 -44 -40.5 -73t-79.5 -29q-47 0 -75.5 37t-18.5 101q13 79 79 142.5t148 77.5l-10 -64q-48 -9 -85 -41.5t-43 -70.5q19 14 54 14t56.5 -25t14.5 -69z" />
    <glyph glyph-name="quoteright" unicode="&#x2019;" horiz-adv-x="460" 
d="M547 1308q-13 -79 -79 -142.5t-148 -77.5l10 64q48 9 85 41.5t43 70.5q-19 -14 -54 -14t-56.5 25t-14.5 69t40.5 73t79.5 29q47 0 75.5 -37t18.5 -101z" />
    <glyph glyph-name="quotesinglbase" unicode="&#x201a;" horiz-adv-x="460" 
d="M349 58q-13 -79 -79 -142.5t-148 -77.5l10 64q48 9 85 41.5t43 70.5q-19 -14 -54 -14t-56.5 25t-14.5 69t40.5 73t79.5 29q47 0 75.5 -37t18.5 -101z" />
    <glyph glyph-name="quotedblleft" unicode="&#x201c;" horiz-adv-x="752" 
d="M528 1190q-7 -44 -40.5 -73t-79.5 -29q-47 0 -75.5 37t-18.5 101q13 79 79 142.5t148 77.5l-10 -64q-48 -9 -85 -41.5t-43 -70.5q19 14 54 14t56.5 -25t14.5 -69zM820 1190q-7 -44 -40.5 -73t-79.5 -29q-47 0 -75.5 37t-18.5 101q13 79 79 142.5t148 77.5l-10 -64
q-48 -9 -85 -41.5t-43 -70.5q19 14 54 14t56.5 -25t14.5 -69z" />
    <glyph glyph-name="quotedblright" unicode="&#x201d;" horiz-adv-x="752" 
d="M547 1308q-13 -79 -79 -142.5t-148 -77.5l10 64q48 9 85 41.5t43 70.5q-19 -14 -54 -14t-56.5 25t-14.5 69t40.5 73t79.5 29q47 0 75.5 -37t18.5 -101zM839 1308q-13 -79 -79 -142.5t-148 -77.5l10 64q48 9 85 41.5t43 70.5q-19 -14 -54 -14t-56.5 25t-14.5 69t40.5 73
t79.5 29q47 0 75.5 -37t18.5 -101z" />
    <glyph glyph-name="quotedblbase" unicode="&#x201e;" horiz-adv-x="752" 
d="M349 58q-13 -79 -79 -142.5t-148 -77.5l10 64q48 9 85 41.5t43 70.5q-19 -14 -54 -14t-56.5 25t-14.5 69t40.5 73t79.5 29q47 0 75.5 -37t18.5 -101zM641 58q-13 -79 -79 -142.5t-148 -77.5l10 64q48 9 85 41.5t43 70.5q-19 -14 -54 -14t-56.5 25t-14.5 69t40.5 73
t79.5 29q47 0 75.5 -37t18.5 -101z" />
    <glyph glyph-name="dagger" unicode="&#x2020;" horiz-adv-x="564" 
d="M326 528l97 616h-190l12 76h190l32 200h80l-32 -200h190l-12 -76h-190l-97 -616h-80z" />
    <glyph glyph-name="daggerdbl" unicode="&#x2021;" horiz-adv-x="566" 
d="M326 528l41 260h-188l12 76h188l35 220h-190l12 76h190l41 260h80l-41 -260h190l-12 -76h-190l-35 -220h192l-12 -76h-192l-41 -260h-80z" />
    <glyph glyph-name="bullet" unicode="&#x2022;" horiz-adv-x="702" 
d="M394 266q-105 0 -169.5 75t-48.5 179q17 104 105 180t194 76q104 0 168 -75.5t47 -180.5q-16 -102 -103.5 -178t-192.5 -76z" />
    <glyph glyph-name="ellipsis" unicode="&#x2026;" horiz-adv-x="1300" 
d="M247 -22q-45 0 -73 32t-20 76q7 45 44.5 77.5t82.5 32.5t72.5 -32.5t20.5 -77.5q-8 -44 -45 -76t-82 -32zM647 -22q-45 0 -73 32t-20 76q7 45 44.5 77.5t82.5 32.5t72.5 -32.5t20.5 -77.5q-8 -44 -45 -76t-82 -32zM1047 -22q-45 0 -73 32t-20 76q7 45 44.5 77.5
t82.5 32.5t72.5 -32.5t20.5 -77.5q-8 -44 -45 -76t-82 -32z" />
    <glyph glyph-name="perthousand" unicode="&#x2030;" horiz-adv-x="2516" 
d="M959 1104q-24 -149 -134.5 -245.5t-257.5 -96.5t-227.5 97t-56.5 245q23 149 134 245.5t258 96.5t227 -96.5t57 -245.5zM1703 1420l-1303 -1420h-104l1301 1420h106zM871 1104q18 114 -40 186t-169 72t-192 -72t-99 -186t40.5 -186t168.5 -72t191.5 72t99.5 186z
M1718 316q-23 -149 -134 -245.5t-258 -96.5t-227 96.5t-57 245.5t134 245.5t258 96.5t227 -96.5t57 -245.5zM2458 316q-23 -149 -134 -245.5t-258 -96.5t-227 96.5t-57 245.5t134 245.5t258 96.5t227 -96.5t57 -245.5zM1630 316q18 114 -40 186t-169 72t-192 -72t-99 -186
t40.5 -186t168.5 -72t191.5 72t99.5 186zM2370 316q18 114 -40 186t-169 72t-192 -72t-99 -186t40.5 -186t168.5 -72t191.5 72t99.5 186z" />
    <glyph glyph-name="minute" unicode="&#x2032;" horiz-adv-x="334" 
d="M451 1368l-86 -354h-72l24 354q3 38 27 58t53 20q28 0 45 -20t9 -58z" />
    <glyph glyph-name="guilsinglleft" unicode="&#x2039;" horiz-adv-x="678" 
d="M500 0l-344 480l496 480h98l-496 -480l344 -480h-98z" />
    <glyph glyph-name="guilsinglright" unicode="&#x203a;" horiz-adv-x="678" 
d="M178 0h-98l496 480l-344 480h98l344 -480z" />
    <glyph glyph-name="fraction" unicode="&#x2044;" horiz-adv-x="194" 
d="M825 1420l-1135 -1420h-96l1133 1420h98z" />
    <glyph glyph-name="Euro" unicode="&#x20ac;" horiz-adv-x="1342" 
d="M940 -24q-273 0 -445 150t-184 410h-162l13 84h150q6 60 10 90q10 58 22 100h-152l14 84h164q94 253 310 400.5t494 147.5q167 0 270 -42l-15 -90q-115 42 -273 42q-235 0 -418 -122.5t-268 -335.5h638l-14 -84h-654q-12 -42 -22 -100q-4 -30 -10 -90h656l-13 -84h-642
q16 -220 163 -345t386 -125q152 0 281 44l-14 -94q-140 -40 -285 -40z" />
    <glyph glyph-name="uni2116" unicode="&#x2116;" horiz-adv-x="2438" 
d="M2493 980q-32 -201 -191 -339.5t-358 -138.5q-129 0 -228 64t-145.5 174t-25.5 240q21 129 100.5 236t198 168.5t249.5 61.5q201 0 316 -134t84 -332zM276 0h-96l225 1420h98l633 -1258l199 1258h96l-225 -1420h-96l-634 1262zM2399 980q26 162 -65.5 270t-254.5 108
q-162 0 -288 -108.5t-152 -269.5q-25 -163 67.5 -276.5t250.5 -113.5q164 0 290 111t152 279zM2318 254h-828l14 88h828z" />
    <glyph glyph-name="trademark" unicode="&#x2122;" horiz-adv-x="1260" 
d="M454 1352h-188l11 68h448l-11 -68h-188l-77 -484h-72zM779 868h-68l88 552h68l141 -476l289 476h68l-88 -552h-68l64 400l-244 -400h-68l-119 394z" />
    <glyph glyph-name="estimated" unicode="&#x212e;" horiz-adv-x="1558" 
d="M232 706q50 315 267 514.5t506 199.5q294 0 448 -177t106 -481q-12 -76 -19 -106h-1116l-57 -360q61 -112 175.5 -173t271.5 -61q153 0 294.5 73t223.5 193l72 -28q-98 -148 -259.5 -233t-347.5 -85q-202 0 -342 91t-198.5 255.5t-24.5 377.5zM493 1092l-58 -364h918
l64 400q-59 102 -170.5 157t-254.5 55q-146 0 -275.5 -66.5t-223.5 -181.5z" />
    <glyph glyph-name="arrowleft" unicode="&#x2190;" horiz-adv-x="1772" 
d="M760 -36l-72 -62l-491 582l676 582l52 -62l-549 -476h1360l-14 -88h-1360z" />
    <glyph glyph-name="arrowup" unicode="&#x2191;" horiz-adv-x="1424" 
d="M308 780l-54 64l683 576l501 -576l-74 -64l-410 468l-198 -1248h-88l198 1248z" />
    <glyph glyph-name="arrowright" unicode="&#x2192;" horiz-adv-x="1772" 
d="M1181 1102l71 62l492 -582l-676 -582l-52 62l549 476h-1360l14 88h1360z" />
    <glyph glyph-name="arrowdown" unicode="&#x2193;" horiz-adv-x="1404" 
d="M1293 448l52 -62l-674 -584l-490 584l72 62l401 -474l229 1446h88l-229 -1446z" />
    <glyph glyph-name="arrowboth" unicode="&#x2194;" horiz-adv-x="2044" 
d="M199 498l446 392l-22 -136l-233 -210l448 2l1 2l989 -2l-168 210l21 134l322 -390l-444 -394l22 138l229 210l-980 -2v2l-454 -2l170 -214l-22 -134z" />
    <glyph glyph-name="arrowupdn" unicode="&#x2195;" horiz-adv-x="1024" 
d="M461 -310l-329 386h132l180 -200l70 450l84 530l73 454l-243 -198h-132l451 382l333 -382h-138l-179 198l-227 -1434l242 200h138z" />
    <glyph glyph-name="uni2196" unicode="&#x2196;" horiz-adv-x="1660" 
d="M345 1420h824l-14 -88l-672 -2l1067 -1268l-72 -62l-1067 1268l-109 -672h-88z" />
    <glyph glyph-name="uni2197" unicode="&#x2197;" horiz-adv-x="1660" 
d="M927 1330l14 90h824l-131 -824h-90l107 672l-1469 -1268l-52 62l1469 1268h-672z" />
    <glyph glyph-name="uni2198" unicode="&#x2198;" horiz-adv-x="1656" 
d="M1579 828h88l-130 -824h-824l14 88l672 2l-1064 1264l72 62l1064 -1264z" />
    <glyph glyph-name="uni2199" unicode="&#x2199;" horiz-adv-x="1662" 
d="M958 86l-14 -88h-824l130 824h90l-106 -672l1471 1270l52 -62l-1471 -1270z" />
    <glyph glyph-name="partialdiff" unicode="&#x2202;" horiz-adv-x="1224" 
d="M196 480q33 208 200 354t371 146q112 0 202 -52t141 -144q-17 99 -48.5 181.5t-86.5 162.5t-116 149t-160 167h120q230 -212 321.5 -425t47.5 -489q-39 -247 -201.5 -400.5t-386.5 -153.5q-136 0 -236.5 66t-145 181.5t-22.5 256.5zM290 478q-29 -183 63 -300.5
t265 -117.5q176 0 308 120.5t161 307.5q29 177 -62.5 291.5t-262.5 114.5q-177 0 -310 -118t-162 -298z" />
    <glyph glyph-name="emptyset" unicode="&#x2205;" horiz-adv-x="1564" 
d="M776 -24q-150 0 -271 57t-198 161l-200 -160l-46 58l206 164q-105 192 -65 454q34 211 151 379.5t289.5 261.5t366.5 93q151 0 271.5 -56.5t199.5 -161.5l202 162l46 -60l-208 -166q105 -192 64 -452q-33 -211 -150.5 -379.5t-290 -261.5t-367.5 -93zM300 710
q-34 -222 49 -388l1049 840q-66 91 -170.5 140.5t-233.5 49.5q-254 0 -451.5 -180.5t-242.5 -461.5zM791 68q168 0 316 81t249 228t130 333q36 222 -48 386l-1049 -838q66 -91 169.5 -140.5t232.5 -49.5z" />
    <glyph glyph-name="summation" unicode="&#x2211;" horiz-adv-x="1032" 
d="M952 0h-912l16 104l548 602l-356 610l17 104h912l-14 -88h-814l366 -630l-559 -614h810z" />
    <glyph glyph-name="minus" unicode="&#x2212;" horiz-adv-x="1320" 
d="M274 718h1000l-14 -88h-1000z" />
    <glyph glyph-name="radical" unicode="&#x221a;" horiz-adv-x="1356" 
d="M396 0l-244 958h100l206 -844l697 1306h346l-14 -88h-282l-721 -1332h-88z" />
    <glyph glyph-name="infinity" unicode="&#x221e;" horiz-adv-x="1684" 
d="M208 558q23 146 133 239t258 93q115 0 196.5 -65.5t145.5 -200.5q106 134 208.5 200t217.5 66q148 0 228 -93t57 -239q-22 -145 -132.5 -238.5t-257.5 -93.5q-117 0 -197.5 65.5t-144.5 200.5q-107 -135 -208.5 -200.5t-217.5 -65.5q-147 0 -227.5 93.5t-58.5 238.5z
M304 558q-17 -111 41.5 -177.5t172.5 -66.5q168 0 350 244q-104 244 -273 244q-115 0 -194 -66.5t-97 -177.5zM992 558q106 -244 274 -244q114 0 193.5 66.5t96.5 177.5q18 111 -40 177.5t-173 66.5q-167 0 -351 -244z" />
    <glyph glyph-name="integral" unicode="&#x222b;" horiz-adv-x="680" 
d="M202 -28h-146l13 84h146q36 0 66 26t36 62l178 1124q12 75 72.5 127.5t135.5 52.5h146l-13 -84h-146q-36 0 -66 -26t-36 -62l-178 -1124q-12 -75 -72.5 -127.5t-135.5 -52.5z" />
    <glyph glyph-name="approxequal" unicode="&#x2248;" horiz-adv-x="1320" 
d="M1216 894h86q-21 -130 -97 -207t-184 -77q-55 0 -112.5 21.5t-105 52.5t-93.5 62t-94.5 52.5t-91.5 21.5q-73 0 -115 -43.5t-63 -146.5h-86q20 127 95.5 202.5t182.5 75.5q60 0 130 -33t123.5 -72t121 -72t124.5 -33q71 0 114.5 46t64.5 150zM1160 544h86
q-20 -130 -96.5 -207t-184.5 -77q-55 0 -112.5 21.5t-105 52.5t-93.5 62t-94.5 52.5t-91.5 21.5q-73 0 -115 -43.5t-63 -146.5h-86q20 127 95.5 202.5t182.5 75.5q60 0 130 -33t123.5 -72t121 -72t124.5 -33q72 0 115 46.5t64 149.5z" />
    <glyph glyph-name="notequal" unicode="&#x2260;" horiz-adv-x="1320" 
d="M320 38l212 304h-318l14 88h366l222 316h-538l14 88h586l212 304h96l-212 -304h318l-14 -88h-366l-222 -316h538l-14 -88h-586l-212 -304h-96z" />
    <glyph glyph-name="lessequal" unicode="&#x2264;" horiz-adv-x="1320" 
d="M1210 314l-15 -94l-943 360l14 92l1057 360l-14 -94l-934 -312zM160 0l14 88h1000l-14 -88h-1000z" />
    <glyph glyph-name="greaterequal" unicode="&#x2265;" horiz-adv-x="1320" 
d="M1252 580l-1057 -360l15 94l933 312l-834 312l14 94l943 -360zM174 88h1000l-14 -88h-1000z" />
    <glyph glyph-name="filledbox" unicode="&#x25a0;" horiz-adv-x="1660" 
d="M120 0l225 1420h1420l-225 -1420h-1420z" />
    <glyph glyph-name="uni25A1" unicode="&#x25a1;" horiz-adv-x="1660" 
d="M120 0l225 1420h1420l-225 -1420h-1420zM1658 1328h-1236l-195 -1236h1236z" />
    <glyph glyph-name="triagup" unicode="&#x25b2;" horiz-adv-x="1932" 
d="M120 0l1071 1420l621 -1420h-1692z" />
    <glyph glyph-name="uni25B3" unicode="&#x25b3;" horiz-adv-x="1936" 
d="M1194 1424l622 -1424h-1696zM316 98h1336l-491 1122z" />
    <glyph glyph-name="circle" unicode="&#x25cb;" horiz-adv-x="1804" 
d="M884 -116q-159 0 -294 62t-223.5 166.5t-127.5 249.5t-14 304q25 158 110.5 303t207 250t276 167t312.5 62t293 -62t223.5 -167t127.5 -250t14 -303t-110 -303t-206.5 -250t-276 -167t-312.5 -62zM901 -8q137 0 270.5 53.5t238 143.5t177.5 215t94 262q22 136 -12 261
t-110 215.5t-192.5 144t-252.5 53.5q-137 0 -270.5 -53.5t-238 -143.5t-177.5 -215t-95 -262q-29 -183 37 -338t207 -245.5t324 -90.5z" />
    <glyph glyph-name="uni25CF" unicode="&#x25cf;" horiz-adv-x="1804" 
d="M884 -116q-159 0 -294 62t-223.5 166.5t-127.5 249.5t-14 304q25 158 110.5 303t207 250t276 167t312.5 62t293 -62t223.5 -167t127.5 -250t14 -303t-110 -303t-206.5 -250t-276 -167t-312.5 -62z" />
    <glyph glyph-name="uni2713" unicode="&#x2713;" horiz-adv-x="1512" 
d="M490 14l-356 464l81 70l293 -384l821 830l71 -62z" />
    <glyph glyph-name="uniF8FF" unicode="&#xf8ff;" horiz-adv-x="2262" 
d="M1148 80q-151 0 -288.5 59.5t-237 160t-158.5 238.5t-59 289t59 289t159 237.5t238 158.5t289 59t288.5 -59t237.5 -159t159 -237.5t59 -288.5q0 -203 -99.5 -375t-271 -272t-375.5 -100zM1150 168q178 0 329 88t239 239t88 329q0 134 -52 255.5t-139.5 209.5t-208 140.5
t-253.5 53.5q-134 0 -256 -52t-210 -139.5t-140 -209t-52 -254.5q0 -134 51.5 -256t139 -210.5t209 -141t255.5 -52.5zM939 454h-2l32 30q19 18 33 58q44 120 60 170q35 101 77 175v3q-2 -4 -8 -9.5t-7 -7.5q-13 -15 -14 -16q-30 -46 -41 -76q-3 -8 -11 -8q-132 4 -235 89
q-52 50 -79 74q-2 2 -7.5 10t-9.5 12q12 -2 15 -5q69 -27 131 -36q50 -5 96 3q53 12 63 16q3 0 6.5 1.5t7.5 3.5t7 3q-7 4 -21.5 11t-22.5 11t-18.5 12t-17.5 17h25q53 0 100 25q82 51 182 81q31 10 77 15q4 0 28.5 1t29.5 0q72 -2 118 -44q6 -6 12.5 -13.5t14 -16.5
t11.5 -14q-1 -1 -1 -2l-7 2q-61 23 -111 5t-83 -71q-15 -28 -33 -74q-10 -23 -31 -73t-32 -76q-44 -85 -87 -135q-38 -46 -87 -77q-59 -45 -155 -73q-2 0 -4 -1h-1zM1877 -72q-21 0 -35.5 14.5t-14.5 35.5t14.5 35.5t35.5 14.5t35.5 -14.5t14.5 -35.5t-14.5 -35.5
t-35.5 -14.5zM1877 -57q15 0 25 10t10 25t-10 25t-25 10t-25 -10t-10 -25t10 -25t25 -10zM1871 -44h-11v46h18q17 0 17 -14q0 -8 -7 -13l10 -19h-13l-8 15h-6v-15zM1885 -13q0 3 -7 3h-7v-8h7q7 0 7 5zM944 -33q0 -9 7 -15t18 -6q10 0 17 6t7 15q0 8 -7 14t-17 6t-17.5 -6
t-7.5 -14zM590 -121q0 62 -49 85q-24 12 -58 12h-79v-195h78q68 0 95 46q13 20 13 52zM544 -121q0 -42 -29 -56q-13 -6 -35 -6h-29v124h29q42 0 57 -27q7 -13 7 -35zM653 -156h113v11q0 35 -23 56q-21 18 -56 18q-50 0 -70 -36q-10 -18 -10 -39q0 -47 39 -66q18 -9 44 -9
q42 0 61 21q10 8 13 23l-42 3q-4 -12 -18 -15q-4 -2 -14 -2q-22 0 -33 17q-4 10 -4 18zM823 -174l-45 -2q6 -45 75 -45q46 0 64 23q10 12 10 25q0 31 -48 39l-30 5q-21 4 -21 15q0 15 25 15q24 0 28 -18l42 3q-6 43 -71 43q-43 0 -61 -21q-9 -10 -9 -24q0 -33 48 -42l29 -5
q21 -3 21 -15q0 -14 -27 -14q-25 0 -30 18zM1059 -231l-42 -4q10 -41 76 -41q49 0 70 25q11 13 11 31v147h-46v-24h-1q-8 15 -25 22q-8 4 -23 4q-40 0 -58 -33q-9 -17 -9 -41q0 -47 33 -64q14 -7 34 -7q24 0 38 12q7 7 9 11h2v-26q0 -28 -34 -28q-20 0 -28 8zM1201 -219h45
v85q0 18 15 26q10 4 17 4q29 0 29 -29v-86h46v93q0 35 -27 48q-11 7 -30 7q-37 0 -49 -28h-1v26h-45v-146zM1411 -212q19 -9 44 -9q50 0 71 35q10 17 10 40q0 46 -38 66q-18 9 -43 9q-52 0 -72 -36q-10 -18 -10 -39q0 -45 38 -66zM1734 -216q10 -5 28 -5q23 0 37 11
q6 4 11 12h1v-21h44v99q0 26 -21 37q-21 12 -49 12q-40 0 -60 -20q-9 -10 -13 -23l43 -3q5 17 29 17q25 0 25 -19v-1q0 -9 -17 -10q-11 -2 -23 -3q-28 -2 -43 -11q-19 -11 -19 -34q0 -28 27 -38zM946 -219h46v146h-46v-146zM1596 -219h52l57 146h-48l-34 -104h-2l-35 104
h-48zM722 -131h-69q2 17 16 25q6 5 19 5q22 0 30 -17q2 -5 4 -13zM1474 -184q-8 -6 -19 -6q-23 0 -31 21q-4 9 -4 23q0 28 16 38q7 6 19 6q21 0 31 -21q4 -14 4 -23q0 -27 -16 -38zM1128 -145q0 -41 -34 -41q-23 0 -31 19q-4 8 -4 22q0 27 16 37q8 5 19 5q22 0 30 -20
q4 -8 4 -22zM1793 -190q-7 -3 -18 -3q-24 0 -24 16q0 11 12 16q5 2 15 4q26 3 31 6v-15q0 -16 -16 -24z" />
    <glyph glyph-name="_Designova" horiz-adv-x="2122" 
d="M1059 -161q-174 0 -333 68.5t-274 184t-183.5 275t-68.5 333.5q1 140 45 271t123.5 236.5t185 185t236.5 123t271 43.5q175 0 334 -68t274.5 -183t184 -274t68.5 -334t-68.5 -334.5t-184 -275t-275.5 -183.5t-335 -68zM1061 -59q154 0 294 60t241.5 161.5t161.5 241.5
t60 294q0 207 -101 381.5t-274.5 276t-379.5 101.5q-154 0 -294.5 -59.5t-242.5 -161t-162 -241.5t-60 -295t59.5 -295.5t161 -242t241.5 -161.5t295 -60zM817 271h-4l37 31q22 20 41 69q12 35 35.5 101.5t33.5 96.5q41 117 86 200v2q-11 -13 -14 -18q-11 -8 -15 -21
q-34 -42 -50 -87q-6 -7 -13 -7q-157 8 -271 104q-13 13 -43.5 41.5t-44.5 42.5q-8 10 -22 24q12 0 17 -5q73 -29 154 -41q60 -7 108 4q32 5 71 18q6 0 15 4.5l11 5.5q-8 5 -24 12.5t-25.5 12.5t-21.5 14t-21 19h28q52 0 115 27q107 68 211 98q47 13 88 13q9 0 33 2t35 1
q88 -5 136 -52q7 -6 14.5 -14.5t16 -19t13.5 -16.5v-2q-4 2 -10 2q-70 27 -127 6.5t-96 -79.5q-9 -16 -23 -50t-16 -39q-11 -23 -35 -81.5t-39 -88.5q-49 -99 -99 -159q-23 -31 -98 -88q-73 -52 -181 -83h-6z" />
    <glyph glyph-name="_VendorID" horiz-adv-x="1699" 
d="M1499 1577v-1582h-1299v1582h1299zM1429 1508h-1159v-1445h1159v1445zM617 832q-81 0 -138 56t-57 136q0 73 62 164l129 189h86l-113 -162q10 2 31 2q83 0 137 -55t54 -138q0 -81 -55 -136.5t-136 -55.5zM1082 832q-81 0 -137.5 55.5t-56.5 136.5q0 43 13 79t46 85
l129 189h88l-116 -162q10 2 34 2q81 0 136 -55.5t55 -137.5q0 -81 -55.5 -136.5t-135.5 -55.5zM617 900q52 0 86 35t34 89t-33.5 88t-86.5 34q-55 0 -88.5 -33t-33.5 -89q0 -55 34 -89.5t88 -34.5zM1082 900q52 0 84.5 35t32.5 89t-33 88t-84 34q-55 0 -89.5 -34t-34.5 -88
t34.5 -89t89.5 -35zM617 201q-81 0 -138 57t-57 138q0 79 62 166l129 183h86l-112 -160q12 4 30 4q83 0 137 -55.5t54 -137.5t-55.5 -138.5t-135.5 -56.5zM1082 201q-81 0 -137.5 56.5t-56.5 138.5q0 45 12.5 81.5t46.5 84.5l129 183h88l-115 -160q12 4 33 4q81 0 136 -55.5
t55 -137.5t-55.5 -138.5t-135.5 -56.5zM617 271q53 0 86.5 34.5t33.5 90.5q0 52 -33.5 86t-86.5 34q-54 0 -88 -33.5t-34 -86.5q0 -57 34 -91t88 -34zM1082 271q52 0 84.5 34.5t32.5 90.5q0 53 -32.5 86.5t-84.5 33.5q-55 0 -89.5 -33.5t-34.5 -86.5q0 -56 34.5 -90.5
t89.5 -34.5zM897 -104v-58h-19v58h-7v12h7v10q0 21 26 21h8v-15q-15 2 -15 -7v-9h15v-12h-15zM234 -165q-30 0 -30 38q0 18 10 28t24 10q10 0 17 -4l5 -7v35h17v-97h-17v12l-5 -9q-10 -6 -21 -6zM448 -85q-11 0 -11 10t11 10t11 -10t-11 -10zM1120 -150v-13h-11
q-20 0 -20 13v46h-11v12h11v17h19v-17h13v-12h-13v-38q2 -13 12 -8zM326 -165q-36 0 -36 38q0 17 10 27.5t26 10.5t25.5 -10t9.5 -26q0 -3 -2 -7h-50q2 -18 17 -18q14 0 16 12h17q-6 -27 -33 -27zM397 -165q-27 0 -31 24h19q4 -13 12 -13q12 0 12 10q0 5 -16 12
q-24 7 -24 21q0 22 28 22t28 -22h-18q-3 9 -10 9q-9 0 -9 -8q0 -6 16 -12q22 -4 22 -20q0 -23 -29 -23zM507 -191q-35 0 -35 24v2h18v-2q0 -10 17 -10q16 0 19 17v10l-5 -9q-15 -3 -19 -3q-32 0 -32 35q0 18 10 28t25 10q11 0 16 -4l5 -7v10h19v-54q0 -11 -2 -15
q0 -15 -10 -23.5t-26 -8.5zM579 -130v-32h-19v72h19v-13l5 10q9 4 17 4q22 0 27 -21q1 -4 1 -12v-40h-20v46q0 14 -13 14q-17 0 -17 -28zM675 -165q-16 0 -26 10.5t-10 27.5t10 27.5t26 10.5q37 0 37 -38t-37 -38zM820 -165q-9 0 -15.5 6t-6.5 17q0 22 40 22h4v2v7
q0 9 -12 9q-14 0 -14 -12h-17q0 25 31 25q26 0 28 -21v-34v-18h-15l-1 8l-4 -6q-8 -5 -18 -5zM955 -165q-38 0 -38 38t38 38q16 0 25.5 -10.5t9.5 -27.5t-9.5 -27.5t-25.5 -10.5zM1019 -130v-32h-17v72h17v-13l8 10q7 4 17 4q22 0 25 -21v-12v-40h-19v46q-4 14 -11 14
q-20 0 -20 -28zM1160 -165q-28 0 -33 24h20q1 -13 13 -13q10 0 10 10q0 5 -10 10q-3 1 -5 2q-23 6 -23 21q0 22 26 22t32 -22h-21q0 9 -12 9q-6 0 -6 -8q0 -6 14 -12q25 -5 25 -20q0 -23 -30 -23zM1263 -165q-35 0 -35 38q0 17 10.5 27.5t24.5 10.5q15 0 24 -7.5t9 -19.5
h-18q-3 14 -15 14q-17 0 -17 -25q0 -11 5 -17t12 -6q13 0 15 12h18q-2 -27 -33 -27zM1341 -165q-38 0 -38 38t38 38q35 0 35 -38t-35 -38zM1408 -125v-37h-19v72h19v-12l6 9q7 4 13 4q18 0 23 -14l7 10q5 4 15 4t16.5 -5t6.5 -12q1 -5 1 -16v-40h-18v37q0 1 -0.5 5t-0.5 6
q0 12 -13 12q-12 0 -12 -23v-37h-18v48q-4 12 -13 12q-13 0 -13 -23zM457 -90v-72h-18v72h18zM792 -90l-26 -72h-23l-25 72h19l19 -60l17 60h19zM240 -150q20 0 20 23v2q0 23 -18 23q-19 0 -19 -25q0 -23 17 -23zM309 -122h33q-3 20 -16 20q-14 0 -17 -20zM507 -150
q19 0 19 23v2q0 23 -19 23q-17 0 -17 -23q0 -25 17 -25zM675 -150q20 0 20 23q0 25 -20 25q-18 0 -18 -25q0 -23 18 -23zM955 -150q17 0 17 23q0 25 -17 25q-19 0 -19 -25q0 -23 19 -23zM1341 -150q17 0 17 23q0 25 -17 25q-8 0 -14 -7t-6 -18t6 -17t14 -6zM826 -150
q6 0 11 4t5 9v7q-26 3 -26 -12q0 -8 10 -8zM1208 -165q-12 0 -12 10q0 5 3.5 9t8.5 4t8.5 -4t3.5 -9q0 -10 -12 -10z" />
    <glyph glyph-name="_Origin" horiz-adv-x="3007" 
d="M200 1238v67h2607v-67h-2607zM1498 842q35 -35 94 -35q56 0 91 35q37 37 37 87q0 53 -37 87q-35 35 -93 35q-57 0 -92 -35q-37 -35 -37 -87q0 -48 37 -87zM347 811h197v43h-143v56h129v42h-129v52h143v43h-197v-236zM584 811h54v145l118 -145h44v236h-54v-143l-117 143
h-45v-236zM916 811h54v193h76v43h-207v-43h77v-193zM1150 811h58l54 161l52 -161h60l77 236h-52l-56 -168l-54 168h-50l-56 -166l-54 166h-58zM1751 811h54v66h52l44 -66h60l-52 74q28 12 39 31q13 19 13 46q0 54 -48 77q-19 8 -54 8h-108v-236zM1988 811h54v99h128v42h-128
v52h143v43h-197v-236zM2207 811h195v43h-141v56h127v42h-127v52h141v43h-195v-236zM2442 811h54v145l118 -145h46v236h-54v-143l-119 143h-45v-236zM1664 929q0 -33 -21 -54t-53 -21t-52.5 21t-20.5 54q0 34 20.5 55.5t52.5 21.5t53 -21.5t21 -55.5zM1805 921v83h50
q50 0 50 -42q0 -41 -50 -41h-50zM304 415h56v236h-56v-236zM397 415h56v145l118 -145h44v236h-54v-143l-118 143h-46v-236zM739 651v-236h123q95 0 95 64q0 40 -37 56l-4 2q35 17 35 54q0 28 -24.5 44t-71.5 16h-116zM984 415h195v45h-141v54h129v42h-129v51h143v44h-197
v-236zM1218 415h56v66h50l46 -66h58l-50 74q23 8 39 31q13 19 13 46q0 52 -48 77q-21 8 -56 8h-108v-236zM1457 415h195v45h-141v191h-54v-236zM1691 415h54v236h-54v-236zM1784 415h54v145l119 -145h45v236h-56v-143l-116 143h-46v-236zM2237 651v-236h107q83 0 114 56
q17 24 17 62q0 74 -62 103q-29 15 -69 15h-107zM2506 415h195v45h-141v54h129v42h-129v51h143v44h-197v-236zM795 558v56h56q44 0 44 -29q0 -27 -44 -27h-56zM1274 525v82h50q50 0 50 -41t-50 -41h-50zM2293 460v147h49q49 0 69 -35q8 -13 8 -39q0 -46 -35 -64
q-17 -9 -42 -9h-49zM795 456v58h63q43 0 43 -29t-43 -29h-63zM2040 363h35l18 50q9 18 9 33q0 14 -9 23.5t-22 9.5q-15 0 -24.5 -9t-9.5 -24q0 -23 19 -29zM200 146v67h2607v-67h-2607z" />
    </font>
</defs>
</svg>
