<?xml version="1.0" standalone="no"?>
<!DOCTYPE svg PUBLIC "-//W3C//DTD SVG 1.1//EN" "http://www.w3.org/Graphics/SVG/1.1/DTD/svg11.dtd" >
<svg xmlns="http://www.w3.org/2000/svg" xmlns:xlink="http://www.w3.org/1999/xlink" version="1.1">
<metadata>
Created by FontForge 20201107 at Tue May 30 04:29:04 2023
 By 
Copyright (c) 2023 by Designova. All rights reserved.
</metadata>
<defs>
<font id="Helixa-Black" horiz-adv-x="0" >
  <font-face 
    font-family="Helixa Black"
    font-weight="900"
    font-stretch="normal"
    units-per-em="2048"
    panose-1="0 0 10 0 0 0 0 0 0 0"
    ascent="1638"
    descent="-410"
    x-height="1094"
    cap-height="1544"
    bbox="-1214 -454 2807 2396"
    underline-thickness="50"
    underline-position="-100"
    unicode-range="U+0020-F8FF"
  />
<missing-glyph horiz-adv-x="1242" 
d="M1154 1444v-1450h-1066v1450h1066zM1046 1344h-850v-1250h850v1250z" />
    <glyph glyph-name=".notdef" horiz-adv-x="1242" 
d="M1154 1444v-1450h-1066v1450h1066zM1046 1344h-850v-1250h850v1250z" />
    <glyph glyph-name=".null" 
 />
    <glyph glyph-name="nonmarkingreturn" horiz-adv-x="682" 
 />
    <glyph glyph-name="space" unicode=" " horiz-adv-x="580" 
 />
    <glyph glyph-name="exclam" unicode="!" horiz-adv-x="700" 
d="M474 436h-254q-56 283 -56 704v334h372v-334q0 -198 -17 -388t-45 -316zM348 -32q-76 0 -130 53t-54 127q0 75 54 128.5t130 53.5q74 0 129 -54t55 -128q0 -73 -55 -126.5t-129 -53.5z" />
    <glyph glyph-name="quotedbl" unicode="&#x22;" horiz-adv-x="1012" 
d="M436 1296l-72 -454h-154l-74 454q-15 94 34 143t124 49q64 0 110.5 -49.5t31.5 -142.5zM876 1296l-72 -454h-154l-74 454q-15 94 34 143t124 49q64 0 110.5 -49.5t31.5 -142.5z" />
    <glyph glyph-name="numbersign" unicode="#" horiz-adv-x="1492" 
d="M134 634h178l38 198h-204l60 288h200l70 354h306l-70 -354h198l68 354h306l-68 -354h202l-60 -288h-198l-40 -198h232l-58 -288h-230l-68 -352h-306l68 352h-198l-68 -352h-306l68 352h-180zM618 634h196l40 198h-198z" />
    <glyph glyph-name="dollar" unicode="$" horiz-adv-x="1200" 
d="M716 1316v-442l38 -6q186 -48 286 -160t100 -274q0 -178 -114.5 -299t-309.5 -151v-180h-236v180q-206 32 -323 166t-107 330h266q-26 -90 18 -157t146 -91v454l-26 4q-187 48 -286.5 158t-99.5 270q0 174 111.5 293t300.5 149v182h236v-180q190 -35 297.5 -168.5
t106.5 -333.5h-252q6 208 -152 256zM316 1118q0 -68 39.5 -112.5t124.5 -71.5v382q-79 -22 -121.5 -74t-42.5 -124zM716 624v-392q84 19 130 72t46 128t-42.5 121.5t-133.5 70.5z" />
    <glyph glyph-name="percent" unicode="%" horiz-adv-x="1816" 
d="M466 748q-180 0 -297 117t-117 295t117.5 294t296.5 116t296.5 -116t117.5 -294t-117 -295t-297 -117zM1652 1544l-1196 -1544h-294l1194 1544h296zM466 982q78 0 126 48.5t48 129.5t-48 129.5t-126 48.5t-126 -48.5t-48 -129.5t48 -129.5t126 -48.5zM1350 -26
q-180 0 -297 117t-117 295t117.5 294t296.5 116t296.5 -116t117.5 -294t-117 -295t-297 -117zM1350 208q78 0 126 48.5t48 129.5t-48 129.5t-126 48.5t-126 -48.5t-48 -129.5t48 -129.5t126 -48.5z" />
    <glyph glyph-name="ampersand" unicode="&#x26;" horiz-adv-x="1562" 
d="M652 -26q-252 0 -406 123t-154 325q0 143 79 256t257 224q-82 100 -117 173t-35 147q0 153 105.5 248.5t272.5 95.5q162 0 264 -92t102 -240q0 -110 -55 -202t-175 -180l294 -336q27 105 18 260h242q19 -265 -86 -460l276 -316h-312l-116 130q-187 -156 -454 -156z
M636 1026q74 53 107 102t33 106q0 48 -32 75t-92 27q-64 0 -98 -30t-34 -84q0 -34 24.5 -75.5t91.5 -120.5zM650 206q192 0 306 96l-376 422q-135 -78 -189.5 -145t-54.5 -157q0 -104 81.5 -160t232.5 -56z" />
    <glyph glyph-name="quotesingle" unicode="'" horiz-adv-x="572" 
d="M436 1296l-72 -454h-154l-74 454q-15 94 34 143t124 49q64 0 110.5 -49.5t31.5 -142.5z" />
    <glyph glyph-name="parenleft" unicode="(" horiz-adv-x="682" 
d="M682 -430h-236q-169 175 -267.5 439t-98.5 565q0 283 93 550t273 454h236q-134 -180 -212 -443.5t-78 -560.5q0 -279 73.5 -545.5t216.5 -458.5z" />
    <glyph glyph-name="parenright" unicode=")" horiz-adv-x="682" 
d="M236 -430h-236q143 192 216.5 458.5t73.5 545.5q0 297 -78 560.5t-212 443.5h236q180 -187 273 -454t93 -550q0 -301 -98.5 -565t-267.5 -439z" />
    <glyph glyph-name="asterisk" unicode="*" horiz-adv-x="860" 
d="M180 1120l-140 50l56 144l134 -44q74 -25 140 -74q-18 72 -18 158v148h154v-148q0 -79 -18 -158q70 51 142 74l136 44l54 -144l-142 -50q-65 -24 -156 -32q74 -60 108 -114l82 -126l-126 -86l-84 118q-45 64 -76 140q-19 -75 -70 -140l-90 -118l-126 86l86 126
q39 57 110 114q-96 11 -156 32z" />
    <glyph glyph-name="plus" unicode="+" horiz-adv-x="1472" 
d="M856 618v-450h-240v450h-456v238h456v448h240v-448h456v-238h-456z" />
    <glyph glyph-name="comma" unicode="," horiz-adv-x="616" 
d="M492 96q0 -144 -90.5 -244.5t-231.5 -115.5v110q77 14 125.5 54t52.5 100q-24 -12 -58 -12q-70 0 -118 46t-48 112q0 83 47 133.5t125 50.5q87 0 141.5 -65t54.5 -169z" />
    <glyph glyph-name="hyphen" unicode="-" horiz-adv-x="924" 
d="M120 398v272h684v-272h-684z" />
    <glyph glyph-name="period" unicode="." horiz-adv-x="616" 
d="M308 -32q-76 0 -130 53t-54 127q0 75 54 128.5t130 53.5q74 0 129 -54t55 -128q0 -73 -55 -126.5t-129 -53.5z" />
    <glyph glyph-name="slash" unicode="/" horiz-adv-x="884" 
d="M306 -6h-306l576 1476h308z" />
    <glyph glyph-name="zero" unicode="0" horiz-adv-x="1404" 
d="M702 -26q-288 0 -459 217.5t-171 580.5t171 580.5t459 217.5t459 -217.5t171 -580.5t-171 -580.5t-459 -217.5zM702 214q179 0 281.5 148.5t102.5 409.5q0 262 -102.5 411t-281.5 149t-281.5 -149t-102.5 -411q0 -261 102.5 -409.5t281.5 -148.5z" />
    <glyph glyph-name="one" unicode="1" horiz-adv-x="882" 
d="M722 1542v-1542h-246v1222l-284 -194l-124 208l462 306h192z" />
    <glyph glyph-name="two" unicode="2" horiz-adv-x="1186" 
d="M1126 236v-236h-1064v186l476 414q193 169 254.5 262t61.5 214q0 120 -67.5 187t-190.5 67q-144 0 -223 -107t-63 -281h-248q-9 136 26.5 252t106 198.5t175 129t230.5 46.5q219 0 360.5 -136.5t141.5 -349.5q0 -177 -87.5 -319.5t-320.5 -342.5l-212 -184h644z" />
    <glyph glyph-name="three" unicode="3" horiz-adv-x="1150" 
d="M548 -24q-263 0 -409 163t-119 427h250q-24 -166 49 -258t229 -92q146 0 229 78.5t83 215.5q0 128 -92.5 196t-267.5 68h-164v174l338 360h-616v236h996v-182l-350 -372q186 -42 295 -172.5t109 -311.5q0 -235 -156 -382.5t-404 -147.5z" />
    <glyph glyph-name="four" unicode="4" horiz-adv-x="1260" 
d="M794 1544h250v-998h166v-238h-166v-308h-248v308h-756v186zM796 546v594l-426 -594h426z" />
    <glyph glyph-name="five" unicode="5" horiz-adv-x="1208" 
d="M66 522h250q-11 -146 63 -226t219 -80q144 0 228 82t84 222q0 137 -86 220.5t-228 83.5q-97 0 -185 -43t-153 -121l-156 68l80 816h898v-236h-670l-30 -286q102 42 222 42q242 0 399 -154t157 -392t-157.5 -390t-402.5 -152q-252 0 -397.5 150t-134.5 396z" />
    <glyph glyph-name="six" unicode="6" horiz-adv-x="1264" 
d="M634 -24q-118 0 -224.5 44t-183 119t-121.5 180t-45 221q0 124 39.5 228.5t138.5 247.5l370 528h300l-318 -442h46q161 0 291 -72.5t203.5 -201t73.5 -288.5q0 -156 -75 -285.5t-206 -204t-289 -74.5zM634 216q142 0 232 90t90 234q0 142 -90.5 232t-231.5 90
q-144 0 -235 -90.5t-91 -231.5q0 -143 90.5 -233.5t235.5 -90.5z" />
    <glyph glyph-name="seven" unicode="7" horiz-adv-x="1112" 
d="M1102 1368l-554 -1368h-264l534 1308h-808v236h1092v-176z" />
    <glyph glyph-name="eight" unicode="8" horiz-adv-x="1274" 
d="M638 -24q-162 0 -291.5 60t-202 168t-72.5 244q0 114 52 211t148 163q-150 122 -150 318q0 190 144 309t372 119q227 0 369.5 -119t142.5 -309q0 -197 -146 -318q94 -63 146 -161.5t52 -214.5q0 -205 -159.5 -337.5t-404.5 -132.5zM638 934q126 0 196 55t70 151
q0 90 -70 141t-196 51q-124 0 -197 -51t-73 -137q0 -96 73 -153t197 -57zM640 214q142 0 229 67t87 175q0 110 -86 174t-234 64q-147 0 -232.5 -64t-85.5 -172q0 -110 88 -177t234 -67z" />
    <glyph glyph-name="nine" unicode="9" horiz-adv-x="1264" 
d="M1028 528l-372 -528h-300l318 444h-46q-161 0 -291 72t-203.5 200t-73.5 288q0 156 75 285.5t206 204t289 74.5q118 0 224.5 -44t183 -119t121.5 -180t45 -221q0 -121 -38.5 -225t-137.5 -251zM630 682q144 0 235 90.5t91 231.5q0 143 -91 234.5t-235 91.5
q-141 0 -231.5 -91t-90.5 -235q0 -142 90.5 -232t231.5 -90z" />
    <glyph glyph-name="colon" unicode=":" horiz-adv-x="656" 
d="M328 672q-76 0 -130 53t-54 127q0 75 54 128.5t130 53.5q74 0 129 -54t55 -128q0 -73 -55 -126.5t-129 -53.5zM328 -32q-76 0 -130 53t-54 127q0 75 54 128.5t130 53.5q74 0 129 -54t55 -128q0 -73 -55 -126.5t-129 -53.5z" />
    <glyph glyph-name="semicolon" unicode=";" horiz-adv-x="656" 
d="M328 672q-76 0 -130 53t-54 127q0 75 54 128.5t130 53.5q74 0 129 -54t55 -128q0 -73 -55 -126.5t-129 -53.5zM512 96q0 -144 -90.5 -244.5t-231.5 -115.5v110q77 14 125.5 54t52.5 100q-24 -12 -58 -12q-70 0 -118 46t-48 112q0 83 47 133.5t125 50.5q87 0 141.5 -65
t54.5 -169z" />
    <glyph glyph-name="less" unicode="&#x3c;" horiz-adv-x="1472" 
d="M582 552l730 -252v-254l-1152 408v198l1152 406v-252z" />
    <glyph glyph-name="equal" unicode="=" horiz-adv-x="1472" 
d="M1312 970v-238h-1152v238h1152zM1312 572v-236h-1152v236h1152z" />
    <glyph glyph-name="greater" unicode="&#x3e;" horiz-adv-x="1472" 
d="M1312 652v-198l-1152 -408v254l730 252l-730 254v252z" />
    <glyph glyph-name="question" unicode="?" horiz-adv-x="1154" 
d="M666 396h-278v42q0 56 14 106t32 84.5t52 72t57 57.5t63 52q39 31 60 50t46.5 48.5t36.5 60t11 65.5q0 86 -46.5 133t-131.5 47q-91 0 -144.5 -61.5t-53.5 -166.5h-322q0 229 147 372.5t381 143.5q236 0 369 -118t133 -328q0 -63 -17 -118.5t-39 -93t-61.5 -76t-67 -59.5
t-71.5 -51q-55 -37 -87 -63.5t-57.5 -68.5t-25.5 -88v-42zM536 -32q-76 0 -130 53t-54 127q0 75 54 128.5t130 53.5q75 0 129.5 -54t54.5 -128q0 -72 -54.5 -126t-129.5 -54z" />
    <glyph glyph-name="at" unicode="@" horiz-adv-x="1974" 
d="M1291 218q-45 28 -73 66q-121 -100 -302 -100q-168 0 -269 87.5t-101 234.5q0 110 64.5 191t185.5 123q63 20 144 32l160 20q42 6 72 12q-11 64 -53 93t-125 29q-91 0 -137 -34.5t-43 -99.5h-238q-5 158 111 258t309 100q194 0 303 -100t109 -280v-406q0 -26 12 -36
t46 -10q77 0 124.5 89t47.5 231q0 273 -183 449.5t-469 176.5q-179 0 -328.5 -86t-235.5 -234.5t-86 -325.5q0 -136 50.5 -257.5t137 -208t207 -136.5t255.5 -50q220 0 386 121l144 -173q-227 -172 -530 -172q-185 0 -349 67.5t-282 184t-186.5 279t-68.5 345.5
q0 181 69 343t187 277t282 182.5t348 67.5q191 0 356 -63.5t282 -175t183.5 -270t66.5 -341.5q0 -140 -46 -258.5t-125 -189.5t-185 -90.5t-227 38.5zM1016 642l-50 -6q-186 -21 -186 -128q0 -100 148 -100q110 0 175 66.5t71 187.5q-97 -15 -158 -20z" />
    <glyph glyph-name="A" unicode="A" horiz-adv-x="1428" 
d="M982 446h-536l-170 -446h-258l590 1544h212l590 -1544h-258zM530 676h368l-184 482z" />
    <glyph glyph-name="B" unicode="B" horiz-adv-x="1364" 
d="M792 0h-638v1544h602q237 0 374.5 -118.5t137.5 -325.5q0 -190 -124 -314q74 -59 114.5 -146.5t41.5 -193.5q-1 -201 -141 -323.5t-367 -122.5zM762 1308h-360v-416h360q256 0 256 208t-256 208zM798 656h-396v-420h396q120 0 183.5 53t68.5 157q-9 210 -252 210z" />
    <glyph glyph-name="C" unicode="C" horiz-adv-x="1562" 
d="M806 -22q-213 0 -380.5 101t-260.5 282t-93 411q0 231 93.5 412.5t263 282.5t385.5 101q178 0 327.5 -75.5t242 -210.5t108.5 -306h-256q-27 162 -143.5 257t-284.5 95q-218 0 -352 -153t-134 -403t133.5 -401t352.5 -151q169 0 288.5 90t149.5 240h254
q-16 -164 -110.5 -294.5t-247.5 -204t-336 -73.5z" />
    <glyph glyph-name="D" unicode="D" horiz-adv-x="1474" 
d="M610 0h-456v1544h456q234 0 414 -96t279 -272t99 -404t-99 -404t-279 -272t-414 -96zM610 1308h-208v-1072h208q250 0 396 145t146 391q0 248 -145 392t-397 144z" />
    <glyph glyph-name="E" unicode="E" horiz-adv-x="1292" 
d="M1180 236v-236h-1026v1544h1024v-236h-776v-416h710v-236h-710v-420h778z" />
    <glyph glyph-name="F" unicode="F" horiz-adv-x="1246" 
d="M402 656v-656h-248v1544h1024v-236h-776v-416h710v-236h-710z" />
    <glyph glyph-name="G" unicode="G" horiz-adv-x="1616" 
d="M814 -22q-222 0 -390 100q-168 101 -260 281.5t-92 412.5q0 174 52.5 320.5t151.5 253.5q98 107 234.5 164.5t293.5 57.5q186 0 343.5 -79.5t251 -219t99.5 -307.5h-246q-17 164 -142.5 269t-305.5 105q-226 0 -356 -157t-130 -407q0 -252 131 -406t365 -154
q132 0 234 54q174 94 204 310h-510v230h760v-156q0 -201 -88 -356q-87 -151 -243.5 -233.5t-356.5 -82.5z" />
    <glyph glyph-name="H" unicode="H" horiz-adv-x="1478" 
d="M402 666v-666h-248v1544h248v-642h674v642h248v-1544h-248v666h-674z" />
    <glyph glyph-name="I" unicode="I" horiz-adv-x="556" 
d="M402 1544v-1544h-248v1544h248z" />
    <glyph glyph-name="J" unicode="J" horiz-adv-x="1216" 
d="M558 -22q-326 0 -456 226q-62 115 -62 284v172h244v-172q0 -192 106 -248q74 -35 170 -32q91 0 162 32q106 56 106 248v1058h244v-1058q0 -169 -62 -284q-122 -223 -452 -226z" />
    <glyph glyph-name="K" unicode="K" horiz-adv-x="1436" 
d="M396 498v-498h-242v1544h242v-702l686 702h334l-722 -736l704 -808h-314l-554 638z" />
    <glyph glyph-name="L" unicode="L" horiz-adv-x="1230" 
d="M1180 236v-236h-1026v1544h248v-1308h778z" />
    <glyph glyph-name="M" unicode="M" horiz-adv-x="1740" 
d="M376 1544l494 -1160l492 1160h224v-1544h-248v878l-370 -878h-196l-370 874v-874h-248v1544h222z" />
    <glyph glyph-name="N" unicode="N" horiz-adv-x="1486" 
d="M370 1544l714 -1060v1060h248v-1544h-214l-716 1064v-1064h-248v1544h216z" />
    <glyph glyph-name="O" unicode="O" horiz-adv-x="1608" 
d="M804 -26q-162 0 -298 58.5t-231.5 162.5t-149 252.5t-53.5 324.5t53.5 324.5t149 252.5t231.5 162.5t298 58.5t298 -58.5t231.5 -162.5t149 -252.5t53.5 -324.5t-53.5 -324.5t-149 -252.5t-231.5 -162.5t-298 -58.5zM804 208q219 0 354.5 156t135.5 408
q0 255 -135.5 410.5t-354.5 155.5t-353.5 -155.5t-134.5 -410.5q0 -253 135 -408.5t353 -155.5z" />
    <glyph glyph-name="P" unicode="P" horiz-adv-x="1332" 
d="M402 524v-524h-248v1544h616q231 0 371.5 -138.5t140.5 -367.5q0 -226 -144 -370t-368 -144h-368zM766 1308h-364v-546h352q128 0 203 75t75 205q0 126 -70.5 196t-195.5 70z" />
    <glyph glyph-name="Q" unicode="Q" horiz-adv-x="1608" 
d="M1370 240l156 -172l-178 -168l-162 174q-170 -100 -382 -100q-162 0 -298 58.5t-231.5 162.5t-149 252.5t-53.5 324.5t53.5 324.5t149 252.5t231.5 162.5t298 58.5t298 -58.5t231.5 -162.5t149 -252.5t53.5 -324.5q0 -320 -166 -532zM804 208q128 0 218 48l-172 190
l178 168l176 -190q90 146 90 348q0 255 -135.5 410.5t-354.5 155.5t-353.5 -155.5t-134.5 -410.5q0 -253 135 -408.5t353 -155.5z" />
    <glyph glyph-name="R" unicode="R" horiz-adv-x="1402" 
d="M402 522v-524h-248v1544h616q231 0 371.5 -138.5t140.5 -367.5q0 -147 -67.5 -266t-186.5 -184l302 -586h-280l-268 522h-380zM766 1306h-364v-546h352q128 0 203 75t75 205q0 126 -70.5 196t-195.5 70z" />
    <glyph glyph-name="S" unicode="S" horiz-adv-x="1202" 
d="M598 -24q-254 0 -405.5 139t-142.5 365h268q-33 -116 45.5 -190t234.5 -74q139 0 217.5 57.5t78.5 158.5q0 78 -46.5 126t-145.5 70l-246 62q-187 48 -286.5 158t-99.5 270q0 204 148 327t390 123q234 0 374 -138.5t140 -369.5h-252q5 134 -62 203t-200 69
q-136 0 -213 -57.5t-77 -156.5q0 -72 45 -118t141 -70l252 -62q186 -48 286 -160t100 -274q0 -207 -149.5 -332.5t-394.5 -125.5z" />
    <glyph glyph-name="T" unicode="T" horiz-adv-x="1250" 
d="M750 1308v-1308h-248v1308h-462v236h1170v-236h-460z" />
    <glyph glyph-name="U" unicode="U" horiz-adv-x="1454" 
d="M730 -24q-272 0 -429 152.5t-157 419.5v996h248v-994q0 -330 338 -330q332 0 332 330v994h248v-996q0 -265 -156 -418.5t-424 -153.5z" />
    <glyph glyph-name="V" unicode="V" horiz-adv-x="1448" 
d="M1428 1544l-598 -1544h-210l-600 1544h264l428 -1090q1 -3 16 -38v4l14 36l426 1088h260z" />
    <glyph glyph-name="W" unicode="W" horiz-adv-x="2114" 
d="M1158 1544l350 -1058l322 1058h254l-472 -1544h-196l-360 1090l-358 -1090h-200l-468 1544h256l320 -1062l348 1062h204z" />
    <glyph glyph-name="X" unicode="X" horiz-adv-x="1494" 
d="M746 564l-402 -564h-300l554 770l-562 774h302l324 -448q39 -51 66 -90q18 -27 22 -32l402 570h294l-550 -770l562 -774h-302l-340 470q-44 55 -70 94z" />
    <glyph glyph-name="Y" unicode="Y" horiz-adv-x="1484" 
d="M866 652v-654h-248v654l-598 890h290l432 -648l432 648h290z" />
    <glyph glyph-name="Z" unicode="Z" horiz-adv-x="1234" 
d="M1174 236v-236h-1124v182l798 1126h-794v236h1130v-180l-798 -1128h788z" />
    <glyph glyph-name="bracketleft" unicode="[" horiz-adv-x="674" 
d="M434 2h230v-236h-510v1968h510v-236h-230v-1496z" />
    <glyph glyph-name="backslash" unicode="\" horiz-adv-x="884" 
d="M308 1470l576 -1476h-306l-578 1476h308z" />
    <glyph glyph-name="bracketright" unicode="]" horiz-adv-x="674" 
d="M10 -234v236h230v1496h-230v236h510v-1968h-510z" />
    <glyph glyph-name="asciicircum" unicode="^" horiz-adv-x="1096" 
d="M548 1176l-170 -390h-258l332 758h192l332 -758h-258z" />
    <glyph glyph-name="underscore" unicode="_" horiz-adv-x="1122" 
d="M120 -256v218h882v-218h-882z" />
    <glyph glyph-name="grave" unicode="`" horiz-adv-x="648" 
d="M392 1864l176 -362h-248l-220 362h292z" />
    <glyph glyph-name="a" unicode="a" horiz-adv-x="1112" 
d="M338 710h-236q-1 183 125 294.5t335 111.5t327.5 -110t118.5 -306v-700h-244v58q-131 -82 -290 -82q-180 0 -290 95.5t-110 252.5q0 156 111.5 253.5t314.5 120.5l178 20q61 7 84 16q-11 78 -58.5 114t-143.5 36q-109 0 -162.5 -42.5t-59.5 -131.5zM486 208q128 0 201 78
t77 220q-79 -14 -240 -28q-206 -26 -206 -152q0 -118 168 -118z" />
    <glyph glyph-name="b" unicode="b" horiz-adv-x="1236" 
d="M656 -24q-174 0 -300 96v-72h-240v1544h244v-516q121 88 296 88q232 0 375 -158t143 -412t-143 -412t-375 -158zM646 210q131 0 206.5 89.5t75.5 246.5t-75.5 247.5t-206.5 90.5t-207.5 -90.5t-76.5 -247.5t76 -246.5t208 -89.5z" />
    <glyph glyph-name="c" unicode="c" horiz-adv-x="1144" 
d="M582 -24q-232 0 -376 157t-144 409q0 256 147 415t385 159q204 0 341.5 -124.5t152.5 -323.5h-246q-6 96 -75.5 157t-172.5 61q-132 0 -211 -92.5t-79 -249.5q0 -153 76 -243.5t202 -90.5q108 0 182 60.5t82 153.5h246q-16 -197 -160 -322.5t-350 -125.5z" />
    <glyph glyph-name="d" unicode="d" horiz-adv-x="1236" 
d="M580 -24q-232 0 -375 158t-143 412t143 412t375 158q175 0 296 -88v516h244v-1544h-240v72q-126 -96 -300 -96zM590 210q132 0 208 89.5t76 246.5t-76.5 247.5t-207.5 90.5t-206.5 -90.5t-75.5 -247.5t75.5 -246.5t206.5 -89.5z" />
    <glyph glyph-name="e" unicode="e" horiz-adv-x="1172" 
d="M860 412h244q-13 -126 -86 -226t-186.5 -155t-245.5 -55q-235 0 -378 157t-146 417q3 255 146.5 410.5t377.5 155.5q235 0 379.5 -156t144.5 -410v-82l-804 2q19 -123 94 -192.5t186 -69.5q103 2 181 58.5t93 145.5zM324 694l524 -2q-30 92 -99 143t-163 51
q-93 0 -161 -50t-101 -142z" />
    <glyph glyph-name="f" unicode="f" horiz-adv-x="674" 
d="M653 1546v-232l-159 -1q-37 -6 -57.5 -34t-20.5 -71v-93h226v-230h-226v-885h-244v885h-150v230h150v93q0 156 82 247t224 91h175z" />
    <glyph glyph-name="g" unicode="g" horiz-adv-x="1240" 
d="M96 14h246q14 -123 100 -170q78 -37 170 -34q91 0 162 32q108 58 108 248v44q-129 -98 -306 -98q-225 0 -369.5 152t-144.5 388t147.5 388t376.5 152q171 0 292 -88v66h246v-1022q0 -149 -62 -264q-125 -223 -452 -226q-329 0 -456 226q-49 77 -58 206zM582 268
q131 0 207.5 83t76.5 227q0 142 -75.5 224t-204.5 82q-125 0 -201.5 -84.5t-76.5 -223.5t75.5 -223.5t198.5 -84.5z" />
    <glyph glyph-name="h" unicode="h" horiz-adv-x="1180" 
d="M1076 648v-648h-244v632q0 136 -47 194t-155 58q-123 0 -196.5 -80t-73.5 -216v-586h-244v1542h244v-508q117 80 276 80q211 0 325.5 -122t114.5 -346z" />
    <glyph glyph-name="i" unicode="i" horiz-adv-x="510" 
d="M252 1232q-66 0 -113 45t-47 111q0 65 46.5 111.5t113.5 46.5q66 0 113 -46t47 -112q0 -64 -47.5 -110t-112.5 -46zM374 1094v-1094h-244v1094h244z" />
    <glyph glyph-name="j" unicode="j" horiz-adv-x="538" 
d="M282 1232q-66 0 -113 45t-47 111q0 65 46.5 111.5t113.5 46.5q66 0 113 -46t47 -112q0 -64 -47.5 -110t-112.5 -46zM96 -412h-204v232l188 1q37 6 57.5 34t20.5 71v1168h244v-1168q0 -156 -82 -247t-224 -91z" />
    <glyph glyph-name="k" unicode="k" horiz-adv-x="1114" 
d="M360 338v-338h-244v1544h244v-870l414 420h330l-454 -464l420 -630h-292l-298 462z" />
    <glyph glyph-name="l" unicode="l" horiz-adv-x="476" 
d="M360 1544v-1544h-244v1544h244z" />
    <glyph glyph-name="m" unicode="m" horiz-adv-x="1726" 
d="M360 680v-680h-244v1094h240v-32q93 54 218 54q95 0 177.5 -35.5t136.5 -98.5q118 134 318 134q187 0 301.5 -117t114.5 -307v-692h-240v680q0 97 -48.5 150.5t-135.5 53.5q-91 0 -148.5 -58t-57.5 -148v-678h-242v682q0 99 -47.5 150.5t-136.5 51.5q-92 0 -149 -57
t-57 -147z" />
    <glyph glyph-name="n" unicode="n" horiz-adv-x="1180" 
d="M360 562v-562h-244v1094h246v-60q115 82 264 82q219 0 334.5 -120.5t115.5 -347.5v-648h-244v632q0 139 -47 195.5t-161 56.5q-125 0 -194.5 -84.5t-69.5 -237.5z" />
    <glyph glyph-name="o" unicode="o" horiz-adv-x="1188" 
d="M594 -24q-238 0 -383.5 157t-148.5 417q3 254 149 410t383 156t383 -156t149 -410q-3 -260 -148.5 -417t-383.5 -157zM594 208q131 0 210.5 92t79.5 246t-79.5 247t-210.5 93t-210.5 -93t-79.5 -247t79.5 -246t210.5 -92z" />
    <glyph glyph-name="p" unicode="p" horiz-adv-x="1236" 
d="M360 66v-464h-244v1492h240v-72q124 94 300 94q232 0 375 -158t143 -412t-143 -412t-375 -158q-173 0 -296 90zM646 210q131 0 206.5 89.5t75.5 246.5t-75.5 247.5t-206.5 90.5q-132 0 -208 -89.5t-76 -248.5q0 -156 76.5 -246t207.5 -90z" />
    <glyph glyph-name="q" unicode="q" horiz-adv-x="1236" 
d="M1120 1094v-1492h-244v464q-123 -90 -296 -90q-232 0 -375 158t-143 412t143 412t375 158q176 0 300 -94v72h240zM590 210q131 0 207.5 90t76.5 246q0 159 -76 248.5t-208 89.5q-131 0 -206.5 -90.5t-75.5 -247.5t75.5 -246.5t206.5 -89.5z" />
    <glyph glyph-name="r" unicode="r" horiz-adv-x="736" 
d="M360 562v-562h-244v1094h246v-58q151 101 334 76v-236q-158 27 -247 -56t-89 -258z" />
    <glyph glyph-name="s" unicode="s" horiz-adv-x="924" 
d="M454 -24q-207 0 -320.5 120.5t-83.5 309.5h236q-23 -92 20.5 -144t143.5 -52q90 0 138 28.5t48 81.5q0 42 -21.5 61t-90.5 35l-164 42q-143 36 -220.5 120t-77.5 202q0 151 112 243.5t294 92.5q201 0 312 -117t90 -307h-240q18 93 -23.5 142.5t-138.5 49.5
q-162 0 -162 -104q0 -66 116 -92l162 -40q296 -84 296 -328q0 -153 -119 -248.5t-307 -95.5z" />
    <glyph glyph-name="t" unicode="t" horiz-adv-x="718" 
d="M537 236l159 -1v-232h-175q-142 0 -224 91t-82 247v523h-193v230h193v298h244v-298h195v-230h-195v-523q0 -43 20.5 -71t57.5 -34z" />
    <glyph glyph-name="u" unicode="u" horiz-adv-x="1180" 
d="M554 -22q-219 0 -334.5 120.5t-115.5 347.5v648h244v-632q0 -139 47 -195.5t161 -56.5q125 0 194.5 84.5t69.5 237.5v562h244v-1094h-246v60q-115 -82 -264 -82z" />
    <glyph glyph-name="v" unicode="v" horiz-adv-x="1138" 
d="M272 1094l298 -716l298 716h260l-462 -1094h-194l-462 1094h262z" />
    <glyph glyph-name="w" unicode="w" horiz-adv-x="1628" 
d="M812 648l-218 -648h-202l-372 1094h254l220 -648l218 648h202l220 -648l220 648h254l-374 -1094h-202z" />
    <glyph glyph-name="x" unicode="x" horiz-adv-x="1160" 
d="M578 354l-256 -354h-302l404 550l-402 544h302l258 -352l258 352h300l-404 -548l404 -546h-302z" />
    <glyph glyph-name="y" unicode="y" horiz-adv-x="1088" 
d="M276 -410q-111 0 -206 28v216q140 -20 208 -20q50 2 69.5 18.5t40.5 75.5l40 102l-418 1084h258l284 -742l270 742h256l-462 -1262q-93 -242 -340 -242z" />
    <glyph glyph-name="z" unicode="z" horiz-adv-x="996" 
d="M924 230v-230h-852v172l514 692h-514v230h852v-174l-512 -690h512z" />
    <glyph glyph-name="braceleft" unicode="{" horiz-adv-x="768" 
d="M90 630v240q106 0 164 51.5t58 152.5v386q0 125 81 199.5t211 74.5h154v-236h-86q-80 0 -80 -98v-368q0 -114 -50 -182t-150 -100q100 -32 150 -100t50 -182v-368q0 -98 80 -98h86v-236h-154q-130 0 -211 74.5t-81 199.5v386q0 101 -58 152.5t-164 51.5z" />
    <glyph glyph-name="bar" unicode="|" horiz-adv-x="700" 
d="M466 1710v-1874h-232v1874h232z" />
    <glyph glyph-name="braceright" unicode="}" horiz-adv-x="768" 
d="M164 -234h-154v236h86q80 0 80 98v368q0 114 50 182t150 100q-100 32 -150 100t-50 182v368q0 98 -80 98h-86v236h154q130 0 211 -74.5t81 -199.5v-386q0 -101 58 -152.5t164 -51.5v-240q-106 0 -164 -51.5t-58 -152.5v-386q0 -125 -81 -199.5t-211 -74.5z" />
    <glyph glyph-name="asciitilde" unicode="~" horiz-adv-x="1472" 
d="M1000 422q-19 0 -39 2.5t-36 5t-37.5 9.5t-34 10.5t-36 14t-32.5 14.5t-33.5 17t-30 16t-31.5 17.5t-28 15.5q-74 47 -116.5 65.5t-75.5 18.5q-47 0 -60 -34t-12 -152h-234q-24 182 63 303t243 121q53 0 115 -20.5t98 -40t97 -55.5q55 -31 85 -47t69 -29.5t68 -13.5
q45 0 60 38.5t12 153.5h234q23 -188 -64 -309t-244 -121z" />
    <glyph glyph-name="exclamdown" unicode="&#xa1;" horiz-adv-x="700" 
d="M348 1500q74 0 129 -53.5t55 -126.5q0 -74 -55 -128t-129 -54q-76 0 -130 53.5t-54 128.5q0 74 54 127t130 53zM220 1032h254q28 -126 45 -316t17 -388v-334h-372v334q0 421 56 704z" />
    <glyph glyph-name="cent" unicode="&#xa2;" horiz-adv-x="1208" 
d="M746 220v-222h-240v222q-189 39 -306.5 190t-117.5 356q0 219 114.5 371t309.5 189v218h240v-222q165 -33 269 -150t117 -286h-248q-9 102 -78.5 159t-187.5 57q-131 0 -210.5 -91.5t-79.5 -242.5q0 -144 83.5 -234t214.5 -90q115 0 180 51.5t86 158.5h244
q-18 -172 -121.5 -287t-268.5 -147z" />
    <glyph glyph-name="sterling" unicode="&#xa3;" horiz-adv-x="1298" 
d="M752 0h-704v232q103 -9 181.5 73t78.5 197q0 62 -26 160h-222v236h138q-38 114 -38 212q0 205 138.5 331.5t361.5 126.5q234 0 374 -138.5t140 -369.5h-252q5 134 -62 203t-200 69q-123 0 -187.5 -58t-64.5 -166q0 -86 52 -210h538v-236h-458q16 -90 16 -162
q0 -144 -80 -264h276q142 0 191 71.5t37 262.5h244q18 -282 -101 -426t-371 -144z" />
    <glyph glyph-name="currency" unicode="&#xa4;" horiz-adv-x="1440" 
d="M458 338l-164 -162l-174 172l166 162q-70 113 -70 250q0 139 72 256l-168 162l174 170l164 -160q130 70 260 70q136 0 264 -72l164 162l174 -170l-166 -160q70 -119 70 -258q0 -137 -70 -250l166 -162l-174 -172l-164 164q-120 -72 -264 -72q-133 0 -260 70zM718 506
q108 0 186 76t78 178q0 107 -77.5 183.5t-186.5 76.5q-106 0 -183 -77.5t-77 -182.5q0 -102 77 -178t183 -76z" />
    <glyph glyph-name="yen" unicode="&#xa5;" horiz-adv-x="1396" 
d="M826 330v-330h-244v330h-370v222h370v28h-370v222h278l-450 742h284l380 -644l372 644h280l-442 -742h280v-222h-368v-28h368v-222h-368z" />
    <glyph glyph-name="brokenbar" unicode="&#xa6;" horiz-adv-x="700" 
d="M466 1710v-866h-232v866h232zM466 700v-864h-232v864h232z" />
    <glyph glyph-name="section" unicode="&#xa7;" horiz-adv-x="1012" 
d="M508 -22q-201 0 -312 117.5t-90 308.5h248q-45 -192 154 -192q85 0 123.5 24.5t38.5 77.5q0 36 -26.5 58t-85.5 34l-200 42q-302 66 -302 326q0 71 35 134t99 106q-92 92 -92 220q0 150 113 243t293 93q201 0 312 -117t90 -307h-250q24 95 -14.5 143.5t-137.5 48.5
q-162 0 -162 -104q0 -71 112 -92l200 -40q302 -66 302 -328q0 -69 -34.5 -132t-97.5 -108q90 -90 90 -220q0 -150 -113 -243t-293 -93zM506 666q206 0 206 108q0 110 -206 110t-206 -110q0 -108 206 -108z" />
    <glyph glyph-name="dieresis" unicode="&#xa8;" horiz-adv-x="878" 
d="M263 1548q-66 0 -112.5 46.5t-46.5 109.5q0 65 46.5 111.5t112.5 46.5q64 0 111.5 -47t47.5 -111q0 -63 -47.5 -109.5t-111.5 -46.5zM615 1548q-66 0 -112.5 46.5t-46.5 109.5q0 65 46.5 111.5t112.5 46.5q64 0 111.5 -47t47.5 -111q0 -63 -47.5 -109.5t-111.5 -46.5z
" />
    <glyph glyph-name="copyright" unicode="&#xa9;" horiz-adv-x="1782" 
d="M890 -28q-135 0 -259.5 39t-224 112t-173 171t-113.5 221t-40 257q0 166 63 314t170.5 253.5t258 167t318.5 61.5q170 0 320.5 -61.5t258.5 -167t170.5 -253t62.5 -314.5t-63 -316t-171 -255t-258.5 -167.5t-319.5 -61.5zM890 198q250 0 413 163t163 411q0 120 -44 226.5
t-120 182t-183 119.5t-229 44q-161 0 -293 -75t-206.5 -206t-74.5 -291q0 -247 164 -410.5t410 -163.5zM900 296q-196 0 -322 132.5t-126 337.5q0 210 128 344t330 134q173 0 289.5 -110t122.5 -282h-242q-12 162 -170 162q-98 0 -158 -67.5t-60 -178.5q0 -109 57.5 -174.5
t150.5 -65.5q166 0 184 158h244q-9 -169 -131 -279.5t-297 -110.5z" />
    <glyph glyph-name="ordfeminine" unicode="&#xaa;" horiz-adv-x="976" 
d="M327 1138h-199q-10 149 95.5 243t281.5 94q174 0 272.5 -91.5t98.5 -254.5v-581h-205v48q-108 -67 -238 -67q-150 0 -241.5 79.5t-91.5 209.5t92 211t262 101l146 16q40 4 69 13q-9 64 -48.5 92.5t-116.5 28.5q-177 0 -177 -142zM442 724q104 0 164.5 64t64.5 179
q-79 -15 -196 -23q-170 -22 -170 -124q0 -96 137 -96z" />
    <glyph glyph-name="guillemotleft" unicode="&#xab;" horiz-adv-x="1600" 
d="M518 -6l-438 500l438 500h402l-438 -500l438 -500h-402zM1118 -6l-438 500l438 500h402l-438 -500l438 -500h-402z" />
    <glyph glyph-name="logicalnot" unicode="&#xac;" horiz-adv-x="1338" 
d="M1176 778v-628h-244v392h-824v236h1068z" />
    <glyph glyph-name="registered" unicode="&#xae;" horiz-adv-x="1044" 
d="M524 620q-189 0 -316.5 126.5t-127.5 313.5q0 186 128 313t316 127q189 0 314.5 -125.5t125.5 -314.5t-125.5 -314.5t-314.5 -125.5zM524 704q152 0 251 101t99 255t-99 255t-251 101q-153 0 -253.5 -101.5t-100.5 -254.5q0 -154 100.5 -255t253.5 -101zM430 818h-90v498
h208q85 0 135.5 -40t50.5 -110q0 -49 -26.5 -88.5t-73.5 -59.5l106 -200h-98l-90 176h-122v-176zM638 1156q0 74 -92 74h-116v-154h116q43 0 67.5 22t24.5 58z" />
    <glyph glyph-name="macron" unicode="&#xaf;" horiz-adv-x="824" 
d="M704 1858v-234h-584v234h584z" />
    <glyph glyph-name="degree" unicode="&#xb0;" horiz-adv-x="716" 
d="M358 982q-126 0 -212 84t-86 210q0 124 86 208t212 84t212 -84t86 -208q0 -126 -86 -210t-212 -84zM358 1208q30 0 48 18t18 50t-18 50t-48 18t-48 -18t-18 -50t18 -50t48 -18z" />
    <glyph glyph-name="plusminus" unicode="&#xb1;" horiz-adv-x="1472" 
d="M856 678v-390h-240v390h-456v236h456v390h240v-390h456v-236h-456zM1312 236v-236h-1152v236h1152z" />
    <glyph glyph-name="uni00B2" unicode="&#xb2;" horiz-adv-x="860" 
d="M760 732v-199h-658v154l276 244q103 91 134 137t31 108q0 111 -111 111q-72 0 -106 -60t-16 -160h-207q-20 182 74 301t257 119q136 0 224 -87t88 -221q0 -107 -52.5 -195.5t-185.5 -204.5l-53 -47h305z" />
    <glyph glyph-name="uni00B3" unicode="&#xb3;" horiz-adv-x="873" 
d="M428 525q-167 0 -258.5 113t-63.5 287h208q-25 -96 5 -148t109 -52q68 0 104.5 35t36.5 99q0 118 -167 118h-125v144l147 159h-301v199h620v-149l-169 -184q93 -35 146 -112t53 -177q0 -145 -97 -238.5t-248 -93.5z" />
    <glyph glyph-name="acute" unicode="&#xb4;" horiz-adv-x="660" 
d="M560 1862l-228 -360h-252l184 360h296z" />
    <glyph glyph-name="uni00B5" unicode="&#xb5;" horiz-adv-x="1160" 
d="M348 12v-410h-244v1494h246v-636q0 -130 48 -190t152 -60q122 0 186 78t64 228v578h244v-1094h-220l-6 66q-127 -90 -290 -90q-96 0 -180 36z" />
    <glyph glyph-name="paragraph" unicode="&#xb6;" horiz-adv-x="1244" 
d="M50 1070q0 185 105 294.5t283 109.5h328v-1676h-260v866h-68q-180 0 -284 109t-104 297zM1050 -206h-92v1676h92v-1676z" />
    <glyph glyph-name="periodcentered" unicode="&#xb7;" horiz-adv-x="736" 
d="M370 340q-99 0 -170.5 70t-71.5 166q0 99 71.5 169.5t170.5 70.5q96 0 167 -72t71 -168q0 -95 -70.5 -165.5t-167.5 -70.5z" />
    <glyph glyph-name="cedilla" unicode="&#xb8;" horiz-adv-x="570" 
d="M256 -334q-119 0 -190 68v206l-6 18l6 14v36l12 -12l98 206h170v-128l-8 -8l6 2q68 -18 107 -69t39 -123q0 -91 -66.5 -150.5t-167.5 -59.5zM190 -114v-32q36 18 66 18h2v2h-12q-29 0 -56 12z" />
    <glyph glyph-name="uni00B9" unicode="&#xb9;" horiz-adv-x="643" 
d="M543 1478v-945h-203v667l-139 -96l-101 178l291 196h152z" />
    <glyph glyph-name="ordmasculine" unicode="&#xba;" horiz-adv-x="1072" 
d="M536 527q-194 0 -314 131.5t-122 346.5q2 209 122.5 339.5t313.5 130.5t313.5 -130.5t122.5 -339.5q-2 -215 -122 -346.5t-314 -131.5zM536 736q102 0 161.5 71.5t59.5 193.5t-59.5 193.5t-161.5 71.5t-161.5 -71.5t-59.5 -193.5t59.5 -193.5t161.5 -71.5z" />
    <glyph glyph-name="guillemotright" unicode="&#xbb;" horiz-adv-x="1600" 
d="M482 -6h-402l438 500l-438 500h402l438 -500zM1082 -6h-402l438 500l-438 500h402l438 -500z" />
    <glyph glyph-name="questiondown" unicode="&#xbf;" horiz-adv-x="1154" 
d="M618 1502q76 0 130 -53t54 -127q0 -75 -54 -128.5t-130 -53.5q-75 0 -129.5 54t-54.5 128q0 72 54.5 126t129.5 54zM488 1074h278v-42q0 -56 -14 -106t-32 -84.5t-52 -72t-57 -57.5t-63 -52q-39 -31 -60 -50t-46.5 -48.5t-36.5 -60t-11 -65.5q0 -86 46.5 -133t131.5 -47
q91 0 144.5 61.5t53.5 166.5h322q0 -229 -147 -372.5t-381 -143.5q-236 0 -369 118t-133 328q0 63 17 118.5t39 93t61.5 76t67 59.5t71.5 51q55 37 87 63.5t57.5 68.5t25.5 88v42z" />
    <glyph glyph-name="Agrave" unicode="&#xc0;" horiz-adv-x="1428" 
d="M651 2247l176 -362h-248l-220 362h292zM982 446h-536l-170 -446h-258l590 1544h212l590 -1544h-258zM530 676h368l-184 482z" />
    <glyph glyph-name="Aacute" unicode="&#xc1;" horiz-adv-x="1428" 
d="M1068 2262l-228 -360h-252l184 360h296zM982 446h-536l-170 -446h-258l590 1544h212l590 -1544h-258zM530 676h368l-184 482z" />
    <glyph glyph-name="Acircumflex" unicode="&#xc2;" horiz-adv-x="1428" 
d="M682 2016l-76 -108h-278l238 362h230l238 -362h-278zM982 446h-536l-170 -446h-258l590 1544h212l590 -1544h-258zM530 676h368l-184 482z" />
    <glyph glyph-name="Atilde" unicode="&#xc3;" horiz-adv-x="1428" 
d="M622 1893h-234q-26 143 31 236.5t169 93.5q87 0 174 -72q31 -25 44 -28q-2 8 -2 34q-1 10 -2 32.5t-2 33.5h232q20 -152 -38 -241t-178 -89q-86 0 -184 76q-8 8 -16 12q-5 -35 6 -88zM982 446h-536l-170 -446h-258l590 1544h212l590 -1544h-258zM530 676h368l-184 482z
" />
    <glyph glyph-name="Adieresis" unicode="&#xc4;" horiz-adv-x="1428" 
d="M508 1914q-66 0 -112.5 46.5t-46.5 109.5q0 65 46.5 111.5t112.5 46.5q64 0 111.5 -47t47.5 -111q0 -63 -47.5 -109.5t-111.5 -46.5zM860 1914q-66 0 -112.5 46.5t-46.5 109.5q0 65 46.5 111.5t112.5 46.5q64 0 111.5 -47t47.5 -111q0 -63 -47.5 -109.5t-111.5 -46.5z
M982 446h-536l-170 -446h-258l590 1544h212l590 -1544h-258zM530 676h368l-184 482z" />
    <glyph glyph-name="Aring" unicode="&#xc5;" horiz-adv-x="1428" 
d="M703 1845q-108 0 -178.5 70t-70.5 177q0 105 72 175t177 70t177 -70t72 -175q0 -104 -71.5 -175.5t-177.5 -71.5zM703 2017q34 0 49.5 17.5t15.5 57.5q0 35 -18 55t-47 20q-65 0 -65 -75q0 -40 15.5 -57.5t49.5 -17.5zM982 446h-536l-170 -446h-258l590 1544h212
l590 -1544h-258zM530 676h368l-184 482z" />
    <glyph glyph-name="AE" unicode="&#xc6;" horiz-adv-x="1739" 
d="M943 238h778v-236h-1026v444h-249l-170 -446h-258l590 1544h87v2h1024v-236h-776v-416h710v-236h-710v-420zM695 676v433l-165 -433h165z" />
    <glyph glyph-name="Ccedilla" unicode="&#xc7;" horiz-adv-x="1562" 
d="M1246 550h254q-15 -158 -104 -285.5t-232.5 -202.5t-317.5 -83l-27 -50q10 2 28 2q84 0 138 -46t54 -120q0 -83 -65.5 -139.5t-165.5 -56.5q-106 0 -173 41v155q38 -27 69.5 -35.5t76.5 -8.5q26 0 43 12.5t17 34.5q0 32 -69.5 42t-130.5 -14l-46 135l63 61
q-265 50 -425.5 261.5t-160.5 518.5q0 231 93.5 412.5t263 282.5t385.5 101q178 0 327.5 -75.5t242 -210.5t108.5 -306h-256q-27 162 -143.5 257t-284.5 95q-218 0 -352 -153t-134 -403t133.5 -401t352.5 -151q169 0 288.5 90t149.5 240z" />
    <glyph glyph-name="Egrave" unicode="&#xc8;" horiz-adv-x="1292" 
d="M617 2266l176 -362h-248l-220 362h292zM1180 236v-236h-1026v1544h1024v-236h-776v-416h710v-236h-710v-420h778z" />
    <glyph glyph-name="Eacute" unicode="&#xc9;" horiz-adv-x="1292" 
d="M979 2260l-228 -360h-252l184 360h296zM1180 236v-236h-1026v1544h1024v-236h-776v-416h710v-236h-710v-420h778z" />
    <glyph glyph-name="Ecircumflex" unicode="&#xca;" horiz-adv-x="1292" 
d="M682 2014l-76 -108h-278l238 362h230l238 -362h-278zM1180 236v-236h-1026v1544h1024v-236h-776v-416h710v-236h-710v-420h778z" />
    <glyph glyph-name="Edieresis" unicode="&#xcb;" horiz-adv-x="1292" 
d="M508 1912q-66 0 -112.5 46.5t-46.5 109.5q0 65 46.5 111.5t112.5 46.5q64 0 111.5 -47t47.5 -111q0 -63 -47.5 -109.5t-111.5 -46.5zM860 1912q-66 0 -112.5 46.5t-46.5 109.5q0 65 46.5 111.5t112.5 46.5q64 0 111.5 -47t47.5 -111q0 -63 -47.5 -109.5t-111.5 -46.5z
M1180 236v-236h-1026v1544h1024v-236h-776v-416h710v-236h-710v-420h778z" />
    <glyph glyph-name="Igrave" unicode="&#xcc;" horiz-adv-x="556" 
d="M216 2265l176 -362h-248l-220 362h292zM402 1544v-1544h-248v1544h248z" />
    <glyph glyph-name="Iacute" unicode="&#xcd;" horiz-adv-x="556" 
d="M630 2260l-228 -360h-252l184 360h296zM402 1544v-1544h-248v1544h248z" />
    <glyph glyph-name="Icircumflex" unicode="&#xce;" horiz-adv-x="556" 
d="M266 2014l-76 -108h-278l238 362h230l238 -362h-278zM402 1544v-1544h-248v1544h248z" />
    <glyph glyph-name="Idieresis" unicode="&#xcf;" horiz-adv-x="556" 
d="M95 1912q-66 0 -112.5 46.5t-46.5 109.5q0 65 46.5 111.5t112.5 46.5q64 0 111.5 -47t47.5 -111q0 -63 -47.5 -109.5t-111.5 -46.5zM447 1912q-66 0 -112.5 46.5t-46.5 109.5q0 65 46.5 111.5t112.5 46.5q64 0 111.5 -47t47.5 -111q0 -63 -47.5 -109.5t-111.5 -46.5z
M402 1544v-1544h-248v1544h248z" />
    <glyph glyph-name="Ntilde" unicode="&#xd1;" horiz-adv-x="1486" 
d="M654 1913h-234q-26 143 31 236.5t169 93.5q87 0 174 -72q31 -25 44 -28q-2 8 -2 34q-1 10 -2 32.5t-2 33.5h232q20 -152 -38 -241t-178 -89q-86 0 -184 76q-8 8 -16 12q-5 -35 6 -88zM370 1544l714 -1060v1060h248v-1544h-214l-716 1064v-1064h-248v1544h216z" />
    <glyph glyph-name="Ograve" unicode="&#xd2;" horiz-adv-x="1608" 
d="M733 2269l176 -362h-248l-220 362h292zM804 -26q-162 0 -298 58.5t-231.5 162.5t-149 252.5t-53.5 324.5t53.5 324.5t149 252.5t231.5 162.5t298 58.5t298 -58.5t231.5 -162.5t149 -252.5t53.5 -324.5t-53.5 -324.5t-149 -252.5t-231.5 -162.5t-298 -58.5zM804 208
q219 0 354.5 156t135.5 408q0 255 -135.5 410.5t-354.5 155.5t-353.5 -155.5t-134.5 -410.5q0 -253 135 -408.5t353 -155.5z" />
    <glyph glyph-name="Oacute" unicode="&#xd3;" horiz-adv-x="1608" 
d="M1068 2260l-228 -360h-252l184 360h296zM804 -26q-162 0 -298 58.5t-231.5 162.5t-149 252.5t-53.5 324.5t53.5 324.5t149 252.5t231.5 162.5t298 58.5t298 -58.5t231.5 -162.5t149 -252.5t53.5 -324.5t-53.5 -324.5t-149 -252.5t-231.5 -162.5t-298 -58.5zM804 208
q219 0 354.5 156t135.5 408q0 255 -135.5 410.5t-354.5 155.5t-353.5 -155.5t-134.5 -410.5q0 -253 135 -408.5t353 -155.5z" />
    <glyph glyph-name="Ocircumflex" unicode="&#xd4;" horiz-adv-x="1608" 
d="M825 2014l-76 -108h-278l238 362h230l238 -362h-278zM804 -26q-162 0 -298 58.5t-231.5 162.5t-149 252.5t-53.5 324.5t53.5 324.5t149 252.5t231.5 162.5t298 58.5t298 -58.5t231.5 -162.5t149 -252.5t53.5 -324.5t-53.5 -324.5t-149 -252.5t-231.5 -162.5t-298 -58.5z
M804 208q219 0 354.5 156t135.5 408q0 255 -135.5 410.5t-354.5 155.5t-353.5 -155.5t-134.5 -410.5q0 -253 135 -408.5t353 -155.5z" />
    <glyph glyph-name="Otilde" unicode="&#xd5;" horiz-adv-x="1608" 
d="M717 1906h-234q-26 143 31 236.5t169 93.5q87 0 174 -72q31 -25 44 -28q-2 8 -2 34q-1 10 -2 32.5t-2 33.5h232q20 -152 -38 -241t-178 -89q-86 0 -184 76q-8 8 -16 12q-5 -35 6 -88zM804 -26q-162 0 -298 58.5t-231.5 162.5t-149 252.5t-53.5 324.5t53.5 324.5
t149 252.5t231.5 162.5t298 58.5t298 -58.5t231.5 -162.5t149 -252.5t53.5 -324.5t-53.5 -324.5t-149 -252.5t-231.5 -162.5t-298 -58.5zM804 208q219 0 354.5 156t135.5 408q0 255 -135.5 410.5t-354.5 155.5t-353.5 -155.5t-134.5 -410.5q0 -253 135 -408.5t353 -155.5z
" />
    <glyph glyph-name="Odieresis" unicode="&#xd6;" horiz-adv-x="1608" 
d="M661 1912q-66 0 -112.5 46.5t-46.5 109.5q0 65 46.5 111.5t112.5 46.5q64 0 111.5 -47t47.5 -111q0 -63 -47.5 -109.5t-111.5 -46.5zM1013 1912q-66 0 -112.5 46.5t-46.5 109.5q0 65 46.5 111.5t112.5 46.5q64 0 111.5 -47t47.5 -111q0 -63 -47.5 -109.5t-111.5 -46.5z
M804 -26q-162 0 -298 58.5t-231.5 162.5t-149 252.5t-53.5 324.5t53.5 324.5t149 252.5t231.5 162.5t298 58.5t298 -58.5t231.5 -162.5t149 -252.5t53.5 -324.5t-53.5 -324.5t-149 -252.5t-231.5 -162.5t-298 -58.5zM804 208q219 0 354.5 156t135.5 408q0 255 -135.5 410.5
t-354.5 155.5t-353.5 -155.5t-134.5 -410.5q0 -253 135 -408.5t353 -155.5z" />
    <glyph glyph-name="multiply" unicode="&#xd7;" horiz-adv-x="1444" 
d="M1102 196l-380 374l-380 -374l-170 168l380 374l-378 370l170 168l378 -372l380 372l170 -168l-380 -370l380 -374z" />
    <glyph glyph-name="Oslash" unicode="&#xd8;" horiz-adv-x="1608" 
d="M1510 1542l-160 -212q186 -219 186 -558q0 -176 -53.5 -324.5t-149 -252.5t-231.5 -162.5t-298 -58.5q-221 0 -392 107l-62 -83h-268l169 225q-179 217 -179 549q0 176 53.5 324.5t149 252.5t231.5 162.5t298 58.5q213 0 382 -100l54 72h270zM316 772q0 -199 88 -344
l638 850q-106 60 -238 60q-219 0 -353.5 -155.5t-134.5 -410.5zM804 208q219 0 354.5 156t135.5 408q0 210 -95 356l-642 -854q109 -66 247 -66z" />
    <glyph glyph-name="Ugrave" unicode="&#xd9;" horiz-adv-x="1454" 
d="M687 2263l176 -362h-248l-220 362h292zM730 -24q-272 0 -429 152.5t-157 419.5v996h248v-994q0 -330 338 -330q332 0 332 330v994h248v-996q0 -265 -156 -418.5t-424 -153.5z" />
    <glyph glyph-name="Uacute" unicode="&#xda;" horiz-adv-x="1454" 
d="M1068 2260l-228 -360h-252l184 360h296zM730 -24q-272 0 -429 152.5t-157 419.5v996h248v-994q0 -330 338 -330q332 0 332 330v994h248v-996q0 -265 -156 -418.5t-424 -153.5z" />
    <glyph glyph-name="Ucircumflex" unicode="&#xdb;" horiz-adv-x="1454" 
d="M682 2014l-76 -108h-278l238 362h230l238 -362h-278zM730 -24q-272 0 -429 152.5t-157 419.5v996h248v-994q0 -330 338 -330q332 0 332 330v994h248v-996q0 -265 -156 -418.5t-424 -153.5z" />
    <glyph glyph-name="Udieresis" unicode="&#xdc;" horiz-adv-x="1454" 
d="M566 1912q-66 0 -112.5 46.5t-46.5 109.5q0 65 46.5 111.5t112.5 46.5q64 0 111.5 -47t47.5 -111q0 -63 -47.5 -109.5t-111.5 -46.5zM918 1912q-66 0 -112.5 46.5t-46.5 109.5q0 65 46.5 111.5t112.5 46.5q64 0 111.5 -47t47.5 -111q0 -63 -47.5 -109.5t-111.5 -46.5z
M730 -24q-272 0 -429 152.5t-157 419.5v996h248v-994q0 -330 338 -330q332 0 332 330v994h248v-996q0 -265 -156 -418.5t-424 -153.5z" />
    <glyph glyph-name="Yacute" unicode="&#xdd;" horiz-adv-x="1484" 
d="M1068 2260l-228 -360h-252l184 360h296zM866 652v-654h-248v654l-598 890h290l432 -648l432 648h290z" />
    <glyph glyph-name="germandbls" unicode="&#xdf;" horiz-adv-x="1277" 
d="M402 1308v-1734h-248v1970h1005v-182l-350 -372q186 -42 295 -172.5t109 -311.5q0 -235 -156 -382.5t-404 -147.5v240q146 0 229 78.5t83 215.5q0 128 -92.5 196t-267.5 68h-124v174l298 360h-377z" />
    <glyph glyph-name="agrave" unicode="&#xe0;" horiz-adv-x="1112" 
d="M530 1781l176 -362h-248l-220 362h292zM338 710h-236q-1 183 125 294.5t335 111.5t327.5 -110t118.5 -306v-700h-244v58q-131 -82 -290 -82q-180 0 -290 95.5t-110 252.5q0 156 111.5 253.5t314.5 120.5l178 20q61 7 84 16q-11 78 -58.5 114t-143.5 36
q-109 0 -162.5 -42.5t-59.5 -131.5zM486 208q128 0 201 78t77 220q-79 -14 -240 -28q-206 -26 -206 -152q0 -118 168 -118z" />
    <glyph glyph-name="aacute" unicode="&#xe1;" horiz-adv-x="1112" 
d="M897 1750l-228 -360h-252l184 360h296zM338 710h-236q-1 183 125 294.5t335 111.5t327.5 -110t118.5 -306v-700h-244v58q-131 -82 -290 -82q-180 0 -290 95.5t-110 252.5q0 156 111.5 253.5t314.5 120.5l178 20q61 7 84 16q-11 78 -58.5 114t-143.5 36
q-109 0 -162.5 -42.5t-59.5 -131.5zM486 208q128 0 201 78t77 220q-79 -14 -240 -28q-206 -26 -206 -152q0 -118 168 -118z" />
    <glyph glyph-name="acircumflex" unicode="&#xe2;" horiz-adv-x="1112" 
d="M553 1487l-76 -108h-278l238 362h230l238 -362h-278zM338 710h-236q-1 183 125 294.5t335 111.5t327.5 -110t118.5 -306v-700h-244v58q-131 -82 -290 -82q-180 0 -290 95.5t-110 252.5q0 156 111.5 253.5t314.5 120.5l178 20q61 7 84 16q-11 78 -58.5 114t-143.5 36
q-109 0 -162.5 -42.5t-59.5 -131.5zM486 208q128 0 201 78t77 220q-79 -14 -240 -28q-206 -26 -206 -152q0 -118 168 -118z" />
    <glyph glyph-name="atilde" unicode="&#xe3;" horiz-adv-x="1112" 
d="M483 1384h-234q-26 143 31 236.5t169 93.5q87 0 174 -72q31 -25 44 -28q-2 8 -2 34q-1 10 -2 32.5t-2 33.5h232q20 -152 -38 -241t-178 -89q-86 0 -184 76q-8 8 -16 12q-5 -35 6 -88zM338 710h-236q-1 183 125 294.5t335 111.5t327.5 -110t118.5 -306v-700h-244v58
q-131 -82 -290 -82q-180 0 -290 95.5t-110 252.5q0 156 111.5 253.5t314.5 120.5l178 20q61 7 84 16q-11 78 -58.5 114t-143.5 36q-109 0 -162.5 -42.5t-59.5 -131.5zM486 208q128 0 201 78t77 220q-79 -14 -240 -28q-206 -26 -206 -152q0 -118 168 -118z" />
    <glyph glyph-name="adieresis" unicode="&#xe4;" horiz-adv-x="1112" 
d="M370 1363q-66 0 -112.5 46.5t-46.5 109.5q0 65 46.5 111.5t112.5 46.5q64 0 111.5 -47t47.5 -111q0 -63 -47.5 -109.5t-111.5 -46.5zM722 1363q-66 0 -112.5 46.5t-46.5 109.5q0 65 46.5 111.5t112.5 46.5q64 0 111.5 -47t47.5 -111q0 -63 -47.5 -109.5t-111.5 -46.5z
M338 710h-236q-1 183 125 294.5t335 111.5t327.5 -110t118.5 -306v-700h-244v58q-131 -82 -290 -82q-180 0 -290 95.5t-110 252.5q0 156 111.5 253.5t314.5 120.5l178 20q61 7 84 16q-11 78 -58.5 114t-143.5 36q-109 0 -162.5 -42.5t-59.5 -131.5zM486 208q128 0 201 78
t77 220q-79 -14 -240 -28q-206 -26 -206 -152q0 -118 168 -118z" />
    <glyph glyph-name="aring" unicode="&#xe5;" horiz-adv-x="1112" 
d="M556 1402q-108 0 -178.5 70t-70.5 177q0 105 72 175t177 70t177 -70t72 -175q0 -104 -71.5 -175.5t-177.5 -71.5zM556 1574q34 0 49.5 17.5t15.5 57.5q0 35 -18 55t-47 20q-65 0 -65 -75q0 -40 15.5 -57.5t49.5 -17.5zM338 710h-236q-1 183 125 294.5t335 111.5
t327.5 -110t118.5 -306v-700h-244v58q-131 -82 -290 -82q-180 0 -290 95.5t-110 252.5q0 156 111.5 253.5t314.5 120.5l178 20q61 7 84 16q-11 78 -58.5 114t-143.5 36q-109 0 -162.5 -42.5t-59.5 -131.5zM486 208q128 0 201 78t77 220q-79 -14 -240 -28q-206 -26 -206 -152
q0 -118 168 -118z" />
    <glyph glyph-name="ae" unicode="&#xe6;" horiz-adv-x="1888" 
d="M338 710h-236q-1 183 125 294.5t335 111.5q243 0 360 -145q143 145 368 145q235 0 379.5 -156t144.5 -410v-82l-804 2q19 -123 94 -192.5t186 -69.5q103 2 181 58.5t93 145.5h244q-13 -126 -86 -226t-186.5 -155t-245.5 -55q-160 0 -282 77v-53h-244v58
q-131 -82 -290 -82q-180 0 -290 95.5t-110 252.5q0 156 111.5 253.5t314.5 120.5l178 20q61 7 84 16q-11 78 -58.5 114t-143.5 36q-109 0 -162.5 -42.5t-59.5 -131.5zM1028 694l524 -2q-30 92 -99 143t-163 51q-93 0 -161 -50t-101 -142zM318 326q0 -118 168 -118
q128 0 201 78t77 220q-79 -14 -240 -28q-206 -26 -206 -152z" />
    <glyph glyph-name="ccedilla" unicode="&#xe7;" horiz-adv-x="1144" 
d="M627 -22v-10l-33 -62q10 2 28 2q84 0 138 -46t54 -120q0 -83 -65.5 -139.5t-165.5 -56.5q-106 0 -173 41v155q38 -27 69.5 -35.5t76.5 -8.5q26 0 43 12.5t17 34.5q0 32 -69.5 42t-130.5 -14l-46 135l85 82q-180 41 -286.5 189t-106.5 363q0 256 147 415t385 159
q204 0 341.5 -124.5t152.5 -323.5h-246q-6 96 -75.5 157t-172.5 61q-132 0 -211 -92.5t-79 -249.5q0 -153 76 -243.5t202 -90.5q108 0 182 60.5t82 153.5h246q-16 -186 -145.5 -309t-319.5 -137z" />
    <glyph glyph-name="egrave" unicode="&#xe8;" horiz-adv-x="1172" 
d="M569 1741l176 -362h-248l-220 362h292zM860 412h244q-13 -126 -86 -226t-186.5 -155t-245.5 -55q-235 0 -378 157t-146 417q3 255 146.5 410.5t377.5 155.5q235 0 379.5 -156t144.5 -410v-82l-804 2q19 -123 94 -192.5t186 -69.5q103 2 181 58.5t93 145.5zM324 694
l524 -2q-30 92 -99 143t-163 51q-93 0 -161 -50t-101 -142z" />
    <glyph glyph-name="eacute" unicode="&#xe9;" horiz-adv-x="1172" 
d="M923 1695l-228 -360h-252l184 360h296zM860 412h244q-13 -126 -86 -226t-186.5 -155t-245.5 -55q-235 0 -378 157t-146 417q3 255 146.5 410.5t377.5 155.5q235 0 379.5 -156t144.5 -410v-82l-804 2q19 -123 94 -192.5t186 -69.5q103 2 181 58.5t93 145.5zM324 694
l524 -2q-30 92 -99 143t-163 51q-93 0 -161 -50t-101 -142z" />
    <glyph glyph-name="ecircumflex" unicode="&#xea;" horiz-adv-x="1172" 
d="M583 1463l-76 -108h-278l238 362h230l238 -362h-278zM860 412h244q-13 -126 -86 -226t-186.5 -155t-245.5 -55q-235 0 -378 157t-146 417q3 255 146.5 410.5t377.5 155.5q235 0 379.5 -156t144.5 -410v-82l-804 2q19 -123 94 -192.5t186 -69.5q103 2 181 58.5t93 145.5z
M324 694l524 -2q-30 92 -99 143t-163 51q-93 0 -161 -50t-101 -142z" />
    <glyph glyph-name="edieresis" unicode="&#xeb;" horiz-adv-x="1172" 
d="M420 1387q-66 0 -112.5 46.5t-46.5 109.5q0 65 46.5 111.5t112.5 46.5q64 0 111.5 -47t47.5 -111q0 -63 -47.5 -109.5t-111.5 -46.5zM772 1387q-66 0 -112.5 46.5t-46.5 109.5q0 65 46.5 111.5t112.5 46.5q64 0 111.5 -47t47.5 -111q0 -63 -47.5 -109.5t-111.5 -46.5z
M860 412h244q-13 -126 -86 -226t-186.5 -155t-245.5 -55q-235 0 -378 157t-146 417q3 255 146.5 410.5t377.5 155.5q235 0 379.5 -156t144.5 -410v-82l-804 2q19 -123 94 -192.5t186 -69.5q103 2 181 58.5t93 145.5zM324 694l524 -2q-30 92 -99 143t-163 51q-93 0 -161 -50
t-101 -142z" />
    <glyph glyph-name="igrave" unicode="&#xec;" horiz-adv-x="504" 
d="M209 1804l176 -362h-248l-220 362h292zM374 1094v-1094h-244v1094h244z" />
    <glyph glyph-name="iacute" unicode="&#xed;" horiz-adv-x="504" 
d="M594 1788l-228 -360h-252l184 360h296zM374 1094v-1094h-244v1094h244z" />
    <glyph glyph-name="icircumflex" unicode="&#xee;" horiz-adv-x="504" 
d="M256 1528l-76 -108h-278l238 362h230l238 -362h-278zM374 1094v-1094h-244v1094h244z" />
    <glyph glyph-name="idieresis" unicode="&#xef;" horiz-adv-x="504" 
d="M52 1421q-66 0 -112.5 46.5t-46.5 109.5q0 65 46.5 111.5t112.5 46.5q64 0 111.5 -47t47.5 -111q0 -63 -47.5 -109.5t-111.5 -46.5zM404 1421q-66 0 -112.5 46.5t-46.5 109.5q0 65 46.5 111.5t112.5 46.5q64 0 111.5 -47t47.5 -111q0 -63 -47.5 -109.5t-111.5 -46.5z
M374 1094v-1094h-244v1094h244z" />
    <glyph glyph-name="ntilde" unicode="&#xf1;" horiz-adv-x="1180" 
d="M483 1391h-234q-26 143 31 236.5t169 93.5q87 0 174 -72q31 -25 44 -28q-2 8 -2 34q-1 10 -2 32.5t-2 33.5h232q20 -152 -38 -241t-178 -89q-86 0 -184 76q-8 8 -16 12q-5 -35 6 -88zM360 562v-562h-244v1094h246v-60q115 82 264 82q219 0 334.5 -120.5t115.5 -347.5
v-648h-244v632q0 139 -47 195.5t-161 56.5q-125 0 -194.5 -84.5t-69.5 -237.5z" />
    <glyph glyph-name="ograve" unicode="&#xf2;" horiz-adv-x="1188" 
d="M567 1796l176 -362h-248l-220 362h292zM594 -24q-238 0 -383.5 157t-148.5 417q3 254 149 410t383 156t383 -156t149 -410q-3 -260 -148.5 -417t-383.5 -157zM594 208q131 0 210.5 92t79.5 246t-79.5 247t-210.5 93t-210.5 -93t-79.5 -247t79.5 -246t210.5 -92z" />
    <glyph glyph-name="oacute" unicode="&#xf3;" horiz-adv-x="1188" 
d="M942 1771l-228 -360h-252l184 360h296zM594 -24q-238 0 -383.5 157t-148.5 417q3 254 149 410t383 156t383 -156t149 -410q-3 -260 -148.5 -417t-383.5 -157zM594 208q131 0 210.5 92t79.5 246t-79.5 247t-210.5 93t-210.5 -93t-79.5 -247t79.5 -246t210.5 -92z" />
    <glyph glyph-name="ocircumflex" unicode="&#xf4;" horiz-adv-x="1188" 
d="M592 1501l-76 -108h-278l238 362h230l238 -362h-278zM594 -24q-238 0 -383.5 157t-148.5 417q3 254 149 410t383 156t383 -156t149 -410q-3 -260 -148.5 -417t-383.5 -157zM594 208q131 0 210.5 92t79.5 246t-79.5 247t-210.5 93t-210.5 -93t-79.5 -247t79.5 -246
t210.5 -92z" />
    <glyph glyph-name="otilde" unicode="&#xf5;" horiz-adv-x="1188" 
d="M486 1364h-234q-26 143 31 236.5t169 93.5q87 0 174 -72q31 -25 44 -28q-2 8 -2 34q-1 10 -2 32.5t-2 33.5h232q20 -152 -38 -241t-178 -89q-86 0 -184 76q-8 8 -16 12q-5 -35 6 -88zM594 -24q-238 0 -383.5 157t-148.5 417q3 254 149 410t383 156t383 -156t149 -410
q-3 -260 -148.5 -417t-383.5 -157zM594 208q131 0 210.5 92t79.5 246t-79.5 247t-210.5 93t-210.5 -93t-79.5 -247t79.5 -246t210.5 -92z" />
    <glyph glyph-name="odieresis" unicode="&#xf6;" horiz-adv-x="1188" 
d="M419 1357q-66 0 -112.5 46.5t-46.5 109.5q0 65 46.5 111.5t112.5 46.5q64 0 111.5 -47t47.5 -111q0 -63 -47.5 -109.5t-111.5 -46.5zM771 1357q-66 0 -112.5 46.5t-46.5 109.5q0 65 46.5 111.5t112.5 46.5q64 0 111.5 -47t47.5 -111q0 -63 -47.5 -109.5t-111.5 -46.5z
M594 -24q-238 0 -383.5 157t-148.5 417q3 254 149 410t383 156t383 -156t149 -410q-3 -260 -148.5 -417t-383.5 -157zM594 208q131 0 210.5 92t79.5 246t-79.5 247t-210.5 93t-210.5 -93t-79.5 -247t79.5 -246t210.5 -92z" />
    <glyph glyph-name="divide" unicode="&#xf7;" horiz-adv-x="1472" 
d="M736 870q-77 0 -131.5 53t-54.5 129t54.5 129t131.5 53t131.5 -53t54.5 -129t-54.5 -129t-131.5 -53zM1312 784v-236h-1152v236h1152zM736 96q-75 0 -130.5 53.5t-55.5 128.5q0 76 54.5 129t131.5 53t131.5 -53t54.5 -129q0 -75 -55.5 -128.5t-130.5 -53.5z" />
    <glyph glyph-name="oslash" unicode="&#xf8;" horiz-adv-x="1188" 
d="M874 1190h270l-154 -245q133 -153 136 -395q-3 -260 -148.5 -417t-383.5 -157q-104 0 -192 32l-54 -86h-268l131 210q-146 157 -149 418q3 254 149 410t383 156q114 0 210 -38zM304 546q0 -113 45 -195l328 524q-41 11 -83 11q-131 0 -210.5 -93t-79.5 -247zM884 546
q0 99 -34 175l-319 -507q30 -6 63 -6q131 0 210.5 92t79.5 246z" />
    <glyph glyph-name="ugrave" unicode="&#xf9;" horiz-adv-x="1180" 
d="M524 1764l176 -362h-248l-220 362h292zM554 -22q-219 0 -334.5 120.5t-115.5 347.5v648h244v-632q0 -139 47 -195.5t161 -56.5q125 0 194.5 84.5t69.5 237.5v562h244v-1094h-246v60q-115 -82 -264 -82z" />
    <glyph glyph-name="uacute" unicode="&#xfa;" horiz-adv-x="1180" 
d="M920 1793l-228 -360h-252l184 360h296zM554 -22q-219 0 -334.5 120.5t-115.5 347.5v648h244v-632q0 -139 47 -195.5t161 -56.5q125 0 194.5 84.5t69.5 237.5v562h244v-1094h-246v60q-115 -82 -264 -82z" />
    <glyph glyph-name="ucircumflex" unicode="&#xfb;" horiz-adv-x="1180" 
d="M584 1528l-76 -108h-278l238 362h230l238 -362h-278zM554 -22q-219 0 -334.5 120.5t-115.5 347.5v648h244v-632q0 -139 47 -195.5t161 -56.5q125 0 194.5 84.5t69.5 237.5v562h244v-1094h-246v60q-115 -82 -264 -82z" />
    <glyph glyph-name="udieresis" unicode="&#xfc;" horiz-adv-x="1180" 
d="M432 1389q-66 0 -112.5 46.5t-46.5 109.5q0 65 46.5 111.5t112.5 46.5q64 0 111.5 -47t47.5 -111q0 -63 -47.5 -109.5t-111.5 -46.5zM784 1389q-66 0 -112.5 46.5t-46.5 109.5q0 65 46.5 111.5t112.5 46.5q64 0 111.5 -47t47.5 -111q0 -63 -47.5 -109.5t-111.5 -46.5z
M554 -22q-219 0 -334.5 120.5t-115.5 347.5v648h244v-632q0 -139 47 -195.5t161 -56.5q125 0 194.5 84.5t69.5 237.5v562h244v-1094h-246v60q-115 -82 -264 -82z" />
    <glyph glyph-name="yacute" unicode="&#xfd;" horiz-adv-x="1088" 
d="M889 1760l-228 -360h-252l184 360h296zM276 -410q-111 0 -206 28v216q140 -20 208 -20q50 2 69.5 18.5t40.5 75.5l40 102l-418 1084h258l284 -742l270 742h256l-462 -1262q-93 -242 -340 -242z" />
    <glyph glyph-name="ydieresis" unicode="&#xff;" horiz-adv-x="1088" 
d="M401 1379q-66 0 -112.5 46.5t-46.5 109.5q0 65 46.5 111.5t112.5 46.5q64 0 111.5 -47t47.5 -111q0 -63 -47.5 -109.5t-111.5 -46.5zM753 1379q-66 0 -112.5 46.5t-46.5 109.5q0 65 46.5 111.5t112.5 46.5q64 0 111.5 -47t47.5 -111q0 -63 -47.5 -109.5t-111.5 -46.5z
M276 -410q-111 0 -206 28v216q140 -20 208 -20q50 2 69.5 18.5t40.5 75.5l40 102l-418 1084h258l284 -742l270 742h256l-462 -1262q-93 -242 -340 -242z" />
    <glyph glyph-name="Cacute" unicode="&#x106;" horiz-adv-x="1562" 
d="M1068 2260l-228 -360h-252l184 360h296zM806 -22q-213 0 -380.5 101t-260.5 282t-93 411q0 231 93.5 412.5t263 282.5t385.5 101q178 0 327.5 -75.5t242 -210.5t108.5 -306h-256q-27 162 -143.5 257t-284.5 95q-218 0 -352 -153t-134 -403t133.5 -401t352.5 -151
q169 0 288.5 90t149.5 240h254q-16 -164 -110.5 -294.5t-247.5 -204t-336 -73.5z" />
    <glyph glyph-name="cacute" unicode="&#x107;" horiz-adv-x="1144" 
d="M910 1741l-228 -360h-252l184 360h296zM582 -24q-232 0 -376 157t-144 409q0 256 147 415t385 159q204 0 341.5 -124.5t152.5 -323.5h-246q-6 96 -75.5 157t-172.5 61q-132 0 -211 -92.5t-79 -249.5q0 -153 76 -243.5t202 -90.5q108 0 182 60.5t82 153.5h246
q-16 -197 -160 -322.5t-350 -125.5z" />
    <glyph glyph-name="Ccaron" unicode="&#x10c;" horiz-adv-x="1562" 
d="M1102 2262l-238 -362h-230l-238 362h278l76 -108l74 108h278zM806 -22q-213 0 -380.5 101t-260.5 282t-93 411q0 231 93.5 412.5t263 282.5t385.5 101q178 0 327.5 -75.5t242 -210.5t108.5 -306h-256q-27 162 -143.5 257t-284.5 95q-218 0 -352 -153t-134 -403
t133.5 -401t352.5 -151q169 0 288.5 90t149.5 240h254q-16 -164 -110.5 -294.5t-247.5 -204t-336 -73.5z" />
    <glyph glyph-name="ccaron" unicode="&#x10d;" horiz-adv-x="1144" 
d="M926 1742l-238 -362h-230l-238 362h278l76 -108l74 108h278zM582 -24q-232 0 -376 157t-144 409q0 256 147 415t385 159q204 0 341.5 -124.5t152.5 -323.5h-246q-6 96 -75.5 157t-172.5 61q-132 0 -211 -92.5t-79 -249.5q0 -153 76 -243.5t202 -90.5q108 0 182 60.5
t82 153.5h246q-16 -197 -160 -322.5t-350 -125.5z" />
    <glyph glyph-name="Ecaron" unicode="&#x11a;" horiz-adv-x="1292" 
d="M994 2262l-238 -362h-230l-238 362h278l76 -108l74 108h278zM1180 236v-236h-1026v1544h1024v-236h-776v-416h710v-236h-710v-420h778z" />
    <glyph glyph-name="ecaron" unicode="&#x11b;" horiz-adv-x="1172" 
d="M932 1688l-238 -362h-230l-238 362h278l76 -108l74 108h278zM860 412h244q-13 -126 -86 -226t-186.5 -155t-245.5 -55q-235 0 -378 157t-146 417q3 255 146.5 410.5t377.5 155.5q235 0 379.5 -156t144.5 -410v-82l-804 2q19 -123 94 -192.5t186 -69.5q103 2 181 58.5
t93 145.5zM324 694l524 -2q-30 92 -99 143t-163 51q-93 0 -161 -50t-101 -142z" />
    <glyph glyph-name="dotlessi" unicode="&#x131;" horiz-adv-x="504" 
d="M374 1094v-1094h-244v1094h244z" />
    <glyph glyph-name="Nacute" unicode="&#x143;" horiz-adv-x="1486" 
d="M1068 2260l-228 -360h-252l184 360h296zM370 1544l714 -1060v1060h248v-1544h-214l-716 1064v-1064h-248v1544h216z" />
    <glyph glyph-name="nacute" unicode="&#x144;" horiz-adv-x="1180" 
d="M893 1756l-228 -360h-252l184 360h296zM360 562v-562h-244v1094h246v-60q115 82 264 82q219 0 334.5 -120.5t115.5 -347.5v-648h-244v632q0 139 -47 195.5t-161 56.5q-125 0 -194.5 -84.5t-69.5 -237.5z" />
    <glyph glyph-name="Ncaron" unicode="&#x147;" horiz-adv-x="1486" 
d="M1102 2262l-238 -362h-230l-238 362h278l76 -108l74 108h278zM370 1544l714 -1060v1060h248v-1544h-214l-716 1064v-1064h-248v1544h216z" />
    <glyph glyph-name="ncaron" unicode="&#x148;" horiz-adv-x="1180" 
d="M970 1763l-238 -362h-230l-238 362h278l76 -108l74 108h278zM360 562v-562h-244v1094h246v-60q115 82 264 82q219 0 334.5 -120.5t115.5 -347.5v-648h-244v632q0 139 -47 195.5t-161 56.5q-125 0 -194.5 -84.5t-69.5 -237.5z" />
    <glyph glyph-name="OE" unicode="&#x152;" horiz-adv-x="2386" 
d="M804 -26q-162 0 -298 58.5t-231.5 162.5t-149 252.5t-53.5 324.5t53.5 324.5t149 252.5t231.5 162.5t298 58.5q288 0 484 -176v150h1024v-236h-776v-416h710v-236h-710v-420h778v-236h-1026v150q-196 -176 -484 -176zM316 772q0 -253 135 -408.5t353 -155.5
q196 0 327 126.5t157 338.5v199q-26 213 -157 339.5t-327 126.5q-219 0 -353.5 -155.5t-134.5 -410.5z" />
    <glyph glyph-name="oe" unicode="&#x153;" horiz-adv-x="2050" 
d="M1710 412h244q-13 -126 -86 -226t-186.5 -155t-245.5 -55q-127 0 -230 48.5t-172 137.5q-149 -190 -412 -190q-238 0 -383.5 157t-148.5 417q3 254 149 410t383 156q259 0 408 -185q70 91 174 140t232 49q235 0 379.5 -156t144.5 -410v-82l-804 2q19 -123 94 -192.5
t186 -69.5q103 2 181 58.5t93 145.5zM1174 694l524 -2q-30 92 -99 143t-163 51q-93 0 -161 -50t-101 -142zM332 542q0 -154 79.5 -246t210.5 -92t210.5 92t79.5 246t-79.5 247t-210.5 93t-210.5 -93t-79.5 -247z" />
    <glyph glyph-name="Sacute" unicode="&#x15a;" horiz-adv-x="1202" 
d="M940 2260l-228 -360h-252l184 360h296zM598 -24q-254 0 -405.5 139t-142.5 365h268q-33 -116 45.5 -190t234.5 -74q139 0 217.5 57.5t78.5 158.5q0 78 -46.5 126t-145.5 70l-246 62q-187 48 -286.5 158t-99.5 270q0 204 148 327t390 123q234 0 374 -138.5t140 -369.5
h-252q5 134 -62 203t-200 69q-136 0 -213 -57.5t-77 -156.5q0 -72 45 -118t141 -70l252 -62q186 -48 286 -160t100 -274q0 -207 -149.5 -332.5t-394.5 -125.5z" />
    <glyph glyph-name="sacute" unicode="&#x15b;" horiz-adv-x="924" 
d="M820 1748l-228 -360h-252l184 360h296zM454 -24q-207 0 -320.5 120.5t-83.5 309.5h236q-23 -92 20.5 -144t143.5 -52q90 0 138 28.5t48 81.5q0 42 -21.5 61t-90.5 35l-164 42q-143 36 -220.5 120t-77.5 202q0 151 112 243.5t294 92.5q201 0 312 -117t90 -307h-240
q18 93 -23.5 142.5t-138.5 49.5q-162 0 -162 -104q0 -66 116 -92l162 -40q296 -84 296 -328q0 -153 -119 -248.5t-307 -95.5z" />
    <glyph glyph-name="Scedilla" unicode="&#x15e;" horiz-adv-x="1202" 
d="M1142 434q0 -206 -148.5 -331t-391.5 -127l-25 -47q10 2 28 2q84 0 138 -46t54 -120q0 -83 -65.5 -139.5t-165.5 -56.5q-106 0 -173 41v155q38 -27 69.5 -35.5t76.5 -8.5q26 0 43 12.5t17 34.5q0 32 -69.5 42t-130.5 -14l-46 135l68 66q-179 44 -278.5 172.5t-92.5 310.5
h268q-33 -116 45.5 -190t234.5 -74q139 0 217.5 57.5t78.5 158.5q0 78 -46.5 126t-145.5 70l-246 62q-187 48 -286.5 158t-99.5 270q0 204 148 327t390 123q234 0 374 -138.5t140 -369.5h-252q5 134 -62 203t-200 69q-136 0 -213 -57.5t-77 -156.5q0 -72 45 -118t141 -70
l252 -62q186 -48 286 -160t100 -274z" />
    <glyph glyph-name="scedilla" unicode="&#x15f;" horiz-adv-x="924" 
d="M880 320q0 -139 -100.5 -232t-264.5 -109l-27 -50q10 2 28 2q84 0 138 -46t54 -120q0 -83 -65.5 -139.5t-165.5 -56.5q-106 0 -173 41v155q38 -27 69.5 -35.5t76.5 -8.5q26 0 43 12.5t17 34.5q0 32 -69.5 42t-130.5 -14l-46 135l62 59q-150 36 -225.5 148t-50.5 268h236
q-23 -92 20.5 -144t143.5 -52q90 0 138 28.5t48 81.5q0 42 -21.5 61t-90.5 35l-164 42q-143 36 -220.5 120t-77.5 202q0 151 112 243.5t294 92.5q201 0 312 -117t90 -307h-240q18 93 -23.5 142.5t-138.5 49.5q-162 0 -162 -104q0 -66 116 -92l162 -40q296 -84 296 -328z" />
    <glyph glyph-name="Scaron" unicode="&#x160;" horiz-adv-x="1202" 
d="M943 2262l-238 -362h-230l-238 362h278l76 -108l74 108h278zM598 -24q-254 0 -405.5 139t-142.5 365h268q-33 -116 45.5 -190t234.5 -74q139 0 217.5 57.5t78.5 158.5q0 78 -46.5 126t-145.5 70l-246 62q-187 48 -286.5 158t-99.5 270q0 204 148 327t390 123
q234 0 374 -138.5t140 -369.5h-252q5 134 -62 203t-200 69q-136 0 -213 -57.5t-77 -156.5q0 -72 45 -118t141 -70l252 -62q186 -48 286 -160t100 -274q0 -207 -149.5 -332.5t-394.5 -125.5z" />
    <glyph glyph-name="scaron" unicode="&#x161;" horiz-adv-x="924" 
d="M832 1730l-238 -362h-230l-238 362h278l76 -108l74 108h278zM454 -24q-207 0 -320.5 120.5t-83.5 309.5h236q-23 -92 20.5 -144t143.5 -52q90 0 138 28.5t48 81.5q0 42 -21.5 61t-90.5 35l-164 42q-143 36 -220.5 120t-77.5 202q0 151 112 243.5t294 92.5q201 0 312 -117
t90 -307h-240q18 93 -23.5 142.5t-138.5 49.5q-162 0 -162 -104q0 -66 116 -92l162 -40q296 -84 296 -328q0 -153 -119 -248.5t-307 -95.5z" />
    <glyph glyph-name="Uring" unicode="&#x16e;" horiz-adv-x="1454" 
d="M720 1904q-108 0 -178.5 70t-70.5 177q0 105 72 175t177 70t177 -70t72 -175q0 -104 -71.5 -175.5t-177.5 -71.5zM720 2076q34 0 49.5 17.5t15.5 57.5q0 35 -18 55t-47 20q-65 0 -65 -75q0 -40 15.5 -57.5t49.5 -17.5zM730 -24q-272 0 -429 152.5t-157 419.5v996h248
v-994q0 -330 338 -330q332 0 332 330v994h248v-996q0 -265 -156 -418.5t-424 -153.5z" />
    <glyph glyph-name="uring" unicode="&#x16f;" horiz-adv-x="1180" 
d="M569 1365q-108 0 -178.5 70t-70.5 177q0 105 72 175t177 70t177 -70t72 -175q0 -104 -71.5 -175.5t-177.5 -71.5zM569 1537q34 0 49.5 17.5t15.5 57.5q0 35 -18 55t-47 20q-65 0 -65 -75q0 -40 15.5 -57.5t49.5 -17.5zM554 -22q-219 0 -334.5 120.5t-115.5 347.5v648h244
v-632q0 -139 47 -195.5t161 -56.5q125 0 194.5 84.5t69.5 237.5v562h244v-1094h-246v60q-115 -82 -264 -82z" />
    <glyph glyph-name="Wcircumflex" unicode="&#x174;" horiz-adv-x="2114" 
d="M1066 2014l-76 -108h-278l238 362h230l238 -362h-278zM1158 1544l350 -1058l322 1058h254l-472 -1544h-196l-360 1090l-358 -1090h-200l-468 1544h256l320 -1062l348 1062h204z" />
    <glyph glyph-name="wcircumflex" unicode="&#x175;" horiz-adv-x="1628" 
d="M810 1515l-76 -108h-278l238 362h230l238 -362h-278zM812 648l-218 -648h-202l-372 1094h254l220 -648l218 648h202l220 -648l220 648h254l-374 -1094h-202z" />
    <glyph glyph-name="Ycircumflex" unicode="&#x176;" horiz-adv-x="1484" 
d="M682 2014l-76 -108h-278l238 362h230l238 -362h-278zM866 652v-654h-248v654l-598 890h290l432 -648l432 648h290z" />
    <glyph glyph-name="ycircumflex" unicode="&#x177;" horiz-adv-x="1088" 
d="M547 1493l-76 -108h-278l238 362h230l238 -362h-278zM276 -410q-111 0 -206 28v216q140 -20 208 -20q50 2 69.5 18.5t40.5 75.5l40 102l-418 1084h258l284 -742l270 742h256l-462 -1262q-93 -242 -340 -242z" />
    <glyph glyph-name="Ydieresis" unicode="&#x178;" horiz-adv-x="1484" 
d="M508 1912q-66 0 -112.5 46.5t-46.5 109.5q0 65 46.5 111.5t112.5 46.5q64 0 111.5 -47t47.5 -111q0 -63 -47.5 -109.5t-111.5 -46.5zM860 1912q-66 0 -112.5 46.5t-46.5 109.5q0 65 46.5 111.5t112.5 46.5q64 0 111.5 -47t47.5 -111q0 -63 -47.5 -109.5t-111.5 -46.5z
M866 652v-654h-248v654l-598 890h290l432 -648l432 648h290z" />
    <glyph glyph-name="Zacute" unicode="&#x179;" horiz-adv-x="1234" 
d="M972 2260l-228 -360h-252l184 360h296zM1174 236v-236h-1124v182l798 1126h-794v236h1130v-180l-798 -1128h788z" />
    <glyph glyph-name="zacute" unicode="&#x17a;" horiz-adv-x="996" 
d="M818 1751l-228 -360h-252l184 360h296zM924 230v-230h-852v172l514 692h-514v230h852v-174l-512 -690h512z" />
    <glyph glyph-name="Zcaron" unicode="&#x17d;" horiz-adv-x="1234" 
d="M960 2262l-238 -362h-230l-238 362h278l76 -108l74 108h278zM1174 236v-236h-1124v182l798 1126h-794v236h1130v-180l-798 -1128h788z" />
    <glyph glyph-name="zcaron" unicode="&#x17e;" horiz-adv-x="996" 
d="M866 1739l-238 -362h-230l-238 362h278l76 -108l74 108h278zM924 230v-230h-852v172l514 692h-514v230h852v-174l-512 -690h512z" />
    <glyph glyph-name="florin" unicode="&#x192;" horiz-adv-x="1212" 
d="M378 -200h-276v236h276q21 0 24 26l98 638h-332v236h366l54 366q18 117 91.5 179.5t190.5 62.5h238v-236h-252q-12 0 -17.5 -4.5t-6.5 -19.5l-54 -348h332v-236h-366l-98 -658q-17 -111 -89.5 -176.5t-178.5 -65.5z" />
    <glyph glyph-name="circumflex" unicode="&#x2c6;" horiz-adv-x="866" 
d="M434 1610l-76 -108h-278l238 362h230l238 -362h-278z" />
    <glyph glyph-name="caron" unicode="&#x2c7;" horiz-adv-x="866" 
d="M786 1864l-238 -362h-230l-238 362h278l76 -108l74 108h278z" />
    <glyph glyph-name="breve" unicode="&#x2d8;" horiz-adv-x="812" 
d="M406 1496q-153 0 -234 104.5t-52 263.5h238q-15 -82 -5.5 -108t53.5 -26t53.5 26t-5.5 108h238q29 -159 -52 -263.5t-234 -104.5z" />
    <glyph glyph-name="dotaccent" unicode="&#x2d9;" horiz-adv-x="480" 
d="M240 1548q-66 0 -113 45t-47 111t47.5 113t112.5 47q66 0 113 -47.5t47 -112.5q0 -64 -47.5 -110t-112.5 -46z" />
    <glyph glyph-name="ring" unicode="&#x2da;" horiz-adv-x="696" 
d="M348 1504q-120 0 -197 77t-77 195q0 115 79 192.5t195 77.5t195 -77.5t79 -192.5q0 -114 -79 -193t-195 -79zM348 1732q38 0 38 44q0 21 -10.5 32.5t-27.5 11.5q-38 0 -38 -44t38 -44z" />
    <glyph glyph-name="ogonek" unicode="&#x2db;" horiz-adv-x="500" 
d="M290 -262q-86 0 -143 54t-57 138q0 68 45 127t123 93h140l32 -124q-60 -16 -92 -48q14 4 88 26v-230q-55 -36 -136 -36z" />
    <glyph glyph-name="tilde" unicode="&#x2dc;" horiz-adv-x="822" 
d="M326 1542h-234q-26 143 31 236.5t169 93.5q87 0 174 -72q31 -25 44 -28q-2 8 -2 34q-1 10 -2 32.5t-2 33.5h232q20 -152 -38 -241t-178 -89q-86 0 -184 76q-8 8 -16 12q-5 -35 6 -88z" />
    <glyph glyph-name="hungarumlaut" unicode="&#x2dd;" horiz-adv-x="912" 
d="M774 1862l-284 -360h-410l178 360h516z" />
    <glyph glyph-name="gravecomb" unicode="&#x300;" 
d="M-256 1864l176 -362h-248l-220 362h292z" />
    <glyph glyph-name="acutecomb" unicode="&#x301;" 
d="M408 2260l-228 -360h-252l184 360h296z" />
    <glyph glyph-name="uni0302" unicode="&#x302;" 
d="M-184 2014l-76 -108h-278l238 362h230l238 -362h-278z" />
    <glyph glyph-name="tildecomb" unicode="&#x303;" 
d="M-496 1542h-234q-26 143 31 236.5t169 93.5q87 0 174 -72q31 -25 44 -28q-2 8 -2 34q-1 10 -2 32.5t-2 33.5h232q20 -152 -38 -241t-178 -89q-86 0 -184 76q-8 8 -16 12q-5 -35 6 -88z" />
    <glyph glyph-name="uni0304" unicode="&#x304;" 
d="M-120 1858v-234h-584v234h584z" />
    <glyph glyph-name="uni0306" unicode="&#x306;" 
d="M-406 1496q-153 0 -234 104.5t-52 263.5h238q-15 -82 -5.5 -108t53.5 -26t53.5 26t-5.5 108h238q29 -159 -52 -263.5t-234 -104.5z" />
    <glyph glyph-name="uni0307" unicode="&#x307;" 
d="M-240 1548q-66 0 -113 45t-47 111t47.5 113t112.5 47q66 0 113 -47.5t47 -112.5q0 -64 -47.5 -110t-112.5 -46z" />
    <glyph glyph-name="uni0308" unicode="&#x308;" 
d="M-370 1912q-66 0 -112.5 46.5t-46.5 109.5q0 65 46.5 111.5t112.5 46.5q64 0 111.5 -47t47.5 -111q0 -63 -47.5 -109.5t-111.5 -46.5zM-18 1912q-66 0 -112.5 46.5t-46.5 109.5q0 65 46.5 111.5t112.5 46.5q64 0 111.5 -47t47.5 -111q0 -63 -47.5 -109.5t-111.5 -46.5z
" />
    <glyph glyph-name="uni030A" unicode="&#x30a;" 
d="M-348 1529q-108 0 -178.5 70t-70.5 177q0 105 72 175t177 70t177 -70t72 -175q0 -104 -71.5 -175.5t-177.5 -71.5zM-348 1701q34 0 49.5 17.5t15.5 57.5q0 35 -18 55t-47 20q-65 0 -65 -75q0 -40 15.5 -57.5t49.5 -17.5z" />
    <glyph glyph-name="uni030B" unicode="&#x30b;" 
d="M-138 1862l-284 -360h-410l178 360h516z" />
    <glyph glyph-name="uni030C" unicode="&#x30c;" 
d="M236 2262l-238 -362h-230l-238 362h278l76 -108l74 108h278z" />
    <glyph glyph-name="uni0312" unicode="&#x312;" 
d="M-236 1474q-75 0 -120.5 51.5t-45.5 134.5t43 147.5t112.5 89.5t142.5 1v-184q24 -33 24 -80q0 -66 -45 -113t-111 -47z" />
    <glyph glyph-name="uni0326" unicode="&#x326;" 
d="M-378 -306v184q-24 33 -24 80q0 66 45 113t111 47q75 0 120.5 -51.5t45.5 -134.5t-43 -147.5t-112.5 -89.5t-142.5 -1z" />
    <glyph glyph-name="uni0327" unicode="&#x327;" 
d="M238 -431q-106 0 -173 41v155q38 -27 69.5 -35.5t76.5 -8.5q26 0 43 12.5t17 34.5q0 32 -69.5 42t-130.5 -14l-46 135l156 150h101v-90l-33 -62q10 2 28 2q84 0 138 -46t54 -120q0 -83 -65.5 -139.5t-165.5 -56.5z" />
    <glyph glyph-name="uni0335" unicode="&#x335;" 
d="M-528 1314v-226h-686v226h686z" />
    <glyph glyph-name="uni0337" unicode="&#x337;" 
d="M-30 1078v-248l-506 -240v250z" />
    <glyph glyph-name="uni0338" unicode="&#x338;" 
d="M-80 1190l-796 -1268h-268l794 1268h270z" />
    <glyph glyph-name="Wgrave" unicode="&#x1e80;" horiz-adv-x="2114" 
d="M994 2265l176 -362h-248l-220 362h292zM1158 1544l350 -1058l322 1058h254l-472 -1544h-196l-360 1090l-358 -1090h-200l-468 1544h256l320 -1062l348 1062h204z" />
    <glyph glyph-name="wgrave" unicode="&#x1e81;" horiz-adv-x="1628" 
d="M768 1797l176 -362h-248l-220 362h292zM812 648l-218 -648h-202l-372 1094h254l220 -648l218 648h202l220 -648l220 648h254l-374 -1094h-202z" />
    <glyph glyph-name="Wacute" unicode="&#x1e82;" horiz-adv-x="2114" 
d="M1400 2260l-228 -360h-252l184 360h296zM1158 1544l350 -1058l322 1058h254l-472 -1544h-196l-360 1090l-358 -1090h-200l-468 1544h256l320 -1062l348 1062h204z" />
    <glyph glyph-name="wacute" unicode="&#x1e83;" horiz-adv-x="1628" 
d="M1164 1759l-228 -360h-252l184 360h296zM812 648l-218 -648h-202l-372 1094h254l220 -648l218 648h202l220 -648l220 648h254l-374 -1094h-202z" />
    <glyph glyph-name="Wdieresis" unicode="&#x1e84;" horiz-adv-x="2114" 
d="M886 1912q-66 0 -112.5 46.5t-46.5 109.5q0 65 46.5 111.5t112.5 46.5q64 0 111.5 -47t47.5 -111q0 -63 -47.5 -109.5t-111.5 -46.5zM1238 1912q-66 0 -112.5 46.5t-46.5 109.5q0 65 46.5 111.5t112.5 46.5q64 0 111.5 -47t47.5 -111q0 -63 -47.5 -109.5t-111.5 -46.5z
M1158 1544l350 -1058l322 1058h254l-472 -1544h-196l-360 1090l-358 -1090h-200l-468 1544h256l320 -1062l348 1062h204z" />
    <glyph glyph-name="wdieresis" unicode="&#x1e85;" horiz-adv-x="1628" 
d="M631 1428q-66 0 -112.5 46.5t-46.5 109.5q0 65 46.5 111.5t112.5 46.5q64 0 111.5 -47t47.5 -111q0 -63 -47.5 -109.5t-111.5 -46.5zM983 1428q-66 0 -112.5 46.5t-46.5 109.5q0 65 46.5 111.5t112.5 46.5q64 0 111.5 -47t47.5 -111q0 -63 -47.5 -109.5t-111.5 -46.5z
M812 648l-218 -648h-202l-372 1094h254l220 -648l218 648h202l220 -648l220 648h254l-374 -1094h-202z" />
    <glyph glyph-name="Ygrave" unicode="&#x1ef2;" horiz-adv-x="1484" 
d="M676 2262l176 -362h-248l-220 362h292zM866 652v-654h-248v654l-598 890h290l432 -648l432 648h290z" />
    <glyph glyph-name="ygrave" unicode="&#x1ef3;" horiz-adv-x="1088" 
d="M495 1750l176 -362h-248l-220 362h292zM276 -410q-111 0 -206 28v216q140 -20 208 -20q50 2 69.5 18.5t40.5 75.5l40 102l-418 1084h258l284 -742l270 742h256l-462 -1262q-93 -242 -340 -242z" />
    <glyph glyph-name="endash" unicode="&#x2013;" horiz-adv-x="2016" 
d="M140 394v272h1736v-272h-1736z" />
    <glyph glyph-name="emdash" unicode="&#x2014;" horiz-adv-x="2512" 
d="M140 394v272h2232v-272h-2232z" />
    <glyph glyph-name="quoteleft" unicode="&#x2018;" horiz-adv-x="606" 
d="M478 1092q0 -75 -46.5 -122.5t-121.5 -47.5q-82 0 -132 60.5t-50 159.5q0 147 85 246t223 114v-110q-75 -14 -119.5 -54t-44.5 -100q24 12 58 12q64 0 106 -43t42 -115z" />
    <glyph glyph-name="quoteright" unicode="&#x2019;" horiz-adv-x="606" 
d="M478 1282q0 -147 -85 -246t-223 -114v110q75 14 119.5 54t44.5 100q-24 -12 -58 -12q-64 0 -106 43t-42 115q0 75 46.5 122.5t121.5 47.5q82 0 132 -60.5t50 -159.5z" />
    <glyph glyph-name="quotesinglbase" unicode="&#x201a;" horiz-adv-x="606" 
d="M478 76q0 -147 -85 -246t-223 -114v110q75 14 119.5 54t44.5 100q-24 -12 -58 -12q-64 0 -106 43t-42 115q0 75 46.5 122.5t121.5 47.5q82 0 132 -60.5t50 -159.5z" />
    <glyph glyph-name="quotedblleft" unicode="&#x201c;" horiz-adv-x="1046" 
d="M478 1092q0 -75 -46.5 -122.5t-121.5 -47.5q-82 0 -132 60.5t-50 159.5q0 147 85 246t223 114v-110q-75 -14 -119.5 -54t-44.5 -100q24 12 58 12q64 0 106 -43t42 -115zM918 1092q0 -75 -46.5 -122.5t-121.5 -47.5q-82 0 -132 60.5t-50 159.5q0 147 85 246t223 114v-110
q-75 -14 -119.5 -54t-44.5 -100q24 12 58 12q64 0 106 -43t42 -115z" />
    <glyph glyph-name="quotedblright" unicode="&#x201d;" horiz-adv-x="1046" 
d="M478 1282q0 -147 -85 -246t-223 -114v110q75 14 119.5 54t44.5 100q-24 -12 -58 -12q-64 0 -106 43t-42 115q0 75 46.5 122.5t121.5 47.5q82 0 132 -60.5t50 -159.5zM918 1282q0 -147 -85 -246t-223 -114v110q75 14 119.5 54t44.5 100q-24 -12 -58 -12q-64 0 -106 43
t-42 115q0 75 46.5 122.5t121.5 47.5q82 0 132 -60.5t50 -159.5z" />
    <glyph glyph-name="quotedblbase" unicode="&#x201e;" horiz-adv-x="1046" 
d="M478 76q0 -147 -85 -246t-223 -114v110q75 14 119.5 54t44.5 100q-24 -12 -58 -12q-64 0 -106 43t-42 115q0 75 46.5 122.5t121.5 47.5q82 0 132 -60.5t50 -159.5zM918 76q0 -147 -85 -246t-223 -114v110q75 14 119.5 54t44.5 100q-24 -12 -58 -12q-64 0 -106 43t-42 115
q0 75 46.5 122.5t121.5 47.5q82 0 132 -60.5t50 -159.5z" />
    <glyph glyph-name="dagger" unicode="&#x2020;" horiz-adv-x="692" 
d="M462 1124v-606h-232v606h-190v224h190v196h232v-196h190v-224h-190z" />
    <glyph glyph-name="daggerdbl" unicode="&#x2021;" horiz-adv-x="694" 
d="M462 774v-256h-232v256h-188v224h188v66h-190v226h190v254h232v-254h190v-226h-190v-66h192v-224h-192z" />
    <glyph glyph-name="bullet" unicode="&#x2022;" horiz-adv-x="938" 
d="M472 204q-140 0 -242 99t-102 237q0 139 102 240.5t242 101.5q138 0 238 -102t100 -240q0 -137 -101 -236.5t-237 -99.5z" />
    <glyph glyph-name="ellipsis" unicode="&#x2026;" horiz-adv-x="1696" 
d="M308 -32q-76 0 -130 53t-54 127q0 75 54 128.5t130 53.5q74 0 129 -54t55 -128q0 -73 -55 -126.5t-129 -53.5zM848 -32q-76 0 -130 53t-54 127q0 75 54 128.5t130 53.5q74 0 129 -54t55 -128q0 -73 -55 -126.5t-129 -53.5zM1388 -32q-76 0 -130 53t-54 127q0 75 54 128.5
t130 53.5q74 0 129 -54t55 -128q0 -73 -55 -126.5t-129 -53.5z" />
    <glyph glyph-name="perthousand" unicode="&#x2030;" horiz-adv-x="2699" 
d="M466 748q-180 0 -297 117t-117 295t117.5 294t296.5 116t296.5 -116t117.5 -294t-117 -295t-297 -117zM1652 1544l-1196 -1544h-294l1194 1544h296zM466 982q78 0 126 48.5t48 129.5t-48 129.5t-126 48.5t-126 -48.5t-48 -129.5t48 -129.5t126 -48.5zM1350 -26
q-180 0 -297 117t-117 295t117.5 294t296.5 116t296.5 -116t117.5 -294t-117 -295t-297 -117zM2233 -26q-179 0 -296.5 117t-117.5 295t117.5 294t296.5 116t296.5 -116t117.5 -294t-117.5 -295t-296.5 -117zM1350 208q78 0 126 48.5t48 129.5t-48 129.5t-126 48.5
t-126 -48.5t-48 -129.5t48 -129.5t126 -48.5zM2233 208q78 0 126 48.5t48 129.5t-48 129.5t-126 48.5t-126 -48.5t-48 -129.5t48 -129.5t126 -48.5z" />
    <glyph glyph-name="minute" unicode="&#x2032;" horiz-adv-x="446" 
d="M364 1412l-36 -416h-212l-38 416q-6 66 36.5 112t107.5 46q67 0 107.5 -45.5t34.5 -112.5z" />
    <glyph glyph-name="guilsinglleft" unicode="&#x2039;" horiz-adv-x="1000" 
d="M518 -6l-438 500l438 500h402l-438 -500l438 -500h-402z" />
    <glyph glyph-name="guilsinglright" unicode="&#x203a;" horiz-adv-x="1000" 
d="M482 -6h-402l438 500l-438 500h402l438 -500z" />
    <glyph glyph-name="fraction" unicode="&#x2044;" horiz-adv-x="470" 
d="M880 1544l-1008 -1544h-282l1006 1544h284z" />
    <glyph glyph-name="Euro" unicode="&#x20ac;" horiz-adv-x="1342" 
d="M944 -24q-285 0 -495 148.5t-283 401.5h-178v234h146v36h-146v232h180q75 249 283.5 393.5t494.5 144.5q106 0 206.5 -19t145.5 -49v-208l-54 -26q-19 24 -114.5 44t-187.5 20q-180 0 -312.5 -78t-195.5 -222h608v-232h-660v-36h660v-234h-612q63 -148 198 -229t320 -81
q90 0 177 18.5t123 45.5l50 -28v-214q-67 -28 -164.5 -45t-189.5 -17z" />
    <glyph glyph-name="uni2116" unicode="&#x2116;" horiz-adv-x="2554" 
d="M1914 492q-150 0 -276.5 72.5t-200 198.5t-73.5 275q0 148 73 270t199 192t278 70q153 0 279 -69.5t198.5 -191.5t72.5 -271q0 -152 -73 -277.5t-199 -197t-278 -71.5zM154 0v1544h216l714 -1060v1060h248v-1544h-214l-716 1064v-1064h-248zM1914 1334q-130 0 -217 -85
t-87 -211q0 -129 89 -218.5t215 -89.5q131 0 217.5 87.5t86.5 220.5q0 128 -86 212t-218 84zM1424 486h980v-236h-980v236z" />
    <glyph glyph-name="trademark" unicode="&#x2122;" horiz-adv-x="1316" 
d="M240 1370h-188v104h488v-104h-188v-468h-112v468zM710 902h-104v572h104l192 -462l190 462h104v-572h-104v350l-146 -350h-90l-146 346v-346z" />
    <glyph glyph-name="estimated" unicode="&#x212e;" horiz-adv-x="1710" 
d="M876 -18q-222 0 -394.5 99t-267 277.5t-94.5 409.5q0 167 55 311.5t151.5 246.5t233.5 160t296 58q330 0 532 -197.5t202 -522.5q0 -148 -18 -180h-1100v-252q143 -180 408 -180q150 0 273 79t163 203l218 -80q-71 -197 -249.5 -314.5t-408.5 -117.5zM472 1124v-258h766
v292q-64 76 -163 117t-219 41q-118 0 -216.5 -49t-167.5 -143z" />
    <glyph glyph-name="arrowleft" unicode="&#x2190;" horiz-adv-x="1772" 
d="M476 432l398 -392l-170 -168l-692 678l692 678l170 -166l-398 -394h1252v-236h-1252z" />
    <glyph glyph-name="arrowup" unicode="&#x2191;" horiz-adv-x="1424" 
d="M832 1122v-1122h-240v1122l-408 -386l-172 168l700 670l700 -670l-172 -168z" />
    <glyph glyph-name="arrowright" unicode="&#x2192;" horiz-adv-x="1772" 
d="M1068 1326l692 -680l-692 -678l-170 168l398 392h-1252v238h1252l-398 392z" />
    <glyph glyph-name="arrowdown" unicode="&#x2193;" horiz-adv-x="1404" 
d="M1222 622l170 -168l-690 -680l-690 680l170 168l400 -392v1314h240v-1314z" />
    <glyph glyph-name="arrowboth" unicode="&#x2194;" horiz-adv-x="2044" 
d="M482 444l102 -104v-344l-572 568l568 568v-348l-98 -100l194 2v2l886 -2l-98 100v346l568 -566l-566 -568v348l96 100l-880 -2v2z" />
    <glyph glyph-name="arrowupdn" unicode="&#x2195;" horiz-adv-x="1024" 
d="M734 226h356l-580 -562l-574 562h348l104 -98l-2 268v520l2 274l-104 -98h-350l576 556l580 -556h-356l-102 96v-1058z" />
    <glyph glyph-name="uni2196" unicode="&#x2196;" horiz-adv-x="1660" 
d="M456 1306l1192 -1170l-170 -168l-1192 1172l-2 -554h-240v958h976v-236z" />
    <glyph glyph-name="uni2197" unicode="&#x2197;" horiz-adv-x="1660" 
d="M1374 586v554l-1192 -1172l-170 168l1192 1170h-564v238h976v-958h-242z" />
    <glyph glyph-name="uni2198" unicode="&#x2198;" horiz-adv-x="1656" 
d="M1612 964v-960h-976v236l564 2l-1188 1166l170 168l1188 -1168l2 556h240z" />
    <glyph glyph-name="uni2199" unicode="&#x2199;" horiz-adv-x="1662" 
d="M1020 234v-236h-976v960h242v-556l1194 1174l170 -168l-1194 -1172z" />
    <glyph glyph-name="partialdiff" unicode="&#x2202;" horiz-adv-x="1320" 
d="M310 1568h354q299 -233 431.5 -461.5t132.5 -510.5q0 -275 -160 -447.5t-416 -172.5q-157 0 -285.5 75t-201.5 205.5t-73 289.5q0 155 75.5 285.5t206 205.5t286.5 75q86 0 164 -24q-75 100 -187 202t-327 278zM656 210q144 0 235 95.5t91 248.5q0 144 -88 234t-226 90
q-144 0 -237 -93.5t-93 -240.5q0 -148 89 -241t229 -93z" />
    <glyph glyph-name="emptyset" unicode="&#x2205;" horiz-adv-x="1848" 
d="M922 -24q-142 0 -272 48t-234 138l-176 -158l-160 166l190 170q-114 189 -114 432q0 226 98.5 408t274 285t393.5 103q298 0 508 -186l178 164l160 -170l-192 -174q114 -192 114 -430q0 -169 -58 -317t-159 -253t-244 -165.5t-307 -60.5zM458 512l786 706
q-138 110 -322 110q-224 0 -370 -157t-146 -399q0 -141 52 -260zM922 218q225 0 371.5 156.5t146.5 397.5q0 142 -52 258l-786 -704q136 -108 320 -108z" />
    <glyph glyph-name="summation" unicode="&#x2211;" horiz-adv-x="1264" 
d="M1164 236v-236h-1064v204l432 564l-432 574v202h1064v-236h-738l410 -544l-406 -528h734z" />
    <glyph glyph-name="minus" unicode="&#x2212;" horiz-adv-x="1472" 
d="M1312 856v-238h-1152v238h1152z" />
    <glyph glyph-name="radical" unicode="&#x221a;" horiz-adv-x="1506" 
d="M1162 1308l-510 -1308h-192l-460 1092h264l288 -698l438 1150h476v-236h-304z" />
    <glyph glyph-name="infinity" unicode="&#x221e;" horiz-adv-x="1756" 
d="M494 222q-178 0 -296 114t-118 288q0 175 117 287.5t297 112.5q219 0 384 -206q165 206 384 206q180 0 297 -112.5t117 -287.5q0 -174 -118 -288t-296 -114q-219 0 -384 206q-165 -206 -384 -206zM504 458q115 0 222 166q-107 164 -222 164q-84 0 -130 -43.5t-46 -120.5
t47 -121.5t129 -44.5zM1252 458q82 0 129 44.5t47 121.5t-46 120.5t-130 43.5q-115 0 -222 -164q107 -166 222 -166z" />
    <glyph glyph-name="integral" unicode="&#x222b;" horiz-adv-x="832" 
d="M282 -28h-222v234h222q3 0 7.5 4t4.5 6v1104q0 106 74.5 179t181.5 73h222v-232h-222q-4 0 -8 -4.5t-4 -7.5v-1104q0 -106 -74.5 -179t-181.5 -73z" />
    <glyph glyph-name="approxequal" unicode="&#x2248;" horiz-adv-x="1472" 
d="M1000 256q-59 0 -127.5 22t-106 41.5t-104.5 58.5q-51 31 -76 45t-58 26.5t-58 12.5q-47 0 -60 -35t-12 -153h-234q-13 107 12 196t84 148h-96q-24 182 63 303t243 121q76 0 149.5 -31t160.5 -85q122 -66 164 -80q32 -10 58 -10q45 0 60 38.5t12 153.5h234
q13 -106 -11.5 -195.5t-82.5 -148.5h94q23 -186 -64 -307t-244 -121zM1002 492q38 0 54.5 25.5t17.5 90.5q-44 -8 -74 -8q-21 0 -41.5 2t-43 8t-38 9.5t-40.5 14t-35.5 14.5t-38.5 18.5t-33.5 17t-36 19t-31.5 17.5q-72 45 -114.5 65.5t-77.5 20.5q-40 0 -55.5 -24
t-16.5 -92q44 8 72 8q76 0 149.5 -31t160.5 -85q122 -66 164 -80q32 -10 58 -10z" />
    <glyph glyph-name="notequal" unicode="&#x2260;" horiz-adv-x="1472" 
d="M694 336l-164 -298h-268l164 298h-266v236h398l86 160h-484v238h618l164 298h268l-164 -298h266v-238h-398l-86 -160h484v-236h-618z" />
    <glyph glyph-name="lessequal" unicode="&#x2264;" horiz-adv-x="1472" 
d="M1312 265l-1152 408v198l1152 406v-252l-730 -254l730 -252v-254zM160 236h1152v-236h-1152v236z" />
    <glyph glyph-name="greaterequal" unicode="&#x2265;" horiz-adv-x="1472" 
d="M1312 871v-198l-1152 -408v254l730 252l-730 254v252zM160 0v236h1152v-236h-1152z" />
    <glyph glyph-name="filledbox" unicode="&#x25a0;" horiz-adv-x="1660" 
d="M1616 1544v-1544h-1572v1544h1572z" />
    <glyph glyph-name="uni25A1" unicode="&#x25a1;" horiz-adv-x="1660" 
d="M1616 1544v-1544h-1572v1544h1572zM1372 1304h-1084v-1064h1084v1064z" />
    <glyph glyph-name="triagup" unicode="&#x25b2;" horiz-adv-x="1932" 
d="M966 1616l980 -1616h-1960z" />
    <glyph glyph-name="uni25B3" unicode="&#x25b3;" horiz-adv-x="1936" 
d="M968 1620l982 -1620h-1964zM1502 246l-534 880l-534 -880h1068z" />
    <glyph glyph-name="circle" unicode="&#x25cb;" horiz-adv-x="1804" 
d="M902 -114q-175 0 -333.5 66.5t-273.5 179.5t-183 269.5t-68 328.5t68 328t183.5 268.5t274 179t332.5 66.5t332.5 -66.5t274 -179t183.5 -268.5t68 -328t-68 -328t-183.5 -269t-274 -180t-332.5 -67zM902 142q162 0 300 79.5t218 215t80 293.5q0 118 -47.5 226.5
t-128 187t-191 125.5t-231.5 47q-162 0 -300 -79t-218 -214t-80 -293t80 -293.5t218 -215t300 -79.5z" />
    <glyph glyph-name="uni25CF" unicode="&#x25cf;" horiz-adv-x="1804" 
d="M902 -114q-175 0 -333.5 66.5t-273.5 179.5t-183 269.5t-68 328.5t68 328t183.5 268.5t274 179t332.5 66.5t332.5 -66.5t274 -179t183.5 -268.5t68 -328t-68 -328t-183.5 -269t-274 -180t-332.5 -67z" />
    <glyph glyph-name="uni2713" unicode="&#x2713;" horiz-adv-x="1512" 
d="M1162 1154l198 -154l-868 -1024l-540 568l176 176l350 -370z" />
    <glyph glyph-name="uniF8FF" unicode="&#xf8ff;" horiz-adv-x="2262" 
d="M1148 80q-151 0 -288.5 59.5t-237 160t-158.5 238.5t-59 289t59 289t159 237.5t238 158.5t289 59t288.5 -59t237.5 -159t159 -237.5t59 -288.5q0 -203 -99.5 -375t-271 -272t-375.5 -100zM1150 168q178 0 329 88t239 239t88 329q0 134 -52 255.5t-139.5 209.5t-208 140.5
t-253.5 53.5q-134 0 -256 -52t-210 -139.5t-140 -209t-52 -254.5q0 -134 51.5 -256t139 -210.5t209 -141t255.5 -52.5zM939 454h-2l32 30q19 18 33 58q44 120 60 170q35 101 77 175v3q-2 -4 -8 -9.5t-7 -7.5q-13 -15 -14 -16q-30 -46 -41 -76q-3 -8 -11 -8q-132 4 -235 89
q-52 50 -79 74q-2 2 -7.5 10t-9.5 12q12 -2 15 -5q69 -27 131 -36q50 -5 96 3q53 12 63 16q3 0 6.5 1.5t7.5 3.5t7 3q-7 4 -21.5 11t-22.5 11t-18.5 12t-17.5 17h25q53 0 100 25q82 51 182 81q31 10 77 15q4 0 28.5 1t29.5 0q72 -2 118 -44q6 -6 12.5 -13.5t14 -16.5
t11.5 -14q-1 -1 -1 -2l-7 2q-61 23 -111 5t-83 -71q-15 -28 -33 -74q-10 -23 -31 -73t-32 -76q-44 -85 -87 -135q-38 -46 -87 -77q-59 -45 -155 -73q-2 0 -4 -1h-1zM1877 -72q-21 0 -35.5 14.5t-14.5 35.5t14.5 35.5t35.5 14.5t35.5 -14.5t14.5 -35.5t-14.5 -35.5
t-35.5 -14.5zM1877 -57q15 0 25 10t10 25t-10 25t-25 10t-25 -10t-10 -25t10 -25t25 -10zM1871 -44h-11v46h18q17 0 17 -14q0 -8 -7 -13l10 -19h-13l-8 15h-6v-15zM1885 -13q0 3 -7 3h-7v-8h7q7 0 7 5zM944 -33q0 -9 7 -15t18 -6q10 0 17 6t7 15q0 8 -7 14t-17 6t-17.5 -6
t-7.5 -14zM590 -121q0 62 -49 85q-24 12 -58 12h-79v-195h78q68 0 95 46q13 20 13 52zM544 -121q0 -42 -29 -56q-13 -6 -35 -6h-29v124h29q42 0 57 -27q7 -13 7 -35zM653 -156h113v11q0 35 -23 56q-21 18 -56 18q-50 0 -70 -36q-10 -18 -10 -39q0 -47 39 -66q18 -9 44 -9
q42 0 61 21q10 8 13 23l-42 3q-4 -12 -18 -15q-4 -2 -14 -2q-22 0 -33 17q-4 10 -4 18zM823 -174l-45 -2q6 -45 75 -45q46 0 64 23q10 12 10 25q0 31 -48 39l-30 5q-21 4 -21 15q0 15 25 15q24 0 28 -18l42 3q-6 43 -71 43q-43 0 -61 -21q-9 -10 -9 -24q0 -33 48 -42l29 -5
q21 -3 21 -15q0 -14 -27 -14q-25 0 -30 18zM1059 -231l-42 -4q10 -41 76 -41q49 0 70 25q11 13 11 31v147h-46v-24h-1q-8 15 -25 22q-8 4 -23 4q-40 0 -58 -33q-9 -17 -9 -41q0 -47 33 -64q14 -7 34 -7q24 0 38 12q7 7 9 11h2v-26q0 -28 -34 -28q-20 0 -28 8zM1201 -219h45
v85q0 18 15 26q10 4 17 4q29 0 29 -29v-86h46v93q0 35 -27 48q-11 7 -30 7q-37 0 -49 -28h-1v26h-45v-146zM1411 -212q19 -9 44 -9q50 0 71 35q10 17 10 40q0 46 -38 66q-18 9 -43 9q-52 0 -72 -36q-10 -18 -10 -39q0 -45 38 -66zM1734 -216q10 -5 28 -5q23 0 37 11
q6 4 11 12h1v-21h44v99q0 26 -21 37q-21 12 -49 12q-40 0 -60 -20q-9 -10 -13 -23l43 -3q5 17 29 17q25 0 25 -19v-1q0 -9 -17 -10q-11 -2 -23 -3q-28 -2 -43 -11q-19 -11 -19 -34q0 -28 27 -38zM946 -219h46v146h-46v-146zM1596 -219h52l57 146h-48l-34 -104h-2l-35 104
h-48zM722 -131h-69q2 17 16 25q6 5 19 5q22 0 30 -17q2 -5 4 -13zM1474 -184q-8 -6 -19 -6q-23 0 -31 21q-4 9 -4 23q0 28 16 38q7 6 19 6q21 0 31 -21q4 -14 4 -23q0 -27 -16 -38zM1128 -145q0 -41 -34 -41q-23 0 -31 19q-4 8 -4 22q0 27 16 37q8 5 19 5q22 0 30 -20
q4 -8 4 -22zM1793 -190q-7 -3 -18 -3q-24 0 -24 16q0 11 12 16q5 2 15 4q26 3 31 6v-15q0 -16 -16 -24z" />
    <glyph glyph-name="_Designova" horiz-adv-x="2122" 
d="M1059 -161q-174 0 -333 68.5t-274 184t-183.5 275t-68.5 333.5q1 140 45 271t123.5 236.5t185 185t236.5 123t271 43.5q175 0 334 -68t274.5 -183t184 -274t68.5 -334t-68.5 -334.5t-184 -275t-275.5 -183.5t-335 -68zM1061 -59q154 0 294 60t241.5 161.5t161.5 241.5
t60 294q0 207 -101 381.5t-274.5 276t-379.5 101.5q-154 0 -294.5 -59.5t-242.5 -161t-162 -241.5t-60 -295t59.5 -295.5t161 -242t241.5 -161.5t295 -60zM817 271h-4l37 31q22 20 41 69q12 35 35.5 101.5t33.5 96.5q41 117 86 200v2q-11 -13 -14 -18q-11 -8 -15 -21
q-34 -42 -50 -87q-6 -7 -13 -7q-157 8 -271 104q-13 13 -43.5 41.5t-44.5 42.5q-8 10 -22 24q12 0 17 -5q73 -29 154 -41q60 -7 108 4q32 5 71 18q6 0 15 4.5l11 5.5q-8 5 -24 12.5t-25.5 12.5t-21.5 14t-21 19h28q52 0 115 27q107 68 211 98q47 13 88 13q9 0 33 2t35 1
q88 -5 136 -52q7 -6 14.5 -14.5t16 -19t13.5 -16.5v-2q-4 2 -10 2q-70 27 -127 6.5t-96 -79.5q-9 -16 -23 -50t-16 -39q-11 -23 -35 -81.5t-39 -88.5q-49 -99 -99 -159q-23 -31 -98 -88q-73 -52 -181 -83h-6z" />
    <glyph glyph-name="_VendorID" horiz-adv-x="1699" 
d="M1499 1577v-1582h-1299v1582h1299zM1429 1508h-1159v-1445h1159v1445zM617 832q-81 0 -138 56t-57 136q0 73 62 164l129 189h86l-113 -162q10 2 31 2q83 0 137 -55t54 -138q0 -81 -55 -136.5t-136 -55.5zM1082 832q-81 0 -137.5 55.5t-56.5 136.5q0 43 13 79t46 85
l129 189h88l-116 -162q10 2 34 2q81 0 136 -55.5t55 -137.5q0 -81 -55.5 -136.5t-135.5 -55.5zM617 900q52 0 86 35t34 89t-33.5 88t-86.5 34q-55 0 -88.5 -33t-33.5 -89q0 -55 34 -89.5t88 -34.5zM1082 900q52 0 84.5 35t32.5 89t-33 88t-84 34q-55 0 -89.5 -34t-34.5 -88
t34.5 -89t89.5 -35zM617 201q-81 0 -138 57t-57 138q0 79 62 166l129 183h86l-112 -160q12 4 30 4q83 0 137 -55.5t54 -137.5t-55.5 -138.5t-135.5 -56.5zM1082 201q-81 0 -137.5 56.5t-56.5 138.5q0 45 12.5 81.5t46.5 84.5l129 183h88l-115 -160q12 4 33 4q81 0 136 -55.5
t55 -137.5t-55.5 -138.5t-135.5 -56.5zM617 271q53 0 86.5 34.5t33.5 90.5q0 52 -33.5 86t-86.5 34q-54 0 -88 -33.5t-34 -86.5q0 -57 34 -91t88 -34zM1082 271q52 0 84.5 34.5t32.5 90.5q0 53 -32.5 86.5t-84.5 33.5q-55 0 -89.5 -33.5t-34.5 -86.5q0 -56 34.5 -90.5
t89.5 -34.5zM897 -104v-58h-19v58h-7v12h7v10q0 21 26 21h8v-15q-15 2 -15 -7v-9h15v-12h-15zM234 -165q-30 0 -30 38q0 18 10 28t24 10q10 0 17 -4l5 -7v35h17v-97h-17v12l-5 -9q-10 -6 -21 -6zM448 -85q-11 0 -11 10t11 10t11 -10t-11 -10zM1120 -150v-13h-11
q-20 0 -20 13v46h-11v12h11v17h19v-17h13v-12h-13v-38q2 -13 12 -8zM326 -165q-36 0 -36 38q0 17 10 27.5t26 10.5t25.5 -10t9.5 -26q0 -3 -2 -7h-50q2 -18 17 -18q14 0 16 12h17q-6 -27 -33 -27zM397 -165q-27 0 -31 24h19q4 -13 12 -13q12 0 12 10q0 5 -16 12
q-24 7 -24 21q0 22 28 22t28 -22h-18q-3 9 -10 9q-9 0 -9 -8q0 -6 16 -12q22 -4 22 -20q0 -23 -29 -23zM507 -191q-35 0 -35 24v2h18v-2q0 -10 17 -10q16 0 19 17v10l-5 -9q-15 -3 -19 -3q-32 0 -32 35q0 18 10 28t25 10q11 0 16 -4l5 -7v10h19v-54q0 -11 -2 -15
q0 -15 -10 -23.5t-26 -8.5zM579 -130v-32h-19v72h19v-13l5 10q9 4 17 4q22 0 27 -21q1 -4 1 -12v-40h-20v46q0 14 -13 14q-17 0 -17 -28zM675 -165q-16 0 -26 10.5t-10 27.5t10 27.5t26 10.5q37 0 37 -38t-37 -38zM820 -165q-9 0 -15.5 6t-6.5 17q0 22 40 22h4v2v7
q0 9 -12 9q-14 0 -14 -12h-17q0 25 31 25q26 0 28 -21v-34v-18h-15l-1 8l-4 -6q-8 -5 -18 -5zM955 -165q-38 0 -38 38t38 38q16 0 25.5 -10.5t9.5 -27.5t-9.5 -27.5t-25.5 -10.5zM1019 -130v-32h-17v72h17v-13l8 10q7 4 17 4q22 0 25 -21v-12v-40h-19v46q-4 14 -11 14
q-20 0 -20 -28zM1160 -165q-28 0 -33 24h20q1 -13 13 -13q10 0 10 10q0 5 -10 10q-3 1 -5 2q-23 6 -23 21q0 22 26 22t32 -22h-21q0 9 -12 9q-6 0 -6 -8q0 -6 14 -12q25 -5 25 -20q0 -23 -30 -23zM1263 -165q-35 0 -35 38q0 17 10.5 27.5t24.5 10.5q15 0 24 -7.5t9 -19.5
h-18q-3 14 -15 14q-17 0 -17 -25q0 -11 5 -17t12 -6q13 0 15 12h18q-2 -27 -33 -27zM1341 -165q-38 0 -38 38t38 38q35 0 35 -38t-35 -38zM1408 -125v-37h-19v72h19v-12l6 9q7 4 13 4q18 0 23 -14l7 10q5 4 15 4t16.5 -5t6.5 -12q1 -5 1 -16v-40h-18v37q0 1 -0.5 5t-0.5 6
q0 12 -13 12q-12 0 -12 -23v-37h-18v48q-4 12 -13 12q-13 0 -13 -23zM457 -90v-72h-18v72h18zM792 -90l-26 -72h-23l-25 72h19l19 -60l17 60h19zM240 -150q20 0 20 23v2q0 23 -18 23q-19 0 -19 -25q0 -23 17 -23zM309 -122h33q-3 20 -16 20q-14 0 -17 -20zM507 -150
q19 0 19 23v2q0 23 -19 23q-17 0 -17 -23q0 -25 17 -25zM675 -150q20 0 20 23q0 25 -20 25q-18 0 -18 -25q0 -23 18 -23zM955 -150q17 0 17 23q0 25 -17 25q-19 0 -19 -25q0 -23 19 -23zM1341 -150q17 0 17 23q0 25 -17 25q-8 0 -14 -7t-6 -18t6 -17t14 -6zM826 -150
q6 0 11 4t5 9v7q-26 3 -26 -12q0 -8 10 -8zM1208 -165q-12 0 -12 10q0 5 3.5 9t8.5 4t8.5 -4t3.5 -9q0 -10 -12 -10z" />
    <glyph glyph-name="_Origin" horiz-adv-x="3007" 
d="M200 1238v67h2607v-67h-2607zM1498 842q35 -35 94 -35q56 0 91 35q37 37 37 87q0 53 -37 87q-35 35 -93 35q-57 0 -92 -35q-37 -35 -37 -87q0 -48 37 -87zM347 811h197v43h-143v56h129v42h-129v52h143v43h-197v-236zM584 811h54v145l118 -145h44v236h-54v-143l-117 143
h-45v-236zM916 811h54v193h76v43h-207v-43h77v-193zM1150 811h58l54 161l52 -161h60l77 236h-52l-56 -168l-54 168h-50l-56 -166l-54 166h-58zM1751 811h54v66h52l44 -66h60l-52 74q28 12 39 31q13 19 13 46q0 54 -48 77q-19 8 -54 8h-108v-236zM1988 811h54v99h128v42h-128
v52h143v43h-197v-236zM2207 811h195v43h-141v56h127v42h-127v52h141v43h-195v-236zM2442 811h54v145l118 -145h46v236h-54v-143l-119 143h-45v-236zM1664 929q0 -33 -21 -54t-53 -21t-52.5 21t-20.5 54q0 34 20.5 55.5t52.5 21.5t53 -21.5t21 -55.5zM1805 921v83h50
q50 0 50 -42q0 -41 -50 -41h-50zM304 415h56v236h-56v-236zM397 415h56v145l118 -145h44v236h-54v-143l-118 143h-46v-236zM739 651v-236h123q95 0 95 64q0 40 -37 56l-4 2q35 17 35 54q0 28 -24.5 44t-71.5 16h-116zM984 415h195v45h-141v54h129v42h-129v51h143v44h-197
v-236zM1218 415h56v66h50l46 -66h58l-50 74q23 8 39 31q13 19 13 46q0 52 -48 77q-21 8 -56 8h-108v-236zM1457 415h195v45h-141v191h-54v-236zM1691 415h54v236h-54v-236zM1784 415h54v145l119 -145h45v236h-56v-143l-116 143h-46v-236zM2237 651v-236h107q83 0 114 56
q17 24 17 62q0 74 -62 103q-29 15 -69 15h-107zM2506 415h195v45h-141v54h129v42h-129v51h143v44h-197v-236zM795 558v56h56q44 0 44 -29q0 -27 -44 -27h-56zM1274 525v82h50q50 0 50 -41t-50 -41h-50zM2293 460v147h49q49 0 69 -35q8 -13 8 -39q0 -46 -35 -64
q-17 -9 -42 -9h-49zM795 456v58h63q43 0 43 -29t-43 -29h-63zM2040 363h35l18 50q9 18 9 33q0 14 -9 23.5t-22 9.5q-15 0 -24.5 -9t-9.5 -24q0 -23 19 -29zM200 146v67h2607v-67h-2607z" />
    </font>
</defs>
</svg>
