<?xml version="1.0" standalone="no"?>
<!DOCTYPE svg PUBLIC "-//W3C//DTD SVG 1.1//EN" "http://www.w3.org/Graphics/SVG/1.1/DTD/svg11.dtd" >
<svg xmlns="http://www.w3.org/2000/svg" xmlns:xlink="http://www.w3.org/1999/xlink" version="1.1">
<metadata>
Created by FontForge 20201107 at Tue May 30 04:30:12 2023
 By 
Copyright (c) 2023 by Designova. All rights reserved.
</metadata>
<defs>
<font id="Helixa-Book" horiz-adv-x="0" >
  <font-face 
    font-family="Helixa Book"
    font-weight="400"
    font-stretch="normal"
    units-per-em="2048"
    panose-1="0 0 5 0 0 0 0 0 0 0"
    ascent="1638"
    descent="-410"
    x-height="1000"
    cap-height="1460"
    bbox="-934 -426 2807 1970"
    underline-thickness="50"
    underline-position="-100"
    unicode-range="U+0020-F8FF"
  />
<missing-glyph horiz-adv-x="1242" 
d="M1154 1454v-1450h-1066v1450h1066zM1046 1354h-850v-1250h850v1250z" />
    <glyph glyph-name=".notdef" horiz-adv-x="1242" 
d="M1154 1454v-1450h-1066v1450h1066zM1046 1354h-850v-1250h850v1250z" />
    <glyph glyph-name=".null" 
 />
    <glyph glyph-name="nonmarkingreturn" horiz-adv-x="682" 
 />
    <glyph glyph-name="space" unicode=" " horiz-adv-x="580" 
 />
    <glyph glyph-name="exclam" unicode="!" horiz-adv-x="540" 
d="M318 426h-96q-18 195 -18 674v360h132v-360q0 -479 -18 -674zM272 -28q-55 0 -93.5 38.5t-38.5 91.5t38.5 91.5t93.5 38.5q52 0 90 -38t38 -92t-38 -92t-90 -38z" />
    <glyph glyph-name="quotedbl" unicode="&#x22;" horiz-adv-x="586" 
d="M260 1360l-32 -400h-108l-34 400q-3 42 22.5 71t65.5 29t64.5 -28t21.5 -72zM500 1360l-32 -400h-108l-34 400q-3 42 22.5 71t65.5 29t64.5 -28t21.5 -72z" />
    <glyph glyph-name="numbersign" unicode="#" horiz-adv-x="1332" 
d="M434 440l-86 -440h-134l86 440h-214l22 128h220l62 324h-254l22 128h258l86 440h134l-86 -440h352l86 440h134l-86 -440h210l-22 -128h-216l-62 -324h218l-22 -128h-224l-86 -440h-134l86 440h-350zM874 892h-352l-62 -324h352z" />
    <glyph glyph-name="dollar" unicode="$" horiz-adv-x="1120" 
d="M618 -22v-178h-124v178q-191 15 -307 122t-123 276h144q-3 -107 75 -180t211 -86v576l-70 16q-167 42 -254.5 139t-87.5 241q0 166 111.5 274t300.5 126v178h124v-176q174 -17 280.5 -123.5t121.5 -280.5h-140q-9 121 -76 190.5t-186 81.5v-564l82 -18
q166 -44 254 -142.5t88 -241.5q0 -172 -114.5 -281.5t-309.5 -126.5zM448 834l46 -12v530q-129 -16 -202.5 -89t-73.5 -181q0 -189 230 -248zM670 640l-52 14v-544q135 15 211.5 88t76.5 186q0 197 -236 256z" />
    <glyph glyph-name="percent" unicode="%" horiz-adv-x="1780" 
d="M448 762q-156 0 -257 103t-101 259t101 259t257 103t257 -103t101 -259t-101 -259t-257 -103zM1520 1460l-1110 -1460h-152l1108 1460h154zM448 886q101 0 165.5 66.5t64.5 171.5q0 106 -64 172t-166 66t-166 -66t-64 -172q0 -105 64.5 -171.5t165.5 -66.5zM1332 -26
q-156 0 -257 103t-101 259t101 259t257 103t257 -103t101 -259t-101 -259t-257 -103zM1332 98q101 0 165.5 66.5t64.5 171.5q0 106 -64 172t-166 66t-166 -66t-64 -172q0 -105 64.5 -171.5t165.5 -66.5z" />
    <glyph glyph-name="ampersand" unicode="&#x26;" horiz-adv-x="1362" 
d="M1128 258l222 -258h-166l-136 156q-176 -182 -458 -182q-230 0 -367 108.5t-137 291.5q0 138 84.5 248.5t279.5 225.5q-101 121 -140.5 195t-39.5 145q0 132 89 213t233 81q139 0 224.5 -77.5t85.5 -204.5q0 -108 -60 -197t-198 -183l398 -462q59 127 56 318h130
q3 -242 -100 -418zM402 1188q0 -49 33.5 -105t130.5 -173q105 69 154.5 139t49.5 151q0 74 -48 117t-132 43q-88 0 -138 -46t-50 -126zM588 96q251 0 382 152l-440 506q-172 -97 -242 -182t-70 -198q0 -131 97.5 -204.5t272.5 -73.5z" />
    <glyph glyph-name="quotesingle" unicode="'" horiz-adv-x="346" 
d="M260 1360l-32 -400h-108l-34 400q-3 42 22.5 71t65.5 29t64.5 -28t21.5 -72z" />
    <glyph glyph-name="parenleft" unicode="(" horiz-adv-x="498" 
d="M510 -286h-148q-123 184 -193.5 428t-70.5 484q0 238 70.5 480.5t193.5 425.5h148q-128 -165 -202 -408t-74 -498q0 -258 74 -502.5t202 -409.5z" />
    <glyph glyph-name="parenright" unicode=")" horiz-adv-x="498" 
d="M136 -286h-148q128 165 202 409.5t74 502.5q0 255 -74 498t-202 408h148q123 -183 193.5 -425.5t70.5 -480.5q0 -240 -70.5 -484t-193.5 -428z" />
    <glyph glyph-name="asterisk" unicode="*" horiz-adv-x="816" 
d="M338 922l-84 -120l-100 68l84 122q42 62 90 110q-48 10 -136 38l-142 52l42 110l136 -46q54 -18 130 -56q-10 70 -10 138v148h118v-148q0 -52 -8 -140q52 31 126 58l136 48l46 -112l-144 -52q-66 -22 -136 -36q44 -47 88 -112l84 -122l-98 -68l-84 120q-41 54 -70 116
q-21 -47 -68 -116z" />
    <glyph glyph-name="plus" unicode="+" horiz-adv-x="1348" 
d="M738 630v-458h-128v458h-456v128h456v456h128v-456h456v-128h-456z" />
    <glyph glyph-name="comma" unicode="," horiz-adv-x="520" 
d="M158 -164v104q32 1 60 18.5t42 43.5q-8 -2 -24 -2q-46 0 -76 33t-30 81q0 54 35 88t89 34q58 0 97 -45t39 -113q0 -92 -68.5 -164t-163.5 -78z" />
    <glyph glyph-name="hyphen" unicode="-" horiz-adv-x="836" 
d="M714 604v-124h-592v124h592z" />
    <glyph glyph-name="period" unicode="." horiz-adv-x="520" 
d="M260 -22q-54 0 -92 38t-38 90q0 53 38 91.5t92 38.5q53 0 91.5 -38t38.5 -92q0 -52 -38 -90t-92 -38z" />
    <glyph glyph-name="slash" unicode="/" horiz-adv-x="688" 
d="M696 1460l-570 -1460h-134l568 1460h136z" />
    <glyph glyph-name="zero" unicode="0" horiz-adv-x="1356" 
d="M678 -26q-264 0 -419 204.5t-155 551.5t155 551.5t419 204.5t419 -204.5t155 -551.5t-155 -551.5t-419 -204.5zM678 104q203 0 321.5 168.5t118.5 457.5t-118.5 457.5t-321.5 168.5t-321.5 -168.5t-118.5 -457.5t118.5 -457.5t321.5 -168.5z" />
    <glyph glyph-name="one" unicode="1" horiz-adv-x="746" 
d="M584 1458v-1458h-134v1294l-322 -222l-66 114l402 272h120z" />
    <glyph glyph-name="two" unicode="2" horiz-adv-x="1122" 
d="M1038 128v-128h-952v108l456 404q202 179 269 285t67 243q0 147 -84 230.5t-230 83.5q-155 0 -249.5 -108t-94.5 -286h-136q2 234 135 379t349 145q198 0 322 -122t124 -316q0 -168 -82 -301.5t-306 -330.5l-324 -286h736z" />
    <glyph glyph-name="three" unicode="3" horiz-adv-x="1134" 
d="M548 -24q-222 0 -352 132.5t-124 355.5h136q-6 -166 85 -262t255 -96q169 0 268.5 97t99.5 259q0 155 -108.5 240.5t-307.5 85.5h-108v98l410 446h-688v128h884v-108l-408 -442q208 -14 335 -137.5t127 -314.5q0 -216 -139.5 -349t-364.5 -133z" />
    <glyph glyph-name="four" unicode="4" horiz-adv-x="1240" 
d="M800 1460h166v-1018h166v-128h-166v-314h-136v314h-756v114zM830 442v838l-590 -838h590z" />
    <glyph glyph-name="five" unicode="5" horiz-adv-x="1158" 
d="M578 -24q-222 0 -352 132.5t-124 355.5h136q-6 -166 85 -262t255 -96q165 0 266.5 100.5t101.5 265.5q0 164 -102 266t-268 102q-99 0 -191 -40.5t-161 -115.5l-82 38l72 738h790v-128h-666l-44 -446q134 84 288 84q219 0 359.5 -141t140.5 -359q0 -217 -141.5 -355.5
t-362.5 -138.5z" />
    <glyph glyph-name="six" unicode="6" horiz-adv-x="1204" 
d="M606 1008q221 0 366.5 -145.5t145.5 -368.5q0 -143 -67.5 -262t-185.5 -187.5t-261 -68.5q-216 0 -367 150.5t-151 367.5q0 121 38 219.5t130 232.5l352 514h164l-340 -486q79 34 176 34zM604 106q165 0 271.5 108.5t106.5 279.5q0 167 -106.5 275.5t-271.5 108.5
q-167 0 -274.5 -107.5t-107.5 -276.5q0 -171 107.5 -279.5t274.5 -108.5z" />
    <glyph glyph-name="seven" unicode="7" horiz-adv-x="1002" 
d="M992 1348l-536 -1348h-142l534 1332h-836v128h980v-112z" />
    <glyph glyph-name="eight" unicode="8" horiz-adv-x="1210" 
d="M606 -24q-224 0 -367 118.5t-143 305.5q0 123 67 223.5t185 152.5q-97 49 -149.5 134.5t-52.5 193.5q0 169 128 274.5t332 105.5q203 0 329.5 -105.5t126.5 -274.5q0 -109 -51.5 -194.5t-146.5 -133.5q117 -50 183.5 -150.5t66.5 -227.5q0 -186 -143 -304t-365 -118z
M606 838q148 0 235 72t87 194q0 116 -87 184t-235 68t-237 -67.5t-89 -180.5q0 -122 89 -196t237 -74zM608 104q166 0 269 84.5t103 219.5t-102 216.5t-274 81.5q-170 0 -272 -81t-102 -215q0 -137 104.5 -221.5t273.5 -84.5z" />
    <glyph glyph-name="nine" unicode="9" horiz-adv-x="1204" 
d="M600 1484q216 0 367 -150.5t151 -367.5q0 -121 -38 -219.5t-130 -232.5l-352 -514h-164l340 486q-79 -34 -176 -34q-221 0 -366.5 145.5t-145.5 368.5q0 143 67.5 262t185.5 187.5t261 68.5zM600 582q167 0 274.5 107.5t107.5 276.5q0 171 -107.5 279.5t-274.5 108.5
q-165 0 -271.5 -108.5t-106.5 -279.5q0 -167 106.5 -275.5t271.5 -108.5z" />
    <glyph glyph-name="colon" unicode=":" horiz-adv-x="560" 
d="M280 762q-54 0 -92 38t-38 90q0 53 38 91.5t92 38.5q53 0 91.5 -38t38.5 -92q0 -52 -38 -90t-92 -38zM280 -22q-54 0 -92 38t-38 90q0 53 38 91.5t92 38.5q53 0 91.5 -38t38.5 -92q0 -52 -38 -90t-92 -38z" />
    <glyph glyph-name="semicolon" unicode=";" horiz-adv-x="560" 
d="M280 762q-54 0 -92 38t-38 90q0 53 38 91.5t92 38.5q53 0 91.5 -38t38.5 -92q0 -52 -38 -90t-92 -38zM178 -164v104q32 1 60 18.5t42 43.5q-8 -2 -24 -2q-46 0 -76 33t-30 81q0 54 35 88t89 34q58 0 97 -45t39 -113q0 -92 -68.5 -164t-163.5 -78z" />
    <glyph glyph-name="less" unicode="&#x3c;" horiz-adv-x="1348" 
d="M350 506l844 -298v-136l-1040 374v120l1040 374v-136z" />
    <glyph glyph-name="equal" unicode="=" horiz-adv-x="1348" 
d="M1194 874v-128h-1040v128h1040zM1194 470v-128h-1040v128h1040z" />
    <glyph glyph-name="greater" unicode="&#x3e;" horiz-adv-x="1348" 
d="M1194 566v-120l-1040 -374v136l844 298l-844 298v136z" />
    <glyph glyph-name="question" unicode="?" horiz-adv-x="1022" 
d="M526 384v-76h-130v76q0 47 13.5 90t32 74.5t51.5 66.5t59 57t68 54t65 51t54.5 51.5t48 60.5t28.5 67.5t12 83.5q0 136 -89.5 225t-226.5 89t-232 -99t-86 -235h-132q-6 125 53 232t165 169.5t232 62.5q194 0 321 -125.5t127 -318.5q0 -61 -16.5 -116t-38.5 -94
t-61.5 -80t-67.5 -64.5t-74 -57.5q-63 -46 -97.5 -79t-56.5 -75t-22 -90zM470 -28q-55 0 -93.5 38.5t-38.5 91.5t38.5 91.5t93.5 38.5q52 0 90 -38t38 -92t-38 -92t-90 -38z" />
    <glyph glyph-name="at" unicode="@" horiz-adv-x="1818" 
d="M908 -182q-173 0 -327 64.5t-264 175.5t-174.5 266t-64.5 330q0 172 64.5 326t174.5 264.5t264 175t327 64.5q239 0 429 -103t296.5 -288t106.5 -419q0 -212 -100.5 -353t-251.5 -141q-93 0 -153 38t-79 110q-112 -140 -318 -140q-143 0 -228.5 73t-85.5 197
q0 123 89 199t257 97l160 20q95 12 122 34q-3 110 -61 163t-175 53q-118 0 -180 -53.5t-56 -148.5h-126q-9 142 92 230t272 88q170 0 263 -86.5t93 -245.5v-412q0 -104 114 -104q102 0 165 105t63 277q0 150 -53 279t-145.5 220t-224.5 143t-285 52q-146 0 -277 -56
t-225 -151.5t-149 -227.5t-55 -279q0 -150 54.5 -284t148.5 -229.5t225 -151t278 -55.5q274 0 472 176l74 -88q-231 -204 -546 -204zM850 302q140 0 221 91.5t81 250.5v44q-62 -17 -218 -34l-54 -6q-115 -13 -174.5 -61.5t-59.5 -126.5q0 -75 53 -116.5t151 -41.5z" />
    <glyph glyph-name="A" unicode="A" horiz-adv-x="1270" 
d="M328 454l-170 -454h-138l550 1460h132l550 -1460h-138l-170 454h-616zM900 576l-264 704l-264 -704h528z" />
    <glyph glyph-name="B" unicode="B" horiz-adv-x="1282" 
d="M750 0h-582v1460h546q213 0 334.5 -105t121.5 -291q0 -219 -166 -324q95 -50 146 -137.5t52 -204.5q-1 -181 -124.5 -289.5t-327.5 -108.5zM720 1332h-416v-536h416q151 0 231.5 69.5t80.5 198.5t-80.5 198.5t-231.5 69.5zM756 668h-452v-540h452q144 0 223.5 70.5
t84.5 199.5q-5 129 -84.5 199.5t-223.5 70.5z" />
    <glyph glyph-name="C" unicode="C" horiz-adv-x="1456" 
d="M758 -22q-198 0 -352.5 95.5t-240 266.5t-85.5 390q0 220 86.5 391.5t242.5 267t357 95.5q231 0 401.5 -135.5t212.5 -354.5h-146q-44 165 -171.5 261.5t-302.5 96.5q-242 0 -392 -171.5t-150 -450.5q0 -277 150 -448.5t392 -171.5q175 0 306 91.5t176 244.5h146
q-45 -208 -220.5 -338t-409.5 -130z" />
    <glyph glyph-name="D" unicode="D" horiz-adv-x="1384" 
d="M568 0h-400v1460h400q330 0 533 -201t203 -529t-203 -529t-533 -201zM568 1332h-264v-1204h264q272 0 435 164t163 438q0 277 -161.5 439.5t-436.5 162.5z" />
    <glyph glyph-name="E" unicode="E" horiz-adv-x="1194" 
d="M1082 128v-128h-914v1460h912v-128h-776v-536h710v-128h-710v-540h778z" />
    <glyph glyph-name="F" unicode="F" horiz-adv-x="1142" 
d="M304 668v-668h-136v1460h912v-128h-776v-536h710v-128h-710z" />
    <glyph glyph-name="G" unicode="G" horiz-adv-x="1504" 
d="M766 -22q-206 0 -362 94q-155 95 -239.5 266t-84.5 392q0 339 188 548q91 100 216.5 153t271.5 53q159 0 296.5 -64.5t226 -180t109.5 -259.5h-134q-36 168 -174 274t-324 106q-161 0 -278 -76q-127 -75 -195.5 -218.5t-68.5 -335.5t68 -334q69 -142 194.5 -218
t289.5 -76q143 0 262 64q109 60 169.5 168t66.5 252h-514v122h648v-102q0 -198 -80 -334q-81 -141 -224 -217.5t-328 -76.5z" />
    <glyph glyph-name="H" unicode="H" horiz-adv-x="1396" 
d="M304 678v-678h-136v1460h136v-654h786v654h136v-1460h-136v678h-786z" />
    <glyph glyph-name="I" unicode="I" horiz-adv-x="472" 
d="M304 1460v-1460h-136v1460h136z" />
    <glyph glyph-name="J" unicode="J" horiz-adv-x="1112" 
d="M496 -22q-295 0 -408 202q-54 99 -54 260v118h132v-118q0 -230 138 -302q90 -43 194 -40q106 0 186 40q138 72 138 302v1022h132v-1022q0 -161 -54 -260q-57 -102 -155 -151.5t-249 -50.5z" />
    <glyph glyph-name="K" unicode="K" horiz-adv-x="1272" 
d="M298 474v-474h-130v1460h130v-798l766 798h178l-666 -690l658 -770h-168l-576 678z" />
    <glyph glyph-name="L" unicode="L" horiz-adv-x="1118" 
d="M1082 128v-128h-914v1460h136v-1332h778z" />
    <glyph glyph-name="M" unicode="M" horiz-adv-x="1656" 
d="M298 1460l530 -1272l528 1272h132v-1460h-136l4 1130l-466 -1130h-124l-466 1124l4 -1124h-136v1460h130z" />
    <glyph glyph-name="N" unicode="N" horiz-adv-x="1404" 
d="M298 1460l800 -1208v1208h136v-1460h-128l-802 1212v-1212h-136v1460h130z" />
    <glyph glyph-name="O" unicode="O" horiz-adv-x="1514" 
d="M756 -26q-200 0 -353.5 94.5t-238 266.5t-84.5 395t84.5 395t238 266.5t353.5 94.5t353.5 -94.5t238 -266.5t84.5 -395t-84.5 -395t-238 -266.5t-353.5 -94.5zM756 98q242 0 394 176t152 456q0 282 -151.5 457t-394.5 175t-393.5 -174.5t-150.5 -457.5q0 -282 151 -457
t393 -175z" />
    <glyph glyph-name="P" unicode="P" horiz-adv-x="1236" 
d="M304 534v-534h-136v1460h560q208 0 332 -125.5t124 -334.5q0 -204 -127.5 -335t-328.5 -131h-424zM724 1332h-420v-670h408q152 0 243 93t91 249q0 153 -86.5 240.5t-235.5 87.5z" />
    <glyph glyph-name="Q" unicode="Q" horiz-adv-x="1514" 
d="M1246 186l154 -170l-96 -94l-156 172q-165 -120 -392 -120q-200 0 -353.5 94.5t-238 266.5t-84.5 395t84.5 395t238 266.5t353.5 94.5t353.5 -94.5t238 -266.5t84.5 -395q0 -336 -186 -544zM756 98q177 0 306 92l-182 204l96 94l184 -202q142 170 142 444
q0 282 -151.5 457t-394.5 175t-393.5 -174.5t-150.5 -457.5q0 -282 151 -457t393 -175z" />
    <glyph glyph-name="R" unicode="R" horiz-adv-x="1278" 
d="M304 532v-534h-136v1460h560q208 0 332 -125.5t124 -334.5q0 -149 -73.5 -265t-200.5 -169l286 -564h-152l-268 532h-472zM724 1330h-420v-670h408q152 0 243 93t91 249q0 153 -86.5 240.5t-235.5 87.5z" />
    <glyph glyph-name="S" unicode="S" horiz-adv-x="1120" 
d="M554 -24q-215 0 -348 108t-142 292h144q-3 -120 93 -195t253 -75q163 0 257.5 75t94.5 203q0 197 -236 256l-246 62q-167 42 -254.5 139t-87.5 241q0 183 132 292.5t350 109.5q195 0 317.5 -107.5t138.5 -296.5h-140q-11 132 -92.5 204t-223.5 72q-159 0 -252.5 -74.5
t-93.5 -199.5q0 -189 230 -248l252 -64q166 -44 254 -142.5t88 -241.5q0 -187 -133 -298.5t-355 -111.5z" />
    <glyph glyph-name="T" unicode="T" horiz-adv-x="1094" 
d="M616 1332v-1332h-136v1332h-462v128h1058v-128h-460z" />
    <glyph glyph-name="U" unicode="U" horiz-adv-x="1370" 
d="M688 -24q-248 0 -389 139.5t-141 386.5v958h136v-956q0 -192 100.5 -293t293.5 -101q188 0 288 101t100 293v956h136v-958q0 -246 -139 -386t-385 -140z" />
    <glyph glyph-name="V" unicode="V" horiz-adv-x="1272" 
d="M640 202l480 1258h140l-558 -1460h-130l-560 1460h144z" />
    <glyph glyph-name="W" unicode="W" horiz-adv-x="1946" 
d="M1426 240l360 1220h138l-436 -1460h-116l-400 1232l-398 -1232h-120l-432 1460h140l356 -1224l392 1224h124z" />
    <glyph glyph-name="X" unicode="X" horiz-adv-x="1232" 
d="M620 618l-432 -618h-164l514 728l-522 732h166l308 -432q67 -94 128 -194l434 626h158l-510 -728l522 -732h-166l-324 454q-62 83 -112 164z" />
    <glyph glyph-name="Y" unicode="Y" horiz-adv-x="1252" 
d="M694 624v-626h-136v626l-550 834h156l462 -708l462 708h156z" />
    <glyph glyph-name="Z" unicode="Z" horiz-adv-x="1170" 
d="M1088 128v-128h-1012v112l850 1220h-846v128h1018v-112l-850 -1220h840z" />
    <glyph glyph-name="bracketleft" unicode="[" horiz-adv-x="508" 
d="M504 30v-120h-406v1640h406v-120h-280v-1400h280z" />
    <glyph glyph-name="backslash" unicode="\" horiz-adv-x="688" 
d="M128 1460l568 -1460h-134l-570 1460h136z" />
    <glyph glyph-name="bracketright" unicode="]" horiz-adv-x="508" 
d="M410 1550v-1640h-406v120h280v1400h-280v120h406z" />
    <glyph glyph-name="asciicircum" unicode="^" horiz-adv-x="970" 
d="M486 1284l-206 -484h-138l284 660h120l284 -660h-138z" />
    <glyph glyph-name="underscore" unicode="_" horiz-adv-x="1040" 
d="M926 0v-132h-812v132h812z" />
    <glyph glyph-name="grave" unicode="`" horiz-adv-x="434" 
d="M230 1784l124 -254h-128l-152 254h156z" />
    <glyph glyph-name="a" unicode="a" horiz-adv-x="1036" 
d="M520 1024q185 0 287.5 -96.5t102.5 -271.5v-656h-132v132q-57 -75 -147 -115.5t-199 -40.5q-156 0 -250 81t-94 217t97.5 219.5t280.5 104.5l176 20q105 12 136 40q-6 242 -260 242q-131 0 -200.5 -59.5t-63.5 -164.5h-132q-9 156 101.5 252t296.5 96zM444 98
q155 0 244.5 101.5t89.5 278.5v52q-88 -26 -300 -44q-127 -16 -192.5 -69.5t-65.5 -140.5q0 -84 58.5 -131t165.5 -47z" />
    <glyph glyph-name="b" unicode="b" horiz-adv-x="1154" 
d="M622 1024q208 0 335 -144t127 -380t-127 -380t-335 -144q-115 0 -206 46.5t-150 135.5v-158h-128v1460h132v-610q118 174 352 174zM612 100q155 0 246.5 108t91.5 292t-91.5 292t-246.5 108t-247.5 -108.5t-92.5 -291.5q0 -184 92 -292t248 -108z" />
    <glyph glyph-name="c" unicode="c" horiz-adv-x="1038" 
d="M534 -24q-208 0 -336 143.5t-128 376.5q0 237 131 382.5t345 145.5q165 0 282.5 -93.5t147.5 -250.5h-134q-24 101 -104.5 161.5t-191.5 60.5q-156 0 -251 -110.5t-95 -293.5q0 -180 92 -289t242 -109q113 0 198.5 59.5t113.5 158.5h134q-34 -154 -156.5 -248t-289.5 -94
z" />
    <glyph glyph-name="d" unicode="d" horiz-adv-x="1154" 
d="M884 850v610h132v-1460h-128v158q-59 -89 -150 -135.5t-206 -46.5q-208 0 -335 144t-127 380t127 380t335 144q234 0 352 -174zM542 100q156 0 248 108t92 292q0 183 -92.5 291.5t-247.5 108.5t-246.5 -108t-91.5 -292t91.5 -292t246.5 -108z" />
    <glyph glyph-name="e" unicode="e" horiz-adv-x="1076" 
d="M538 -24q-211 0 -338 144t-130 384q3 236 130.5 378t337.5 142q211 0 339.5 -143t128.5 -377v-28l-808 2q6 -172 99.5 -276t240.5 -104q110 2 194 61.5t112 158.5h132q-33 -154 -154 -248t-284 -94zM206 594l664 -2q-22 144 -111.5 227t-220.5 83q-130 0 -220 -83
t-112 -225z" />
    <glyph glyph-name="f" unicode="f" horiz-adv-x="578" 
d="M547 1456v-112q-146 8 -191 -17.5t-45 -122.5v-181h227v-120h-227l1 -903h-132l-1 903h-149v120h149v181q0 160 84.5 216t283.5 36z" />
    <glyph glyph-name="g" unicode="g" horiz-adv-x="1160" 
d="M888 852v148h134v-984q0 -141 -54 -240q-57 -102 -155 -151.5t-249 -50.5q-295 0 -408 202q-38 73 -50 182h134q18 -164 132 -224q90 -43 194 -40q106 0 186 40q140 71 140 302v184q-60 -88 -154 -136t-208 -48q-200 0 -329 139.5t-129 354.5q0 216 131.5 355t336.5 139
q112 0 201.5 -44.5t146.5 -127.5zM536 160q155 0 247.5 100.5t92.5 271.5q0 169 -91.5 268.5t-244.5 99.5q-149 0 -241.5 -102.5t-92.5 -267.5t91.5 -267.5t238.5 -102.5z" />
    <glyph glyph-name="h" unicode="h" horiz-adv-x="1112" 
d="M602 1024q187 0 285.5 -108t98.5 -312v-604h-132v586q0 162 -63 238t-195 76q-147 0 -236.5 -97.5t-89.5 -260.5v-540h-132v1458h132v-592q56 75 141.5 115.5t190.5 40.5z" />
    <glyph glyph-name="i" unicode="i" horiz-adv-x="416" 
d="M208 1254q-43 0 -73.5 30.5t-30.5 71.5q0 44 30.5 75t73.5 31q41 0 72.5 -31.5t31.5 -74.5q0 -42 -31 -72t-73 -30zM274 1000v-1000h-132v1000h132z" />
    <glyph glyph-name="j" unicode="j" horiz-adv-x="422" 
d="M214 1462q41 0 72.5 -31.5t31.5 -74.5q0 -42 -31 -72t-73 -30q-43 0 -73.5 30.5t-30.5 71.5q0 44 30.5 75t73.5 31zM-88 -415l-33 3v112l33 -3q146 -8 189.5 17.5t43.5 122.5l1 1163h132l-1 -1163q0 -159 -83.5 -215.5t-281.5 -36.5z" />
    <glyph glyph-name="k" unicode="k" horiz-adv-x="950" 
d="M276 312v-312h-132v1460h132v-970l494 510h174l-394 -406l388 -594h-156l-322 502z" />
    <glyph glyph-name="l" unicode="l" horiz-adv-x="424" 
d="M280 1460v-1460h-136v1460h136z" />
    <glyph glyph-name="m" unicode="m" horiz-adv-x="1660" 
d="M1172 1024q163 0 261.5 -103t98.5 -273v-648h-128v636q0 123 -64.5 193.5t-175.5 70.5q-114 0 -188 -75t-74 -191v-634h-130v638q0 124 -63.5 193t-176.5 69q-114 0 -188 -75t-74 -189v-636h-132v1000h128v-98q94 122 274 122q105 0 187.5 -48t126.5 -134
q44 87 126.5 134.5t191.5 47.5z" />
    <glyph glyph-name="n" unicode="n" horiz-adv-x="1112" 
d="M592 1024q195 0 294.5 -106.5t99.5 -313.5v-604h-132v586q0 165 -63 239.5t-201 74.5q-149 0 -234.5 -102t-85.5 -282v-516h-132v1000h134v-134q56 74 140.5 116t179.5 42z" />
    <glyph glyph-name="o" unicode="o" horiz-adv-x="1092" 
d="M546 -24q-214 0 -343.5 144t-132.5 384q3 234 133 377t343 143t343 -143t133 -377q-3 -240 -132.5 -384t-343.5 -144zM546 98q155 0 250.5 110.5t95.5 291.5t-95.5 291.5t-250.5 110.5t-250.5 -110.5t-95.5 -291.5t95.5 -291.5t250.5 -110.5z" />
    <glyph glyph-name="p" unicode="p" horiz-adv-x="1154" 
d="M622 1024q208 0 335 -144t127 -380t-127 -380t-335 -144q-234 0 -352 174v-556h-132v1406h128v-158q59 89 150 135.5t206 46.5zM612 100q155 0 246.5 108t91.5 292t-91.5 292t-246.5 108q-156 0 -248 -108t-92 -292q0 -183 92.5 -291.5t247.5 -108.5z" />
    <glyph glyph-name="q" unicode="q" horiz-adv-x="1154" 
d="M888 842v158h128v-1406h-132v556q-118 -174 -352 -174q-208 0 -335 144t-127 380t127 380t335 144q115 0 206 -46.5t150 -135.5zM542 100q155 0 247.5 108.5t92.5 291.5q0 184 -92 292t-248 108q-155 0 -246.5 -108t-91.5 -292t91.5 -292t246.5 -108z" />
    <glyph glyph-name="r" unicode="r" horiz-adv-x="640" 
d="M138 1000h134v-132q58 76 145.5 117.5t188.5 38.5v-124q-156 5 -246 -97.5t-90 -286.5v-516h-132v1000z" />
    <glyph glyph-name="s" unicode="s" horiz-adv-x="858" 
d="M410 -24q-167 0 -263.5 88t-90.5 236h130q-6 -93 52.5 -146.5t167.5 -53.5q114 0 178 45t64 125q0 63 -34.5 97.5t-121.5 56.5l-162 42q-123 32 -189.5 102t-66.5 170q0 129 97 207.5t253 78.5q162 0 256 -86.5t92 -233.5h-130q2 93 -55 144.5t-163 51.5
q-218 0 -218 -162q0 -112 158 -150l160 -42q132 -35 194 -101.5t62 -174.5q0 -132 -102.5 -213t-267.5 -81z" />
    <glyph glyph-name="t" unicode="t" horiz-adv-x="618" 
d="M224 260v620h-194v120h194v304h132v-304h194v-120h-194v-620q0 -97 43.5 -122.5t188.5 -17.5v-112q-197 -20 -280.5 36.5t-83.5 215.5z" />
    <glyph glyph-name="u" unicode="u" horiz-adv-x="1112" 
d="M842 484v516h132v-1000h-134v134q-56 -74 -140.5 -116t-179.5 -42q-195 0 -294.5 106.5t-99.5 313.5v604h132v-586q0 -165 63 -239.5t201 -74.5q149 0 234.5 102t85.5 282z" />
    <glyph glyph-name="v" unicode="v" horiz-adv-x="966" 
d="M956 1000l-412 -1000h-122l-412 1000h140l334 -822l334 822h138z" />
    <glyph glyph-name="w" unicode="w" horiz-adv-x="1472" 
d="M1056 218l260 782h136l-336 -1000h-122l-258 780l-260 -780h-122l-334 1000h136l260 -784l258 784h122z" />
    <glyph glyph-name="x" unicode="x" horiz-adv-x="916" 
d="M456 400l-284 -400h-164l362 504l-360 496h164l286 -398l286 398h162l-362 -500l362 -500h-164z" />
    <glyph glyph-name="y" unicode="y" horiz-adv-x="928" 
d="M196 -418q-83 0 -150 16v112q90 -12 152 -12q68 2 101.5 29t60.5 103l48 124l-398 1046h138l324 -862l310 862h136l-434 -1208q-40 -108 -110.5 -159t-177.5 -51z" />
    <glyph glyph-name="z" unicode="z" horiz-adv-x="884" 
d="M812 120v-120h-740v98l570 782h-570v120h740v-100l-568 -780h568z" />
    <glyph glyph-name="braceleft" unicode="{" horiz-adv-x="562" 
d="M558 30v-120h-120q-88 0 -141 50.5t-53 135.5v470q0 57 -37 81t-123 21v126q86 -3 123 21t37 81v468q0 85 53 135.5t141 50.5h120v-120h-122q-30 0 -48 -17.5t-18 -48.5v-468q0 -117 -80 -164q80 -50 80 -166v-470q0 -30 17.5 -48t48.5 -18h122z" />
    <glyph glyph-name="bar" unicode="|" horiz-adv-x="616" 
d="M368 1628v-1796h-120v1796h120z" />
    <glyph glyph-name="braceright" unicode="}" horiz-adv-x="562" 
d="M124 -90h-120v120h122q30 0 48 17.5t18 48.5v470q0 116 80 166q-80 47 -80 164v468q0 30 -17.5 48t-48.5 18h-122v120h120q88 0 141 -50.5t53 -135.5v-468q0 -57 37 -81t123 -21v-126q-86 3 -123 -21t-37 -81v-470q0 -85 -53 -135.5t-141 -50.5z" />
    <glyph glyph-name="asciitilde" unicode="~" horiz-adv-x="1348" 
d="M938 430q-52 0 -113.5 20.5t-95 38.5t-101.5 57q-51 32 -80 48t-68.5 31t-71.5 15q-68 0 -97.5 -43t-30.5 -147h-126q-6 141 64 229.5t190 88.5q46 0 100 -18.5t90 -37.5t94 -54q121 -68 167 -85q44 -15 81 -15q68 0 98 45.5t30 150.5h126q5 -147 -65 -235.5t-191 -88.5z
" />
    <glyph glyph-name="exclamdown" unicode="&#xa1;" horiz-adv-x="540" 
d="M272 1228q-55 0 -93.5 38.5t-38.5 91.5t38.5 91.5t93.5 38.5q52 0 90 -38t38 -92t-38 -92t-90 -38zM336 360v-360h-132v360q0 479 18 674h96q18 -195 18 -674z" />
    <glyph glyph-name="cent" unicode="&#xa2;" horiz-adv-x="1104" 
d="M642 214v-216h-128v216q-189 22 -306.5 164t-117.5 346q0 216 116 358t308 162v216h128v-216q150 -18 250.5 -109.5t127.5 -232.5h-136q-24 104 -107 162t-207 58q-155 0 -250.5 -109t-95.5 -287q0 -171 99.5 -279.5t254.5 -108.5q246 0 310 214h136q-33 -145 -134 -234
t-248 -104z" />
    <glyph glyph-name="sterling" unicode="&#xa3;" horiz-adv-x="1204" 
d="M992 468h132q5 -236 -98.5 -352t-319.5 -116h-648v126q111 16 185.5 111t74.5 217q0 86 -42 220h-206v128h160q-60 161 -60 272q0 184 123 297t321 113q195 0 317.5 -107.5t138.5 -296.5h-140q-11 132 -92.5 204t-223.5 72q-146 0 -227 -75t-81 -209q0 -44 10.5 -94
t22.5 -83.5t35 -92.5h522v-128h-476q34 -114 34 -222q0 -97 -41 -184t-111 -140h404q158 0 224 78.5t62 261.5z" />
    <glyph glyph-name="currency" unicode="&#xa4;" horiz-adv-x="1232" 
d="M348 360l-158 -156l-94 94l160 156q-88 115 -88 264q0 145 88 268l-160 156l94 94l158 -156q123 88 266 88q149 0 270 -90l158 158l94 -94l-160 -156q88 -112 88 -268q0 -149 -88 -264l160 -156l-94 -94l-158 158q-118 -90 -270 -90q-143 0 -266 88zM614 402
q132 0 226 93.5t94 222.5q0 132 -93.5 226t-226.5 94q-129 0 -222.5 -94t-93.5 -226q0 -129 93 -222.5t223 -93.5z" />
    <glyph glyph-name="yen" unicode="&#xa5;" horiz-adv-x="1178" 
d="M660 336v-336h-132v336h-370v124h370v120h-370v124h322l-450 756h152l412 -714l404 714h150l-442 -756h322v-124h-368v-120h368v-124h-368z" />
    <glyph glyph-name="brokenbar" unicode="&#xa6;" horiz-adv-x="616" 
d="M368 1628v-768h-120v768h120zM368 600v-768h-120v768h120z" />
    <glyph glyph-name="section" unicode="&#xa7;" horiz-adv-x="932" 
d="M468 -22q-162 0 -256 86.5t-92 233.5h130q-2 -93 55 -144.5t163 -51.5q218 0 218 162q0 117 -156 150l-200 42q-258 54 -258 276q0 78 49 141t133 95q-140 76 -140 232q0 129 97 207.5t253 78.5q162 0 256 -86.5t92 -233.5h-130q2 93 -55 144.5t-163 51.5
q-218 0 -218 -162q0 -117 156 -150l200 -42q258 -54 258 -276q0 -78 -49 -141t-133 -95q140 -76 140 -232q0 -129 -97 -207.5t-253 -78.5zM466 564q127 0 194.5 43.5t67.5 124.5t-67.5 124.5t-194.5 43.5t-194.5 -43.5t-67.5 -124.5t67.5 -124.5t194.5 -43.5z" />
    <glyph glyph-name="dieresis" unicode="&#xa8;" horiz-adv-x="706" 
d="M220 1576q-43 0 -73.5 30.5t-30.5 71.5q0 44 30.5 75t73.5 31q41 0 72.5 -31.5t31.5 -74.5q0 -42 -31 -72t-73 -30zM484 1576q-43 0 -73.5 30.5t-30.5 71.5q0 44 30.5 75t73.5 31q41 0 72.5 -31.5t31.5 -74.5q0 -42 -31 -72t-73 -30z" />
    <glyph glyph-name="copyright" unicode="&#xa9;" horiz-adv-x="1658" 
d="M828 -28q-158 0 -298 58.5t-240 159.5t-158 241.5t-58 298.5q0 209 99 382t272 272.5t383 99.5q158 0 298.5 -58t240.5 -158t158.5 -240t58.5 -298q0 -159 -58 -299.5t-158 -241t-240.5 -159t-299.5 -58.5zM828 88q179 0 323.5 83t226.5 230t82 329q0 180 -82.5 326.5
t-227 229t-322.5 82.5q-177 0 -321 -83t-226.5 -229.5t-82.5 -325.5q0 -136 48 -255.5t131.5 -204t200.5 -133.5t250 -49zM838 302q-172 0 -282 118.5t-110 303.5q0 189 112 309.5t290 120.5q134 0 231 -78t121 -208h-134q-18 80 -74 122t-144 42q-122 0 -198 -85t-76 -221
q0 -135 73.5 -218.5t190.5 -83.5q90 0 149.5 42t82.5 120h132q-27 -127 -128 -205.5t-236 -78.5z" />
    <glyph glyph-name="ordfeminine" unicode="&#xaa;" horiz-adv-x="858" 
d="M377 582q-125 0 -201 66t-76 174q0 109 78.5 176.5t224.5 84.5l138 16q63 6 88 20l1 8l-1 1l6 14v8l-3 2l8 5q-19 150 -197 150q-102 0 -155 -46.5t-45 -128.5h-114q-10 127 78 206.5t239 79.5q147 0 229.5 -78.5t82.5 -217.5v-521h-116v91q-50 -51 -121 -80.5
t-144 -29.5zM386 690q120 0 188 77.5t68 214.5v33q-87 -22 -229 -32q-197 -24 -197 -159q0 -64 44.5 -99t125.5 -35z" />
    <glyph glyph-name="guillemotleft" unicode="&#xab;" horiz-adv-x="1078" 
d="M204 500l438 -500h-150l-438 500l438 500h150zM604 500l438 -500h-150l-438 500l438 500h150z" />
    <glyph glyph-name="logicalnot" unicode="&#xac;" horiz-adv-x="1320" 
d="M1100 680v-528h-132v400h-824v128h956z" />
    <glyph glyph-name="registered" unicode="&#xae;" horiz-adv-x="966" 
d="M484 672q-175 0 -292.5 117.5t-117.5 290.5q0 172 118.5 289t291.5 117q174 0 291 -116t117 -290q0 -175 -117 -291.5t-291 -116.5zM484 768q132 0 221 89t89 223q0 132 -88.5 221t-221.5 89q-132 0 -221 -88.5t-89 -221.5q0 -134 88.5 -223t221.5 -89zM422 1012v-164
h-102v472h176q80 0 127 -41t47 -111q0 -94 -82 -132l104 -188h-116l-88 164h-66zM494 1222h-72v-112h72q70 0 70 56t-70 56z" />
    <glyph glyph-name="macron" unicode="&#xaf;" horiz-adv-x="700" 
d="M586 1778v-124h-472v124h472z" />
    <glyph glyph-name="degree" unicode="&#xb0;" horiz-adv-x="528" 
d="M264 1000q-103 0 -172.5 70t-69.5 172q0 103 70 172.5t172 69.5q103 0 172.5 -70t69.5 -172q0 -103 -70 -172.5t-172 -69.5zM264 1116q54 0 88 34.5t34 91.5t-34 91.5t-88 34.5t-88 -34.5t-34 -91.5t34 -91.5t88 -34.5z" />
    <glyph glyph-name="plusminus" unicode="&#xb1;" horiz-adv-x="1348" 
d="M738 690v-396h-128v396h-456v128h456v396h128v-396h456v-128h-456zM1194 128v-128h-1040v128h1040z" />
    <glyph glyph-name="uni00B2" unicode="&#xb2;" horiz-adv-x="760" 
d="M660 682v-99h-558v82l259 228q111 98 146.5 153.5t35.5 129.5q0 76 -42.5 118.5t-118.5 42.5q-84 0 -132.5 -60.5t-45.5 -159.5h-104q-3 143 75.5 231.5t208.5 88.5q115 0 188.5 -72.5t73.5 -185.5q0 -95 -47.5 -173.5t-173.5 -188.5l-151 -135h386z" />
    <glyph glyph-name="uni00B3" unicode="&#xb3;" horiz-adv-x="773" 
d="M378 575q-133 0 -209.5 83t-67.5 217h103q-8 -93 38.5 -146.5t135.5 -53.5t140 49.5t51 134.5q0 80 -56.5 124t-160.5 44h-75v74l211 229h-365v99h520v-79l-212 -232q111 -14 176.5 -85t65.5 -176q0 -125 -82.5 -203.5t-212.5 -78.5z" />
    <glyph glyph-name="acute" unicode="&#xb4;" horiz-adv-x="442" 
d="M366 1782l-158 -252h-128l128 252h158z" />
    <glyph glyph-name="uni00B5" unicode="&#xb5;" horiz-adv-x="1092" 
d="M258 56v-462h-132v1408h134v-590q0 -312 256 -312q146 0 226 96.5t80 271.5v532h132v-1000h-112l-14 134q-51 -73 -140.5 -115.5t-193.5 -42.5q-140 0 -236 80z" />
    <glyph glyph-name="paragraph" unicode="&#xb6;" horiz-adv-x="1138" 
d="M678 1460v-1576h-132v730h-100q-174 0 -284 119t-110 307q0 185 110 302.5t284 117.5h232zM930 1460v-1580h-132v1580h132z" />
    <glyph glyph-name="periodcentered" unicode="&#xb7;" horiz-adv-x="544" 
d="M272 340q-72 0 -124 51t-52 123t51.5 124t124.5 52q72 0 124 -51.5t52 -124.5q0 -72 -52 -123t-124 -51z" />
    <glyph glyph-name="cedilla" unicode="&#xb8;" horiz-adv-x="458" 
d="M206 -340q-81 0 -134 36v122q59 -48 124 -48q31 0 49.5 12t18.5 32q0 44 -58 44q-24 0 -42.5 -6t-67.5 -28l-26 72l92 196h78v-78l-26 -54q8 2 22 2q65 0 106.5 -40t41.5 -104q0 -70 -50 -114t-128 -44z" />
    <glyph glyph-name="uni00B9" unicode="&#xb9;" horiz-adv-x="526" 
d="M426 1428v-845h-103v711l-172 -118l-51 90l240 162h86z" />
    <glyph glyph-name="ordmasculine" unicode="&#xba;" horiz-adv-x="972" 
d="M486 577q-173 0 -278.5 117t-107.5 311q2 188 108 304t278 116t278 -116t108 -304q-2 -194 -107.5 -311t-278.5 -117zM486 686q123 0 197 86t74 229t-74 229t-197 86t-197 -86t-74 -229t74 -229t197 -86z" />
    <glyph glyph-name="guillemotright" unicode="&#xbb;" horiz-adv-x="1078" 
d="M624 500l-438 -500h-150l438 500l-438 500h150zM1024 500l-438 -500h-150l438 500l-438 500h150z" />
    <glyph glyph-name="questiondown" unicode="&#xbf;" horiz-adv-x="1022" 
d="M552 1226q-52 0 -90 38t-38 92t38 92t90 38q55 0 93.5 -38.5t38.5 -91.5t-38.5 -91.5t-93.5 -38.5zM510 -26q-194 0 -321 125.5t-127 318.5q0 61 16.5 116t38.5 94t61.5 80t67.5 64.5t74 57.5q63 46 97.5 79t56.5 75t22 90v76h130v-76q0 -47 -13.5 -90t-32 -74.5
t-51.5 -66.5t-59 -57t-68 -54t-65 -51t-54.5 -51.5t-48 -60.5t-28.5 -67.5t-12 -83.5q0 -136 89.5 -225t226.5 -89t232 99t86 235h132q6 -125 -53 -232t-165 -169.5t-232 -62.5z" />
    <glyph glyph-name="Agrave" unicode="&#xc0;" horiz-adv-x="1270" 
d="M570 1890l124 -254h-128l-152 254h156zM328 454l-170 -454h-138l550 1460h132l550 -1460h-138l-170 454h-616zM900 576l-264 704l-264 -704h528z" />
    <glyph glyph-name="Aacute" unicode="&#xc1;" horiz-adv-x="1270" 
d="M863 1910l-158 -252h-128l128 252h158zM328 454l-170 -454h-138l550 1460h132l550 -1460h-138l-170 454h-616zM900 576l-264 704l-264 -704h528z" />
    <glyph glyph-name="Acircumflex" unicode="&#xc2;" horiz-adv-x="1270" 
d="M631 1801l-104 -154h-146l166 254h166l166 -254h-146zM328 454l-170 -454h-138l550 1460h132l550 -1460h-138l-170 454h-616zM900 576l-264 704l-264 -704h528z" />
    <glyph glyph-name="Atilde" unicode="&#xc3;" horiz-adv-x="1270" 
d="M486 1667h-105q-7 102 28.5 163t102.5 61q55 0 121 -62q18 -15 27 -22t23 -13.5t27 -6.5q23 0 32 23t8 81h105q4 -107 -33 -165.5t-110 -58.5q-27 0 -54.5 12.5t-39 22t-36.5 31.5q-40 38 -59 38q-40 0 -37 -104zM328 454l-170 -454h-138l550 1460h132l550 -1460h-138
l-170 454h-616zM900 576l-264 704l-264 -704h528z" />
    <glyph glyph-name="Adieresis" unicode="&#xc4;" horiz-adv-x="1270" 
d="M484 1684q-43 0 -73.5 30.5t-30.5 71.5q0 44 30.5 75t73.5 31q41 0 72.5 -31.5t31.5 -74.5q0 -42 -31 -72t-73 -30zM748 1684q-43 0 -73.5 30.5t-30.5 71.5q0 44 30.5 75t73.5 31q41 0 72.5 -31.5t31.5 -74.5q0 -42 -31 -72t-73 -30zM328 454l-170 -454h-138l550 1460
h132l550 -1460h-138l-170 454h-616zM900 576l-264 704l-264 -704h528z" />
    <glyph glyph-name="Aring" unicode="&#xc5;" horiz-adv-x="1270" 
d="M614 1558q-81 0 -132 48.5t-51 124.5q0 72 52.5 121.5t130.5 49.5q77 0 129.5 -49t52.5 -122t-52.5 -123t-129.5 -50zM614 1661q31 0 50 19t19 51q0 31 -19.5 50.5t-49.5 19.5t-49.5 -19.5t-19.5 -50.5q0 -32 19 -51t50 -19zM328 454l-170 -454h-138l550 1460h132
l550 -1460h-138l-170 454h-616zM900 576l-264 704l-264 -704h528z" />
    <glyph glyph-name="AE" unicode="&#xc6;" horiz-adv-x="1557" 
d="M1537 128v-128h-914v452h-295l-170 -454h-138l550 1460l965 2v-128h-776v-536h710v-128h-710v-540h778zM623 1243l-251 -669h251v669z" />
    <glyph glyph-name="Ccedilla" unicode="&#xc7;" horiz-adv-x="1456" 
d="M786 -21v-9l-26 -54q8 2 22 2q65 0 106.5 -40t41.5 -104q0 -70 -50 -114t-128 -44q-81 0 -134 36v122q59 -48 124 -48q31 0 49.5 12t18.5 32q0 44 -58 44q-24 0 -42.5 -6t-67.5 -28l-26 72l61 130q-132 14 -243 75.5t-189 158.5t-121.5 229t-43.5 285q0 220 86.5 391.5
t242.5 267t357 95.5q231 0 401.5 -135.5t212.5 -354.5h-146q-44 165 -171.5 261.5t-302.5 96.5q-242 0 -392 -171.5t-150 -450.5q0 -277 150 -448.5t392 -171.5q175 0 306 91.5t176 244.5h146q-43 -202 -210 -330.5t-392 -136.5z" />
    <glyph glyph-name="Egrave" unicode="&#xc8;" horiz-adv-x="1194" 
d="M638 1888l124 -254h-128l-152 254h156zM1082 128v-128h-914v1460h912v-128h-776v-536h710v-128h-710v-540h778z" />
    <glyph glyph-name="Eacute" unicode="&#xc9;" horiz-adv-x="1194" 
d="M816 1908l-158 -252h-128l128 252h158zM1082 128v-128h-914v1460h912v-128h-776v-536h710v-128h-710v-540h778z" />
    <glyph glyph-name="Ecircumflex" unicode="&#xca;" horiz-adv-x="1194" 
d="M631 1799l-104 -154h-146l166 254h166l166 -254h-146zM1082 128v-128h-914v1460h912v-128h-776v-536h710v-128h-710v-540h778z" />
    <glyph glyph-name="Edieresis" unicode="&#xcb;" horiz-adv-x="1194" 
d="M484 1682q-43 0 -73.5 30.5t-30.5 71.5q0 44 30.5 75t73.5 31q41 0 72.5 -31.5t31.5 -74.5q0 -42 -31 -72t-73 -30zM748 1682q-43 0 -73.5 30.5t-30.5 71.5q0 44 30.5 75t73.5 31q41 0 72.5 -31.5t31.5 -74.5q0 -42 -31 -72t-73 -30zM1082 128v-128h-914v1460h912v-128
h-776v-536h710v-128h-710v-540h778z" />
    <glyph glyph-name="Igrave" unicode="&#xcc;" horiz-adv-x="472" 
d="M166 1888l124 -254h-128l-152 254h156zM304 1460v-1460h-136v1460h136z" />
    <glyph glyph-name="Iacute" unicode="&#xcd;" horiz-adv-x="472" 
d="M453 1908l-158 -252h-128l128 252h158zM304 1460v-1460h-136v1460h136z" />
    <glyph glyph-name="Icircumflex" unicode="&#xce;" horiz-adv-x="472" 
d="M247 1799l-104 -154h-146l166 254h166l166 -254h-146zM304 1460v-1460h-136v1460h136z" />
    <glyph glyph-name="Idieresis" unicode="&#xcf;" horiz-adv-x="472" 
d="M115 1682q-43 0 -73.5 30.5t-30.5 71.5q0 44 30.5 75t73.5 31q41 0 72.5 -31.5t31.5 -74.5q0 -42 -31 -72t-73 -30zM379 1682q-43 0 -73.5 30.5t-30.5 71.5q0 44 30.5 75t73.5 31q41 0 72.5 -31.5t31.5 -74.5q0 -42 -31 -72t-73 -30zM304 1460v-1460h-136v1460h136z" />
    <glyph glyph-name="Ntilde" unicode="&#xd1;" horiz-adv-x="1404" 
d="M559 1665h-105q-7 102 28.5 163t102.5 61q55 0 121 -62q18 -15 27 -22t23 -13.5t27 -6.5q23 0 32 23t8 81h105q4 -107 -33 -165.5t-110 -58.5q-27 0 -54.5 12.5t-39 22t-36.5 31.5q-40 38 -59 38q-40 0 -37 -104zM298 1460l800 -1208v1208h136v-1460h-128l-802 1212
v-1212h-136v1460h130z" />
    <glyph glyph-name="Ograve" unicode="&#xd2;" horiz-adv-x="1514" 
d="M756 1888l124 -254h-128l-152 254h156zM756 -26q-200 0 -353.5 94.5t-238 266.5t-84.5 395t84.5 395t238 266.5t353.5 94.5t353.5 -94.5t238 -266.5t84.5 -395t-84.5 -395t-238 -266.5t-353.5 -94.5zM756 98q242 0 394 176t152 456q0 282 -151.5 457t-394.5 175
t-393.5 -174.5t-150.5 -457.5q0 -282 151 -457t393 -175z" />
    <glyph glyph-name="Oacute" unicode="&#xd3;" horiz-adv-x="1514" 
d="M950 1908l-158 -252h-128l128 252h158zM756 -26q-200 0 -353.5 94.5t-238 266.5t-84.5 395t84.5 395t238 266.5t353.5 94.5t353.5 -94.5t238 -266.5t84.5 -395t-84.5 -395t-238 -266.5t-353.5 -94.5zM756 98q242 0 394 176t152 456q0 282 -151.5 457t-394.5 175
t-393.5 -174.5t-150.5 -457.5q0 -282 151 -457t393 -175z" />
    <glyph glyph-name="Ocircumflex" unicode="&#xd4;" horiz-adv-x="1514" 
d="M768 1799l-104 -154h-146l166 254h166l166 -254h-146zM756 -26q-200 0 -353.5 94.5t-238 266.5t-84.5 395t84.5 395t238 266.5t353.5 94.5t353.5 -94.5t238 -266.5t84.5 -395t-84.5 -395t-238 -266.5t-353.5 -94.5zM756 98q242 0 394 176t152 456q0 282 -151.5 457
t-394.5 175t-393.5 -174.5t-150.5 -457.5q0 -282 151 -457t393 -175z" />
    <glyph glyph-name="Otilde" unicode="&#xd5;" horiz-adv-x="1514" 
d="M593 1665h-105q-7 102 28.5 163t102.5 61q55 0 121 -62q18 -15 27 -22t23 -13.5t27 -6.5q23 0 32 23t8 81h105q4 -107 -33 -165.5t-110 -58.5q-27 0 -54.5 12.5t-39 22t-36.5 31.5q-40 38 -59 38q-40 0 -37 -104zM756 -26q-200 0 -353.5 94.5t-238 266.5t-84.5 395
t84.5 395t238 266.5t353.5 94.5t353.5 -94.5t238 -266.5t84.5 -395t-84.5 -395t-238 -266.5t-353.5 -94.5zM756 98q242 0 394 176t152 456q0 282 -151.5 457t-394.5 175t-393.5 -174.5t-150.5 -457.5q0 -282 151 -457t393 -175z" />
    <glyph glyph-name="Odieresis" unicode="&#xd6;" horiz-adv-x="1514" 
d="M635 1682q-43 0 -73.5 30.5t-30.5 71.5q0 44 30.5 75t73.5 31q41 0 72.5 -31.5t31.5 -74.5q0 -42 -31 -72t-73 -30zM899 1682q-43 0 -73.5 30.5t-30.5 71.5q0 44 30.5 75t73.5 31q41 0 72.5 -31.5t31.5 -74.5q0 -42 -31 -72t-73 -30zM756 -26q-200 0 -353.5 94.5
t-238 266.5t-84.5 395t84.5 395t238 266.5t353.5 94.5t353.5 -94.5t238 -266.5t84.5 -395t-84.5 -395t-238 -266.5t-353.5 -94.5zM756 98q242 0 394 176t152 456q0 282 -151.5 457t-394.5 175t-393.5 -174.5t-150.5 -457.5q0 -282 151 -457t393 -175z" />
    <glyph glyph-name="multiply" unicode="&#xd7;" horiz-adv-x="1340" 
d="M1050 224l-380 380l-380 -380l-90 90l380 380l-378 378l90 90l378 -378l380 378l90 -90l-380 -378l380 -380z" />
    <glyph glyph-name="Oslash" unicode="&#xd8;" horiz-adv-x="1514" 
d="M1390 1457l-139 -187q181 -208 181 -540q0 -223 -84.5 -395t-238 -266.5t-353.5 -94.5q-218 0 -381 113l-68 -91h-136l120 162q-102 101 -156.5 247.5t-54.5 324.5q0 223 84.5 395t238 266.5t353.5 94.5q242 0 415 -139l81 110h138zM212 730q0 -290 158 -465l724 978
q-141 119 -338 119q-243 0 -393.5 -174.5t-150.5 -457.5zM756 98q242 0 394 176t152 456q0 260 -131 432l-719 -970q131 -94 304 -94z" />
    <glyph glyph-name="Ugrave" unicode="&#xd9;" horiz-adv-x="1370" 
d="M687 1888l124 -254h-128l-152 254h156zM688 -24q-248 0 -389 139.5t-141 386.5v958h136v-956q0 -192 100.5 -293t293.5 -101q188 0 288 101t100 293v956h136v-958q0 -246 -139 -386t-385 -140z" />
    <glyph glyph-name="Uacute" unicode="&#xda;" horiz-adv-x="1370" 
d="M843 1908l-158 -252h-128l128 252h158zM688 -24q-248 0 -389 139.5t-141 386.5v958h136v-956q0 -192 100.5 -293t293.5 -101q188 0 288 101t100 293v956h136v-958q0 -246 -139 -386t-385 -140z" />
    <glyph glyph-name="Ucircumflex" unicode="&#xdb;" horiz-adv-x="1370" 
d="M702 1799l-104 -154h-146l166 254h166l166 -254h-146zM688 -24q-248 0 -389 139.5t-141 386.5v958h136v-956q0 -192 100.5 -293t293.5 -101q188 0 288 101t100 293v956h136v-958q0 -246 -139 -386t-385 -140z" />
    <glyph glyph-name="Udieresis" unicode="&#xdc;" horiz-adv-x="1370" 
d="M538 1682q-43 0 -73.5 30.5t-30.5 71.5q0 44 30.5 75t73.5 31q41 0 72.5 -31.5t31.5 -74.5q0 -42 -31 -72t-73 -30zM802 1682q-43 0 -73.5 30.5t-30.5 71.5q0 44 30.5 75t73.5 31q41 0 72.5 -31.5t31.5 -74.5q0 -42 -31 -72t-73 -30zM688 -24q-248 0 -389 139.5
t-141 386.5v958h136v-956q0 -192 100.5 -293t293.5 -101q188 0 288 101t100 293v956h136v-958q0 -246 -139 -386t-385 -140z" />
    <glyph glyph-name="Yacute" unicode="&#xdd;" horiz-adv-x="1252" 
d="M861 1886l-158 -252h-128l128 252h158zM694 624v-626h-136v626l-550 834h156l462 -708l462 708h156z" />
    <glyph glyph-name="germandbls" unicode="&#xdf;" horiz-adv-x="1201" 
d="M300 1332v-1758h-132v1886h899v-108l-408 -442q208 -14 335 -137.5t127 -314.5q0 -216 -139.5 -349t-364.5 -133v130q169 0 268.5 97t99.5 259q0 155 -108.5 240.5t-307.5 85.5h-108v98l410 446h-571z" />
    <glyph glyph-name="agrave" unicode="&#xe0;" horiz-adv-x="1036" 
d="M515 1458l124 -254h-128l-152 254h156zM520 1024q185 0 287.5 -96.5t102.5 -271.5v-656h-132v132q-57 -75 -147 -115.5t-199 -40.5q-156 0 -250 81t-94 217t97.5 219.5t280.5 104.5l176 20q105 12 136 40q-6 242 -260 242q-131 0 -200.5 -59.5t-63.5 -164.5h-132
q-9 156 101.5 252t296.5 96zM444 98q155 0 244.5 101.5t89.5 278.5v52q-88 -26 -300 -44q-127 -16 -192.5 -69.5t-65.5 -140.5q0 -84 58.5 -131t165.5 -47z" />
    <glyph glyph-name="aacute" unicode="&#xe1;" horiz-adv-x="1036" 
d="M684 1458l-158 -252h-128l128 252h158zM520 1024q185 0 287.5 -96.5t102.5 -271.5v-656h-132v132q-57 -75 -147 -115.5t-199 -40.5q-156 0 -250 81t-94 217t97.5 219.5t280.5 104.5l176 20q105 12 136 40q-6 242 -260 242q-131 0 -200.5 -59.5t-63.5 -164.5h-132
q-9 156 101.5 252t296.5 96zM444 98q155 0 244.5 101.5t89.5 278.5v52q-88 -26 -300 -44q-127 -16 -192.5 -69.5t-65.5 -140.5q0 -84 58.5 -131t165.5 -47z" />
    <glyph glyph-name="acircumflex" unicode="&#xe2;" horiz-adv-x="1036" 
d="M526 1363l-104 -154h-146l166 254h166l166 -254h-146zM520 1024q185 0 287.5 -96.5t102.5 -271.5v-656h-132v132q-57 -75 -147 -115.5t-199 -40.5q-156 0 -250 81t-94 217t97.5 219.5t280.5 104.5l176 20q105 12 136 40q-6 242 -260 242q-131 0 -200.5 -59.5
t-63.5 -164.5h-132q-9 156 101.5 252t296.5 96zM444 98q155 0 244.5 101.5t89.5 278.5v52q-88 -26 -300 -44q-127 -16 -192.5 -69.5t-65.5 -140.5q0 -84 58.5 -131t165.5 -47z" />
    <glyph glyph-name="atilde" unicode="&#xe3;" horiz-adv-x="1036" 
d="M378 1241h-105q-7 102 28.5 163t102.5 61q55 0 121 -62q18 -15 27 -22t23 -13.5t27 -6.5q23 0 32 23t8 81h105q4 -107 -33 -165.5t-110 -58.5q-27 0 -54.5 12.5t-39 22t-36.5 31.5q-40 38 -59 38q-40 0 -37 -104zM520 1024q185 0 287.5 -96.5t102.5 -271.5v-656h-132v132
q-57 -75 -147 -115.5t-199 -40.5q-156 0 -250 81t-94 217t97.5 219.5t280.5 104.5l176 20q105 12 136 40q-6 242 -260 242q-131 0 -200.5 -59.5t-63.5 -164.5h-132q-9 156 101.5 252t296.5 96zM444 98q155 0 244.5 101.5t89.5 278.5v52q-88 -26 -300 -44
q-127 -16 -192.5 -69.5t-65.5 -140.5q0 -84 58.5 -131t165.5 -47z" />
    <glyph glyph-name="adieresis" unicode="&#xe4;" horiz-adv-x="1036" 
d="M381 1251q-43 0 -73.5 30.5t-30.5 71.5q0 44 30.5 75t73.5 31q41 0 72.5 -31.5t31.5 -74.5q0 -42 -31 -72t-73 -30zM645 1251q-43 0 -73.5 30.5t-30.5 71.5q0 44 30.5 75t73.5 31q41 0 72.5 -31.5t31.5 -74.5q0 -42 -31 -72t-73 -30zM520 1024q185 0 287.5 -96.5
t102.5 -271.5v-656h-132v132q-57 -75 -147 -115.5t-199 -40.5q-156 0 -250 81t-94 217t97.5 219.5t280.5 104.5l176 20q105 12 136 40q-6 242 -260 242q-131 0 -200.5 -59.5t-63.5 -164.5h-132q-9 156 101.5 252t296.5 96zM444 98q155 0 244.5 101.5t89.5 278.5v52
q-88 -26 -300 -44q-127 -16 -192.5 -69.5t-65.5 -140.5q0 -84 58.5 -131t165.5 -47z" />
    <glyph glyph-name="aring" unicode="&#xe5;" horiz-adv-x="1036" 
d="M520 1128q-81 0 -132 48.5t-51 124.5q0 72 52.5 121.5t130.5 49.5q77 0 129.5 -49t52.5 -122t-52.5 -123t-129.5 -50zM520 1231q31 0 50 19t19 51q0 31 -19.5 50.5t-49.5 19.5t-49.5 -19.5t-19.5 -50.5q0 -32 19 -51t50 -19zM520 1024q185 0 287.5 -96.5t102.5 -271.5
v-656h-132v132q-57 -75 -147 -115.5t-199 -40.5q-156 0 -250 81t-94 217t97.5 219.5t280.5 104.5l176 20q105 12 136 40q-6 242 -260 242q-131 0 -200.5 -59.5t-63.5 -164.5h-132q-9 156 101.5 252t296.5 96zM444 98q155 0 244.5 101.5t89.5 278.5v52q-88 -26 -300 -44
q-127 -16 -192.5 -69.5t-65.5 -140.5q0 -84 58.5 -131t165.5 -47z" />
    <glyph glyph-name="ae" unicode="&#xe6;" horiz-adv-x="1804" 
d="M520 1024q132 0 224 -50.5t133 -145.5q61 94 158.5 145t220.5 51q211 0 339.5 -143t128.5 -377v-28l-808 2q6 -172 99.5 -276t240.5 -104q110 2 194 61.5t112 158.5h132q-33 -154 -154 -248t-284 -94q-218 0 -346 153v-129h-132v132q-57 -75 -147 -115.5t-199 -40.5
q-156 0 -250 81t-94 217t97.5 219.5t280.5 104.5l176 20q105 12 136 40q-6 242 -260 242q-131 0 -200.5 -59.5t-63.5 -164.5h-132q-9 156 101.5 252t296.5 96zM924 594l664 -2q-22 144 -111.5 227t-220.5 83q-130 0 -220 -83t-112 -225zM220 276q0 -84 58.5 -131t165.5 -47
q155 0 244.5 101.5t89.5 278.5v52q-88 -26 -300 -44q-127 -16 -192.5 -69.5t-65.5 -140.5z" />
    <glyph glyph-name="ccedilla" unicode="&#xe7;" horiz-adv-x="1038" 
d="M564 -23v-4l-26 -54q8 2 22 2q65 0 106.5 -40t41.5 -104q0 -70 -50 -114t-128 -44q-81 0 -134 36v122q59 -48 124 -48q31 0 49.5 12t18.5 32q0 44 -58 44q-24 0 -42.5 -6t-67.5 -28l-26 72l60 127q-175 28 -279.5 166.5t-104.5 347.5q0 237 131 382.5t345 145.5
q165 0 282.5 -93.5t147.5 -250.5h-134q-24 101 -104.5 161.5t-191.5 60.5q-156 0 -251 -110.5t-95 -293.5q0 -180 92 -289t242 -109q113 0 198.5 59.5t113.5 158.5h134q-33 -147 -146 -239.5t-270 -101.5z" />
    <glyph glyph-name="egrave" unicode="&#xe8;" horiz-adv-x="1076" 
d="M495 1462l124 -254h-128l-152 254h156zM538 -24q-211 0 -338 144t-130 384q3 236 130.5 378t337.5 142q211 0 339.5 -143t128.5 -377v-28l-808 2q6 -172 99.5 -276t240.5 -104q110 2 194 61.5t112 158.5h132q-33 -154 -154 -248t-284 -94zM206 594l664 -2
q-22 144 -111.5 227t-220.5 83q-130 0 -220 -83t-112 -225z" />
    <glyph glyph-name="eacute" unicode="&#xe9;" horiz-adv-x="1076" 
d="M762 1460l-158 -252h-128l128 252h158zM538 -24q-211 0 -338 144t-130 384q3 236 130.5 378t337.5 142q211 0 339.5 -143t128.5 -377v-28l-808 2q6 -172 99.5 -276t240.5 -104q110 2 194 61.5t112 158.5h132q-33 -154 -154 -248t-284 -94zM206 594l664 -2
q-22 144 -111.5 227t-220.5 83q-130 0 -220 -83t-112 -225z" />
    <glyph glyph-name="ecircumflex" unicode="&#xea;" horiz-adv-x="1076" 
d="M526 1367l-104 -154h-146l166 254h166l166 -254h-146zM538 -24q-211 0 -338 144t-130 384q3 236 130.5 378t337.5 142q211 0 339.5 -143t128.5 -377v-28l-808 2q6 -172 99.5 -276t240.5 -104q110 2 194 61.5t112 158.5h132q-33 -154 -154 -248t-284 -94zM206 594l664 -2
q-22 144 -111.5 227t-220.5 83q-130 0 -220 -83t-112 -225z" />
    <glyph glyph-name="edieresis" unicode="&#xeb;" horiz-adv-x="1076" 
d="M413 1252q-43 0 -73.5 30.5t-30.5 71.5q0 44 30.5 75t73.5 31q41 0 72.5 -31.5t31.5 -74.5q0 -42 -31 -72t-73 -30zM677 1252q-43 0 -73.5 30.5t-30.5 71.5q0 44 30.5 75t73.5 31q41 0 72.5 -31.5t31.5 -74.5q0 -42 -31 -72t-73 -30zM538 -24q-211 0 -338 144t-130 384
q3 236 130.5 378t337.5 142q211 0 339.5 -143t128.5 -377v-28l-808 2q6 -172 99.5 -276t240.5 -104q110 2 194 61.5t112 158.5h132q-33 -154 -154 -248t-284 -94zM206 594l664 -2q-22 144 -111.5 227t-220.5 83q-130 0 -220 -83t-112 -225z" />
    <glyph glyph-name="igrave" unicode="&#xec;" horiz-adv-x="416" 
d="M156 1452l124 -254h-128l-152 254h156zM274 1000v-1000h-132v1000h132z" />
    <glyph glyph-name="iacute" unicode="&#xed;" horiz-adv-x="416" 
d="M433 1464l-158 -252h-128l128 252h158zM274 1000v-1000h-132v1000h132z" />
    <glyph glyph-name="icircumflex" unicode="&#xee;" horiz-adv-x="416" 
d="M208 1367l-104 -154h-146l166 254h166l166 -254h-146zM274 1000v-1000h-132v1000h132z" />
    <glyph glyph-name="idieresis" unicode="&#xef;" horiz-adv-x="416" 
d="M77 1255q-43 0 -73.5 30.5t-30.5 71.5q0 44 30.5 75t73.5 31q41 0 72.5 -31.5t31.5 -74.5q0 -42 -31 -72t-73 -30zM341 1255q-43 0 -73.5 30.5t-30.5 71.5q0 44 30.5 75t73.5 31q41 0 72.5 -31.5t31.5 -74.5q0 -42 -31 -72t-73 -30zM274 1000v-1000h-132v1000h132z" />
    <glyph glyph-name="ntilde" unicode="&#xf1;" horiz-adv-x="1112" 
d="M418 1231h-105q-7 102 28.5 163t102.5 61q55 0 121 -62q18 -15 27 -22t23 -13.5t27 -6.5q23 0 32 23t8 81h105q4 -107 -33 -165.5t-110 -58.5q-27 0 -54.5 12.5t-39 22t-36.5 31.5q-40 38 -59 38q-40 0 -37 -104zM592 1024q195 0 294.5 -106.5t99.5 -313.5v-604h-132v586
q0 165 -63 239.5t-201 74.5q-149 0 -234.5 -102t-85.5 -282v-516h-132v1000h134v-134q56 74 140.5 116t179.5 42z" />
    <glyph glyph-name="ograve" unicode="&#xf2;" horiz-adv-x="1092" 
d="M570 1453l124 -254h-128l-152 254h156zM546 -24q-214 0 -343.5 144t-132.5 384q3 234 133 377t343 143t343 -143t133 -377q-3 -240 -132.5 -384t-343.5 -144zM546 98q155 0 250.5 110.5t95.5 291.5t-95.5 291.5t-250.5 110.5t-250.5 -110.5t-95.5 -291.5t95.5 -291.5
t250.5 -110.5z" />
    <glyph glyph-name="oacute" unicode="&#xf3;" horiz-adv-x="1092" 
d="M724 1467l-158 -252h-128l128 252h158zM546 -24q-214 0 -343.5 144t-132.5 384q3 234 133 377t343 143t343 -143t133 -377q-3 -240 -132.5 -384t-343.5 -144zM546 98q155 0 250.5 110.5t95.5 291.5t-95.5 291.5t-250.5 110.5t-250.5 -110.5t-95.5 -291.5t95.5 -291.5
t250.5 -110.5z" />
    <glyph glyph-name="ocircumflex" unicode="&#xf4;" horiz-adv-x="1092" 
d="M541 1352l-104 -154h-146l166 254h166l166 -254h-146zM546 -24q-214 0 -343.5 144t-132.5 384q3 234 133 377t343 143t343 -143t133 -377q-3 -240 -132.5 -384t-343.5 -144zM546 98q155 0 250.5 110.5t95.5 291.5t-95.5 291.5t-250.5 110.5t-250.5 -110.5t-95.5 -291.5
t95.5 -291.5t250.5 -110.5z" />
    <glyph glyph-name="otilde" unicode="&#xf5;" horiz-adv-x="1092" 
d="M420 1239h-105q-7 102 28.5 163t102.5 61q55 0 121 -62q18 -15 27 -22t23 -13.5t27 -6.5q23 0 32 23t8 81h105q4 -107 -33 -165.5t-110 -58.5q-27 0 -54.5 12.5t-39 22t-36.5 31.5q-40 38 -59 38q-40 0 -37 -104zM546 -24q-214 0 -343.5 144t-132.5 384q3 234 133 377
t343 143t343 -143t133 -377q-3 -240 -132.5 -384t-343.5 -144zM546 98q155 0 250.5 110.5t95.5 291.5t-95.5 291.5t-250.5 110.5t-250.5 -110.5t-95.5 -291.5t95.5 -291.5t250.5 -110.5z" />
    <glyph glyph-name="odieresis" unicode="&#xf6;" horiz-adv-x="1092" 
d="M418 1250q-43 0 -73.5 30.5t-30.5 71.5q0 44 30.5 75t73.5 31q41 0 72.5 -31.5t31.5 -74.5q0 -42 -31 -72t-73 -30zM682 1250q-43 0 -73.5 30.5t-30.5 71.5q0 44 30.5 75t73.5 31q41 0 72.5 -31.5t31.5 -74.5q0 -42 -31 -72t-73 -30zM546 -24q-214 0 -343.5 144
t-132.5 384q3 234 133 377t343 143t343 -143t133 -377q-3 -240 -132.5 -384t-343.5 -144zM546 98q155 0 250.5 110.5t95.5 291.5t-95.5 291.5t-250.5 110.5t-250.5 -110.5t-95.5 -291.5t95.5 -291.5t250.5 -110.5z" />
    <glyph glyph-name="divide" unicode="&#xf7;" horiz-adv-x="1348" 
d="M674 886q-54 0 -92 38t-38 90q0 53 38 91.5t92 38.5q53 0 91.5 -38t38.5 -92q0 -52 -38 -90t-92 -38zM1194 686v-128h-1040v128h1040zM674 98q-54 0 -92 38t-38 90q0 53 38 91.5t92 38.5q53 0 91.5 -38t38.5 -92q0 -52 -38 -90t-92 -38z" />
    <glyph glyph-name="oslash" unicode="&#xf8;" horiz-adv-x="1092" 
d="M934 1098l-102 -165q89 -67 139 -178t51 -251q-3 -240 -132.5 -384t-343.5 -144q-148 0 -261 73l-79 -129h-136l127 206q-124 143 -127 378q3 234 133 377t343 143q98 0 184 -33l66 107h138zM200 500q0 -152 69 -257l394 640q-57 19 -117 19q-155 0 -250.5 -110.5
t-95.5 -291.5zM546 98q155 0 250.5 110.5t95.5 291.5q0 213 -128 324l-412 -667q84 -59 194 -59z" />
    <glyph glyph-name="ugrave" unicode="&#xf9;" horiz-adv-x="1112" 
d="M498 1463l124 -254h-128l-152 254h156zM842 484v516h132v-1000h-134v134q-56 -74 -140.5 -116t-179.5 -42q-195 0 -294.5 106.5t-99.5 313.5v604h132v-586q0 -165 63 -239.5t201 -74.5q149 0 234.5 102t85.5 282z" />
    <glyph glyph-name="uacute" unicode="&#xfa;" horiz-adv-x="1112" 
d="M704 1460l-158 -252h-128l128 252h158zM842 484v516h132v-1000h-134v134q-56 -74 -140.5 -116t-179.5 -42q-195 0 -294.5 106.5t-99.5 313.5v604h132v-586q0 -165 63 -239.5t201 -74.5q149 0 234.5 102t85.5 282z" />
    <glyph glyph-name="ucircumflex" unicode="&#xfb;" horiz-adv-x="1112" 
d="M558 1356l-104 -154h-146l166 254h166l166 -254h-146zM842 484v516h132v-1000h-134v134q-56 -74 -140.5 -116t-179.5 -42q-195 0 -294.5 106.5t-99.5 313.5v604h132v-586q0 -165 63 -239.5t201 -74.5q149 0 234.5 102t85.5 282z" />
    <glyph glyph-name="udieresis" unicode="&#xfc;" horiz-adv-x="1112" 
d="M420 1259q-43 0 -73.5 30.5t-30.5 71.5q0 44 30.5 75t73.5 31q41 0 72.5 -31.5t31.5 -74.5q0 -42 -31 -72t-73 -30zM684 1259q-43 0 -73.5 30.5t-30.5 71.5q0 44 30.5 75t73.5 31q41 0 72.5 -31.5t31.5 -74.5q0 -42 -31 -72t-73 -30zM842 484v516h132v-1000h-134v134
q-56 -74 -140.5 -116t-179.5 -42q-195 0 -294.5 106.5t-99.5 313.5v604h132v-586q0 -165 63 -239.5t201 -74.5q149 0 234.5 102t85.5 282z" />
    <glyph glyph-name="yacute" unicode="&#xfd;" horiz-adv-x="928" 
d="M606 1450l-158 -252h-128l128 252h158zM196 -418q-83 0 -150 16v112q90 -12 152 -12q68 2 101.5 29t60.5 103l48 124l-398 1046h138l324 -862l310 862h136l-434 -1208q-40 -108 -110.5 -159t-177.5 -51z" />
    <glyph glyph-name="ydieresis" unicode="&#xff;" horiz-adv-x="928" 
d="M322 1208q-43 0 -73.5 30.5t-30.5 71.5q0 44 30.5 75t73.5 31q41 0 72.5 -31.5t31.5 -74.5q0 -42 -31 -72t-73 -30zM586 1208q-43 0 -73.5 30.5t-30.5 71.5q0 44 30.5 75t73.5 31q41 0 72.5 -31.5t31.5 -74.5q0 -42 -31 -72t-73 -30zM196 -418q-83 0 -150 16v112
q90 -12 152 -12q68 2 101.5 29t60.5 103l48 124l-398 1046h138l324 -862l310 862h136l-434 -1208q-40 -108 -110.5 -159t-177.5 -51z" />
    <glyph glyph-name="Cacute" unicode="&#x106;" horiz-adv-x="1456" 
d="M953 1908l-158 -252h-128l128 252h158zM758 -22q-198 0 -352.5 95.5t-240 266.5t-85.5 390q0 220 86.5 391.5t242.5 267t357 95.5q231 0 401.5 -135.5t212.5 -354.5h-146q-44 165 -171.5 261.5t-302.5 96.5q-242 0 -392 -171.5t-150 -450.5q0 -277 150 -448.5t392 -171.5
q175 0 306 91.5t176 244.5h146q-45 -208 -220.5 -338t-409.5 -130z" />
    <glyph glyph-name="cacute" unicode="&#x107;" horiz-adv-x="1038" 
d="M742 1456l-158 -252h-128l128 252h158zM534 -24q-208 0 -336 143.5t-128 376.5q0 237 131 382.5t345 145.5q165 0 282.5 -93.5t147.5 -250.5h-134q-24 101 -104.5 161.5t-191.5 60.5q-156 0 -251 -110.5t-95 -293.5q0 -180 92 -289t242 -109q113 0 198.5 59.5
t113.5 158.5h134q-34 -154 -156.5 -248t-289.5 -94z" />
    <glyph glyph-name="Ccaron" unicode="&#x10c;" horiz-adv-x="1456" 
d="M1013 1903l-166 -254h-166l-166 254h146l104 -154l102 154h146zM758 -22q-198 0 -352.5 95.5t-240 266.5t-85.5 390q0 220 86.5 391.5t242.5 267t357 95.5q231 0 401.5 -135.5t212.5 -354.5h-146q-44 165 -171.5 261.5t-302.5 96.5q-242 0 -392 -171.5t-150 -450.5
q0 -277 150 -448.5t392 -171.5q175 0 306 91.5t176 244.5h146q-45 -208 -220.5 -338t-409.5 -130z" />
    <glyph glyph-name="ccaron" unicode="&#x10d;" horiz-adv-x="1038" 
d="M792 1464l-166 -254h-166l-166 254h146l104 -154l102 154h146zM534 -24q-208 0 -336 143.5t-128 376.5q0 237 131 382.5t345 145.5q165 0 282.5 -93.5t147.5 -250.5h-134q-24 101 -104.5 161.5t-191.5 60.5q-156 0 -251 -110.5t-95 -293.5q0 -180 92 -289t242 -109
q113 0 198.5 59.5t113.5 158.5h134q-34 -154 -156.5 -248t-289.5 -94z" />
    <glyph glyph-name="Ecaron" unicode="&#x11a;" horiz-adv-x="1194" 
d="M867 1907l-166 -254h-166l-166 254h146l104 -154l102 154h146zM1082 128v-128h-914v1460h912v-128h-776v-536h710v-128h-710v-540h778z" />
    <glyph glyph-name="ecaron" unicode="&#x11b;" horiz-adv-x="1076" 
d="M822 1453l-166 -254h-166l-166 254h146l104 -154l102 154h146zM538 -24q-211 0 -338 144t-130 384q3 236 130.5 378t337.5 142q211 0 339.5 -143t128.5 -377v-28l-808 2q6 -172 99.5 -276t240.5 -104q110 2 194 61.5t112 158.5h132q-33 -154 -154 -248t-284 -94zM206 594
l664 -2q-22 144 -111.5 227t-220.5 83q-130 0 -220 -83t-112 -225z" />
    <glyph glyph-name="dotlessi" unicode="&#x131;" horiz-adv-x="416" 
d="M274 1000v-1000h-132v1000h132z" />
    <glyph glyph-name="Nacute" unicode="&#x143;" horiz-adv-x="1404" 
d="M878 1908l-158 -252h-128l128 252h158zM298 1460l800 -1208v1208h136v-1460h-128l-802 1212v-1212h-136v1460h130z" />
    <glyph glyph-name="nacute" unicode="&#x144;" horiz-adv-x="1112" 
d="M809 1450l-158 -252h-128l128 252h158zM592 1024q195 0 294.5 -106.5t99.5 -313.5v-604h-132v586q0 165 -63 239.5t-201 74.5q-149 0 -234.5 -102t-85.5 -282v-516h-132v1000h134v-134q56 74 140.5 116t179.5 42z" />
    <glyph glyph-name="Ncaron" unicode="&#x147;" horiz-adv-x="1404" 
d="M957 1895l-166 -254h-166l-166 254h146l104 -154l102 154h146zM298 1460l800 -1208v1208h136v-1460h-128l-802 1212v-1212h-136v1460h130z" />
    <glyph glyph-name="ncaron" unicode="&#x148;" horiz-adv-x="1112" 
d="M838 1455l-166 -254h-166l-166 254h146l104 -154l102 154h146zM592 1024q195 0 294.5 -106.5t99.5 -313.5v-604h-132v586q0 165 -63 239.5t-201 74.5q-149 0 -234.5 -102t-85.5 -282v-516h-132v1000h134v-134q56 74 140.5 116t179.5 42z" />
    <glyph glyph-name="OE" unicode="&#x152;" horiz-adv-x="2300" 
d="M756 -26q-200 0 -353.5 94.5t-238 266.5t-84.5 395t84.5 395t238 266.5t353.5 94.5q177 0 318.5 -75.5t231.5 -213.5v263h912v-128h-776v-536h710v-128h-710v-540h778v-128h-914v263q-90 -138 -231.5 -213.5t-318.5 -75.5zM212 730q0 -282 151 -457t393 -175t394 176
t152 456q0 282 -151.5 457t-394.5 175t-393.5 -174.5t-150.5 -457.5z" />
    <glyph glyph-name="oe" unicode="&#x153;" horiz-adv-x="1901" 
d="M546 -24q-214 0 -343.5 144t-132.5 384q3 234 133 377t343 143q139 0 245.5 -63.5t166.5 -178.5q58 115 163 178.5t242 63.5q211 0 339.5 -143t128.5 -377v-28l-808 2q6 -172 99.5 -276t240.5 -104q110 2 194 61.5t112 158.5h132q-33 -154 -154 -248t-284 -94
q-138 0 -242.5 63.5t-162.5 180.5q-59 -117 -165.5 -180.5t-246.5 -63.5zM200 500q0 -181 95.5 -291.5t250.5 -110.5t250.5 110.5t95.5 291.5t-95.5 291.5t-250.5 110.5t-250.5 -110.5t-95.5 -291.5zM1031 594l664 -2q-22 144 -111.5 227t-220.5 83q-130 0 -220 -83
t-112 -225z" />
    <glyph glyph-name="Sacute" unicode="&#x15a;" horiz-adv-x="1120" 
d="M724 1908l-158 -252h-128l128 252h158zM554 -24q-215 0 -348 108t-142 292h144q-3 -120 93 -195t253 -75q163 0 257.5 75t94.5 203q0 197 -236 256l-246 62q-167 42 -254.5 139t-87.5 241q0 183 132 292.5t350 109.5q195 0 317.5 -107.5t138.5 -296.5h-140
q-11 132 -92.5 204t-223.5 72q-159 0 -252.5 -74.5t-93.5 -199.5q0 -189 230 -248l252 -64q166 -44 254 -142.5t88 -241.5q0 -187 -133 -298.5t-355 -111.5z" />
    <glyph glyph-name="sacute" unicode="&#x15b;" horiz-adv-x="858" 
d="M593 1452l-158 -252h-128l128 252h158zM410 -24q-167 0 -263.5 88t-90.5 236h130q-6 -93 52.5 -146.5t167.5 -53.5q114 0 178 45t64 125q0 63 -34.5 97.5t-121.5 56.5l-162 42q-123 32 -189.5 102t-66.5 170q0 129 97 207.5t253 78.5q162 0 256 -86.5t92 -233.5h-130
q2 93 -55 144.5t-163 51.5q-218 0 -218 -162q0 -112 158 -150l160 -42q132 -35 194 -101.5t62 -174.5q0 -132 -102.5 -213t-267.5 -81z" />
    <glyph glyph-name="Scedilla" unicode="&#x15e;" horiz-adv-x="1120" 
d="M589 -23v-10l-26 -54q8 2 22 2q65 0 106.5 -40t41.5 -104q0 -70 -50 -114t-128 -44q-81 0 -134 36v122q59 -48 124 -48q31 0 49.5 12t18.5 32q0 44 -58 44q-24 0 -42.5 -6t-67.5 -28l-26 72l61 131q-185 18 -296.5 123.5t-119.5 272.5h144q-3 -120 93 -195t253 -75
q163 0 257.5 75t94.5 203q0 197 -236 256l-246 62q-167 42 -254.5 139t-87.5 241q0 183 132 292.5t350 109.5q195 0 317.5 -107.5t138.5 -296.5h-140q-11 132 -92.5 204t-223.5 72q-159 0 -252.5 -74.5t-93.5 -199.5q0 -189 230 -248l252 -64q166 -44 254 -142.5t88 -241.5
q0 -179 -122.5 -289.5t-330.5 -119.5z" />
    <glyph glyph-name="scedilla" unicode="&#x15f;" horiz-adv-x="858" 
d="M429 -24l-26 -54q8 2 22 2q65 0 106.5 -40t41.5 -104q0 -70 -50 -114t-128 -44q-81 0 -134 36v122q59 -48 124 -48q31 0 49.5 12t18.5 32q0 44 -58 44q-24 0 -42.5 -6t-67.5 -28l-26 72l59 126q-127 23 -197 106.5t-65 209.5h130q-6 -93 52.5 -146.5t167.5 -53.5
q114 0 178 45t64 125q0 63 -34.5 97.5t-121.5 56.5l-162 42q-123 32 -189.5 102t-66.5 170q0 129 97 207.5t253 78.5q162 0 256 -86.5t92 -233.5h-130q2 93 -55 144.5t-163 51.5q-218 0 -218 -162q0 -112 158 -150l160 -42q132 -35 194 -101.5t62 -174.5
q0 -128 -96.5 -208.5t-254.5 -85.5z" />
    <glyph glyph-name="Scaron" unicode="&#x160;" horiz-adv-x="1120" 
d="M798 1896l-166 -254h-166l-166 254h146l104 -154l102 154h146zM554 -24q-215 0 -348 108t-142 292h144q-3 -120 93 -195t253 -75q163 0 257.5 75t94.5 203q0 197 -236 256l-246 62q-167 42 -254.5 139t-87.5 241q0 183 132 292.5t350 109.5q195 0 317.5 -107.5
t138.5 -296.5h-140q-11 132 -92.5 204t-223.5 72q-159 0 -252.5 -74.5t-93.5 -199.5q0 -189 230 -248l252 -64q166 -44 254 -142.5t88 -241.5q0 -187 -133 -298.5t-355 -111.5z" />
    <glyph glyph-name="scaron" unicode="&#x161;" horiz-adv-x="858" 
d="M688 1457l-166 -254h-166l-166 254h146l104 -154l102 154h146zM410 -24q-167 0 -263.5 88t-90.5 236h130q-6 -93 52.5 -146.5t167.5 -53.5q114 0 178 45t64 125q0 63 -34.5 97.5t-121.5 56.5l-162 42q-123 32 -189.5 102t-66.5 170q0 129 97 207.5t253 78.5
q162 0 256 -86.5t92 -233.5h-130q2 93 -55 144.5t-163 51.5q-218 0 -218 -162q0 -112 158 -150l160 -42q132 -35 194 -101.5t62 -174.5q0 -132 -102.5 -213t-267.5 -81z" />
    <glyph glyph-name="Uring" unicode="&#x16e;" horiz-adv-x="1370" 
d="M681 1556q-81 0 -132 48.5t-51 124.5q0 72 52.5 121.5t130.5 49.5q77 0 129.5 -49t52.5 -122t-52.5 -123t-129.5 -50zM681 1659q31 0 50 19t19 51q0 31 -20 50.5t-49 19.5q-30 0 -49.5 -19.5t-19.5 -50.5q0 -32 19 -51t50 -19zM688 -24q-248 0 -389 139.5t-141 386.5v958
h136v-956q0 -192 100.5 -293t293.5 -101q188 0 288 101t100 293v956h136v-958q0 -246 -139 -386t-385 -140z" />
    <glyph glyph-name="uring" unicode="&#x16f;" horiz-adv-x="1112" 
d="M545 1155q-81 0 -132 48.5t-51 124.5q0 72 52.5 121.5t130.5 49.5q77 0 129.5 -49t52.5 -122t-52.5 -123t-129.5 -50zM545 1258q31 0 50 19t19 51q0 30 -20 50t-49 20q-30 0 -49.5 -19.5t-19.5 -50.5q0 -32 19 -51t50 -19zM842 484v516h132v-1000h-134v134
q-56 -74 -140.5 -116t-179.5 -42q-195 0 -294.5 106.5t-99.5 313.5v604h132v-586q0 -165 63 -239.5t201 -74.5q149 0 234.5 102t85.5 282z" />
    <glyph glyph-name="Wcircumflex" unicode="&#x174;" horiz-adv-x="1946" 
d="M977 1799l-104 -154h-146l166 254h166l166 -254h-146zM1426 240l360 1220h138l-436 -1460h-116l-400 1232l-398 -1232h-120l-432 1460h140l356 -1224l392 1224h124z" />
    <glyph glyph-name="wcircumflex" unicode="&#x175;" horiz-adv-x="1472" 
d="M746 1334l-104 -154h-146l166 254h166l166 -254h-146zM1056 218l260 782h136l-336 -1000h-122l-258 780l-260 -780h-122l-334 1000h136l260 -784l258 784h122z" />
    <glyph glyph-name="Ycircumflex" unicode="&#x176;" horiz-adv-x="1252" 
d="M631 1799l-104 -154h-146l166 254h166l166 -254h-146zM694 624v-626h-136v626l-550 834h156l462 -708l462 708h156z" />
    <glyph glyph-name="ycircumflex" unicode="&#x177;" horiz-adv-x="928" 
d="M467 1354l-104 -154h-146l166 254h166l166 -254h-146zM196 -418q-83 0 -150 16v112q90 -12 152 -12q68 2 101.5 29t60.5 103l48 124l-398 1046h138l324 -862l310 862h136l-434 -1208q-40 -108 -110.5 -159t-177.5 -51z" />
    <glyph glyph-name="Ydieresis" unicode="&#x178;" horiz-adv-x="1252" 
d="M484 1682q-43 0 -73.5 30.5t-30.5 71.5q0 44 30.5 75t73.5 31q41 0 72.5 -31.5t31.5 -74.5q0 -42 -31 -72t-73 -30zM748 1682q-43 0 -73.5 30.5t-30.5 71.5q0 44 30.5 75t73.5 31q41 0 72.5 -31.5t31.5 -74.5q0 -42 -31 -72t-73 -30zM694 624v-626h-136v626l-550 834h156
l462 -708l462 708h156z" />
    <glyph glyph-name="Zacute" unicode="&#x179;" horiz-adv-x="1170" 
d="M802 1908l-158 -252h-128l128 252h158zM1088 128v-128h-1012v112l850 1220h-846v128h1018v-112l-850 -1220h840z" />
    <glyph glyph-name="zacute" unicode="&#x17a;" horiz-adv-x="884" 
d="M602 1467l-158 -252h-128l128 252h158zM812 120v-120h-740v98l570 782h-570v120h740v-100l-568 -780h568z" />
    <glyph glyph-name="Zcaron" unicode="&#x17d;" horiz-adv-x="1170" 
d="M828 1904l-166 -254h-166l-166 254h146l104 -154l102 154h146zM1088 128v-128h-1012v112l850 1220h-846v128h1018v-112l-850 -1220h840z" />
    <glyph glyph-name="zcaron" unicode="&#x17e;" horiz-adv-x="884" 
d="M688 1460l-166 -254h-166l-166 254h146l104 -154l102 154h146zM812 120v-120h-740v98l570 782h-570v120h740v-100l-568 -780h568z" />
    <glyph glyph-name="florin" unicode="&#x192;" horiz-adv-x="1086" 
d="M298 -204h-220v128h220q31 0 53 20.5t27 53.5l106 714h-340v128h358l62 422q15 97 72.5 147.5t153.5 50.5h182v-128h-196q-71 0 -80 -74l-62 -418h340v-128h-358l-106 -718q-13 -91 -70.5 -144.5t-141.5 -53.5z" />
    <glyph glyph-name="circumflex" unicode="&#x2c6;" horiz-adv-x="634" 
d="M318 1684l-104 -154h-146l166 254h166l166 -254h-146z" />
    <glyph glyph-name="caron" unicode="&#x2c7;" horiz-adv-x="634" 
d="M566 1784l-166 -254h-166l-166 254h146l104 -154l102 154h146z" />
    <glyph glyph-name="breve" unicode="&#x2d8;" horiz-adv-x="656" 
d="M328 1524q-114 0 -178 70.5t-58 189.5h124q-9 -136 112 -136t112 136h124q6 -119 -58 -189.5t-178 -70.5z" />
    <glyph glyph-name="dotaccent" unicode="&#x2d9;" horiz-adv-x="392" 
d="M196 1576q-43 0 -73.5 30.5t-30.5 71.5q0 44 30.5 75t73.5 31q41 0 72.5 -31.5t31.5 -74.5q0 -42 -31 -72t-73 -30z" />
    <glyph glyph-name="ring" unicode="&#x2da;" horiz-adv-x="580" 
d="M290 1532q-96 0 -157 62t-61 158q0 92 62.5 155t155.5 63q92 0 155 -62.5t63 -155.5t-62.5 -156.5t-155.5 -63.5zM290 1650q42 0 68 28t26 74q0 45 -26.5 73.5t-67.5 28.5t-67.5 -28.5t-26.5 -73.5q0 -46 26 -74t68 -28z" />
    <glyph glyph-name="ogonek" unicode="&#x2db;" horiz-adv-x="372" 
d="M220 -266q-63 0 -103.5 38.5t-40.5 99.5q0 49 32.5 93.5t91.5 74.5h84l8 -36q-43 -19 -68.5 -48.5t-25.5 -59.5q0 -21 10.5 -29.5t35.5 -8.5q15 0 56 12v-122q-34 -14 -80 -14z" />
    <glyph glyph-name="tilde" unicode="&#x2dc;" horiz-adv-x="716" 
d="M206 1570h-120q-8 102 33 163t117 61q63 0 138 -62q20 -15 30.5 -22t26.5 -13.5t31 -6.5q27 0 37 23t9 81h120q5 -107 -37.5 -165.5t-126.5 -58.5q-30 0 -61 12.5t-45.5 22.5t-41.5 31q-45 38 -68 38q-45 0 -42 -104z" />
    <glyph glyph-name="hungarumlaut" unicode="&#x2dd;" horiz-adv-x="646" 
d="M352 1782l-154 -252h-124l124 252h154zM562 1782l-196 -252h-128l158 252h166z" />
    <glyph glyph-name="gravecomb" unicode="&#x300;" 
d="M136 1888l124 -254h-128l-152 254h156z" />
    <glyph glyph-name="acutecomb" unicode="&#x301;" 
d="M-61 1908l-158 -252h-128l128 252h158z" />
    <glyph glyph-name="uni0302" unicode="&#x302;" 
d="M-3 1799l-104 -154h-146l166 254h166l166 -254h-146z" />
    <glyph glyph-name="tildecomb" unicode="&#x303;" 
d="M-230 1665h-105q-7 102 28.5 163t102.5 61q55 0 121 -62q18 -15 27 -22t23 -13.5t27 -6.5q23 0 32 23t8 81h105q4 -107 -33 -165.5t-110 -58.5q-27 0 -54.5 12.5t-39 22t-36.5 31.5q-40 38 -59 38q-40 0 -37 -104z" />
    <glyph glyph-name="uni0304" unicode="&#x304;" 
d="M-114 1778v-124h-472v124h472z" />
    <glyph glyph-name="uni0306" unicode="&#x306;" 
d="M-328 1524q-114 0 -178 70.5t-58 189.5h124q-9 -136 112 -136t112 136h124q6 -119 -58 -189.5t-178 -70.5z" />
    <glyph glyph-name="uni0307" unicode="&#x307;" 
d="M-196 1576q-43 0 -73.5 30.5t-30.5 71.5q0 44 30.5 75t73.5 31q41 0 72.5 -31.5t31.5 -74.5q0 -42 -31 -72t-73 -30z" />
    <glyph glyph-name="uni0308" unicode="&#x308;" 
d="M-222 1682q-43 0 -73.5 30.5t-30.5 71.5q0 44 30.5 75t73.5 31q41 0 72.5 -31.5t31.5 -74.5q0 -42 -31 -72t-73 -30zM42 1682q-43 0 -73.5 30.5t-30.5 71.5q0 44 30.5 75t73.5 31q41 0 72.5 -31.5t31.5 -74.5q0 -42 -31 -72t-73 -30z" />
    <glyph glyph-name="uni030A" unicode="&#x30a;" 
d="M28 1556q-81 0 -132 48.5t-51 124.5q0 72 52.5 121.5t130.5 49.5q77 0 129.5 -49t52.5 -122t-52.5 -123t-129.5 -50zM28 1659q31 0 50 19t19 51q0 31 -19.5 50.5t-49.5 19.5t-49.5 -19.5t-19.5 -50.5q0 -32 19 -51t50 -19z" />
    <glyph glyph-name="uni030B" unicode="&#x30b;" 
d="M-294 1782l-154 -252h-124l124 252h154zM-84 1782l-196 -252h-128l158 252h166z" />
    <glyph glyph-name="uni030C" unicode="&#x30c;" 
d="M-68 1784l-166 -254h-166l-166 254h146l104 -154l102 154h146z" />
    <glyph glyph-name="uni0312" unicode="&#x312;" 
d="M-178 1502q-51 0 -80.5 36t-29.5 96q0 86 55.5 145.5t130.5 52.5v-90q-25 4 -46 -7t-30 -31q41 0 70.5 -28t29.5 -68q0 -44 -29 -75t-71 -31z" />
    <glyph glyph-name="uni0326" unicode="&#x326;" 
d="M-272 -324v90q25 -4 46 7t30 31q-41 0 -70.5 28t-29.5 68q0 44 29 75t71 31q51 0 80.5 -36t29.5 -96q0 -86 -55.5 -145.5t-130.5 -52.5z" />
    <glyph glyph-name="uni0327" unicode="&#x327;" 
d="M-252 -340q-81 0 -134 36v122q59 -48 124 -48q31 0 49.5 12t18.5 32q0 44 -58 44q-24 0 -42.5 -6t-67.5 -28l-26 72l92 196h78v-78l-26 -54q8 2 22 2q65 0 106.5 -40t41.5 -104q0 -70 -50 -114t-128 -44z" />
    <glyph glyph-name="uni0335" unicode="&#x335;" 
d="M-248 1224v-116h-574v116h574z" />
    <glyph glyph-name="uni0337" unicode="&#x337;" 
d="M-32 952v-128l-394 -190v128z" />
    <glyph glyph-name="uni0338" unicode="&#x338;" 
d="M-70 1098l-728 -1178h-136l726 1178h138z" />
    <glyph glyph-name="Wgrave" unicode="&#x1e80;" horiz-adv-x="1946" 
d="M923 1888l124 -254h-128l-152 254h156zM1426 240l360 1220h138l-436 -1460h-116l-400 1232l-398 -1232h-120l-432 1460h140l356 -1224l392 1224h124z" />
    <glyph glyph-name="wgrave" unicode="&#x1e81;" horiz-adv-x="1472" 
d="M753 1438l124 -254h-128l-152 254h156zM1056 218l260 782h136l-336 -1000h-122l-258 780l-260 -780h-122l-334 1000h136l260 -784l258 784h122z" />
    <glyph glyph-name="Wacute" unicode="&#x1e82;" horiz-adv-x="1946" 
d="M1194 1908l-158 -252h-128l128 252h158zM1426 240l360 1220h138l-436 -1460h-116l-400 1232l-398 -1232h-120l-432 1460h140l356 -1224l392 1224h124z" />
    <glyph glyph-name="wacute" unicode="&#x1e83;" horiz-adv-x="1472" 
d="M954 1456l-158 -252h-128l128 252h158zM1056 218l260 782h136l-336 -1000h-122l-258 780l-260 -780h-122l-334 1000h136l260 -784l258 784h122z" />
    <glyph glyph-name="Wdieresis" unicode="&#x1e84;" horiz-adv-x="1946" 
d="M846 1682q-43 0 -73.5 30.5t-30.5 71.5q0 44 30.5 75t73.5 31q41 0 72.5 -31.5t31.5 -74.5q0 -42 -31 -72t-73 -30zM1110 1682q-43 0 -73.5 30.5t-30.5 71.5q0 44 30.5 75t73.5 31q41 0 72.5 -31.5t31.5 -74.5q0 -42 -31 -72t-73 -30zM1426 240l360 1220h138l-436 -1460
h-116l-400 1232l-398 -1232h-120l-432 1460h140l356 -1224l392 1224h124z" />
    <glyph glyph-name="wdieresis" unicode="&#x1e85;" horiz-adv-x="1472" 
d="M609 1184q-43 0 -73.5 30.5t-30.5 71.5q0 44 30.5 75t73.5 31q41 0 72.5 -31.5t31.5 -74.5q0 -42 -31 -72t-73 -30zM873 1184q-43 0 -73.5 30.5t-30.5 71.5q0 44 30.5 75t73.5 31q41 0 72.5 -31.5t31.5 -74.5q0 -42 -31 -72t-73 -30zM1056 218l260 782h136l-336 -1000
h-122l-258 780l-260 -780h-122l-334 1000h136l260 -784l258 784h122z" />
    <glyph glyph-name="Ygrave" unicode="&#x1ef2;" horiz-adv-x="1252" 
d="M570 1888l124 -254h-128l-152 254h156zM694 624v-626h-136v626l-550 834h156l462 -708l462 708h156z" />
    <glyph glyph-name="ygrave" unicode="&#x1ef3;" horiz-adv-x="928" 
d="M479 1468l124 -254h-128l-152 254h156zM196 -418q-83 0 -150 16v112q90 -12 152 -12q68 2 101.5 29t60.5 103l48 124l-398 1046h138l324 -862l310 862h136l-434 -1208q-40 -108 -110.5 -159t-177.5 -51z" />
    <glyph glyph-name="endash" unicode="&#x2013;" horiz-adv-x="1844" 
d="M1718 604v-124h-1592v124h1592z" />
    <glyph glyph-name="emdash" unicode="&#x2014;" horiz-adv-x="2246" 
d="M2120 604v-124h-1994v124h1994z" />
    <glyph glyph-name="quoteleft" unicode="&#x2018;" horiz-adv-x="492" 
d="M252 1088q-58 0 -97 45t-39 113q0 92 68.5 164t163.5 78v-104q-32 -1 -60 -18.5t-42 -43.5q8 2 24 2q46 0 76 -33t30 -81q0 -54 -35 -88t-89 -34z" />
    <glyph glyph-name="quoteright" unicode="&#x2019;" horiz-adv-x="492" 
d="M144 1086v104q32 1 60 18.5t42 43.5q-8 -2 -24 -2q-46 0 -76 33t-30 81q0 54 35 88t89 34q58 0 97 -45t39 -113q0 -92 -68.5 -164t-163.5 -78z" />
    <glyph glyph-name="quotesinglbase" unicode="&#x201a;" horiz-adv-x="492" 
d="M144 -164v104q32 1 60 18.5t42 43.5q-8 -2 -24 -2q-46 0 -76 33t-30 81q0 54 35 88t89 34q58 0 97 -45t39 -113q0 -92 -68.5 -164t-163.5 -78z" />
    <glyph glyph-name="quotedblleft" unicode="&#x201c;" horiz-adv-x="784" 
d="M252 1088q-58 0 -97 45t-39 113q0 92 68.5 164t163.5 78v-104q-32 -1 -60 -18.5t-42 -43.5q8 2 24 2q46 0 76 -33t30 -81q0 -54 -35 -88t-89 -34zM544 1088q-58 0 -97 45t-39 113q0 92 68.5 164t163.5 78v-104q-32 -1 -60 -18.5t-42 -43.5q8 2 24 2q46 0 76 -33t30 -81
q0 -54 -35 -88t-89 -34z" />
    <glyph glyph-name="quotedblright" unicode="&#x201d;" horiz-adv-x="784" 
d="M144 1086v104q32 1 60 18.5t42 43.5q-8 -2 -24 -2q-46 0 -76 33t-30 81q0 54 35 88t89 34q58 0 97 -45t39 -113q0 -92 -68.5 -164t-163.5 -78zM436 1086v104q32 1 60 18.5t42 43.5q-8 -2 -24 -2q-46 0 -76 33t-30 81q0 54 35 88t89 34q58 0 97 -45t39 -113
q0 -92 -68.5 -164t-163.5 -78z" />
    <glyph glyph-name="quotedblbase" unicode="&#x201e;" horiz-adv-x="784" 
d="M144 -164v104q32 1 60 18.5t42 43.5q-8 -2 -24 -2q-46 0 -76 33t-30 81q0 54 35 88t89 34q58 0 97 -45t39 -113q0 -92 -68.5 -164t-163.5 -78zM436 -164v104q32 1 60 18.5t42 43.5q-8 -2 -24 -2q-46 0 -76 33t-30 81q0 54 35 88t89 34q58 0 97 -45t39 -113
q0 -92 -68.5 -164t-163.5 -78z" />
    <glyph glyph-name="dagger" unicode="&#x2020;" horiz-adv-x="588" 
d="M354 1144v-616h-120v616h-190v116h190v200h120v-200h190v-116h-190z" />
    <glyph glyph-name="daggerdbl" unicode="&#x2021;" horiz-adv-x="590" 
d="M354 788v-260h-120v260h-188v116h188v180h-190v116h190v260h120v-260h190v-116h-190v-180h192v-116h-192z" />
    <glyph glyph-name="bullet" unicode="&#x2022;" horiz-adv-x="746" 
d="M374 266q-113 0 -195.5 81t-82.5 193q0 114 82 195t196 81q111 0 193.5 -82t82.5 -194t-81.5 -193t-194.5 -81z" />
    <glyph glyph-name="ellipsis" unicode="&#x2026;" horiz-adv-x="1322" 
d="M260 -22q-54 0 -92 38t-38 90q0 53 38 91.5t92 38.5q53 0 91.5 -38t38.5 -92q0 -52 -38 -90t-92 -38zM660 -22q-54 0 -92 38t-38 90q0 53 38 91.5t92 38.5q53 0 91.5 -38t38.5 -92q0 -52 -38 -90t-92 -38zM1060 -22q-54 0 -92 38t-38 90q0 53 38 91.5t92 38.5
q53 0 91.5 -38t38.5 -92q0 -52 -38 -90t-92 -38z" />
    <glyph glyph-name="perthousand" unicode="&#x2030;" horiz-adv-x="2520" 
d="M448 762q-156 0 -257 103t-101 259t101 259t257 103t257 -103t101 -259t-101 -259t-257 -103zM1520 1460l-1110 -1460h-152l1108 1460h154zM448 886q101 0 165.5 66.5t64.5 171.5q0 106 -64 172t-166 66t-166 -66t-64 -172q0 -105 64.5 -171.5t165.5 -66.5zM1332 -26
q-156 0 -257 103t-101 259t101 259t257 103t257 -103t101 -259t-101 -259t-257 -103zM2072 -26q-156 0 -257 103t-101 259t101 259t257 103t257 -103t101 -259t-101 -259t-257 -103zM1332 98q101 0 165.5 66.5t64.5 171.5q0 106 -64 172t-166 66t-166 -66t-64 -172
q0 -105 64.5 -171.5t165.5 -66.5zM2072 98q101 0 165.5 66.5t64.5 171.5q0 106 -64 172t-166 66t-166 -66t-64 -172q0 -105 64.5 -171.5t165.5 -66.5z" />
    <glyph glyph-name="minute" unicode="&#x2032;" horiz-adv-x="356" 
d="M264 1386l-32 -372h-108l-34 372q-3 42 22.5 71t65.5 29t64.5 -28t21.5 -72z" />
    <glyph glyph-name="guilsinglleft" unicode="&#x2039;" horiz-adv-x="726" 
d="M222 500l438 -500h-150l-438 500l438 500h150z" />
    <glyph glyph-name="guilsinglright" unicode="&#x203a;" horiz-adv-x="726" 
d="M654 500l-438 -500h-150l438 500l-438 500h150z" />
    <glyph glyph-name="fraction" unicode="&#x2044;" horiz-adv-x="246" 
d="M662 1460l-934 -1460h-144l932 1460h146z" />
    <glyph glyph-name="Euro" unicode="&#x20ac;" horiz-adv-x="1342" 
d="M944 -24q-278 0 -477 152t-257 408h-166v124h150q-4 48 -4 70q0 28 4 80h-150v124h168q60 253 257.5 400.5t476.5 147.5q190 0 296 -48v-134q-49 22 -134.5 37t-165.5 15q-220 0 -376 -111.5t-212 -306.5h632v-124h-656q-4 -48 -4 -80q0 -22 4 -70h656v-124h-636
q56 -202 214 -316t384 -114q78 0 159 15t135 39v-138q-138 -46 -298 -46z" />
    <glyph glyph-name="uni2116" unicode="&#x2116;" horiz-adv-x="2458" 
d="M1872 502q-135 0 -248.5 67t-179.5 181.5t-66 249.5q0 205 143.5 345.5t350.5 140.5q137 0 250.5 -63.5t178.5 -175t65 -247.5q0 -209 -143 -353.5t-351 -144.5zM168 1460h130l800 -1208v1208h136v-1460h-128l-802 1212v-1212h-136v1460zM1872 1358q-154 0 -257 -103
t-103 -255q0 -156 105 -263t255 -107q155 0 257.5 105t102.5 265q0 154 -102 256t-258 102zM2306 382v-128h-868v128h868z" />
    <glyph glyph-name="trademark" unicode="&#x2122;" horiz-adv-x="1288" 
d="M234 868v484h-188v108h488v-108h-188v-484h-112zM670 1460l202 -448l200 448h102v-592h-108v328l-146 -328h-94l-150 324v-324h-108v592h102z" />
    <glyph glyph-name="estimated" unicode="&#x212e;" horiz-adv-x="1586" 
d="M814 -18q-207 0 -366 93.5t-246.5 262.5t-87.5 388q0 211 86.5 379t242 261.5t351.5 93.5q306 0 492 -185.5t186 -492.5q0 -94 -4 -126h-1114v-334q78 -107 197.5 -163.5t266.5 -56.5q150 0 278.5 74.5t189.5 197.5l112 -42q-75 -164 -230.5 -257t-353.5 -93zM354 1106
v-338h878v374q-72 94 -186.5 146t-251.5 52q-134 0 -249.5 -61t-190.5 -173z" />
    <glyph glyph-name="arrowleft" unicode="&#x2190;" horiz-adv-x="1772" 
d="M340 440l454 -456l-90 -90l-612 610l612 610l90 -90l-454 -456h1332v-128h-1332z" />
    <glyph glyph-name="arrowup" unicode="&#x2191;" horiz-adv-x="1424" 
d="M776 1220v-1220h-128v1220l-464 -448l-92 92l620 604l620 -604l-92 -92z" />
    <glyph glyph-name="arrowright" unicode="&#x2192;" horiz-adv-x="1772" 
d="M1068 1212l612 -610l-612 -610l-90 90l454 456h-1332v128h1332l-454 456z" />
    <glyph glyph-name="arrowdown" unicode="&#x2193;" horiz-adv-x="1404" 
d="M1222 496l90 -90l-610 -612l-610 612l90 90l456 -454v1418h128v-1418z" />
    <glyph glyph-name="arrowboth" unicode="&#x2194;" horiz-adv-x="2044" 
d="M350 452l178 -186v-190l-436 442l432 440v-192l-174 -182l382 2v2l962 -2l-174 182v190l432 -438l-430 -442v194l170 182l-954 -2v2z" />
    <glyph glyph-name="arrowupdn" unicode="&#x2195;" horiz-adv-x="1024" 
d="M758 116h194l-442 -434l-438 434h188l184 -174l-2 404v530l2 408l-184 -172h-188l438 430l442 -430h-194l-182 172v-1342z" />
    <glyph glyph-name="uni2196" unicode="&#x2196;" horiz-adv-x="1660" 
d="M320 1330l1248 -1248l-90 -90l-1248 1248l-2 -644h-128v864h864v-128z" />
    <glyph glyph-name="uni2197" unicode="&#x2197;" horiz-adv-x="1660" 
d="M1430 596v644l-1248 -1248l-90 90l1248 1248h-644v130h864v-864h-130z" />
    <glyph glyph-name="uni2198" unicode="&#x2198;" horiz-adv-x="1656" 
d="M1556 868v-864h-864v128l644 2l-1244 1244l90 90l1244 -1244l2 644h128z" />
    <glyph glyph-name="uni2199" unicode="&#x2199;" horiz-adv-x="1662" 
d="M964 126v-128h-864v864h130v-644l1250 1250l90 -90l-1250 -1250z" />
    <glyph glyph-name="partialdiff" unicode="&#x2202;" horiz-adv-x="1240" 
d="M424 1484h180q281 -225 404.5 -444t123.5 -490q0 -255 -144 -414.5t-376 -159.5q-142 0 -257.5 68.5t-181 188.5t-65.5 267q0 141 68 260.5t186 189.5t258 70q181 0 316 -120q-67 151 -179 274t-333 310zM616 100q167 0 274.5 114.5t107.5 293.5q0 169 -104 277.5
t-266 108.5q-168 0 -277 -111t-109 -285q0 -175 105 -286.5t269 -111.5z" />
    <glyph glyph-name="emptyset" unicode="&#x2205;" horiz-adv-x="1620" 
d="M808 -24q-148 0 -277 54t-227 156l-174 -160l-84 86l182 166q-130 197 -130 452q0 214 91.5 386.5t254 270t364.5 97.5q305 0 506 -210l176 162l84 -88l-184 -168q130 -193 130 -450q0 -214 -91.5 -386.5t-254.5 -270t-366 -97.5zM330 374l884 808q-161 170 -406 170
q-163 0 -294 -80t-204.5 -222t-73.5 -320q0 -201 94 -356zM808 108q249 0 411.5 175.5t162.5 446.5q0 202 -94 354l-884 -806q161 -170 404 -170z" />
    <glyph glyph-name="summation" unicode="&#x2211;" horiz-adv-x="1076" 
d="M998 128v-128h-952v130l446 596l-446 604v130h952v-128h-794l452 -610l-448 -594h790z" />
    <glyph glyph-name="minus" unicode="&#x2212;" horiz-adv-x="1348" 
d="M1194 758v-128h-1040v128h1040z" />
    <glyph glyph-name="radical" unicode="&#x221a;" horiz-adv-x="1382" 
d="M1028 1332l-510 -1332h-116l-410 998h142l326 -810l476 1272h380v-128h-288z" />
    <glyph glyph-name="infinity" unicode="&#x221e;" horiz-adv-x="1696" 
d="M464 226q-156 0 -257 99t-101 253t101 253t257 99q113 0 205 -60t179 -190q87 130 179 190t205 60q156 0 257 -99t101 -253t-101 -253t-257 -99q-113 0 -205 60t-179 190q-87 -130 -179 -190t-205 -60zM474 354q154 0 288 224q-134 224 -288 224q-106 0 -169 -61
t-63 -163t63 -163t169 -61zM1222 354q106 0 169 61t63 163t-63 163t-169 61q-154 0 -288 -224q134 -224 288 -224z" />
    <glyph glyph-name="integral" unicode="&#x222b;" horiz-adv-x="708" 
d="M220 -28h-166v124h166q28 0 48 20.5t20 47.5v1124q0 83 58 141.5t142 58.5h166v-124h-166q-28 0 -48 -20.5t-20 -47.5v-1124q0 -83 -58 -141.5t-142 -58.5z" />
    <glyph glyph-name="approxequal" unicode="&#x2248;" horiz-adv-x="1348" 
d="M938 610q-52 0 -113.5 20.5t-95 38.5t-101.5 57q-51 32 -80 48t-68.5 31t-71.5 15q-68 0 -97.5 -43t-30.5 -147h-126q-6 141 64 229.5t190 88.5q46 0 100 -18.5t90 -37.5t94 -54q121 -68 167 -85q44 -15 81 -15q68 0 98 45.5t30 150.5h126q5 -147 -65 -235.5t-191 -88.5z
M938 260q-52 0 -113.5 20.5t-95 38.5t-101.5 57q-51 32 -80 48t-68.5 31t-71.5 15q-68 0 -97.5 -43t-30.5 -147h-126q-6 141 64 229.5t190 88.5q46 0 100 -18.5t90 -37.5t94 -54q121 -68 167 -85q44 -15 81 -15q68 0 98 45.5t30 150.5h126q5 -147 -65 -235.5t-191 -88.5z
" />
    <glyph glyph-name="notequal" unicode="&#x2260;" horiz-adv-x="1348" 
d="M600 342l-164 -304h-142l164 304h-304v128h374l150 276h-524v128h594l164 304h142l-164 -304h304v-128h-374l-150 -276h524v-128h-594z" />
    <glyph glyph-name="lessequal" unicode="&#x2264;" horiz-adv-x="1348" 
d="M350 646l844 -298v-136l-1040 374v120l1040 374v-136zM1194 128v-128h-1040v128h1040z" />
    <glyph glyph-name="greaterequal" unicode="&#x2265;" horiz-adv-x="1348" 
d="M1194 706v-120l-1040 -374v136l844 298l-844 298v136zM1194 128v-128h-1040v128h1040z" />
    <glyph glyph-name="filledbox" unicode="&#x25a0;" horiz-adv-x="1660" 
d="M1560 1460v-1460h-1460v1460h1460z" />
    <glyph glyph-name="uni25A1" unicode="&#x25a1;" horiz-adv-x="1660" 
d="M1560 1460v-1460h-1460v1460h1460zM1428 1328h-1196v-1196h1196v1196z" />
    <glyph glyph-name="triagup" unicode="&#x25b2;" horiz-adv-x="1932" 
d="M966 1480l880 -1480h-1760z" />
    <glyph glyph-name="uni25B3" unicode="&#x25b3;" horiz-adv-x="1936" 
d="M968 1484l882 -1484h-1764zM1602 138l-634 1062l-634 -1062h1268z" />
    <glyph glyph-name="circle" unicode="&#x25cb;" horiz-adv-x="1804" 
d="M902 -116q-163 0 -312 63.5t-256 171t-170.5 256t-63.5 311.5q0 162 63.5 310.5t171 256t256 171.5t311.5 64q162 0 310.5 -63.5t256 -171t171.5 -256t64 -311.5q0 -162 -63.5 -310.5t-171 -256t-256 -171.5t-311.5 -64zM902 32q177 0 327.5 87.5t238.5 238t88 328.5
q0 132 -52 253t-139.5 209t-209 140t-253.5 52q-177 0 -327.5 -87.5t-238.5 -238t-88 -328.5q0 -177 87.5 -327.5t238 -238.5t328.5 -88z" />
    <glyph glyph-name="uni25CF" unicode="&#x25cf;" horiz-adv-x="1804" 
d="M902 -116q-163 0 -312 63.5t-256 171t-170.5 256t-63.5 311.5q0 162 63.5 310.5t171 256t256 171.5t311.5 64q162 0 310.5 -63.5t256 -171t171.5 -256t64 -311.5q0 -162 -63.5 -310.5t-171 -256t-256 -171.5t-311.5 -64z" />
    <glyph glyph-name="uni2713" unicode="&#x2713;" horiz-adv-x="1512" 
d="M1170 1042l110 -88l-792 -952l-458 496l98 98l354 -380z" />
    <glyph glyph-name="uniF8FF" unicode="&#xf8ff;" horiz-adv-x="2262" 
d="M1148 80q-151 0 -288.5 59.5t-237 160t-158.5 238.5t-59 289t59 289t159 237.5t238 158.5t289 59t288.5 -59t237.5 -159t159 -237.5t59 -288.5q0 -203 -99.5 -375t-271 -272t-375.5 -100zM1150 168q178 0 329 88t239 239t88 329q0 134 -52 255.5t-139.5 209.5t-208 140.5
t-253.5 53.5q-134 0 -256 -52t-210 -139.5t-140 -209t-52 -254.5q0 -134 51.5 -256t139 -210.5t209 -141t255.5 -52.5zM939 454h-2l32 30q19 18 33 58q44 120 60 170q35 101 77 175v3q-2 -4 -8 -9.5t-7 -7.5q-13 -15 -14 -16q-30 -46 -41 -76q-3 -8 -11 -8q-132 4 -235 89
q-52 50 -79 74q-2 2 -7.5 10t-9.5 12q12 -2 15 -5q69 -27 131 -36q50 -5 96 3q53 12 63 16q3 0 6.5 1.5t7.5 3.5t7 3q-7 4 -21.5 11t-22.5 11t-18.5 12t-17.5 17h25q53 0 100 25q82 51 182 81q31 10 77 15q4 0 28.5 1t29.5 0q72 -2 118 -44q6 -6 12.5 -13.5t14 -16.5
t11.5 -14q-1 -1 -1 -2l-7 2q-61 23 -111 5t-83 -71q-15 -28 -33 -74q-10 -23 -31 -73t-32 -76q-44 -85 -87 -135q-38 -46 -87 -77q-59 -45 -155 -73q-2 0 -4 -1h-1zM1877 -72q-21 0 -35.5 14.5t-14.5 35.5t14.5 35.5t35.5 14.5t35.5 -14.5t14.5 -35.5t-14.5 -35.5
t-35.5 -14.5zM1877 -57q15 0 25 10t10 25t-10 25t-25 10t-25 -10t-10 -25t10 -25t25 -10zM1871 -44h-11v46h18q17 0 17 -14q0 -8 -7 -13l10 -19h-13l-8 15h-6v-15zM1885 -13q0 3 -7 3h-7v-8h7q7 0 7 5zM944 -33q0 -9 7 -15t18 -6q10 0 17 6t7 15q0 8 -7 14t-17 6t-17.5 -6
t-7.5 -14zM590 -121q0 62 -49 85q-24 12 -58 12h-79v-195h78q68 0 95 46q13 20 13 52zM544 -121q0 -42 -29 -56q-13 -6 -35 -6h-29v124h29q42 0 57 -27q7 -13 7 -35zM653 -156h113v11q0 35 -23 56q-21 18 -56 18q-50 0 -70 -36q-10 -18 -10 -39q0 -47 39 -66q18 -9 44 -9
q42 0 61 21q10 8 13 23l-42 3q-4 -12 -18 -15q-4 -2 -14 -2q-22 0 -33 17q-4 10 -4 18zM823 -174l-45 -2q6 -45 75 -45q46 0 64 23q10 12 10 25q0 31 -48 39l-30 5q-21 4 -21 15q0 15 25 15q24 0 28 -18l42 3q-6 43 -71 43q-43 0 -61 -21q-9 -10 -9 -24q0 -33 48 -42l29 -5
q21 -3 21 -15q0 -14 -27 -14q-25 0 -30 18zM1059 -231l-42 -4q10 -41 76 -41q49 0 70 25q11 13 11 31v147h-46v-24h-1q-8 15 -25 22q-8 4 -23 4q-40 0 -58 -33q-9 -17 -9 -41q0 -47 33 -64q14 -7 34 -7q24 0 38 12q7 7 9 11h2v-26q0 -28 -34 -28q-20 0 -28 8zM1201 -219h45
v85q0 18 15 26q10 4 17 4q29 0 29 -29v-86h46v93q0 35 -27 48q-11 7 -30 7q-37 0 -49 -28h-1v26h-45v-146zM1411 -212q19 -9 44 -9q50 0 71 35q10 17 10 40q0 46 -38 66q-18 9 -43 9q-52 0 -72 -36q-10 -18 -10 -39q0 -45 38 -66zM1734 -216q10 -5 28 -5q23 0 37 11
q6 4 11 12h1v-21h44v99q0 26 -21 37q-21 12 -49 12q-40 0 -60 -20q-9 -10 -13 -23l43 -3q5 17 29 17q25 0 25 -19v-1q0 -9 -17 -10q-11 -2 -23 -3q-28 -2 -43 -11q-19 -11 -19 -34q0 -28 27 -38zM946 -219h46v146h-46v-146zM1596 -219h52l57 146h-48l-34 -104h-2l-35 104
h-48zM722 -131h-69q2 17 16 25q6 5 19 5q22 0 30 -17q2 -5 4 -13zM1474 -184q-8 -6 -19 -6q-23 0 -31 21q-4 9 -4 23q0 28 16 38q7 6 19 6q21 0 31 -21q4 -14 4 -23q0 -27 -16 -38zM1128 -145q0 -41 -34 -41q-23 0 -31 19q-4 8 -4 22q0 27 16 37q8 5 19 5q22 0 30 -20
q4 -8 4 -22zM1793 -190q-7 -3 -18 -3q-24 0 -24 16q0 11 12 16q5 2 15 4q26 3 31 6v-15q0 -16 -16 -24z" />
    <glyph glyph-name="_Designova" horiz-adv-x="2122" 
d="M1059 -161q-174 0 -333 68.5t-274 184t-183.5 275t-68.5 333.5q1 140 45 271t123.5 236.5t185 185t236.5 123t271 43.5q175 0 334 -68t274.5 -183t184 -274t68.5 -334t-68.5 -334.5t-184 -275t-275.5 -183.5t-335 -68zM1061 -59q154 0 294 60t241.5 161.5t161.5 241.5
t60 294q0 207 -101 381.5t-274.5 276t-379.5 101.5q-154 0 -294.5 -59.5t-242.5 -161t-162 -241.5t-60 -295t59.5 -295.5t161 -242t241.5 -161.5t295 -60zM817 271h-4l37 31q22 20 41 69q12 35 35.5 101.5t33.5 96.5q41 117 86 200v2q-11 -13 -14 -18q-11 -8 -15 -21
q-34 -42 -50 -87q-6 -7 -13 -7q-157 8 -271 104q-13 13 -43.5 41.5t-44.5 42.5q-8 10 -22 24q12 0 17 -5q73 -29 154 -41q60 -7 108 4q32 5 71 18q6 0 15 4.5l11 5.5q-8 5 -24 12.5t-25.5 12.5t-21.5 14t-21 19h28q52 0 115 27q107 68 211 98q47 13 88 13q9 0 33 2t35 1
q88 -5 136 -52q7 -6 14.5 -14.5t16 -19t13.5 -16.5v-2q-4 2 -10 2q-70 27 -127 6.5t-96 -79.5q-9 -16 -23 -50t-16 -39q-11 -23 -35 -81.5t-39 -88.5q-49 -99 -99 -159q-23 -31 -98 -88q-73 -52 -181 -83h-6z" />
    <glyph glyph-name="_VendorID" horiz-adv-x="1699" 
d="M1499 1577v-1582h-1299v1582h1299zM1429 1508h-1159v-1445h1159v1445zM617 832q-81 0 -138 56t-57 136q0 73 62 164l129 189h86l-113 -162q10 2 31 2q83 0 137 -55t54 -138q0 -81 -55 -136.5t-136 -55.5zM1082 832q-81 0 -137.5 55.5t-56.5 136.5q0 43 13 79t46 85
l129 189h88l-116 -162q10 2 34 2q81 0 136 -55.5t55 -137.5q0 -81 -55.5 -136.5t-135.5 -55.5zM617 900q52 0 86 35t34 89t-33.5 88t-86.5 34q-55 0 -88.5 -33t-33.5 -89q0 -55 34 -89.5t88 -34.5zM1082 900q52 0 84.5 35t32.5 89t-33 88t-84 34q-55 0 -89.5 -34t-34.5 -88
t34.5 -89t89.5 -35zM617 201q-81 0 -138 57t-57 138q0 79 62 166l129 183h86l-112 -160q12 4 30 4q83 0 137 -55.5t54 -137.5t-55.5 -138.5t-135.5 -56.5zM1082 201q-81 0 -137.5 56.5t-56.5 138.5q0 45 12.5 81.5t46.5 84.5l129 183h88l-115 -160q12 4 33 4q81 0 136 -55.5
t55 -137.5t-55.5 -138.5t-135.5 -56.5zM617 271q53 0 86.5 34.5t33.5 90.5q0 52 -33.5 86t-86.5 34q-54 0 -88 -33.5t-34 -86.5q0 -57 34 -91t88 -34zM1082 271q52 0 84.5 34.5t32.5 90.5q0 53 -32.5 86.5t-84.5 33.5q-55 0 -89.5 -33.5t-34.5 -86.5q0 -56 34.5 -90.5
t89.5 -34.5zM897 -104v-58h-19v58h-7v12h7v10q0 21 26 21h8v-15q-15 2 -15 -7v-9h15v-12h-15zM234 -165q-30 0 -30 38q0 18 10 28t24 10q10 0 17 -4l5 -7v35h17v-97h-17v12l-5 -9q-10 -6 -21 -6zM448 -85q-11 0 -11 10t11 10t11 -10t-11 -10zM1120 -150v-13h-11
q-20 0 -20 13v46h-11v12h11v17h19v-17h13v-12h-13v-38q2 -13 12 -8zM326 -165q-36 0 -36 38q0 17 10 27.5t26 10.5t25.5 -10t9.5 -26q0 -3 -2 -7h-50q2 -18 17 -18q14 0 16 12h17q-6 -27 -33 -27zM397 -165q-27 0 -31 24h19q4 -13 12 -13q12 0 12 10q0 5 -16 12
q-24 7 -24 21q0 22 28 22t28 -22h-18q-3 9 -10 9q-9 0 -9 -8q0 -6 16 -12q22 -4 22 -20q0 -23 -29 -23zM507 -191q-35 0 -35 24v2h18v-2q0 -10 17 -10q16 0 19 17v10l-5 -9q-15 -3 -19 -3q-32 0 -32 35q0 18 10 28t25 10q11 0 16 -4l5 -7v10h19v-54q0 -11 -2 -15
q0 -15 -10 -23.5t-26 -8.5zM579 -130v-32h-19v72h19v-13l5 10q9 4 17 4q22 0 27 -21q1 -4 1 -12v-40h-20v46q0 14 -13 14q-17 0 -17 -28zM675 -165q-16 0 -26 10.5t-10 27.5t10 27.5t26 10.5q37 0 37 -38t-37 -38zM820 -165q-9 0 -15.5 6t-6.5 17q0 22 40 22h4v2v7
q0 9 -12 9q-14 0 -14 -12h-17q0 25 31 25q26 0 28 -21v-34v-18h-15l-1 8l-4 -6q-8 -5 -18 -5zM955 -165q-38 0 -38 38t38 38q16 0 25.5 -10.5t9.5 -27.5t-9.5 -27.5t-25.5 -10.5zM1019 -130v-32h-17v72h17v-13l8 10q7 4 17 4q22 0 25 -21v-12v-40h-19v46q-4 14 -11 14
q-20 0 -20 -28zM1160 -165q-28 0 -33 24h20q1 -13 13 -13q10 0 10 10q0 5 -10 10q-3 1 -5 2q-23 6 -23 21q0 22 26 22t32 -22h-21q0 9 -12 9q-6 0 -6 -8q0 -6 14 -12q25 -5 25 -20q0 -23 -30 -23zM1263 -165q-35 0 -35 38q0 17 10.5 27.5t24.5 10.5q15 0 24 -7.5t9 -19.5
h-18q-3 14 -15 14q-17 0 -17 -25q0 -11 5 -17t12 -6q13 0 15 12h18q-2 -27 -33 -27zM1341 -165q-38 0 -38 38t38 38q35 0 35 -38t-35 -38zM1408 -125v-37h-19v72h19v-12l6 9q7 4 13 4q18 0 23 -14l7 10q5 4 15 4t16.5 -5t6.5 -12q1 -5 1 -16v-40h-18v37q0 1 -0.5 5t-0.5 6
q0 12 -13 12q-12 0 -12 -23v-37h-18v48q-4 12 -13 12q-13 0 -13 -23zM457 -90v-72h-18v72h18zM792 -90l-26 -72h-23l-25 72h19l19 -60l17 60h19zM240 -150q20 0 20 23v2q0 23 -18 23q-19 0 -19 -25q0 -23 17 -23zM309 -122h33q-3 20 -16 20q-14 0 -17 -20zM507 -150
q19 0 19 23v2q0 23 -19 23q-17 0 -17 -23q0 -25 17 -25zM675 -150q20 0 20 23q0 25 -20 25q-18 0 -18 -25q0 -23 18 -23zM955 -150q17 0 17 23q0 25 -17 25q-19 0 -19 -25q0 -23 19 -23zM1341 -150q17 0 17 23q0 25 -17 25q-8 0 -14 -7t-6 -18t6 -17t14 -6zM826 -150
q6 0 11 4t5 9v7q-26 3 -26 -12q0 -8 10 -8zM1208 -165q-12 0 -12 10q0 5 3.5 9t8.5 4t8.5 -4t3.5 -9q0 -10 -12 -10z" />
    <glyph glyph-name="_Origin" horiz-adv-x="3007" 
d="M200 1238v67h2607v-67h-2607zM1498 842q35 -35 94 -35q56 0 91 35q37 37 37 87q0 53 -37 87q-35 35 -93 35q-57 0 -92 -35q-37 -35 -37 -87q0 -48 37 -87zM347 811h197v43h-143v56h129v42h-129v52h143v43h-197v-236zM584 811h54v145l118 -145h44v236h-54v-143l-117 143
h-45v-236zM916 811h54v193h76v43h-207v-43h77v-193zM1150 811h58l54 161l52 -161h60l77 236h-52l-56 -168l-54 168h-50l-56 -166l-54 166h-58zM1751 811h54v66h52l44 -66h60l-52 74q28 12 39 31q13 19 13 46q0 54 -48 77q-19 8 -54 8h-108v-236zM1988 811h54v99h128v42h-128
v52h143v43h-197v-236zM2207 811h195v43h-141v56h127v42h-127v52h141v43h-195v-236zM2442 811h54v145l118 -145h46v236h-54v-143l-119 143h-45v-236zM1664 929q0 -33 -21 -54t-53 -21t-52.5 21t-20.5 54q0 34 20.5 55.5t52.5 21.5t53 -21.5t21 -55.5zM1805 921v83h50
q50 0 50 -42q0 -41 -50 -41h-50zM304 415h56v236h-56v-236zM397 415h56v145l118 -145h44v236h-54v-143l-118 143h-46v-236zM739 651v-236h123q95 0 95 64q0 40 -37 56l-4 2q35 17 35 54q0 28 -24.5 44t-71.5 16h-116zM984 415h195v45h-141v54h129v42h-129v51h143v44h-197
v-236zM1218 415h56v66h50l46 -66h58l-50 74q23 8 39 31q13 19 13 46q0 52 -48 77q-21 8 -56 8h-108v-236zM1457 415h195v45h-141v191h-54v-236zM1691 415h54v236h-54v-236zM1784 415h54v145l119 -145h45v236h-56v-143l-116 143h-46v-236zM2237 651v-236h107q83 0 114 56
q17 24 17 62q0 74 -62 103q-29 15 -69 15h-107zM2506 415h195v45h-141v54h129v42h-129v51h143v44h-197v-236zM795 558v56h56q44 0 44 -29q0 -27 -44 -27h-56zM1274 525v82h50q50 0 50 -41t-50 -41h-50zM2293 460v147h49q49 0 69 -35q8 -13 8 -39q0 -46 -35 -64
q-17 -9 -42 -9h-49zM795 456v58h63q43 0 43 -29t-43 -29h-63zM2040 363h35l18 50q9 18 9 33q0 14 -9 23.5t-22 9.5q-15 0 -24.5 -9t-9.5 -24q0 -23 19 -29zM200 146v67h2607v-67h-2607z" />
    </font>
</defs>
</svg>
