<?xml version="1.0" standalone="no"?>
<!DOCTYPE svg PUBLIC "-//W3C//DTD SVG 1.1//EN" "http://www.w3.org/Graphics/SVG/1.1/DTD/svg11.dtd" >
<svg xmlns="http://www.w3.org/2000/svg" xmlns:xlink="http://www.w3.org/1999/xlink" version="1.1">
<metadata>
Created by FontForge 20201107 at Tue May 30 04:31:24 2023
 By 
Copyright (c) 2023 by Designova. All rights reserved.
</metadata>
<defs>
<font id="Helixa-ThinItalic" horiz-adv-x="0" >
  <font-face 
    font-family="Helixa Thin Italic"
    font-weight="100"
    font-style="italic"
    font-stretch="normal"
    units-per-em="2048"
    panose-1="0 0 2 0 0 0 0 0 0 0"
    ascent="1638"
    descent="-410"
    x-height="932"
    cap-height="1392"
    bbox="-859 -426 2807 1902"
    underline-thickness="50"
    underline-position="-100"
    slope="-9"
    unicode-range="U+0020-F8FF"
  />
<missing-glyph horiz-adv-x="1242" 
d="M1381 1436l-229 -1450h-1066l229 1450h1066zM1258 1336h-850l-198 -1250h850z" />
    <glyph glyph-name=".notdef" horiz-adv-x="1242" 
d="M1381 1436l-229 -1450h-1066l229 1450h1066zM1258 1336h-850l-198 -1250h850z" />
    <glyph glyph-name=".null" 
 />
    <glyph glyph-name="nonmarkingreturn" horiz-adv-x="682" 
 />
    <glyph glyph-name="space" unicode=" " horiz-adv-x="580" 
 />
    <glyph glyph-name="exclam" unicode="!" horiz-adv-x="500" 
d="M347 426h-60q20 225 88 654l54 340h92l-54 -340q-70 -444 -120 -654zM248 -28q-46 0 -74.5 32.5t-20.5 77.5q7 45 45 77.5t84 32.5q44 0 71 -32.5t20 -77.5t-44 -77.5t-81 -32.5z" />
    <glyph glyph-name="quotedbl" unicode="&#x22;" horiz-adv-x="534" 
d="M427 1342l-91 -382h-72l29 382q3 38 27 58t53 20q28 0 45 -20t9 -58zM667 1342l-91 -382h-72l29 382q3 38 27 58t53 20q28 0 45 -20t9 -58z" />
    <glyph glyph-name="numbersign" unicode="#" horiz-adv-x="1312" 
d="M200 528h218l127 364h-254l30 88h256l156 440h92l-156 -440h394l156 440h92l-156 -440h212l-30 -88h-214l-129 -364h220l-30 -88h-222l-156 -440h-92l156 440h-392l-156 -440h-92l156 440h-216zM510 528h392l129 364h-394z" />
    <glyph glyph-name="dollar" unicode="$" horiz-adv-x="1102" 
d="M486 -200l29 178q-178 4 -278 93t-96 237h74q-8 -117 76 -190.5t233 -77.5l101 636l-90 26q-306 79 -263 346q26 161 152 260t318 106l28 178h56l-28 -176q165 -6 256 -94.5t89 -241.5h-72q4 127 -70.5 199t-212.5 75l-98 -624l101 -28q150 -39 217 -128.5t46 -221.5
q-26 -165 -157 -266.5t-326 -107.5l-29 -178h-56zM549 766l87 -22l97 612q-158 -9 -265 -93t-128 -215q-35 -215 209 -282zM771 640l-92 24l-99 -624q165 8 274.5 91.5t130.5 218.5q36 223 -214 290z" />
    <glyph glyph-name="percent" unicode="%" horiz-adv-x="1776" 
d="M943 1090q-23 -143 -129 -235.5t-247 -92.5t-218 92.5t-54 235.5t129 235.5t247 92.5t218 -92.5t54 -235.5zM1670 1392l-1276 -1392h-70l1274 1392h72zM883 1090q19 120 -42.5 196t-178.5 76t-202.5 -76t-104.5 -196t43 -196t178 -76t202 76t105 196zM1702 302
q-23 -143 -129 -235.5t-247 -92.5t-218 92.5t-54 235.5t129 235.5t247 92.5t218 -92.5t54 -235.5zM1642 302q19 120 -42.5 196t-178.5 76t-202.5 -76t-104.5 -196t43 -196t178 -76t202 76t105 196z" />
    <glyph glyph-name="ampersand" unicode="&#x26;" horiz-adv-x="1316" 
d="M1184 0l-122 174q-97 -98 -222.5 -149t-267.5 -51q-216 0 -327.5 99t-84.5 267q21 136 126 240.5t332 225.5q-90 128 -122.5 205.5t-22.5 142.5q18 117 108.5 188.5t220.5 71.5q125 0 189.5 -68t47.5 -180q-16 -104 -92 -189t-240 -185l369 -526q112 144 146 342h54
q-38 -222 -171 -388l157 -220h-78zM676 834q139 76 211.5 156.5t87.5 175.5q14 89 -36.5 141.5t-147.5 52.5q-102 0 -170.5 -55.5t-83.5 -150.5q-10 -58 18 -122t121 -198zM224 340q-23 -146 71 -229t283 -83q284 0 456 186l-387 550q-215 -110 -309.5 -204.5t-113.5 -219.5
z" />
    <glyph glyph-name="quotesingle" unicode="'" horiz-adv-x="294" 
d="M427 1342l-91 -382h-72l29 382q3 38 27 58t53 20q28 0 45 -20t9 -58z" />
    <glyph glyph-name="parenleft" unicode="(" horiz-adv-x="462" 
d="M417 -286h-96q-90 177 -121.5 411t6.5 481q38 236 144.5 472.5t251.5 413.5h96q-141 -164 -248.5 -398.5t-147.5 -487.5q-39 -270 -7 -499t122 -393z" />
    <glyph glyph-name="parenright" unicode=")" horiz-adv-x="462" 
d="M51 -286h-96q141 163 248.5 399.5t148.5 492.5q38 267 5.5 495t-121.5 391h96q90 -177 121.5 -410t-5.5 -476q-38 -241 -145 -478t-252 -414z" />
    <glyph glyph-name="asterisk" unicode="*" horiz-adv-x="792" 
d="M367 1140l-115 44l39 72l112 -40q94 -35 152 -76q-6 77 10 178l20 128h78l-20 -128q-14 -91 -44 -178q81 45 172 76l124 42l21 -74l-131 -44q-90 -29 -177 -44q44 -50 90 -136l56 -104l-72 -46l-57 104q-44 80 -62 156q-37 -74 -108 -156l-91 -104l-58 46l88 104
q61 72 136 136q-85 14 -163 44z" />
    <glyph glyph-name="plus" unicode="+" horiz-adv-x="1320" 
d="M283 690h456l73 456h60l-73 -456h456l-9 -60h-456l-73 -458h-60l73 458h-456z" />
    <glyph glyph-name="comma" unicode="," horiz-adv-x="500" 
d="M369 58q-13 -79 -79 -142.5t-148 -77.5l10 64q48 9 85 41.5t43 70.5q-19 -14 -54 -14t-56.5 25t-14.5 69t40.5 73t79.5 29q47 0 75.5 -37t18.5 -101z" />
    <glyph glyph-name="hyphen" unicode="-" horiz-adv-x="812" 
d="M206 480l13 84h552l-13 -84h-552z" />
    <glyph glyph-name="period" unicode="." horiz-adv-x="500" 
d="M251 1q-36 0 -57.5 25.5t-16.5 59.5q5 35 35 61t65 26t56.5 -26t16.5 -61q-5 -34 -34.5 -59.5t-64.5 -25.5z" />
    <glyph glyph-name="slash" unicode="/" horiz-adv-x="648" 
d="M92 0h-92l779 1420h94z" />
    <glyph glyph-name="zero" unicode="0" horiz-adv-x="1348" 
d="M244 696q53 333 229.5 527.5t425.5 194.5t363.5 -194.5t61.5 -527.5q-52 -333 -228.5 -527.5t-425.5 -194.5t-364 194.5t-62 527.5zM310 696q-48 -305 51.5 -482.5t318.5 -177.5t374.5 177.5t203.5 482.5q49 305 -50.5 482.5t-318.5 177.5t-374.5 -177.5t-204.5 -482.5z
" />
    <glyph glyph-name="one" unicode="1" horiz-adv-x="716" 
d="M676 1390h76l-220 -1390h-66l210 1324l-384 -238l-23 56z" />
    <glyph glyph-name="two" unicode="2" horiz-adv-x="1102" 
d="M988 0h-884l10 60l508 394q234 182 322.5 294.5t110.5 257.5q25 160 -53.5 254t-239.5 94q-162 0 -281.5 -107.5t-158.5 -286.5h-68q45 207 187 331.5t335 124.5q183 0 280 -112.5t68 -291.5q-25 -160 -124.5 -287.5t-349.5 -320.5l-442 -344h790z" />
    <glyph glyph-name="three" unicode="3" horiz-adv-x="1134" 
d="M627 788h-74l8 50l532 494h-732l9 60h816l-9 -60l-530 -490q228 9 349.5 -107t90.5 -311q-31 -201 -181 -324.5t-360 -123.5q-199 0 -300 113t-75 307h68q-22 -165 63 -261.5t254 -96.5q183 0 309 106.5t155 283.5q27 169 -77 264.5t-316 95.5z" />
    <glyph glyph-name="four" unicode="4" horiz-adv-x="1238" 
d="M1153 374l-9 -60h-166l-50 -314h-68l50 314h-756l11 70l878 1014h106l-162 -1024h166zM919 374l156 982l-844 -982h688z" />
    <glyph glyph-name="five" unicode="5" horiz-adv-x="1150" 
d="M572 -24q-199 0 -300 113t-75 307h68q-22 -165 63 -261.5t254 -96.5q180 0 308.5 110t156.5 290q29 177 -65.5 289.5t-274.5 112.5q-99 0 -199 -39t-185 -111l-37 18l176 684h726l-9 -60h-662l-144 -554q160 124 350 124q205 0 314.5 -131t77.5 -335t-183 -332t-360 -128
z" />
    <glyph glyph-name="six" unicode="6" horiz-adv-x="1192" 
d="M749 940q207 0 321 -136t81 -344q-22 -135 -102.5 -246t-200.5 -174.5t-254 -63.5q-133 0 -234 64t-147.5 175.5t-25.5 244.5q18 113 68 206.5t162 225.5l423 500h80l-485 -562q39 45 135.5 77.5t178.5 32.5zM604 38q178 0 314 119.5t165 302.5q29 182 -68.5 300
t-277.5 118q-182 0 -317.5 -117.5t-164.5 -300.5q-29 -184 69 -303t280 -119z" />
    <glyph glyph-name="seven" unicode="7" horiz-adv-x="980" 
d="M254 1392h912l-11 -72l-735 -1320h-70l745 1332h-850z" />
    <glyph glyph-name="eight" unicode="8" horiz-adv-x="1198" 
d="M555 738q-120 39 -175.5 126t-36.5 206q25 155 158 250.5t323 95.5q189 0 290.5 -95.5t76.5 -250.5q-20 -124 -104.5 -211.5t-217.5 -118.5q305 -110 263 -376q-27 -171 -176.5 -279.5t-359.5 -108.5q-211 0 -326 108.5t-88 281.5q21 134 121.5 234.5t251.5 137.5z
M410 1074q-22 -137 64 -220.5t248 -83.5t272 82t131 218q21 130 -63.5 208t-246.5 78t-273.5 -77.5t-131.5 -204.5zM250 376q-24 -151 75.5 -245.5t282.5 -94.5q180 0 308 94t151 244q24 150 -73.5 241t-283.5 91q-184 0 -310.5 -90.5t-149.5 -239.5z" />
    <glyph glyph-name="nine" unicode="9" horiz-adv-x="1192" 
d="M819 1418q133 0 234 -64t147.5 -175.5t25.5 -244.5q-18 -112 -68 -206t-162 -226l-424 -500h-80l484 561q-39 -44 -134.5 -76.5t-177.5 -32.5q-207 0 -321 136t-81 344q32 205 192.5 344.5t364.5 139.5zM1158 934q29 184 -69 303t-280 119q-178 0 -314 -119.5
t-165 -302.5q-29 -182 68.5 -300t277.5 -118q182 0 317.5 117.5t164.5 300.5z" />
    <glyph glyph-name="colon" unicode=":" horiz-adv-x="540" 
d="M391 762q-45 0 -72.5 32t-20.5 76q7 45 44.5 77.5t82.5 32.5t72.5 -32.5t20.5 -77.5q-7 -44 -44.5 -76t-82.5 -32zM267 -22q-45 0 -73 32t-20 76q7 45 44.5 77.5t82.5 32.5t72.5 -32.5t20.5 -77.5q-8 -44 -45 -76t-82 -32z" />
    <glyph glyph-name="semicolon" unicode=";" horiz-adv-x="540" 
d="M391 762q-45 0 -72.5 32t-20.5 76q7 45 44.5 77.5t82.5 32.5t72.5 -32.5t20.5 -77.5q-7 -44 -44.5 -76t-82.5 -32zM389 58q-13 -79 -79 -142.5t-148 -77.5l10 64q48 9 85 41.5t43 70.5q-19 -14 -54 -14t-56.5 25t-14.5 69t40.5 73t79.5 29q47 0 75.5 -37t18.5 -101z" />
    <glyph glyph-name="less" unicode="&#x3c;" horiz-adv-x="1320" 
d="M1170 150l-10 -64l-917 350l11 72l1028 350l-10 -64l-963 -322z" />
    <glyph glyph-name="equal" unicode="=" horiz-adv-x="1320" 
d="M302 806h972l-10 -60h-972zM238 402h972l-10 -60h-972z" />
    <glyph glyph-name="greater" unicode="&#x3e;" horiz-adv-x="1320" 
d="M1215 436l-1027 -350l10 64l963 322l-861 322l10 64l916 -350z" />
    <glyph glyph-name="question" unicode="?" horiz-adv-x="998" 
d="M543 308h-90l9 56q9 55 32.5 102t64.5 88t76.5 69t93.5 67t92.5 66t76.5 68.5t66.5 90t33.5 105.5q22 141 -56 237.5t-228 96.5q-139 0 -253.5 -98t-136.5 -236h-92q28 176 173.5 300t323.5 124q192 0 290.5 -122t70.5 -302q-10 -59 -34 -111.5t-50.5 -89t-71 -76.5
t-75 -62t-82.5 -57q-108 -72 -160.5 -128t-64.5 -132zM454 -28q-46 0 -74.5 32.5t-20.5 77.5q7 45 45 77.5t84 32.5q44 0 71 -32.5t20 -77.5t-44 -77.5t-81 -32.5z" />
    <glyph glyph-name="at" unicode="@" horiz-adv-x="1782" 
d="M1399 180q-115 0 -159 60.5t-10 173.5q-56 -108 -155.5 -167t-224.5 -59q-130 0 -195 63t-48 173q35 222 358 262l163 20q77 10 107 21.5t54 38.5q19 128 -39 193t-190 65q-121 0 -201 -53.5t-101 -148.5h-58q24 114 124.5 182t245.5 68q156 0 227 -77t48 -221l-66 -412
q-10 -66 22.5 -102t103.5 -36q117 0 208 115t120 301q34 209 -34.5 375.5t-223.5 259.5t-368 93q-153 0 -299.5 -58.5t-261 -158.5t-194.5 -238.5t-104 -292.5q-25 -156 10.5 -296t118.5 -240.5t211 -159t281 -58.5q270 0 493 162l25 -36q-238 -174 -526 -174
q-166 0 -304 62t-227 168.5t-127 255t-11 316.5q35 221 169 403.5t333 287.5t420 105q172 0 311.5 -58t228 -159.5t125.5 -246t10 -312.5q-31 -197 -142.5 -328.5t-247.5 -131.5zM869 234q154 0 261 101.5t135 274.5l15 96q-10 -7 -26.5 -13t-40 -11t-44.5 -9t-53 -8t-52 -6
t-54.5 -5.5t-48.5 -5.5q-131 -15 -208 -72t-92 -150q-14 -90 41 -141t167 -51z" />
    <glyph glyph-name="A" unicode="A" horiz-adv-x="1236" 
d="M358 454l-242 -454h-66l746 1392h84l306 -1392h-66l-98 454h-664zM1010 508l-179 836l-445 -836h624z" />
    <glyph glyph-name="B" unicode="B" horiz-adv-x="1264" 
d="M742 0h-548l220 1392h512q199 0 295.5 -95.5t69.5 -266.5q-19 -117 -86 -200.5t-177 -125.5q111 -39 159.5 -127t30.5 -213q-29 -167 -157.5 -265.5t-318.5 -98.5zM923 1332h-450l-96 -604h450q164 0 268 79t126 223q23 144 -55.5 223t-242.5 79zM854 668h-486l-96 -608
h486q157 0 259.5 80t130.5 224q18 144 -59.5 224t-234.5 80z" />
    <glyph glyph-name="C" unicode="C" horiz-adv-x="1432" 
d="M745 -22q-188 0 -320.5 90.5t-188 254t-22.5 373.5q51 320 264 520t502 200q208 0 346 -115.5t157 -306.5h-70q-25 164 -147.5 261t-301.5 97q-257 0 -445.5 -182t-234.5 -474q-46 -291 85.5 -472.5t387.5 -181.5q179 0 335 92t232 244h70q-84 -180 -261.5 -290
t-387.5 -110z" />
    <glyph glyph-name="D" unicode="D" horiz-adv-x="1366" 
d="M560 0h-366l220 1392h366q209 0 355 -86.5t208 -244.5t29 -365q-50 -314 -273 -505t-539 -191zM771 1332h-298l-201 -1272h298q286 0 486 174t246 462q47 291 -97.5 463.5t-433.5 172.5z" />
    <glyph glyph-name="E" unicode="E" horiz-adv-x="1174" 
d="M1040 0h-846l220 1392h844l-9 -60h-778l-96 -604h712l-9 -60h-712l-96 -608h780z" />
    <glyph glyph-name="F" unicode="F" horiz-adv-x="1122" 
d="M260 0h-66l220 1392h844l-9 -60h-778l-96 -604h712l-9 -60h-712z" />
    <glyph glyph-name="G" unicode="G" horiz-adv-x="1480" 
d="M1383 586h-514l8 54h580l-10 -68q-30 -181 -127 -318q-96 -132 -243 -204t-322 -72q-199 0 -328 90q-136 90 -190.5 252.5t-20.5 375.5q51 324 261 524q213 196 495 196q218 0 363.5 -122.5t159.5 -313.5h-60q-19 170 -150.5 275t-321.5 105q-165 0 -310 -80
q-146 -81 -243 -233t-128 -351q-31 -197 17 -348q49 -151 169.5 -232.5t294.5 -81.5q161 0 287 68q136 67 222 192t111 292z" />
    <glyph glyph-name="H" unicode="H" horiz-adv-x="1378" 
d="M260 0h-66l220 1392h66l-103 -654h860l103 654h64l-220 -1392h-64l107 678h-860z" />
    <glyph glyph-name="I" unicode="I" horiz-adv-x="456" 
d="M482 1392l-220 -1392h-68l220 1392h68z" />
    <glyph glyph-name="J" unicode="J" horiz-adv-x="1090" 
d="M906 406l157 988h64l-157 -988q-24 -152 -89 -246q-67 -92 -164.5 -136.5t-237.5 -45.5q-141 0 -226.5 44.5t-123.5 137.5q-35 94 -11 246l14 84h64l-14 -84q-39 -252 106 -332q86 -47 201 -44q116 0 207 44q171 81 210 332z" />
    <glyph glyph-name="K" unicode="K" horiz-adv-x="1238" 
d="M328 454l-72 -454h-62l220 1392h62l-134 -846l948 846h86l-735 -656l511 -736h-80l-480 696z" />
    <glyph glyph-name="L" unicode="L" horiz-adv-x="1094" 
d="M1040 0h-846l220 1392h68l-210 -1332h778z" />
    <glyph glyph-name="M" unicode="M" horiz-adv-x="1640" 
d="M782 0h76l718 1252l-198 -1252h68l220 1392h-74l-762 -1326l-344 1326h-72l-220 -1392h68l198 1248z" />
    <glyph glyph-name="N" unicode="N" horiz-adv-x="1386" 
d="M490 1392l650 -1292l204 1292h68l-220 -1392h-74l-651 1296l-205 -1296h-68l220 1392h76z" />
    <glyph glyph-name="O" unicode="O" horiz-adv-x="1492" 
d="M742 -26q-190 0 -322 90.5t-186 254.5t-20 377q52 324 260.5 523t496.5 199q190 0 321.5 -90t185.5 -254t20 -378q-51 -324 -259.5 -523t-496.5 -199zM751 30q169 0 314.5 84t242.5 235.5t128 346.5t-17.5 346.5t-167.5 235.5t-289 84q-258 0 -447.5 -184.5
t-236.5 -481.5q-31 -195 18 -346.5t167.5 -235.5t287.5 -84z" />
    <glyph glyph-name="P" unicode="P" horiz-adv-x="1216" 
d="M805 534h-458l-85 -534h-68l220 1392h526q193 0 289.5 -115.5t65.5 -310.5q-30 -190 -167 -311t-323 -121zM927 1332h-454l-117 -738h442q167 0 284 102.5t144 273.5q26 165 -55.5 263.5t-243.5 98.5z" />
    <glyph glyph-name="Q" unicode="Q" horiz-adv-x="1492" 
d="M1498 696q-27 -169 -100 -308.5t-184 -235.5l125 -170l-55 -46l-125 172q-183 -134 -417 -134q-190 0 -322 90.5t-186 254.5t-20 377q52 324 260.5 523t496.5 199q190 0 321.5 -90t185.5 -254t20 -378zM751 30q207 0 373 122l-149 208l55 46l152 -206q100 91 165.5 219
t88.5 277q31 195 -17.5 346.5t-167.5 235.5t-289 84q-258 0 -447.5 -184.5t-236.5 -481.5q-31 -195 18 -346.5t167.5 -235.5t287.5 -84z" />
    <glyph glyph-name="R" unicode="R" horiz-adv-x="1254" 
d="M1295 964q-24 -150 -119 -262t-235 -152l193 -550h-78l-184 532h-526l-84 -534h-68l220 1392h526q193 0 289.5 -115.5t65.5 -310.5zM927 1330h-454l-117 -738h442q167 0 283.5 102.5t143.5 273.5q26 165 -55 263.5t-243 98.5z" />
    <glyph glyph-name="S" unicode="S" horiz-adv-x="1102" 
d="M272 1048q26 168 164 268t342 100q173 0 266 -88t91 -248h-64q3 132 -76 204t-226 72q-171 0 -289 -84.5t-140 -223.5q-17 -107 36 -179t173 -103l242 -64q150 -39 217 -128.5t46 -221.5q-28 -173 -167 -274.5t-347 -101.5q-188 0 -292.5 88.5t-100.5 243.5h66
q-8 -122 84.5 -196t252.5 -74q176 0 294.5 85t140.5 227q36 223 -214 290l-236 62q-306 79 -263 346z" />
    <glyph glyph-name="T" unicode="T" horiz-adv-x="1058" 
d="M245 1332l9 60h990l-9 -60h-460l-211 -1332h-68l211 1332h-462z" />
    <glyph glyph-name="U" unicode="U" horiz-adv-x="1354" 
d="M1176 470l146 922h68l-146 -924q-37 -231 -187 -361.5t-381 -130.5q-234 0 -344.5 130t-73.5 362l146 924h68l-146 -922q-32 -207 61 -317.5t300 -110.5q203 0 330 111.5t159 316.5z" />
    <glyph glyph-name="V" unicode="V" horiz-adv-x="1232" 
d="M332 1392l298 -1330l714 1330h68l-754 -1392h-82l-316 1392h72z" />
    <glyph glyph-name="W" unicode="W" horiz-adv-x="1910" 
d="M1212 1392l209 -1324l591 1324h70l-636 -1392h-68l-216 1312l-630 -1312h-72l-192 1392h72l168 -1328l628 1328h76z" />
    <glyph glyph-name="X" unicode="X" horiz-adv-x="1166" 
d="M1330 1392l-599 -694l387 -698h-78l-357 638l-551 -638h-76l600 694l-388 698h78l358 -644l552 644h74z" />
    <glyph glyph-name="Y" unicode="Y" horiz-adv-x="1200" 
d="M338 1390l366 -736l598 736h72l-645 -790l-95 -602h-68l95 602l-395 790h72z" />
    <glyph glyph-name="Z" unicode="Z" horiz-adv-x="1152" 
d="M1048 0h-944l11 68l1080 1264h-876l9 60h950l-10 -68l-1080 -1264h870z" />
    <glyph glyph-name="bracketleft" unicode="[" horiz-adv-x="466" 
d="M174 -10h280l-12 -80h-366l253 1600h366l-13 -80h-280z" />
    <glyph glyph-name="backslash" unicode="\" horiz-adv-x="648" 
d="M319 1420l329 -1420h-92l-331 1420h94z" />
    <glyph glyph-name="bracketright" unicode="]" horiz-adv-x="466" 
d="M-4 -90l12 80h280l228 1440h-280l13 80h366l-253 -1600h-366z" />
    <glyph glyph-name="asciicircum" unicode="^" horiz-adv-x="944" 
d="M369 800h-60l347 592h72l161 -592h-60l-145 538z" />
    <glyph glyph-name="underscore" unicode="_" horiz-adv-x="1012" 
d="M99 -132l15 92h772l-15 -92h-772z" />
    <glyph glyph-name="grave" unicode="`" horiz-adv-x="386" 
d="M514 1530h-54l-84 186h78z" />
    <glyph glyph-name="a" unicode="a" horiz-adv-x="1022" 
d="M420 -24q-143 0 -215 71.5t-53 192.5q20 122 121 196.5t273 93.5l179 20q129 15 171 56l6 10q41 284 -249 284q-135 0 -223 -59.5t-111 -164.5h-64q26 128 137 204t271 76q171 0 250 -86.5t54 -247.5l-99 -622h-64l33 210q-52 -97 -171.5 -165.5t-245.5 -68.5zM441 30
q169 0 286 111.5t147 302.5l17 104q-55 -40 -348 -62q-143 -18 -227 -80t-100 -164q-16 -99 44.5 -155.5t180.5 -56.5z" />
    <glyph glyph-name="b" unicode="b" horiz-adv-x="1138" 
d="M767 956q194 0 290 -134t61 -356t-173.5 -356t-332.5 -134q-138 0 -229.5 67t-115.5 193l-37 -236h-64l220 1392h64l-108 -686q63 122 174.5 186t250.5 64zM611 32q170 0 290 118t151 316q31 197 -51.5 315.5t-251.5 118.5q-170 0 -291 -119t-152 -315q-32 -198 51 -316
t254 -118z" />
    <glyph glyph-name="c" unicode="c" horiz-adv-x="1014" 
d="M167 462q35 223 177.5 358.5t342.5 135.5q142 0 230.5 -74t104.5 -202h-58q-16 101 -93.5 161.5t-191.5 60.5q-171 0 -294.5 -120.5t-155.5 -317.5q-30 -194 52.5 -313t247.5 -119q115 0 216.5 59.5t154.5 158.5h60q-64 -127 -181 -200.5t-259 -73.5q-193 0 -290.5 134
t-62.5 352z" />
    <glyph glyph-name="d" unicode="d" horiz-adv-x="1138" 
d="M673 956q139 0 230.5 -64t116.5 -186l108 686h64l-220 -1392h-64l37 236q-64 -126 -176.5 -193t-250.5 -67q-194 0 -289.5 134t-60.5 356t173 356t332 134zM537 32q171 0 291 118t152 316q31 197 -52.5 315.5t-252.5 118.5t-289.5 -118.5t-151.5 -315.5q-31 -198 51 -316
t252 -118z" />
    <glyph glyph-name="e" unicode="e" horiz-adv-x="1056" 
d="M1037 476l-807 2q-36 -199 48.5 -323.5t254.5 -124.5q114 2 215 61.5t154 158.5h60q-61 -125 -180 -199.5t-258 -74.5q-196 0 -292 133.5t-64 360.5q38 222 177 354t334 132t293 -131.5t65 -348.5zM671 902q-152 0 -270.5 -102.5t-161.5 -273.5l744 -2q11 173 -74 275.5
t-238 102.5z" />
    <glyph glyph-name="f" unicode="f" horiz-adv-x="558" 
d="M664 1392l61 -3l-8 -49l-46 2q-104 5 -153 -35.5t-65 -140.5l-34 -210h226l-8 -52h-226l-143 -904h-64l143 904h-150l8 52h150l34 210q20 126 82.5 178t192.5 48z" />
    <glyph glyph-name="g" unicode="g" horiz-adv-x="1142" 
d="M1028 720l34 212h62l-151 -950q-19 -123 -86 -226q-67 -92 -164.5 -136.5t-237.5 -45.5q-141 0 -226.5 44.5t-123.5 137.5q-20 54 -20 134h66q5 -158 113 -220q86 -47 201 -44q116 0 207 44q172 82 212 332l44 278q-63 -118 -174 -181t-250 -63q-194 0 -291 126t-64 334
q32 207 169 332.5t331 125.5q139 0 230.5 -60t118.5 -174zM552 88q171 0 290.5 111.5t148.5 296.5q29 183 -56 294.5t-254 111.5t-288 -111.5t-148 -294.5q-29 -185 54.5 -296.5t252.5 -111.5z" />
    <glyph glyph-name="h" unicode="h" horiz-adv-x="1100" 
d="M741 956q173 0 249.5 -98.5t45.5 -287.5l-90 -570h-64l87 552q28 176 -30.5 262t-205.5 86q-162 0 -278.5 -107.5t-144.5 -284.5l-80 -506h-64l220 1390h64l-103 -652q54 94 168 155t226 61z" />
    <glyph glyph-name="i" unicode="i" horiz-adv-x="396" 
d="M397 1254q-28 0 -46 20.5t-14 47.5q5 29 29.5 50.5t52.5 21.5q27 0 44.5 -22t13.5 -50q-4 -27 -28.5 -47.5t-51.5 -20.5zM166 0l148 932h64l-148 -932h-64z" />
    <glyph glyph-name="j" unicode="j" horiz-adv-x="396" 
d="M419 1394q27 0 44.5 -22t13.5 -50q-4 -27 -28.5 -47.5t-51.5 -20.5q-28 0 -46 20.5t-14 47.5q5 29 29.5 50.5t52.5 21.5zM133 -195l179 1127h64l-179 -1127q-20 -126 -83 -178t-193 -48l-89 4l8 50l75 -4q104 -5 153 35.5t65 140.5z" />
    <glyph glyph-name="k" unicode="k" horiz-adv-x="916" 
d="M238 0h-64l220 1392h64l-161 -1018l631 558h78l-415 -368l279 -564h-72l-255 522l-259 -230z" />
    <glyph glyph-name="l" unicode="l" horiz-adv-x="412" 
d="M238 0h-64l220 1392h64z" />
    <glyph glyph-name="m" unicode="m" horiz-adv-x="1646" 
d="M1317 956q149 0 223 -93t49 -249l-97 -614h-60l95 602q22 138 -39 218t-187 80q-128 0 -226 -85.5t-118 -214.5l-95 -600h-62l96 604q21 137 -39.5 216.5t-187.5 79.5q-129 0 -226.5 -85t-117.5 -213l-95 -602h-64l148 932h60l-27 -170q46 84 141.5 139t196.5 55
q119 0 193 -64.5t78 -173.5q35 99 141 168.5t220 69.5z" />
    <glyph glyph-name="n" unicode="n" horiz-adv-x="1100" 
d="M230 2h-64l147 928h64l-30 -190q54 94 168 155t226 61q173 0 249.5 -98.5t45.5 -287.5l-90 -570h-64l87 552q28 176 -30.5 262t-205.5 86q-162 0 -278.5 -107.5t-144.5 -284.5z" />
    <glyph glyph-name="o" unicode="o" horiz-adv-x="1072" 
d="M1052 470q-38 -226 -179 -360t-341 -134q-199 0 -297.5 133.5t-66.5 360.5q38 221 179.5 353.5t339.5 132.5t297.5 -132.5t67.5 -353.5zM541 30q170 0 294 120.5t155 315.5t-55 315.5t-256 120.5t-294 -120.5t-155 -315.5t55 -315.5t256 -120.5z" />
    <glyph glyph-name="p" unicode="p" horiz-adv-x="1138" 
d="M266 226l-100 -632h-64l212 1338h64l-38 -236q64 126 176.5 193t250.5 67q194 0 290 -134t61 -356t-173.5 -356t-332.5 -134q-139 0 -230 64t-116 186zM749 900q-171 0 -291 -118t-152 -316q-31 -196 52 -315t253 -119q169 0 289 118.5t152 315.5q31 198 -51 316
t-252 118z" />
    <glyph glyph-name="q" unicode="q" horiz-adv-x="1138" 
d="M844 -406l100 632q-63 -122 -175 -186t-251 -64q-194 0 -289.5 134t-60.5 356t173 356t332 134q138 0 229.5 -67t115.5 -193l38 236h64l-212 -1338h-64zM675 900q-170 0 -290 -118t-151 -316q-32 -197 51 -315.5t252 -118.5t290 118.5t153 315.5q32 198 -51 316t-254 118
z" />
    <glyph glyph-name="r" unicode="r" horiz-adv-x="620" 
d="M715 956l-8 -56q-154 -11 -262 -117t-135 -275l-80 -506h-64l147 928h64l-30 -190q51 88 155.5 148t212.5 68z" />
    <glyph glyph-name="s" unicode="s" horiz-adv-x="844" 
d="M119 232h60q-9 -93 50.5 -146.5t171.5 -53.5q128 0 210.5 55t97.5 149q13 76 -22 119t-128 69l-155 42q-110 30 -159 90.5t-35 147.5q18 114 115 183t240 69q138 0 210.5 -67t62.5 -185h-60q5 93 -53 144.5t-168 51.5q-122 0 -195.5 -51t-87.5 -145q-23 -135 152 -184
l154 -42q118 -31 163.5 -88.5t29.5 -153.5q-18 -117 -121.5 -188.5t-255.5 -71.5q-143 0 -216.5 68.5t-60.5 187.5z" />
    <glyph glyph-name="t" unicode="t" horiz-adv-x="598" 
d="M510 50l42 2l-8 -50l-56 -2q-132 0 -178 50.5t-26 175.5l103 654h-194l9 52h194l48 304h64l-48 -304h194l-9 -52h-194l-103 -654q-16 -99 19.5 -137.5t142.5 -38.5z" />
    <glyph glyph-name="u" unicode="u" horiz-adv-x="1100" 
d="M1018 932h64l-147 -928h-64l30 190q-55 -94 -168.5 -155t-225.5 -61q-173 0 -249.5 98.5t-45.5 287.5l90 570h64l-87 -552q-57 -348 236 -348q162 0 278 107.5t144 284.5z" />
    <glyph glyph-name="v" unicode="v" horiz-adv-x="930" 
d="M252 932l221 -886l503 886h62l-536 -932h-74l-240 932h64z" />
    <glyph glyph-name="w" unicode="w" horiz-adv-x="1436" 
d="M902 932l146 -872l428 872h58l-460 -932h-74l-141 892l-425 -892h-74l-162 932h58l151 -874l421 874h74z" />
    <glyph glyph-name="x" unicode="x" horiz-adv-x="860" 
d="M124 0h-76l412 470l-262 462h76l239 -422l373 422h74l-412 -466l264 -466h-76l-241 424z" />
    <glyph glyph-name="y" unicode="y" horiz-adv-x="892" 
d="M112 -418q-57 0 -115 10l8 46q90 -8 116 -8q79 2 127 35.5t94 120.5l69 134l-223 1012h66l201 -926l481 926h64l-605 -1164q-49 -96 -118 -141t-165 -45z" />
    <glyph glyph-name="z" unicode="z" horiz-adv-x="860" 
d="M766 0h-672l9 54l734 826h-604l9 52h672l-9 -56l-733 -824h602z" />
    <glyph glyph-name="braceleft" unicode="{" horiz-adv-x="534" 
d="M196 668l13 86q91 0 131 32.5t49 89.5l74 468q11 75 65 120.5t135 45.5h100l-13 -80h-102q-40 0 -67 -24.5t-32 -61.5l-74 -468q-10 -65 -41.5 -105t-94.5 -59q57 -20 75 -60.5t8 -105.5l-74 -470q-6 -37 13.5 -61.5t58.5 -24.5h102l-12 -80h-100q-81 0 -120 45.5
t-28 120.5l74 470q9 57 -20 89.5t-120 32.5z" />
    <glyph glyph-name="bar" unicode="|" horiz-adv-x="600" 
d="M247 -168l274 1728h52l-274 -1728h-52z" />
    <glyph glyph-name="braceright" unicode="}" horiz-adv-x="534" 
d="M96 -90h-100l12 80h102q39 0 66.5 24.5t33.5 61.5l74 470q10 65 41.5 105.5t95.5 60.5q-57 19 -75.5 59t-8.5 105l74 468q5 37 -14.5 61.5t-58.5 24.5h-102l13 80h100q81 0 120 -45.5t28 -120.5l-74 -468q-9 -57 20 -89.5t120 -32.5l-13 -86q-91 0 -131 -32.5t-49 -89.5
l-74 -470q-11 -75 -65 -120.5t-135 -45.5z" />
    <glyph glyph-name="asciitilde" unicode="~" horiz-adv-x="1320" 
d="M1197 686h58q-22 -118 -93 -187t-170 -69q-47 0 -100.5 19.5t-83.5 37t-88 55.5q-48 32 -76 49t-70 33t-79 16q-78 0 -123.5 -45.5t-68.5 -144.5h-58q23 116 93 183t167 67q41 0 88 -17t78 -35.5t83 -53.5q52 -34 83 -52t78.5 -35t88.5 -17q76 0 122.5 47.5t70.5 148.5z
" />
    <glyph glyph-name="exclamdown" unicode="&#xa1;" horiz-adv-x="500" 
d="M481 1448q44 0 71 -32.5t20 -77.5t-44.5 -77.5t-81.5 -32.5q-46 0 -74 32.5t-20 77.5q7 45 45 77.5t84 32.5zM377 994h60q-18 -217 -87 -654l-54 -340h-92l54 340q69 436 119 654z" />
    <glyph glyph-name="cent" unicode="&#xa2;" horiz-adv-x="1078" 
d="M538 -2l34 214q-122 7 -209 70t-124 169.5t-16 238.5q34 213 172 347.5t330 140.5l33 214h60l-33 -212q138 -11 223.5 -84t100.5 -194h-68q-16 103 -96.5 161.5t-206.5 58.5q-170 0 -294 -119t-154 -311q-29 -184 61 -303t260 -119q124 0 219 55t149 159h68
q-61 -125 -168.5 -195.5t-246.5 -76.5l-34 -214h-60z" />
    <glyph glyph-name="sterling" unicode="&#xa3;" horiz-adv-x="1182" 
d="M696 0h-614l10 62q117 30 207 131t110 227q16 105 -12 254h-196l9 60h174q-1 4 -6.5 32.5t-7 34.5t-6 31.5t-5.5 35t-3.5 31.5t-2.5 35.5v33t1.5 37t4.5 35.5q27 170 156 273t313 103q174 0 270 -88.5t95 -247.5h-72q3 132 -76 204t-226 72q-160 0 -264.5 -84.5
t-128.5 -233.5q-5 -31 -6 -61t3.5 -66t7.5 -54.5t13 -64.5t12 -58h512l-9 -60h-490q26 -140 7 -256q-17 -111 -88 -204t-164 -126l2 -28h480q165 0 253.5 81t119.5 259h64q-35 -204 -144.5 -302t-302.5 -98z" />
    <glyph glyph-name="currency" unicode="&#xa4;" horiz-adv-x="1184" 
d="M1053 218l-132 154q-131 -100 -288 -100q-149 0 -252 98l-180 -152l-39 46l182 154q-81 113 -58 266q24 148 141 272l-132 152l54 46l132 -152q135 98 283 98q158 0 256 -100l181 154l38 -46l-182 -154q81 -116 57 -270q-25 -156 -142 -266l134 -154zM1052 684
q23 145 -64.5 249.5t-233.5 104.5q-144 0 -263.5 -104t-142.5 -250q-22 -142 65 -246t230 -104q95 0 184.5 47t149.5 128t75 175z" />
    <glyph glyph-name="yen" unicode="&#xa5;" horiz-adv-x="1130" 
d="M615 636l-331 756h74l314 -748l542 748h72l-561 -756h346l-9 -56h-368l-30 -188h368l-9 -56h-368l-53 -336h-64l53 336h-370l9 56h370l30 188h-370l9 56h346z" />
    <glyph glyph-name="brokenbar" unicode="&#xa6;" horiz-adv-x="600" 
d="M573 1560l-111 -700h-52l111 700h52zM247 -168l111 700h52l-111 -700h-52z" />
    <glyph glyph-name="section" unicode="&#xa7;" horiz-adv-x="916" 
d="M929 698q-13 -78 -78.5 -138t-164.5 -82l-5 -28q76 -30 110 -86.5t21 -133.5q-18 -114 -115 -183t-240 -69q-138 0 -211.5 67t-63.5 185h62q-5 -93 53 -144.5t168 -51.5q121 0 194.5 50.5t88.5 145.5q11 69 -29 117.5t-125 66.5l-194 42q-114 26 -160.5 84.5t-30.5 157.5
q12 78 77.5 138t164.5 82l5 28q-76 30 -109.5 86.5t-21.5 133.5q18 114 115.5 183t240.5 69q138 0 211 -67t63 -185h-62q5 93 -53 144.5t-168 51.5q-121 0 -194.5 -50.5t-88.5 -145.5q-11 -69 29 -117.5t126 -66.5l193 -42q115 -24 161.5 -82.5t30.5 -159.5zM865 698
q15 96 -54.5 149t-209.5 53t-226.5 -53t-101.5 -149q-16 -96 54 -149t210 -53t226 53t102 149z" />
    <glyph glyph-name="dieresis" unicode="&#xa8;" horiz-adv-x="688" 
d="M462 1576q-28 0 -46 20.5t-14 47.5q5 29 29.5 50.5t52.5 21.5q27 0 44.5 -22t13.5 -50q-4 -27 -28.5 -47.5t-51.5 -20.5zM726 1576q-28 0 -46 20.5t-14 47.5q5 29 29.5 50.5t52.5 21.5q27 0 44.5 -22t13.5 -50q-4 -27 -28.5 -47.5t-51.5 -20.5z" />
    <glyph glyph-name="copyright" unicode="&#xa9;" horiz-adv-x="1630" 
d="M810 -28q-201 0 -351.5 95t-218.5 261t-36 368q32 200 153 365.5t301 260t380 94.5q151 0 276 -55.5t206 -151t115.5 -229t10.5 -284.5q-32 -202 -152.5 -368t-301 -261t-382.5 -95zM817 20q187 0 354 88t278 243t141 345q30 189 -32 343t-201 241.5t-326 87.5
q-186 0 -352.5 -88t-277.5 -242t-141 -342q-30 -190 31.5 -345t200 -243t325.5 -88zM575 690q28 177 147.5 286.5t283.5 109.5q111 0 184.5 -58.5t88.5 -159.5h-66q-13 79 -68.5 121.5t-147.5 42.5q-136 0 -237 -95t-124 -245q-24 -149 44 -242.5t200 -93.5q93 0 166.5 42
t115.5 120h62q-49 -99 -144 -157.5t-208 -58.5q-158 0 -241 108.5t-56 279.5z" />
    <glyph glyph-name="ordfeminine" unicode="&#xaa;" horiz-adv-x="822" 
d="M650 1400q140 0 205.5 -72.5t44.5 -205.5l-80 -503h-80l19 121q-55 -62 -138.5 -101t-166.5 -39q-118 0 -179 60.5t-45 161.5q17 102 100.5 164.5t225.5 78.5l140 16q89 9 122 37l2 3q28 204 -185 204q-104 0 -169 -46t-77 -129h-80q16 113 110 181.5t231 68.5zM474 672
q127 0 214 83t110 227l9 59q-72 -26 -255 -40q-218 -27 -241 -177q-12 -71 31.5 -111.5t131.5 -40.5z" />
    <glyph glyph-name="guillemotleft" unicode="&#xab;" horiz-adv-x="1078" 
d="M500 0l-344 480l496 480h98l-496 -480l344 -480h-98zM900 0l-344 480l496 480h98l-496 -480l344 -480h-98z" />
    <glyph glyph-name="logicalnot" unicode="&#xac;" horiz-adv-x="1320" 
d="M1159 612l-73 -460h-64l63 400h-824l10 60h888z" />
    <glyph glyph-name="registered" unicode="&#xae;" horiz-adv-x="938" 
d="M574 658q-166 0 -260 111.5t-68 276.5q25 163 155.5 274.5t295.5 111.5t259 -110.5t68 -275.5q-26 -166 -154.5 -277t-295.5 -111zM583 714q141 0 251 95t132 237q22 141 -57.5 235.5t-220.5 94.5t-250.5 -94.5t-131.5 -235.5q-23 -143 56 -237.5t221 -94.5zM520 834h-62
l69 432h156q71 0 107 -35.5t26 -96.5q-7 -43 -35.5 -75t-74.5 -47l70 -178h-70l-62 164h-98zM749 1132q6 37 -14.5 56.5t-63.5 19.5h-92l-24 -152h92q90 0 102 76z" />
    <glyph glyph-name="macron" unicode="&#xaf;" horiz-adv-x="672" 
d="M396 1654l9 56h404l-9 -56h-404z" />
    <glyph glyph-name="degree" unicode="&#xb0;" horiz-adv-x="484" 
d="M641 1208q-14 -90 -82.5 -149t-158.5 -59t-139.5 59t-35.5 149t82.5 149t158.5 59t139.5 -59t35.5 -149zM589 1208q11 69 -26 114.5t-104 45.5t-119 -45.5t-63 -114.5t26.5 -114.5t104.5 -45.5q68 0 119.5 45.5t61.5 114.5z" />
    <glyph glyph-name="plusminus" unicode="&#xb1;" horiz-adv-x="1320" 
d="M293 750h456l63 396h60l-63 -396h456l-10 -60h-456l-62 -396h-60l62 396h-456zM174 0l10 60h972l-10 -60h-972z" />
    <glyph glyph-name="uni00B2" unicode="&#xb2;" horiz-adv-x="724" 
d="M314 664h415l-10 -63h-522l9 55l288 224q128 99 175.5 158.5t59.5 137.5q13 83 -27 131t-123 48q-87 0 -150.5 -60t-80.5 -160h-68q22 128 108 206t203 78q108 0 165.5 -67t40.5 -173q-15 -92 -72.5 -166.5t-198.5 -182.5z" />
    <glyph glyph-name="uni00B3" unicode="&#xb3;" horiz-adv-x="738" 
d="M501 1045h-57l7 49l275 254h-388l9 63h484l-8 -54l-272 -252q117 -5 178.5 -73t44.5 -175q-19 -118 -107 -191t-212 -73q-121 0 -181 72t-38 192h68q-17 -93 26 -146.5t135 -53.5q96 0 161.5 55t79.5 147q14 88 -39.5 137t-165.5 49z" />
    <glyph glyph-name="acute" unicode="&#xb4;" horiz-adv-x="390" 
d="M555 1714l-145 -184h-54l123 184h76z" />
    <glyph glyph-name="uni00B5" unicode="&#xb5;" horiz-adv-x="1080" 
d="M154 -406h-64l212 1340h66l-88 -556q-27 -171 32 -258.5t203 -87.5q160 0 267 106.5t137 295.5l79 498h64l-148 -932h-48l10 166l-25 4q-53 -88 -153 -141t-214 -53q-74 0 -135 28t-94 76l-26 -8z" />
    <glyph glyph-name="paragraph" unicode="&#xb6;" horiz-adv-x="1118" 
d="M233 1006q28 172 145 279t276 107h198l-238 -1508h-64l115 730h-134q-160 0 -243 108.5t-55 283.5zM865 -120h-64l239 1512h64z" />
    <glyph glyph-name="periodcentered" unicode="&#xb7;" horiz-adv-x="500" 
d="M304 340q-63 0 -102.5 45.5t-29.5 108.5q11 65 64 110.5t117 45.5q65 0 103 -46t28 -110q-10 -63 -63.5 -108.5t-116.5 -45.5z" />
    <glyph glyph-name="cedilla" unicode="&#xb8;" horiz-adv-x="432" 
d="M44 -318l6 40q40 -20 87 -20t78 21t36 57q6 37 -14.5 57.5t-64.5 20.5t-94 -22l-4 26l100 162h24l-6 -34l-70 -116q56 20 85 20q51 0 77.5 -30.5t19.5 -79.5q-9 -56 -54.5 -90t-109.5 -34t-96 22z" />
    <glyph glyph-name="uni00B9" unicode="&#xb9;" horiz-adv-x="484" 
d="M300 1260l245 150h62l-128 -809h-67l115 728l-203 -126z" />
    <glyph glyph-name="ordmasculine" unicode="&#xba;" horiz-adv-x="936" 
d="M562 595q-166 0 -248.5 111.5t-54.5 298.5q31 182 149 292t283 110t248.5 -110.5t55.5 -291.5q-31 -187 -149 -298.5t-284 -111.5zM574 668q130 0 224 91.5t118 241.5q23 150 -42 241.5t-195 91.5t-224 -91.5t-117 -241.5q-24 -150 41 -241.5t195 -91.5z" />
    <glyph glyph-name="guillemotright" unicode="&#xbb;" horiz-adv-x="1078" 
d="M178 0h-98l496 480l-344 480h98l344 -480zM578 0h-98l496 480l-344 480h98l344 -480z" />
    <glyph glyph-name="questiondown" unicode="&#xbf;" horiz-adv-x="998" 
d="M769 1446q46 0 74 -32.5t21 -77.5q-8 -45 -46 -77.5t-84 -32.5q-44 0 -70.5 32.5t-19.5 77.5t44 77.5t81 32.5zM680 1110h90l-9 -56q-9 -55 -32.5 -102t-64.5 -88t-77 -69t-94 -67q-46 -32 -73.5 -52t-65.5 -53.5t-60.5 -64t-42 -72.5t-26.5 -88q-22 -141 55.5 -237.5
t227.5 -96.5q140 0 254.5 98t136.5 236h92q-28 -176 -173.5 -300t-323.5 -124q-192 0 -290.5 122t-70.5 302q9 59 33 111.5t51 89t71.5 76.5t75 62t82.5 57q108 72 160.5 128.5t64.5 131.5z" />
    <glyph glyph-name="Agrave" unicode="&#xc0;" horiz-adv-x="1236" 
d="M885 1532h-54l-84 186h78zM358 454l-242 -454h-66l746 1392h84l306 -1392h-66l-98 454h-664zM1010 508l-179 836l-445 -836h624z" />
    <glyph glyph-name="Aacute" unicode="&#xc1;" horiz-adv-x="1236" 
d="M1037 1716l-145 -184h-54l123 184h76zM358 454l-242 -454h-66l746 1392h84l306 -1392h-66l-98 454h-664zM1010 508l-179 836l-445 -836h624z" />
    <glyph glyph-name="Acircumflex" unicode="&#xc2;" horiz-adv-x="1236" 
d="M772 1532h-62l139 162h58l98 -162h-62l-69 117zM358 454l-242 -454h-66l746 1392h84l306 -1392h-66l-98 454h-664zM1010 508l-179 836l-445 -836h624z" />
    <glyph glyph-name="Atilde" unicode="&#xc3;" horiz-adv-x="1236" 
d="M713 1572h-41q11 74 41.5 115t75.5 41q18 0 34.5 -9t25.5 -17.5t26 -27.5q14 -16 22.5 -24.5t24 -17t31.5 -8.5q58 0 80 104h41q-29 -156 -128 -156q-20 0 -38.5 10t-27 19t-25.5 29q-14 17 -20 23t-19 14.5t-26 8.5q-26 0 -46 -27t-31 -77zM358 454l-242 -454h-66
l746 1392h84l306 -1392h-66l-98 454h-664zM1010 508l-179 836l-445 -836h624z" />
    <glyph glyph-name="Adieresis" unicode="&#xc4;" horiz-adv-x="1236" 
d="M738 1578q-28 0 -46 20.5t-14 47.5q5 29 29.5 50.5t52.5 21.5q27 0 44.5 -22t13.5 -50q-4 -27 -28.5 -47.5t-51.5 -20.5zM1002 1578q-28 0 -46 20.5t-14 47.5q5 29 29.5 50.5t52.5 21.5q27 0 44.5 -22t13.5 -50q-4 -27 -28.5 -47.5t-51.5 -20.5zM358 454l-242 -454h-66
l746 1392h84l306 -1392h-66l-98 454h-664zM1010 508l-179 836l-445 -836h624z" />
    <glyph glyph-name="Aring" unicode="&#xc5;" horiz-adv-x="1236" 
d="M868 1534q-60 0 -92 38.5t-23 98.5q10 59 54.5 97.5t103.5 38.5q58 0 91 -39t23 -97q-9 -57 -54.5 -97t-102.5 -40zM876 1584q37 0 63.5 24.5t32.5 62.5t-13.5 63t-55.5 25t-63 -24.5t-34 -63.5q-6 -38 13.5 -62.5t56.5 -24.5zM358 454l-242 -454h-66l746 1392h84
l306 -1392h-66l-98 454h-664zM1010 508l-179 836l-445 -836h624z" />
    <glyph glyph-name="AE" unicode="&#xc6;" horiz-adv-x="1514" 
d="M1464 2h-846l72 452h-332l-242 -454h-66l746 1392l887 2l-10 -60h-778l-95 -604h712l-10 -60h-712l-96 -608h780zM831 1344l-445 -836h312z" />
    <glyph glyph-name="Ccedilla" unicode="&#xc7;" horiz-adv-x="1432" 
d="M964 1352q-257 0 -445.5 -182t-234.5 -474q-46 -291 85.5 -472.5t387.5 -181.5q179 0 335 92t232 244h70q-84 -180 -261.5 -290t-387.5 -110q-20 0 -29 1l-51 -82q71 15 120 -18.5t39 -94.5q-9 -56 -54.5 -90t-109.5 -34t-96 22l6 40q40 -20 87 -20t78 21t36 57
q6 37 -14.5 57.5t-64.5 20.5t-94 -22l-4 26l74 120q-250 28 -375 223.5t-79 490.5q51 320 264 520t502 200q208 0 346 -115.5t157 -306.5h-70q-25 164 -147.5 261t-301.5 97z" />
    <glyph glyph-name="Egrave" unicode="&#xc8;" horiz-adv-x="1174" 
d="M885 1530h-54l-84 186h78zM1040 0h-846l220 1392h844l-9 -60h-778l-96 -604h712l-9 -60h-712l-96 -608h780z" />
    <glyph glyph-name="Eacute" unicode="&#xc9;" horiz-adv-x="1174" 
d="M1037 1714l-145 -184h-54l123 184h76zM1040 0h-846l220 1392h844l-9 -60h-778l-96 -604h712l-9 -60h-712l-96 -608h780z" />
    <glyph glyph-name="Ecircumflex" unicode="&#xca;" horiz-adv-x="1174" 
d="M772 1530h-62l139 162h58l98 -162h-62l-69 117zM1040 0h-846l220 1392h844l-9 -60h-778l-96 -604h712l-9 -60h-712l-96 -608h780z" />
    <glyph glyph-name="Edieresis" unicode="&#xcb;" horiz-adv-x="1174" 
d="M738 1576q-28 0 -46 20.5t-14 47.5q5 29 29.5 50.5t52.5 21.5q27 0 44.5 -22t13.5 -50q-4 -27 -28.5 -47.5t-51.5 -20.5zM1002 1576q-28 0 -46 20.5t-14 47.5q5 29 29.5 50.5t52.5 21.5q27 0 44.5 -22t13.5 -50q-4 -27 -28.5 -47.5t-51.5 -20.5zM1040 0h-846l220 1392
h844l-9 -60h-778l-96 -604h712l-9 -60h-712l-96 -608h780z" />
    <glyph glyph-name="Igrave" unicode="&#xcc;" horiz-adv-x="456" 
d="M543 1530h-54l-84 186h78zM482 1392l-220 -1392h-68l220 1392h68z" />
    <glyph glyph-name="Iacute" unicode="&#xcd;" horiz-adv-x="456" 
d="M611 1714l-145 -184h-54l123 184h76zM482 1392l-220 -1392h-68l220 1392h68z" />
    <glyph glyph-name="Icircumflex" unicode="&#xce;" horiz-adv-x="456" 
d="M385 1530h-62l139 162h58l98 -162h-62l-69 117zM482 1392l-220 -1392h-68l220 1392h68z" />
    <glyph glyph-name="Idieresis" unicode="&#xcf;" horiz-adv-x="456" 
d="M348 1576q-28 0 -46 20.5t-14 47.5q5 29 29.5 50.5t52.5 21.5q27 0 44.5 -22t13.5 -50q-4 -27 -28.5 -47.5t-51.5 -20.5zM612 1576q-28 0 -46 20.5t-14 47.5q5 29 29.5 50.5t52.5 21.5q27 0 44.5 -22t13.5 -50q-4 -27 -28.5 -47.5t-51.5 -20.5zM482 1392l-220 -1392h-68
l220 1392h68z" />
    <glyph glyph-name="Ntilde" unicode="&#xd1;" horiz-adv-x="1386" 
d="M792 1570h-41q11 74 41.5 115t75.5 41q18 0 34.5 -9t25.5 -17.5t26 -27.5q14 -16 22.5 -24.5t24 -17t31.5 -8.5q58 0 80 104h41q-29 -156 -128 -156q-20 0 -38.5 10t-27 19t-25.5 29q-14 17 -20 23t-19 14.5t-26 8.5q-26 0 -46 -27t-31 -77zM490 1392l650 -1292l204 1292
h68l-220 -1392h-74l-651 1296l-205 -1296h-68l220 1392h76z" />
    <glyph glyph-name="Ograve" unicode="&#xd2;" horiz-adv-x="1492" 
d="M1059 1530h-54l-84 186h78zM742 -26q-190 0 -322 90.5t-186 254.5t-20 377q52 324 260.5 523t496.5 199q190 0 321.5 -90t185.5 -254t20 -378q-51 -324 -259.5 -523t-496.5 -199zM751 30q169 0 314.5 84t242.5 235.5t128 346.5t-17.5 346.5t-167.5 235.5t-289 84
q-258 0 -447.5 -184.5t-236.5 -481.5q-31 -195 18 -346.5t167.5 -235.5t287.5 -84z" />
    <glyph glyph-name="Oacute" unicode="&#xd3;" horiz-adv-x="1492" 
d="M1141 1714l-145 -184h-54l123 184h76zM742 -26q-190 0 -322 90.5t-186 254.5t-20 377q52 324 260.5 523t496.5 199q190 0 321.5 -90t185.5 -254t20 -378q-51 -324 -259.5 -523t-496.5 -199zM751 30q169 0 314.5 84t242.5 235.5t128 346.5t-17.5 346.5t-167.5 235.5
t-289 84q-258 0 -447.5 -184.5t-236.5 -481.5q-31 -195 18 -346.5t167.5 -235.5t287.5 -84z" />
    <glyph glyph-name="Ocircumflex" unicode="&#xd4;" horiz-adv-x="1492" 
d="M873 1530h-62l139 162h58l98 -162h-62l-69 117zM742 -26q-190 0 -322 90.5t-186 254.5t-20 377q52 324 260.5 523t496.5 199q190 0 321.5 -90t185.5 -254t20 -378q-51 -324 -259.5 -523t-496.5 -199zM751 30q169 0 314.5 84t242.5 235.5t128 346.5t-17.5 346.5
t-167.5 235.5t-289 84q-258 0 -447.5 -184.5t-236.5 -481.5q-31 -195 18 -346.5t167.5 -235.5t287.5 -84z" />
    <glyph glyph-name="Otilde" unicode="&#xd5;" horiz-adv-x="1492" 
d="M838 1570h-41q11 74 41.5 115t75.5 41q18 0 34.5 -9t25.5 -17.5t26 -27.5q14 -16 22.5 -24.5t24 -17t31.5 -8.5q58 0 80 104h41q-29 -156 -128 -156q-20 0 -38.5 10t-27 19t-25.5 29q-14 17 -20 23t-19 14.5t-26 8.5q-26 0 -46 -27t-31 -77zM742 -26q-190 0 -322 90.5
t-186 254.5t-20 377q52 324 260.5 523t496.5 199q190 0 321.5 -90t185.5 -254t20 -378q-51 -324 -259.5 -523t-496.5 -199zM751 30q169 0 314.5 84t242.5 235.5t128 346.5t-17.5 346.5t-167.5 235.5t-289 84q-258 0 -447.5 -184.5t-236.5 -481.5q-31 -195 18 -346.5
t167.5 -235.5t287.5 -84z" />
    <glyph glyph-name="Odieresis" unicode="&#xd6;" horiz-adv-x="1492" 
d="M848 1576q-28 0 -46 20.5t-14 47.5q5 29 29.5 50.5t52.5 21.5q27 0 44.5 -22t13.5 -50q-4 -27 -28.5 -47.5t-51.5 -20.5zM1112 1576q-28 0 -46 20.5t-14 47.5q5 29 29.5 50.5t52.5 21.5q27 0 44.5 -22t13.5 -50q-4 -27 -28.5 -47.5t-51.5 -20.5zM742 -26
q-190 0 -322 90.5t-186 254.5t-20 377q52 324 260.5 523t496.5 199q190 0 321.5 -90t185.5 -254t20 -378q-51 -324 -259.5 -523t-496.5 -199zM751 30q169 0 314.5 84t242.5 235.5t128 346.5t-17.5 346.5t-167.5 235.5t-289 84q-258 0 -447.5 -184.5t-236.5 -481.5
q-31 -195 18 -346.5t167.5 -235.5t287.5 -84z" />
    <glyph glyph-name="multiply" unicode="&#xd7;" horiz-adv-x="1320" 
d="M453 1080l318 -378l440 378l35 -42l-439 -378l319 -380l-48 -42l-320 380l-440 -380l-36 42l441 380l-319 378z" />
    <glyph glyph-name="Oslash" unicode="&#xd8;" horiz-adv-x="1492" 
d="M1462 1392l-108 -115q98 -96 136 -245.5t8 -335.5q-51 -324 -259.5 -523t-496.5 -199q-280 0 -427 191l-155 -165h-54l186 199q-126 197 -78 497q52 324 260.5 523t496.5 199q212 0 353 -114l82 88h56zM278 696q-42 -266 62 -445l939 1005q-126 106 -317 106
q-258 0 -447.5 -184.5t-236.5 -481.5zM1436 696q27 169 -6.5 306t-120.5 226l-947 -1012q63 -89 162.5 -137.5t226.5 -48.5q169 0 314.5 84t242.5 235.5t128 346.5z" />
    <glyph glyph-name="Ugrave" unicode="&#xd9;" horiz-adv-x="1354" 
d="M885 1530h-54l-84 186h78zM1176 470l146 922h68l-146 -924q-37 -231 -187 -361.5t-381 -130.5q-234 0 -344.5 130t-73.5 362l146 924h68l-146 -922q-32 -207 61 -317.5t300 -110.5q203 0 330 111.5t159 316.5z" />
    <glyph glyph-name="Uacute" unicode="&#xda;" horiz-adv-x="1354" 
d="M1037 1714l-145 -184h-54l123 184h76zM1176 470l146 922h68l-146 -924q-37 -231 -187 -361.5t-381 -130.5q-234 0 -344.5 130t-73.5 362l146 924h68l-146 -922q-32 -207 61 -317.5t300 -110.5q203 0 330 111.5t159 316.5z" />
    <glyph glyph-name="Ucircumflex" unicode="&#xdb;" horiz-adv-x="1354" 
d="M833 1530h-62l139 162h58l98 -162h-62l-69 117zM1176 470l146 922h68l-146 -924q-37 -231 -187 -361.5t-381 -130.5q-234 0 -344.5 130t-73.5 362l146 924h68l-146 -922q-32 -207 61 -317.5t300 -110.5q203 0 330 111.5t159 316.5z" />
    <glyph glyph-name="Udieresis" unicode="&#xdc;" horiz-adv-x="1354" 
d="M807 1576q-28 0 -46 20.5t-14 47.5q5 29 29.5 50.5t52.5 21.5q27 0 44.5 -22t13.5 -50q-4 -27 -28.5 -47.5t-51.5 -20.5zM1071 1576q-28 0 -46 20.5t-14 47.5q5 29 29.5 50.5t52.5 21.5q27 0 44.5 -22t13.5 -50q-4 -27 -28.5 -47.5t-51.5 -20.5zM1176 470l146 922h68
l-146 -924q-37 -231 -187 -361.5t-381 -130.5q-234 0 -344.5 130t-73.5 362l146 924h68l-146 -922q-32 -207 61 -317.5t300 -110.5q203 0 330 111.5t159 316.5z" />
    <glyph glyph-name="Yacute" unicode="&#xdd;" horiz-adv-x="1200" 
d="M967 1714l-145 -184h-54l123 184h76zM338 1390l366 -736l598 736h72l-645 -790l-95 -602h-68l95 602l-395 790h72z" />
    <glyph glyph-name="germandbls" unicode="&#xdf;" horiz-adv-x="1184" 
d="M473 1332l-278 -1758h-68l287 1816l832 2l-9 -60l-530 -493q228 9 349.5 -107.5t89.5 -312.5q-31 -202 -181 -326.5t-360 -124.5l10 63q183 0 309 106.5t155 285.5q27 170 -77 266t-316 96h-74l8 50l533 497h-680z" />
    <glyph glyph-name="agrave" unicode="&#xe0;" horiz-adv-x="1022" 
d="M754 1085h-54l-84 186h78zM420 -24q-143 0 -215 71.5t-53 192.5q20 122 121 196.5t273 93.5l179 20q129 15 171 56l6 10q41 284 -249 284q-135 0 -223 -59.5t-111 -164.5h-64q26 128 137 204t271 76q171 0 250 -86.5t54 -247.5l-99 -622h-64l33 210
q-52 -97 -171.5 -165.5t-245.5 -68.5zM441 30q169 0 286 111.5t147 302.5l17 104q-55 -40 -348 -62q-143 -18 -227 -80t-100 -164q-16 -99 44.5 -155.5t180.5 -56.5z" />
    <glyph glyph-name="aacute" unicode="&#xe1;" horiz-adv-x="1022" 
d="M787 1280l-145 -184h-54l123 184h76zM420 -24q-143 0 -215 71.5t-53 192.5q20 122 121 196.5t273 93.5l179 20q129 15 171 56l6 10q41 284 -249 284q-135 0 -223 -59.5t-111 -164.5h-64q26 128 137 204t271 76q171 0 250 -86.5t54 -247.5l-99 -622h-64l33 210
q-52 -97 -171.5 -165.5t-245.5 -68.5zM441 30q169 0 286 111.5t147 302.5l17 104q-55 -40 -348 -62q-143 -18 -227 -80t-100 -164q-16 -99 44.5 -155.5t180.5 -56.5z" />
    <glyph glyph-name="acircumflex" unicode="&#xe2;" horiz-adv-x="1022" 
d="M596 1084h-62l139 162h58l98 -162h-62l-69 117zM420 -24q-143 0 -215 71.5t-53 192.5q20 122 121 196.5t273 93.5l179 20q129 15 171 56l6 10q41 284 -249 284q-135 0 -223 -59.5t-111 -164.5h-64q26 128 137 204t271 76q171 0 250 -86.5t54 -247.5l-99 -622h-64l33 210
q-52 -97 -171.5 -165.5t-245.5 -68.5zM441 30q169 0 286 111.5t147 302.5l17 104q-55 -40 -348 -62q-143 -18 -227 -80t-100 -164q-16 -99 44.5 -155.5t180.5 -56.5z" />
    <glyph glyph-name="atilde" unicode="&#xe3;" horiz-adv-x="1022" 
d="M505 1096h-41q11 74 41.5 115t75.5 41q18 0 34.5 -9t25.5 -17.5t26 -27.5q14 -16 22.5 -24.5t24 -17t31.5 -8.5q58 0 80 104h41q-29 -156 -128 -156q-20 0 -38.5 10t-27 19t-25.5 29q-14 17 -20 23t-19 14.5t-26 8.5q-26 0 -46 -27t-31 -77zM420 -24q-143 0 -215 71.5
t-53 192.5q20 122 121 196.5t273 93.5l179 20q129 15 171 56l6 10q41 284 -249 284q-135 0 -223 -59.5t-111 -164.5h-64q26 128 137 204t271 76q171 0 250 -86.5t54 -247.5l-99 -622h-64l33 210q-52 -97 -171.5 -165.5t-245.5 -68.5zM441 30q169 0 286 111.5t147 302.5
l17 104q-55 -40 -348 -62q-143 -18 -227 -80t-100 -164q-16 -99 44.5 -155.5t180.5 -56.5z" />
    <glyph glyph-name="adieresis" unicode="&#xe4;" horiz-adv-x="1022" 
d="M537 1074q-28 0 -46 20.5t-14 47.5q5 29 29.5 50.5t52.5 21.5q27 0 44.5 -22t13.5 -50q-4 -27 -28.5 -47.5t-51.5 -20.5zM801 1074q-28 0 -46 20.5t-14 47.5q5 29 29.5 50.5t52.5 21.5q27 0 44.5 -22t13.5 -50q-4 -27 -28.5 -47.5t-51.5 -20.5zM420 -24q-143 0 -215 71.5
t-53 192.5q20 122 121 196.5t273 93.5l179 20q129 15 171 56l6 10q41 284 -249 284q-135 0 -223 -59.5t-111 -164.5h-64q26 128 137 204t271 76q171 0 250 -86.5t54 -247.5l-99 -622h-64l33 210q-52 -97 -171.5 -165.5t-245.5 -68.5zM441 30q169 0 286 111.5t147 302.5
l17 104q-55 -40 -348 -62q-143 -18 -227 -80t-100 -164q-16 -99 44.5 -155.5t180.5 -56.5z" />
    <glyph glyph-name="aring" unicode="&#xe5;" horiz-adv-x="1022" 
d="M656 1083q-60 0 -92 38.5t-23 98.5q10 59 54.5 97.5t103.5 38.5q58 0 91 -39t23 -97q-9 -57 -54.5 -97t-102.5 -40zM664 1133q37 0 63.5 24.5t32.5 62.5t-13.5 63t-55.5 25t-63 -24.5t-34 -63.5q-6 -38 13.5 -62.5t56.5 -24.5zM420 -24q-143 0 -215 71.5t-53 192.5
q20 122 121 196.5t273 93.5l179 20q129 15 171 56l6 10q41 284 -249 284q-135 0 -223 -59.5t-111 -164.5h-64q26 128 137 204t271 76q171 0 250 -86.5t54 -247.5l-99 -622h-64l33 210q-52 -97 -171.5 -165.5t-245.5 -68.5zM441 30q169 0 286 111.5t147 302.5l17 104
q-55 -40 -348 -62q-143 -18 -227 -80t-100 -164q-16 -99 44.5 -155.5t180.5 -56.5z" />
    <glyph glyph-name="ae" unicode="&#xe6;" horiz-adv-x="1789" 
d="M420 -24q-143 0 -215 71.5t-53 192.5q20 122 121 196.5t273 93.5l179 20q129 15 171 56l6 10q41 284 -249 284q-135 0 -223 -59.5t-111 -164.5h-64q26 128 137 204t271 76q144 0 223 -61.5t86 -177.5q70 114 179 176.5t241 62.5q195 0 293 -131.5t65 -348.5l-806 2
l-9 -54q-17 -177 68.5 -285.5t242.5 -108.5q114 2 215 61.5t154 158.5h60q-61 -125 -180 -199.5t-258 -74.5q-127 0 -213.5 57.5t-124.5 164.5l-31 -198h-64l33 210q-52 -97 -171.5 -165.5t-245.5 -68.5zM952 526l744 -2q11 173 -74 275.5t-238 102.5q-152 0 -270.5 -102.5
t-161.5 -273.5zM216 242q-16 -99 44.5 -155.5t180.5 -56.5q169 0 286 111.5t147 302.5l17 104q-55 -40 -348 -62q-143 -18 -227 -80t-100 -164z" />
    <glyph glyph-name="ccedilla" unicode="&#xe7;" horiz-adv-x="1014" 
d="M679 902q-171 0 -294.5 -120.5t-155.5 -317.5q-30 -194 52.5 -313t247.5 -119q115 0 216.5 59.5t154.5 158.5h60q-63 -125 -178 -198.5t-254 -75.5l-66 -107q71 15 120 -18.5t39 -94.5q-9 -56 -54.5 -90t-109.5 -34t-96 22l6 40q40 -20 87 -20t78 21t36 57
q6 37 -14.5 57.5t-64.5 20.5t-94 -22l-4 26l89 144q-175 14 -260.5 146t-52.5 338q35 223 177.5 358.5t342.5 135.5q142 0 230.5 -74t104.5 -202h-58q-16 101 -93.5 161.5t-191.5 60.5z" />
    <glyph glyph-name="egrave" unicode="&#xe8;" horiz-adv-x="1056" 
d="M762 1110h-54l-84 186h78zM1037 476l-807 2q-36 -199 48.5 -323.5t254.5 -124.5q114 2 215 61.5t154 158.5h60q-61 -125 -180 -199.5t-258 -74.5q-196 0 -292 133.5t-64 360.5q38 222 177 354t334 132t293 -131.5t65 -348.5zM671 902q-152 0 -270.5 -102.5t-161.5 -273.5
l744 -2q11 173 -74 275.5t-238 102.5z" />
    <glyph glyph-name="eacute" unicode="&#xe9;" horiz-adv-x="1056" 
d="M833 1277l-145 -184h-54l123 184h76zM1037 476l-807 2q-36 -199 48.5 -323.5t254.5 -124.5q114 2 215 61.5t154 158.5h60q-61 -125 -180 -199.5t-258 -74.5q-196 0 -292 133.5t-64 360.5q38 222 177 354t334 132t293 -131.5t65 -348.5zM671 902q-152 0 -270.5 -102.5
t-161.5 -273.5l744 -2q11 173 -74 275.5t-238 102.5z" />
    <glyph glyph-name="ecircumflex" unicode="&#xea;" horiz-adv-x="1056" 
d="M621 1089h-62l139 162h58l98 -162h-62l-69 117zM1037 476l-807 2q-36 -199 48.5 -323.5t254.5 -124.5q114 2 215 61.5t154 158.5h60q-61 -125 -180 -199.5t-258 -74.5q-196 0 -292 133.5t-64 360.5q38 222 177 354t334 132t293 -131.5t65 -348.5zM671 902
q-152 0 -270.5 -102.5t-161.5 -273.5l744 -2q11 173 -74 275.5t-238 102.5z" />
    <glyph glyph-name="edieresis" unicode="&#xeb;" horiz-adv-x="1056" 
d="M578 1088q-28 0 -46 20.5t-14 47.5q5 29 29.5 50.5t52.5 21.5q27 0 44.5 -22t13.5 -50q-4 -27 -28.5 -47.5t-51.5 -20.5zM842 1088q-28 0 -46 20.5t-14 47.5q5 29 29.5 50.5t52.5 21.5q27 0 44.5 -22t13.5 -50q-4 -27 -28.5 -47.5t-51.5 -20.5zM1037 476l-807 2
q-36 -199 48.5 -323.5t254.5 -124.5q114 2 215 61.5t154 158.5h60q-61 -125 -180 -199.5t-258 -74.5q-196 0 -292 133.5t-64 360.5q38 222 177 354t334 132t293 -131.5t65 -348.5zM671 902q-152 0 -270.5 -102.5t-161.5 -273.5l744 -2q11 173 -74 275.5t-238 102.5z" />
    <glyph glyph-name="igrave" unicode="&#xec;" horiz-adv-x="320" 
d="M390 1096h-54l-84 186h78zM128 0l148 932h64l-148 -932h-64z" />
    <glyph glyph-name="iacute" unicode="&#xed;" horiz-adv-x="320" 
d="M477 1287l-145 -184h-54l123 184h76zM128 0l148 932h64l-148 -932h-64z" />
    <glyph glyph-name="icircumflex" unicode="&#xee;" horiz-adv-x="320" 
d="M241 1098h-62l139 162h58l98 -162h-62l-69 117zM128 0l148 932h64l-148 -932h-64z" />
    <glyph glyph-name="idieresis" unicode="&#xef;" horiz-adv-x="320" 
d="M206 1123q-28 0 -46 20.5t-14 47.5q5 29 29.5 50.5t52.5 21.5q27 0 44.5 -22t13.5 -50q-4 -27 -28.5 -47.5t-51.5 -20.5zM470 1123q-28 0 -46 20.5t-14 47.5q5 29 29.5 50.5t52.5 21.5q27 0 44.5 -22t13.5 -50q-4 -27 -28.5 -47.5t-51.5 -20.5zM128 0l148 932h64
l-148 -932h-64z" />
    <glyph glyph-name="ntilde" unicode="&#xf1;" horiz-adv-x="1100" 
d="M558 1097h-41q11 74 41.5 115t75.5 41q18 0 34.5 -9t25.5 -17.5t26 -27.5q14 -16 22.5 -24.5t24 -17t31.5 -8.5q58 0 80 104h41q-29 -156 -128 -156q-20 0 -38.5 10t-27 19t-25.5 29q-14 17 -20 23t-19 14.5t-26 8.5q-26 0 -46 -27t-31 -77zM230 2h-64l147 928h64
l-30 -190q54 94 168 155t226 61q173 0 249.5 -98.5t45.5 -287.5l-90 -570h-64l87 552q28 176 -30.5 262t-205.5 86q-162 0 -278.5 -107.5t-144.5 -284.5z" />
    <glyph glyph-name="ograve" unicode="&#xf2;" horiz-adv-x="1072" 
d="M755 1078h-54l-84 186h78zM1052 470q-38 -226 -179 -360t-341 -134q-199 0 -297.5 133.5t-66.5 360.5q38 221 179.5 353.5t339.5 132.5t297.5 -132.5t67.5 -353.5zM541 30q170 0 294 120.5t155 315.5t-55 315.5t-256 120.5t-294 -120.5t-155 -315.5t55 -315.5t256 -120.5
z" />
    <glyph glyph-name="oacute" unicode="&#xf3;" horiz-adv-x="1072" 
d="M823 1278l-145 -184h-54l123 184h76zM1052 470q-38 -226 -179 -360t-341 -134q-199 0 -297.5 133.5t-66.5 360.5q38 221 179.5 353.5t339.5 132.5t297.5 -132.5t67.5 -353.5zM541 30q170 0 294 120.5t155 315.5t-55 315.5t-256 120.5t-294 -120.5t-155 -315.5t55 -315.5
t256 -120.5z" />
    <glyph glyph-name="ocircumflex" unicode="&#xf4;" horiz-adv-x="1072" 
d="M604 1069h-62l139 162h58l98 -162h-62l-69 117zM1052 470q-38 -226 -179 -360t-341 -134q-199 0 -297.5 133.5t-66.5 360.5q38 221 179.5 353.5t339.5 132.5t297.5 -132.5t67.5 -353.5zM541 30q170 0 294 120.5t155 315.5t-55 315.5t-256 120.5t-294 -120.5t-155 -315.5
t55 -315.5t256 -120.5z" />
    <glyph glyph-name="otilde" unicode="&#xf5;" horiz-adv-x="1072" 
d="M538 1093h-41q11 74 41.5 115t75.5 41q18 0 34.5 -9t25.5 -17.5t26 -27.5q14 -16 22.5 -24.5t24 -17t31.5 -8.5q58 0 80 104h41q-29 -156 -128 -156q-20 0 -38.5 10t-27 19t-25.5 29q-14 17 -20 23t-19 14.5t-26 8.5q-26 0 -46 -27t-31 -77zM1052 470q-38 -226 -179 -360
t-341 -134q-199 0 -297.5 133.5t-66.5 360.5q38 221 179.5 353.5t339.5 132.5t297.5 -132.5t67.5 -353.5zM541 30q170 0 294 120.5t155 315.5t-55 315.5t-256 120.5t-294 -120.5t-155 -315.5t55 -315.5t256 -120.5z" />
    <glyph glyph-name="odieresis" unicode="&#xf6;" horiz-adv-x="1072" 
d="M557 1081q-28 0 -46 20.5t-14 47.5q5 29 29.5 50.5t52.5 21.5q27 0 44.5 -22t13.5 -50q-4 -27 -28.5 -47.5t-51.5 -20.5zM821 1081q-28 0 -46 20.5t-14 47.5q5 29 29.5 50.5t52.5 21.5q27 0 44.5 -22t13.5 -50q-4 -27 -28.5 -47.5t-51.5 -20.5zM1052 470
q-38 -226 -179 -360t-341 -134q-199 0 -297.5 133.5t-66.5 360.5q38 221 179.5 353.5t339.5 132.5t297.5 -132.5t67.5 -353.5zM541 30q170 0 294 120.5t155 315.5t-55 315.5t-256 120.5t-294 -120.5t-155 -315.5t55 -315.5t256 -120.5z" />
    <glyph glyph-name="divide" unicode="&#xf7;" horiz-adv-x="1320" 
d="M800 886q-39 0 -63 28t-18 66q6 39 39 67.5t72 28.5t63 -28.5t18 -67.5q-6 -38 -39 -66t-72 -28zM272 618h972l-10 -60h-972zM676 98q-39 0 -63.5 28t-18.5 66q7 39 40 67.5t72 28.5t63 -28.5t17 -67.5q-6 -38 -38.5 -66t-71.5 -28z" />
    <glyph glyph-name="oslash" unicode="&#xf8;" horiz-adv-x="1072" 
d="M1009 1030l-103 -133q90 -59 129 -170t17 -257q-38 -226 -179 -360t-341 -134q-169 0 -266 97l-119 -153h-54l144 186q-102 135 -69 364q38 221 179.5 353.5t339.5 132.5q101 0 180 -37l86 111h56zM230 466q-30 -186 49 -306l550 710q-66 32 -150 32q-170 0 -294 -120.5
t-155 -315.5zM990 466q20 129 -12.5 228.5t-109.5 153.5l-562 -723q86 -95 235 -95q170 0 294 120.5t155 315.5z" />
    <glyph glyph-name="ugrave" unicode="&#xf9;" horiz-adv-x="1100" 
d="M771 1095h-54l-84 186h78zM1018 932h64l-147 -928h-64l30 190q-55 -94 -168.5 -155t-225.5 -61q-173 0 -249.5 98.5t-45.5 287.5l90 570h64l-87 -552q-57 -348 236 -348q162 0 278 107.5t144 284.5z" />
    <glyph glyph-name="uacute" unicode="&#xfa;" horiz-adv-x="1100" 
d="M843 1292l-145 -184h-54l123 184h76zM1018 932h64l-147 -928h-64l30 190q-55 -94 -168.5 -155t-225.5 -61q-173 0 -249.5 98.5t-45.5 287.5l90 570h64l-87 -552q-57 -348 236 -348q162 0 278 107.5t144 284.5z" />
    <glyph glyph-name="ucircumflex" unicode="&#xfb;" horiz-adv-x="1100" 
d="M636 1102h-62l139 162h58l98 -162h-62l-69 117zM1018 932h64l-147 -928h-64l30 190q-55 -94 -168.5 -155t-225.5 -61q-173 0 -249.5 98.5t-45.5 287.5l90 570h64l-87 -552q-57 -348 236 -348q162 0 278 107.5t144 284.5z" />
    <glyph glyph-name="udieresis" unicode="&#xfc;" horiz-adv-x="1100" 
d="M578 1095q-28 0 -46 20.5t-14 47.5q5 29 29.5 50.5t52.5 21.5q27 0 44.5 -22t13.5 -50q-4 -27 -28.5 -47.5t-51.5 -20.5zM842 1095q-28 0 -46 20.5t-14 47.5q5 29 29.5 50.5t52.5 21.5q27 0 44.5 -22t13.5 -50q-4 -27 -28.5 -47.5t-51.5 -20.5zM1018 932h64l-147 -928
h-64l30 190q-55 -94 -168.5 -155t-225.5 -61q-173 0 -249.5 98.5t-45.5 287.5l90 570h64l-87 -552q-57 -348 236 -348q162 0 278 107.5t144 284.5z" />
    <glyph glyph-name="yacute" unicode="&#xfd;" horiz-adv-x="892" 
d="M744 1302l-145 -184h-54l123 184h76zM112 -418q-57 0 -115 10l8 46q90 -8 116 -8q79 2 127 35.5t94 120.5l69 134l-223 1012h66l201 -926l481 926h64l-605 -1164q-49 -96 -118 -141t-165 -45z" />
    <glyph glyph-name="ydieresis" unicode="&#xff;" horiz-adv-x="892" 
d="M481 1090q-28 0 -46 20.5t-14 47.5q5 29 29.5 50.5t52.5 21.5q27 0 44.5 -22t13.5 -50q-4 -27 -28.5 -47.5t-51.5 -20.5zM745 1090q-28 0 -46 20.5t-14 47.5q5 29 29.5 50.5t52.5 21.5q27 0 44.5 -22t13.5 -50q-4 -27 -28.5 -47.5t-51.5 -20.5zM112 -418q-57 0 -115 10
l8 46q90 -8 116 -8q79 2 127 35.5t94 120.5l69 134l-223 1012h66l201 -926l481 926h64l-605 -1164q-49 -96 -118 -141t-165 -45z" />
    <glyph glyph-name="Cacute" unicode="&#x106;" horiz-adv-x="1432" 
d="M1137 1714l-145 -184h-54l123 184h76zM745 -22q-188 0 -320.5 90.5t-188 254t-22.5 373.5q51 320 264 520t502 200q208 0 346 -115.5t157 -306.5h-70q-25 164 -147.5 261t-301.5 97q-257 0 -445.5 -182t-234.5 -474q-46 -291 85.5 -472.5t387.5 -181.5q179 0 335 92
t232 244h70q-84 -180 -261.5 -290t-387.5 -110z" />
    <glyph glyph-name="cacute" unicode="&#x107;" horiz-adv-x="1014" 
d="M826 1285l-145 -184h-54l123 184h76zM167 462q35 223 177.5 358.5t342.5 135.5q142 0 230.5 -74t104.5 -202h-58q-16 101 -93.5 161.5t-191.5 60.5q-171 0 -294.5 -120.5t-155.5 -317.5q-30 -194 52.5 -313t247.5 -119q115 0 216.5 59.5t154.5 158.5h60
q-64 -127 -181 -200.5t-259 -73.5q-193 0 -290.5 134t-62.5 352z" />
    <glyph glyph-name="Ccaron" unicode="&#x10c;" horiz-adv-x="1432" 
d="M950 1563l-88 162h62l65 -117l106 117h62l-149 -162h-58zM745 -22q-188 0 -320.5 90.5t-188 254t-22.5 373.5q51 320 264 520t502 200q208 0 346 -115.5t157 -306.5h-70q-25 164 -147.5 261t-301.5 97q-257 0 -445.5 -182t-234.5 -474q-46 -291 85.5 -472.5t387.5 -181.5
q179 0 335 92t232 244h70q-84 -180 -261.5 -290t-387.5 -110z" />
    <glyph glyph-name="ccaron" unicode="&#x10d;" horiz-adv-x="1014" 
d="M656 1112l-88 162h62l65 -117l106 117h62l-149 -162h-58zM167 462q35 223 177.5 358.5t342.5 135.5q142 0 230.5 -74t104.5 -202h-58q-16 101 -93.5 161.5t-191.5 60.5q-171 0 -294.5 -120.5t-155.5 -317.5q-30 -194 52.5 -313t247.5 -119q115 0 216.5 59.5t154.5 158.5
h60q-64 -127 -181 -200.5t-259 -73.5q-193 0 -290.5 134t-62.5 352z" />
    <glyph glyph-name="Ecaron" unicode="&#x11a;" horiz-adv-x="1174" 
d="M867 1563l-88 162h62l65 -117l106 117h62l-149 -162h-58zM1040 0h-846l220 1392h844l-9 -60h-778l-96 -604h712l-9 -60h-712l-96 -608h780z" />
    <glyph glyph-name="ecaron" unicode="&#x11b;" horiz-adv-x="1056" 
d="M657 1123l-88 162h62l65 -117l106 117h62l-149 -162h-58zM1037 476l-807 2q-36 -199 48.5 -323.5t254.5 -124.5q114 2 215 61.5t154 158.5h60q-61 -125 -180 -199.5t-258 -74.5q-196 0 -292 133.5t-64 360.5q38 222 177 354t334 132t293 -131.5t65 -348.5zM671 902
q-152 0 -270.5 -102.5t-161.5 -273.5l744 -2q11 173 -74 275.5t-238 102.5z" />
    <glyph glyph-name="dotlessi" unicode="&#x131;" horiz-adv-x="320" 
d="M128 0l148 932h64l-148 -932h-64z" />
    <glyph glyph-name="Nacute" unicode="&#x143;" horiz-adv-x="1386" 
d="M1037 1714l-145 -184h-54l123 184h76zM490 1392l650 -1292l204 1292h68l-220 -1392h-74l-651 1296l-205 -1296h-68l220 1392h76z" />
    <glyph glyph-name="nacute" unicode="&#x144;" horiz-adv-x="1100" 
d="M872 1292l-145 -184h-54l123 184h76zM230 2h-64l147 928h64l-30 -190q54 94 168 155t226 61q173 0 249.5 -98.5t45.5 -287.5l-90 -570h-64l87 552q28 176 -30.5 262t-205.5 86q-162 0 -278.5 -107.5t-144.5 -284.5z" />
    <glyph glyph-name="Ncaron" unicode="&#x147;" horiz-adv-x="1386" 
d="M927 1563l-88 162h62l65 -117l106 117h62l-149 -162h-58zM490 1392l650 -1292l204 1292h68l-220 -1392h-74l-651 1296l-205 -1296h-68l220 1392h76z" />
    <glyph glyph-name="ncaron" unicode="&#x148;" horiz-adv-x="1100" 
d="M698 1112l-88 162h62l65 -117l106 117h62l-149 -162h-58zM230 2h-64l147 928h64l-30 -190q54 94 168 155t226 61q173 0 249.5 -98.5t45.5 -287.5l-90 -570h-64l87 552q28 176 -30.5 262t-205.5 86q-162 0 -278.5 -107.5t-144.5 -284.5z" />
    <glyph glyph-name="OE" unicode="&#x152;" horiz-adv-x="2271" 
d="M742 -26q-190 0 -322 90.5t-186 254.5t-20 377q52 324 260.5 523t496.5 199q199 0 333 -98.5t183 -274.5l54 347h844l-9 -60h-778l-93 -590q-2 -10 -2 -14h711l-9 -60h-711q-2 -6 -4 -18l-93 -590h780l-10 -60h-846l55 347q-104 -176 -269.5 -274.5t-364.5 -98.5z
M278 696q-31 -195 18 -346.5t167.5 -235.5t287.5 -84q234 0 415.5 156t249.5 413l31 194q14 257 -118 413t-367 156q-258 0 -447.5 -184.5t-236.5 -481.5z" />
    <glyph glyph-name="oe" unicode="&#x153;" horiz-adv-x="1895" 
d="M1870 476l-807 2q-36 -199 48.5 -323.5t254.5 -124.5q114 2 215 61.5t154 158.5h60q-61 -125 -180 -199.5t-258 -74.5q-150 0 -243 80t-115 223q-68 -144 -188 -223.5t-273 -79.5q-199 0 -297.5 133.5t-66.5 360.5q38 221 179.5 353.5t339.5 132.5q151 0 247 -79.5
t119 -220.5q67 141 185.5 220.5t267.5 79.5q195 0 293 -131.5t65 -348.5zM236 466q-31 -195 55 -315.5t256 -120.5t294 120.5t155 315.5t-55 315.5t-256 120.5t-294 -120.5t-155 -315.5zM1072 526l744 -2q11 173 -74 275.5t-238 102.5q-152 0 -270.5 -102.5t-161.5 -273.5z
" />
    <glyph glyph-name="Sacute" unicode="&#x15a;" horiz-adv-x="1102" 
d="M929 1714l-145 -184h-54l123 184h76zM272 1048q26 168 164 268t342 100q173 0 266 -88t91 -248h-64q3 132 -76 204t-226 72q-171 0 -289 -84.5t-140 -223.5q-17 -107 36 -179t173 -103l242 -64q150 -39 217 -128.5t46 -221.5q-28 -173 -167 -274.5t-347 -101.5
q-188 0 -292.5 88.5t-100.5 243.5h66q-8 -122 84.5 -196t252.5 -74q176 0 294.5 85t140.5 227q36 223 -214 290l-236 62q-306 79 -263 346z" />
    <glyph glyph-name="sacute" unicode="&#x15b;" horiz-adv-x="844" 
d="M725 1301l-145 -184h-54l123 184h76zM119 232h60q-9 -93 50.5 -146.5t171.5 -53.5q128 0 210.5 55t97.5 149q13 76 -22 119t-128 69l-155 42q-110 30 -159 90.5t-35 147.5q18 114 115 183t240 69q138 0 210.5 -67t62.5 -185h-60q5 93 -53 144.5t-168 51.5
q-122 0 -195.5 -51t-87.5 -145q-23 -135 152 -184l154 -42q118 -31 163.5 -88.5t29.5 -153.5q-18 -117 -121.5 -188.5t-255.5 -71.5q-143 0 -216.5 68.5t-60.5 187.5z" />
    <glyph glyph-name="Scedilla" unicode="&#x15e;" horiz-adv-x="1102" 
d="M778 1416q173 0 266 -88t91 -248h-64q3 132 -76 204t-226 72q-171 0 -289 -84.5t-140 -223.5q-17 -107 36 -179t173 -103l242 -64q150 -39 217 -128.5t46 -221.5q-27 -166 -157 -266.5t-327 -108.5l-49 -80q71 15 120 -18.5t39 -94.5q-9 -56 -54.5 -90t-109.5 -34t-96 22
l6 40q40 -20 87 -20t78 21t36 57q6 37 -14.5 57.5t-64.5 20.5t-94 -22l-4 26l71 114q-180 5 -279 93t-95 239h66q-8 -122 84.5 -196t252.5 -74q176 0 294.5 85t140.5 227q36 223 -214 290l-236 62q-306 79 -263 346q26 168 164 268t342 100z" />
    <glyph glyph-name="scedilla" unicode="&#x15f;" horiz-adv-x="844" 
d="M565 956q138 0 210.5 -67t62.5 -185h-60q5 93 -53 144.5t-168 51.5q-122 0 -195.5 -51t-87.5 -145q-23 -135 152 -184l154 -42q118 -31 163.5 -88.5t29.5 -153.5q-16 -104 -101 -173t-213 -83l-51 -83q71 15 120 -18.5t39 -94.5q-9 -56 -54.5 -90t-109.5 -34t-96 22l6 40
q40 -20 87 -20t78 21t36 57q6 37 -14.5 57.5t-64.5 20.5t-94 -22l-4 26l70 114h-11q-143 0 -216.5 68.5t-60.5 187.5h60q-9 -93 50.5 -146.5t171.5 -53.5q128 0 210.5 55t97.5 149q13 76 -22 119t-128 69l-155 42q-110 30 -159 90.5t-35 147.5q18 114 115 183t240 69z" />
    <glyph glyph-name="Scaron" unicode="&#x160;" horiz-adv-x="1102" 
d="M768 1563l-88 162h62l65 -117l106 117h62l-149 -162h-58zM272 1048q26 168 164 268t342 100q173 0 266 -88t91 -248h-64q3 132 -76 204t-226 72q-171 0 -289 -84.5t-140 -223.5q-17 -107 36 -179t173 -103l242 -64q150 -39 217 -128.5t46 -221.5q-28 -173 -167 -274.5
t-347 -101.5q-188 0 -292.5 88.5t-100.5 243.5h66q-8 -122 84.5 -196t252.5 -74q176 0 294.5 85t140.5 227q36 223 -214 290l-236 62q-306 79 -263 346z" />
    <glyph glyph-name="scaron" unicode="&#x161;" horiz-adv-x="844" 
d="M546 1110l-88 162h62l65 -117l106 117h62l-149 -162h-58zM119 232h60q-9 -93 50.5 -146.5t171.5 -53.5q128 0 210.5 55t97.5 149q13 76 -22 119t-128 69l-155 42q-110 30 -159 90.5t-35 147.5q18 114 115 183t240 69q138 0 210.5 -67t62.5 -185h-60q5 93 -53 144.5
t-168 51.5q-122 0 -195.5 -51t-87.5 -145q-23 -135 152 -184l154 -42q118 -31 163.5 -88.5t29.5 -153.5q-18 -117 -121.5 -188.5t-255.5 -71.5q-143 0 -216.5 68.5t-60.5 187.5z" />
    <glyph glyph-name="Uring" unicode="&#x16e;" horiz-adv-x="1354" 
d="M916 1532q-60 0 -92 38.5t-23 98.5q10 59 54.5 97.5t103.5 38.5q58 0 91 -39t23 -97q-9 -57 -54.5 -97t-102.5 -40zM924 1582q37 0 63.5 24.5t32.5 62.5t-13.5 63t-55.5 25t-63 -24.5t-34 -63.5q-6 -38 13.5 -62.5t56.5 -24.5zM1176 470l146 922h68l-146 -924
q-37 -231 -187 -361.5t-381 -130.5q-234 0 -344.5 130t-73.5 362l146 924h68l-146 -922q-32 -207 61 -317.5t300 -110.5q203 0 330 111.5t159 316.5z" />
    <glyph glyph-name="uring" unicode="&#x16f;" horiz-adv-x="1100" 
d="M722 1082q-60 0 -92 38.5t-23 98.5q10 59 54.5 97.5t103.5 38.5q58 0 91 -39t23 -97q-9 -57 -54.5 -97t-102.5 -40zM730 1132q37 0 63.5 24.5t32.5 62.5t-13.5 63t-55.5 25t-63 -24.5t-34 -63.5q-6 -38 13.5 -62.5t56.5 -24.5zM1018 932h64l-147 -928h-64l30 190
q-55 -94 -168.5 -155t-225.5 -61q-173 0 -249.5 98.5t-45.5 287.5l90 570h64l-87 -552q-57 -348 236 -348q162 0 278 107.5t144 284.5z" />
    <glyph glyph-name="Wcircumflex" unicode="&#x174;" horiz-adv-x="1910" 
d="M1111 1530h-62l139 162h58l98 -162h-62l-69 117zM1212 1392l209 -1324l591 1324h70l-636 -1392h-68l-216 1312l-630 -1312h-72l-192 1392h72l168 -1328l628 1328h76z" />
    <glyph glyph-name="wcircumflex" unicode="&#x175;" horiz-adv-x="1436" 
d="M801 1042h-62l139 162h58l98 -162h-62l-69 117zM902 932l146 -872l428 872h58l-460 -932h-74l-141 892l-425 -892h-74l-162 932h58l151 -874l421 874h74z" />
    <glyph glyph-name="Ycircumflex" unicode="&#x176;" horiz-adv-x="1200" 
d="M772 1530h-62l139 162h58l98 -162h-62l-69 117zM338 1390l366 -736l598 736h72l-645 -790l-95 -602h-68l95 602l-395 790h72z" />
    <glyph glyph-name="ycircumflex" unicode="&#x177;" horiz-adv-x="892" 
d="M534 1032h-62l139 162h58l98 -162h-62l-69 117zM112 -418q-57 0 -115 10l8 46q90 -8 116 -8q79 2 127 35.5t94 120.5l69 134l-223 1012h66l201 -926l481 926h64l-605 -1164q-49 -96 -118 -141t-165 -45z" />
    <glyph glyph-name="Ydieresis" unicode="&#x178;" horiz-adv-x="1200" 
d="M738 1576q-28 0 -46 20.5t-14 47.5q5 29 29.5 50.5t52.5 21.5q27 0 44.5 -22t13.5 -50q-4 -27 -28.5 -47.5t-51.5 -20.5zM1002 1576q-28 0 -46 20.5t-14 47.5q5 29 29.5 50.5t52.5 21.5q27 0 44.5 -22t13.5 -50q-4 -27 -28.5 -47.5t-51.5 -20.5zM338 1390l366 -736
l598 736h72l-645 -790l-95 -602h-68l95 602l-395 790h72z" />
    <glyph glyph-name="Zacute" unicode="&#x179;" horiz-adv-x="1152" 
d="M942 1714l-145 -184h-54l123 184h76zM1048 0h-944l11 68l1080 1264h-876l9 60h950l-10 -68l-1080 -1264h870z" />
    <glyph glyph-name="zacute" unicode="&#x17a;" horiz-adv-x="860" 
d="M751 1296l-145 -184h-54l123 184h76zM766 0h-672l9 54l734 826h-604l9 52h672l-9 -56l-733 -824h602z" />
    <glyph glyph-name="Zcaron" unicode="&#x17d;" horiz-adv-x="1152" 
d="M784 1563l-88 162h62l65 -117l106 117h62l-149 -162h-58zM1048 0h-944l11 68l1080 1264h-876l9 60h950l-10 -68l-1080 -1264h870z" />
    <glyph glyph-name="zcaron" unicode="&#x17e;" horiz-adv-x="860" 
d="M590 1114l-88 162h62l65 -117l106 117h62l-149 -162h-58zM766 0h-672l9 54l734 826h-604l9 52h672l-9 -56l-733 -824h602z" />
    <glyph glyph-name="florin" unicode="&#x192;" horiz-adv-x="1056" 
d="M282 772h354l138 452q54 168 218 168h148l-9 -60h-162q-47 0 -82 -27.5t-49 -76.5l-138 -456h344l-9 -60h-354l-229 -748q-24 -78 -78 -123t-126 -45h-186l9 60h186q44 0 81 29t50 75l229 752h-344z" />
    <glyph glyph-name="circumflex" unicode="&#x2c6;" horiz-adv-x="582" 
d="M410 1530h-62l152 186h126l92 -186h-62l-93 178z" />
    <glyph glyph-name="caron" unicode="&#x2c7;" horiz-adv-x="582" 
d="M470 1530l-92 186h62l96 -178l150 178h62l-152 -186h-126z" />
    <glyph glyph-name="breve" unicode="&#x2d8;" horiz-adv-x="620" 
d="M728 1716h56q-19 -90 -81 -141t-152 -51t-135.5 51t-35.5 141h56q-6 -66 26 -101t98 -35t109.5 35t58.5 101z" />
    <glyph glyph-name="dotaccent" unicode="&#x2d9;" horiz-adv-x="372" 
d="M436 1576q-28 0 -46 20.5t-14 47.5q5 29 29.5 50.5t52.5 21.5q27 0 44.5 -22t13.5 -50q-4 -27 -28.5 -47.5t-51.5 -20.5z" />
    <glyph glyph-name="ring" unicode="&#x2da;" horiz-adv-x="556" 
d="M521 1532q-81 0 -124.5 52.5t-30.5 133.5q13 80 73.5 132t139.5 52q78 0 123 -53t32 -131q-12 -78 -73.5 -132t-139.5 -54zM529 1582q57 0 98 38t51 98q9 59 -21 97.5t-85 38.5q-56 0 -98 -38t-52 -98t20 -98t87 -38z" />
    <glyph glyph-name="ogonek" unicode="&#x2db;" horiz-adv-x="344" 
d="M190 -28h19q-72 -47 -83 -110q-5 -35 12.5 -53.5t56.5 -18.5q14 0 22 2l-8 -54q-26 -4 -47 -4q-49 0 -75 28.5t-19 75.5q14 82 122 134z" />
    <glyph glyph-name="tilde" unicode="&#x2dc;" horiz-adv-x="690" 
d="M409 1570h-52q11 74 48 115t92 41q22 0 43.5 -8.5t33.5 -18t33 -27.5q58 -50 100 -50q74 0 96 104h52q-31 -156 -154 -156q-25 0 -48.5 10t-35 19t-33.5 29q-2 2 -7.5 7t-7.5 6.5t-7.5 6t-8 6.5t-7.5 5.5t-8.5 5t-8.5 3.5t-9 3t-9 2t-10 1q-33 0 -57.5 -27.5t-34.5 -76.5
z" />
    <glyph glyph-name="hungarumlaut" unicode="&#x2dd;" horiz-adv-x="584" 
d="M539 1714l-141 -184h-50l119 184h72zM743 1714l-171 -184h-52l145 184h78z" />
    <glyph glyph-name="gravecomb" unicode="&#x300;" 
d="M499 1530h-54l-84 186h78z" />
    <glyph glyph-name="acutecomb" unicode="&#x301;" 
d="M448 1714l-145 -184h-54l123 184h76z" />
    <glyph glyph-name="uni0302" unicode="&#x302;" 
d="M190 1530h-62l139 162h58l98 -162h-62l-69 117z" />
    <glyph glyph-name="tildecomb" unicode="&#x303;" 
d="M23 1570h-41q11 74 41.5 115t75.5 41q18 0 34.5 -9t25.5 -17.5t26 -27.5q14 -16 22.5 -24.5t24 -17t31.5 -8.5q58 0 80 104h41q-29 -156 -128 -156q-20 0 -38.5 10t-27 19t-25.5 29q-14 17 -20 23t-19 14.5t-26 8.5q-26 0 -46 -27t-31 -77z" />
    <glyph glyph-name="uni0304" unicode="&#x304;" 
d="M-276 1654l9 56h404l-9 -56h-404z" />
    <glyph glyph-name="uni0306" unicode="&#x306;" 
d="M108 1716h56q-19 -90 -81 -141t-152 -51t-135.5 51t-35.5 141h56q-6 -66 26 -101t98 -35t109.5 35t58.5 101z" />
    <glyph glyph-name="uni0307" unicode="&#x307;" 
d="M64 1576q-28 0 -46 20.5t-14 47.5q5 29 29.5 50.5t52.5 21.5q27 0 44.5 -22t13.5 -50q-4 -27 -28.5 -47.5t-51.5 -20.5z" />
    <glyph glyph-name="uni0308" unicode="&#x308;" 
d="M50 1576q-28 0 -46 20.5t-14 47.5q5 29 29.5 50.5t52.5 21.5q27 0 44.5 -22t13.5 -50q-4 -27 -28.5 -47.5t-51.5 -20.5zM314 1576q-28 0 -46 20.5t-14 47.5q5 29 29.5 50.5t52.5 21.5q27 0 44.5 -22t13.5 -50q-4 -27 -28.5 -47.5t-51.5 -20.5z" />
    <glyph glyph-name="uni030A" unicode="&#x30a;" 
d="M312 1532q-60 0 -92 38.5t-23 98.5q10 59 54.5 97.5t103.5 38.5q58 0 91 -39t23 -97q-9 -57 -54.5 -97t-102.5 -40zM320 1582q37 0 63.5 24.5t32.5 62.5t-13.5 63t-55.5 25t-63 -24.5t-34 -63.5q-6 -38 13.5 -62.5t56.5 -24.5z" />
    <glyph glyph-name="uni030B" unicode="&#x30b;" 
d="M-45 1714l-141 -184h-50l119 184h72zM159 1714l-171 -184h-52l145 184h78z" />
    <glyph glyph-name="uni030C" unicode="&#x30c;" 
d="M145 1563l-88 162h62l65 -117l106 117h62l-149 -162h-58z" />
    <glyph glyph-name="uni0312" unicode="&#x312;" 
d="M149 1574q-4 -30 -27 -51t-50 -21q-36 0 -52 25t-9 73q10 63 51.5 108.5t92.5 53.5l-3 -22q-41 -7 -69.5 -39.5t-29.5 -75.5q41 21 71.5 3t24.5 -54z" />
    <glyph glyph-name="uni0326" unicode="&#x326;" 
d="M-271 -134q4 30 27 51t50 21q36 0 52 -25t9 -73q-10 -63 -51.5 -108.5t-92.5 -53.5l3 22q41 7 70 39.5t29 75.5q-41 -21 -71.5 -3t-24.5 54z" />
    <glyph glyph-name="uni0327" unicode="&#x327;" 
d="M132 -318l6 40q40 -20 87 -20t78 21t36 57q6 37 -14.5 57.5t-64.5 20.5t-94 -22l-4 26l100 162h24l14 -19l-67 -108q71 15 120 -18.5t39 -94.5q-9 -56 -54.5 -90t-109.5 -34t-96 22z" />
    <glyph glyph-name="uni0335" unicode="&#x335;" 
d="M-517 1156h506l-8 -48h-506z" />
    <glyph glyph-name="uni0337" unicode="&#x337;" 
d="M-276 654l8 54l351 156l-9 -54z" />
    <glyph glyph-name="uni0338" unicode="&#x338;" 
d="M57 1030l-862 -1110h-54l860 1110h56z" />
    <glyph glyph-name="Wgrave" unicode="&#x1e80;" horiz-adv-x="1910" 
d="M1283 1530h-54l-84 186h78zM1212 1392l209 -1324l591 1324h70l-636 -1392h-68l-216 1312l-630 -1312h-72l-192 1392h72l168 -1328l628 1328h76z" />
    <glyph glyph-name="wgrave" unicode="&#x1e81;" horiz-adv-x="1436" 
d="M973 1095h-54l-84 186h78zM902 932l146 -872l428 872h58l-460 -932h-74l-141 892l-425 -892h-74l-162 932h58l151 -874l421 874h74z" />
    <glyph glyph-name="Wacute" unicode="&#x1e82;" horiz-adv-x="1910" 
d="M1315 1714l-145 -184h-54l123 184h76zM1212 1392l209 -1324l591 1324h70l-636 -1392h-68l-216 1312l-630 -1312h-72l-192 1392h72l168 -1328l628 1328h76z" />
    <glyph glyph-name="wacute" unicode="&#x1e83;" horiz-adv-x="1436" 
d="M1003 1272l-145 -184h-54l123 184h76zM902 932l146 -872l428 872h58l-460 -932h-74l-141 892l-425 -892h-74l-162 932h58l151 -874l421 874h74z" />
    <glyph glyph-name="Wdieresis" unicode="&#x1e84;" horiz-adv-x="1910" 
d="M1071 1576q-28 0 -46 20.5t-14 47.5q5 29 29.5 50.5t52.5 21.5q27 0 44.5 -22t13.5 -50q-4 -27 -28.5 -47.5t-51.5 -20.5zM1335 1576q-28 0 -46 20.5t-14 47.5q5 29 29.5 50.5t52.5 21.5q27 0 44.5 -22t13.5 -50q-4 -27 -28.5 -47.5t-51.5 -20.5zM1212 1392l209 -1324
l591 1324h70l-636 -1392h-68l-216 1312l-630 -1312h-72l-192 1392h72l168 -1328l628 1328h76z" />
    <glyph glyph-name="wdieresis" unicode="&#x1e85;" horiz-adv-x="1436" 
d="M745 1041q-28 0 -46 20.5t-14 47.5q5 29 29.5 50.5t52.5 21.5q27 0 44.5 -22t13.5 -50q-4 -27 -28.5 -47.5t-51.5 -20.5zM1009 1041q-28 0 -46 20.5t-14 47.5q5 29 29.5 50.5t52.5 21.5q27 0 44.5 -22t13.5 -50q-4 -27 -28.5 -47.5t-51.5 -20.5zM902 932l146 -872
l428 872h58l-460 -932h-74l-141 892l-425 -892h-74l-162 932h58l151 -874l421 874h74z" />
    <glyph glyph-name="Ygrave" unicode="&#x1ef2;" horiz-adv-x="1200" 
d="M885 1530h-54l-84 186h78zM338 1390l366 -736l598 736h72l-645 -790l-95 -602h-68l95 602l-395 790h72z" />
    <glyph glyph-name="ygrave" unicode="&#x1ef3;" horiz-adv-x="892" 
d="M711 1043h-54l-84 186h78zM112 -418q-57 0 -115 10l8 46q90 -8 116 -8q79 2 127 35.5t94 120.5l69 134l-223 1012h66l201 -926l481 926h64l-605 -1164q-49 -96 -118 -141t-165 -45z" />
    <glyph glyph-name="endash" unicode="&#x2013;" horiz-adv-x="1812" 
d="M206 480l13 84h1552l-13 -84h-1552z" />
    <glyph glyph-name="emdash" unicode="&#x2014;" horiz-adv-x="2214" 
d="M206 480l13 84h1954l-13 -84h-1954z" />
    <glyph glyph-name="quoteleft" unicode="&#x2018;" horiz-adv-x="460" 
d="M528 1190q-7 -44 -40.5 -73t-79.5 -29q-47 0 -75.5 37t-18.5 101q13 79 79 142.5t148 77.5l-10 -64q-48 -9 -85 -41.5t-43 -70.5q19 14 54 14t56.5 -25t14.5 -69z" />
    <glyph glyph-name="quoteright" unicode="&#x2019;" horiz-adv-x="460" 
d="M547 1308q-13 -79 -79 -142.5t-148 -77.5l10 64q48 9 85 41.5t43 70.5q-19 -14 -54 -14t-56.5 25t-14.5 69t40.5 73t79.5 29q47 0 75.5 -37t18.5 -101z" />
    <glyph glyph-name="quotesinglbase" unicode="&#x201a;" horiz-adv-x="460" 
d="M349 58q-13 -79 -79 -142.5t-148 -77.5l10 64q48 9 85 41.5t43 70.5q-19 -14 -54 -14t-56.5 25t-14.5 69t40.5 73t79.5 29q47 0 75.5 -37t18.5 -101z" />
    <glyph glyph-name="quotedblleft" unicode="&#x201c;" horiz-adv-x="752" 
d="M528 1190q-7 -44 -40.5 -73t-79.5 -29q-47 0 -75.5 37t-18.5 101q13 79 79 142.5t148 77.5l-10 -64q-48 -9 -85 -41.5t-43 -70.5q19 14 54 14t56.5 -25t14.5 -69zM820 1190q-7 -44 -40.5 -73t-79.5 -29q-47 0 -75.5 37t-18.5 101q13 79 79 142.5t148 77.5l-10 -64
q-48 -9 -85 -41.5t-43 -70.5q19 14 54 14t56.5 -25t14.5 -69z" />
    <glyph glyph-name="quotedblright" unicode="&#x201d;" horiz-adv-x="752" 
d="M547 1308q-13 -79 -79 -142.5t-148 -77.5l10 64q48 9 85 41.5t43 70.5q-19 -14 -54 -14t-56.5 25t-14.5 69t40.5 73t79.5 29q47 0 75.5 -37t18.5 -101zM839 1308q-13 -79 -79 -142.5t-148 -77.5l10 64q48 9 85 41.5t43 70.5q-19 -14 -54 -14t-56.5 25t-14.5 69t40.5 73
t79.5 29q47 0 75.5 -37t18.5 -101z" />
    <glyph glyph-name="quotedblbase" unicode="&#x201e;" horiz-adv-x="752" 
d="M349 58q-13 -79 -79 -142.5t-148 -77.5l10 64q48 9 85 41.5t43 70.5q-19 -14 -54 -14t-56.5 25t-14.5 69t40.5 73t79.5 29q47 0 75.5 -37t18.5 -101zM641 58q-13 -79 -79 -142.5t-148 -77.5l10 64q48 9 85 41.5t43 70.5q-19 -14 -54 -14t-56.5 25t-14.5 69t40.5 73
t79.5 29q47 0 75.5 -37t18.5 -101z" />
    <glyph glyph-name="dagger" unicode="&#x2020;" horiz-adv-x="564" 
d="M340 528l97 616h-190l8 48h190l31 200h52l-31 -200h190l-8 -48h-190l-97 -616h-52z" />
    <glyph glyph-name="daggerdbl" unicode="&#x2021;" horiz-adv-x="566" 
d="M340 528l41 260h-188l7 48h188l40 248h-190l7 48h190l41 260h52l-41 -260h190l-7 -48h-190l-40 -248h192l-7 -48h-192l-41 -260h-52z" />
    <glyph glyph-name="bullet" unicode="&#x2022;" horiz-adv-x="702" 
d="M394 266q-105 0 -169.5 75t-48.5 179q17 104 105 180t194 76q104 0 168 -75.5t47 -180.5q-16 -102 -103.5 -178t-192.5 -76z" />
    <glyph glyph-name="ellipsis" unicode="&#x2026;" horiz-adv-x="1300" 
d="M247 -22q-45 0 -73 32t-20 76q7 45 44.5 77.5t82.5 32.5t72.5 -32.5t20.5 -77.5q-8 -44 -45 -76t-82 -32zM647 -22q-45 0 -73 32t-20 76q7 45 44.5 77.5t82.5 32.5t72.5 -32.5t20.5 -77.5q-8 -44 -45 -76t-82 -32zM1047 -22q-45 0 -73 32t-20 76q7 45 44.5 77.5
t82.5 32.5t72.5 -32.5t20.5 -77.5q-8 -44 -45 -76t-82 -32z" />
    <glyph glyph-name="perthousand" unicode="&#x2030;" horiz-adv-x="2516" 
d="M943 1090q-23 -143 -129 -235.5t-247 -92.5t-218 92.5t-54 235.5t129 235.5t247 92.5t218 -92.5t54 -235.5zM1670 1392l-1276 -1392h-70l1274 1392h72zM883 1090q19 120 -42.5 196t-178.5 76t-202.5 -76t-104.5 -196t43 -196t178 -76t202 76t105 196zM1702 302
q-23 -143 -129 -235.5t-247 -92.5t-218 92.5t-54 235.5t129 235.5t247 92.5t218 -92.5t54 -235.5zM2442 302q-23 -143 -129 -235.5t-247 -92.5t-218 92.5t-54 235.5t129 235.5t247 92.5t218 -92.5t54 -235.5zM1642 302q19 120 -42.5 196t-178.5 76t-202.5 -76t-104.5 -196
t43 -196t178 -76t202 76t105 196zM2382 302q19 120 -42.5 196t-178.5 76t-202.5 -76t-104.5 -196t43 -196t178 -76t202 76t105 196z" />
    <glyph glyph-name="minute" unicode="&#x2032;" horiz-adv-x="334" 
d="M435 1356l-82 -342h-48l24 342q3 28 20.5 45t43.5 17q25 0 36.5 -16.5t5.5 -45.5z" />
    <glyph glyph-name="guilsinglleft" unicode="&#x2039;" horiz-adv-x="678" 
d="M500 0l-344 480l496 480h98l-496 -480l344 -480h-98z" />
    <glyph glyph-name="guilsinglright" unicode="&#x203a;" horiz-adv-x="678" 
d="M178 0h-98l496 480l-344 480h98l344 -480z" />
    <glyph glyph-name="fraction" unicode="&#x2044;" horiz-adv-x="194" 
d="M794 1392l-1112 -1392h-62l1110 1392h64z" />
    <glyph glyph-name="Euro" unicode="&#x20ac;" horiz-adv-x="1342" 
d="M940 -24q-275 0 -442.5 152t-174.5 408h-160l9 56h150q4 52 12 104q12 69 26 114h-154l9 56h162q90 253 303.5 400.5t489.5 147.5q158 0 256 -38l-10 -60q-115 36 -260 36q-244 0 -434.5 -130.5t-274.5 -355.5h642l-9 -56h-652q-16 -51 -26 -114q-7 -48 -12 -104h656
l-9 -56h-646q11 -231 162.5 -364.5t400.5 -133.5q142 0 266 38l-10 -64q-134 -36 -270 -36z" />
    <glyph glyph-name="uni2116" unicode="&#x2116;" horiz-adv-x="2438" 
d="M2477 966q-31 -195 -185.5 -329.5t-347.5 -134.5q-94 0 -173.5 37t-131 99t-74.5 148t-8 180q30 190 184 321t348 131q195 0 307 -130t81 -322zM490 1392l650 -1292l204 1292h68l-220 -1392h-74l-651 1296l-205 -1296h-68l220 1392h76zM2411 966q26 168 -68.5 280
t-263.5 112q-168 0 -299 -112.5t-157 -279.5q-26 -168 69.5 -286t260.5 -118q170 0 300 115t158 289zM2304 254h-800l10 60h800z" />
    <glyph glyph-name="trademark" unicode="&#x2122;" horiz-adv-x="1260" 
d="M452 1338h-188l11 68h448l-11 -68h-188l-77 -484h-72zM777 854h-68l88 552h68l140 -476l290 476h68l-88 -552h-68l64 400l-244 -400h-68l-119 394z" />
    <glyph glyph-name="estimated" unicode="&#x212e;" horiz-adv-x="1558" 
d="M244 692q49 309 260 504.5t496 195.5q294 0 441.5 -175t100.5 -469q-10 -64 -16 -92h-1116l-60 -378q64 -119 181.5 -181.5t277.5 -62.5q151 0 294.5 71.5t229.5 190.5l47 -18q-97 -138 -251.5 -217t-331.5 -79q-197 0 -334.5 88.5t-195 250t-23.5 371.5zM477 1082
l-60 -382h946l66 418q-59 106 -173.5 164t-263.5 58q-145 0 -279.5 -67.5t-235.5 -190.5z" />
    <glyph glyph-name="arrowleft" unicode="&#x2190;" horiz-adv-x="1772" 
d="M738 -50l-49 -42l-475 562l653 562l36 -42l-566 -490h1380l-9 -60h-1380z" />
    <glyph glyph-name="arrowup" unicode="&#x2191;" horiz-adv-x="1424" 
d="M308 786l-37 44l661 556l483 -556l-51 -44l-421 482l-201 -1268h-60l201 1268z" />
    <glyph glyph-name="arrowright" unicode="&#x2192;" horiz-adv-x="1772" 
d="M1198 1088l49 42l475 -562l-653 -562l-35 42l565 490h-1380l10 60h1380z" />
    <glyph glyph-name="arrowdown" unicode="&#x2193;" horiz-adv-x="1404" 
d="M1288 414l35 -42l-651 -564l-473 564l49 42l412 -488l232 1466h60l-232 -1466z" />
    <glyph glyph-name="arrowboth" unicode="&#x2194;" horiz-adv-x="2044" 
d="M217 484l406 358l-15 -96l-254 -230l494 2v2l1010 -2l-186 230l15 94l294 -356l-405 -360l15 98l251 230l-998 -2v2l-500 -2l185 -234l-15 -94z" />
    <glyph glyph-name="arrowupdn" unicode="&#x2195;" horiz-adv-x="1024" 
d="M462 -304l-300 352h92l197 -218l74 482l84 530l79 486l-266 -216h-92l411 348l305 -348h-98l-196 216l-237 -1498l265 218h98z" />
    <glyph glyph-name="uni2196" unicode="&#x2196;" horiz-adv-x="1660" 
d="M354 1392h796l-9 -60l-692 -2l1079 -1282l-49 -42l-1079 1282l-112 -692h-60z" />
    <glyph glyph-name="uni2197" unicode="&#x2197;" horiz-adv-x="1660" 
d="M941 1330l9 62h796l-126 -796h-62l110 692l-1485 -1282l-35 42l1485 1282h-692z" />
    <glyph glyph-name="uni2198" unicode="&#x2198;" horiz-adv-x="1656" 
d="M1589 800h60l-126 -796h-796l9 60l692 2l-1075 1278l49 42l1075 -1278z" />
    <glyph glyph-name="uni2199" unicode="&#x2199;" horiz-adv-x="1662" 
d="M939 58l-9 -60h-796l126 796h62l-110 -692l1488 1284l35 -42l-1487 -1284z" />
    <glyph glyph-name="partialdiff" unicode="&#x2202;" horiz-adv-x="1224" 
d="M208 466q32 202 194.5 344t360.5 142q108 0 195.5 -50t136.5 -140l28 12q-17 97 -47.5 178t-82.5 159t-111 145.5t-150 159.5h78q234 -218 318.5 -428t43.5 -472q-38 -241 -196 -390.5t-376 -149.5q-132 0 -229.5 64t-141 176.5t-21.5 249.5zM273 464
q-29 -189 66.5 -310.5t273.5 -121.5q182 0 318.5 124.5t167.5 317.5q29 183 -65.5 301.5t-271.5 118.5q-182 0 -320.5 -122t-168.5 -308z" />
    <glyph glyph-name="emptyset" unicode="&#x2205;" horiz-adv-x="1564" 
d="M776 -24q-150 0 -271 58t-195 166l-202 -160l-30 38l204 162q-109 193 -68 456q33 205 146 370t282.5 257.5t361.5 92.5q151 0 271.5 -57t199.5 -167l201 162l30 -40l-206 -164q109 -191 68 -454q-33 -205 -146 -370t-283 -257.5t-363 -92.5zM284 696q-36 -233 57 -410
l1075 860q-69 99 -178 152.5t-244 53.5q-173 0 -325 -84.5t-253.5 -234.5t-131.5 -337zM786 40q130 0 251 49.5t215 136t159 208.5t87 262q38 233 -57 408l-1074 -858q68 -100 176 -153t243 -53z" />
    <glyph glyph-name="summation" unicode="&#x2211;" horiz-adv-x="1032" 
d="M938 0h-884l14 86l552 606l-359 614l13 86h884l-9 -60h-828l374 -644l-571 -628h824z" />
    <glyph glyph-name="minus" unicode="&#x2212;" horiz-adv-x="1320" 
d="M283 690h972l-9 -60h-972z" />
    <glyph glyph-name="radical" unicode="&#x221a;" horiz-adv-x="1356" 
d="M406 0l-239 930h70l213 -868l710 1330h322l-9 -60h-278l-721 -1332h-68z" />
    <glyph glyph-name="infinity" unicode="&#x221e;" horiz-adv-x="1684" 
d="M220 544q23 140 128 229t247 89q108 0 187 -62.5t143 -197.5h24q107 135 206.5 197.5t207.5 62.5q142 0 219 -89t54 -229q-22 -139 -127.5 -228.5t-246.5 -89.5q-110 0 -188 61t-143 199h-24q-109 -138 -206 -199t-207 -61q-141 0 -218.5 89.5t-55.5 228.5zM288 544
q-19 -117 43 -187.5t182 -70.5q177 0 364 250l2 16q-107 250 -284 250q-121 0 -204.5 -70.5t-102.5 -187.5zM979 552l-2 -16q107 -250 284 -250q120 0 204 70.5t103 187.5t-42.5 187.5t-182.5 70.5q-177 0 -364 -250z" />
    <glyph glyph-name="integral" unicode="&#x222b;" horiz-adv-x="680" 
d="M202 -28h-132l8 56h132q42 0 77 30t42 72l178 1124q10 69 66.5 117.5t125.5 48.5h132l-9 -56h-132q-42 0 -76.5 -30t-41.5 -72l-178 -1124q-11 -69 -67 -117.5t-125 -48.5z" />
    <glyph glyph-name="approxequal" unicode="&#x2248;" horiz-adv-x="1320" 
d="M1225 866h58q-22 -118 -92.5 -187t-169.5 -69q-47 0 -101 19.5t-83.5 37t-88.5 55.5q-48 33 -75.5 49.5t-70 32.5t-78.5 16q-78 0 -123.5 -45.5t-68.5 -144.5h-58q23 116 92.5 183t166.5 67q41 0 88 -17.5t77.5 -35.5t84.5 -53q51 -33 82.5 -51.5t78.5 -35.5t88 -17
q76 0 123 47.5t70 148.5zM1170 516h58q-22 -118 -93 -187t-170 -69q-47 0 -100.5 19.5t-83.5 37t-88 55.5q-48 32 -76 49t-70 33t-79 16q-78 0 -123.5 -45.5t-68.5 -144.5h-58q23 116 93 183t167 67q41 0 88 -17t78 -35.5t83 -53.5q52 -34 83 -52t78.5 -35t88.5 -17
q76 0 123 47.5t70 148.5z" />
    <glyph glyph-name="notequal" unicode="&#x2260;" horiz-adv-x="1320" 
d="M344 38l212 304h-328l10 60h360l242 344h-548l10 60h580l212 304h64l-212 -304h328l-10 -60h-360l-242 -344h548l-10 -60h-580l-212 -304h-64z" />
    <glyph glyph-name="lessequal" unicode="&#x2264;" horiz-adv-x="1320" 
d="M1192 290l-10 -64l-917 350l12 72l1027 350l-10 -64l-963 -322zM174 0l10 60h972l-10 -60h-972z" />
    <glyph glyph-name="greaterequal" unicode="&#x2265;" horiz-adv-x="1320" 
d="M1237 576l-1027 -350l10 64l963 322l-861 322l10 64l917 -350zM184 60h972l-10 -60h-972z" />
    <glyph glyph-name="filledbox" unicode="&#x25a0;" horiz-adv-x="1660" 
d="M134 0l220 1392h1392l-220 -1392h-1392z" />
    <glyph glyph-name="uni25A1" unicode="&#x25a1;" horiz-adv-x="1660" 
d="M134 0l220 1392h1392l-220 -1392h-1392zM1672 1328h-1264l-200 -1264h1264z" />
    <glyph glyph-name="triagup" unicode="&#x25b2;" horiz-adv-x="1932" 
d="M144 0l1040 1378l604 -1378h-1644z" />
    <glyph glyph-name="uni25B3" unicode="&#x25b3;" horiz-adv-x="1936" 
d="M1187 1382l605 -1382h-1648zM287 70h1384l-508 1164z" />
    <glyph glyph-name="circle" unicode="&#x25cb;" horiz-adv-x="1804" 
d="M884 -116q-125 0 -236 39t-194.5 110t-139.5 165t-76.5 211.5t-0.5 242.5q33 207 164.5 384.5t325 280.5t400.5 103q155 0 287.5 -61t219.5 -164t125.5 -245.5t13.5 -297.5t-108.5 -297.5t-202.5 -245.5t-271 -164t-307 -61zM896 -36q187 0 360 92t290 250.5t147 345.5
q22 139 -12.5 266.5t-112 219.5t-196.5 147t-258 55q-187 0 -360 -92t-290 -250.5t-147 -345.5q-22 -140 12.5 -267.5t112 -219.5t196 -146.5t258.5 -54.5z" />
    <glyph glyph-name="uni25CF" unicode="&#x25cf;" horiz-adv-x="1804" 
d="M884 -116q-125 0 -236 39t-194.5 110t-139.5 165t-76.5 211.5t-0.5 242.5q33 207 164.5 384.5t325 280.5t400.5 103q155 0 287.5 -61t219.5 -164t125.5 -245.5t13.5 -297.5t-108.5 -297.5t-202.5 -245.5t-271 -164t-307 -61z" />
    <glyph glyph-name="uni2713" unicode="&#x2713;" horiz-adv-x="1512" 
d="M491 22l-340 442l58 50l293 -386l824 832l51 -44z" />
    <glyph glyph-name="uniF8FF" unicode="&#xf8ff;" horiz-adv-x="2262" 
d="M1148 80q-151 0 -288.5 59.5t-237 160t-158.5 238.5t-59 289t59 289t159 237.5t238 158.5t289 59t288.5 -59t237.5 -159t159 -237.5t59 -288.5q0 -203 -99.5 -375t-271 -272t-375.5 -100zM1150 168q178 0 329 88t239 239t88 329q0 134 -52 255.5t-139.5 209.5t-208 140.5
t-253.5 53.5q-134 0 -256 -52t-210 -139.5t-140 -209t-52 -254.5q0 -134 51.5 -256t139 -210.5t209 -141t255.5 -52.5zM939 454h-2l32 30q19 18 33 58q44 120 60 170q35 101 77 175v3q-2 -4 -8 -9.5t-7 -7.5q-13 -15 -14 -16q-30 -46 -41 -76q-3 -8 -11 -8q-132 4 -235 89
q-52 50 -79 74q-2 2 -7.5 10t-9.5 12q12 -2 15 -5q69 -27 131 -36q50 -5 96 3q53 12 63 16q3 0 6.5 1.5t7.5 3.5t7 3q-7 4 -21.5 11t-22.5 11t-18.5 12t-17.5 17h25q53 0 100 25q82 51 182 81q31 10 77 15q4 0 28.5 1t29.5 0q72 -2 118 -44q6 -6 12.5 -13.5t14 -16.5
t11.5 -14q-1 -1 -1 -2l-7 2q-61 23 -111 5t-83 -71q-15 -28 -33 -74q-10 -23 -31 -73t-32 -76q-44 -85 -87 -135q-38 -46 -87 -77q-59 -45 -155 -73q-2 0 -4 -1h-1zM1877 -72q-21 0 -35.5 14.5t-14.5 35.5t14.5 35.5t35.5 14.5t35.5 -14.5t14.5 -35.5t-14.5 -35.5
t-35.5 -14.5zM1877 -57q15 0 25 10t10 25t-10 25t-25 10t-25 -10t-10 -25t10 -25t25 -10zM1871 -44h-11v46h18q17 0 17 -14q0 -8 -7 -13l10 -19h-13l-8 15h-6v-15zM1885 -13q0 3 -7 3h-7v-8h7q7 0 7 5zM944 -33q0 -9 7 -15t18 -6q10 0 17 6t7 15q0 8 -7 14t-17 6t-17.5 -6
t-7.5 -14zM590 -121q0 62 -49 85q-24 12 -58 12h-79v-195h78q68 0 95 46q13 20 13 52zM544 -121q0 -42 -29 -56q-13 -6 -35 -6h-29v124h29q42 0 57 -27q7 -13 7 -35zM653 -156h113v11q0 35 -23 56q-21 18 -56 18q-50 0 -70 -36q-10 -18 -10 -39q0 -47 39 -66q18 -9 44 -9
q42 0 61 21q10 8 13 23l-42 3q-4 -12 -18 -15q-4 -2 -14 -2q-22 0 -33 17q-4 10 -4 18zM823 -174l-45 -2q6 -45 75 -45q46 0 64 23q10 12 10 25q0 31 -48 39l-30 5q-21 4 -21 15q0 15 25 15q24 0 28 -18l42 3q-6 43 -71 43q-43 0 -61 -21q-9 -10 -9 -24q0 -33 48 -42l29 -5
q21 -3 21 -15q0 -14 -27 -14q-25 0 -30 18zM1059 -231l-42 -4q10 -41 76 -41q49 0 70 25q11 13 11 31v147h-46v-24h-1q-8 15 -25 22q-8 4 -23 4q-40 0 -58 -33q-9 -17 -9 -41q0 -47 33 -64q14 -7 34 -7q24 0 38 12q7 7 9 11h2v-26q0 -28 -34 -28q-20 0 -28 8zM1201 -219h45
v85q0 18 15 26q10 4 17 4q29 0 29 -29v-86h46v93q0 35 -27 48q-11 7 -30 7q-37 0 -49 -28h-1v26h-45v-146zM1411 -212q19 -9 44 -9q50 0 71 35q10 17 10 40q0 46 -38 66q-18 9 -43 9q-52 0 -72 -36q-10 -18 -10 -39q0 -45 38 -66zM1734 -216q10 -5 28 -5q23 0 37 11
q6 4 11 12h1v-21h44v99q0 26 -21 37q-21 12 -49 12q-40 0 -60 -20q-9 -10 -13 -23l43 -3q5 17 29 17q25 0 25 -19v-1q0 -9 -17 -10q-11 -2 -23 -3q-28 -2 -43 -11q-19 -11 -19 -34q0 -28 27 -38zM946 -219h46v146h-46v-146zM1596 -219h52l57 146h-48l-34 -104h-2l-35 104
h-48zM722 -131h-69q2 17 16 25q6 5 19 5q22 0 30 -17q2 -5 4 -13zM1474 -184q-8 -6 -19 -6q-23 0 -31 21q-4 9 -4 23q0 28 16 38q7 6 19 6q21 0 31 -21q4 -14 4 -23q0 -27 -16 -38zM1128 -145q0 -41 -34 -41q-23 0 -31 19q-4 8 -4 22q0 27 16 37q8 5 19 5q22 0 30 -20
q4 -8 4 -22zM1793 -190q-7 -3 -18 -3q-24 0 -24 16q0 11 12 16q5 2 15 4q26 3 31 6v-15q0 -16 -16 -24z" />
    <glyph glyph-name="_Designova" horiz-adv-x="2122" 
d="M1059 -161q-174 0 -333 68.5t-274 184t-183.5 275t-68.5 333.5q1 140 45 271t123.5 236.5t185 185t236.5 123t271 43.5q175 0 334 -68t274.5 -183t184 -274t68.5 -334t-68.5 -334.5t-184 -275t-275.5 -183.5t-335 -68zM1061 -59q154 0 294 60t241.5 161.5t161.5 241.5
t60 294q0 207 -101 381.5t-274.5 276t-379.5 101.5q-154 0 -294.5 -59.5t-242.5 -161t-162 -241.5t-60 -295t59.5 -295.5t161 -242t241.5 -161.5t295 -60zM817 271h-4l37 31q22 20 41 69q12 35 35.5 101.5t33.5 96.5q41 117 86 200v2q-11 -13 -14 -18q-11 -8 -15 -21
q-34 -42 -50 -87q-6 -7 -13 -7q-157 8 -271 104q-13 13 -43.5 41.5t-44.5 42.5q-8 10 -22 24q12 0 17 -5q73 -29 154 -41q60 -7 108 4q32 5 71 18q6 0 15 4.5l11 5.5q-8 5 -24 12.5t-25.5 12.5t-21.5 14t-21 19h28q52 0 115 27q107 68 211 98q47 13 88 13q9 0 33 2t35 1
q88 -5 136 -52q7 -6 14.5 -14.5t16 -19t13.5 -16.5v-2q-4 2 -10 2q-70 27 -127 6.5t-96 -79.5q-9 -16 -23 -50t-16 -39q-11 -23 -35 -81.5t-39 -88.5q-49 -99 -99 -159q-23 -31 -98 -88q-73 -52 -181 -83h-6z" />
    <glyph glyph-name="_VendorID" horiz-adv-x="1699" 
d="M1499 1577v-1582h-1299v1582h1299zM1429 1508h-1159v-1445h1159v1445zM617 832q-81 0 -138 56t-57 136q0 73 62 164l129 189h86l-113 -162q10 2 31 2q83 0 137 -55t54 -138q0 -81 -55 -136.5t-136 -55.5zM1082 832q-81 0 -137.5 55.5t-56.5 136.5q0 43 13 79t46 85
l129 189h88l-116 -162q10 2 34 2q81 0 136 -55.5t55 -137.5q0 -81 -55.5 -136.5t-135.5 -55.5zM617 900q52 0 86 35t34 89t-33.5 88t-86.5 34q-55 0 -88.5 -33t-33.5 -89q0 -55 34 -89.5t88 -34.5zM1082 900q52 0 84.5 35t32.5 89t-33 88t-84 34q-55 0 -89.5 -34t-34.5 -88
t34.5 -89t89.5 -35zM617 201q-81 0 -138 57t-57 138q0 79 62 166l129 183h86l-112 -160q12 4 30 4q83 0 137 -55.5t54 -137.5t-55.5 -138.5t-135.5 -56.5zM1082 201q-81 0 -137.5 56.5t-56.5 138.5q0 45 12.5 81.5t46.5 84.5l129 183h88l-115 -160q12 4 33 4q81 0 136 -55.5
t55 -137.5t-55.5 -138.5t-135.5 -56.5zM617 271q53 0 86.5 34.5t33.5 90.5q0 52 -33.5 86t-86.5 34q-54 0 -88 -33.5t-34 -86.5q0 -57 34 -91t88 -34zM1082 271q52 0 84.5 34.5t32.5 90.5q0 53 -32.5 86.5t-84.5 33.5q-55 0 -89.5 -33.5t-34.5 -86.5q0 -56 34.5 -90.5
t89.5 -34.5zM897 -104v-58h-19v58h-7v12h7v10q0 21 26 21h8v-15q-15 2 -15 -7v-9h15v-12h-15zM234 -165q-30 0 -30 38q0 18 10 28t24 10q10 0 17 -4l5 -7v35h17v-97h-17v12l-5 -9q-10 -6 -21 -6zM448 -85q-11 0 -11 10t11 10t11 -10t-11 -10zM1120 -150v-13h-11
q-20 0 -20 13v46h-11v12h11v17h19v-17h13v-12h-13v-38q2 -13 12 -8zM326 -165q-36 0 -36 38q0 17 10 27.5t26 10.5t25.5 -10t9.5 -26q0 -3 -2 -7h-50q2 -18 17 -18q14 0 16 12h17q-6 -27 -33 -27zM397 -165q-27 0 -31 24h19q4 -13 12 -13q12 0 12 10q0 5 -16 12
q-24 7 -24 21q0 22 28 22t28 -22h-18q-3 9 -10 9q-9 0 -9 -8q0 -6 16 -12q22 -4 22 -20q0 -23 -29 -23zM507 -191q-35 0 -35 24v2h18v-2q0 -10 17 -10q16 0 19 17v10l-5 -9q-15 -3 -19 -3q-32 0 -32 35q0 18 10 28t25 10q11 0 16 -4l5 -7v10h19v-54q0 -11 -2 -15
q0 -15 -10 -23.5t-26 -8.5zM579 -130v-32h-19v72h19v-13l5 10q9 4 17 4q22 0 27 -21q1 -4 1 -12v-40h-20v46q0 14 -13 14q-17 0 -17 -28zM675 -165q-16 0 -26 10.5t-10 27.5t10 27.5t26 10.5q37 0 37 -38t-37 -38zM820 -165q-9 0 -15.5 6t-6.5 17q0 22 40 22h4v2v7
q0 9 -12 9q-14 0 -14 -12h-17q0 25 31 25q26 0 28 -21v-34v-18h-15l-1 8l-4 -6q-8 -5 -18 -5zM955 -165q-38 0 -38 38t38 38q16 0 25.5 -10.5t9.5 -27.5t-9.5 -27.5t-25.5 -10.5zM1019 -130v-32h-17v72h17v-13l8 10q7 4 17 4q22 0 25 -21v-12v-40h-19v46q-4 14 -11 14
q-20 0 -20 -28zM1160 -165q-28 0 -33 24h20q1 -13 13 -13q10 0 10 10q0 5 -10 10q-3 1 -5 2q-23 6 -23 21q0 22 26 22t32 -22h-21q0 9 -12 9q-6 0 -6 -8q0 -6 14 -12q25 -5 25 -20q0 -23 -30 -23zM1263 -165q-35 0 -35 38q0 17 10.5 27.5t24.5 10.5q15 0 24 -7.5t9 -19.5
h-18q-3 14 -15 14q-17 0 -17 -25q0 -11 5 -17t12 -6q13 0 15 12h18q-2 -27 -33 -27zM1341 -165q-38 0 -38 38t38 38q35 0 35 -38t-35 -38zM1408 -125v-37h-19v72h19v-12l6 9q7 4 13 4q18 0 23 -14l7 10q5 4 15 4t16.5 -5t6.5 -12q1 -5 1 -16v-40h-18v37q0 1 -0.5 5t-0.5 6
q0 12 -13 12q-12 0 -12 -23v-37h-18v48q-4 12 -13 12q-13 0 -13 -23zM457 -90v-72h-18v72h18zM792 -90l-26 -72h-23l-25 72h19l19 -60l17 60h19zM240 -150q20 0 20 23v2q0 23 -18 23q-19 0 -19 -25q0 -23 17 -23zM309 -122h33q-3 20 -16 20q-14 0 -17 -20zM507 -150
q19 0 19 23v2q0 23 -19 23q-17 0 -17 -23q0 -25 17 -25zM675 -150q20 0 20 23q0 25 -20 25q-18 0 -18 -25q0 -23 18 -23zM955 -150q17 0 17 23q0 25 -17 25q-19 0 -19 -25q0 -23 19 -23zM1341 -150q17 0 17 23q0 25 -17 25q-8 0 -14 -7t-6 -18t6 -17t14 -6zM826 -150
q6 0 11 4t5 9v7q-26 3 -26 -12q0 -8 10 -8zM1208 -165q-12 0 -12 10q0 5 3.5 9t8.5 4t8.5 -4t3.5 -9q0 -10 -12 -10z" />
    <glyph glyph-name="_Origin" horiz-adv-x="3007" 
d="M200 1238v67h2607v-67h-2607zM1498 842q35 -35 94 -35q56 0 91 35q37 37 37 87q0 53 -37 87q-35 35 -93 35q-57 0 -92 -35q-37 -35 -37 -87q0 -48 37 -87zM347 811h197v43h-143v56h129v42h-129v52h143v43h-197v-236zM584 811h54v145l118 -145h44v236h-54v-143l-117 143
h-45v-236zM916 811h54v193h76v43h-207v-43h77v-193zM1150 811h58l54 161l52 -161h60l77 236h-52l-56 -168l-54 168h-50l-56 -166l-54 166h-58zM1751 811h54v66h52l44 -66h60l-52 74q28 12 39 31q13 19 13 46q0 54 -48 77q-19 8 -54 8h-108v-236zM1988 811h54v99h128v42h-128
v52h143v43h-197v-236zM2207 811h195v43h-141v56h127v42h-127v52h141v43h-195v-236zM2442 811h54v145l118 -145h46v236h-54v-143l-119 143h-45v-236zM1664 929q0 -33 -21 -54t-53 -21t-52.5 21t-20.5 54q0 34 20.5 55.5t52.5 21.5t53 -21.5t21 -55.5zM1805 921v83h50
q50 0 50 -42q0 -41 -50 -41h-50zM304 415h56v236h-56v-236zM397 415h56v145l118 -145h44v236h-54v-143l-118 143h-46v-236zM739 651v-236h123q95 0 95 64q0 40 -37 56l-4 2q35 17 35 54q0 28 -24.5 44t-71.5 16h-116zM984 415h195v45h-141v54h129v42h-129v51h143v44h-197
v-236zM1218 415h56v66h50l46 -66h58l-50 74q23 8 39 31q13 19 13 46q0 52 -48 77q-21 8 -56 8h-108v-236zM1457 415h195v45h-141v191h-54v-236zM1691 415h54v236h-54v-236zM1784 415h54v145l119 -145h45v236h-56v-143l-116 143h-46v-236zM2237 651v-236h107q83 0 114 56
q17 24 17 62q0 74 -62 103q-29 15 -69 15h-107zM2506 415h195v45h-141v54h129v42h-129v51h143v44h-197v-236zM795 558v56h56q44 0 44 -29q0 -27 -44 -27h-56zM1274 525v82h50q50 0 50 -41t-50 -41h-50zM2293 460v147h49q49 0 69 -35q8 -13 8 -39q0 -46 -35 -64
q-17 -9 -42 -9h-49zM795 456v58h63q43 0 43 -29t-43 -29h-63zM2040 363h35l18 50q9 18 9 33q0 14 -9 23.5t-22 9.5q-15 0 -24.5 -9t-9.5 -24q0 -23 19 -29zM200 146v67h2607v-67h-2607z" />
    </font>
</defs>
</svg>
