<?xml version="1.0" standalone="no"?>
<!DOCTYPE svg PUBLIC "-//W3C//DTD SVG 1.1//EN" "http://www.w3.org/Graphics/SVG/1.1/DTD/svg11.dtd" >
<svg xmlns="http://www.w3.org/2000/svg" xmlns:xlink="http://www.w3.org/1999/xlink" version="1.1">
<metadata>
Created by FontForge 20201107 at Tue May 30 04:31:16 2023
 By 
Copyright (c) 2023 by Designova. All rights reserved.
</metadata>
<defs>
<font id="Helixa-Regular" horiz-adv-x="0" >
  <font-face 
    font-family="Helixa"
    font-weight="400"
    font-stretch="normal"
    units-per-em="2048"
    panose-1="0 0 5 0 0 0 0 0 0 0"
    ascent="1638"
    descent="-410"
    x-height="1012"
    cap-height="1472"
    bbox="-944 -451 2807 1982"
    underline-thickness="50"
    underline-position="-100"
    unicode-range="U+0020-F8FF"
  />
<missing-glyph horiz-adv-x="1242" 
d="M1154 1460v-1450h-1066v1450h1066zM1046 1360h-850v-1250h850v1250z" />
    <glyph glyph-name=".notdef" horiz-adv-x="1242" 
d="M1154 1460v-1450h-1066v1450h1066zM1046 1360h-850v-1250h850v1250z" />
    <glyph glyph-name=".null" 
 />
    <glyph glyph-name="nonmarkingreturn" horiz-adv-x="682" 
 />
    <glyph glyph-name="space" unicode=" " horiz-adv-x="580" 
 />
    <glyph glyph-name="exclam" unicode="!" horiz-adv-x="540" 
d="M324 426h-108q-18 192 -18 680v366h144v-366q0 -488 -18 -680zM272 -28q-57 0 -97.5 40t-40.5 96t40.5 96t97.5 40q54 0 94 -40.5t40 -95.5t-40 -95.5t-94 -40.5z" />
    <glyph glyph-name="quotedbl" unicode="&#x22;" horiz-adv-x="586" 
d="M266 1366l-32 -406h-120l-34 406q-3 44 24 75t70 31t69 -30.5t23 -75.5zM506 1366l-32 -406h-120l-34 406q-3 44 24 75t70 31t69 -30.5t23 -75.5z" />
    <glyph glyph-name="numbersign" unicode="#" horiz-adv-x="1332" 
d="M438 440l-86 -440h-146l86 440h-214l24 140h222l58 312h-254l24 140h260l86 440h146l-86 -440h340l86 440h146l-86 -440h210l-24 -140h-218l-58 -312h218l-24 -140h-226l-86 -440h-146l86 440h-338zM866 892h-340l-58 -312h340z" />
    <glyph glyph-name="dollar" unicode="$" horiz-adv-x="1120" 
d="M624 -22v-178h-136v178q-192 17 -308 127.5t-122 282.5h156q-6 -105 69 -178t205 -88v566l-66 14q-168 42 -257 141.5t-89 244.5q0 168 111.5 277t300.5 129v178h136v-176q175 -18 281.5 -128.5t120.5 -287.5h-152q-7 120 -71.5 189t-178.5 83v-554l78 -16
q168 -45 257 -145t89 -245q0 -174 -114.5 -285t-309.5 -129zM450 846l38 -10v516q-123 -18 -193.5 -88.5t-70.5 -175.5q0 -186 226 -242zM668 640l-44 12v-530q130 16 203 87t73 181q0 98 -57 159t-175 91z" />
    <glyph glyph-name="percent" unicode="%" horiz-adv-x="1780" 
d="M448 762q-157 0 -260.5 104.5t-103.5 263.5t103.5 263.5t260.5 104.5t260.5 -104.5t103.5 -263.5t-103.5 -263.5t-260.5 -104.5zM1532 1472l-1120 -1472h-166l1118 1472h168zM448 898q98 0 161 65t63 167q0 103 -62.5 167.5t-161.5 64.5t-161.5 -64.5t-62.5 -167.5
q0 -102 63 -167t161 -65zM1332 -26q-157 0 -260.5 104.5t-103.5 263.5t103.5 263.5t260.5 104.5t260.5 -104.5t103.5 -263.5t-103.5 -263.5t-260.5 -104.5zM1332 110q98 0 161 65t63 167q0 103 -62.5 167.5t-161.5 64.5t-161.5 -64.5t-62.5 -167.5q0 -102 63 -167t161 -65z
" />
    <glyph glyph-name="ampersand" unicode="&#x26;" horiz-adv-x="1362" 
d="M590 -26q-233 0 -371.5 110t-138.5 296q0 138 84 249.5t276 226.5q-99 119 -137.5 192.5t-38.5 145.5q0 135 91 217.5t237 82.5q141 0 228.5 -79.5t87.5 -208.5q0 -108 -60 -198t-196 -184l388 -448q55 119 52 312h142q3 -248 -98 -424l228 -264h-182l-134 154
q-177 -180 -458 -180zM568 924q101 68 148.5 136t47.5 146q0 71 -46.5 112.5t-127.5 41.5q-86 0 -134 -44t-48 -122q0 -47 32.5 -102t127.5 -168zM588 108q246 0 374 146l-434 498q-169 -96 -236.5 -178.5t-67.5 -193.5q0 -128 96 -200t268 -72z" />
    <glyph glyph-name="quotesingle" unicode="'" horiz-adv-x="346" 
d="M266 1366l-32 -406h-120l-34 406q-3 44 24 75t70 31t69 -30.5t23 -75.5z" />
    <glyph glyph-name="parenleft" unicode="(" horiz-adv-x="498" 
d="M522 -286h-164q-124 185 -195 431t-71 487q0 239 71.5 484t194.5 428h164q-130 -163 -206 -408.5t-76 -503.5q0 -261 76 -508t206 -410z" />
    <glyph glyph-name="parenright" unicode=")" horiz-adv-x="498" 
d="M140 -286h-164q130 163 206 410t76 508q0 258 -76 503.5t-206 408.5h164q123 -183 194.5 -428t71.5 -484q0 -241 -71 -487t-195 -431z" />
    <glyph glyph-name="asterisk" unicode="*" horiz-adv-x="816" 
d="M342 924l-86 -124l-110 74l88 128q37 58 82 102q-25 6 -126 36l-148 54l46 122l142 -48q64 -20 120 -52q-8 76 -8 128v154h130v-154q0 -10 -6 -130q44 26 116 54l142 50l50 -124l-150 -54q-61 -20 -126 -34q41 -44 80 -104l88 -128l-108 -74l-86 124q-31 40 -66 106
q-25 -51 -64 -106z" />
    <glyph glyph-name="plus" unicode="+" horiz-adv-x="1348" 
d="M744 630v-458h-140v458h-456v140h456v456h140v-456h456v-140h-456z" />
    <glyph glyph-name="comma" unicode="," horiz-adv-x="520" 
d="M152 -164v116q64 0 96 48h-12q-48 0 -80 34.5t-32 85.5q0 57 36.5 92.5t93.5 35.5q61 0 101.5 -47.5t40.5 -116.5q0 -96 -72.5 -170.5t-171.5 -77.5z" />
    <glyph glyph-name="hyphen" unicode="-" horiz-adv-x="836" 
d="M720 616v-136h-604v136h604z" />
    <glyph glyph-name="period" unicode="." horiz-adv-x="520" 
d="M260 -22q-55 0 -95.5 40t-40.5 94q0 56 40 96t96 40t96 -40t40 -96q0 -54 -40.5 -94t-95.5 -40z" />
    <glyph glyph-name="slash" unicode="/" horiz-adv-x="688" 
d="M704 1472l-574 -1472h-146l572 1472h148z" />
    <glyph glyph-name="zero" unicode="0" horiz-adv-x="1356" 
d="M678 -26q-267 0 -423.5 206t-156.5 556t156.5 556t423.5 206t423.5 -206t156.5 -556t-156.5 -556t-423.5 -206zM678 116q200 0 317 167t117 453t-117 453t-317 167t-317 -167t-117 -453t117 -453t317 -167z" />
    <glyph glyph-name="one" unicode="1" horiz-adv-x="746" 
d="M590 1470v-1470h-146v1288l-318 -218l-72 124l408 276h128z" />
    <glyph glyph-name="two" unicode="2" horiz-adv-x="1122" 
d="M1044 140v-140h-964v116l458 406q201 180 267.5 284.5t66.5 239.5q0 144 -82 226t-226 82q-153 0 -246 -108t-92 -286h-148q0 239 135.5 387.5t354.5 148.5q201 0 326.5 -123.5t125.5 -320.5q0 -169 -83 -304t-307 -332l-312 -276h726z" />
    <glyph glyph-name="three" unicode="3" horiz-adv-x="1134" 
d="M548 -24q-227 0 -358 136t-124 364h148q-7 -166 82.5 -262t251.5 -96q166 0 264 94.5t98 255.5q0 153 -107 236.5t-303 83.5h-114v106l402 438h-680v140h896v-116l-402 -434q206 -18 331 -143t125 -315q0 -219 -141 -353.5t-369 -134.5z" />
    <glyph glyph-name="four" unicode="4" horiz-adv-x="1240" 
d="M796 1472h176v-1018h166v-140h-166v-314h-148v314h-756v122zM824 454v814l-572 -814h572z" />
    <glyph glyph-name="five" unicode="5" horiz-adv-x="1158" 
d="M578 -24q-227 0 -358 136t-124 364h148q-7 -166 82.5 -262t251.5 -96t262 99t100 261t-100.5 262t-263.5 100q-100 0 -191 -41.5t-159 -116.5l-90 42l72 748h802v-140h-666l-42 -428q131 78 280 78q220 0 363 -143t143 -363q0 -219 -143.5 -359.5t-366.5 -140.5z" />
    <glyph glyph-name="six" unicode="6" horiz-adv-x="1204" 
d="M606 1020q224 0 371 -147.5t147 -372.5q0 -108 -40.5 -205.5t-109.5 -167t-165.5 -110.5t-204.5 -41t-205 41t-167 111t-111 167t-41 205q0 122 38.5 221.5t131.5 234.5l352 516h180l-336 -478q72 26 160 26zM604 118q164 0 268 107t104 275q0 164 -105 271t-267 107
q-165 0 -270.5 -106t-105.5 -272q0 -168 105.5 -275t270.5 -107z" />
    <glyph glyph-name="seven" unicode="7" horiz-adv-x="1002" 
d="M998 1352l-538 -1352h-154l534 1332h-834v140h992v-120z" />
    <glyph glyph-name="eight" unicode="8" horiz-adv-x="1210" 
d="M606 -24q-227 0 -371.5 120.5t-144.5 309.5q0 122 65 222t179 154q-93 51 -143.5 136.5t-50.5 191.5q0 172 129.5 279t336.5 107q206 0 334 -107t128 -279q0 -108 -49.5 -193.5t-140.5 -134.5q113 -51 177.5 -151.5t64.5 -226.5q0 -187 -144.5 -307.5t-369.5 -120.5z
M606 850q145 0 230.5 70.5t85.5 189.5q0 113 -85 179.5t-231 66.5t-233 -66t-87 -176q0 -120 87.5 -192t232.5 -72zM608 116q163 0 264.5 83t101.5 215q0 134 -100.5 213t-269.5 79q-168 0 -268 -79t-100 -211q0 -134 102.5 -217t269.5 -83z" />
    <glyph glyph-name="nine" unicode="9" horiz-adv-x="1204" 
d="M600 1496q108 0 205 -41t167 -111t111 -167t41 -205q0 -122 -38.5 -221.5t-131.5 -234.5l-352 -516h-180l336 478q-72 -26 -160 -26q-224 0 -371 147.5t-147 372.5q0 108 40.5 205.5t109.5 167t165.5 110.5t204.5 41zM600 594q165 0 270.5 106t105.5 272
q0 168 -105.5 275t-270.5 107q-164 0 -268 -107t-104 -275q0 -164 105 -271t267 -107z" />
    <glyph glyph-name="colon" unicode=":" horiz-adv-x="560" 
d="M280 762q-55 0 -95.5 40t-40.5 94q0 56 40 96t96 40t96 -40t40 -96q0 -54 -40.5 -94t-95.5 -40zM280 -22q-55 0 -95.5 40t-40.5 94q0 56 40 96t96 40t96 -40t40 -96q0 -54 -40.5 -94t-95.5 -40z" />
    <glyph glyph-name="semicolon" unicode=";" horiz-adv-x="560" 
d="M280 762q-55 0 -95.5 40t-40.5 94q0 56 40 96t96 40t96 -40t40 -96q0 -54 -40.5 -94t-95.5 -40zM172 -164v116q64 0 96 48h-12q-48 0 -80 34.5t-32 85.5q0 57 36.5 92.5t93.5 35.5q61 0 101.5 -47.5t40.5 -116.5q0 -96 -72.5 -170.5t-171.5 -77.5z" />
    <glyph glyph-name="less" unicode="&#x3c;" horiz-adv-x="1348" 
d="M368 512l832 -294v-148l-1052 378v128l1052 378v-148z" />
    <glyph glyph-name="equal" unicode="=" horiz-adv-x="1348" 
d="M1200 886v-140h-1052v140h1052zM1200 482v-140h-1052v140h1052z" />
    <glyph glyph-name="greater" unicode="&#x3e;" horiz-adv-x="1348" 
d="M1200 576v-128l-1052 -378v148l832 294l-832 294v148z" />
    <glyph glyph-name="question" unicode="?" horiz-adv-x="1022" 
d="M532 390v-82h-142v82q0 59 17.5 109t54.5 94t69 73t85 70q42 32 65 51t54 50.5t47 59.5t28 66.5t12 82.5q0 133 -88 220.5t-222 87.5q-137 0 -230.5 -99.5t-81.5 -234.5h-144q-6 96 28 184t95.5 152t149 102t183.5 38q197 0 325.5 -127.5t128.5 -322.5
q0 -62 -16.5 -117.5t-39 -94.5t-62 -80.5t-68 -65.5t-74.5 -58q-94 -69 -134 -120t-40 -120zM470 -28q-57 0 -97.5 40t-40.5 96t40.5 96t97.5 40q54 0 94 -40.5t40 -95.5t-40 -95.5t-94 -40.5z" />
    <glyph glyph-name="at" unicode="@" horiz-adv-x="1818" 
d="M908 -182q-233 0 -424.5 110.5t-301.5 304t-110 427.5q0 173 65 328t176.5 266.5t266.5 176.5t328 65q181 0 336.5 -61t266 -168t173 -259t62.5 -328q0 -215 -102 -357.5t-256 -142.5q-91 0 -151 36.5t-83 105.5q-113 -134 -316 -134q-146 0 -233 75t-87 201t90.5 203.5
t261.5 98.5l160 20q89 12 116 30q-3 106 -59.5 157t-170.5 51q-117 0 -177.5 -53.5t-52.5 -148.5h-138q-12 147 91 238.5t279 91.5q173 0 267.5 -88t94.5 -250v-412q0 -98 108 -98q99 0 160.5 103.5t61.5 272.5q0 149 -52.5 277t-144.5 218t-222.5 141.5t-282.5 51.5
q-145 0 -274.5 -55.5t-223 -149.5t-148 -225.5t-54.5 -277.5q0 -199 92 -363t252.5 -257.5t355.5 -93.5q276 0 472 178l82 -96q-234 -210 -554 -210zM850 314q137 0 216.5 90t79.5 246v36q-65 -16 -212 -32l-54 -6q-112 -13 -170 -60t-58 -122q0 -74 51 -113t147 -39z" />
    <glyph glyph-name="A" unicode="A" horiz-adv-x="1270" 
d="M332 454l-170 -454h-150l554 1472h140l554 -1472h-150l-170 454h-608zM892 588l-256 680l-256 -680h512z" />
    <glyph glyph-name="B" unicode="B" horiz-adv-x="1282" 
d="M750 0h-588v1472h552q216 0 339 -106.5t123 -295.5q0 -216 -160 -324q92 -51 141.5 -139t50.5 -203q-1 -184 -126.5 -294t-331.5 -110zM720 1332h-410v-524h410q148 0 227 68t79 194t-79 194t-227 68zM756 668h-446v-528h446q141 0 219 69t83 195q-5 126 -83 195t-219 69
z" />
    <glyph glyph-name="C" unicode="C" horiz-adv-x="1456" 
d="M758 -22q-150 0 -277 56t-216.5 155.5t-140 240.5t-50.5 306q0 221 87.5 394.5t245 269.5t359.5 96q236 0 409 -139.5t213 -362.5h-158q-42 165 -168.5 261.5t-301.5 96.5q-240 0 -388 -170t-148 -446q0 -274 148.5 -444t387.5 -170q174 0 304.5 91.5t173.5 244.5h158
q-29 -140 -119.5 -249.5t-226 -170t-292.5 -60.5z" />
    <glyph glyph-name="D" unicode="D" horiz-adv-x="1384" 
d="M568 0h-406v1472h406q333 0 537.5 -202.5t204.5 -533.5t-204.5 -533.5t-537.5 -202.5zM568 1332h-258v-1192h258q269 0 430.5 162.5t161.5 433.5q0 274 -160 435t-432 161z" />
    <glyph glyph-name="E" unicode="E" horiz-adv-x="1194" 
d="M1088 140v-140h-926v1472h924v-140h-776v-524h710v-140h-710v-528h778z" />
    <glyph glyph-name="F" unicode="F" horiz-adv-x="1142" 
d="M310 668v-668h-148v1472h924v-140h-776v-524h710v-140h-710z" />
    <glyph glyph-name="G" unicode="G" horiz-adv-x="1504" 
d="M766 -22q-207 0 -366 94q-156 96 -241 268.5t-85 395.5q0 341 190 552q92 101 218 154.5t274 53.5q162 0 301.5 -66.5t228.5 -184.5t108 -265h-144q-35 168 -172.5 274t-321.5 106q-163 0 -274 -76q-127 -73 -194.5 -215t-67.5 -333q0 -193 68 -332q67 -139 191.5 -214.5
t286.5 -75.5q141 0 260 64q106 58 165 162.5t67 245.5h-514v134h660v-108q0 -199 -80 -338q-83 -143 -227 -219.5t-331 -76.5z" />
    <glyph glyph-name="H" unicode="H" horiz-adv-x="1396" 
d="M310 678v-678h-148v1472h148v-654h774v654h148v-1472h-148v678h-774z" />
    <glyph glyph-name="I" unicode="I" horiz-adv-x="472" 
d="M310 1472v-1472h-148v1472h148z" />
    <glyph glyph-name="J" unicode="J" horiz-adv-x="1112" 
d="M496 -22q-298 0 -414 206q-54 99 -54 262v124h144v-124q0 -228 134 -296q90 -43 192 -40q104 0 184 40q134 68 134 296v1028h144v-1028q0 -163 -54 -262q-58 -105 -157.5 -154.5t-252.5 -51.5z" />
    <glyph glyph-name="K" unicode="K" horiz-adv-x="1272" 
d="M304 478v-478h-142v1472h142v-790l758 790h194l-672 -696l664 -776h-184l-574 676z" />
    <glyph glyph-name="L" unicode="L" horiz-adv-x="1118" 
d="M1088 140v-140h-926v1472h148v-1332h778z" />
    <glyph glyph-name="M" unicode="M" horiz-adv-x="1656" 
d="M302 1472l526 -1262l524 1262h142v-1472h-144v1104l-456 -1104h-132l-456 1098v-1098h-144v1472h140z" />
    <glyph glyph-name="N" unicode="N" horiz-adv-x="1404" 
d="M302 1472l790 -1192v1192h148v-1472h-138l-792 1196v-1196h-148v1472h140z" />
    <glyph glyph-name="O" unicode="O" horiz-adv-x="1514" 
d="M756 -26q-202 0 -357 95.5t-240 268.5t-85 398t85 398t240 268.5t357 95.5t357 -95.5t240 -268.5t85 -398t-85 -398t-240 -268.5t-357 -95.5zM756 110q239 0 389.5 174.5t150.5 451.5q0 280 -150 453t-390 173t-389 -173t-149 -453q0 -279 149.5 -452.5t388.5 -173.5z
" />
    <glyph glyph-name="P" unicode="P" horiz-adv-x="1236" 
d="M310 534v-534h-148v1472h566q210 0 336 -127t126 -339q0 -207 -129.5 -339.5t-332.5 -132.5h-418zM724 1332h-414v-658h402q149 0 238.5 91.5t89.5 244.5q0 150 -84.5 236t-231.5 86z" />
    <glyph glyph-name="Q" unicode="Q" horiz-adv-x="1514" 
d="M1254 192l154 -170l-104 -102l-156 172q-166 -118 -392 -118q-202 0 -357 95.5t-240 268.5t-85 398t85 398t240 268.5t357 95.5t357 -95.5t240 -268.5t85 -398q0 -335 -184 -544zM756 110q174 0 298 88l-182 202l104 102l184 -200q136 167 136 434q0 280 -150 453
t-390 173t-389 -173t-149 -453q0 -279 149.5 -452.5t388.5 -173.5z" />
    <glyph glyph-name="R" unicode="R" horiz-adv-x="1278" 
d="M310 532v-534h-148v1472h566q210 0 336 -127t126 -339q0 -148 -73 -265t-199 -173l288 -566h-166l-268 532h-462zM724 1330h-414v-658h402q149 0 238.5 91.5t89.5 244.5q0 150 -84.5 236t-231.5 86z" />
    <glyph glyph-name="S" unicode="S" horiz-adv-x="1120" 
d="M554 -24q-220 0 -355 112t-141 300h156q-6 -120 88.5 -195t251.5 -75q160 0 253 73t93 199q0 98 -57 159t-175 91l-246 62q-168 42 -257 141.5t-89 244.5q0 184 133.5 296t354.5 112q200 0 323.5 -111.5t138.5 -304.5h-152q-9 132 -89 204t-221 72q-156 0 -248 -73
t-92 -195q0 -186 226 -242l252 -64q168 -45 257 -145t89 -245q0 -190 -134.5 -303t-359.5 -113z" />
    <glyph glyph-name="T" unicode="T" horiz-adv-x="1094" 
d="M622 1332v-1332h-148v1332h-462v140h1070v-140h-460z" />
    <glyph glyph-name="U" unicode="U" horiz-adv-x="1370" 
d="M688 -24q-251 0 -393.5 141.5t-142.5 390.5v964h148v-962q0 -190 99 -289t289 -99q186 0 284 99.5t98 288.5v962h148v-964q0 -249 -140.5 -390.5t-389.5 -141.5z" />
    <glyph glyph-name="V" unicode="V" horiz-adv-x="1272" 
d="M640 228l476 1244h152l-562 -1472h-138l-564 1472h156z" />
    <glyph glyph-name="W" unicode="W" horiz-adv-x="1946" 
d="M1426 270l356 1202h150l-440 -1472h-124l-396 1218l-394 -1218h-128l-436 1472h152l352 -1204l388 1204h132z" />
    <glyph glyph-name="X" unicode="X" horiz-adv-x="1232" 
d="M620 614l-428 -614h-180l518 734l-526 738h182l308 -434q60 -82 124 -188l430 622h174l-514 -734l526 -738h-182l-324 456q-48 63 -108 158z" />
    <glyph glyph-name="Y" unicode="Y" horiz-adv-x="1252" 
d="M700 628v-630h-148v630l-556 842h172l458 -704l458 704h172z" />
    <glyph glyph-name="Z" unicode="Z" horiz-adv-x="1170" 
d="M1094 140v-140h-1024v120l844 1212h-840v140h1030v-120l-844 -1212h834z" />
    <glyph glyph-name="bracketleft" unicode="[" horiz-adv-x="508" 
d="M510 42v-132h-418v1652h418v-132h-280v-1388h280z" />
    <glyph glyph-name="backslash" unicode="\" horiz-adv-x="688" 
d="M132 1472l572 -1472h-146l-574 1472h148z" />
    <glyph glyph-name="bracketright" unicode="]" horiz-adv-x="508" 
d="M416 1562v-1652h-418v132h280v1388h-280v132h418z" />
    <glyph glyph-name="asciicircum" unicode="^" horiz-adv-x="970" 
d="M486 1274l-202 -474h-152l290 672h128l290 -672h-152z" />
    <glyph glyph-name="underscore" unicode="_" horiz-adv-x="1040" 
d="M932 12v-144h-824v144h824z" />
    <glyph glyph-name="grave" unicode="`" horiz-adv-x="434" 
d="M234 1796l130 -266h-142l-158 266h170z" />
    <glyph glyph-name="a" unicode="a" horiz-adv-x="1036" 
d="M432 -24q-159 0 -254.5 83t-95.5 221q0 139 99 224t285 106l176 20q96 11 130 36q-6 234 -254 234q-130 0 -198 -59.5t-60 -164.5h-144q-12 160 100.5 260t303.5 100q187 0 291.5 -98.5t104.5 -275.5v-662h-144v120q-59 -69 -146.5 -106.5t-193.5 -37.5zM444 110
q152 0 240 100t88 274v44q-95 -24 -294 -42q-124 -16 -188 -68t-64 -136q0 -83 56.5 -127.5t161.5 -44.5z" />
    <glyph glyph-name="b" unicode="b" horiz-adv-x="1154" 
d="M622 1036q211 0 339.5 -145.5t128.5 -384.5t-128.5 -384.5t-339.5 -145.5q-227 0 -350 166v-142h-140v1472h144v-598q116 162 346 162zM612 112q153 0 242.5 106t89.5 288t-89.5 288t-242.5 106q-152 0 -243 -107t-91 -287q0 -181 90.5 -287.5t243.5 -106.5z" />
    <glyph glyph-name="c" unicode="c" horiz-adv-x="1038" 
d="M534 -24q-211 0 -340.5 145t-129.5 381q0 240 132.5 387t349.5 147q170 0 290 -97t148 -259h-146q-22 100 -102 161t-190 61q-153 0 -246.5 -108.5t-93.5 -289.5q0 -177 90.5 -284.5t237.5 -107.5q111 0 196 59.5t112 158.5h146q-33 -160 -158 -257t-296 -97z" />
    <glyph glyph-name="d" unicode="d" horiz-adv-x="1154" 
d="M878 874v598h144v-1472h-140v142q-123 -166 -350 -166q-211 0 -339.5 145.5t-128.5 384.5t128.5 384.5t339.5 145.5q230 0 346 -162zM542 112q153 0 243.5 106.5t90.5 287.5q0 180 -91 287t-243 107q-153 0 -242.5 -106t-89.5 -288t89.5 -288t242.5 -106z" />
    <glyph glyph-name="e" unicode="e" horiz-adv-x="1076" 
d="M538 -24q-213 0 -342 145.5t-132 388.5q3 239 132 382.5t342 143.5q214 0 344 -144.5t130 -381.5v-34l-808 2q7 -168 98.5 -268t235.5 -100q110 2 192.5 61.5t109.5 158.5h144q-31 -158 -155 -256t-291 -98zM214 606l648 -2q-22 138 -109 218t-215 80q-126 0 -214 -80
t-110 -216z" />
    <glyph glyph-name="f" unicode="f" horiz-adv-x="578" 
d="M452 1472l104 -5v-127h-8q-44 0 -66 -0.5t-51 -2t-41.5 -5t-29 -10t-22 -16t-12.5 -24t-8.5 -32.5t-1.5 -44v-170h228v-132h-227l1 -904h-144l-1 904h-149v132h148v170q0 141 66 203.5t214 62.5z" />
    <glyph glyph-name="g" unicode="g" horiz-adv-x="1160" 
d="M882 876v136h146v-990q0 -143 -54 -242q-58 -105 -157.5 -154.5t-252.5 -51.5q-298 0 -414 206q-38 76 -50 190h146q15 -166 128 -224q90 -43 192 -40q104 0 184 40q136 70 136 296v166q-60 -83 -152.5 -127.5t-203.5 -44.5q-202 0 -333 141t-131 359q0 219 133 359.5
t341 140.5q225 0 342 -160zM536 172q153 0 243.5 99t90.5 267q0 166 -89 264t-241 98q-146 0 -237 -100.5t-91 -263.5t90 -263.5t234 -100.5z" />
    <glyph glyph-name="h" unicode="h" horiz-adv-x="1112" 
d="M992 610v-610h-144v592q0 159 -61.5 233.5t-190.5 74.5q-146 0 -233 -96t-87 -256v-546h-144v1470h144v-580q119 144 326 144q190 0 290 -109.5t100 -316.5z" />
    <glyph glyph-name="i" unicode="i" horiz-adv-x="416" 
d="M208 1254q-45 0 -77.5 32t-32.5 76q0 47 32 79.5t78 32.5q44 0 77 -33.5t33 -78.5t-32.5 -76.5t-77.5 -31.5zM280 1012v-1012h-144v1012h144z" />
    <glyph glyph-name="j" unicode="j" horiz-adv-x="421" 
d="M213 1474q44 0 77 -33.5t33 -78.5t-32.5 -76.5t-77.5 -31.5t-77.5 32t-32.5 76q0 47 32 79.5t78 32.5zM5 -422l-131 6v127l35 -1q57 -3 98 -0.5t67 7.5t41 21.5t20.5 40.5t5.5 65l-2 1168h144l2 -1168q0 -141 -66 -203.5t-214 -62.5z" />
    <glyph glyph-name="k" unicode="k" horiz-adv-x="950" 
d="M282 316v-316h-144v1472h144v-962l486 502h190l-400 -412l392 -600h-172l-318 498z" />
    <glyph glyph-name="l" unicode="l" horiz-adv-x="420" 
d="M282 1472v-1472h-144v1472h144z" />
    <glyph glyph-name="m" unicode="m" horiz-adv-x="1660" 
d="M276 642v-642h-144v1012h140v-88q96 112 268 112q103 0 186 -46.5t128 -129.5q45 84 127.5 130t190.5 46q166 0 266 -104.5t100 -277.5v-654h-140v642q0 120 -63 189t-171 69q-111 0 -183.5 -73t-72.5 -187v-640h-142v644q0 121 -61.5 188.5t-172.5 67.5t-183.5 -73.5
t-72.5 -184.5z" />
    <glyph glyph-name="n" unicode="n" horiz-adv-x="1112" 
d="M276 522v-522h-144v1012h146v-122q57 69 139 107.5t175 38.5q198 0 299 -108t101 -318v-610h-144v592q0 163 -61 235.5t-197 72.5q-147 0 -230.5 -100.5t-83.5 -277.5z" />
    <glyph glyph-name="o" unicode="o" horiz-adv-x="1092" 
d="M546 -24q-217 0 -348 145.5t-134 388.5q3 237 135.5 381.5t346.5 144.5t346.5 -144.5t135.5 -381.5q-3 -243 -134 -388.5t-348 -145.5zM546 110q153 0 246.5 109t93.5 287t-93.5 287t-246.5 109t-246.5 -109t-93.5 -287t93.5 -287t246.5 -109z" />
    <glyph glyph-name="p" unicode="p" horiz-adv-x="1154" 
d="M622 1036q211 0 339.5 -145.5t128.5 -384.5t-128.5 -384.5t-339.5 -145.5q-230 0 -346 162v-544h-144v1418h140v-142q123 166 350 166zM612 112q153 0 242.5 106t89.5 288t-89.5 288t-242.5 106t-243.5 -106.5t-90.5 -287.5q0 -180 91 -287t243 -107z" />
    <glyph glyph-name="q" unicode="q" horiz-adv-x="1154" 
d="M882 870v142h140v-1418h-144v544q-116 -162 -346 -162q-211 0 -339.5 145.5t-128.5 384.5t128.5 384.5t339.5 145.5q227 0 350 -166zM542 112q152 0 243 107t91 287q0 181 -90.5 287.5t-243.5 106.5t-242.5 -106t-89.5 -288t89.5 -288t242.5 -106z" />
    <glyph glyph-name="r" unicode="r" horiz-adv-x="640" 
d="M276 522v-522h-144v1012h146v-120q60 72 148 110t186 34v-136q-156 6 -246 -94.5t-90 -283.5z" />
    <glyph glyph-name="s" unicode="s" horiz-adv-x="858" 
d="M410 -24q-171 0 -269 91.5t-91 244.5h142q-8 -94 48.5 -147t165.5 -53q112 0 174 43.5t62 120.5q0 60 -33.5 93t-118.5 55l-162 42q-125 32 -192.5 104t-67.5 174q0 130 98.5 211t257.5 81q165 0 261 -89.5t93 -242.5h-142q3 93 -52 144.5t-160 51.5q-212 0 -212 -156
q0 -108 154 -144l160 -42q134 -35 197 -103t63 -179q0 -135 -104 -217.5t-272 -82.5z" />
    <glyph glyph-name="t" unicode="t" horiz-adv-x="618" 
d="M594 4l-96 -4q-148 0 -214 62.5t-66 203.5v614h-194v132h194v304h144v-304h194v-132h-194v-614q0 -51 9 -77.5t35 -42t71 -15.5t117 1v-128z" />
    <glyph glyph-name="u" unicode="u" horiz-adv-x="1112" 
d="M520 -24q-198 0 -299 108t-101 318v610h144v-592q0 -163 61 -235.5t197 -72.5q147 0 230.5 100.5t83.5 277.5v522h144v-1012h-146v122q-57 -69 -139 -107.5t-175 -38.5z" />
    <glyph glyph-name="v" unicode="v" horiz-adv-x="966" 
d="M964 1012l-416 -1012h-130l-416 1012h152l330 -810l330 810h150z" />
    <glyph glyph-name="w" unicode="w" horiz-adv-x="1472" 
d="M1056 246l256 766h148l-340 -1012h-130l-254 766l-256 -766h-130l-338 1012h148l256 -768l254 768h130z" />
    <glyph glyph-name="x" unicode="x" horiz-adv-x="916" 
d="M456 396l-280 -396h-180l366 510l-364 502h180l282 -394l282 394h178l-366 -506l366 -506h-180z" />
    <glyph glyph-name="y" unicode="y" horiz-adv-x="928" 
d="M196 -418q-92 0 -156 18v122q93 -12 158 -12q66 2 98.5 28t57.5 100l48 122l-400 1052h150l320 -850l306 850h148l-436 -1216q-42 -109 -114 -161.5t-180 -52.5z" />
    <glyph glyph-name="z" unicode="z" horiz-adv-x="884" 
d="M818 132v-132h-752v106l564 774h-564v132h752v-108l-562 -772h562z" />
    <glyph glyph-name="braceleft" unicode="{" horiz-adv-x="562" 
d="M564 42v-132h-126q-90 0 -145 52.5t-55 139.5v470q0 55 -36.5 77t-123.5 19v138q87 -3 123.5 19t36.5 77v468q0 87 55 139.5t145 52.5h126v-132h-128q-28 0 -44 -16t-16 -44v-468q0 -114 -74 -164q74 -53 74 -166v-470q0 -28 16 -44t44 -16h128z" />
    <glyph glyph-name="bar" unicode="|" horiz-adv-x="616" 
d="M374 1640v-1808h-132v1808h132z" />
    <glyph glyph-name="braceright" unicode="}" horiz-adv-x="562" 
d="M124 -90h-126v132h128q28 0 44 16t16 44v470q0 113 74 166q-74 50 -74 164v468q0 28 -16 44t-44 16h-128v132h126q90 0 145 -52.5t55 -139.5v-468q0 -55 36.5 -77t123.5 -19v-138q-87 3 -123.5 -19t-36.5 -77v-470q0 -87 -55 -139.5t-145 -52.5z" />
    <glyph glyph-name="asciitilde" unicode="~" horiz-adv-x="1348" 
d="M938 430q-53 0 -115 20.5t-97.5 39t-101.5 56.5q-53 33 -79.5 48.5t-66 30.5t-70.5 15q-66 0 -93 -42.5t-29 -147.5h-138q-8 146 64.5 238t195.5 92q47 0 101.5 -18t92 -38t94.5 -54q6 -4 28.5 -16.5t29.5 -16.5t27 -15t28.5 -15t25.5 -11.5t28 -11t25.5 -7.5t27 -5.5
t24.5 -1.5q66 0 94.5 45t27.5 151h138q6 -152 -65 -244t-197 -92z" />
    <glyph glyph-name="exclamdown" unicode="&#xa1;" horiz-adv-x="540" 
d="M272 1228q-57 0 -97.5 40t-40.5 96t40.5 96t97.5 40q54 0 94 -40.5t40 -95.5t-40 -95.5t-94 -40.5zM342 366v-366h-144v366q0 488 18 680h108q18 -192 18 -680z" />
    <glyph glyph-name="cent" unicode="&#xa2;" horiz-adv-x="1104" 
d="M648 214v-216h-140v216q-189 25 -306.5 168.5t-117.5 347.5q0 216 116 359.5t308 166.5v216h140v-216q152 -20 253.5 -114.5t126.5 -239.5h-148q-23 104 -104.5 162t-205.5 58q-153 0 -246.5 -107t-93.5 -283q0 -168 97.5 -275t250.5 -107q245 0 306 214h148
q-31 -148 -133 -240.5t-251 -109.5z" />
    <glyph glyph-name="sterling" unicode="&#xa3;" horiz-adv-x="1204" 
d="M706 0h-654v138q110 13 185 106.5t75 215.5q0 90 -40 214h-208v140h158q-58 152 -58 266q0 186 124.5 301t325.5 115q200 0 323.5 -111.5t138.5 -304.5h-152q-9 132 -89 204t-221 72q-144 0 -223 -73t-79 -205q0 -62 16.5 -122t49.5 -142h524v-140h-474q32 -115 32 -216
q0 -93 -37.5 -177.5t-102.5 -140.5h386q157 0 221.5 78t58.5 262h144q12 -480 -424 -480z" />
    <glyph glyph-name="currency" unicode="&#xa4;" horiz-adv-x="1232" 
d="M348 358l-158 -156l-102 102l160 156q-86 117 -86 264q0 141 86 268l-160 156l102 102l158 -156q123 86 266 86q147 0 270 -88l158 158l102 -102l-160 -156q86 -114 86 -268q0 -147 -86 -264l160 -156l-102 -102l-158 158q-118 -88 -270 -88q-143 0 -266 86zM614 414
q129 0 221.5 91.5t92.5 218.5q0 130 -92 222t-222 92q-127 0 -218.5 -92.5t-91.5 -221.5q0 -128 91 -219t219 -91z" />
    <glyph glyph-name="yen" unicode="&#xa5;" horiz-adv-x="1178" 
d="M666 336v-336h-144v336h-370v136h370v108h-370v136h318l-450 756h166l408 -708l400 708h164l-442 -756h318v-136h-368v-108h368v-136h-368z" />
    <glyph glyph-name="brokenbar" unicode="&#xa6;" horiz-adv-x="616" 
d="M374 1640v-780h-132v780h132zM374 612v-780h-132v780h132z" />
    <glyph glyph-name="section" unicode="&#xa7;" horiz-adv-x="932" 
d="M468 -22q-165 0 -261 89.5t-93 242.5h142q-3 -93 52 -144.5t160 -51.5q212 0 212 156q0 111 -152 144l-200 42q-262 54 -262 282q0 77 46.5 140t127.5 96q-132 80 -132 232q0 130 98.5 211t257.5 81q165 0 261 -89.5t93 -242.5h-142q3 93 -52 144.5t-160 51.5
q-212 0 -212 -156q0 -111 152 -144l200 -42q262 -54 262 -282q0 -77 -46.5 -140t-127.5 -96q132 -80 132 -232q0 -130 -98.5 -211t-257.5 -81zM466 576q124 0 190 42t66 120t-66 120t-190 42t-190 -42t-66 -120t66 -120t190 -42z" />
    <glyph glyph-name="dieresis" unicode="&#xa8;" horiz-adv-x="706" 
d="M220 1576q-45 0 -77.5 32t-32.5 76q0 47 32 79.5t78 32.5q44 0 77 -33.5t33 -78.5t-32.5 -76.5t-77.5 -31.5zM484 1576q-45 0 -77.5 32t-32.5 76q0 47 32 79.5t78 32.5q44 0 77 -33.5t33 -78.5t-32.5 -76.5t-77.5 -31.5z" />
    <glyph glyph-name="copyright" unicode="&#xa9;" horiz-adv-x="1658" 
d="M828 -28q-159 0 -300 59t-242 160.5t-159.5 243.5t-58.5 301q0 158 59 299t160 242t242 160t299 59q160 0 301 -58.5t242.5 -159t160 -242t58.5 -300.5q0 -214 -99.5 -389t-274 -275t-388.5 -100zM828 100q178 0 321 82t224 227.5t81 326.5q0 178 -81.5 323t-224.5 227
t-320 82q-175 0 -318 -82.5t-224.5 -227.5t-81.5 -322q0 -134 48 -252.5t130.5 -202.5t198 -132.5t247.5 -48.5zM838 302q-175 0 -286.5 120t-111.5 308q0 192 114 314t294 122q139 0 238.5 -82t121.5 -216h-146q-37 164 -214 164q-119 0 -193.5 -83t-74.5 -217
q0 -132 72 -214t186 -82q90 0 148.5 42t79.5 120h144q-25 -132 -128.5 -214t-243.5 -82z" />
    <glyph glyph-name="ordfeminine" unicode="&#xaa;" horiz-adv-x="868" 
d="M451 1423q149 0 233 -79.5t84 -221.5v-526h-126v84q-51 -48 -120.5 -75.5t-139.5 -27.5q-127 0 -204.5 67.5t-77.5 177.5q0 111 79.5 180t227.5 86l138 16q61 6 87 19l-4 3l7 17v16l5 -3q-10 75 -56.5 110.5t-135.5 35.5q-102 0 -153.5 -46t-40.5 -129h-125
q-12 131 78.5 213.5t243.5 82.5zM642 982v27q-82 -20 -224 -31q-192 -24 -192 -154q0 -62 43 -95.5t122 -33.5q118 0 184.5 76t66.5 211z" />
    <glyph glyph-name="guillemotleft" unicode="&#xab;" horiz-adv-x="1078" 
d="M212 506l444 -506h-166l-444 506l444 506h166zM612 506l444 -506h-166l-444 506l444 506h166z" />
    <glyph glyph-name="logicalnot" unicode="&#xac;" horiz-adv-x="1320" 
d="M1106 692v-540h-144v400h-824v140h968z" />
    <glyph glyph-name="registered" unicode="&#xae;" horiz-adv-x="960" 
d="M482 672q-171 0 -286.5 114.5t-115.5 285.5q0 168 116 282t286 114t284 -113.5t114 -282.5q0 -172 -113.5 -286t-284.5 -114zM482 734q143 0 238.5 96.5t95.5 241.5q0 144 -95.5 239t-238.5 95q-144 0 -240 -95.5t-96 -238.5q0 -146 95.5 -242t240.5 -96zM396 852h-68
v446h168q74 0 117 -35.5t43 -98.5q0 -46 -24 -79.5t-68 -48.5l100 -184h-76l-88 168h-104v-168zM584 1160q0 74 -90 74h-98v-152h98q42 0 66 20.5t24 57.5z" />
    <glyph glyph-name="macron" unicode="&#xaf;" horiz-adv-x="700" 
d="M592 1790v-136h-484v136h484z" />
    <glyph glyph-name="degree" unicode="&#xb0;" horiz-adv-x="528" 
d="M264 1000q-105 0 -176.5 71.5t-71.5 176.5t71.5 176.5t176.5 71.5t176.5 -71.5t71.5 -176.5t-71.5 -176.5t-176.5 -71.5zM264 1128q51 0 83.5 33t32.5 87t-32.5 87t-83.5 33t-83.5 -33t-32.5 -87t32.5 -87t83.5 -33z" />
    <glyph glyph-name="plusminus" unicode="&#xb1;" horiz-adv-x="1348" 
d="M744 690v-396h-140v396h-456v140h456v396h140v-396h456v-140h-456zM1200 140v-140h-1052v140h1052z" />
    <glyph glyph-name="uni00B2" unicode="&#xb2;" horiz-adv-x="770" 
d="M670 687v-109h-568v89l261 230q110 98 145 152t35 127q0 74 -41 115t-115 41q-83 0 -130 -60t-43 -160h-114q-4 147 76 238.5t213 91.5q117 0 192 -74t75 -189q0 -97 -48.5 -176t-174.5 -190l-141 -126h378z" />
    <glyph glyph-name="uni00B3" unicode="&#xb3;" horiz-adv-x="783" 
d="M383 570q-137 0 -214.5 85.5t-67.5 224.5h114q-10 -94 35 -147t133 -53q86 0 136 48t50 131q0 78 -55 120.5t-157 42.5h-80v81l205 222h-359v109h530v-86l-207 -226q108 -17 172.5 -88.5t64.5 -176.5q0 -127 -83.5 -207t-216.5 -80z" />
    <glyph glyph-name="acute" unicode="&#xb4;" horiz-adv-x="442" 
d="M376 1794l-164 -264h-142l134 264h172z" />
    <glyph glyph-name="uni00B5" unicode="&#xb5;" horiz-adv-x="1092" 
d="M264 50v-456h-144v1420h146v-596q0 -306 250 -306q143 0 221.5 94t78.5 268v538h144v-1012h-124l-12 124q-54 -69 -142 -108.5t-188 -39.5q-134 0 -230 74z" />
    <glyph glyph-name="paragraph" unicode="&#xb6;" horiz-adv-x="1138" 
d="M684 1472v-1588h-144v730h-94q-177 0 -288.5 121t-111.5 311q0 188 111.5 307t288.5 119h238zM936 1472v-1592h-144v1592h144z" />
    <glyph glyph-name="periodcentered" unicode="&#xb7;" horiz-adv-x="544" 
d="M272 340q-75 0 -128.5 52.5t-53.5 127.5t53.5 128.5t128.5 53.5t128.5 -53.5t53.5 -128.5t-53.5 -127.5t-128.5 -52.5z" />
    <glyph glyph-name="cedilla" unicode="&#xb8;" horiz-adv-x="458" 
d="M206 -340q-86 0 -140 38v138q63 -54 130 -54q28 0 45 10.5t17 27.5q0 38 -52 38q-24 0 -41 -5.5t-73 -30.5l-28 80l94 202h88v-86l-22 -44h12q68 0 111 -42t43 -108q0 -73 -51.5 -118.5t-132.5 -45.5z" />
    <glyph glyph-name="uni00B9" unicode="&#xb9;" horiz-adv-x="538" 
d="M438 1433v-855h-113v707l-169 -116l-56 99l245 165h93z" />
    <glyph glyph-name="ordmasculine" unicode="&#xba;" horiz-adv-x="982" 
d="M491 572q-175 0 -282 118.5t-109 314.5q2 191 109.5 308t281.5 117t281.5 -117t109.5 -308q-2 -196 -109 -314.5t-282 -118.5zM491 691q121 0 193.5 84.5t72.5 225.5t-72.5 225.5t-193.5 84.5t-193.5 -84.5t-72.5 -225.5t72.5 -225.5t193.5 -84.5z" />
    <glyph glyph-name="guillemotright" unicode="&#xbb;" horiz-adv-x="1078" 
d="M632 506l-444 -506h-166l444 506l-444 506h166zM1032 506l-444 -506h-166l444 506l-444 506h166z" />
    <glyph glyph-name="questiondown" unicode="&#xbf;" horiz-adv-x="1022" 
d="M552 1226q-54 0 -94 40.5t-40 95.5t40 95.5t94 40.5q57 0 97.5 -40t40.5 -96t-40.5 -96t-97.5 -40zM510 -26q-197 0 -325.5 127.5t-128.5 322.5q0 62 16.5 117.5t39 94.5t62 80.5t68 65.5t74.5 58q94 69 134 120t40 120v82h142v-82q0 -59 -17.5 -109t-54.5 -94t-69 -73
t-85 -70q-42 -32 -65 -51t-54 -50.5t-47 -59.5t-28 -66.5t-12 -82.5q0 -133 88 -220.5t222 -87.5q137 0 230.5 99.5t81.5 234.5h144q6 -96 -28 -184t-95.5 -152t-149 -102t-183.5 -38z" />
    <glyph glyph-name="Agrave" unicode="&#xc0;" horiz-adv-x="1270" 
d="M653 1796l130 -266h-142l-158 266h170zM332 454l-170 -454h-150l554 1472h140l554 -1472h-150l-170 454h-608zM892 588l-256 680l-256 -680h512z" />
    <glyph glyph-name="Aacute" unicode="&#xc1;" horiz-adv-x="1270" 
d="M805 1794l-164 -264h-142l134 264h172zM332 454l-170 -454h-150l554 1472h140l554 -1472h-150l-170 454h-608zM892 588l-256 680l-256 -680h512z" />
    <glyph glyph-name="Acircumflex" unicode="&#xc2;" horiz-adv-x="1270" 
d="M621 1680l-100 -150h-162l174 266h174l174 -266h-162zM332 454l-170 -454h-150l554 1472h140l554 -1472h-150l-170 454h-608zM892 588l-256 680l-256 -680h512z" />
    <glyph glyph-name="Atilde" unicode="&#xc3;" horiz-adv-x="1270" 
d="M482 1570h-132q-9 107 33 171.5t123 64.5q64 0 142 -64q53 -40 84 -40q24 0 32.5 22t7.5 82h132q6 -112 -38.5 -174t-131.5 -62q-31 0 -63.5 13t-46.5 23t-42 32q-43 36 -64 36q-39 0 -36 -104zM332 454l-170 -454h-150l554 1472h140l554 -1472h-150l-170 454h-608z
M892 588l-256 680l-256 -680h512z" />
    <glyph glyph-name="Adieresis" unicode="&#xc4;" horiz-adv-x="1270" 
d="M501 1576q-45 0 -77.5 32t-32.5 76q0 47 32 79.5t78 32.5q44 0 77 -33.5t33 -78.5t-32.5 -76.5t-77.5 -31.5zM765 1576q-45 0 -77.5 32t-32.5 76q0 47 32 79.5t78 32.5q44 0 77 -33.5t33 -78.5t-32.5 -76.5t-77.5 -31.5zM332 454l-170 -454h-150l554 1472h140l554 -1472
h-150l-170 454h-608zM892 588l-256 680l-256 -680h512z" />
    <glyph glyph-name="Aring" unicode="&#xc5;" horiz-adv-x="1270" 
d="M643 1532q-99 0 -161.5 63.5t-62.5 162.5q0 94 64.5 159t159.5 65t159.5 -65t64.5 -159q0 -96 -64 -161t-160 -65zM643 1662q39 0 63.5 26.5t24.5 69.5q0 42 -25 69t-63 27t-63 -27t-25 -69q0 -43 24.5 -69.5t63.5 -26.5zM332 454l-170 -454h-150l554 1472h140l554 -1472
h-150l-170 454h-608zM892 588l-256 680l-256 -680h512z" />
    <glyph glyph-name="AE" unicode="&#xc6;" horiz-adv-x="1667" 
d="M1493 670h-710v-528h778v-140h-926v452h-303l-170 -454h-150l554 1472h69v2h924v-140h-776v-524h710v-140zM635 588v678l-255 -678h255z" />
    <glyph glyph-name="Ccedilla" unicode="&#xc7;" horiz-adv-x="1456" 
d="M1238 458h158q-40 -199 -200 -330t-379 -148l-20 -40h12q68 0 111 -42t43 -108q0 -73 -51.5 -118.5t-132.5 -45.5q-86 0 -140 38v138q63 -54 130 -54q28 0 45 10.5t17 27.5q0 38 -52 38q-24 0 -41 -5.5t-73 -30.5l-28 80l53 113q-276 25 -446 233t-170 522
q0 221 87.5 394.5t245 269.5t359.5 96q236 0 409 -139.5t213 -362.5h-158q-42 165 -168.5 261.5t-301.5 96.5q-240 0 -388 -170t-148 -446q0 -274 148.5 -444t387.5 -170q174 0 304.5 91.5t173.5 244.5z" />
    <glyph glyph-name="Egrave" unicode="&#xc8;" horiz-adv-x="1194" 
d="M662 1796l130 -266h-142l-158 266h170zM1088 140v-140h-926v1472h924v-140h-776v-524h710v-140h-710v-528h778z" />
    <glyph glyph-name="Eacute" unicode="&#xc9;" horiz-adv-x="1194" 
d="M857 1794l-164 -264h-142l134 264h172zM1088 140v-140h-926v1472h924v-140h-776v-524h710v-140h-710v-528h778z" />
    <glyph glyph-name="Ecircumflex" unicode="&#xca;" horiz-adv-x="1194" 
d="M648 1680l-100 -150h-162l174 266h174l174 -266h-162zM1088 140v-140h-926v1472h924v-140h-776v-524h710v-140h-710v-528h778z" />
    <glyph glyph-name="Edieresis" unicode="&#xcb;" horiz-adv-x="1194" 
d="M523 1576q-45 0 -77.5 32t-32.5 76q0 47 32 79.5t78 32.5q44 0 77 -33.5t33 -78.5t-32.5 -76.5t-77.5 -31.5zM787 1576q-45 0 -77.5 32t-32.5 76q0 47 32 79.5t78 32.5q44 0 77 -33.5t33 -78.5t-32.5 -76.5t-77.5 -31.5zM1088 140v-140h-926v1472h924v-140h-776v-524h710
v-140h-710v-528h778z" />
    <glyph glyph-name="Igrave" unicode="&#xcc;" horiz-adv-x="472" 
d="M234 1796l130 -266h-142l-158 266h170zM310 1472v-1472h-148v1472h148z" />
    <glyph glyph-name="Iacute" unicode="&#xcd;" horiz-adv-x="472" 
d="M376 1794l-164 -264h-142l134 264h172zM310 1472v-1472h-148v1472h148z" />
    <glyph glyph-name="Icircumflex" unicode="&#xce;" horiz-adv-x="472" 
d="M318 1680l-100 -150h-162l174 266h174l174 -266h-162zM310 1472v-1472h-148v1472h148z" />
    <glyph glyph-name="Idieresis" unicode="&#xcf;" horiz-adv-x="472" 
d="M220 1576q-45 0 -77.5 32t-32.5 76q0 47 32 79.5t78 32.5q44 0 77 -33.5t33 -78.5t-32.5 -76.5t-77.5 -31.5zM484 1576q-45 0 -77.5 32t-32.5 76q0 47 32 79.5t78 32.5q44 0 77 -33.5t33 -78.5t-32.5 -76.5t-77.5 -31.5zM310 1472v-1472h-148v1472h148z" />
    <glyph glyph-name="Ntilde" unicode="&#xd1;" horiz-adv-x="1404" 
d="M537 1570h-132q-9 107 33 171.5t123 64.5q64 0 142 -64q53 -40 84 -40q24 0 32.5 22t7.5 82h132q6 -112 -38.5 -174t-131.5 -62q-31 0 -63.5 13t-46.5 23t-42 32q-43 36 -64 36q-39 0 -36 -104zM302 1472l790 -1192v1192h148v-1472h-138l-792 1196v-1196h-148v1472h140z
" />
    <glyph glyph-name="Ograve" unicode="&#xd2;" horiz-adv-x="1514" 
d="M705 1796l130 -266h-142l-158 266h170zM756 -26q-202 0 -357 95.5t-240 268.5t-85 398t85 398t240 268.5t357 95.5t357 -95.5t240 -268.5t85 -398t-85 -398t-240 -268.5t-357 -95.5zM756 110q239 0 389.5 174.5t150.5 451.5q0 280 -150 453t-390 173t-389 -173t-149 -453
q0 -279 149.5 -452.5t388.5 -173.5z" />
    <glyph glyph-name="Oacute" unicode="&#xd3;" horiz-adv-x="1514" 
d="M955 1794l-164 -264h-142l134 264h172zM756 -26q-202 0 -357 95.5t-240 268.5t-85 398t85 398t240 268.5t357 95.5t357 -95.5t240 -268.5t85 -398t-85 -398t-240 -268.5t-357 -95.5zM756 110q239 0 389.5 174.5t150.5 451.5q0 280 -150 453t-390 173t-389 -173t-149 -453
q0 -279 149.5 -452.5t388.5 -173.5z" />
    <glyph glyph-name="Ocircumflex" unicode="&#xd4;" horiz-adv-x="1514" 
d="M772 1680l-100 -150h-162l174 266h174l174 -266h-162zM756 -26q-202 0 -357 95.5t-240 268.5t-85 398t85 398t240 268.5t357 95.5t357 -95.5t240 -268.5t85 -398t-85 -398t-240 -268.5t-357 -95.5zM756 110q239 0 389.5 174.5t150.5 451.5q0 280 -150 453t-390 173
t-389 -173t-149 -453q0 -279 149.5 -452.5t388.5 -173.5z" />
    <glyph glyph-name="Otilde" unicode="&#xd5;" horiz-adv-x="1514" 
d="M615 1570h-132q-9 107 33 171.5t123 64.5q64 0 142 -64q53 -40 84 -40q24 0 32.5 22t7.5 82h132q6 -112 -38.5 -174t-131.5 -62q-31 0 -63.5 13t-46.5 23t-42 32q-43 36 -64 36q-39 0 -36 -104zM756 -26q-202 0 -357 95.5t-240 268.5t-85 398t85 398t240 268.5t357 95.5
t357 -95.5t240 -268.5t85 -398t-85 -398t-240 -268.5t-357 -95.5zM756 110q239 0 389.5 174.5t150.5 451.5q0 280 -150 453t-390 173t-389 -173t-149 -453q0 -279 149.5 -452.5t388.5 -173.5z" />
    <glyph glyph-name="Odieresis" unicode="&#xd6;" horiz-adv-x="1514" 
d="M642 1549q-45 0 -77.5 32t-32.5 76q0 47 32 79.5t78 32.5q44 0 77 -33.5t33 -78.5t-32.5 -76.5t-77.5 -31.5zM906 1549q-45 0 -77.5 32t-32.5 76q0 47 32 79.5t78 32.5q44 0 77 -33.5t33 -78.5t-32.5 -76.5t-77.5 -31.5zM756 -26q-202 0 -357 95.5t-240 268.5t-85 398
t85 398t240 268.5t357 95.5t357 -95.5t240 -268.5t85 -398t-85 -398t-240 -268.5t-357 -95.5zM756 110q239 0 389.5 174.5t150.5 451.5q0 280 -150 453t-390 173t-389 -173t-149 -453q0 -279 149.5 -452.5t388.5 -173.5z" />
    <glyph glyph-name="multiply" unicode="&#xd7;" horiz-adv-x="1340" 
d="M1050 222l-380 380l-380 -380l-98 98l380 380l-378 378l98 98l378 -378l380 378l98 -98l-380 -378l380 -380z" />
    <glyph glyph-name="Oslash" unicode="&#xd8;" horiz-adv-x="1514" 
d="M1401 1486l-145 -206q182 -209 182 -544q0 -225 -85 -398t-240 -268.5t-357 -95.5q-200 0 -354 94l-70 -100h-191l139 198q-99 102 -152.5 247.5t-53.5 322.5q0 225 85 398t240 268.5t357 95.5q218 0 381 -112l70 100h194zM218 736q0 -275 147 -449l691 984
q-130 91 -300 91q-240 0 -389 -173t-149 -453zM756 110q239 0 389.5 174.5t150.5 451.5q0 252 -125 423l-687 -975q120 -74 272 -74z" />
    <glyph glyph-name="Ugrave" unicode="&#xd9;" horiz-adv-x="1370" 
d="M727 1796l130 -266h-142l-158 266h170zM688 -24q-251 0 -393.5 141.5t-142.5 390.5v964h148v-962q0 -190 99 -289t289 -99q186 0 284 99.5t98 288.5v962h148v-964q0 -249 -140.5 -390.5t-389.5 -141.5z" />
    <glyph glyph-name="Uacute" unicode="&#xda;" horiz-adv-x="1370" 
d="M862 1794l-164 -264h-142l134 264h172zM688 -24q-251 0 -393.5 141.5t-142.5 390.5v964h148v-962q0 -190 99 -289t289 -99q186 0 284 99.5t98 288.5v962h148v-964q0 -249 -140.5 -390.5t-389.5 -141.5z" />
    <glyph glyph-name="Ucircumflex" unicode="&#xdb;" horiz-adv-x="1370" 
d="M693 1680l-100 -150h-162l174 266h174l174 -266h-162zM688 -24q-251 0 -393.5 141.5t-142.5 390.5v964h148v-962q0 -190 99 -289t289 -99q186 0 284 99.5t98 288.5v962h148v-964q0 -249 -140.5 -390.5t-389.5 -141.5z" />
    <glyph glyph-name="Udieresis" unicode="&#xdc;" horiz-adv-x="1370" 
d="M555 1576q-45 0 -77.5 32t-32.5 76q0 47 32 79.5t78 32.5q44 0 77 -33.5t33 -78.5t-32.5 -76.5t-77.5 -31.5zM819 1576q-45 0 -77.5 32t-32.5 76q0 47 32 79.5t78 32.5q44 0 77 -33.5t33 -78.5t-32.5 -76.5t-77.5 -31.5zM688 -24q-251 0 -393.5 141.5t-142.5 390.5v964
h148v-962q0 -190 99 -289t289 -99q186 0 284 99.5t98 288.5v962h148v-964q0 -249 -140.5 -390.5t-389.5 -141.5z" />
    <glyph glyph-name="Yacute" unicode="&#xdd;" horiz-adv-x="1252" 
d="M787 1794l-164 -264h-142l134 264h172zM700 628v-630h-148v630l-556 842h172l458 -704l458 704h172z" />
    <glyph glyph-name="germandbls" unicode="&#xdf;" horiz-adv-x="1197" 
d="M308 1334v-1785h-146v1923h907v-115l-404 -464q207 -16 332.5 -140.5t125.5 -314.5q0 -224 -149 -359.5t-385 -127.5v140q177 -7 282.5 88.5t105.5 262.5q0 153 -107.5 237t-303.5 84h-113v105l404 466h-549z" />
    <glyph glyph-name="agrave" unicode="&#xe0;" horiz-adv-x="1036" 
d="M531 1398l130 -266h-142l-158 266h170zM432 -24q-159 0 -254.5 83t-95.5 221q0 139 99 224t285 106l176 20q96 11 130 36q-6 234 -254 234q-130 0 -198 -59.5t-60 -164.5h-144q-12 160 100.5 260t303.5 100q187 0 291.5 -98.5t104.5 -275.5v-662h-144v120
q-59 -69 -146.5 -106.5t-193.5 -37.5zM444 110q152 0 240 100t88 274v44q-95 -24 -294 -42q-124 -16 -188 -68t-64 -136q0 -83 56.5 -127.5t161.5 -44.5z" />
    <glyph glyph-name="aacute" unicode="&#xe1;" horiz-adv-x="1036" 
d="M710 1383l-164 -264h-142l134 264h172zM432 -24q-159 0 -254.5 83t-95.5 221q0 139 99 224t285 106l176 20q96 11 130 36q-6 234 -254 234q-130 0 -198 -59.5t-60 -164.5h-144q-12 160 100.5 260t303.5 100q187 0 291.5 -98.5t104.5 -275.5v-662h-144v120
q-59 -69 -146.5 -106.5t-193.5 -37.5zM444 110q152 0 240 100t88 274v44q-95 -24 -294 -42q-124 -16 -188 -68t-64 -136q0 -83 56.5 -127.5t161.5 -44.5z" />
    <glyph glyph-name="acircumflex" unicode="&#xe2;" horiz-adv-x="1036" 
d="M518 1295l-100 -150h-162l174 266h174l174 -266h-162zM432 -24q-159 0 -254.5 83t-95.5 221q0 139 99 224t285 106l176 20q96 11 130 36q-6 234 -254 234q-130 0 -198 -59.5t-60 -164.5h-144q-12 160 100.5 260t303.5 100q187 0 291.5 -98.5t104.5 -275.5v-662h-144v120
q-59 -69 -146.5 -106.5t-193.5 -37.5zM444 110q152 0 240 100t88 274v44q-95 -24 -294 -42q-124 -16 -188 -68t-64 -136q0 -83 56.5 -127.5t161.5 -44.5z" />
    <glyph glyph-name="atilde" unicode="&#xe3;" horiz-adv-x="1036" 
d="M375 1121h-132q-9 107 33 171.5t123 64.5q64 0 142 -64q53 -40 84 -40q24 0 32.5 22t7.5 82h132q6 -112 -38.5 -174t-131.5 -62q-31 0 -63.5 13t-46.5 23t-42 32q-43 36 -64 36q-39 0 -36 -104zM432 -24q-159 0 -254.5 83t-95.5 221q0 139 99 224t285 106l176 20
q96 11 130 36q-6 234 -254 234q-130 0 -198 -59.5t-60 -164.5h-144q-12 160 100.5 260t303.5 100q187 0 291.5 -98.5t104.5 -275.5v-662h-144v120q-59 -69 -146.5 -106.5t-193.5 -37.5zM444 110q152 0 240 100t88 274v44q-95 -24 -294 -42q-124 -16 -188 -68t-64 -136
q0 -83 56.5 -127.5t161.5 -44.5z" />
    <glyph glyph-name="adieresis" unicode="&#xe4;" horiz-adv-x="1036" 
d="M391 1124q-45 0 -77.5 32t-32.5 76q0 47 32 79.5t78 32.5q44 0 77 -33.5t33 -78.5t-32.5 -76.5t-77.5 -31.5zM655 1124q-45 0 -77.5 32t-32.5 76q0 47 32 79.5t78 32.5q44 0 77 -33.5t33 -78.5t-32.5 -76.5t-77.5 -31.5zM432 -24q-159 0 -254.5 83t-95.5 221
q0 139 99 224t285 106l176 20q96 11 130 36q-6 234 -254 234q-130 0 -198 -59.5t-60 -164.5h-144q-12 160 100.5 260t303.5 100q187 0 291.5 -98.5t104.5 -275.5v-662h-144v120q-59 -69 -146.5 -106.5t-193.5 -37.5zM444 110q152 0 240 100t88 274v44q-95 -24 -294 -42
q-124 -16 -188 -68t-64 -136q0 -83 56.5 -127.5t161.5 -44.5z" />
    <glyph glyph-name="aring" unicode="&#xe5;" horiz-adv-x="1036" 
d="M520 1096q-99 0 -161.5 63.5t-62.5 162.5q0 94 65 159t159 65t159 -65t65 -159q0 -96 -64 -161t-160 -65zM520 1226q39 0 63.5 26.5t24.5 69.5q0 42 -25 69t-63 27t-63 -27t-25 -69q0 -43 24.5 -69.5t63.5 -26.5zM432 -24q-159 0 -254.5 83t-95.5 221q0 139 99 224
t285 106l176 20q96 11 130 36q-6 234 -254 234q-130 0 -198 -59.5t-60 -164.5h-144q-12 160 100.5 260t303.5 100q187 0 291.5 -98.5t104.5 -275.5v-662h-144v120q-59 -69 -146.5 -106.5t-193.5 -37.5zM444 110q152 0 240 100t88 274v44q-95 -24 -294 -42q-124 -16 -188 -68
t-64 -136q0 -83 56.5 -127.5t161.5 -44.5z" />
    <glyph glyph-name="ae" unicode="&#xe6;" horiz-adv-x="1787" 
d="M1723 510v-34l-807 2v-17q12 -160 102.5 -255.5t230.5 -95.5q110 2 192.5 61.5t109.5 158.5h144q-31 -158 -155 -256t-291 -98q-205 0 -333 136v-112h-144v120q-59 -69 -146.5 -106.5t-193.5 -37.5q-159 0 -254.5 83t-95.5 221q0 139 99 224t285 106l176 20q96 11 130 36
q-6 234 -254 234q-130 0 -198 -59.5t-60 -164.5h-144q-12 160 100.5 260t303.5 100q128 0 219 -47.5t136 -136.5q63 89 158.5 136.5t215.5 47.5q214 0 344 -144.5t130 -381.5zM1249 902q-126 0 -214 -80t-110 -216l648 -2q-22 138 -109 218t-215 80zM772 484v44
q-95 -24 -294 -42q-124 -16 -188 -68t-64 -136q0 -83 56.5 -127.5t161.5 -44.5q152 0 240 100t88 274z" />
    <glyph glyph-name="ccedilla" unicode="&#xe7;" horiz-adv-x="1038" 
d="M580 -22v-8l-22 -44h12q68 0 111 -42t43 -108q0 -73 -51.5 -118.5t-132.5 -45.5q-86 0 -140 38v138q63 -54 130 -54q28 0 45 10.5t17 27.5q0 38 -52 38q-24 0 -41 -5.5t-73 -30.5l-28 80l59 127q-180 27 -286.5 167.5t-106.5 353.5q0 240 132.5 387t349.5 147
q170 0 290 -97t148 -259h-146q-22 100 -102 161t-190 61q-153 0 -246.5 -108.5t-93.5 -289.5q0 -177 90.5 -284.5t237.5 -107.5q111 0 196 59.5t112 158.5h146q-31 -149 -142 -244t-266 -108z" />
    <glyph glyph-name="egrave" unicode="&#xe8;" horiz-adv-x="1076" 
d="M555 1430l130 -266h-142l-158 266h170zM538 -24q-213 0 -342 145.5t-132 388.5q3 239 132 382.5t342 143.5q214 0 344 -144.5t130 -381.5v-34l-808 2q7 -168 98.5 -268t235.5 -100q110 2 192.5 61.5t109.5 158.5h144q-31 -158 -155 -256t-291 -98zM214 606l648 -2
q-22 138 -109 218t-215 80q-126 0 -214 -80t-110 -216z" />
    <glyph glyph-name="eacute" unicode="&#xe9;" horiz-adv-x="1076" 
d="M706 1400l-164 -264h-142l134 264h172zM538 -24q-213 0 -342 145.5t-132 388.5q3 239 132 382.5t342 143.5q214 0 344 -144.5t130 -381.5v-34l-808 2q7 -168 98.5 -268t235.5 -100q110 2 192.5 61.5t109.5 158.5h144q-31 -158 -155 -256t-291 -98zM214 606l648 -2
q-22 138 -109 218t-215 80q-126 0 -214 -80t-110 -216z" />
    <glyph glyph-name="ecircumflex" unicode="&#xea;" horiz-adv-x="1076" 
d="M532 1308l-100 -150h-162l174 266h174l174 -266h-162zM538 -24q-213 0 -342 145.5t-132 388.5q3 239 132 382.5t342 143.5q214 0 344 -144.5t130 -381.5v-34l-808 2q7 -168 98.5 -268t235.5 -100q110 2 192.5 61.5t109.5 158.5h144q-31 -158 -155 -256t-291 -98zM214 606
l648 -2q-22 138 -109 218t-215 80q-126 0 -214 -80t-110 -216z" />
    <glyph glyph-name="edieresis" unicode="&#xeb;" horiz-adv-x="1076" 
d="M406 1169q-45 0 -77.5 32t-32.5 76q0 47 32 79.5t78 32.5q44 0 77 -33.5t33 -78.5t-32.5 -76.5t-77.5 -31.5zM670 1169q-45 0 -77.5 32t-32.5 76q0 47 32 79.5t78 32.5q44 0 77 -33.5t33 -78.5t-32.5 -76.5t-77.5 -31.5zM538 -24q-213 0 -342 145.5t-132 388.5
q3 239 132 382.5t342 143.5q214 0 344 -144.5t130 -381.5v-34l-808 2q7 -168 98.5 -268t235.5 -100q110 2 192.5 61.5t109.5 158.5h144q-31 -158 -155 -256t-291 -98zM214 606l648 -2q-22 138 -109 218t-215 80q-126 0 -214 -80t-110 -216z" />
    <glyph glyph-name="igrave" unicode="&#xec;" horiz-adv-x="416" 
d="M183 1461l130 -266h-142l-158 266h170zM280 1012v-1012h-144v1012h144z" />
    <glyph glyph-name="iacute" unicode="&#xed;" horiz-adv-x="416" 
d="M376 1433l-164 -264h-142l134 264h172zM280 1012v-1012h-144v1012h144z" />
    <glyph glyph-name="icircumflex" unicode="&#xee;" horiz-adv-x="416" 
d="M205 1321l-100 -150h-162l174 266h174l174 -266h-162zM280 1012v-1012h-144v1012h144z" />
    <glyph glyph-name="idieresis" unicode="&#xef;" horiz-adv-x="416" 
d="M72 1170q-45 0 -77.5 32t-32.5 76q0 47 32 79.5t78 32.5q44 0 77 -33.5t33 -78.5t-32.5 -76.5t-77.5 -31.5zM336 1170q-45 0 -77.5 32t-32.5 76q0 47 32 79.5t78 32.5q44 0 77 -33.5t33 -78.5t-32.5 -76.5t-77.5 -31.5zM280 1012v-1012h-144v1012h144z" />
    <glyph glyph-name="ntilde" unicode="&#xf1;" horiz-adv-x="1112" 
d="M421 1164h-132q-9 107 33 171.5t123 64.5q64 0 142 -64q53 -40 84 -40q24 0 32.5 22t7.5 82h132q6 -112 -38.5 -174t-131.5 -62q-31 0 -63.5 13t-46.5 23t-42 32q-43 36 -64 36q-39 0 -36 -104zM276 522v-522h-144v1012h146v-122q57 69 139 107.5t175 38.5
q198 0 299 -108t101 -318v-610h-144v592q0 163 -61 235.5t-197 72.5q-147 0 -230.5 -100.5t-83.5 -277.5z" />
    <glyph glyph-name="ograve" unicode="&#xf2;" horiz-adv-x="1092" 
d="M564 1424l130 -266h-142l-158 266h170zM546 -24q-217 0 -348 145.5t-134 388.5q3 237 135.5 381.5t346.5 144.5t346.5 -144.5t135.5 -381.5q-3 -243 -134 -388.5t-348 -145.5zM546 110q153 0 246.5 109t93.5 287t-93.5 287t-246.5 109t-246.5 -109t-93.5 -287t93.5 -287
t246.5 -109z" />
    <glyph glyph-name="oacute" unicode="&#xf3;" horiz-adv-x="1092" 
d="M713 1423l-164 -264h-142l134 264h172zM546 -24q-217 0 -348 145.5t-134 388.5q3 237 135.5 381.5t346.5 144.5t346.5 -144.5t135.5 -381.5q-3 -243 -134 -388.5t-348 -145.5zM546 110q153 0 246.5 109t93.5 287t-93.5 287t-246.5 109t-246.5 -109t-93.5 -287t93.5 -287
t246.5 -109z" />
    <glyph glyph-name="ocircumflex" unicode="&#xf4;" horiz-adv-x="1092" 
d="M554 1310l-100 -150h-162l174 266h174l174 -266h-162zM546 -24q-217 0 -348 145.5t-134 388.5q3 237 135.5 381.5t346.5 144.5t346.5 -144.5t135.5 -381.5q-3 -243 -134 -388.5t-348 -145.5zM546 110q153 0 246.5 109t93.5 287t-93.5 287t-246.5 109t-246.5 -109
t-93.5 -287t93.5 -287t246.5 -109z" />
    <glyph glyph-name="otilde" unicode="&#xf5;" horiz-adv-x="1092" 
d="M385 1160h-132q-9 107 33 171.5t123 64.5q64 0 142 -64q53 -40 84 -40q24 0 32.5 22t7.5 82h132q6 -112 -38.5 -174t-131.5 -62q-31 0 -63.5 13t-46.5 23t-42 32q-43 36 -64 36q-39 0 -36 -104zM546 -24q-217 0 -348 145.5t-134 388.5q3 237 135.5 381.5t346.5 144.5
t346.5 -144.5t135.5 -381.5q-3 -243 -134 -388.5t-348 -145.5zM546 110q153 0 246.5 109t93.5 287t-93.5 287t-246.5 109t-246.5 -109t-93.5 -287t93.5 -287t246.5 -109z" />
    <glyph glyph-name="odieresis" unicode="&#xf6;" horiz-adv-x="1092" 
d="M425 1179q-45 0 -77.5 32t-32.5 76q0 47 32 79.5t78 32.5q44 0 77 -33.5t33 -78.5t-32.5 -76.5t-77.5 -31.5zM689 1179q-45 0 -77.5 32t-32.5 76q0 47 32 79.5t78 32.5q44 0 77 -33.5t33 -78.5t-32.5 -76.5t-77.5 -31.5zM546 -24q-217 0 -348 145.5t-134 388.5
q3 237 135.5 381.5t346.5 144.5t346.5 -144.5t135.5 -381.5q-3 -243 -134 -388.5t-348 -145.5zM546 110q153 0 246.5 109t93.5 287t-93.5 287t-246.5 109t-246.5 -109t-93.5 -287t93.5 -287t246.5 -109z" />
    <glyph glyph-name="divide" unicode="&#xf7;" horiz-adv-x="1348" 
d="M674 886q-55 0 -95.5 40t-40.5 94q0 56 40 96t96 40t96 -40t40 -96q0 -54 -40.5 -94t-95.5 -40zM1200 698v-140h-1052v140h1052zM674 98q-55 0 -95.5 40t-40.5 94q0 56 40 96t96 40t96 -40t40 -96q0 -54 -40.5 -94t-95.5 -40z" />
    <glyph glyph-name="oslash" unicode="&#xf8;" horiz-adv-x="1092" 
d="M944 1110l-104 -169q88 -69 137.5 -180t50.5 -251q-3 -243 -134 -388.5t-348 -145.5q-146 0 -258 70l-78 -126h-150l130 211q-123 143 -126 379q3 237 135.5 381.5t346.5 144.5q97 0 181 -32l65 106h152zM206 506q0 -144 63 -246l385 626q-53 16 -108 16
q-153 0 -246.5 -109t-93.5 -287zM546 110q153 0 246.5 109t93.5 287q0 206 -120 315l-405 -657q79 -54 185 -54z" />
    <glyph glyph-name="ugrave" unicode="&#xf9;" horiz-adv-x="1112" 
d="M558 1417l130 -266h-142l-158 266h170zM520 -24q-198 0 -299 108t-101 318v610h144v-592q0 -163 61 -235.5t197 -72.5q147 0 230.5 100.5t83.5 277.5v522h144v-1012h-146v122q-57 -69 -139 -107.5t-175 -38.5z" />
    <glyph glyph-name="uacute" unicode="&#xfa;" horiz-adv-x="1112" 
d="M693 1432l-164 -264h-142l134 264h172zM520 -24q-198 0 -299 108t-101 318v610h144v-592q0 -163 61 -235.5t197 -72.5q147 0 230.5 100.5t83.5 277.5v522h144v-1012h-146v122q-57 -69 -139 -107.5t-175 -38.5z" />
    <glyph glyph-name="ucircumflex" unicode="&#xfb;" horiz-adv-x="1112" 
d="M543 1313l-100 -150h-162l174 266h174l174 -266h-162zM520 -24q-198 0 -299 108t-101 318v610h144v-592q0 -163 61 -235.5t197 -72.5q147 0 230.5 100.5t83.5 277.5v522h144v-1012h-146v122q-57 -69 -139 -107.5t-175 -38.5z" />
    <glyph glyph-name="udieresis" unicode="&#xfc;" horiz-adv-x="1112" 
d="M390 1180q-45 0 -77.5 32t-32.5 76q0 47 32 79.5t78 32.5q44 0 77 -33.5t33 -78.5t-32.5 -76.5t-77.5 -31.5zM654 1180q-45 0 -77.5 32t-32.5 76q0 47 32 79.5t78 32.5q44 0 77 -33.5t33 -78.5t-32.5 -76.5t-77.5 -31.5zM520 -24q-198 0 -299 108t-101 318v610h144v-592
q0 -163 61 -235.5t197 -72.5q147 0 230.5 100.5t83.5 277.5v522h144v-1012h-146v122q-57 -69 -139 -107.5t-175 -38.5z" />
    <glyph glyph-name="yacute" unicode="&#xfd;" horiz-adv-x="928" 
d="M614 1464l-164 -264h-142l134 264h172zM196 -418q-92 0 -156 18v122q93 -12 158 -12q66 2 98.5 28t57.5 100l48 122l-400 1052h150l320 -850l306 850h148l-436 -1216q-42 -109 -114 -161.5t-180 -52.5z" />
    <glyph glyph-name="ydieresis" unicode="&#xff;" horiz-adv-x="928" 
d="M325 1237q-45 0 -77.5 32t-32.5 76q0 47 32 79.5t78 32.5q44 0 77 -33.5t33 -78.5t-32.5 -76.5t-77.5 -31.5zM589 1237q-45 0 -77.5 32t-32.5 76q0 47 32 79.5t78 32.5q44 0 77 -33.5t33 -78.5t-32.5 -76.5t-77.5 -31.5zM196 -418q-92 0 -156 18v122q93 -12 158 -12
q66 2 98.5 28t57.5 100l48 122l-400 1052h150l320 -850l306 850h148l-436 -1216q-42 -109 -114 -161.5t-180 -52.5z" />
    <glyph glyph-name="Cacute" unicode="&#x106;" horiz-adv-x="1456" 
d="M943 1794l-164 -264h-142l134 264h172zM758 -22q-150 0 -277 56t-216.5 155.5t-140 240.5t-50.5 306q0 221 87.5 394.5t245 269.5t359.5 96q236 0 409 -139.5t213 -362.5h-158q-42 165 -168.5 261.5t-301.5 96.5q-240 0 -388 -170t-148 -446q0 -274 148.5 -444
t387.5 -170q174 0 304.5 91.5t173.5 244.5h158q-29 -140 -119.5 -249.5t-226 -170t-292.5 -60.5z" />
    <glyph glyph-name="cacute" unicode="&#x107;" horiz-adv-x="1038" 
d="M705 1409l-164 -264h-142l134 264h172zM534 -24q-211 0 -340.5 145t-129.5 381q0 240 132.5 387t349.5 147q170 0 290 -97t148 -259h-146q-22 100 -102 161t-190 61q-153 0 -246.5 -108.5t-93.5 -289.5q0 -177 90.5 -284.5t237.5 -107.5q111 0 196 59.5t112 158.5h146
q-33 -160 -158 -257t-296 -97z" />
    <glyph glyph-name="Ccaron" unicode="&#x10c;" horiz-adv-x="1456" 
d="M1026 1796l-174 -266h-174l-174 266h162l100 -150l98 150h162zM758 -22q-150 0 -277 56t-216.5 155.5t-140 240.5t-50.5 306q0 221 87.5 394.5t245 269.5t359.5 96q236 0 409 -139.5t213 -362.5h-158q-42 165 -168.5 261.5t-301.5 96.5q-240 0 -388 -170t-148 -446
q0 -274 148.5 -444t387.5 -170q174 0 304.5 91.5t173.5 244.5h158q-29 -140 -119.5 -249.5t-226 -170t-292.5 -60.5z" />
    <glyph glyph-name="ccaron" unicode="&#x10d;" horiz-adv-x="1038" 
d="M803 1433l-174 -266h-174l-174 266h162l100 -150l98 150h162zM534 -24q-211 0 -340.5 145t-129.5 381q0 240 132.5 387t349.5 147q170 0 290 -97t148 -259h-146q-22 100 -102 161t-190 61q-153 0 -246.5 -108.5t-93.5 -289.5q0 -177 90.5 -284.5t237.5 -107.5
q111 0 196 59.5t112 158.5h146q-33 -160 -158 -257t-296 -97z" />
    <glyph glyph-name="Ecaron" unicode="&#x11a;" horiz-adv-x="1194" 
d="M891 1796l-174 -266h-174l-174 266h162l100 -150l98 150h162zM1088 140v-140h-926v1472h924v-140h-776v-524h710v-140h-710v-528h778z" />
    <glyph glyph-name="ecaron" unicode="&#x11b;" horiz-adv-x="1076" 
d="M788 1402l-174 -266h-174l-174 266h162l100 -150l98 150h162zM538 -24q-213 0 -342 145.5t-132 388.5q3 239 132 382.5t342 143.5q214 0 344 -144.5t130 -381.5v-34l-808 2q7 -168 98.5 -268t235.5 -100q110 2 192.5 61.5t109.5 158.5h144q-31 -158 -155 -256t-291 -98z
M214 606l648 -2q-22 138 -109 218t-215 80q-126 0 -214 -80t-110 -216z" />
    <glyph glyph-name="dotlessi" unicode="&#x131;" horiz-adv-x="416" 
d="M280 1012v-1012h-144v1012h144z" />
    <glyph glyph-name="Nacute" unicode="&#x143;" horiz-adv-x="1404" 
d="M848 1794l-164 -264h-142l134 264h172zM302 1472l790 -1192v1192h148v-1472h-138l-792 1196v-1196h-148v1472h140z" />
    <glyph glyph-name="nacute" unicode="&#x144;" horiz-adv-x="1112" 
d="M721 1460l-164 -264h-142l134 264h172zM276 522v-522h-144v1012h146v-122q57 69 139 107.5t175 38.5q198 0 299 -108t101 -318v-610h-144v592q0 163 -61 235.5t-197 72.5q-147 0 -230.5 -100.5t-83.5 -277.5z" />
    <glyph glyph-name="Ncaron" unicode="&#x147;" horiz-adv-x="1404" 
d="M940 1796l-174 -266h-174l-174 266h162l100 -150l98 150h162zM302 1472l790 -1192v1192h148v-1472h-138l-792 1196v-1196h-148v1472h140z" />
    <glyph glyph-name="ncaron" unicode="&#x148;" horiz-adv-x="1112" 
d="M826 1431l-174 -266h-174l-174 266h162l100 -150l98 150h162zM276 522v-522h-144v1012h146v-122q57 69 139 107.5t175 38.5q198 0 299 -108t101 -318v-610h-144v592q0 163 -61 235.5t-197 72.5q-147 0 -230.5 -100.5t-83.5 -277.5z" />
    <glyph glyph-name="OE" unicode="&#x152;" horiz-adv-x="2330" 
d="M2156 668h-710v-528h778v-140h-926v245q-91 -129 -230.5 -200t-311.5 -71q-202 0 -357 95.5t-240 268.5t-85 398t85 398t240 268.5t357 95.5q172 0 311.5 -71t230.5 -200v245h924v-140h-776v-524h710v-140zM756 110q239 0 389.5 174.5t150.5 451.5q0 280 -150 453
t-390 173t-389 -173t-149 -453q0 -279 149.5 -452.5t388.5 -173.5z" />
    <glyph glyph-name="oe" unicode="&#x153;" horiz-adv-x="1898" 
d="M1834 510v-34l-807 2q0 -6 -1 -9q10 -164 101 -261.5t233 -97.5q110 2 192.5 61.5t109.5 158.5h144q-31 -158 -155 -256t-291 -98q-135 0 -239 61t-164 173q-61 -112 -167 -173t-244 -61q-217 0 -348 145.5t-134 388.5q3 237 135.5 381.5t346.5 144.5q136 0 242 -61
t168 -171q60 111 164 171.5t240 60.5q214 0 344 -144.5t130 -381.5zM546 110q153 0 246.5 109t93.5 287t-93.5 287t-246.5 109t-246.5 -109t-93.5 -287t93.5 -287t246.5 -109zM1360 902q-126 0 -214 -80t-110 -216l648 -2q-22 138 -109 218t-215 80z" />
    <glyph glyph-name="Sacute" unicode="&#x15a;" horiz-adv-x="1120" 
d="M759 1794l-164 -264h-142l134 264h172zM554 -24q-220 0 -355 112t-141 300h156q-6 -120 88.5 -195t251.5 -75q160 0 253 73t93 199q0 98 -57 159t-175 91l-246 62q-168 42 -257 141.5t-89 244.5q0 184 133.5 296t354.5 112q200 0 323.5 -111.5t138.5 -304.5h-152
q-9 132 -89 204t-221 72q-156 0 -248 -73t-92 -195q0 -186 226 -242l252 -64q168 -45 257 -145t89 -245q0 -190 -134.5 -303t-359.5 -113z" />
    <glyph glyph-name="sacute" unicode="&#x15b;" horiz-adv-x="858" 
d="M585 1442l-164 -264h-142l134 264h172zM410 -24q-171 0 -269 91.5t-91 244.5h142q-8 -94 48.5 -147t165.5 -53q112 0 174 43.5t62 120.5q0 60 -33.5 93t-118.5 55l-162 42q-125 32 -192.5 104t-67.5 174q0 130 98.5 211t257.5 81q165 0 261 -89.5t93 -242.5h-142
q3 93 -52 144.5t-160 51.5q-212 0 -212 -156q0 -108 154 -144l160 -42q134 -35 197 -103t63 -179q0 -135 -104 -217.5t-272 -82.5z" />
    <glyph glyph-name="Scedilla" unicode="&#x15e;" horiz-adv-x="1120" 
d="M1048 392q0 -177 -117.5 -288t-318.5 -126l-13 -26h12q68 0 111 -42t43 -108q0 -73 -51.5 -118.5t-132.5 -45.5q-86 0 -140 38v138q63 -54 130 -54q28 0 45 10.5t17 27.5q0 38 -52 38q-24 0 -41 -5.5t-73 -30.5l-28 80l46 99q-191 17 -306.5 126.5t-120.5 282.5h156
q-6 -120 88.5 -195t251.5 -75q160 0 253 73t93 199q0 98 -57 159t-175 91l-246 62q-168 42 -257 141.5t-89 244.5q0 184 133.5 296t354.5 112q200 0 323.5 -111.5t138.5 -304.5h-152q-9 132 -89 204t-221 72q-156 0 -248 -73t-92 -195q0 -186 226 -242l252 -64
q168 -45 257 -145t89 -245z" />
    <glyph glyph-name="scedilla" unicode="&#x15f;" horiz-adv-x="858" 
d="M786 276q0 -124 -89 -204.5t-237 -93.5l-18 -36h12q68 0 111 -42t43 -108q0 -73 -51.5 -118.5t-132.5 -45.5q-86 0 -140 38v138q63 -54 130 -54q28 0 45 10.5t17 27.5q0 38 -52 38q-24 0 -41 -5.5t-73 -30.5l-28 80l52 111q-138 20 -214.5 108.5t-69.5 222.5h142
q-8 -94 48.5 -147t165.5 -53q112 0 174 43.5t62 120.5q0 60 -33.5 93t-118.5 55l-162 42q-125 32 -192.5 104t-67.5 174q0 130 98.5 211t257.5 81q165 0 261 -89.5t93 -242.5h-142q3 93 -52 144.5t-160 51.5q-212 0 -212 -156q0 -108 154 -144l160 -42q134 -35 197 -103
t63 -179z" />
    <glyph glyph-name="Scaron" unicode="&#x160;" horiz-adv-x="1120" 
d="M832 1796l-174 -266h-174l-174 266h162l100 -150l98 150h162zM554 -24q-220 0 -355 112t-141 300h156q-6 -120 88.5 -195t251.5 -75q160 0 253 73t93 199q0 98 -57 159t-175 91l-246 62q-168 42 -257 141.5t-89 244.5q0 184 133.5 296t354.5 112q200 0 323.5 -111.5
t138.5 -304.5h-152q-9 132 -89 204t-221 72q-156 0 -248 -73t-92 -195q0 -186 226 -242l252 -64q168 -45 257 -145t89 -245q0 -190 -134.5 -303t-359.5 -113z" />
    <glyph glyph-name="scaron" unicode="&#x161;" horiz-adv-x="858" 
d="M681 1447l-174 -266h-174l-174 266h162l100 -150l98 150h162zM410 -24q-171 0 -269 91.5t-91 244.5h142q-8 -94 48.5 -147t165.5 -53q112 0 174 43.5t62 120.5q0 60 -33.5 93t-118.5 55l-162 42q-125 32 -192.5 104t-67.5 174q0 130 98.5 211t257.5 81q165 0 261 -89.5
t93 -242.5h-142q3 93 -52 144.5t-160 51.5q-212 0 -212 -156q0 -108 154 -144l160 -42q134 -35 197 -103t63 -179q0 -135 -104 -217.5t-272 -82.5z" />
    <glyph glyph-name="Uring" unicode="&#x16e;" horiz-adv-x="1370" 
d="M681 1532q-99 0 -161.5 63.5t-62.5 162.5q0 94 64.5 159t159.5 65t159.5 -65t64.5 -159q0 -96 -64 -161t-160 -65zM681 1662q39 0 63.5 26.5t24.5 69.5q0 42 -25 69t-63 27t-63 -27t-25 -69q0 -43 24.5 -69.5t63.5 -26.5zM688 -24q-251 0 -393.5 141.5t-142.5 390.5v964
h148v-962q0 -190 99 -289t289 -99q186 0 284 99.5t98 288.5v962h148v-964q0 -249 -140.5 -390.5t-389.5 -141.5z" />
    <glyph glyph-name="uring" unicode="&#x16f;" horiz-adv-x="1112" 
d="M531 1157q-99 0 -161.5 63.5t-62.5 162.5q0 95 64.5 159.5t159.5 64.5t159.5 -64.5t64.5 -159.5q0 -96 -64 -161t-160 -65zM531 1287q39 0 63.5 26.5t24.5 69.5q0 42 -25 69t-63 27t-63 -27t-25 -69q0 -43 24.5 -69.5t63.5 -26.5zM520 -24q-198 0 -299 108t-101 318v610
h144v-592q0 -163 61 -235.5t197 -72.5q147 0 230.5 100.5t83.5 277.5v522h144v-1012h-146v122q-57 -69 -139 -107.5t-175 -38.5z" />
    <glyph glyph-name="Wcircumflex" unicode="&#x174;" horiz-adv-x="1946" 
d="M971 1680l-100 -150h-162l174 266h174l174 -266h-162zM1426 270l356 1202h150l-440 -1472h-124l-396 1218l-394 -1218h-128l-436 1472h152l352 -1204l388 1204h132z" />
    <glyph glyph-name="wcircumflex" unicode="&#x175;" horiz-adv-x="1472" 
d="M723 1325l-100 -150h-162l174 266h174l174 -266h-162zM1056 246l256 766h148l-340 -1012h-130l-254 766l-256 -766h-130l-338 1012h148l256 -768l254 768h130z" />
    <glyph glyph-name="Ycircumflex" unicode="&#x176;" horiz-adv-x="1252" 
d="M615 1680l-100 -150h-162l174 266h174l174 -266h-162zM700 628v-630h-148v630l-556 842h172l458 -704l458 704h172z" />
    <glyph glyph-name="ycircumflex" unicode="&#x177;" horiz-adv-x="928" 
d="M457 1356l-100 -150h-162l174 266h174l174 -266h-162zM196 -418q-92 0 -156 18v122q93 -12 158 -12q66 2 98.5 28t57.5 100l48 122l-400 1052h150l320 -850l306 850h148l-436 -1216q-42 -109 -114 -161.5t-180 -52.5z" />
    <glyph glyph-name="Ydieresis" unicode="&#x178;" horiz-adv-x="1252" 
d="M486 1576q-45 0 -77.5 32t-32.5 76q0 47 32 79.5t78 32.5q44 0 77 -33.5t33 -78.5t-32.5 -76.5t-77.5 -31.5zM750 1576q-45 0 -77.5 32t-32.5 76q0 47 32 79.5t78 32.5q44 0 77 -33.5t33 -78.5t-32.5 -76.5t-77.5 -31.5zM700 628v-630h-148v630l-556 842h172l458 -704
l458 704h172z" />
    <glyph glyph-name="Zacute" unicode="&#x179;" horiz-adv-x="1170" 
d="M752 1794l-164 -264h-142l134 264h172zM1094 140v-140h-1024v120l844 1212h-840v140h1030v-120l-844 -1212h834z" />
    <glyph glyph-name="zacute" unicode="&#x17a;" horiz-adv-x="884" 
d="M610 1461l-164 -264h-142l134 264h172zM818 132v-132h-752v106l564 774h-564v132h752v-108l-562 -772h562z" />
    <glyph glyph-name="Zcaron" unicode="&#x17d;" horiz-adv-x="1170" 
d="M841 1796l-174 -266h-174l-174 266h162l100 -150l98 150h162zM1094 140v-140h-1024v120l844 1212h-840v140h1030v-120l-844 -1212h834z" />
    <glyph glyph-name="zcaron" unicode="&#x17e;" horiz-adv-x="884" 
d="M694 1470l-174 -266h-174l-174 266h162l100 -150l98 150h162zM818 132v-132h-752v106l564 774h-564v132h752v-108l-562 -772h562z" />
    <glyph glyph-name="florin" unicode="&#x192;" horiz-adv-x="1086" 
d="M298 -204h-226v140h226q29 0 49.5 18.5t24.5 49.5l106 708h-340v140h358l62 416q15 99 74 151.5t158 52.5h188v-140h-202q-65 0 -74 -68l-62 -412h340v-140h-358l-106 -712q-14 -93 -72.5 -148.5t-145.5 -55.5z" />
    <glyph glyph-name="circumflex" unicode="&#x2c6;" horiz-adv-x="634" 
d="M318 1680l-100 -150h-162l174 266h174l174 -266h-162z" />
    <glyph glyph-name="caron" unicode="&#x2c7;" horiz-adv-x="634" 
d="M578 1796l-174 -266h-174l-174 266h162l100 -150l98 150h162z" />
    <glyph glyph-name="breve" unicode="&#x2d8;" horiz-adv-x="656" 
d="M328 1524q-118 0 -184 74.5t-58 197.5h136q-12 -136 106 -136t106 136h136q8 -123 -58 -197.5t-184 -74.5z" />
    <glyph glyph-name="dotaccent" unicode="&#x2d9;" horiz-adv-x="392" 
d="M196 1576q-45 0 -77.5 32t-32.5 76q0 47 32 79.5t78 32.5q44 0 77 -33.5t33 -78.5t-32.5 -76.5t-77.5 -31.5z" />
    <glyph glyph-name="ring" unicode="&#x2da;" horiz-adv-x="580" 
d="M290 1532q-99 0 -161.5 63.5t-62.5 162.5q0 94 65 159t159 65t159 -65t65 -159q0 -96 -64 -161t-160 -65zM290 1662q39 0 63.5 26.5t24.5 69.5q0 42 -25 69t-63 27t-63 -27t-25 -69q0 -43 24.5 -69.5t63.5 -26.5z" />
    <glyph glyph-name="ogonek" unicode="&#x2db;" horiz-adv-x="372" 
d="M220 -266q-66 0 -108 40t-42 104q0 51 33.5 97t94.5 77h90l10 -46q-43 -18 -68.5 -46t-25.5 -58q0 -18 8 -25t32 -7q15 0 62 14v-134q-35 -16 -86 -16z" />
    <glyph glyph-name="tilde" unicode="&#x2dc;" horiz-adv-x="716" 
d="M212 1570h-132q-9 107 33 171.5t123 64.5q64 0 142 -64q53 -40 84 -40q24 0 32.5 22t7.5 82h132q6 -112 -38.5 -174t-131.5 -62q-31 0 -63.5 13t-46.5 23t-42 32q-43 36 -64 36q-39 0 -36 -104z" />
    <glyph glyph-name="hungarumlaut" unicode="&#x2dd;" horiz-adv-x="646" 
d="M362 1794l-160 -264h-138l130 264h168zM574 1794l-206 -264h-140l164 264h182z" />
    <glyph glyph-name="gravecomb" unicode="&#x300;" 
d="M-200 1796l130 -266h-142l-158 266h170z" />
    <glyph glyph-name="acutecomb" unicode="&#x301;" 
d="M-66 1794l-164 -264h-142l134 264h172z" />
    <glyph glyph-name="uni0302" unicode="&#x302;" 
d="M-316 1680l-100 -150h-162l174 266h174l174 -266h-162z" />
    <glyph glyph-name="tildecomb" unicode="&#x303;" 
d="M-504 1570h-132q-9 107 33 171.5t123 64.5q64 0 142 -64q53 -40 84 -40q24 0 32.5 22t7.5 82h132q6 -112 -38.5 -174t-131.5 -62q-31 0 -63.5 13t-46.5 23t-42 32q-43 36 -64 36q-39 0 -36 -104z" />
    <glyph glyph-name="uni0304" unicode="&#x304;" 
d="M-108 1790v-136h-484v136h484z" />
    <glyph glyph-name="uni0306" unicode="&#x306;" 
d="M-328 1524q-118 0 -184 74.5t-58 197.5h136q-12 -136 106 -136t106 136h136q8 -123 -58 -197.5t-184 -74.5z" />
    <glyph glyph-name="uni0307" unicode="&#x307;" 
d="M-196 1576q-45 0 -77.5 32t-32.5 76q0 47 32 79.5t78 32.5q44 0 77 -33.5t33 -78.5t-32.5 -76.5t-77.5 -31.5z" />
    <glyph glyph-name="uni0308" unicode="&#x308;" 
d="M-486 1576q-45 0 -77.5 32t-32.5 76q0 47 32 79.5t78 32.5q44 0 77 -33.5t33 -78.5t-32.5 -76.5t-77.5 -31.5zM-222 1576q-45 0 -77.5 32t-32.5 76q0 47 32 79.5t78 32.5q44 0 77 -33.5t33 -78.5t-32.5 -76.5t-77.5 -31.5z" />
    <glyph glyph-name="uni030A" unicode="&#x30a;" 
d="M-290 1532q-99 0 -161.5 63.5t-62.5 162.5q0 94 65 159t159 65t159 -65t65 -159q0 -96 -64 -161t-160 -65zM-290 1662q39 0 63.5 26.5t24.5 69.5q0 42 -25 69t-63 27t-63 -27t-25 -69q0 -43 24.5 -69.5t63.5 -26.5z" />
    <glyph glyph-name="uni030B" unicode="&#x30b;" 
d="M-284 1794l-160 -264h-138l130 264h168zM-72 1794l-206 -264h-140l164 264h182z" />
    <glyph glyph-name="uni030C" unicode="&#x30c;" 
d="M-56 1796l-174 -266h-174l-174 266h162l100 -150l98 150h162z" />
    <glyph glyph-name="uni0312" unicode="&#x312;" 
d="M-178 1502q-54 0 -85 37.5t-31 100.5q0 91 59.5 152.5t138.5 51.5v-104q-21 6 -41.5 -1t-30.5 -23q41 -5 68.5 -33.5t27.5 -68.5q0 -47 -30.5 -79.5t-75.5 -32.5z" />
    <glyph glyph-name="uni0326" unicode="&#x326;" 
d="M-278 -324v104q21 -6 41.5 1t30.5 23q-41 5 -68.5 33.5t-27.5 68.5q0 47 30.5 79.5t75.5 32.5q54 0 85 -37.5t31 -100.5q0 -91 -59.5 -152.5t-138.5 -51.5z" />
    <glyph glyph-name="uni0327" unicode="&#x327;" 
d="M-252 -340q-86 0 -140 38v138q63 -54 130 -54q28 0 45 10.5t17 27.5q0 38 -52 38q-24 0 -41 -5.5t-73 -30.5l-28 80l94 202h88v-86l-22 -44h12q68 0 111 -42t43 -108q0 -73 -51.5 -118.5t-132.5 -45.5z" />
    <glyph glyph-name="uni0335" unicode="&#x335;" 
d="M-242 1236v-128h-586v128h586z" />
    <glyph glyph-name="uni0337" unicode="&#x337;" 
d="M-26 968v-142l-406 -196v142z" />
    <glyph glyph-name="uni0338" unicode="&#x338;" 
d="M-60 1110l-734 -1190h-150l732 1190h152z" />
    <glyph glyph-name="Wgrave" unicode="&#x1e80;" horiz-adv-x="1946" 
d="M985 1796l130 -266h-142l-158 266h170zM1426 270l356 1202h150l-440 -1472h-124l-396 1218l-394 -1218h-128l-436 1472h152l352 -1204l388 1204h132z" />
    <glyph glyph-name="wgrave" unicode="&#x1e81;" horiz-adv-x="1472" 
d="M760 1464l130 -266h-142l-158 266h170zM1056 246l256 766h148l-340 -1012h-130l-254 766l-256 -766h-130l-338 1012h148l256 -768l254 768h130z" />
    <glyph glyph-name="Wacute" unicode="&#x1e82;" horiz-adv-x="1946" 
d="M1129 1794l-164 -264h-142l134 264h172zM1426 270l356 1202h150l-440 -1472h-124l-396 1218l-394 -1218h-128l-436 1472h152l352 -1204l388 1204h132z" />
    <glyph glyph-name="wacute" unicode="&#x1e83;" horiz-adv-x="1472" 
d="M893 1464l-164 -264h-142l134 264h172zM1056 246l256 766h148l-340 -1012h-130l-254 766l-256 -766h-130l-338 1012h148l256 -768l254 768h130z" />
    <glyph glyph-name="Wdieresis" unicode="&#x1e84;" horiz-adv-x="1946" 
d="M835 1576q-45 0 -77.5 32t-32.5 76q0 47 32 79.5t78 32.5q44 0 77 -33.5t33 -78.5t-32.5 -76.5t-77.5 -31.5zM1099 1576q-45 0 -77.5 32t-32.5 76q0 47 32 79.5t78 32.5q44 0 77 -33.5t33 -78.5t-32.5 -76.5t-77.5 -31.5zM1426 270l356 1202h150l-440 -1472h-124
l-396 1218l-394 -1218h-128l-436 1472h152l352 -1204l388 1204h132z" />
    <glyph glyph-name="wdieresis" unicode="&#x1e85;" horiz-adv-x="1472" 
d="M605 1213q-45 0 -77.5 32t-32.5 76q0 47 32 79.5t78 32.5q44 0 77 -33.5t33 -78.5t-32.5 -76.5t-77.5 -31.5zM869 1213q-45 0 -77.5 32t-32.5 76q0 47 32 79.5t78 32.5q44 0 77 -33.5t33 -78.5t-32.5 -76.5t-77.5 -31.5zM1056 246l256 766h148l-340 -1012h-130l-254 766
l-256 -766h-130l-338 1012h148l256 -768l254 768h130z" />
    <glyph glyph-name="Ygrave" unicode="&#x1ef2;" horiz-adv-x="1252" 
d="M646 1796l130 -266h-142l-158 266h170zM700 628v-630h-148v630l-556 842h172l458 -704l458 704h172z" />
    <glyph glyph-name="ygrave" unicode="&#x1ef3;" horiz-adv-x="928" 
d="M466 1481l130 -266h-142l-158 266h170zM196 -418q-92 0 -156 18v122q93 -12 158 -12q66 2 98.5 28t57.5 100l48 122l-400 1052h150l320 -850l306 850h148l-436 -1216q-42 -109 -114 -161.5t-180 -52.5z" />
    <glyph glyph-name="endash" unicode="&#x2013;" horiz-adv-x="1844" 
d="M1724 616v-136h-1604v136h1604z" />
    <glyph glyph-name="emdash" unicode="&#x2014;" horiz-adv-x="2246" 
d="M2126 616v-136h-2006v136h2006z" />
    <glyph glyph-name="quoteleft" unicode="&#x2018;" horiz-adv-x="492" 
d="M252 1088q-61 0 -101.5 47.5t-40.5 116.5q0 96 72.5 170.5t171.5 77.5v-116q-64 0 -96 -48h12q48 0 80 -34.5t32 -85.5q0 -57 -36.5 -92.5t-93.5 -35.5z" />
    <glyph glyph-name="quoteright" unicode="&#x2019;" horiz-adv-x="492" 
d="M138 1086v116q64 0 96 48h-12q-48 0 -80 34.5t-32 85.5q0 57 36.5 92.5t93.5 35.5q61 0 101.5 -47.5t40.5 -116.5q0 -96 -72.5 -170.5t-171.5 -77.5z" />
    <glyph glyph-name="quotesinglbase" unicode="&#x201a;" horiz-adv-x="492" 
d="M138 -164v116q64 0 96 48h-12q-48 0 -80 34.5t-32 85.5q0 57 36.5 92.5t93.5 35.5q61 0 101.5 -47.5t40.5 -116.5q0 -96 -72.5 -170.5t-171.5 -77.5z" />
    <glyph glyph-name="quotedblleft" unicode="&#x201c;" horiz-adv-x="784" 
d="M252 1088q-61 0 -101.5 47.5t-40.5 116.5q0 96 72.5 170.5t171.5 77.5v-116q-64 0 -96 -48h12q48 0 80 -34.5t32 -85.5q0 -57 -36.5 -92.5t-93.5 -35.5zM544 1088q-61 0 -101.5 47.5t-40.5 116.5q0 96 72.5 170.5t171.5 77.5v-116q-64 0 -96 -48h12q48 0 80 -34.5
t32 -85.5q0 -57 -36.5 -92.5t-93.5 -35.5z" />
    <glyph glyph-name="quotedblright" unicode="&#x201d;" horiz-adv-x="784" 
d="M138 1086v116q64 0 96 48h-12q-48 0 -80 34.5t-32 85.5q0 57 36.5 92.5t93.5 35.5q61 0 101.5 -47.5t40.5 -116.5q0 -96 -72.5 -170.5t-171.5 -77.5zM430 1086v116q64 0 96 48h-12q-48 0 -80 34.5t-32 85.5q0 57 36.5 92.5t93.5 35.5q61 0 101.5 -47.5t40.5 -116.5
q0 -96 -72.5 -170.5t-171.5 -77.5z" />
    <glyph glyph-name="quotedblbase" unicode="&#x201e;" horiz-adv-x="784" 
d="M138 -164v116q64 0 96 48h-12q-48 0 -80 34.5t-32 85.5q0 57 36.5 92.5t93.5 35.5q61 0 101.5 -47.5t40.5 -116.5q0 -96 -72.5 -170.5t-171.5 -77.5zM430 -164v116q64 0 96 48h-12q-48 0 -80 34.5t-32 85.5q0 57 36.5 92.5t93.5 35.5q61 0 101.5 -47.5t40.5 -116.5
q0 -96 -72.5 -170.5t-171.5 -77.5z" />
    <glyph glyph-name="dagger" unicode="&#x2020;" horiz-adv-x="588" 
d="M360 1144v-616h-132v616h-190v128h190v200h132v-200h190v-128h-190z" />
    <glyph glyph-name="daggerdbl" unicode="&#x2021;" horiz-adv-x="590" 
d="M360 788v-260h-132v260h-188v128h188v168h-190v128h190v260h132v-260h190v-128h-190v-168h192v-128h-192z" />
    <glyph glyph-name="bullet" unicode="&#x2022;" horiz-adv-x="746" 
d="M374 266q-116 0 -200 83t-84 197q0 117 83.5 199.5t200.5 82.5q114 0 198 -84t84 -198q0 -115 -83 -197.5t-199 -82.5z" />
    <glyph glyph-name="ellipsis" unicode="&#x2026;" horiz-adv-x="1322" 
d="M260 -22q-55 0 -95.5 40t-40.5 94q0 56 40 96t96 40t96 -40t40 -96q0 -54 -40.5 -94t-95.5 -40zM660 -22q-55 0 -95.5 40t-40.5 94q0 56 40 96t96 40t96 -40t40 -96q0 -54 -40.5 -94t-95.5 -40zM1060 -22q-55 0 -95.5 40t-40.5 94q0 56 40 96t96 40t96 -40t40 -96
q0 -54 -40.5 -94t-95.5 -40z" />
    <glyph glyph-name="perthousand" unicode="&#x2030;" horiz-adv-x="2520" 
d="M448 762q-157 0 -260.5 104.5t-103.5 263.5t103.5 263.5t260.5 104.5t260.5 -104.5t103.5 -263.5t-103.5 -263.5t-260.5 -104.5zM1532 1472l-1120 -1472h-166l1118 1472h168zM448 898q98 0 161 65t63 167q0 103 -62.5 167.5t-161.5 64.5t-161.5 -64.5t-62.5 -167.5
q0 -102 63 -167t161 -65zM1332 -26q-157 0 -260.5 104.5t-103.5 263.5t103.5 263.5t260.5 104.5t260.5 -104.5t103.5 -263.5t-103.5 -263.5t-260.5 -104.5zM2072 -26q-157 0 -260.5 104.5t-103.5 263.5t103.5 263.5t260.5 104.5t260.5 -104.5t103.5 -263.5t-103.5 -263.5
t-260.5 -104.5zM1332 110q98 0 161 65t63 167q0 103 -62.5 167.5t-161.5 64.5t-161.5 -64.5t-62.5 -167.5q0 -102 63 -167t161 -65zM2072 110q98 0 161 65t63 167q0 103 -62.5 167.5t-161.5 64.5t-161.5 -64.5t-62.5 -167.5q0 -102 63 -167t161 -65z" />
    <glyph glyph-name="minute" unicode="&#x2032;" horiz-adv-x="356" 
d="M270 1392l-32 -378h-120l-34 378q-3 44 24 75t70 31t69 -30.5t23 -75.5z" />
    <glyph glyph-name="guilsinglleft" unicode="&#x2039;" horiz-adv-x="726" 
d="M230 506l444 -506h-166l-444 506l444 506h166z" />
    <glyph glyph-name="guilsinglright" unicode="&#x203a;" horiz-adv-x="726" 
d="M662 506l-444 -506h-166l444 506l-444 506h166z" />
    <glyph glyph-name="fraction" unicode="&#x2044;" horiz-adv-x="246" 
d="M672 1472l-940 -1472h-158l938 1472h160z" />
    <glyph glyph-name="Euro" unicode="&#x20ac;" horiz-adv-x="1342" 
d="M944 -24q-278 0 -478 152t-260 408h-168v136h150q-4 44 -4 64q0 26 4 74h-150v136h170q61 253 260 400.5t478 147.5q87 0 170.5 -14t131.5 -36v-148q-45 24 -133.5 40t-172.5 16q-216 0 -369.5 -107.5t-210.5 -298.5h630v-136h-656q-4 -44 -4 -74q0 -20 4 -64h656v-136
h-634q57 -197 212.5 -307.5t377.5 -110.5q81 0 164 16t136 42v-152q-141 -48 -304 -48z" />
    <glyph glyph-name="uni2116" unicode="&#x2116;" horiz-adv-x="2458" 
d="M1872 502q-136 0 -251 67.5t-182 183.5t-67 253q0 207 145 349.5t355 142.5q212 0 356 -142t144 -350q0 -104 -39 -197.5t-105.5 -160.5t-159.5 -106.5t-196 -39.5zM302 1472l790 -1192v1192h148v-1472h-138l-792 1196v-1196h-148v1472h140zM1872 1358
q-151 0 -252.5 -101t-101.5 -251q0 -153 102.5 -258.5t251.5 -105.5q153 0 253.5 103.5t100.5 260.5q0 152 -100.5 252t-253.5 100zM2312 394v-140h-880v140h880z" />
    <glyph glyph-name="trademark" unicode="&#x2122;" horiz-adv-x="1272" 
d="M240 1368h-188v74h456v-74h-188v-482h-80v482zM656 886h-76v556h76l212 -472l208 472h76v-556h-76v390l-172 -390h-74l-174 384v-384z" />
    <glyph glyph-name="estimated" unicode="&#x212e;" horiz-adv-x="1586" 
d="M814 -18q-208 0 -368.5 94t-249 264.5t-88.5 391.5q0 213 87 382t244 263.5t355 94.5q309 0 496.5 -187.5t187.5 -496.5q0 -100 -4 -132h-1114v-326q78 -105 196 -160.5t262 -55.5q150 0 278 75t188 199l122 -46q-75 -168 -232.5 -264t-359.5 -96zM360 1110v-330h866v366
q-72 93 -185 143.5t-247 50.5q-132 0 -246.5 -60.5t-187.5 -169.5z" />
    <glyph glyph-name="arrowleft" unicode="&#x2190;" horiz-adv-x="1772" 
d="M354 440l448 -450l-98 -98l-620 618l620 618l98 -98l-448 -450h1324v-140h-1324z" />
    <glyph glyph-name="arrowup" unicode="&#x2191;" horiz-adv-x="1424" 
d="M782 1212v-1212h-140v1212l-458 -442l-100 100l628 612l628 -612l-100 -100z" />
    <glyph glyph-name="arrowright" unicode="&#x2192;" horiz-adv-x="1772" 
d="M1068 1226l620 -618l-620 -618l-98 98l448 450h-1324v140h1324l-448 450z" />
    <glyph glyph-name="arrowdown" unicode="&#x2193;" horiz-adv-x="1404" 
d="M1222 510l98 -98l-618 -620l-618 620l98 98l450 -448v1410h140v-1410z" />
    <glyph glyph-name="arrowboth" unicode="&#x2194;" horiz-adv-x="2044" 
d="M364 452l170 -178v-206l-450 456l446 454v-208l-166 -174l362 2v2l954 -2l-166 174v206l446 -452l-444 -456v210l162 174l-946 -2v2z" />
    <glyph glyph-name="arrowupdn" unicode="&#x2195;" horiz-adv-x="1024" 
d="M756 128h210l-456 -448l-452 448h204l176 -166l-2 390v530l2 394l-176 -164h-204l452 444l456 -444h-210l-174 164v-1314z" />
    <glyph glyph-name="uni2196" unicode="&#x2196;" horiz-adv-x="1660" 
d="M334 1330l1242 -1242l-98 -98l-1242 1242l-2 -636h-140v876h876v-140z" />
    <glyph glyph-name="uni2197" unicode="&#x2197;" horiz-adv-x="1660" 
d="M1424 596v636l-1242 -1242l-98 98l1242 1242h-636v142h876v-876h-142z" />
    <glyph glyph-name="uni2198" unicode="&#x2198;" horiz-adv-x="1656" 
d="M1562 880v-876h-876v140l636 2l-1238 1238l98 98l1238 -1238l2 636h140z" />
    <glyph glyph-name="uni2199" unicode="&#x2199;" horiz-adv-x="1662" 
d="M970 138v-140h-876v876h142v-636l1244 1244l98 -98l-1244 -1244z" />
    <glyph glyph-name="partialdiff" unicode="&#x2202;" horiz-adv-x="1240" 
d="M408 1496h198q283 -226 407.5 -446.5t124.5 -493.5q0 -258 -146 -419t-380 -161q-144 0 -261 69t-183 190.5t-66 270.5q0 143 69.5 264t188.5 191.5t260 70.5q168 0 300 -104q-68 142 -180 262t-332 306zM616 112q165 0 270.5 112.5t105.5 289.5q0 168 -102.5 274
t-261.5 106q-167 0 -273.5 -109.5t-106.5 -280.5q0 -173 103 -282.5t265 -109.5z" />
    <glyph glyph-name="emptyset" unicode="&#x2205;" horiz-adv-x="1620" 
d="M808 -24q-305 0 -504 208l-174 -160l-92 94l182 166q-128 198 -128 452q0 216 92 390t256 272t368 98q307 0 506 -208l176 162l92 -96l-184 -168q128 -198 128 -450q0 -216 -92.5 -390t-257 -272t-368.5 -98zM332 390l874 798q-161 164 -398 164q-121 0 -226 -46.5
t-179.5 -127.5t-117.5 -195.5t-43 -246.5q0 -199 90 -346zM808 120q163 0 293 79t202.5 219.5t72.5 317.5q0 200 -90 344l-874 -796q161 -164 396 -164z" />
    <glyph glyph-name="summation" unicode="&#x2211;" horiz-adv-x="1076" 
d="M1004 140v-140h-964v138l444 594l-444 602v138h964v-140h-788l448 -604l-444 -588h784z" />
    <glyph glyph-name="minus" unicode="&#x2212;" horiz-adv-x="1348" 
d="M1200 770v-140h-1052v140h1052z" />
    <glyph glyph-name="radical" unicode="&#x221a;" horiz-adv-x="1382" 
d="M1032 1332l-510 -1332h-124l-414 1010h154l322 -800l472 1262h390v-140h-290z" />
    <glyph glyph-name="infinity" unicode="&#x221e;" horiz-adv-x="1696" 
d="M464 226q-159 0 -261.5 100.5t-102.5 257.5t102.5 257.5t261.5 100.5q113 0 205 -59t179 -187q87 128 179 187t205 59q159 0 261.5 -100.5t102.5 -257.5t-102.5 -257.5t-261.5 -100.5q-113 0 -205 59t-179 187q-87 -128 -179 -187t-205 -59zM474 366q149 0 280 218
q-131 218 -280 218q-103 0 -164.5 -59.5t-61.5 -158.5t61.5 -158.5t164.5 -59.5zM1222 366q103 0 164.5 59.5t61.5 158.5t-61.5 158.5t-164.5 59.5q-149 0 -280 -218q131 -218 280 -218z" />
    <glyph glyph-name="integral" unicode="&#x222b;" horiz-adv-x="708" 
d="M220 -28h-172v136h172q26 0 44 18t18 44v1124q0 86 60 146t146 60h172v-136h-172q-26 0 -44 -18t-18 -44v-1124q0 -86 -60 -146t-146 -60z" />
    <glyph glyph-name="approxequal" unicode="&#x2248;" horiz-adv-x="1348" 
d="M938 610q-53 0 -115 20.5t-97.5 39t-101.5 56.5q-53 33 -79.5 48.5t-66 30.5t-70.5 15q-66 0 -93 -42.5t-29 -147.5h-138q-8 146 64.5 238t195.5 92q47 0 101.5 -18t92 -38t94.5 -54q6 -4 28.5 -16.5t29.5 -16.5t27 -15t28.5 -15t25.5 -11.5t28 -11t25.5 -7.5t27 -5.5
t24.5 -1.5q66 0 94.5 45t27.5 151h138q6 -152 -65 -244t-197 -92zM938 260q-53 0 -115 20.5t-97.5 39t-101.5 56.5q-53 33 -79.5 48.5t-66 30.5t-70.5 15q-66 0 -93 -42.5t-29 -147.5h-138q-8 146 64.5 238t195.5 92q47 0 101.5 -18t92 -38t94.5 -54q6 -4 28.5 -16.5
t29.5 -16.5t27 -15t28.5 -15t25.5 -11.5t28 -11t25.5 -7.5t27 -5.5t24.5 -1.5q66 0 94.5 45t27.5 151h138q6 -152 -65 -244t-197 -92z" />
    <glyph glyph-name="notequal" unicode="&#x2260;" horiz-adv-x="1348" 
d="M604 342l-164 -304h-156l164 304h-300v140h376l144 264h-520v140h596l164 304h156l-164 -304h300v-140h-376l-144 -264h520v-140h-596z" />
    <glyph glyph-name="lessequal" unicode="&#x2264;" horiz-adv-x="1348" 
d="M368 652l832 -294v-148l-1052 378v128l1052 378v-148zM1200 140v-140h-1052v140h1052z" />
    <glyph glyph-name="greaterequal" unicode="&#x2265;" horiz-adv-x="1348" 
d="M1200 716v-128l-1052 -378v148l832 294l-832 294v148zM1200 140v-140h-1052v140h1052z" />
    <glyph glyph-name="filledbox" unicode="&#x25a0;" horiz-adv-x="1660" 
d="M1566 1472v-1472h-1472v1472h1472z" />
    <glyph glyph-name="uni25A1" unicode="&#x25a1;" horiz-adv-x="1660" 
d="M1566 1472v-1472h-1472v1472h1472zM1422 1328h-1184v-1184h1184v1184z" />
    <glyph glyph-name="triagup" unicode="&#x25b2;" horiz-adv-x="1932" 
d="M966 1498l890 -1498h-1780z" />
    <glyph glyph-name="uni25B3" unicode="&#x25b3;" horiz-adv-x="1936" 
d="M968 1502l892 -1502h-1784zM1592 150l-624 1044l-624 -1044h1248z" />
    <glyph glyph-name="circle" unicode="&#x25cb;" horiz-adv-x="1804" 
d="M902 -116q-164 0 -314 64t-258 172t-172 258t-64 314t64.5 313.5t172.5 257.5t257.5 172.5t313.5 64.5t313.5 -64.5t257.5 -172.5t172.5 -257.5t64.5 -313.5t-64.5 -313.5t-172.5 -257.5t-257.5 -172.5t-313.5 -64.5zM902 44q132 0 252 51.5t206.5 138t138 206.5
t51.5 252q0 131 -51.5 251t-138.5 207t-207 138.5t-251 51.5q-132 0 -252 -51.5t-206.5 -138t-138 -206.5t-51.5 -252t51.5 -252t138 -206.5t206.5 -138t252 -51.5z" />
    <glyph glyph-name="uni25CF" unicode="&#x25cf;" horiz-adv-x="1804" 
d="M902 -116q-164 0 -314 64t-258 172t-172 258t-64 314t64.5 313.5t172.5 257.5t257.5 172.5t313.5 64.5t313.5 -64.5t257.5 -172.5t172.5 -257.5t64.5 -313.5t-64.5 -313.5t-172.5 -257.5t-257.5 -172.5t-313.5 -64.5z" />
    <glyph glyph-name="uni2713" unicode="&#x2713;" horiz-adv-x="1512" 
d="M1170 1056l118 -96l-800 -962l-466 506l106 106l354 -378z" />
    <glyph glyph-name="uniF8FF" unicode="&#xf8ff;" horiz-adv-x="2262" 
d="M1148 80q-151 0 -288.5 59.5t-237 160t-158.5 238.5t-59 289t59 289t159 237.5t238 158.5t289 59t288.5 -59t237.5 -159t159 -237.5t59 -288.5q0 -203 -99.5 -375t-271 -272t-375.5 -100zM1150 168q178 0 329 88t239 239t88 329q0 134 -52 255.5t-139.5 209.5t-208 140.5
t-253.5 53.5q-134 0 -256 -52t-210 -139.5t-140 -209t-52 -254.5q0 -134 51.5 -256t139 -210.5t209 -141t255.5 -52.5zM939 454h-2l32 30q19 18 33 58q44 120 60 170q35 101 77 175v3q-2 -4 -8 -9.5t-7 -7.5q-13 -15 -14 -16q-30 -46 -41 -76q-3 -8 -11 -8q-132 4 -235 89
q-52 50 -79 74q-2 2 -7.5 10t-9.5 12q12 -2 15 -5q69 -27 131 -36q50 -5 96 3q53 12 63 16q3 0 6.5 1.5t7.5 3.5t7 3q-7 4 -21.5 11t-22.5 11t-18.5 12t-17.5 17h25q53 0 100 25q82 51 182 81q31 10 77 15q4 0 28.5 1t29.5 0q72 -2 118 -44q6 -6 12.5 -13.5t14 -16.5
t11.5 -14q-1 -1 -1 -2l-7 2q-61 23 -111 5t-83 -71q-15 -28 -33 -74q-10 -23 -31 -73t-32 -76q-44 -85 -87 -135q-38 -46 -87 -77q-59 -45 -155 -73q-2 0 -4 -1h-1zM1877 -72q-21 0 -35.5 14.5t-14.5 35.5t14.5 35.5t35.5 14.5t35.5 -14.5t14.5 -35.5t-14.5 -35.5
t-35.5 -14.5zM1877 -57q15 0 25 10t10 25t-10 25t-25 10t-25 -10t-10 -25t10 -25t25 -10zM1871 -44h-11v46h18q17 0 17 -14q0 -8 -7 -13l10 -19h-13l-8 15h-6v-15zM1885 -13q0 3 -7 3h-7v-8h7q7 0 7 5zM944 -33q0 -9 7 -15t18 -6q10 0 17 6t7 15q0 8 -7 14t-17 6t-17.5 -6
t-7.5 -14zM590 -121q0 62 -49 85q-24 12 -58 12h-79v-195h78q68 0 95 46q13 20 13 52zM544 -121q0 -42 -29 -56q-13 -6 -35 -6h-29v124h29q42 0 57 -27q7 -13 7 -35zM653 -156h113v11q0 35 -23 56q-21 18 -56 18q-50 0 -70 -36q-10 -18 -10 -39q0 -47 39 -66q18 -9 44 -9
q42 0 61 21q10 8 13 23l-42 3q-4 -12 -18 -15q-4 -2 -14 -2q-22 0 -33 17q-4 10 -4 18zM823 -174l-45 -2q6 -45 75 -45q46 0 64 23q10 12 10 25q0 31 -48 39l-30 5q-21 4 -21 15q0 15 25 15q24 0 28 -18l42 3q-6 43 -71 43q-43 0 -61 -21q-9 -10 -9 -24q0 -33 48 -42l29 -5
q21 -3 21 -15q0 -14 -27 -14q-25 0 -30 18zM1059 -231l-42 -4q10 -41 76 -41q49 0 70 25q11 13 11 31v147h-46v-24h-1q-8 15 -25 22q-8 4 -23 4q-40 0 -58 -33q-9 -17 -9 -41q0 -47 33 -64q14 -7 34 -7q24 0 38 12q7 7 9 11h2v-26q0 -28 -34 -28q-20 0 -28 8zM1201 -219h45
v85q0 18 15 26q10 4 17 4q29 0 29 -29v-86h46v93q0 35 -27 48q-11 7 -30 7q-37 0 -49 -28h-1v26h-45v-146zM1411 -212q19 -9 44 -9q50 0 71 35q10 17 10 40q0 46 -38 66q-18 9 -43 9q-52 0 -72 -36q-10 -18 -10 -39q0 -45 38 -66zM1734 -216q10 -5 28 -5q23 0 37 11
q6 4 11 12h1v-21h44v99q0 26 -21 37q-21 12 -49 12q-40 0 -60 -20q-9 -10 -13 -23l43 -3q5 17 29 17q25 0 25 -19v-1q0 -9 -17 -10q-11 -2 -23 -3q-28 -2 -43 -11q-19 -11 -19 -34q0 -28 27 -38zM946 -219h46v146h-46v-146zM1596 -219h52l57 146h-48l-34 -104h-2l-35 104
h-48zM722 -131h-69q2 17 16 25q6 5 19 5q22 0 30 -17q2 -5 4 -13zM1474 -184q-8 -6 -19 -6q-23 0 -31 21q-4 9 -4 23q0 28 16 38q7 6 19 6q21 0 31 -21q4 -14 4 -23q0 -27 -16 -38zM1128 -145q0 -41 -34 -41q-23 0 -31 19q-4 8 -4 22q0 27 16 37q8 5 19 5q22 0 30 -20
q4 -8 4 -22zM1793 -190q-7 -3 -18 -3q-24 0 -24 16q0 11 12 16q5 2 15 4q26 3 31 6v-15q0 -16 -16 -24z" />
    <glyph glyph-name="_Designova" horiz-adv-x="2122" 
d="M1059 -161q-174 0 -333 68.5t-274 184t-183.5 275t-68.5 333.5q1 140 45 271t123.5 236.5t185 185t236.5 123t271 43.5q175 0 334 -68t274.5 -183t184 -274t68.5 -334t-68.5 -334.5t-184 -275t-275.5 -183.5t-335 -68zM1061 -59q154 0 294 60t241.5 161.5t161.5 241.5
t60 294q0 207 -101 381.5t-274.5 276t-379.5 101.5q-154 0 -294.5 -59.5t-242.5 -161t-162 -241.5t-60 -295t59.5 -295.5t161 -242t241.5 -161.5t295 -60zM817 271h-4l37 31q22 20 41 69q12 35 35.5 101.5t33.5 96.5q41 117 86 200v2q-11 -13 -14 -18q-11 -8 -15 -21
q-34 -42 -50 -87q-6 -7 -13 -7q-157 8 -271 104q-13 13 -43.5 41.5t-44.5 42.5q-8 10 -22 24q12 0 17 -5q73 -29 154 -41q60 -7 108 4q32 5 71 18q6 0 15 4.5l11 5.5q-8 5 -24 12.5t-25.5 12.5t-21.5 14t-21 19h28q52 0 115 27q107 68 211 98q47 13 88 13q9 0 33 2t35 1
q88 -5 136 -52q7 -6 14.5 -14.5t16 -19t13.5 -16.5v-2q-4 2 -10 2q-70 27 -127 6.5t-96 -79.5q-9 -16 -23 -50t-16 -39q-11 -23 -35 -81.5t-39 -88.5q-49 -99 -99 -159q-23 -31 -98 -88q-73 -52 -181 -83h-6z" />
    <glyph glyph-name="_VendorID" horiz-adv-x="1699" 
d="M1499 1577v-1582h-1299v1582h1299zM1429 1508h-1159v-1445h1159v1445zM617 832q-81 0 -138 56t-57 136q0 73 62 164l129 189h86l-113 -162q10 2 31 2q83 0 137 -55t54 -138q0 -81 -55 -136.5t-136 -55.5zM1082 832q-81 0 -137.5 55.5t-56.5 136.5q0 43 13 79t46 85
l129 189h88l-116 -162q10 2 34 2q81 0 136 -55.5t55 -137.5q0 -81 -55.5 -136.5t-135.5 -55.5zM617 900q52 0 86 35t34 89t-33.5 88t-86.5 34q-55 0 -88.5 -33t-33.5 -89q0 -55 34 -89.5t88 -34.5zM1082 900q52 0 84.5 35t32.5 89t-33 88t-84 34q-55 0 -89.5 -34t-34.5 -88
t34.5 -89t89.5 -35zM617 201q-81 0 -138 57t-57 138q0 79 62 166l129 183h86l-112 -160q12 4 30 4q83 0 137 -55.5t54 -137.5t-55.5 -138.5t-135.5 -56.5zM1082 201q-81 0 -137.5 56.5t-56.5 138.5q0 45 12.5 81.5t46.5 84.5l129 183h88l-115 -160q12 4 33 4q81 0 136 -55.5
t55 -137.5t-55.5 -138.5t-135.5 -56.5zM617 271q53 0 86.5 34.5t33.5 90.5q0 52 -33.5 86t-86.5 34q-54 0 -88 -33.5t-34 -86.5q0 -57 34 -91t88 -34zM1082 271q52 0 84.5 34.5t32.5 90.5q0 53 -32.5 86.5t-84.5 33.5q-55 0 -89.5 -33.5t-34.5 -86.5q0 -56 34.5 -90.5
t89.5 -34.5zM897 -104v-58h-19v58h-7v12h7v10q0 21 26 21h8v-15q-15 2 -15 -7v-9h15v-12h-15zM234 -165q-30 0 -30 38q0 18 10 28t24 10q10 0 17 -4l5 -7v35h17v-97h-17v12l-5 -9q-10 -6 -21 -6zM448 -85q-11 0 -11 10t11 10t11 -10t-11 -10zM1120 -150v-13h-11
q-20 0 -20 13v46h-11v12h11v17h19v-17h13v-12h-13v-38q2 -13 12 -8zM326 -165q-36 0 -36 38q0 17 10 27.5t26 10.5t25.5 -10t9.5 -26q0 -3 -2 -7h-50q2 -18 17 -18q14 0 16 12h17q-6 -27 -33 -27zM397 -165q-27 0 -31 24h19q4 -13 12 -13q12 0 12 10q0 5 -16 12
q-24 7 -24 21q0 22 28 22t28 -22h-18q-3 9 -10 9q-9 0 -9 -8q0 -6 16 -12q22 -4 22 -20q0 -23 -29 -23zM507 -191q-35 0 -35 24v2h18v-2q0 -10 17 -10q16 0 19 17v10l-5 -9q-15 -3 -19 -3q-32 0 -32 35q0 18 10 28t25 10q11 0 16 -4l5 -7v10h19v-54q0 -11 -2 -15
q0 -15 -10 -23.5t-26 -8.5zM579 -130v-32h-19v72h19v-13l5 10q9 4 17 4q22 0 27 -21q1 -4 1 -12v-40h-20v46q0 14 -13 14q-17 0 -17 -28zM675 -165q-16 0 -26 10.5t-10 27.5t10 27.5t26 10.5q37 0 37 -38t-37 -38zM820 -165q-9 0 -15.5 6t-6.5 17q0 22 40 22h4v2v7
q0 9 -12 9q-14 0 -14 -12h-17q0 25 31 25q26 0 28 -21v-34v-18h-15l-1 8l-4 -6q-8 -5 -18 -5zM955 -165q-38 0 -38 38t38 38q16 0 25.5 -10.5t9.5 -27.5t-9.5 -27.5t-25.5 -10.5zM1019 -130v-32h-17v72h17v-13l8 10q7 4 17 4q22 0 25 -21v-12v-40h-19v46q-4 14 -11 14
q-20 0 -20 -28zM1160 -165q-28 0 -33 24h20q1 -13 13 -13q10 0 10 10q0 5 -10 10q-3 1 -5 2q-23 6 -23 21q0 22 26 22t32 -22h-21q0 9 -12 9q-6 0 -6 -8q0 -6 14 -12q25 -5 25 -20q0 -23 -30 -23zM1263 -165q-35 0 -35 38q0 17 10.5 27.5t24.5 10.5q15 0 24 -7.5t9 -19.5
h-18q-3 14 -15 14q-17 0 -17 -25q0 -11 5 -17t12 -6q13 0 15 12h18q-2 -27 -33 -27zM1341 -165q-38 0 -38 38t38 38q35 0 35 -38t-35 -38zM1408 -125v-37h-19v72h19v-12l6 9q7 4 13 4q18 0 23 -14l7 10q5 4 15 4t16.5 -5t6.5 -12q1 -5 1 -16v-40h-18v37q0 1 -0.5 5t-0.5 6
q0 12 -13 12q-12 0 -12 -23v-37h-18v48q-4 12 -13 12q-13 0 -13 -23zM457 -90v-72h-18v72h18zM792 -90l-26 -72h-23l-25 72h19l19 -60l17 60h19zM240 -150q20 0 20 23v2q0 23 -18 23q-19 0 -19 -25q0 -23 17 -23zM309 -122h33q-3 20 -16 20q-14 0 -17 -20zM507 -150
q19 0 19 23v2q0 23 -19 23q-17 0 -17 -23q0 -25 17 -25zM675 -150q20 0 20 23q0 25 -20 25q-18 0 -18 -25q0 -23 18 -23zM955 -150q17 0 17 23q0 25 -17 25q-19 0 -19 -25q0 -23 19 -23zM1341 -150q17 0 17 23q0 25 -17 25q-8 0 -14 -7t-6 -18t6 -17t14 -6zM826 -150
q6 0 11 4t5 9v7q-26 3 -26 -12q0 -8 10 -8zM1208 -165q-12 0 -12 10q0 5 3.5 9t8.5 4t8.5 -4t3.5 -9q0 -10 -12 -10z" />
    <glyph glyph-name="_Origin" horiz-adv-x="3007" 
d="M200 1238v67h2607v-67h-2607zM1498 842q35 -35 94 -35q56 0 91 35q37 37 37 87q0 53 -37 87q-35 35 -93 35q-57 0 -92 -35q-37 -35 -37 -87q0 -48 37 -87zM347 811h197v43h-143v56h129v42h-129v52h143v43h-197v-236zM584 811h54v145l118 -145h44v236h-54v-143l-117 143
h-45v-236zM916 811h54v193h76v43h-207v-43h77v-193zM1150 811h58l54 161l52 -161h60l77 236h-52l-56 -168l-54 168h-50l-56 -166l-54 166h-58zM1751 811h54v66h52l44 -66h60l-52 74q28 12 39 31q13 19 13 46q0 54 -48 77q-19 8 -54 8h-108v-236zM1988 811h54v99h128v42h-128
v52h143v43h-197v-236zM2207 811h195v43h-141v56h127v42h-127v52h141v43h-195v-236zM2442 811h54v145l118 -145h46v236h-54v-143l-119 143h-45v-236zM1664 929q0 -33 -21 -54t-53 -21t-52.5 21t-20.5 54q0 34 20.5 55.5t52.5 21.5t53 -21.5t21 -55.5zM1805 921v83h50
q50 0 50 -42q0 -41 -50 -41h-50zM304 415h56v236h-56v-236zM397 415h56v145l118 -145h44v236h-54v-143l-118 143h-46v-236zM739 651v-236h123q95 0 95 64q0 40 -37 56l-4 2q35 17 35 54q0 28 -24.5 44t-71.5 16h-116zM984 415h195v45h-141v54h129v42h-129v51h143v44h-197
v-236zM1218 415h56v66h50l46 -66h58l-50 74q23 8 39 31q13 19 13 46q0 52 -48 77q-21 8 -56 8h-108v-236zM1457 415h195v45h-141v191h-54v-236zM1691 415h54v236h-54v-236zM1784 415h54v145l119 -145h45v236h-56v-143l-116 143h-46v-236zM2237 651v-236h107q83 0 114 56
q17 24 17 62q0 74 -62 103q-29 15 -69 15h-107zM2506 415h195v45h-141v54h129v42h-129v51h143v44h-197v-236zM795 558v56h56q44 0 44 -29q0 -27 -44 -27h-56zM1274 525v82h50q50 0 50 -41t-50 -41h-50zM2293 460v147h49q49 0 69 -35q8 -13 8 -39q0 -46 -35 -64
q-17 -9 -42 -9h-49zM795 456v58h63q43 0 43 -29t-43 -29h-63zM2040 363h35l18 50q9 18 9 33q0 14 -9 23.5t-22 9.5q-15 0 -24.5 -9t-9.5 -24q0 -23 19 -29zM200 146v67h2607v-67h-2607z" />
    </font>
</defs>
</svg>
