<?xml version="1.0" standalone="no"?>
<!DOCTYPE svg PUBLIC "-//W3C//DTD SVG 1.1//EN" "http://www.w3.org/Graphics/SVG/1.1/DTD/svg11.dtd" >
<svg xmlns="http://www.w3.org/2000/svg" xmlns:xlink="http://www.w3.org/1999/xlink" version="1.1">
<metadata>
Created by FontForge 20201107 at Tue May 30 04:31:54 2023
 By 
Copyright (c) 2023 by Designova. All rights reserved.
</metadata>
<defs>
<font id="Helixa-Thin" horiz-adv-x="0" >
  <font-face 
    font-family="Helixa Thin"
    font-weight="100"
    font-stretch="normal"
    units-per-em="2048"
    panose-1="0 0 2 0 0 0 0 0 0 0"
    ascent="1638"
    descent="-410"
    x-height="932"
    cap-height="1392"
    bbox="-846 -426 2807 1902"
    underline-thickness="50"
    underline-position="-100"
    unicode-range="U+0020-F8FF"
  />
<missing-glyph horiz-adv-x="1242" 
d="M1154 1436v-1450h-1066v1450h1066zM1046 1336h-850v-1250h850v1250z" />
    <glyph glyph-name=".notdef" horiz-adv-x="1242" 
d="M1154 1436v-1450h-1066v1450h1066zM1046 1336h-850v-1250h850v1250z" />
    <glyph glyph-name=".null" 
 />
    <glyph glyph-name="nonmarkingreturn" horiz-adv-x="682" 
 />
    <glyph glyph-name="space" unicode=" " horiz-adv-x="580" 
 />
    <glyph glyph-name="exclam" unicode="!" horiz-adv-x="500" 
d="M266 426h-32q-16 221 -16 640v326h64v-326q0 -419 -16 -640zM252 -28q-40 0 -69 28.5t-29 67.5t29 67.5t69 28.5q38 0 66 -28.5t28 -67.5t-28 -67.5t-66 -28.5z" />
    <glyph glyph-name="quotedbl" unicode="&#x22;" horiz-adv-x="534" 
d="M200 1330l-28 -370h-48l-30 370q-1 28 13.5 45t40.5 17q25 0 39.5 -16.5t12.5 -45.5zM440 1330l-28 -370h-48l-30 370q-1 28 13.5 45t40.5 17q25 0 39.5 -16.5t12.5 -45.5z" />
    <glyph glyph-name="numbersign" unicode="#" horiz-adv-x="1312" 
d="M128 500h218l74 392h-254l12 60h256l86 440h62l-86 -440h424l86 440h62l-86 -440h214l-12 -60h-214l-78 -392h222l-12 -60h-222l-86 -440h-62l86 440h-422l-86 -440h-62l86 440h-218zM410 500h420l78 392h-424z" />
    <glyph glyph-name="dollar" unicode="$" horiz-adv-x="1102" 
d="M518 -200v178q-178 4 -292 93t-134 237h74q11 -117 106.5 -190.5t245.5 -77.5v636l-94 26q-318 79 -318 346q0 161 111 260t301 106v178h56v-176q166 -6 270.5 -94.5t127.5 -241.5h-72q-16 127 -102 199t-224 75v-624l106 -28q156 -39 237 -128.5t81 -221.5
q0 -165 -114.5 -266.5t-309.5 -107.5v-178h-56zM428 766l90 -22v612q-157 -9 -250.5 -93t-93.5 -215q0 -215 254 -282zM670 640l-96 24v-624q164 8 260 91.5t96 218.5q0 223 -260 290z" />
    <glyph glyph-name="percent" unicode="%" horiz-adv-x="1776" 
d="M770 1090q0 -143 -91.5 -235.5t-232.5 -92.5t-232.5 92.5t-91.5 235.5t91.5 235.5t232.5 92.5t232.5 -92.5t91.5 -235.5zM1450 1392l-1056 -1392h-70l1054 1392h72zM710 1090q0 120 -73.5 196t-190.5 76t-190.5 -76t-73.5 -196t74 -196t190 -76t190 76t74 196zM1654 302
q0 -143 -91.5 -235.5t-232.5 -92.5t-232.5 92.5t-91.5 235.5t91.5 235.5t232.5 92.5t232.5 -92.5t91.5 -235.5zM1594 302q0 120 -73.5 196t-190.5 76t-190.5 -76t-73.5 -196t74 -196t190 -76t190 76t74 196z" />
    <glyph glyph-name="ampersand" unicode="&#x26;" horiz-adv-x="1316" 
d="M1184 0l-150 174q-81 -98 -198.5 -149t-259.5 -51q-216 0 -343 99t-127 267q0 136 88 240.5t296 225.5q-110 128 -155 205.5t-45 142.5q0 117 79 188.5t209 71.5q125 0 200.5 -68t75.5 -180q0 -105 -62 -190t-210 -184l452 -526q89 145 92 342h54q-3 -223 -110 -388
l192 -220h-78zM544 834q127 76 186.5 156.5t59.5 175.5q0 88 -58 141t-156 53q-102 0 -162 -55.5t-60 -150.5q0 -58 38 -122t152 -198zM170 340q0 -146 107.5 -229t296.5 -83q283 0 426 186l-474 550q-197 -110 -276.5 -204t-79.5 -220z" />
    <glyph glyph-name="quotesingle" unicode="'" horiz-adv-x="294" 
d="M200 1330l-28 -370h-48l-30 370q-1 28 13.5 45t40.5 17q25 0 39.5 -16.5t12.5 -45.5z" />
    <glyph glyph-name="parenleft" unicode="(" horiz-adv-x="462" 
d="M436 -286h-62q-117 177 -183.5 411t-66.5 467q0 230 66.5 462.5t183.5 409.5h62q-114 -171 -179 -402.5t-65 -469.5q0 -241 65 -474t179 -404z" />
    <glyph glyph-name="parenright" unicode=")" horiz-adv-x="462" 
d="M88 -286h-62q114 171 179 404t65 474q0 238 -65 469.5t-179 402.5h62q117 -177 183.5 -409.5t66.5 -462.5q0 -233 -66.5 -467t-183.5 -411z" />
    <glyph glyph-name="asterisk" unicode="*" horiz-adv-x="792" 
d="M190 1140l-108 38l18 46l106 -36q95 -32 160 -74l22 16q-18 78 -18 174v114h50v-114q0 -104 -16 -176l22 -14q70 44 156 74l106 38l22 -48l-110 -38q-87 -30 -168 -44l-8 -24q49 -46 110 -134l64 -92l-40 -30l-66 92q-60 84 -84 154l-28 -2q-24 -72 -82 -152l-66 -92
l-42 30l64 92q42 64 112 134l-8 24q-91 16 -168 44z" />
    <glyph glyph-name="plus" unicode="+" horiz-adv-x="1320" 
d="M174 690h456v456h60v-456h456v-60h-456v-458h-60v458h-456v60z" />
    <glyph glyph-name="comma" unicode="," horiz-adv-x="500" 
d="M297 27q-56 -39 -99.5 -21t-43.5 74q0 39 25.5 63.5t64.5 24.5q44 0 73 -35t29 -89q0 -69 -47 -127.5t-117 -74.5v34q45 13 80.5 61t34.5 90z" />
    <glyph glyph-name="hyphen" unicode="-" horiz-adv-x="812" 
d="M144 480v56h524v-56h-524z" />
    <glyph glyph-name="period" unicode="." horiz-adv-x="500" 
d="M250 -28q-28 0 -49.5 21t-21.5 48q0 29 21.5 50t49.5 21t49.5 -21t21.5 -50q0 -27 -21.5 -48t-49.5 -21z" />
    <glyph glyph-name="slash" unicode="/" horiz-adv-x="648" 
d="M82 0h-62l544 1392h64z" />
    <glyph glyph-name="zero" unicode="0" horiz-adv-x="1348" 
d="M134 696q0 333 145.5 527.5t394.5 194.5t394.5 -194.5t145.5 -527.5t-145.5 -527.5t-394.5 -194.5t-394.5 194.5t-145.5 527.5zM200 696q0 -305 127.5 -482.5t346.5 -177.5t346.5 177.5t127.5 482.5t-127.5 482.5t-346.5 177.5t-346.5 -177.5t-127.5 -482.5z" />
    <glyph glyph-name="one" unicode="1" horiz-adv-x="716" 
d="M456 1390h76v-1390h-66v1324l-346 -238l-32 56z" />
    <glyph glyph-name="two" unicode="2" horiz-adv-x="1102" 
d="M988 0h-884v60l446 394q205 181 275.5 293.5t70.5 258.5q0 160 -94 254t-254 94q-162 0 -264.5 -107.5t-113.5 -286.5h-68q12 207 134.5 331.5t315.5 124.5q183 0 297.5 -112.5t114.5 -291.5q0 -160 -79 -287.5t-299 -320.5l-388 -344h790v-60z" />
    <glyph glyph-name="three" unicode="3" horiz-adv-x="1134" 
d="M502 788h-74v50l454 494h-732v60h816v-60l-452 -490q226 9 366 -107t140 -311q0 -201 -130 -324.5t-340 -123.5q-199 0 -318 113t-124 307h68q5 -165 105 -261.5t269 -96.5q183 0 292.5 106.5t109.5 283.5q0 169 -119 264.5t-331 95.5z" />
    <glyph glyph-name="four" unicode="4" horiz-adv-x="1238" 
d="M1094 374v-60h-166v-314h-68v314h-756v70l718 1014h106v-1024h166zM860 374v982l-688 -982h688z" />
    <glyph glyph-name="five" unicode="5" horiz-adv-x="1150" 
d="M576 -24q-199 0 -318 113t-124 307h68q5 -165 105 -261.5t269 -96.5q180 0 291 110t111 290q0 178 -112 290t-292 112q-99 0 -193 -39t-167 -111l-40 18l68 684h726v-60h-662l-56 -554q139 124 330 124q205 0 335.5 -131t130.5 -335t-131 -332t-339 -128z" />
    <glyph glyph-name="six" unicode="6" horiz-adv-x="1192" 
d="M600 940q207 0 342.5 -136t135.5 -344q0 -206 -138 -345t-342 -139q-202 0 -343 141t-141 343q0 112 35 206t127 226l344 500h80l-396 -562q32 45 123 77.5t173 32.5zM598 38q179 0 295.5 119.5t116.5 302.5q0 182 -116 300t-296 118q-182 0 -299 -117.5t-117 -300.5
q0 -184 117 -303t299 -119z" />
    <glyph glyph-name="seven" unicode="7" horiz-adv-x="980" 
d="M34 1392h912v-72l-526 -1320h-70l534 1332h-850v60z" />
    <glyph glyph-name="eight" unicode="8" horiz-adv-x="1198" 
d="M438 738q-126 39 -195 126t-69 206q0 155 118 250.5t308 95.5q189 0 305.5 -95.5t116.5 -250.5q0 -124 -71 -211.5t-199 -118.5q322 -110 322 -376q0 -171 -132 -279.5t-342 -108.5q-211 0 -343.5 108.5t-132.5 281.5q0 134 84.5 234.5t229.5 137.5zM240 1074
q0 -137 99 -220.5t261 -83.5t259 81.5t97 218.5q0 130 -97 208t-259 78t-261 -77.5t-99 -204.5zM190 376q0 -151 114.5 -245.5t297.5 -94.5q180 0 293 94t113 244t-112 241t-298 91q-184 0 -296 -90.5t-112 -239.5z" />
    <glyph glyph-name="nine" unicode="9" horiz-adv-x="1192" 
d="M592 454q-207 0 -342.5 136t-135.5 344q0 206 138 345t342 139q202 0 343 -141t141 -343q0 -112 -35 -206t-127 -226l-344 -500h-80l396 562q-32 -45 -123 -77.5t-173 -32.5zM594 1356q-179 0 -295.5 -119.5t-116.5 -302.5q0 -182 116 -300t296 -118q182 0 299 117.5
t117 300.5q0 184 -117 303t-299 119z" />
    <glyph glyph-name="colon" unicode=":" horiz-adv-x="540" 
d="M270 762q-39 0 -67.5 28t-28.5 66q0 39 28.5 67.5t67.5 28.5t67.5 -28.5t28.5 -67.5q0 -38 -28.5 -66t-67.5 -28zM270 -22q-39 0 -67.5 28t-28.5 66q0 39 28.5 67.5t67.5 28.5t67.5 -28.5t28.5 -67.5q0 -38 -28.5 -66t-67.5 -28z" />
    <glyph glyph-name="semicolon" unicode=";" horiz-adv-x="540" 
d="M270 762q-39 0 -67.5 28t-28.5 66q0 39 28.5 67.5t67.5 28.5t67.5 -28.5t28.5 -67.5q0 -38 -28.5 -66t-67.5 -28zM317 27q-56 -39 -99.5 -21t-43.5 74q0 39 25.5 63.5t64.5 24.5q44 0 73 -35t29 -89q0 -69 -47 -127.5t-117 -74.5v34q45 13 80.5 61t34.5 90z" />
    <glyph glyph-name="less" unicode="&#x3c;" horiz-adv-x="1320" 
d="M1146 150v-64l-972 350v72l972 350v-64l-912 -322z" />
    <glyph glyph-name="equal" unicode="=" horiz-adv-x="1320" 
d="M174 806h972v-60h-972v60zM174 402h972v-60h-972v60z" />
    <glyph glyph-name="greater" unicode="&#x3e;" horiz-adv-x="1320" 
d="M1146 436l-972 -350v64l912 322l-912 322v64l972 -350v-72z" />
    <glyph glyph-name="question" unicode="?" horiz-adv-x="998" 
d="M480 308h-62v42q0 53 15.5 98t48 84t64 67t82.5 65q52 40 83 67.5t67.5 71t54 94t17.5 109.5q0 151 -99 249.5t-251 98.5q-142 0 -244 -97t-108 -237h-64q6 165 126.5 280.5t289.5 115.5q181 0 297.5 -115.5t116.5 -294.5q0 -57 -15 -108t-35 -86t-57.5 -73.5t-63.5 -60
t-73 -56.5q-99 -74 -144.5 -133t-45.5 -139v-42zM458 -28q-40 0 -69 28.5t-29 67.5t29 67.5t69 28.5q38 0 66 -28.5t28 -67.5t-28 -67.5t-66 -28.5z" />
    <glyph glyph-name="at" unicode="@" horiz-adv-x="1782" 
d="M1370 180q-114 0 -167.5 60t-38.5 174q-39 -108 -129 -167t-215 -59q-130 0 -205 63t-75 173t80 176.5t236 85.5l160 20q75 10 103.5 21.5t48.5 38.5q-2 128 -70 193t-200 65q-121 0 -192.5 -53.5t-77.5 -148.5h-58q6 114 95.5 182t234.5 68q156 0 239 -77t83 -221v-412
q0 -66 38.5 -102t109.5 -36q117 0 189.5 115t72.5 301q0 209 -95 375.5t-264.5 259.5t-382.5 93q-153 0 -290 -58.5t-235.5 -158.5t-156.5 -238.5t-58 -292.5q0 -156 57.5 -296t156 -240.5t236 -159t290.5 -58.5q269 0 468 162l30 -36q-211 -174 -498 -174q-166 0 -313.5 62
t-253.5 168.5t-167.5 255t-61.5 316.5q0 221 105 403.5t287.5 287.5t403.5 105q172 0 320.5 -58t253.5 -159.5t164.5 -246t59.5 -312.5q0 -197 -91 -328.5t-227 -131.5zM832 234q154 0 245 101.5t91 274.5v96q-9 -7 -24.5 -13t-38 -11t-43 -9t-51.5 -8t-51 -6t-54 -5.5
t-48 -5.5q-128 -15 -196 -72t-68 -150q0 -90 63 -141t175 -51z" />
    <glyph glyph-name="A" unicode="A" horiz-adv-x="1236" 
d="M286 454l-170 -454h-66l526 1392h84l526 -1392h-66l-170 454h-664zM930 508l-312 836l-312 -836h624z" />
    <glyph glyph-name="B" unicode="B" horiz-adv-x="1264" 
d="M742 0h-548v1392h512q199 0 310.5 -95.5t111.5 -266.5q0 -117 -54.5 -200.5t-157.5 -125.5q118 -39 180 -127t64 -213q-2 -167 -115 -265.5t-303 -98.5zM712 1332h-450v-604h450q164 0 255 79t91 223t-91 223t-255 79zM748 668h-486v-608h486q158 0 248 80t94 224
q-4 144 -94 224t-248 80z" />
    <glyph glyph-name="C" unicode="C" horiz-adv-x="1432" 
d="M748 -22q-188 0 -334.5 90.5t-228 254t-81.5 373.5q0 320 181.5 520t470.5 200q208 0 364 -115.5t206 -306.5h-70q-51 164 -189 261t-317 97q-257 0 -416.5 -182t-159.5 -474q0 -291 160 -472.5t416 -181.5q179 0 320.5 92t193.5 244h70q-56 -180 -216 -290t-370 -110z
" />
    <glyph glyph-name="D" unicode="D" horiz-adv-x="1366" 
d="M560 0h-366v1392h366q316 0 509 -191t193 -505t-193 -505t-509 -191zM560 1332h-298v-1272h298q286 0 459 174t173 462q0 291 -171.5 463.5t-460.5 172.5z" />
    <glyph glyph-name="E" unicode="E" horiz-adv-x="1174" 
d="M1040 0h-846v1392h844v-60h-778v-604h712v-60h-712v-608h780v-60z" />
    <glyph glyph-name="F" unicode="F" horiz-adv-x="1122" 
d="M260 0h-66v1392h844v-60h-778v-604h712v-60h-712v-668z" />
    <glyph glyph-name="G" unicode="G" horiz-adv-x="1480" 
d="M1290 586h-514v54h580v-68q0 -181 -76 -318q-75 -132 -211 -204t-311 -72q-198 0 -342 90q-150 90 -230 252.5t-80 375.5q0 325 178 524q181 196 464 196q218 0 383 -122.5t209 -313.5h-60q-46 170 -194 275t-338 105q-165 0 -298 -80q-134 -81 -206 -233t-72 -351
q0 -198 72 -348q73 -151 206.5 -232.5t307.5 -81.5q161 0 276 68q126 67 192 192t64 292z" />
    <glyph glyph-name="H" unicode="H" horiz-adv-x="1378" 
d="M260 0h-66v1392h66v-654h860v654h64v-1392h-64v678h-860v-678z" />
    <glyph glyph-name="I" unicode="I" horiz-adv-x="456" 
d="M262 1392v-1392h-68v1392h68z" />
    <glyph glyph-name="J" unicode="J" horiz-adv-x="1090" 
d="M842 406v988h64v-988q0 -152 -50 -246q-53 -92 -143.5 -136.5t-230.5 -45.5q-141 0 -233 44.5t-145 137.5q-50 94 -50 246v84h64v-84q0 -252 158 -332q94 -47 208 -44q115 0 200 44q158 80 158 332z" />
    <glyph glyph-name="K" unicode="K" horiz-adv-x="1238" 
d="M256 454v-454h-62v1392h62v-846l814 846h86l-632 -656l628 -736h-80l-590 696z" />
    <glyph glyph-name="L" unicode="L" horiz-adv-x="1094" 
d="M1040 0h-846v1392h68v-1332h778v-60z" />
    <glyph glyph-name="M" unicode="M" horiz-adv-x="1640" 
d="M782 0h76l520 1252v-1252h68v1392h-74l-552 -1326l-554 1326h-72v-1392h68v1248z" />
    <glyph glyph-name="N" unicode="N" horiz-adv-x="1386" 
d="M270 1392l854 -1292v1292h68v-1392h-74l-856 1296v-1296h-68v1392h76z" />
    <glyph glyph-name="O" unicode="O" horiz-adv-x="1492" 
d="M746 -26q-190 0 -336 90.5t-226 254.5t-80 377q0 324 177 523t465 199t465 -199t177 -523t-177 -523t-465 -199zM746 30q257 0 418.5 185.5t161.5 480.5q0 195 -73 346.5t-205 235.5t-302 84q-258 0 -418 -184.5t-160 -481.5q0 -296 161 -481t417 -185z" />
    <glyph glyph-name="P" unicode="P" horiz-adv-x="1216" 
d="M720 534h-458v-534h-68v1392h526q193 0 307.5 -115.5t114.5 -310.5q0 -190 -118 -311t-304 -121zM716 1332h-454v-738h442q167 0 267.5 102.5t100.5 273.5q0 165 -97 263.5t-259 98.5z" />
    <glyph glyph-name="Q" unicode="Q" horiz-adv-x="1492" 
d="M1388 696q0 -169 -51 -308.5t-147 -235.5l152 -170l-48 -46l-152 172q-161 -134 -396 -134q-190 0 -336 90.5t-226 254.5t-80 377q0 324 177 523t465 199t465 -199t177 -523zM746 30q208 0 354 122l-182 208l48 46l184 -206q85 91 130.5 219t45.5 277q0 195 -73 346.5
t-205 235.5t-302 84q-258 0 -418 -184.5t-160 -481.5q0 -296 161 -481t417 -185z" />
    <glyph glyph-name="R" unicode="R" horiz-adv-x="1254" 
d="M1142 964q0 -150 -77.5 -262t-210.5 -152l280 -550h-78l-268 532h-526v-534h-68v1392h526q193 0 307.5 -115.5t114.5 -310.5zM716 1330h-454v-738h442q167 0 267.5 102.5t100.5 273.5q0 165 -97 263.5t-259 98.5z" />
    <glyph glyph-name="S" unicode="S" horiz-adv-x="1102" 
d="M106 1048q0 168 122 268t326 100q173 0 279.5 -88t130.5 -248h-64q-18 132 -108.5 204t-237.5 72q-171 0 -275.5 -84.5t-104.5 -223.5q0 -218 254 -282l252 -64q156 -39 237 -128.5t81 -221.5q0 -173 -123 -274.5t-331 -101.5q-188 0 -306.5 88.5t-139.5 243.5h66
q12 -122 116 -196t264 -74q176 0 281 85t105 227q0 223 -260 290l-246 62q-318 79 -318 346z" />
    <glyph glyph-name="T" unicode="T" horiz-adv-x="1058" 
d="M34 1332v60h990v-60h-460v-1332h-68v1332h-462z" />
    <glyph glyph-name="U" unicode="U" horiz-adv-x="1354" 
d="M1102 470v922h68v-924q0 -231 -129.5 -361.5t-360.5 -130.5q-234 0 -365 130t-131 362v924h68v-922q0 -207 110.5 -317.5t317.5 -110.5q203 0 312.5 111.5t109.5 316.5z" />
    <glyph glyph-name="V" unicode="V" horiz-adv-x="1232" 
d="M112 1392l508 -1330l504 1330h68l-534 -1392h-82l-536 1392h72z" />
    <glyph glyph-name="W" unicode="W" horiz-adv-x="1910" 
d="M992 1392l418 -1324l382 1324h70l-416 -1392h-68l-424 1312l-422 -1312h-72l-412 1392h72l378 -1328l418 1328h76z" />
    <glyph glyph-name="X" unicode="X" horiz-adv-x="1166" 
d="M1110 1392l-490 -694l498 -698h-78l-458 638l-450 -638h-76l490 694l-498 698h78l460 -644l450 644h74z" />
    <glyph glyph-name="Y" unicode="Y" horiz-adv-x="1200" 
d="M118 1390l482 -736l482 736h72l-520 -790v-602h-68v602l-520 790h72z" />
    <glyph glyph-name="Z" unicode="Z" horiz-adv-x="1152" 
d="M1048 0h-944v68l880 1264h-876v60h950v-68l-880 -1264h870v-60z" />
    <glyph glyph-name="bracketleft" unicode="[" horiz-adv-x="466" 
d="M162 -38h280v-52h-338v1572h338v-52h-280v-1468z" />
    <glyph glyph-name="backslash" unicode="\" horiz-adv-x="648" 
d="M84 1392l544 -1392h-62l-546 1392h64z" />
    <glyph glyph-name="bracketright" unicode="]" horiz-adv-x="466" 
d="M24 -90v52h280v1468h-280v52h338v-1572h-338z" />
    <glyph glyph-name="asciicircum" unicode="^" horiz-adv-x="944" 
d="M242 800h-60l254 592h72l254 -592h-60l-230 538z" />
    <glyph glyph-name="underscore" unicode="_" horiz-adv-x="1012" 
d="M134 -132v64h744v-64h-744z" />
    <glyph glyph-name="grave" unicode="`" horiz-adv-x="386" 
d="M272 1530h-54l-114 186h78z" />
    <glyph glyph-name="a" unicode="a" horiz-adv-x="1022" 
d="M424 -24q-143 0 -226.5 71.5t-83.5 192.5q0 122 89.5 196.5t258.5 93.5l176 20q127 15 162 56l4 10q-3 284 -294 284q-135 0 -213.5 -59.5t-84.5 -164.5h-64q6 128 105 204t259 76q171 0 263.5 -87t92.5 -247v-622h-64v210q-37 -97 -145.5 -165.5t-234.5 -68.5zM436 30
q169 0 268.5 111.5t99.5 302.5v104q-49 -40 -338 -62q-140 -18 -214 -80t-74 -164q0 -99 69 -155.5t189 -56.5z" />
    <glyph glyph-name="b" unicode="b" horiz-adv-x="1138" 
d="M616 956q194 0 311 -134t117 -356t-117 -356t-311 -134q-138 0 -240 67t-146 193v-236h-64v1392h64v-686q44 122 145.5 186t240.5 64zM606 32q170 0 271 118t101 316q0 197 -101.5 315.5t-270.5 118.5t-271.5 -118.5t-102.5 -315.5q0 -198 101.5 -316t272.5 -118z" />
    <glyph glyph-name="c" unicode="c" horiz-adv-x="1014" 
d="M94 462q0 223 121 358.5t321 135.5q142 0 242 -74t136 -202h-58q-32 101 -119 161.5t-201 60.5q-171 0 -275.5 -120.5t-104.5 -317.5q0 -194 101.5 -313t266.5 -119q115 0 206.5 59.5t129.5 158.5h60q-44 -127 -149 -200.5t-247 -73.5q-193 0 -311.5 134t-118.5 352z" />
    <glyph glyph-name="d" unicode="d" horiz-adv-x="1138" 
d="M522 956q139 0 240.5 -64t145.5 -186v686h64v-1392h-64v236q-44 -126 -146 -193t-240 -67q-194 0 -311 134t-117 356t117 356t311 134zM532 32q171 0 272.5 118t101.5 316q0 197 -102.5 315.5t-271.5 118.5t-270.5 -118.5t-101.5 -315.5q0 -198 101 -316t271 -118z" />
    <glyph glyph-name="e" unicode="e" horiz-adv-x="1056" 
d="M962 476l-808 2q-4 -199 100 -323.5t274 -124.5q114 2 205.5 61.5t128.5 158.5h60q-41 -125 -148 -199.5t-246 -74.5q-196 0 -313.5 133.5t-120.5 360.5q3 222 121 354t313 132t314 -131.5t120 -348.5zM528 902q-152 0 -254 -102.5t-118 -273.5l744 -2
q-16 172 -117.5 275t-254.5 103z" />
    <glyph glyph-name="f" unicode="f" horiz-adv-x="558" 
d="M444 1392l61 -3v-49l-47 2q-105 5 -147.5 -35.5t-42.5 -140.5v-210h226v-52h-226v-904h-64v904h-150v52h150v210q0 126 54.5 178t185.5 48z" />
    <glyph glyph-name="g" unicode="g" horiz-adv-x="1142" 
d="M914 720v212h62v-950q0 -126 -50 -226q-53 -92 -143.5 -136.5t-230.5 -45.5q-141 0 -233 44.5t-145 137.5q-30 56 -42 134h66q30 -158 148 -220q94 -47 208 -44q115 0 200 44q160 82 160 332v278q-44 -118 -145.5 -181t-240.5 -63q-194 0 -311 126t-117 334
q0 207 117.5 332.5t310.5 125.5q139 0 240.5 -60t145.5 -174zM538 88q171 0 272.5 111.5t101.5 296.5q0 183 -102.5 294.5t-271.5 111.5t-270.5 -111.5t-101.5 -294.5q0 -185 101.5 -296.5t270.5 -111.5z" />
    <glyph glyph-name="h" unicode="h" horiz-adv-x="1100" 
d="M590 956q173 0 264.5 -98t91.5 -288v-570h-64v552q0 348 -292 348q-162 0 -261 -107.5t-99 -284.5v-506h-64v1390h64v-652q40 94 144 155t216 61z" />
    <glyph glyph-name="i" unicode="i" horiz-adv-x="396" 
d="M198 1254q-28 0 -49 20.5t-21 47.5q0 29 21 50.5t49 21.5q27 0 48.5 -22t21.5 -50q0 -27 -21.5 -47.5t-48.5 -20.5zM166 0v932h64v-932h-64z" />
    <glyph glyph-name="j" unicode="j" horiz-adv-x="396" 
d="M198 1394q27 0 48.5 -22t21.5 -50q0 -27 -21.5 -47.5t-48.5 -20.5q-28 0 -49 20.5t-21 47.5q0 29 21 50.5t49 21.5zM164 -195v1127h64v-1127q0 -126 -54.5 -178t-185.5 -48l-90 4v50l76 -4q105 -5 147.5 35.5t42.5 140.5z" />
    <glyph glyph-name="k" unicode="k" horiz-adv-x="916" 
d="M238 0h-64v1392h64v-1018l542 558h78l-356 -368l368 -564h-72l-338 522l-222 -230v-292z" />
    <glyph glyph-name="l" unicode="l" horiz-adv-x="412" 
d="M238 0h-64v1392h64v-1392z" />
    <glyph glyph-name="m" unicode="m" horiz-adv-x="1646" 
d="M1166 956q149 0 237.5 -93t88.5 -249v-614h-60v602q0 138 -74 218t-200 80q-127 0 -211.5 -85.5t-84.5 -214.5v-600h-62v604q0 137 -73.5 216.5t-200.5 79.5q-128 0 -212 -85t-84 -213v-602h-64v932h60v-170q33 84 120.5 139t187.5 55q119 0 203 -64.5t105 -173.5
q19 99 114.5 168.5t209.5 69.5z" />
    <glyph glyph-name="n" unicode="n" horiz-adv-x="1100" 
d="M230 2h-64v928h64v-190q40 94 144 155t216 61q173 0 264.5 -98t91.5 -288v-570h-64v552q0 348 -292 348q-162 0 -261 -107.5t-99 -284.5v-506z" />
    <glyph glyph-name="o" unicode="o" horiz-adv-x="1072" 
d="M978 470q-3 -226 -122.5 -360t-319.5 -134t-319.5 134t-122.5 360q3 221 123.5 353.5t318.5 132.5t318.5 -132.5t123.5 -353.5zM536 30q170 0 275 120.5t105 315.5t-105 315.5t-275 120.5t-275 -120.5t-105 -315.5t105 -315.5t275 -120.5z" />
    <glyph glyph-name="p" unicode="p" horiz-adv-x="1138" 
d="M230 226v-632h-64v1338h64v-236q44 126 146 193t240 67q194 0 311 -134t117 -356t-117 -356t-311 -134q-139 0 -240.5 64t-145.5 186zM606 900q-171 0 -272.5 -118t-101.5 -316q0 -197 102.5 -315.5t271.5 -118.5t270.5 118.5t101.5 315.5q0 198 -101 316t-271 118z" />
    <glyph glyph-name="q" unicode="q" horiz-adv-x="1138" 
d="M908 -406v632q-44 -122 -145.5 -186t-240.5 -64q-194 0 -311 134t-117 356t117 356t311 134q138 0 240 -67t146 -193v236h64v-1338h-64zM532 900q-170 0 -271 -118t-101 -316q0 -197 101.5 -315.5t270.5 -118.5t271.5 118.5t102.5 315.5q0 198 -101.5 316t-272.5 118z
" />
    <glyph glyph-name="r" unicode="r" horiz-adv-x="620" 
d="M564 956v-56q-152 -11 -243 -117t-91 -275v-506h-64v928h64v-190q37 88 132 148t202 68z" />
    <glyph glyph-name="s" unicode="s" horiz-adv-x="844" 
d="M82 232h60q6 -93 74 -146.5t180 -53.5q128 0 202 55t74 149q0 76 -41.5 119t-138.5 69l-162 42q-114 30 -173 90.5t-59 147.5q0 114 86.5 183t229.5 69q138 0 220.5 -66.5t91.5 -185.5h-60q-9 93 -75.5 144.5t-176.5 51.5q-122 0 -187 -51t-65 -145q0 -135 182 -184
l160 -42q123 -31 177.5 -88.5t54.5 -153.5q0 -117 -92.5 -188.5t-243.5 -71.5q-143 0 -227.5 68.5t-90.5 187.5z" />
    <glyph glyph-name="t" unicode="t" horiz-adv-x="598" 
d="M502 50l42 2v-50l-56 -2q-132 0 -186 51t-54 175v654h-194v52h194v304h64v-304h194v-52h-194v-654q0 -99 41.5 -137.5t148.5 -38.5z" />
    <glyph glyph-name="u" unicode="u" horiz-adv-x="1100" 
d="M870 932h64v-928h-64v190q-40 -94 -144 -155t-216 -61q-173 0 -264.5 98t-91.5 288v570h64v-552q0 -348 292 -348q162 0 261 107.5t99 284.5v506z" />
    <glyph glyph-name="v" unicode="v" horiz-adv-x="930" 
d="M104 932l362 -886l362 886h62l-388 -932h-74l-388 932h64z" />
    <glyph glyph-name="w" unicode="w" horiz-adv-x="1436" 
d="M754 932l284 -872l290 872h58l-312 -932h-74l-282 892l-284 -892h-74l-310 932h58l290 -874l282 874h74z" />
    <glyph glyph-name="x" unicode="x" horiz-adv-x="860" 
d="M124 0h-76l338 470l-336 462h76l306 -422l306 422h74l-338 -466l338 -466h-76l-308 424z" />
    <glyph glyph-name="y" unicode="y" horiz-adv-x="892" 
d="M178 -418q-56 0 -116 10v46q92 -8 118 -8q78 2 120.5 35.5t75.5 120.5l48 134l-384 1012h66l348 -926l334 926h64l-420 -1164q-34 -96 -96 -141t-158 -45z" />
    <glyph glyph-name="z" unicode="z" horiz-adv-x="860" 
d="M766 0h-672v54l604 826h-604v52h672v-56l-602 -824h602v-52z" />
    <glyph glyph-name="braceleft" unicode="{" horiz-adv-x="534" 
d="M104 668v58q82 3 121 36t39 100v468q0 70 43 111t117 41h86v-52h-88q-44 0 -72 -28t-28 -72v-468q0 -63 -23.5 -98t-76.5 -52v-28q52 -16 76 -52.5t24 -99.5v-470q0 -44 28 -72t72 -28h88v-52h-86q-74 0 -117 41t-43 111v470q0 67 -39 100t-121 36z" />
    <glyph glyph-name="bar" unicode="|" horiz-adv-x="600" 
d="M274 -168v1728h52v-1728h-52z" />
    <glyph glyph-name="braceright" unicode="}" horiz-adv-x="534" 
d="M110 -90h-86v52h88q44 0 72 28t28 72v470q0 63 24 99.5t76 52.5v28q-53 17 -76.5 52t-23.5 98v468q0 44 -28 72t-72 28h-88v52h86q74 0 117 -41t43 -111v-468q0 -67 39 -100t121 -36v-58q-82 -3 -121 -36t-39 -100v-470q0 -70 -43 -111t-117 -41z" />
    <glyph glyph-name="asciitilde" unicode="~" horiz-adv-x="1320" 
d="M1088 686h58q-3 -118 -63 -187t-159 -69q-47 0 -103.5 19.5t-89 37t-97.5 55.5q-53 32 -83.5 49t-75.5 33t-81 16q-78 0 -116 -45.5t-46 -144.5h-58q5 116 64 183t156 67q41 0 90.5 -17.5t83 -35.5t92.5 -53q57 -34 91 -52t84 -35t91 -17q76 0 115 47.5t47 148.5z" />
    <glyph glyph-name="exclamdown" unicode="&#xa1;" horiz-adv-x="500" 
d="M252 1420q38 0 66 -28.5t28 -67.5t-28 -67.5t-66 -28.5q-40 0 -69 28.5t-29 67.5t29 67.5t69 28.5zM234 966h32q16 -221 16 -640v-326h-64v326q0 419 16 640z" />
    <glyph glyph-name="cent" unicode="&#xa2;" horiz-adv-x="1078" 
d="M538 -2v214q-187 10 -305.5 144t-118.5 334q0 213 117 347.5t307 140.5v214h60v-212q140 -11 237 -84t131 -194h-68q-33 103 -122.5 161.5t-215.5 58.5q-170 0 -275 -119t-105 -311q0 -184 109 -303t279 -119q124 0 210 55t124 159h68q-41 -125 -137.5 -195.5
t-234.5 -76.5v-214h-60z" />
    <glyph glyph-name="sterling" unicode="&#xa3;" horiz-adv-x="1182" 
d="M696 0h-614v62q113 30 186.5 131t73.5 227q0 105 -52 254h-196v60h174q-2 5 -11 29.5t-11 30.5l-9.5 28.5t-10 31t-8.5 29t-8.5 31.5t-6.5 29.5t-5 32.5t-2.5 31t-1.5 33q0 169 112.5 272.5t297.5 103.5q174 0 284 -88.5t134 -247.5h-72q-18 132 -108.5 204t-237.5 72
q-160 0 -251 -84.5t-91 -233.5q0 -31 4 -61t14 -65.5t16 -55t22.5 -64.5t21.5 -58h512v-60h-490q48 -135 48 -256q0 -111 -56 -204t-144 -126l6 -28h480q165 0 241 81t79 259h64q-3 -204 -97 -302t-287 -98z" />
    <glyph glyph-name="currency" unicode="&#xa4;" horiz-adv-x="1184" 
d="M1018 218l-156 154q-116 -100 -272 -100q-149 0 -268 98l-156 -152l-46 46l158 154q-100 112 -100 266q0 149 98 272l-156 152l46 46l156 -152q119 98 268 98q156 0 272 -100l156 154l46 -46l-158 -154q100 -116 100 -270q0 -157 -100 -266l158 -154zM944 684
q0 146 -104 250t-250 104q-144 0 -247 -104t-103 -250q0 -142 104 -246t246 -104q146 0 250 103t104 247z" />
    <glyph glyph-name="yen" unicode="&#xa5;" horiz-adv-x="1130" 
d="M514 636l-450 756h74l432 -748l424 748h72l-442 -756h346v-56h-368v-188h368v-56h-368v-336h-64v336h-370v56h370v188h-370v56h346z" />
    <glyph glyph-name="brokenbar" unicode="&#xa6;" horiz-adv-x="600" 
d="M326 1560v-700h-52v700h52zM274 -168v700h52v-700h-52z" />
    <glyph glyph-name="section" unicode="&#xa7;" horiz-adv-x="916" 
d="M818 698q0 -78 -56 -138t-152 -82v-28q81 -30 123.5 -86.5t42.5 -133.5q0 -114 -86.5 -183t-229.5 -69q-138 0 -221.5 67t-92.5 185h62q9 -93 75.5 -144.5t176.5 -51.5q122 0 187 51t65 145q0 69 -48 117.5t-136 66.5l-200 42q-118 25 -174 84t-56 158q0 78 56 138
t152 82v28q-81 30 -123.5 86.5t-42.5 133.5q0 114 86.5 183t229.5 69q138 0 221.5 -67t92.5 -185h-62q-9 93 -75.5 144.5t-176.5 51.5q-122 0 -187 -51t-65 -145q0 -69 48 -117.5t136 -66.5l200 -42q118 -24 174 -82.5t56 -159.5zM754 698q0 96 -78 149t-218 53t-218 -53
t-78 -149t78 -149t218 -53t218 53t78 149z" />
    <glyph glyph-name="dieresis" unicode="&#xa8;" horiz-adv-x="688" 
d="M212 1576q-28 0 -49 20.5t-21 47.5q0 29 21 50.5t49 21.5q27 0 48.5 -22t21.5 -50q0 -27 -21.5 -47.5t-48.5 -20.5zM476 1576q-28 0 -49 20.5t-21 47.5q0 29 21 50.5t49 21.5q27 0 48.5 -22t21.5 -50q0 -27 -21.5 -47.5t-48.5 -20.5z" />
    <glyph glyph-name="copyright" unicode="&#xa9;" horiz-adv-x="1630" 
d="M814 -28q-201 0 -366 95t-259.5 261t-94.5 368q0 150 56 283.5t151.5 229t229 151.5t283.5 56q151 0 284.5 -55.5t229.5 -151t152 -229t56 -284.5q0 -202 -94.5 -368t-260 -261t-367.5 -95zM814 20q187 0 340 88t239.5 243t86.5 345q0 189 -86.5 343t-239.5 241.5
t-340 87.5q-140 0 -263 -51.5t-211 -140.5t-139 -214t-51 -266q0 -190 86 -345t238.5 -243t339.5 -88zM466 690q0 177 102 286.5t266 109.5q111 0 193.5 -58.5t114.5 -159.5h-66q-25 79 -87.5 121.5t-154.5 42.5q-136 0 -222 -95t-86 -245q0 -149 83 -242.5t215 -93.5
q93 0 159.5 42t96.5 120h62q-33 -99 -119 -157.5t-199 -58.5q-158 0 -258 108.5t-100 279.5z" />
    <glyph glyph-name="ordfeminine" unicode="&#xaa;" horiz-adv-x="822" 
d="M428 1400q140 0 217 -72.5t77 -205.5v-503h-80v121q-45 -62 -122.5 -101t-160.5 -39q-118 0 -188.5 60.5t-70.5 161.5q0 102 74 164.5t213 78.5l138 16q88 9 116 37l1 3q-3 204 -217 204q-104 0 -161.5 -46.5t-56.5 -128.5h-80q-1 113 81.5 181.5t219.5 68.5zM368 672
q127 0 200.5 83t73.5 227v59q-68 -26 -249 -40q-105 -13 -159 -58t-54 -119q0 -71 50 -111.5t138 -40.5z" />
    <glyph glyph-name="guillemotleft" unicode="&#xab;" horiz-adv-x="1078" 
d="M506 0l-408 466l408 466h62l-408 -466l408 -466h-62zM906 0l-408 466l408 466h62l-408 -466l408 -466h-62z" />
    <glyph glyph-name="logicalnot" unicode="&#xac;" horiz-adv-x="1320" 
d="M1062 612v-460h-64v400h-824v60h888z" />
    <glyph glyph-name="registered" unicode="&#xae;" horiz-adv-x="938" 
d="M470 658q-166 0 -278 111.5t-112 276.5q0 163 112.5 274.5t277.5 111.5t276.5 -110.5t111.5 -275.5q0 -166 -111 -277t-277 -111zM470 714q141 0 235.5 95t94.5 237q0 141 -94.5 235.5t-235.5 94.5t-235.5 -94.5t-94.5 -235.5q0 -143 94 -237.5t236 -94.5zM388 834h-62
v432h156q71 0 112.5 -35.5t41.5 -96.5q0 -92 -90 -122l98 -178h-70l-88 164h-98v-164zM570 1132q0 37 -23.5 56.5t-66.5 19.5h-92v-152h92q43 0 66.5 19.5t23.5 56.5z" />
    <glyph glyph-name="macron" unicode="&#xaf;" horiz-adv-x="672" 
d="M134 1654v56h404v-56h-404z" />
    <glyph glyph-name="degree" unicode="&#xb0;" horiz-adv-x="484" 
d="M450 1208q0 -90 -59 -149t-149 -59t-149 59t-59 149t59 149t149 59t149 -59t59 -149zM398 1208q0 69 -44.5 114.5t-111.5 45.5t-111.5 -45.5t-44.5 -114.5t44.5 -114.5t111.5 -45.5t111.5 45.5t44.5 114.5z" />
    <glyph glyph-name="plusminus" unicode="&#xb1;" horiz-adv-x="1320" 
d="M174 750h456v396h60v-396h456v-60h-456v-396h-60v396h-456v60zM174 0v60h972v-60h-972z" />
    <glyph glyph-name="uni00B2" unicode="&#xb2;" horiz-adv-x="724" 
d="M209 664h415v-63h-522v55l253 224q112 99 150 158.5t38 137.5q0 83 -48 131t-131 48q-87 0 -141 -60t-55 -160h-68q2 128 75.5 206t190.5 78q108 0 176 -67t68 -173q0 -92 -45.5 -166.5t-169.5 -182.5z" />
    <glyph glyph-name="uni00B3" unicode="&#xb3;" horiz-adv-x="738" 
d="M335 1045h-57v49l234 254h-388v63h484v-54l-232 -252q118 -5 190 -73t72 -175q0 -118 -76.5 -191t-200.5 -73q-121 0 -192 71.5t-69 192.5h68q-2 -93 49.5 -146.5t143.5 -53.5q96 0 152.5 55t56.5 147q0 88 -61.5 137t-173.5 49z" />
    <glyph glyph-name="acute" unicode="&#xb4;" horiz-adv-x="390" 
d="M284 1714l-116 -184h-54l94 184h76z" />
    <glyph glyph-name="uni00B5" unicode="&#xb5;" horiz-adv-x="1080" 
d="M218 -406h-64v1340h66v-556q0 -171 73 -258.5t217 -87.5q160 0 250 106.5t90 295.5v498h64v-932h-48l-16 166l-26 4q-39 -88 -130.5 -141t-205.5 -53q-75 0 -140 28t-106 76l-24 -8v-478z" />
    <glyph glyph-name="paragraph" unicode="&#xb6;" horiz-adv-x="1118" 
d="M74 1006q0 172 100.5 279t259.5 107h198v-1508h-64v730h-134q-160 0 -260 108.5t-100 283.5zM884 -120h-64v1512h64v-1512z" />
    <glyph glyph-name="periodcentered" unicode="&#xb7;" horiz-adv-x="500" 
d="M250 340q-57 0 -99.5 41.5t-42.5 98.5q0 58 42 100t100 42t100 -42t42 -100q0 -57 -42.5 -98.5t-99.5 -41.5z" />
    <glyph glyph-name="cedilla" unicode="&#xb8;" horiz-adv-x="432" 
d="M94 -318v40q43 -20 90 -20t74.5 21t27.5 57q0 37 -24 57.5t-68 20.5t-90 -22l-8 26l74 162h24v-34l-52 -116q53 20 82 20q51 0 82.5 -30.5t31.5 -79.5q0 -56 -40 -90t-104 -34t-100 22z" />
    <glyph glyph-name="uni00B9" unicode="&#xb9;" horiz-adv-x="484" 
d="M100 1260l222 150h62v-809h-67v728l-184 -126z" />
    <glyph glyph-name="ordmasculine" unicode="&#xba;" horiz-adv-x="936" 
d="M468 595q-166 0 -266 111.5t-102 298.5q2 182 102.5 292t265.5 110t265.5 -110t102.5 -292q-2 -187 -102 -298.5t-266 -111.5zM468 668q130 0 209.5 91.5t79.5 241.5t-79.5 241.5t-209.5 91.5t-209.5 -91.5t-79.5 -241.5t79.5 -241.5t209.5 -91.5z" />
    <glyph glyph-name="guillemotright" unicode="&#xbb;" horiz-adv-x="1078" 
d="M172 0h-62l408 466l-408 466h62l408 -466zM572 0h-62l408 466l-408 466h62l408 -466z" />
    <glyph glyph-name="questiondown" unicode="&#xbf;" horiz-adv-x="998" 
d="M540 1418q40 0 69 -28.5t29 -67.5t-29 -67.5t-69 -28.5q-38 0 -66 28.5t-28 67.5t28 67.5t66 28.5zM518 1082h62v-42q0 -53 -15.5 -98t-48 -84t-64 -67t-82.5 -65q-52 -40 -83 -67.5t-67.5 -71t-54 -94t-17.5 -109.5q0 -151 99 -249.5t251 -98.5q142 0 244 97t108 237h64
q-6 -165 -126.5 -280.5t-289.5 -115.5q-181 0 -297.5 115.5t-116.5 294.5q0 57 15 108t35 86t57.5 73.5t63.5 60t73 56.5q99 74 144.5 133t45.5 139v42z" />
    <glyph glyph-name="Agrave" unicode="&#xc0;" horiz-adv-x="1236" 
d="M643 1532h-54l-114 186h78zM286 454l-170 -454h-66l526 1392h84l526 -1392h-66l-170 454h-664zM930 508l-312 836l-312 -836h624z" />
    <glyph glyph-name="Aacute" unicode="&#xc1;" horiz-adv-x="1236" 
d="M766 1716l-116 -184h-54l94 184h76zM286 454l-170 -454h-66l526 1392h84l526 -1392h-66l-170 454h-664zM930 508l-312 836l-312 -836h624z" />
    <glyph glyph-name="Acircumflex" unicode="&#xc2;" horiz-adv-x="1236" 
d="M530 1532h-62l113 162h58l124 -162h-62l-88 117zM286 454l-170 -454h-66l526 1392h84l526 -1392h-66l-170 454h-664zM930 508l-312 836l-312 -836h624z" />
    <glyph glyph-name="Atilde" unicode="&#xc3;" horiz-adv-x="1236" 
d="M464 1572h-41q0 74 24 115t69 41q18 0 36 -9t28.5 -18t29.5 -27q52 -50 86 -50q58 0 64 104h41q-5 -156 -104 -156q-20 0 -40 10.5t-29 18.5t-31 29q-46 46 -72 46t-42 -27t-19 -77zM286 454l-170 -454h-66l526 1392h84l526 -1392h-66l-170 454h-664zM930 508l-312 836
l-312 -836h624z" />
    <glyph glyph-name="Adieresis" unicode="&#xc4;" horiz-adv-x="1236" 
d="M488 1578q-28 0 -49 20.5t-21 47.5q0 29 21 50.5t49 21.5q27 0 48.5 -22t21.5 -50q0 -27 -21.5 -47.5t-48.5 -20.5zM752 1578q-28 0 -49 20.5t-21 47.5q0 29 21 50.5t49 21.5q27 0 48.5 -22t21.5 -50q0 -27 -21.5 -47.5t-48.5 -20.5zM286 454l-170 -454h-66l526 1392h84
l526 -1392h-66l-170 454h-664zM930 508l-312 836l-312 -836h624z" />
    <glyph glyph-name="Aring" unicode="&#xc5;" horiz-adv-x="1236" 
d="M625 1534q-60 0 -98 38.5t-38 98.5q0 59 38.5 97.5t97.5 38.5q58 0 97 -39t39 -97q0 -57 -39.5 -97t-96.5 -40zM625 1584q37 0 60 24.5t23 62.5t-23.5 63t-59.5 25t-59.5 -24.5t-23.5 -63.5q0 -38 23 -62.5t60 -24.5zM286 454l-170 -454h-66l526 1392h84l526 -1392h-66
l-170 454h-664zM930 508l-312 836l-312 -836h624z" />
    <glyph glyph-name="AE" unicode="&#xc6;" horiz-adv-x="1514" 
d="M1464 2h-846v452h-332l-170 -454h-66l526 1392l886 2v-60h-778v-604h712v-60h-712v-608h780v-60zM618 1344l-312 -836h312v836z" />
    <glyph glyph-name="Ccedilla" unicode="&#xc7;" horiz-adv-x="1432" 
d="M748 -22q-20 0 -29 1l-38 -82q69 15 123 -18.5t54 -94.5q0 -56 -40 -90t-104 -34t-100 22v40q43 -20 90 -20t74.5 21t27.5 57q0 37 -24 57.5t-68 20.5t-90 -22l-8 26l55 120q-254 28 -410.5 223.5t-156.5 490.5q0 320 181.5 520t470.5 200q208 0 364 -115.5t206 -306.5
h-70q-51 164 -189 261t-317 97q-257 0 -416.5 -182t-159.5 -474q0 -291 160 -472.5t416 -181.5q179 0 320.5 92t193.5 244h70q-56 -180 -216 -290t-370 -110z" />
    <glyph glyph-name="Egrave" unicode="&#xc8;" horiz-adv-x="1174" 
d="M643 1530h-54l-114 186h78zM1040 0h-846v1392h844v-60h-778v-604h712v-60h-712v-608h780v-60z" />
    <glyph glyph-name="Eacute" unicode="&#xc9;" horiz-adv-x="1174" 
d="M766 1714l-116 -184h-54l94 184h76zM1040 0h-846v1392h844v-60h-778v-604h712v-60h-712v-608h780v-60z" />
    <glyph glyph-name="Ecircumflex" unicode="&#xca;" horiz-adv-x="1174" 
d="M530 1530h-62l113 162h58l124 -162h-62l-88 117zM1040 0h-846v1392h844v-60h-778v-604h712v-60h-712v-608h780v-60z" />
    <glyph glyph-name="Edieresis" unicode="&#xcb;" horiz-adv-x="1174" 
d="M488 1576q-28 0 -49 20.5t-21 47.5q0 29 21 50.5t49 21.5q27 0 48.5 -22t21.5 -50q0 -27 -21.5 -47.5t-48.5 -20.5zM752 1576q-28 0 -49 20.5t-21 47.5q0 29 21 50.5t49 21.5q27 0 48.5 -22t21.5 -50q0 -27 -21.5 -47.5t-48.5 -20.5zM1040 0h-846v1392h844v-60h-778v-604
h712v-60h-712v-608h780v-60z" />
    <glyph glyph-name="Igrave" unicode="&#xcc;" horiz-adv-x="456" 
d="M301 1530h-54l-114 186h78zM262 1392v-1392h-68v1392h68z" />
    <glyph glyph-name="Iacute" unicode="&#xcd;" horiz-adv-x="456" 
d="M340 1714l-116 -184h-54l94 184h76zM262 1392v-1392h-68v1392h68z" />
    <glyph glyph-name="Icircumflex" unicode="&#xce;" horiz-adv-x="456" 
d="M143 1530h-62l113 162h58l124 -162h-62l-88 117zM262 1392v-1392h-68v1392h68z" />
    <glyph glyph-name="Idieresis" unicode="&#xcf;" horiz-adv-x="456" 
d="M98 1576q-28 0 -49 20.5t-21 47.5q0 29 21 50.5t49 21.5q27 0 48.5 -22t21.5 -50q0 -27 -21.5 -47.5t-48.5 -20.5zM362 1576q-28 0 -49 20.5t-21 47.5q0 29 21 50.5t49 21.5q27 0 48.5 -22t21.5 -50q0 -27 -21.5 -47.5t-48.5 -20.5zM262 1392v-1392h-68v1392h68z" />
    <glyph glyph-name="Ntilde" unicode="&#xd1;" horiz-adv-x="1386" 
d="M543 1570h-41q0 74 24 115t69 41q18 0 36 -9t28.5 -18t29.5 -27q52 -50 86 -50q58 0 64 104h41q-5 -156 -104 -156q-20 0 -40 10.5t-29 18.5t-31 29q-46 46 -72 46t-42 -27t-19 -77zM270 1392l854 -1292v1292h68v-1392h-74l-856 1296v-1296h-68v1392h76z" />
    <glyph glyph-name="Ograve" unicode="&#xd2;" horiz-adv-x="1492" 
d="M817 1530h-54l-114 186h78zM746 -26q-190 0 -336 90.5t-226 254.5t-80 377q0 324 177 523t465 199t465 -199t177 -523t-177 -523t-465 -199zM746 30q257 0 418.5 185.5t161.5 480.5q0 195 -73 346.5t-205 235.5t-302 84q-258 0 -418 -184.5t-160 -481.5q0 -296 161 -481
t417 -185z" />
    <glyph glyph-name="Oacute" unicode="&#xd3;" horiz-adv-x="1492" 
d="M870 1714l-116 -184h-54l94 184h76zM746 -26q-190 0 -336 90.5t-226 254.5t-80 377q0 324 177 523t465 199t465 -199t177 -523t-177 -523t-465 -199zM746 30q257 0 418.5 185.5t161.5 480.5q0 195 -73 346.5t-205 235.5t-302 84q-258 0 -418 -184.5t-160 -481.5
q0 -296 161 -481t417 -185z" />
    <glyph glyph-name="Ocircumflex" unicode="&#xd4;" horiz-adv-x="1492" 
d="M631 1530h-62l113 162h58l124 -162h-62l-88 117zM746 -26q-190 0 -336 90.5t-226 254.5t-80 377q0 324 177 523t465 199t465 -199t177 -523t-177 -523t-465 -199zM746 30q257 0 418.5 185.5t161.5 480.5q0 195 -73 346.5t-205 235.5t-302 84q-258 0 -418 -184.5
t-160 -481.5q0 -296 161 -481t417 -185z" />
    <glyph glyph-name="Otilde" unicode="&#xd5;" horiz-adv-x="1492" 
d="M589 1570h-41q0 74 24 115t69 41q18 0 36 -9t28.5 -18t29.5 -27q52 -50 86 -50q58 0 64 104h41q-5 -156 -104 -156q-20 0 -40 10.5t-29 18.5t-31 29q-46 46 -72 46t-42 -27t-19 -77zM746 -26q-190 0 -336 90.5t-226 254.5t-80 377q0 324 177 523t465 199t465 -199
t177 -523t-177 -523t-465 -199zM746 30q257 0 418.5 185.5t161.5 480.5q0 195 -73 346.5t-205 235.5t-302 84q-258 0 -418 -184.5t-160 -481.5q0 -296 161 -481t417 -185z" />
    <glyph glyph-name="Odieresis" unicode="&#xd6;" horiz-adv-x="1492" 
d="M598 1576q-28 0 -49 20.5t-21 47.5q0 29 21 50.5t49 21.5q27 0 48.5 -22t21.5 -50q0 -27 -21.5 -47.5t-48.5 -20.5zM862 1576q-28 0 -49 20.5t-21 47.5q0 29 21 50.5t49 21.5q27 0 48.5 -22t21.5 -50q0 -27 -21.5 -47.5t-48.5 -20.5zM746 -26q-190 0 -336 90.5
t-226 254.5t-80 377q0 324 177 523t465 199t465 -199t177 -523t-177 -523t-465 -199zM746 30q257 0 418.5 185.5t161.5 480.5q0 195 -73 346.5t-205 235.5t-302 84q-258 0 -418 -184.5t-160 -481.5q0 -296 161 -481t417 -185z" />
    <glyph glyph-name="multiply" unicode="&#xd7;" horiz-adv-x="1320" 
d="M282 1080l378 -378l380 378l42 -42l-380 -378l380 -380l-42 -42l-380 380l-380 -380l-42 42l380 380l-378 378z" />
    <glyph glyph-name="Oslash" unicode="&#xd8;" horiz-adv-x="1492" 
d="M1283 1392l-109 -135q103 -97 158.5 -240.5t55.5 -320.5q0 -324 -177 -523t-465 -199q-280 0 -456 190l-133 -164h-54l159 197q-158 196 -158 499q0 324 177 523t465 199q232 0 395 -132l86 106h56zM168 696q0 -268 135 -449l800 991q-151 124 -357 124
q-258 0 -418 -184.5t-160 -481.5zM746 30q257 0 418.5 185.5t161.5 480.5q0 160 -50 291.5t-141 221.5l-805 -995q160 -184 416 -184z" />
    <glyph glyph-name="Ugrave" unicode="&#xd9;" horiz-adv-x="1354" 
d="M643 1530h-54l-114 186h78zM1102 470v922h68v-924q0 -231 -129.5 -361.5t-360.5 -130.5q-234 0 -365 130t-131 362v924h68v-922q0 -207 110.5 -317.5t317.5 -110.5q203 0 312.5 111.5t109.5 316.5z" />
    <glyph glyph-name="Uacute" unicode="&#xda;" horiz-adv-x="1354" 
d="M766 1714l-116 -184h-54l94 184h76zM1102 470v922h68v-924q0 -231 -129.5 -361.5t-360.5 -130.5q-234 0 -365 130t-131 362v924h68v-922q0 -207 110.5 -317.5t317.5 -110.5q203 0 312.5 111.5t109.5 316.5z" />
    <glyph glyph-name="Ucircumflex" unicode="&#xdb;" horiz-adv-x="1354" 
d="M591 1530h-62l113 162h58l124 -162h-62l-88 117zM1102 470v922h68v-924q0 -231 -129.5 -361.5t-360.5 -130.5q-234 0 -365 130t-131 362v924h68v-922q0 -207 110.5 -317.5t317.5 -110.5q203 0 312.5 111.5t109.5 316.5z" />
    <glyph glyph-name="Udieresis" unicode="&#xdc;" horiz-adv-x="1354" 
d="M557 1576q-28 0 -49 20.5t-21 47.5q0 29 21 50.5t49 21.5q27 0 48.5 -22t21.5 -50q0 -27 -21.5 -47.5t-48.5 -20.5zM821 1576q-28 0 -49 20.5t-21 47.5q0 29 21 50.5t49 21.5q27 0 48.5 -22t21.5 -50q0 -27 -21.5 -47.5t-48.5 -20.5zM1102 470v922h68v-924
q0 -231 -129.5 -361.5t-360.5 -130.5q-234 0 -365 130t-131 362v924h68v-922q0 -207 110.5 -317.5t317.5 -110.5q203 0 312.5 111.5t109.5 316.5z" />
    <glyph glyph-name="Yacute" unicode="&#xdd;" horiz-adv-x="1200" 
d="M696 1714l-116 -184h-54l94 184h76zM118 1390l482 -736l482 736h72l-520 -790v-602h-68v602l-520 790h72z" />
    <glyph glyph-name="germandbls" unicode="&#xdf;" horiz-adv-x="1184" 
d="M262 1332v-1758h-68v1816l832 2v-60l-452 -493q226 9 366 -107.5t140 -312.5q0 -202 -130 -326.5t-340 -124.5v63q183 0 292.5 107t109.5 285q0 170 -119 266t-331 96h-74v50l454 497h-680z" />
    <glyph glyph-name="agrave" unicode="&#xe0;" horiz-adv-x="1022" 
d="M582 1085h-54l-114 186h78zM424 -24q-143 0 -226.5 71.5t-83.5 192.5q0 122 89.5 196.5t258.5 93.5l176 20q127 15 162 56l4 10q-3 284 -294 284q-135 0 -213.5 -59.5t-84.5 -164.5h-64q6 128 105 204t259 76q171 0 263.5 -87t92.5 -247v-622h-64v210
q-37 -97 -145.5 -165.5t-234.5 -68.5zM436 30q169 0 268.5 111.5t99.5 302.5v104q-49 -40 -338 -62q-140 -18 -214 -80t-74 -164q0 -99 69 -155.5t189 -56.5z" />
    <glyph glyph-name="aacute" unicode="&#xe1;" horiz-adv-x="1022" 
d="M585 1280l-116 -184h-54l94 184h76zM424 -24q-143 0 -226.5 71.5t-83.5 192.5q0 122 89.5 196.5t258.5 93.5l176 20q127 15 162 56l4 10q-3 284 -294 284q-135 0 -213.5 -59.5t-84.5 -164.5h-64q6 128 105 204t259 76q171 0 263.5 -87t92.5 -247v-622h-64v210
q-37 -97 -145.5 -165.5t-234.5 -68.5zM436 30q169 0 268.5 111.5t99.5 302.5v104q-49 -40 -338 -62q-140 -18 -214 -80t-74 -164q0 -99 69 -155.5t189 -56.5z" />
    <glyph glyph-name="acircumflex" unicode="&#xe2;" horiz-adv-x="1022" 
d="M425 1084h-62l113 162h58l124 -162h-62l-88 117zM424 -24q-143 0 -226.5 71.5t-83.5 192.5q0 122 89.5 196.5t258.5 93.5l176 20q127 15 162 56l4 10q-3 284 -294 284q-135 0 -213.5 -59.5t-84.5 -164.5h-64q6 128 105 204t259 76q171 0 263.5 -87t92.5 -247v-622h-64
v210q-37 -97 -145.5 -165.5t-234.5 -68.5zM436 30q169 0 268.5 111.5t99.5 302.5v104q-49 -40 -338 -62q-140 -18 -214 -80t-74 -164q0 -99 69 -155.5t189 -56.5z" />
    <glyph glyph-name="atilde" unicode="&#xe3;" horiz-adv-x="1022" 
d="M331 1096h-41q0 74 24 115t69 41q18 0 36 -9t28.5 -18t29.5 -27q52 -50 86 -50q58 0 64 104h41q-5 -156 -104 -156q-20 0 -40 10.5t-29 18.5t-31 29q-46 46 -72 46t-42 -27t-19 -77zM424 -24q-143 0 -226.5 71.5t-83.5 192.5q0 122 89.5 196.5t258.5 93.5l176 20
q127 15 162 56l4 10q-3 284 -294 284q-135 0 -213.5 -59.5t-84.5 -164.5h-64q6 128 105 204t259 76q171 0 263.5 -87t92.5 -247v-622h-64v210q-37 -97 -145.5 -165.5t-234.5 -68.5zM436 30q169 0 268.5 111.5t99.5 302.5v104q-49 -40 -338 -62q-140 -18 -214 -80t-74 -164
q0 -99 69 -155.5t189 -56.5z" />
    <glyph glyph-name="adieresis" unicode="&#xe4;" horiz-adv-x="1022" 
d="M367 1074q-28 0 -49 20.5t-21 47.5q0 29 21 50.5t49 21.5q27 0 48.5 -22t21.5 -50q0 -27 -21.5 -47.5t-48.5 -20.5zM631 1074q-28 0 -49 20.5t-21 47.5q0 29 21 50.5t49 21.5q27 0 48.5 -22t21.5 -50q0 -27 -21.5 -47.5t-48.5 -20.5zM424 -24q-143 0 -226.5 71.5
t-83.5 192.5q0 122 89.5 196.5t258.5 93.5l176 20q127 15 162 56l4 10q-3 284 -294 284q-135 0 -213.5 -59.5t-84.5 -164.5h-64q6 128 105 204t259 76q171 0 263.5 -87t92.5 -247v-622h-64v210q-37 -97 -145.5 -165.5t-234.5 -68.5zM436 30q169 0 268.5 111.5t99.5 302.5
v104q-49 -40 -338 -62q-140 -18 -214 -80t-74 -164q0 -99 69 -155.5t189 -56.5z" />
    <glyph glyph-name="aring" unicode="&#xe5;" horiz-adv-x="1022" 
d="M484 1083q-60 0 -98 38.5t-38 98.5q0 59 38.5 97.5t97.5 38.5q58 0 97 -39t39 -97q0 -57 -39.5 -97t-96.5 -40zM484 1133q37 0 60 24.5t23 62.5t-23.5 63t-59.5 25t-59.5 -24.5t-23.5 -63.5q0 -38 23 -62.5t60 -24.5zM424 -24q-143 0 -226.5 71.5t-83.5 192.5
q0 122 89.5 196.5t258.5 93.5l176 20q127 15 162 56l4 10q-3 284 -294 284q-135 0 -213.5 -59.5t-84.5 -164.5h-64q6 128 105 204t259 76q171 0 263.5 -87t92.5 -247v-622h-64v210q-37 -97 -145.5 -165.5t-234.5 -68.5zM436 30q169 0 268.5 111.5t99.5 302.5v104
q-49 -40 -338 -62q-140 -18 -214 -80t-74 -164q0 -99 69 -155.5t189 -56.5z" />
    <glyph glyph-name="ae" unicode="&#xe6;" horiz-adv-x="1789" 
d="M424 -24q-143 0 -226.5 71.5t-83.5 192.5q0 122 89.5 196.5t258.5 93.5l176 20q127 15 162 56l4 10q-3 284 -294 284q-135 0 -213.5 -59.5t-84.5 -164.5h-64q6 128 105 204t259 76q144 0 232.5 -61.5t113.5 -177.5q53 114 152 176.5t231 62.5q195 0 314 -131.5
t120 -348.5l-807 2v-54q11 -177 113.5 -285.5t259.5 -108.5q114 2 205.5 61.5t128.5 158.5h60q-41 -125 -148 -199.5t-246 -74.5q-127 0 -223 57.5t-150 164.5v-198h-64v210q-37 -97 -145.5 -165.5t-234.5 -68.5zM869 526l744 -2q-16 172 -117.5 275t-254.5 103
q-152 0 -254 -102.5t-118 -273.5zM178 242q0 -99 69 -155.5t189 -56.5q169 0 268.5 111.5t99.5 302.5v104q-49 -40 -338 -62q-140 -18 -214 -80t-74 -164z" />
    <glyph glyph-name="ccedilla" unicode="&#xe7;" horiz-adv-x="1014" 
d="M860 250h60q-43 -125 -146 -198.5t-242 -75.5l-50 -107q69 15 123 -18.5t54 -94.5q0 -56 -40 -90t-104 -34t-100 22v40q43 -20 90 -20t74.5 21t27.5 57q0 37 -24 57.5t-68 20.5t-90 -22l-8 26l66 144q-176 15 -282.5 147t-106.5 337q0 223 121 358.5t321 135.5
q142 0 242 -74t136 -202h-58q-32 101 -119 161.5t-201 60.5q-171 0 -275.5 -120.5t-104.5 -317.5q0 -194 101.5 -313t266.5 -119q115 0 206.5 59.5t129.5 158.5z" />
    <glyph glyph-name="egrave" unicode="&#xe8;" horiz-adv-x="1056" 
d="M587 1110h-54l-114 186h78zM962 476l-808 2q-4 -199 100 -323.5t274 -124.5q114 2 205.5 61.5t128.5 158.5h60q-41 -125 -148 -199.5t-246 -74.5q-196 0 -313.5 133.5t-120.5 360.5q3 222 121 354t313 132t314 -131.5t120 -348.5zM528 902q-152 0 -254 -102.5
t-118 -273.5l744 -2q-16 172 -117.5 275t-254.5 103z" />
    <glyph glyph-name="eacute" unicode="&#xe9;" horiz-adv-x="1056" 
d="M631 1277l-116 -184h-54l94 184h76zM962 476l-808 2q-4 -199 100 -323.5t274 -124.5q114 2 205.5 61.5t128.5 158.5h60q-41 -125 -148 -199.5t-246 -74.5q-196 0 -313.5 133.5t-120.5 360.5q3 222 121 354t313 132t314 -131.5t120 -348.5zM528 902q-152 0 -254 -102.5
t-118 -273.5l744 -2q-16 172 -117.5 275t-254.5 103z" />
    <glyph glyph-name="ecircumflex" unicode="&#xea;" horiz-adv-x="1056" 
d="M449 1089h-62l113 162h58l124 -162h-62l-88 117zM962 476l-808 2q-4 -199 100 -323.5t274 -124.5q114 2 205.5 61.5t128.5 158.5h60q-41 -125 -148 -199.5t-246 -74.5q-196 0 -313.5 133.5t-120.5 360.5q3 222 121 354t313 132t314 -131.5t120 -348.5zM528 902
q-152 0 -254 -102.5t-118 -273.5l744 -2q-16 172 -117.5 275t-254.5 103z" />
    <glyph glyph-name="edieresis" unicode="&#xeb;" horiz-adv-x="1056" 
d="M405 1088q-28 0 -49 20.5t-21 47.5q0 29 21 50.5t49 21.5q27 0 48.5 -22t21.5 -50q0 -27 -21.5 -47.5t-48.5 -20.5zM669 1088q-28 0 -49 20.5t-21 47.5q0 29 21 50.5t49 21.5q27 0 48.5 -22t21.5 -50q0 -27 -21.5 -47.5t-48.5 -20.5zM962 476l-808 2q-4 -199 100 -323.5
t274 -124.5q114 2 205.5 61.5t128.5 158.5h60q-41 -125 -148 -199.5t-246 -74.5q-196 0 -313.5 133.5t-120.5 360.5q3 222 121 354t313 132t314 -131.5t120 -348.5zM528 902q-152 0 -254 -102.5t-118 -273.5l744 -2q-16 172 -117.5 275t-254.5 103z" />
    <glyph glyph-name="igrave" unicode="&#xec;" horiz-adv-x="320" 
d="M217 1096h-54l-114 186h78zM128 0v932h64v-932h-64z" />
    <glyph glyph-name="iacute" unicode="&#xed;" horiz-adv-x="320" 
d="M274 1287l-116 -184h-54l94 184h76zM128 0v932h64v-932h-64z" />
    <glyph glyph-name="icircumflex" unicode="&#xee;" horiz-adv-x="320" 
d="M67 1098h-62l113 162h58l124 -162h-62l-88 117zM128 0v932h64v-932h-64z" />
    <glyph glyph-name="idieresis" unicode="&#xef;" horiz-adv-x="320" 
d="M28 1123q-28 0 -49 20.5t-21 47.5q0 29 21 50.5t49 21.5q27 0 48.5 -22t21.5 -50q0 -27 -21.5 -47.5t-48.5 -20.5zM292 1123q-28 0 -49 20.5t-21 47.5q0 29 21 50.5t49 21.5q27 0 48.5 -22t21.5 -50q0 -27 -21.5 -47.5t-48.5 -20.5zM128 0v932h64v-932h-64z" />
    <glyph glyph-name="ntilde" unicode="&#xf1;" horiz-adv-x="1100" 
d="M384 1097h-41q0 74 24 115t69 41q18 0 36 -9t28.5 -18t29.5 -27q52 -50 86 -50q58 0 64 104h41q-5 -156 -104 -156q-20 0 -40 10.5t-29 18.5t-31 29q-46 46 -72 46t-42 -27t-19 -77zM230 2h-64v928h64v-190q40 94 144 155t216 61q173 0 264.5 -98t91.5 -288v-570h-64v552
q0 348 -292 348q-162 0 -261 -107.5t-99 -284.5v-506z" />
    <glyph glyph-name="ograve" unicode="&#xf2;" horiz-adv-x="1072" 
d="M585 1078h-54l-114 186h78zM978 470q-3 -226 -122.5 -360t-319.5 -134t-319.5 134t-122.5 360q3 221 123.5 353.5t318.5 132.5t318.5 -132.5t123.5 -353.5zM536 30q170 0 275 120.5t105 315.5t-105 315.5t-275 120.5t-275 -120.5t-105 -315.5t105 -315.5t275 -120.5z" />
    <glyph glyph-name="oacute" unicode="&#xf3;" horiz-adv-x="1072" 
d="M621 1278l-116 -184h-54l94 184h76zM978 470q-3 -226 -122.5 -360t-319.5 -134t-319.5 134t-122.5 360q3 221 123.5 353.5t318.5 132.5t318.5 -132.5t123.5 -353.5zM536 30q170 0 275 120.5t105 315.5t-105 315.5t-275 120.5t-275 -120.5t-105 -315.5t105 -315.5
t275 -120.5z" />
    <glyph glyph-name="ocircumflex" unicode="&#xf4;" horiz-adv-x="1072" 
d="M435 1069h-62l113 162h58l124 -162h-62l-88 117zM978 470q-3 -226 -122.5 -360t-319.5 -134t-319.5 134t-122.5 360q3 221 123.5 353.5t318.5 132.5t318.5 -132.5t123.5 -353.5zM536 30q170 0 275 120.5t105 315.5t-105 315.5t-275 120.5t-275 -120.5t-105 -315.5
t105 -315.5t275 -120.5z" />
    <glyph glyph-name="otilde" unicode="&#xf5;" horiz-adv-x="1072" 
d="M365 1093h-41q0 74 24 115t69 41q18 0 36 -9t28.5 -18t29.5 -27q52 -50 86 -50q58 0 64 104h41q-5 -156 -104 -156q-20 0 -40 10.5t-29 18.5t-31 29q-46 46 -72 46t-42 -27t-19 -77zM978 470q-3 -226 -122.5 -360t-319.5 -134t-319.5 134t-122.5 360q3 221 123.5 353.5
t318.5 132.5t318.5 -132.5t123.5 -353.5zM536 30q170 0 275 120.5t105 315.5t-105 315.5t-275 120.5t-275 -120.5t-105 -315.5t105 -315.5t275 -120.5z" />
    <glyph glyph-name="odieresis" unicode="&#xf6;" horiz-adv-x="1072" 
d="M385 1081q-28 0 -49 20.5t-21 47.5q0 29 21 50.5t49 21.5q27 0 48.5 -22t21.5 -50q0 -27 -21.5 -47.5t-48.5 -20.5zM649 1081q-28 0 -49 20.5t-21 47.5q0 29 21 50.5t49 21.5q27 0 48.5 -22t21.5 -50q0 -27 -21.5 -47.5t-48.5 -20.5zM978 470q-3 -226 -122.5 -360
t-319.5 -134t-319.5 134t-122.5 360q3 221 123.5 353.5t318.5 132.5t318.5 -132.5t123.5 -353.5zM536 30q170 0 275 120.5t105 315.5t-105 315.5t-275 120.5t-275 -120.5t-105 -315.5t105 -315.5t275 -120.5z" />
    <glyph glyph-name="divide" unicode="&#xf7;" horiz-adv-x="1320" 
d="M660 886q-39 0 -67.5 28t-28.5 66q0 39 28.5 67.5t67.5 28.5t67.5 -28.5t28.5 -67.5q0 -38 -28.5 -66t-67.5 -28zM174 618h972v-60h-972v60zM660 98q-39 0 -67.5 28t-28.5 66q0 39 28.5 67.5t67.5 28.5t67.5 -28.5t28.5 -67.5q0 -38 -28.5 -66t-67.5 -28z" />
    <glyph glyph-name="oslash" unicode="&#xf8;" horiz-adv-x="1072" 
d="M846 1030l-82 -133q100 -59 156 -169.5t58 -257.5q-3 -226 -122.5 -360t-319.5 -134q-168 0 -282 97l-94 -153h-54l114 186q-123 134 -126 364q3 221 123.5 353.5t318.5 132.5q101 0 186 -37l68 111h56zM156 466q0 -187 98 -306l437 710q-70 32 -155 32
q-170 0 -275 -120.5t-105 -315.5zM536 30q170 0 275 120.5t105 315.5q0 129 -48.5 228.5t-134.5 153.5l-447 -724q102 -94 250 -94z" />
    <glyph glyph-name="ugrave" unicode="&#xf9;" horiz-adv-x="1100" 
d="M598 1095h-54l-114 186h78zM870 932h64v-928h-64v190q-40 -94 -144 -155t-216 -61q-173 0 -264.5 98t-91.5 288v570h64v-552q0 -348 292 -348q162 0 261 107.5t99 284.5v506z" />
    <glyph glyph-name="uacute" unicode="&#xfa;" horiz-adv-x="1100" 
d="M639 1292l-116 -184h-54l94 184h76zM870 932h64v-928h-64v190q-40 -94 -144 -155t-216 -61q-173 0 -264.5 98t-91.5 288v570h64v-552q0 -348 292 -348q162 0 261 107.5t99 284.5v506z" />
    <glyph glyph-name="ucircumflex" unicode="&#xfb;" horiz-adv-x="1100" 
d="M462 1102h-62l113 162h58l124 -162h-62l-88 117zM870 932h64v-928h-64v190q-40 -94 -144 -155t-216 -61q-173 0 -264.5 98t-91.5 288v570h64v-552q0 -348 292 -348q162 0 261 107.5t99 284.5v506z" />
    <glyph glyph-name="udieresis" unicode="&#xfc;" horiz-adv-x="1100" 
d="M404 1095q-28 0 -49 20.5t-21 47.5q0 29 21 50.5t49 21.5q27 0 48.5 -22t21.5 -50q0 -27 -21.5 -47.5t-48.5 -20.5zM668 1095q-28 0 -49 20.5t-21 47.5q0 29 21 50.5t49 21.5q27 0 48.5 -22t21.5 -50q0 -27 -21.5 -47.5t-48.5 -20.5zM870 932h64v-928h-64v190
q-40 -94 -144 -155t-216 -61q-173 0 -264.5 98t-91.5 288v570h64v-552q0 -348 292 -348q162 0 261 107.5t99 284.5v506z" />
    <glyph glyph-name="yacute" unicode="&#xfd;" horiz-adv-x="892" 
d="M538 1302l-116 -184h-54l94 184h76zM178 -418q-56 0 -116 10v46q92 -8 118 -8q78 2 120.5 35.5t75.5 120.5l48 134l-384 1012h66l348 -926l334 926h64l-420 -1164q-34 -96 -96 -141t-158 -45z" />
    <glyph glyph-name="ydieresis" unicode="&#xff;" horiz-adv-x="892" 
d="M308 1090q-28 0 -49 20.5t-21 47.5q0 29 21 50.5t49 21.5q27 0 48.5 -22t21.5 -50q0 -27 -21.5 -47.5t-48.5 -20.5zM572 1090q-28 0 -49 20.5t-21 47.5q0 29 21 50.5t49 21.5q27 0 48.5 -22t21.5 -50q0 -27 -21.5 -47.5t-48.5 -20.5zM178 -418q-56 0 -116 10v46
q92 -8 118 -8q78 2 120.5 35.5t75.5 120.5l48 134l-384 1012h66l348 -926l334 926h64l-420 -1164q-34 -96 -96 -141t-158 -45z" />
    <glyph glyph-name="Cacute" unicode="&#x106;" horiz-adv-x="1432" 
d="M866 1714l-116 -184h-54l94 184h76zM748 -22q-188 0 -334.5 90.5t-228 254t-81.5 373.5q0 320 181.5 520t470.5 200q208 0 364 -115.5t206 -306.5h-70q-51 164 -189 261t-317 97q-257 0 -416.5 -182t-159.5 -474q0 -291 160 -472.5t416 -181.5q179 0 320.5 92t193.5 244
h70q-56 -180 -216 -290t-370 -110z" />
    <glyph glyph-name="cacute" unicode="&#x107;" horiz-adv-x="1014" 
d="M623 1285l-116 -184h-54l94 184h76zM94 462q0 223 121 358.5t321 135.5q142 0 242 -74t136 -202h-58q-32 101 -119 161.5t-201 60.5q-171 0 -275.5 -120.5t-104.5 -317.5q0 -194 101.5 -313t266.5 -119q115 0 206.5 59.5t129.5 158.5h60q-44 -127 -149 -200.5t-247 -73.5
q-193 0 -311.5 134t-118.5 352z" />
    <glyph glyph-name="Ccaron" unicode="&#x10c;" horiz-adv-x="1432" 
d="M702 1563l-113 162h62l83 -117l88 117h62l-124 -162h-58zM748 -22q-188 0 -334.5 90.5t-228 254t-81.5 373.5q0 320 181.5 520t470.5 200q208 0 364 -115.5t206 -306.5h-70q-51 164 -189 261t-317 97q-257 0 -416.5 -182t-159.5 -474q0 -291 160 -472.5t416 -181.5
q179 0 320.5 92t193.5 244h70q-56 -180 -216 -290t-370 -110z" />
    <glyph glyph-name="ccaron" unicode="&#x10d;" horiz-adv-x="1014" 
d="M479 1112l-113 162h62l83 -117l88 117h62l-124 -162h-58zM94 462q0 223 121 358.5t321 135.5q142 0 242 -74t136 -202h-58q-32 101 -119 161.5t-201 60.5q-171 0 -275.5 -120.5t-104.5 -317.5q0 -194 101.5 -313t266.5 -119q115 0 206.5 59.5t129.5 158.5h60
q-44 -127 -149 -200.5t-247 -73.5q-193 0 -311.5 134t-118.5 352z" />
    <glyph glyph-name="Ecaron" unicode="&#x11a;" horiz-adv-x="1174" 
d="M619 1563l-113 162h62l83 -117l88 117h62l-124 -162h-58zM1040 0h-846v1392h844v-60h-778v-604h712v-60h-712v-608h780v-60z" />
    <glyph glyph-name="ecaron" unicode="&#x11b;" horiz-adv-x="1056" 
d="M479 1123l-113 162h62l83 -117l88 117h62l-124 -162h-58zM962 476l-808 2q-4 -199 100 -323.5t274 -124.5q114 2 205.5 61.5t128.5 158.5h60q-41 -125 -148 -199.5t-246 -74.5q-196 0 -313.5 133.5t-120.5 360.5q3 222 121 354t313 132t314 -131.5t120 -348.5zM528 902
q-152 0 -254 -102.5t-118 -273.5l744 -2q-16 172 -117.5 275t-254.5 103z" />
    <glyph glyph-name="dotlessi" unicode="&#x131;" horiz-adv-x="320" 
d="M128 0v932h64v-932h-64z" />
    <glyph glyph-name="Nacute" unicode="&#x143;" horiz-adv-x="1386" 
d="M766 1714l-116 -184h-54l94 184h76zM270 1392l854 -1292v1292h68v-1392h-74l-856 1296v-1296h-68v1392h76z" />
    <glyph glyph-name="nacute" unicode="&#x144;" horiz-adv-x="1100" 
d="M668 1292l-116 -184h-54l94 184h76zM230 2h-64v928h64v-190q40 94 144 155t216 61q173 0 264.5 -98t91.5 -288v-570h-64v552q0 348 -292 348q-162 0 -261 -107.5t-99 -284.5v-506z" />
    <glyph glyph-name="Ncaron" unicode="&#x147;" horiz-adv-x="1386" 
d="M679 1563l-113 162h62l83 -117l88 117h62l-124 -162h-58zM270 1392l854 -1292v1292h68v-1392h-74l-856 1296v-1296h-68v1392h76z" />
    <glyph glyph-name="ncaron" unicode="&#x148;" horiz-adv-x="1100" 
d="M521 1112l-113 162h62l83 -117l88 117h62l-124 -162h-58zM230 2h-64v928h64v-190q40 94 144 155t216 61q173 0 264.5 -98t91.5 -288v-570h-64v552q0 348 -292 348q-162 0 -261 -107.5t-99 -284.5v-506z" />
    <glyph glyph-name="OE" unicode="&#x152;" horiz-adv-x="2271" 
d="M746 -26q-190 0 -336 90.5t-226 254.5t-80 377q0 324 177 523t465 199q199 0 349 -98.5t226 -274.5v347h844v-60h-778v-590q0 -9 1 -14h711v-60h-711q-1 -6 -1 -18v-590h780v-60h-846v347q-76 -176 -226 -274.5t-349 -98.5zM168 696q0 -296 161 -481t417 -185
q234 0 391 156t184 413v194q-27 257 -183.5 413t-391.5 156q-258 0 -418 -184.5t-160 -481.5z" />
    <glyph glyph-name="oe" unicode="&#x153;" horiz-adv-x="1895" 
d="M1795 476l-808 2q-4 -199 100 -323.5t274 -124.5q114 2 205.5 61.5t128.5 158.5h60q-41 -125 -148 -199.5t-246 -74.5q-150 0 -255.5 80t-150.5 223q-45 -144 -152.5 -223.5t-260.5 -79.5q-200 0 -319.5 134t-122.5 360q3 221 123.5 353.5t318.5 132.5q151 0 259.5 -79.5
t153.5 -220.5q45 141 151 220.5t255 79.5q195 0 314 -131.5t120 -348.5zM162 466q0 -195 105 -315.5t275 -120.5t275 120.5t105 315.5t-105 315.5t-275 120.5t-275 -120.5t-105 -315.5zM989 526l744 -2q-16 172 -117.5 275t-254.5 103q-152 0 -254 -102.5t-118 -273.5z" />
    <glyph glyph-name="Sacute" unicode="&#x15a;" horiz-adv-x="1102" 
d="M658 1714l-116 -184h-54l94 184h76zM106 1048q0 168 122 268t326 100q173 0 279.5 -88t130.5 -248h-64q-18 132 -108.5 204t-237.5 72q-171 0 -275.5 -84.5t-104.5 -223.5q0 -218 254 -282l252 -64q156 -39 237 -128.5t81 -221.5q0 -173 -123 -274.5t-331 -101.5
q-188 0 -306.5 88.5t-139.5 243.5h66q12 -122 116 -196t264 -74q176 0 281 85t105 227q0 223 -260 290l-246 62q-318 79 -318 346z" />
    <glyph glyph-name="sacute" unicode="&#x15b;" horiz-adv-x="844" 
d="M519 1301l-116 -184h-54l94 184h76zM82 232h60q6 -93 74 -146.5t180 -53.5q128 0 202 55t74 149q0 76 -41.5 119t-138.5 69l-162 42q-114 30 -173 90.5t-59 147.5q0 114 86.5 183t229.5 69q138 0 220.5 -66.5t91.5 -185.5h-60q-9 93 -75.5 144.5t-176.5 51.5
q-122 0 -187 -51t-65 -145q0 -135 182 -184l160 -42q123 -31 177.5 -88.5t54.5 -153.5q0 -117 -92.5 -188.5t-243.5 -71.5q-143 0 -227.5 68.5t-90.5 187.5z" />
    <glyph glyph-name="Scedilla" unicode="&#x15e;" horiz-adv-x="1102" 
d="M998 352q0 -166 -114 -266.5t-310 -108.5l-37 -80q69 15 123 -18.5t54 -94.5q0 -56 -40 -90t-104 -34t-100 22v40q43 -20 90 -20t74.5 21t27.5 57q0 37 -24 57.5t-68 20.5t-90 -22l-8 26l52 114q-181 5 -293.5 93t-132.5 239h66q12 -122 116 -196t264 -74q176 0 281 85
t105 227q0 223 -260 290l-246 62q-318 79 -318 346q0 168 122 268t326 100q173 0 279.5 -88t130.5 -248h-64q-18 132 -108.5 204t-237.5 72q-171 0 -275.5 -84.5t-104.5 -223.5q0 -218 254 -282l252 -64q156 -39 237 -128.5t81 -221.5z" />
    <glyph glyph-name="scedilla" unicode="&#x15f;" horiz-adv-x="844" 
d="M736 236q0 -104 -74 -173t-200 -84l-38 -82q69 15 123 -18.5t54 -94.5q0 -56 -40 -90t-104 -34t-100 22v40q43 -20 90 -20t74.5 21t27.5 57q0 37 -24 57.5t-68 20.5t-90 -22l-8 26l52 114h-11q-143 0 -227.5 68.5t-90.5 187.5h60q6 -93 74 -146.5t180 -53.5q128 0 202 55
t74 149q0 76 -41.5 119t-138.5 69l-162 42q-114 30 -173 90.5t-59 147.5q0 114 86.5 183t229.5 69q138 0 220.5 -66.5t91.5 -185.5h-60q-9 93 -75.5 144.5t-176.5 51.5q-122 0 -187 -51t-65 -145q0 -135 182 -184l160 -42q123 -31 177.5 -88.5t54.5 -153.5z" />
    <glyph glyph-name="Scaron" unicode="&#x160;" horiz-adv-x="1102" 
d="M520 1563l-113 162h62l83 -117l88 117h62l-124 -162h-58zM106 1048q0 168 122 268t326 100q173 0 279.5 -88t130.5 -248h-64q-18 132 -108.5 204t-237.5 72q-171 0 -275.5 -84.5t-104.5 -223.5q0 -218 254 -282l252 -64q156 -39 237 -128.5t81 -221.5q0 -173 -123 -274.5
t-331 -101.5q-188 0 -306.5 88.5t-139.5 243.5h66q12 -122 116 -196t264 -74q176 0 281 85t105 227q0 223 -260 290l-246 62q-318 79 -318 346z" />
    <glyph glyph-name="scaron" unicode="&#x161;" horiz-adv-x="844" 
d="M370 1110l-113 162h62l83 -117l88 117h62l-124 -162h-58zM82 232h60q6 -93 74 -146.5t180 -53.5q128 0 202 55t74 149q0 76 -41.5 119t-138.5 69l-162 42q-114 30 -173 90.5t-59 147.5q0 114 86.5 183t229.5 69q138 0 220.5 -66.5t91.5 -185.5h-60q-9 93 -75.5 144.5
t-176.5 51.5q-122 0 -187 -51t-65 -145q0 -135 182 -184l160 -42q123 -31 177.5 -88.5t54.5 -153.5q0 -117 -92.5 -188.5t-243.5 -71.5q-143 0 -227.5 68.5t-90.5 187.5z" />
    <glyph glyph-name="Uring" unicode="&#x16e;" horiz-adv-x="1354" 
d="M673 1532q-60 0 -98 38.5t-38 98.5q0 59 38.5 97.5t97.5 38.5q58 0 97 -39t39 -97q0 -57 -39.5 -97t-96.5 -40zM673 1582q37 0 60 24.5t23 62.5t-23.5 63t-59.5 25t-59.5 -24.5t-23.5 -63.5q0 -38 23 -62.5t60 -24.5zM1102 470v922h68v-924q0 -231 -129.5 -361.5
t-360.5 -130.5q-234 0 -365 130t-131 362v924h68v-922q0 -207 110.5 -317.5t317.5 -110.5q203 0 312.5 111.5t109.5 316.5z" />
    <glyph glyph-name="uring" unicode="&#x16f;" horiz-adv-x="1100" 
d="M550 1082q-60 0 -98 38.5t-38 98.5q0 59 38.5 97.5t97.5 38.5q58 0 97 -39t39 -97q0 -57 -39.5 -97t-96.5 -40zM550 1132q37 0 60 24.5t23 62.5t-23.5 63t-59.5 25t-59.5 -24.5t-23.5 -63.5q0 -38 23 -62.5t60 -24.5zM870 932h64v-928h-64v190q-40 -94 -144 -155
t-216 -61q-173 0 -264.5 98t-91.5 288v570h64v-552q0 -348 292 -348q162 0 261 107.5t99 284.5v506z" />
    <glyph glyph-name="Wcircumflex" unicode="&#x174;" horiz-adv-x="1910" 
d="M869 1530h-62l113 162h58l124 -162h-62l-88 117zM992 1392l418 -1324l382 1324h70l-416 -1392h-68l-424 1312l-422 -1312h-72l-412 1392h72l378 -1328l418 1328h76z" />
    <glyph glyph-name="wcircumflex" unicode="&#x175;" horiz-adv-x="1436" 
d="M636 1042h-62l113 162h58l124 -162h-62l-88 117zM754 932l284 -872l290 872h58l-312 -932h-74l-282 892l-284 -892h-74l-310 932h58l290 -874l282 874h74z" />
    <glyph glyph-name="Ycircumflex" unicode="&#x176;" horiz-adv-x="1200" 
d="M530 1530h-62l113 162h58l124 -162h-62l-88 117zM118 1390l482 -736l482 736h72l-520 -790v-602h-68v602l-520 790h72z" />
    <glyph glyph-name="ycircumflex" unicode="&#x177;" horiz-adv-x="892" 
d="M371 1032h-62l113 162h58l124 -162h-62l-88 117zM178 -418q-56 0 -116 10v46q92 -8 118 -8q78 2 120.5 35.5t75.5 120.5l48 134l-384 1012h66l348 -926l334 926h64l-420 -1164q-34 -96 -96 -141t-158 -45z" />
    <glyph glyph-name="Ydieresis" unicode="&#x178;" horiz-adv-x="1200" 
d="M488 1576q-28 0 -49 20.5t-21 47.5q0 29 21 50.5t49 21.5q27 0 48.5 -22t21.5 -50q0 -27 -21.5 -47.5t-48.5 -20.5zM752 1576q-28 0 -49 20.5t-21 47.5q0 29 21 50.5t49 21.5q27 0 48.5 -22t21.5 -50q0 -27 -21.5 -47.5t-48.5 -20.5zM118 1390l482 -736l482 736h72
l-520 -790v-602h-68v602l-520 790h72z" />
    <glyph glyph-name="Zacute" unicode="&#x179;" horiz-adv-x="1152" 
d="M671 1714l-116 -184h-54l94 184h76zM1048 0h-944v68l880 1264h-876v60h950v-68l-880 -1264h870v-60z" />
    <glyph glyph-name="zacute" unicode="&#x17a;" horiz-adv-x="860" 
d="M546 1296l-116 -184h-54l94 184h76zM766 0h-672v54l604 826h-604v52h672v-56l-602 -824h602v-52z" />
    <glyph glyph-name="Zcaron" unicode="&#x17d;" horiz-adv-x="1152" 
d="M536 1563l-113 162h62l83 -117l88 117h62l-124 -162h-58zM1048 0h-944v68l880 1264h-876v60h950v-68l-880 -1264h870v-60z" />
    <glyph glyph-name="zcaron" unicode="&#x17e;" horiz-adv-x="860" 
d="M413 1114l-113 162h62l83 -117l88 117h62l-124 -162h-58zM766 0h-672v54l604 826h-604v52h672v-56l-602 -824h602v-52z" />
    <glyph glyph-name="florin" unicode="&#x192;" horiz-adv-x="1056" 
d="M160 772h354l66 452q27 168 192 168h148v-60h-162q-47 0 -77.5 -27.5t-36.5 -76.5l-66 -456h344v-60h-354l-110 -748q-12 -78 -59 -123t-119 -45h-186v60h186q44 0 76 29t38 75l110 752h-344v60z" />
    <glyph glyph-name="circumflex" unicode="&#x2c6;" horiz-adv-x="582" 
d="M168 1530h-62l122 186h126l122 -186h-62l-122 178z" />
    <glyph glyph-name="caron" unicode="&#x2c7;" horiz-adv-x="582" 
d="M228 1530l-122 186h62l124 -178l122 178h62l-122 -186h-126z" />
    <glyph glyph-name="breve" unicode="&#x2d8;" horiz-adv-x="620" 
d="M456 1716h56q-4 -90 -58 -141t-144 -51t-144 51t-58 141h56q4 -66 42 -101t104 -35t104 35t42 101z" />
    <glyph glyph-name="dotaccent" unicode="&#x2d9;" horiz-adv-x="372" 
d="M186 1576q-28 0 -49 20.5t-21 47.5q0 29 21 50.5t49 21.5q27 0 48.5 -22t21.5 -50q0 -27 -21.5 -47.5t-48.5 -20.5z" />
    <glyph glyph-name="ring" unicode="&#x2da;" horiz-adv-x="556" 
d="M278 1532q-81 0 -132.5 52.5t-51.5 133.5q0 80 52 132t132 52q78 0 131 -53t53 -131t-53 -132t-131 -54zM278 1582q57 0 92.5 38t35.5 98q0 59 -36.5 97.5t-91.5 38.5q-56 0 -92 -38t-36 -98t35.5 -98t92.5 -38z" />
    <glyph glyph-name="ogonek" unicode="&#x2db;" horiz-adv-x="344" 
d="M194 -28h19q-65 -48 -65 -110q0 -72 80 -72q14 0 22 2v-54q-24 -4 -46 -4q-49 0 -79.5 28.5t-30.5 75.5q0 81 100 134z" />
    <glyph glyph-name="tilde" unicode="&#x2dc;" horiz-adv-x="690" 
d="M160 1570h-52q0 74 30.5 115t85.5 41q22 0 44.5 -8.5t36.5 -18t37 -27.5q22 -17 34 -25t33 -16.5t41 -8.5q74 0 80 104h52q-6 -156 -130 -156q-25 0 -50.5 10.5t-37.5 19t-38 28.5q-48 38 -71 44q-10 2 -19 2q-33 0 -53 -27.5t-23 -76.5z" />
    <glyph glyph-name="hungarumlaut" unicode="&#x2dd;" horiz-adv-x="584" 
d="M268 1714l-112 -184h-50l90 184h72zM472 1714l-142 -184h-52l116 184h78z" />
    <glyph glyph-name="gravecomb" unicode="&#x300;" 
d="M257 1530h-54l-114 186h78z" />
    <glyph glyph-name="acutecomb" unicode="&#x301;" 
d="M177 1714l-116 -184h-54l94 184h76z" />
    <glyph glyph-name="uni0302" unicode="&#x302;" 
d="M-52 1530h-62l113 162h58l124 -162h-62l-88 117z" />
    <glyph glyph-name="tildecomb" unicode="&#x303;" 
d="M-226 1570h-41q0 74 24 115t69 41q18 0 36 -9t28.5 -18t29.5 -27q52 -50 86 -50q58 0 64 104h41q-5 -156 -104 -156q-20 0 -40 10.5t-29 18.5t-31 29q-46 46 -72 46t-42 -27t-19 -77z" />
    <glyph glyph-name="uni0304" unicode="&#x304;" 
d="M-538 1654v56h404v-56h-404z" />
    <glyph glyph-name="uni0306" unicode="&#x306;" 
d="M-164 1716h56q-4 -90 -58 -141t-144 -51t-144 51t-58 141h56q4 -66 42 -101t104 -35t104 35t42 101z" />
    <glyph glyph-name="uni0307" unicode="&#x307;" 
d="M-186 1576q-28 0 -49 20.5t-21 47.5q0 29 21 50.5t49 21.5q27 0 48.5 -22t21.5 -50q0 -27 -21.5 -47.5t-48.5 -20.5z" />
    <glyph glyph-name="uni0308" unicode="&#x308;" 
d="M-200 1576q-28 0 -49 20.5t-21 47.5q0 29 21 50.5t49 21.5q27 0 48.5 -22t21.5 -50q0 -27 -21.5 -47.5t-48.5 -20.5zM64 1576q-28 0 -49 20.5t-21 47.5q0 29 21 50.5t49 21.5q27 0 48.5 -22t21.5 -50q0 -27 -21.5 -47.5t-48.5 -20.5z" />
    <glyph glyph-name="uni030A" unicode="&#x30a;" 
d="M69 1532q-60 0 -98 38.5t-38 98.5q0 59 38.5 97.5t97.5 38.5q58 0 97 -39t39 -97q0 -57 -39.5 -97t-96.5 -40zM69 1582q37 0 60 24.5t23 62.5t-23.5 63t-59.5 25t-59.5 -24.5t-23.5 -63.5q0 -38 23 -62.5t60 -24.5z" />
    <glyph glyph-name="uni030B" unicode="&#x30b;" 
d="M-316 1714l-112 -184h-50l90 184h72zM-112 1714l-142 -184h-52l116 184h78z" />
    <glyph glyph-name="uni030C" unicode="&#x30c;" 
d="M-103 1563l-113 162h62l83 -117l88 117h62l-124 -162h-58z" />
    <glyph glyph-name="uni0312" unicode="&#x312;" 
d="M-100 1574q0 -30 -19.5 -51t-46.5 -21q-36 0 -56 25t-20 73q0 62 34 108t84 54v-22q-40 -7 -63.5 -39.5t-16.5 -75.5q38 21 71 3t33 -54z" />
    <glyph glyph-name="uni0326" unicode="&#x326;" 
d="M-250 -134q0 30 19.5 51t46.5 21q36 0 56 -25t20 -73q0 -62 -34 -108t-84 -54v22q40 7 63.5 39.5t16.5 75.5q-38 -21 -71 -3t-33 54z" />
    <glyph glyph-name="uni0327" unicode="&#x327;" 
d="M182 -318v40q43 -20 90 -20t74.5 21t27.5 57q0 37 -24 57.5t-68 20.5t-90 -22l-8 26l74 162h24l17 -19l-50 -108q69 15 123 -18.5t54 -94.5q0 -56 -40 -90t-104 -34t-100 22z" />
    <glyph glyph-name="uni0335" unicode="&#x335;" 
d="M-700 1156h506v-48h-506v48z" />
    <glyph glyph-name="uni0337" unicode="&#x337;" 
d="M-380 654v54l326 156v-54z" />
    <glyph glyph-name="uni0338" unicode="&#x338;" 
d="M-106 1030l-686 -1110h-54l684 1110h56z" />
    <glyph glyph-name="Wgrave" unicode="&#x1e80;" horiz-adv-x="1910" 
d="M1041 1530h-54l-114 186h78zM992 1392l418 -1324l382 1324h70l-416 -1392h-68l-424 1312l-422 -1312h-72l-412 1392h72l378 -1328l418 1328h76z" />
    <glyph glyph-name="wgrave" unicode="&#x1e81;" horiz-adv-x="1436" 
d="M800 1095h-54l-114 186h78zM754 932l284 -872l290 872h58l-312 -932h-74l-282 892l-284 -892h-74l-310 932h58l290 -874l282 874h74z" />
    <glyph glyph-name="Wacute" unicode="&#x1e82;" horiz-adv-x="1910" 
d="M1044 1714l-116 -184h-54l94 184h76zM992 1392l418 -1324l382 1324h70l-416 -1392h-68l-424 1312l-422 -1312h-72l-412 1392h72l378 -1328l418 1328h76z" />
    <glyph glyph-name="wacute" unicode="&#x1e83;" horiz-adv-x="1436" 
d="M802 1272l-116 -184h-54l94 184h76zM754 932l284 -872l290 872h58l-312 -932h-74l-282 892l-284 -892h-74l-310 932h58l290 -874l282 874h74z" />
    <glyph glyph-name="Wdieresis" unicode="&#x1e84;" horiz-adv-x="1910" 
d="M821 1576q-28 0 -49 20.5t-21 47.5q0 29 21 50.5t49 21.5q27 0 48.5 -22t21.5 -50q0 -27 -21.5 -47.5t-48.5 -20.5zM1085 1576q-28 0 -49 20.5t-21 47.5q0 29 21 50.5t49 21.5q27 0 48.5 -22t21.5 -50q0 -27 -21.5 -47.5t-48.5 -20.5zM992 1392l418 -1324l382 1324h70
l-416 -1392h-68l-424 1312l-422 -1312h-72l-412 1392h72l378 -1328l418 1328h76z" />
    <glyph glyph-name="wdieresis" unicode="&#x1e85;" horiz-adv-x="1436" 
d="M580 1041q-28 0 -49 20.5t-21 47.5q0 29 21 50.5t49 21.5q27 0 48.5 -22t21.5 -50q0 -27 -21.5 -47.5t-48.5 -20.5zM844 1041q-28 0 -49 20.5t-21 47.5q0 29 21 50.5t49 21.5q27 0 48.5 -22t21.5 -50q0 -27 -21.5 -47.5t-48.5 -20.5zM754 932l284 -872l290 872h58
l-312 -932h-74l-282 892l-284 -892h-74l-310 932h58l290 -874l282 874h74z" />
    <glyph glyph-name="Ygrave" unicode="&#x1ef2;" horiz-adv-x="1200" 
d="M643 1530h-54l-114 186h78zM118 1390l482 -736l482 736h72l-520 -790v-602h-68v602l-520 790h72z" />
    <glyph glyph-name="ygrave" unicode="&#x1ef3;" horiz-adv-x="892" 
d="M546 1043h-54l-114 186h78zM178 -418q-56 0 -116 10v46q92 -8 118 -8q78 2 120.5 35.5t75.5 120.5l48 134l-384 1012h66l348 -926l334 926h64l-420 -1164q-34 -96 -96 -141t-158 -45z" />
    <glyph glyph-name="endash" unicode="&#x2013;" horiz-adv-x="1812" 
d="M144 480v56h1524v-56h-1524z" />
    <glyph glyph-name="emdash" unicode="&#x2014;" horiz-adv-x="2214" 
d="M144 480v56h1926v-56h-1926z" />
    <glyph glyph-name="quoteleft" unicode="&#x2018;" horiz-adv-x="460" 
d="M185 1235q56 39 99.5 21t43.5 -74q0 -39 -25.5 -63.5t-64.5 -24.5q-44 0 -73 35t-29 89q0 69 47 127.5t117 74.5v-34q-45 -13 -80.5 -61t-34.5 -90z" />
    <glyph glyph-name="quoteright" unicode="&#x2019;" horiz-adv-x="460" 
d="M277 1283q-56 -39 -99.5 -21t-43.5 74q0 39 25.5 63.5t64.5 24.5q44 0 73 -35t29 -89q0 -69 -47 -127.5t-117 -74.5v34q45 13 80.5 61t34.5 90z" />
    <glyph glyph-name="quotesinglbase" unicode="&#x201a;" horiz-adv-x="460" 
d="M277 27q-56 -39 -99.5 -21t-43.5 74q0 39 25.5 63.5t64.5 24.5q44 0 73 -35t29 -89q0 -69 -47 -127.5t-117 -74.5v34q45 13 80.5 61t34.5 90z" />
    <glyph glyph-name="quotedblleft" unicode="&#x201c;" horiz-adv-x="752" 
d="M183 1235q56 39 99.5 21t43.5 -74q0 -39 -25.5 -63.5t-64.5 -24.5q-44 0 -73 35t-29 89q0 69 47 127.5t117 74.5v-34q-45 -13 -80.5 -61t-34.5 -90zM475 1235q56 39 99.5 21t43.5 -74q0 -39 -25.5 -63.5t-64.5 -24.5q-44 0 -73 35t-29 89q0 69 47 127.5t117 74.5v-34
q-45 -13 -80.5 -61t-34.5 -90z" />
    <glyph glyph-name="quotedblright" unicode="&#x201d;" horiz-adv-x="752" 
d="M277 1283q-56 -39 -99.5 -21t-43.5 74q0 39 25.5 63.5t64.5 24.5q44 0 73 -35t29 -89q0 -69 -47 -127.5t-117 -74.5v34q45 13 80.5 61t34.5 90zM569 1283q-56 -39 -99.5 -21t-43.5 74q0 39 25.5 63.5t64.5 24.5q44 0 73 -35t29 -89q0 -69 -47 -127.5t-117 -74.5v34
q45 13 80.5 61t34.5 90z" />
    <glyph glyph-name="quotedblbase" unicode="&#x201e;" horiz-adv-x="752" 
d="M277 27q-56 -39 -99.5 -21t-43.5 74q0 39 25.5 63.5t64.5 24.5q44 0 73 -35t29 -89q0 -69 -47 -127.5t-117 -74.5v34q45 13 80.5 61t34.5 90zM569 27q-56 -39 -99.5 -21t-43.5 74q0 39 25.5 63.5t64.5 24.5q44 0 73 -35t29 -89q0 -69 -47 -127.5t-117 -74.5v34
q45 13 80.5 61t34.5 90z" />
    <glyph glyph-name="dagger" unicode="&#x2020;" horiz-adv-x="564" 
d="M256 528v616h-190v48h190v200h52v-200h190v-48h-190v-616h-52z" />
    <glyph glyph-name="daggerdbl" unicode="&#x2021;" horiz-adv-x="566" 
d="M256 528v260h-188v48h188v248h-190v48h190v260h52v-260h190v-48h-190v-248h192v-48h-192v-260h-52z" />
    <glyph glyph-name="bullet" unicode="&#x2022;" horiz-adv-x="702" 
d="M352 266q-99 0 -171.5 71.5t-72.5 168.5q0 99 72.5 170.5t171.5 71.5t170.5 -71.5t71.5 -170.5q0 -97 -72 -168.5t-170 -71.5z" />
    <glyph glyph-name="ellipsis" unicode="&#x2026;" horiz-adv-x="1300" 
d="M250 -22q-39 0 -67.5 28t-28.5 66q0 39 28.5 67.5t67.5 28.5t67.5 -28.5t28.5 -67.5q0 -38 -28.5 -66t-67.5 -28zM650 -22q-39 0 -67.5 28t-28.5 66q0 39 28.5 67.5t67.5 28.5t67.5 -28.5t28.5 -67.5q0 -38 -28.5 -66t-67.5 -28zM1050 -22q-39 0 -67.5 28t-28.5 66
q0 39 28.5 67.5t67.5 28.5t67.5 -28.5t28.5 -67.5q0 -38 -28.5 -66t-67.5 -28z" />
    <glyph glyph-name="perthousand" unicode="&#x2030;" horiz-adv-x="2516" 
d="M770 1090q0 -143 -91.5 -235.5t-232.5 -92.5t-232.5 92.5t-91.5 235.5t91.5 235.5t232.5 92.5t232.5 -92.5t91.5 -235.5zM1450 1392l-1056 -1392h-70l1054 1392h72zM710 1090q0 120 -73.5 196t-190.5 76t-190.5 -76t-73.5 -196t74 -196t190 -76t190 76t74 196zM1654 302
q0 -143 -91.5 -235.5t-232.5 -92.5t-232.5 92.5t-91.5 235.5t91.5 235.5t232.5 92.5t232.5 -92.5t91.5 -235.5zM2394 302q0 -143 -91.5 -235.5t-232.5 -92.5t-232.5 92.5t-91.5 235.5t91.5 235.5t232.5 92.5t232.5 -92.5t91.5 -235.5zM1594 302q0 120 -73.5 196t-190.5 76
t-190.5 -76t-73.5 -196t74 -196t190 -76t190 76t74 196zM2334 302q0 120 -73.5 196t-190.5 76t-190.5 -76t-73.5 -196t74 -196t190 -76t190 76t74 196z" />
    <glyph glyph-name="minute" unicode="&#x2032;" horiz-adv-x="334" 
d="M220 1356l-28 -342h-48l-30 342q-1 28 13.5 45t40.5 17q25 0 39.5 -16.5t12.5 -45.5z" />
    <glyph glyph-name="guilsinglleft" unicode="&#x2039;" horiz-adv-x="678" 
d="M506 0l-408 466l408 466h62l-408 -466l408 -466h-62z" />
    <glyph glyph-name="guilsinglright" unicode="&#x203a;" horiz-adv-x="678" 
d="M172 0h-62l408 466l-408 466h62l408 -466z" />
    <glyph glyph-name="fraction" unicode="&#x2044;" horiz-adv-x="194" 
d="M574 1392l-892 -1392h-62l890 1392h64z" />
    <glyph glyph-name="Euro" unicode="&#x20ac;" horiz-adv-x="1342" 
d="M944 -24q-275 0 -466.5 152t-239.5 408h-160v56h150q-4 72 -4 104q0 69 8 114h-154v56h162q49 253 239.5 400.5t466.5 147.5q158 0 262 -38v-60q-121 36 -266 36q-245 0 -414.5 -130.5t-217.5 -355.5h642v-56h-652q-8 -51 -8 -114q0 -36 4 -104h656v-56h-646
q48 -231 220.5 -364.5t421.5 -133.5q143 0 260 38v-64q-128 -36 -264 -36z" />
    <glyph glyph-name="uni2116" unicode="&#x2116;" horiz-adv-x="2438" 
d="M2324 966q0 -195 -133.5 -329.5t-326.5 -134.5q-190 0 -325 136t-135 328q0 190 133 321t327 131q195 0 327.5 -130t132.5 -322zM270 1392l854 -1292v1292h68v-1392h-74l-856 1296v-1296h-68v1392h76zM2258 966q0 168 -112.5 280t-281.5 112q-168 0 -281 -112.5
t-113 -279.5q0 -168 114.5 -286t279.5 -118q170 0 282 115t112 289zM2264 254h-800v60h800v-60z" />
    <glyph glyph-name="trademark" unicode="&#x2122;" horiz-adv-x="1260" 
d="M240 1338h-188v68h448v-68h-188v-484h-72v484zM642 854h-68v552h68l216 -476l214 476h68v-552h-68v400l-180 -400h-68l-182 394v-394z" />
    <glyph glyph-name="estimated" unicode="&#x212e;" horiz-adv-x="1558" 
d="M134 692q0 204 82 363.5t229 248t335 88.5q294 0 469 -175t175 -469q0 -64 -2 -92h-1116v-378q83 -119 210.5 -181.5t287.5 -62.5q151 0 282.5 71.5t199.5 190.5l50 -18q-75 -138 -217.5 -217t-318.5 -79q-298 0 -482 196t-184 514zM306 1082v-382h946v418
q-76 106 -199.5 164t-272.5 58q-145 0 -269 -67.5t-205 -190.5z" />
    <glyph glyph-name="arrowleft" unicode="&#x2190;" horiz-adv-x="1772" 
d="M746 -50l-42 -42l-564 562l564 562l42 -42l-488 -490h1380v-60h-1380z" />
    <glyph glyph-name="arrowup" unicode="&#x2191;" horiz-adv-x="1424" 
d="M184 786l-44 44l572 556l572 -556l-44 -44l-498 482v-1268h-60v1268z" />
    <glyph glyph-name="arrowright" unicode="&#x2192;" horiz-adv-x="1772" 
d="M1026 1088l42 42l564 -562l-564 -562l-42 42l488 490h-1380v60h1380z" />
    <glyph glyph-name="arrowdown" unicode="&#x2193;" horiz-adv-x="1404" 
d="M1222 414l42 -42l-562 -564l-562 564l42 42l490 -488v1466h60v-1466z" />
    <glyph glyph-name="arrowboth" unicode="&#x2194;" horiz-adv-x="2044" 
d="M140 484l350 358v-96l-218 -230l494 2v2l1010 -2l-222 230v94l350 -356l-348 -360v98l214 230l-998 -2v2l-500 -2l222 -234v-94z" />
    <glyph glyph-name="arrowupdn" unicode="&#x2195;" horiz-adv-x="1024" 
d="M510 -304l-356 352h92l232 -218l-2 482v530l2 486l-232 -216h-92l356 348l360 -348h-98l-230 216v-1498l230 218h98z" />
    <glyph glyph-name="uni2196" unicode="&#x2196;" horiz-adv-x="1660" 
d="M134 1392h796v-60l-692 -2l1282 -1282l-42 -42l-1282 1282l-2 -692h-60v796z" />
    <glyph glyph-name="uni2197" unicode="&#x2197;" horiz-adv-x="1660" 
d="M730 1330v62h796v-796h-62v692l-1282 -1282l-42 42l1282 1282h-692z" />
    <glyph glyph-name="uni2198" unicode="&#x2198;" horiz-adv-x="1656" 
d="M1462 800h60v-796h-796v60l692 2l-1278 1278l42 42l1278 -1278z" />
    <glyph glyph-name="uni2199" unicode="&#x2199;" horiz-adv-x="1662" 
d="M930 58v-60h-796v796h62v-692l1284 1284l42 -42l-1284 -1284z" />
    <glyph glyph-name="partialdiff" unicode="&#x2202;" horiz-adv-x="1224" 
d="M134 466q0 202 140 344t338 142q108 0 203.5 -50t158.5 -140l26 12q-32 97 -75.5 178t-108 159t-133.5 145.5t-175 159.5h78q269 -218 386.5 -428t117.5 -472q0 -242 -134.5 -391t-351.5 -149q-201 0 -335.5 140.5t-134.5 349.5zM200 464q0 -189 115 -310.5t293 -121.5
q182 0 299 124.5t117 317.5q0 183 -113.5 301.5t-290.5 118.5q-182 0 -301 -122t-119 -308z" />
    <glyph glyph-name="emptyset" unicode="&#x2205;" horiz-adv-x="1564" 
d="M780 -24q-150 0 -280.5 58t-221.5 166l-176 -160l-36 38l178 162q-140 193 -140 456q0 154 51 288t140.5 228.5t215 149t269.5 54.5q151 0 280.5 -57t225.5 -167l176 162l36 -40l-180 -164q140 -192 140 -454q0 -154 -51 -287.5t-140.5 -228.5t-215.5 -149.5t-271 -54.5z
M174 696q0 -233 122 -410l938 860q-84 99 -201.5 152.5t-252.5 53.5q-173 0 -311.5 -84.5t-216.5 -234.5t-78 -337zM780 40q130 0 243 49.5t193 136t126 208.5t46 262q0 234 -122 408l-938 -858q84 -100 200.5 -153t251.5 -53z" />
    <glyph glyph-name="summation" unicode="&#x2211;" horiz-adv-x="1032" 
d="M938 0h-884v86l456 606l-456 614v86h884v-60h-828l476 -644l-472 -628h824v-60z" />
    <glyph glyph-name="minus" unicode="&#x2212;" horiz-adv-x="1320" 
d="M174 690h972v-60h-972v60z" />
    <glyph glyph-name="radical" unicode="&#x221a;" horiz-adv-x="1356" 
d="M406 0l-386 930h70l350 -868l500 1330h322v-60h-278l-510 -1332h-68z" />
    <glyph glyph-name="infinity" unicode="&#x221e;" horiz-adv-x="1684" 
d="M134 544q0 140 91 229t233 89q108 0 197 -62.5t175 -197.5h24q86 135 175 197.5t197 62.5q142 0 233 -89t91 -229q0 -139 -91.5 -228.5t-232.5 -89.5q-110 0 -197.5 61t-174.5 199h-24q-87 -138 -174.5 -199t-197.5 -61q-141 0 -232.5 89.5t-91.5 228.5zM202 544
q0 -117 73 -187.5t193 -70.5q177 0 324 250v16q-147 250 -324 250q-121 0 -193.5 -70.5t-72.5 -187.5zM892 552v-16q147 -250 324 -250q120 0 193 70.5t73 187.5t-72.5 187.5t-193.5 70.5q-177 0 -324 -250z" />
    <glyph glyph-name="integral" unicode="&#x222b;" horiz-adv-x="680" 
d="M206 -28h-132v56h132q42 0 72 30t30 72v1124q0 69 48.5 117.5t117.5 48.5h132v-56h-132q-42 0 -72 -30t-30 -72v-1124q0 -69 -48.5 -117.5t-117.5 -48.5z" />
    <glyph glyph-name="approxequal" unicode="&#x2248;" horiz-adv-x="1320" 
d="M1088 866h58q-3 -118 -63 -187t-159 -69q-47 0 -103.5 19.5t-89 37t-97.5 55.5q-53 32 -83.5 49t-75.5 33t-81 16q-78 0 -116 -45.5t-46 -144.5h-58q5 116 64 183t156 67q41 0 90.5 -17.5t83 -35.5t92.5 -53q57 -34 91 -52t84 -35t91 -17q76 0 115 47.5t47 148.5z
M1088 516h58q-3 -118 -63 -187t-159 -69q-47 0 -103.5 19.5t-89 37t-97.5 55.5q-53 32 -83.5 49t-75.5 33t-81 16q-78 0 -116 -45.5t-46 -144.5h-58q5 116 64 183t156 67q41 0 90.5 -17.5t83 -35.5t92.5 -53q57 -34 91 -52t84 -35t91 -17q76 0 115 47.5t47 148.5z" />
    <glyph glyph-name="notequal" unicode="&#x2260;" horiz-adv-x="1320" 
d="M338 38l164 304h-328v60h360l188 344h-548v60h580l164 304h64l-164 -304h328v-60h-360l-188 -344h548v-60h-580l-164 -304h-64z" />
    <glyph glyph-name="lessequal" unicode="&#x2264;" horiz-adv-x="1320" 
d="M1146 290v-64l-972 350v72l972 350v-64l-912 -322zM174 0v60h972v-60h-972z" />
    <glyph glyph-name="greaterequal" unicode="&#x2265;" horiz-adv-x="1320" 
d="M1146 576l-972 -350v64l912 322l-912 322v64l972 -350v-72zM174 60h972v-60h-972v60z" />
    <glyph glyph-name="filledbox" unicode="&#x25a0;" horiz-adv-x="1660" 
d="M134 0v1392h1392v-1392h-1392z" />
    <glyph glyph-name="uni25A1" unicode="&#x25a1;" horiz-adv-x="1660" 
d="M134 0v1392h1392v-1392h-1392zM1462 1328h-1264v-1264h1264v1264z" />
    <glyph glyph-name="triagup" unicode="&#x25b2;" horiz-adv-x="1932" 
d="M144 0l822 1378l822 -1378h-1644z" />
    <glyph glyph-name="uni25B3" unicode="&#x25b3;" horiz-adv-x="1936" 
d="M968 1382l824 -1382h-1648zM276 70h1384l-692 1164z" />
    <glyph glyph-name="circle" unicode="&#x25cb;" horiz-adv-x="1804" 
d="M902 -116q-209 0 -385.5 103t-279.5 279.5t-103 385.5q0 155 61 297.5t164 245.5t245.5 164t297.5 61t297.5 -61t245.5 -164t164 -245.5t61 -297.5t-61 -297.5t-164 -245.5t-245.5 -164t-297.5 -61zM902 -36q140 0 267.5 54.5t219.5 146.5t146.5 219.5t54.5 267.5
q0 139 -55 266.5t-147 219.5t-219.5 147t-266.5 55q-140 0 -267.5 -54.5t-219.5 -146.5t-146.5 -219.5t-54.5 -267.5t54.5 -267.5t146.5 -219.5t219.5 -146.5t267.5 -54.5z" />
    <glyph glyph-name="uni25CF" unicode="&#x25cf;" horiz-adv-x="1804" 
d="M902 -116q-209 0 -385.5 103t-279.5 279.5t-103 385.5q0 155 61 297.5t164 245.5t245.5 164t297.5 61t297.5 -61t245.5 -164t164 -245.5t61 -297.5t-61 -297.5t-164 -245.5t-245.5 -164t-297.5 -61z" />
    <glyph glyph-name="uni2713" unicode="&#x2713;" horiz-adv-x="1512" 
d="M488 22l-410 442l50 50l354 -386l692 832l58 -44z" />
    <glyph glyph-name="uniF8FF" unicode="&#xf8ff;" horiz-adv-x="2262" 
d="M1148 80q-151 0 -288.5 59.5t-237 160t-158.5 238.5t-59 289t59 289t159 237.5t238 158.5t289 59t288.5 -59t237.5 -159t159 -237.5t59 -288.5q0 -203 -99.5 -375t-271 -272t-375.5 -100zM1150 168q178 0 329 88t239 239t88 329q0 134 -52 255.5t-139.5 209.5t-208 140.5
t-253.5 53.5q-134 0 -256 -52t-210 -139.5t-140 -209t-52 -254.5q0 -134 51.5 -256t139 -210.5t209 -141t255.5 -52.5zM939 454h-2l32 30q19 18 33 58q44 120 60 170q35 101 77 175v3q-2 -4 -8 -9.5t-7 -7.5q-13 -15 -14 -16q-30 -46 -41 -76q-3 -8 -11 -8q-132 4 -235 89
q-52 50 -79 74q-2 2 -7.5 10t-9.5 12q12 -2 15 -5q69 -27 131 -36q50 -5 96 3q53 12 63 16q3 0 6.5 1.5t7.5 3.5t7 3q-7 4 -21.5 11t-22.5 11t-18.5 12t-17.5 17h25q53 0 100 25q82 51 182 81q31 10 77 15q4 0 28.5 1t29.5 0q72 -2 118 -44q6 -6 12.5 -13.5t14 -16.5
t11.5 -14q-1 -1 -1 -2l-7 2q-61 23 -111 5t-83 -71q-15 -28 -33 -74q-10 -23 -31 -73t-32 -76q-44 -85 -87 -135q-38 -46 -87 -77q-59 -45 -155 -73q-2 0 -4 -1h-1zM1877 -72q-21 0 -35.5 14.5t-14.5 35.5t14.5 35.5t35.5 14.5t35.5 -14.5t14.5 -35.5t-14.5 -35.5
t-35.5 -14.5zM1877 -57q15 0 25 10t10 25t-10 25t-25 10t-25 -10t-10 -25t10 -25t25 -10zM1871 -44h-11v46h18q17 0 17 -14q0 -8 -7 -13l10 -19h-13l-8 15h-6v-15zM1885 -13q0 3 -7 3h-7v-8h7q7 0 7 5zM944 -33q0 -9 7 -15t18 -6q10 0 17 6t7 15q0 8 -7 14t-17 6t-17.5 -6
t-7.5 -14zM590 -121q0 62 -49 85q-24 12 -58 12h-79v-195h78q68 0 95 46q13 20 13 52zM544 -121q0 -42 -29 -56q-13 -6 -35 -6h-29v124h29q42 0 57 -27q7 -13 7 -35zM653 -156h113v11q0 35 -23 56q-21 18 -56 18q-50 0 -70 -36q-10 -18 -10 -39q0 -47 39 -66q18 -9 44 -9
q42 0 61 21q10 8 13 23l-42 3q-4 -12 -18 -15q-4 -2 -14 -2q-22 0 -33 17q-4 10 -4 18zM823 -174l-45 -2q6 -45 75 -45q46 0 64 23q10 12 10 25q0 31 -48 39l-30 5q-21 4 -21 15q0 15 25 15q24 0 28 -18l42 3q-6 43 -71 43q-43 0 -61 -21q-9 -10 -9 -24q0 -33 48 -42l29 -5
q21 -3 21 -15q0 -14 -27 -14q-25 0 -30 18zM1059 -231l-42 -4q10 -41 76 -41q49 0 70 25q11 13 11 31v147h-46v-24h-1q-8 15 -25 22q-8 4 -23 4q-40 0 -58 -33q-9 -17 -9 -41q0 -47 33 -64q14 -7 34 -7q24 0 38 12q7 7 9 11h2v-26q0 -28 -34 -28q-20 0 -28 8zM1201 -219h45
v85q0 18 15 26q10 4 17 4q29 0 29 -29v-86h46v93q0 35 -27 48q-11 7 -30 7q-37 0 -49 -28h-1v26h-45v-146zM1411 -212q19 -9 44 -9q50 0 71 35q10 17 10 40q0 46 -38 66q-18 9 -43 9q-52 0 -72 -36q-10 -18 -10 -39q0 -45 38 -66zM1734 -216q10 -5 28 -5q23 0 37 11
q6 4 11 12h1v-21h44v99q0 26 -21 37q-21 12 -49 12q-40 0 -60 -20q-9 -10 -13 -23l43 -3q5 17 29 17q25 0 25 -19v-1q0 -9 -17 -10q-11 -2 -23 -3q-28 -2 -43 -11q-19 -11 -19 -34q0 -28 27 -38zM946 -219h46v146h-46v-146zM1596 -219h52l57 146h-48l-34 -104h-2l-35 104
h-48zM722 -131h-69q2 17 16 25q6 5 19 5q22 0 30 -17q2 -5 4 -13zM1474 -184q-8 -6 -19 -6q-23 0 -31 21q-4 9 -4 23q0 28 16 38q7 6 19 6q21 0 31 -21q4 -14 4 -23q0 -27 -16 -38zM1128 -145q0 -41 -34 -41q-23 0 -31 19q-4 8 -4 22q0 27 16 37q8 5 19 5q22 0 30 -20
q4 -8 4 -22zM1793 -190q-7 -3 -18 -3q-24 0 -24 16q0 11 12 16q5 2 15 4q26 3 31 6v-15q0 -16 -16 -24z" />
    <glyph glyph-name="_Designova" horiz-adv-x="2122" 
d="M1059 -161q-174 0 -333 68.5t-274 184t-183.5 275t-68.5 333.5q1 140 45 271t123.5 236.5t185 185t236.5 123t271 43.5q175 0 334 -68t274.5 -183t184 -274t68.5 -334t-68.5 -334.5t-184 -275t-275.5 -183.5t-335 -68zM1061 -59q154 0 294 60t241.5 161.5t161.5 241.5
t60 294q0 207 -101 381.5t-274.5 276t-379.5 101.5q-154 0 -294.5 -59.5t-242.5 -161t-162 -241.5t-60 -295t59.5 -295.5t161 -242t241.5 -161.5t295 -60zM817 271h-4l37 31q22 20 41 69q12 35 35.5 101.5t33.5 96.5q41 117 86 200v2q-11 -13 -14 -18q-11 -8 -15 -21
q-34 -42 -50 -87q-6 -7 -13 -7q-157 8 -271 104q-13 13 -43.5 41.5t-44.5 42.5q-8 10 -22 24q12 0 17 -5q73 -29 154 -41q60 -7 108 4q32 5 71 18q6 0 15 4.5l11 5.5q-8 5 -24 12.5t-25.5 12.5t-21.5 14t-21 19h28q52 0 115 27q107 68 211 98q47 13 88 13q9 0 33 2t35 1
q88 -5 136 -52q7 -6 14.5 -14.5t16 -19t13.5 -16.5v-2q-4 2 -10 2q-70 27 -127 6.5t-96 -79.5q-9 -16 -23 -50t-16 -39q-11 -23 -35 -81.5t-39 -88.5q-49 -99 -99 -159q-23 -31 -98 -88q-73 -52 -181 -83h-6z" />
    <glyph glyph-name="_VendorID" horiz-adv-x="1699" 
d="M1499 1577v-1582h-1299v1582h1299zM1429 1508h-1159v-1445h1159v1445zM617 832q-81 0 -138 56t-57 136q0 73 62 164l129 189h86l-113 -162q10 2 31 2q83 0 137 -55t54 -138q0 -81 -55 -136.5t-136 -55.5zM1082 832q-81 0 -137.5 55.5t-56.5 136.5q0 43 13 79t46 85
l129 189h88l-116 -162q10 2 34 2q81 0 136 -55.5t55 -137.5q0 -81 -55.5 -136.5t-135.5 -55.5zM617 900q52 0 86 35t34 89t-33.5 88t-86.5 34q-55 0 -88.5 -33t-33.5 -89q0 -55 34 -89.5t88 -34.5zM1082 900q52 0 84.5 35t32.5 89t-33 88t-84 34q-55 0 -89.5 -34t-34.5 -88
t34.5 -89t89.5 -35zM617 201q-81 0 -138 57t-57 138q0 79 62 166l129 183h86l-112 -160q12 4 30 4q83 0 137 -55.5t54 -137.5t-55.5 -138.5t-135.5 -56.5zM1082 201q-81 0 -137.5 56.5t-56.5 138.5q0 45 12.5 81.5t46.5 84.5l129 183h88l-115 -160q12 4 33 4q81 0 136 -55.5
t55 -137.5t-55.5 -138.5t-135.5 -56.5zM617 271q53 0 86.5 34.5t33.5 90.5q0 52 -33.5 86t-86.5 34q-54 0 -88 -33.5t-34 -86.5q0 -57 34 -91t88 -34zM1082 271q52 0 84.5 34.5t32.5 90.5q0 53 -32.5 86.5t-84.5 33.5q-55 0 -89.5 -33.5t-34.5 -86.5q0 -56 34.5 -90.5
t89.5 -34.5zM897 -104v-58h-19v58h-7v12h7v10q0 21 26 21h8v-15q-15 2 -15 -7v-9h15v-12h-15zM234 -165q-30 0 -30 38q0 18 10 28t24 10q10 0 17 -4l5 -7v35h17v-97h-17v12l-5 -9q-10 -6 -21 -6zM448 -85q-11 0 -11 10t11 10t11 -10t-11 -10zM1120 -150v-13h-11
q-20 0 -20 13v46h-11v12h11v17h19v-17h13v-12h-13v-38q2 -13 12 -8zM326 -165q-36 0 -36 38q0 17 10 27.5t26 10.5t25.5 -10t9.5 -26q0 -3 -2 -7h-50q2 -18 17 -18q14 0 16 12h17q-6 -27 -33 -27zM397 -165q-27 0 -31 24h19q4 -13 12 -13q12 0 12 10q0 5 -16 12
q-24 7 -24 21q0 22 28 22t28 -22h-18q-3 9 -10 9q-9 0 -9 -8q0 -6 16 -12q22 -4 22 -20q0 -23 -29 -23zM507 -191q-35 0 -35 24v2h18v-2q0 -10 17 -10q16 0 19 17v10l-5 -9q-15 -3 -19 -3q-32 0 -32 35q0 18 10 28t25 10q11 0 16 -4l5 -7v10h19v-54q0 -11 -2 -15
q0 -15 -10 -23.5t-26 -8.5zM579 -130v-32h-19v72h19v-13l5 10q9 4 17 4q22 0 27 -21q1 -4 1 -12v-40h-20v46q0 14 -13 14q-17 0 -17 -28zM675 -165q-16 0 -26 10.5t-10 27.5t10 27.5t26 10.5q37 0 37 -38t-37 -38zM820 -165q-9 0 -15.5 6t-6.5 17q0 22 40 22h4v2v7
q0 9 -12 9q-14 0 -14 -12h-17q0 25 31 25q26 0 28 -21v-34v-18h-15l-1 8l-4 -6q-8 -5 -18 -5zM955 -165q-38 0 -38 38t38 38q16 0 25.5 -10.5t9.5 -27.5t-9.5 -27.5t-25.5 -10.5zM1019 -130v-32h-17v72h17v-13l8 10q7 4 17 4q22 0 25 -21v-12v-40h-19v46q-4 14 -11 14
q-20 0 -20 -28zM1160 -165q-28 0 -33 24h20q1 -13 13 -13q10 0 10 10q0 5 -10 10q-3 1 -5 2q-23 6 -23 21q0 22 26 22t32 -22h-21q0 9 -12 9q-6 0 -6 -8q0 -6 14 -12q25 -5 25 -20q0 -23 -30 -23zM1263 -165q-35 0 -35 38q0 17 10.5 27.5t24.5 10.5q15 0 24 -7.5t9 -19.5
h-18q-3 14 -15 14q-17 0 -17 -25q0 -11 5 -17t12 -6q13 0 15 12h18q-2 -27 -33 -27zM1341 -165q-38 0 -38 38t38 38q35 0 35 -38t-35 -38zM1408 -125v-37h-19v72h19v-12l6 9q7 4 13 4q18 0 23 -14l7 10q5 4 15 4t16.5 -5t6.5 -12q1 -5 1 -16v-40h-18v37q0 1 -0.5 5t-0.5 6
q0 12 -13 12q-12 0 -12 -23v-37h-18v48q-4 12 -13 12q-13 0 -13 -23zM457 -90v-72h-18v72h18zM792 -90l-26 -72h-23l-25 72h19l19 -60l17 60h19zM240 -150q20 0 20 23v2q0 23 -18 23q-19 0 -19 -25q0 -23 17 -23zM309 -122h33q-3 20 -16 20q-14 0 -17 -20zM507 -150
q19 0 19 23v2q0 23 -19 23q-17 0 -17 -23q0 -25 17 -25zM675 -150q20 0 20 23q0 25 -20 25q-18 0 -18 -25q0 -23 18 -23zM955 -150q17 0 17 23q0 25 -17 25q-19 0 -19 -25q0 -23 19 -23zM1341 -150q17 0 17 23q0 25 -17 25q-8 0 -14 -7t-6 -18t6 -17t14 -6zM826 -150
q6 0 11 4t5 9v7q-26 3 -26 -12q0 -8 10 -8zM1208 -165q-12 0 -12 10q0 5 3.5 9t8.5 4t8.5 -4t3.5 -9q0 -10 -12 -10z" />
    <glyph glyph-name="_Origin" horiz-adv-x="3007" 
d="M200 1238v67h2607v-67h-2607zM1498 842q35 -35 94 -35q56 0 91 35q37 37 37 87q0 53 -37 87q-35 35 -93 35q-57 0 -92 -35q-37 -35 -37 -87q0 -48 37 -87zM347 811h197v43h-143v56h129v42h-129v52h143v43h-197v-236zM584 811h54v145l118 -145h44v236h-54v-143l-117 143
h-45v-236zM916 811h54v193h76v43h-207v-43h77v-193zM1150 811h58l54 161l52 -161h60l77 236h-52l-56 -168l-54 168h-50l-56 -166l-54 166h-58zM1751 811h54v66h52l44 -66h60l-52 74q28 12 39 31q13 19 13 46q0 54 -48 77q-19 8 -54 8h-108v-236zM1988 811h54v99h128v42h-128
v52h143v43h-197v-236zM2207 811h195v43h-141v56h127v42h-127v52h141v43h-195v-236zM2442 811h54v145l118 -145h46v236h-54v-143l-119 143h-45v-236zM1664 929q0 -33 -21 -54t-53 -21t-52.5 21t-20.5 54q0 34 20.5 55.5t52.5 21.5t53 -21.5t21 -55.5zM1805 921v83h50
q50 0 50 -42q0 -41 -50 -41h-50zM304 415h56v236h-56v-236zM397 415h56v145l118 -145h44v236h-54v-143l-118 143h-46v-236zM739 651v-236h123q95 0 95 64q0 40 -37 56l-4 2q35 17 35 54q0 28 -24.5 44t-71.5 16h-116zM984 415h195v45h-141v54h129v42h-129v51h143v44h-197
v-236zM1218 415h56v66h50l46 -66h58l-50 74q23 8 39 31q13 19 13 46q0 52 -48 77q-21 8 -56 8h-108v-236zM1457 415h195v45h-141v191h-54v-236zM1691 415h54v236h-54v-236zM1784 415h54v145l119 -145h45v236h-56v-143l-116 143h-46v-236zM2237 651v-236h107q83 0 114 56
q17 24 17 62q0 74 -62 103q-29 15 -69 15h-107zM2506 415h195v45h-141v54h129v42h-129v51h143v44h-197v-236zM795 558v56h56q44 0 44 -29q0 -27 -44 -27h-56zM1274 525v82h50q50 0 50 -41t-50 -41h-50zM2293 460v147h49q49 0 69 -35q8 -13 8 -39q0 -46 -35 -64
q-17 -9 -42 -9h-49zM795 456v58h63q43 0 43 -29t-43 -29h-63zM2040 363h35l18 50q9 18 9 33q0 14 -9 23.5t-22 9.5q-15 0 -24.5 -9t-9.5 -24q0 -23 19 -29zM200 146v67h2607v-67h-2607z" />
    </font>
</defs>
</svg>
