<svg xmlns="http://www.w3.org/2000/svg" viewBox="0 0 500 500"><g id="freepik--Heart--inject-2"><path d="M328.47,174.44A49.23,49.23,0,0,0,293.55,160H272.43v4.74a49.46,49.46,0,0,0-13.8,9.72A49.24,49.24,0,0,0,223.33,160H202.22v4.92a49.38,49.38,0,0,0-13.43,79.39l48.5,48.5h-.23v21.34h15.32a15.09,15.09,0,0,0,10.67-4.42l65.42-65.42A49.39,49.39,0,0,0,328.47,174.44Z" style="fill:#00AEE8"></path><path d="M328.47,174.44A49.23,49.23,0,0,0,293.55,160H272.43v4.74a49.46,49.46,0,0,0-13.8,9.72A49.24,49.24,0,0,0,223.33,160H202.22v4.92a49.38,49.38,0,0,0-13.43,79.39l48.5,48.5h-.23v21.34h15.32a15.09,15.09,0,0,0,10.67-4.42l65.42-65.42A49.39,49.39,0,0,0,328.47,174.44Z" style="opacity:0.2"></path><path d="M306.9,174.44a49.39,49.39,0,0,0-69.84,0,49.39,49.39,0,0,0-69.84,69.85l69.84,69.84,69.84-69.84A49.39,49.39,0,0,0,306.9,174.44Z" style="fill:#00AEE8"></path><rect x="210.35" y="284.53" width="1" height="15.27" transform="translate(-144.83 234.67) rotate(-45)" style="fill:#00AEE8"></rect><rect x="222.47" y="300.8" width="1" height="6.96" transform="translate(-149.86 246.8) rotate(-45)" style="fill:#00AEE8"></rect><path d="M306.9,174.44a49.39,49.39,0,0,0-69.84,0,49.39,49.39,0,0,0-69.84,69.85l69.84,69.84,69.84-69.84A49.39,49.39,0,0,0,306.9,174.44Z" style="opacity:0.2"></path><path d="M174.42,237.08a39.19,39.19,0,1,1,55.43-55.43l7.21,7.21,7.21-7.21a39.19,39.19,0,1,1,55.43,55.43l-62.64,62.64Z" style="fill:#00AEE8"></path><path d="M186.16,202.62h17.22v4.53H197.6V221h-5.67v-13.8h-5.77Z" style="fill:#fff"></path><path d="M206,202.62h5.67V209h6.19v-6.41h5.69V221h-5.69v-7.41h-6.19V221H206Z" style="fill:#fff"></path><path d="M238.54,217.92h-6.43l-.89,3h-5.79l6.89-18.33h6.18L245.39,221h-5.93Zm-1.17-4-2-6.59-2,6.59Z" style="fill:#fff"></path><path d="M247.23,202.62h5.29l6.9,10.14V202.62h5.34V221h-5.34l-6.86-10.07V221h-5.33Z" style="fill:#fff"></path><path d="M268.55,202.62h5.67v6.93l5.93-6.93h7.53L281,209.54,288,221h-7l-3.87-7.54-2.92,3.07V221h-5.67Z" style="fill:#fff"></path><path d="M206.28,233.35h6.29l3.69,6.19,3.7-6.19h6.26L219.09,244v7.68h-5.67V244Z" style="fill:#fff"></path><path d="M225.8,242.53a8.68,8.68,0,0,1,9.46-9.49c3.05,0,5.41.82,7.06,2.46a9.24,9.24,0,0,1,2.47,6.88,11.3,11.3,0,0,1-1.08,5.27,7.66,7.66,0,0,1-3.13,3.2,10.33,10.33,0,0,1-5.09,1.15,11.74,11.74,0,0,1-5.14-1,7.72,7.72,0,0,1-3.29-3.13A10.38,10.38,0,0,1,225.8,242.53Zm5.66,0a6.18,6.18,0,0,0,1,4,3.9,3.9,0,0,0,5.64,0c.66-.79,1-2.21,1-4.27a5.65,5.65,0,0,0-1-3.78,3.58,3.58,0,0,0-2.83-1.19,3.43,3.43,0,0,0-2.75,1.21A6.18,6.18,0,0,0,231.46,242.55Z" style="fill:#fff"></path><path d="M259.77,233.35h5.66v10.92a9.11,9.11,0,0,1-.51,3.07,6.67,6.67,0,0,1-1.59,2.52,6.34,6.34,0,0,1-2.27,1.52,11.35,11.35,0,0,1-4,.62,25.92,25.92,0,0,1-2.92-.19,7.55,7.55,0,0,1-2.65-.75,6.5,6.5,0,0,1-1.94-1.58,5.76,5.76,0,0,1-1.21-2.11,10.9,10.9,0,0,1-.52-3.1V233.35h5.65v11.18a3.24,3.24,0,0,0,.83,2.35,3.59,3.59,0,0,0,4.6,0,3.18,3.18,0,0,0,.83-2.36Z" style="fill:#fff"></path></g></svg>